<?xml version="1.0" encoding="UTF-8"?><svg id="Albert_Park" xmlns="http://www.w3.org/2000/svg" viewBox="0 0 1000 1000"><defs><style>.cls-1{fill:#fae44a;}.cls-2{fill:#e3f7ff;}.cls-3{fill:#db4a25;}.cls-4,.cls-5{fill:#1bce20;}.cls-6{fill:#75e5fd;}.cls-5{stroke:#000;stroke-miterlimit:10;stroke-width:2px;}</style></defs><g id="Simple"><g id="Layer_52"><g id="Colors"><path class="cls-6" d="m569.14,560.48c-1.51.01-3.06.02-4.64.02,0,0-70.5,9.5-113-16-41.63-24.98-61-53-61-53,0,0-35-46-49-94,0,0-6-16-23-33,0,0-57-54-99-53,0,0-34,0-56,29,0,0-19,19-53,19,0,0-1.79,10.5-5.38,23.87l-25.56-7.57c1.23-4.82,2.11-9.5,2.44-13.8,2-26,20-30,20-30,0,0,24,6,38-7s32-26,32-26c0,0,26-16,63-13s82,44,82,44c0,0,37,26,49.22,60.35,12.21,34.35,44.35,83,44.35,83,0,0,10.43,12.65,27.43,28.65,17.19,16.18,41,28,69,32,13.35,1.91,37.85,1.09,59.82-.3l2.32,26.78Z"/><path class="cls-1" d="m958,594c-23.27,27.63-39,67-39,67,0,0-11,23-31,27s-72-13-86-17-6-1-6,33-31,38-31,38l-93,2-100.38,2.48v-.48l-.12-11.89-.04-4-.1-10.42v-.52l48.14-.67,140-3c8.5.5,9.5-5.5,8-24l-1.5-33.5s1.5-21.5,33.5-16.5c18.64,2.91,40.66,9.56,55.81,14.59.1.04.2.07.29.1,9.72,3.24,16.55,5.79,17.72,6.24,0-.01-.02-.01-.03-.02.03.01.08.03.17.07h0s0,0,0,0c.76.27,3.81,1.08,7.96-.76.03-.02.07-.03.1-.05,4.82-2.18,11.09-7.96,16.9-22.32,10.43-25.79,30.5-53.18,35.78-60.16.68-.91,1.43-2.2.45-2.79-10.01-5.94-58.46-34.61-86.16-48.9-31-16-47.43-29-90.72-27.5l-91.08,8.81c-3.54.34-6.78,2.18-8.89,5.05l-23.31,31.64s-4.76,14.28-65.36,14.98c-1.51.01-3.06.02-4.64.02,0,0-.34.04-.98.11l-.02-.51-.41-9.56-.17-3.99-.52-12.08-.02-.5c1.49-.09,2.97-.18,4.44-.27,24.11-1.51,45.18-3.7,45.18-3.7,1.94,0,8.17-9.89,13.73-17.58,2.74-3.79,6.22-7.76,8.6-11.79,11.97-20.27,29.67-18.63,29.67-18.63,0,0,36,0,88.3-7.65,52.31-7.65,94.7,22.65,94.7,22.65l61.09,32.48,27.9,14.83c8.46,4.4,17.35,8.39,22.73,15.95.09.11.17.23.24.35.47.67.91,1.38,1.31,2.11,4.78,8.65,5.33,22.26-2.27,31.28Z"/><path class="cls-3" d="m558.63,746.32v.48l-88.63,2.2s-60.97,1-76,1c-9,0-13-12-13-12-9-40-37-37-37-37,0,0-28,9-108,3-78.94-5.92-117-21-117-21-29.59-3.52-37.59-17.36-39-25-.52-2.82.81-7.39,2-10,3.41-7.49,12.19-26.19,21-35,5.17-5.17,5.88-8.64,5.36-10.75-.02-.08-.04-.16-.07-.23-.03-.1-.07-.2-.1-.29-.07-.2-.16-.38-.25-.55-.06-.11-.11-.21-.18-.31-.25-.37-.52-.66-.76-.87-.79-.69-9.32-9.43-28-24-26.48-20.65-36.78-36.65-36.78-36.65,0,0-.16-.09-.38-.56,0-.02-.02-.05-.04-.09,0-.01,0-.03-.02-.06-.95-2.22-2.71-11.08,1.22-45.64,6.12-53.88,15-66,15-66,0,0,15.33-26.87,21.56-51.2l.51.15,11.15,3.15,3.86,1.09,9.5,2.69.42.12c-3.34,11.04-6.4,25.34-15.5,40.5-15.44,25.73-18.34,52.09-18.88,61.95-.18,3.38-.54,6.75-1.03,10.1-1.39,9.53-3.81,27.33-3.09,30.95.04.21.17.49.39.83,0,.02.03.04.04.06,5.02,7.91,51.85,47.96,51.85,47.96,0,0,6.71,4.54,11.95,12.12.17.23.32.47.48.71,6.57,9.92,10.33,24.72-5.71,41.32l-13,20s-1.16,1.82-.15,3.65c0,0,0,0,0,.01.75,1.35,2.69,2.7,7.14,3.34,0,0,63,21,148,22,0,0,31,1,74-4,13.5-1.57,24.83,2.48,34.02,8.77.01,0,.02.01.03.02,20.07,13.75,29.95,38.21,29.95,38.21l152.88-2.14v.51l.1,10.53.04,4.01.11,11.91Z"/></g><g id="Track_Inner_Line"><path d="m951.69,574c-1.47-6.76-7.41-12.96-17.66-18.41-4.03-2.14-9.69-5.2-16.43-8.84-48.54-26.19-101.32-54.33-113.21-56.71-1.96-.39-3.81-.81-5.77-1.25-12.57-2.84-25.57-5.77-61.81-.78-2.48.34-4.98.6-7.42.77l-67.95,4.65c-1.08.07-2.12.3-3.08.68-4.6,1.81-12.48,7.71-23.95,25.53-1.81,2.8-3.39,5.69-4.56,7.9-2.44,4.58-10.67,15.31-34.19,15.93-1.62.04-3.31.18-5.03.42-4.67.63-14.76,1.85-27.71,2.66-7.44.46-15.81.79-24.64.79-30.04,0-65.29-3.8-86.48-18.96-1.82-1.31-3.54-2.47-5.26-3.55-8.66-5.47-39.72-28.43-75.75-94.11-2.33-4.23-3.9-8.98-5.43-13.58-.57-1.75-1.15-3.49-1.77-5.22l-.4-1.11c-5.61-15.71-18.73-52.49-70.09-86.48-35.56-23.54-62.15-27.79-78.17-27.2-16.62.6-25.63,6.25-26.94,7.14-2.26,1.09-25.75,12.73-37.55,27.48-10.98,13.73-42.51,14.23-44.36,14.25-.63-.04-2.2.03-4.1,1.44-4.86,3.62-8.3,13.08-10.22,28.11-.15,1.19-.33,2.37-.54,3.55-3.6,20.69-14.99,39.89-19.93,47.46-2.3,3.54-4.09,7.38-5.32,11.43-4.43,14.51-14.54,52.34-12.97,90.09l1.09,8.77.39.45c4.09,4.74,19.03,19.67,27.43,26.48,20.9,16.97,32.16,27.36,36.04,31.05.94.89,1.67,2,2.1,3.21,1.81,5.02,1.63,7.33,1.29,7.85-2.91,4.37-6.89,10.61-10.74,16.66-2.52,3.95-5.04,7.9-7.28,11.36-7.61,11.76-10.19,20.32-7.89,26.18,2.3,5.83,8.61,7.43,13.21,8.59l.96.25c1.52.39,3.17.78,4.84,1.17,2.59.61,5.27,1.23,7.5,1.9,27.19,8.17,84.81,21.74,165.11,21,1.79-.04,44.13-1.03,59.23-4.02,2.05-.15,28.38-1.19,45.38,40.92.4.97,1.01,3.2,1.27,4.39l-.33.35.57,1.21c.18.39.59.71,1.18.98l-.02.05,1.24.43.04-.03c2.53.68,6.57.87,10.26.87,2.39,0,4.63-.08,6.22-.15,9.02-.43,74.67-1.98,146.43-3.59l-.04-4.01c-71.8,1.62-137.53,3.17-146.57,3.6-9.04.44-13.31-.13-15.02-.5-.27-1.82-1.05-3.94-1.52-5.1-18.51-45.85-48.31-43.52-49.56-43.39l-.2.03c-14.66,2.93-58.22,3.95-58.63,3.96-79.76.72-136.91-12.73-163.89-20.83-2.34-.7-5.09-1.35-7.74-1.97-1.64-.38-3.26-.76-4.74-1.15l-.99-.25c-3.97-1-8.92-2.25-10.46-6.18-1.78-4.5.76-12.08,7.52-22.53,2.25-3.48,4.77-7.43,7.29-11.39,3.84-6.03,7.81-12.26,10.69-16.59.53-.79,2.13-3.19-.85-11.43-.64-1.79-1.72-3.43-3.11-4.75-3.9-3.72-15.25-14.2-36.27-31.25-7.84-6.37-22.1-20.54-26.52-25.54l-.91-7.31c-1.53-37.11,8.43-74.37,12.79-88.67,1.13-3.69,2.76-7.2,4.85-10.41,5.04-7.74,16.64-27.29,20.44-48.56.25-1.38.46-2.76.64-4.14,3.07-23.96,9.27-25.91,10.02-26.05h.26c1.43,0,35.1-.18,47.56-15.75,11.57-14.46,36.06-26.33,36.31-26.45l.29-.17c.08-.06,8.69-6,25.26-6.52,15.39-.49,40.98,3.73,75.48,26.56,50.24,33.25,63.05,69.15,68.52,84.49l.4,1.11c.61,1.7,1.18,3.41,1.75,5.13,1.58,4.76,3.21,9.69,5.71,14.25,36.49,66.52,68.26,89.96,77.13,95.56,1.65,1.04,3.3,2.16,5.07,3.42,28.31,20.27,80.31,20.96,113.61,18.91,13.12-.81,23.34-2.05,28.07-2.69,1.59-.21,3.13-.34,4.6-.38,25.63-.68,34.85-12.85,37.62-18.05,1.14-2.14,2.66-4.93,4.39-7.62,11.47-17.81,18.74-22.66,22.05-23.97.58-.22,1.22-.36,1.9-.41l67.95-4.65c2.53-.18,5.12-.44,7.68-.8,35.53-4.89,48.16-2.04,60.39.72,1.9.43,3.86.87,5.87,1.27,12.3,2.46,77.21,37.49,112.09,56.31,6.75,3.64,12.42,6.7,16.45,8.85,8.98,4.78,14.39,10.19,15.62,15.64,1.06,4.7-1.27,7.9-1.31,7.96-.18.22-18.37,22.24-35.56,61.83-12.36,28.49-32.83,29.46-35.55,29.46h-.06l-68.49-18.51c-3.43-.93-6.94-1.54-10.45-1.8l-1.27-.09c-5.86-.46-9.73-.75-12.26,1.71-3.46,3.37-3.13,10.11-2.14,30.14.1,2.07.21,4.28.32,6.63.69,14.35-1.84,24.38-7.5,29.82-4.53,4.34-9.93,4.57-12.75,4.32-1.66-.15-3.43-.19-5.58-.15-17.02.37-102.29,2.21-183.71,4.03l.04,4c81.42-1.82,166.73-3.66,183.75-4.03,2-.04,3.63,0,5.15.13,3.49.32,10.2.02,15.87-5.42,6.53-6.27,9.47-17.33,8.73-32.88-.11-2.37-.22-4.58-.33-6.65-.82-16.62-1.23-24.96.94-27.07,1.23-1.21,4.39-.96,9.17-.6l1.27.1c3.25.25,6.52.81,9.71,1.67l68.72,18.57.21.06h.23c1.03.06,25.53.69,39.65-31.84,16.94-39.02,34.79-60.65,35.02-60.94.14-.18,3.52-4.7,2.1-11.21Zm-554.72,160.82c.03.29,0,.6-.13.91h0c.09-.27.13-.58.14-.91Z"/></g><path id="Track_Outline" d="m961.7,561.28c-4.89-8.85-13.8-13.42-22.41-17.83-.9-.46-1.8-.93-2.7-1.39l-88.87-46.25c-1.11-.78-9.29-6.39-22.48-12.07-12.82-5.52-32.97-12.11-56.09-12.11-5.87,0-11.75.43-17.46,1.26-49.97,7.31-85.45,7.62-87.88,7.63-.32-.04-1.04-.11-2.08-.11-5.23,0-18.46,1.82-28.45,18.73-1.5,2.54-3.51,5.13-5.46,7.64-1.02,1.31-2.08,2.67-3.03,3.99-1.12,1.54-2.3,3.22-3.5,4.9-3.34,4.73-8.36,11.82-9.98,12.88-2.04.21-22.26,2.26-44.94,3.68l-4.43.27c-12.99.76-24.29,1.14-33.59,1.14s-16.28-.37-21.39-1.1c-25.4-3.63-49.51-15.16-67.91-32.47-16.01-15.07-26.28-27.29-27.19-28.39-1.57-2.38-32.34-49.45-44.08-82.48-12.11-34.03-47.34-59.47-49.86-61.25-1.09-.96-12.19-10.62-27.27-20.48-21.35-13.95-40.13-21.67-55.81-22.94-3.12-.25-6.29-.38-9.42-.38-32.2,0-53.88,13.11-54.79,13.67l-.12.08c-.18.13-18.26,13.22-32.19,26.16-6.99,6.48-16.81,7.84-23.81,7.84s-12.29-1.31-12.35-1.32l-.41-.1-.42.07c-.76.14-18.55,3.58-20.65,30.82-.3,3.91-1.1,8.43-2.38,13.46-5.84,22.82-20,49.2-21.28,51.56-1.51,1.87-10.83,15.28-15.33,65.95-1.67,18.73-2.48,32.27-2.4,40.25.05,5.46.47,6.98,1.13,7.65,1.48,2.03,12.53,16.7,37.55,36.21,15.87,12.38,23.84,20.84,26.45,23.61.52.55.75.8.94.97.13.11,1.23,1.12,1.29,3.01.08,2.33-1.44,5.12-4.39,8.07-8.97,8.98-18.43,28.6-22.08,36.62-1.39,3.05-1.82,6.35-1.23,9.54,1.52,8.2,8.63,22.49,39.25,26.21,3.46,1.3,42.24,15.28,117.35,20.04,18.92,1.2,36.58,1.8,52.49,1.8,38.04,0,54.12-3.4,55.95-3.82.17-.01.53-.03,1.06-.03,6.26,0,27.27,2.56,34.68,35.49.15.6,3.51,13.56,13.95,13.56,14.88,0,75.42-.99,76.03-1l88.93-2.2v-1.52s-.01-.48-.01-.48l-88.95,2.2s-60.97,1-76,1c-9,0-12-12-12-12-7.83-34.78-30.78-37.05-36.63-37.05-.88,0-1.37.05-1.37.05,0,0-15.74,3.8-55.64,3.8-14.24,0-31.58-.48-52.36-1.8-79-5-117-20-117-20-29.6-3.52-36.35-16.97-37.76-24.61-.52-2.83-.11-5.74,1.08-8.35,3.41-7.49,12.86-27.22,21.68-36.04,5.03-5.03,5.42-8.85,4.68-11.27-.02-.08-.04-.16-.07-.23-.03-.1-.07-.2-.1-.29-.08-.19-.17-.38-.25-.55-.06-.11-.11-.21-.18-.31-.36-.62-.77-1.08-1.08-1.35-.8-.69-8.8-10.08-27.48-24.65-26.48-20.65-37.3-36-37.3-36,0,0-.02-.01-.06-.08,0-.02-.02-.05-.04-.09,0-.01,0-.03-.02-.06-.4-1.13-1.51-7.78,1.9-46.12,4.8-54.02,15-65,15-65,0,0,15.07-27.39,21.39-51.57.06-.21.12-.42.17-.63,1.23-4.82,2.11-9.5,2.44-13.8,2-26,19-29,19-29,0,0,5.53,1.38,12.83,1.38,7.9,0,17.89-1.62,25.17-8.38,14-13,32-26,32-26,0,0,21.73-13.37,53.74-13.37,3,0,6.09.11,9.26.37,37,3,82,43,82,43,0,0,37,26,49.22,60.35,12.21,34.35,44.35,83,44.35,83,0,0,10.43,12.65,27.43,28.65,17.18,16.18,41,29,69,33,5.6.8,13.16,1.12,21.67,1.12,10.42,0,22.28-.48,33.71-1.15.11-.01.23-.01.34-.02,1.38-.08,2.74-.17,4.1-.25,24.11-1.51,45.18-3.7,45.18-3.7,1.94,0,9.17-10.89,14.73-18.57,2.74-3.8,6.21-7.77,8.59-11.8,9.51-16.08,21.98-17.74,26.73-17.74,1.24,0,1.95.11,1.95.11,0,0,36,0,88.3-7.65,5.86-.86,11.6-1.24,17.17-1.24,44.11,0,77.53,23.89,77.53,23.89l61.41,31.96,27.58,14.35c8.63,4.5,17.72,8.55,23.05,16.43.09.11.17.23.24.35.35.53.68,1.07.99,1.64,4.78,8.64,5.33,22.25-2.27,31.27-23.27,27.63-39,67-39,67,0,0-11,23-31,27-2.08.42-4.51.61-7.2.61-23.21,0-66.26-14.02-78.8-17.61-2.94-.84-4.91-1.37-6.19-1.37-4.8,0,.19,7.51.19,34.37,0,34-31,38-31,38l-93,2-100.06,2.48v2s100.11-2.48,100.11-2.48l92.99-2h.21c.34-.06,8.32-1.14,16.37-6.59,7.47-5.06,16.38-14.97,16.38-33.41,0-12.4-1.04-20.63-1.73-26.08-.34-2.62-.68-5.34-.51-6.29h.05c1.03,0,3.07.56,5.64,1.29,1.71.49,4.05,1.2,6.76,2.01,16.97,5.09,52.29,15.68,72.59,15.68,2.9,0,5.46-.22,7.59-.65,20.74-4.15,31.95-27.12,32.41-28.1l.03-.05.03-.07c.15-.39,15.88-39.39,38.67-66.45,8.33-9.89,7.56-24.36,2.49-33.53Zm-342.52,157.74l140-3c.89.27,1.71.4,2.47.4,6.41,0,8.32-9.31,6.53-25.4l-2-33s.79-16.77,23.8-16.77c2.74,0,5.8.24,9.2.77,18.77,2.93,40.98,9.31,56.13,14.07.1.04.2.07.29.1,10.53,3.31,17.58,5.83,17.58,5.83,0,0,1.33.64,3.53.64,1.3,0,2.91-.23,4.72-.94.03-.02.07-.03.1-.05,4.98-2.01,11.51-7.78,17.58-22.8,10.43-25.78,30.5-53.17,35.77-60.16.69-.91.44-2.2-.54-2.78-10.02-5.95-58.47-34.61-86.16-48.91-29.37-15.15-45.65-27.62-84.08-27.62-2.14,0-4.36.04-6.64.12l-91.08,8.81c-3.55.35-6.78,2.18-8.89,5.05l-23.31,31.64s-4.76,14.28-65.36,14.98c-1.51.01-3.06.02-4.64.02,0,0-.23.03-.68.08-2.88.35-14.6,1.65-30.21,1.65-24.21,0-57.76-3.12-82.11-17.73-41.63-24.98-61-53-61-53,0,0-35-46-49-94,0,0-6-16-23-33,0,0-55.96-53.01-97.84-53.01-.39,0-.78,0-1.16,0,0,0-34,0-56,29,0,0-19,19-53,19,0,0-1.79,10.5-5.38,23.87l-.21-.06s0,.03,0,.05c-3.31,10.99-6.4,25.14-15.4,40.14-15.44,25.73-18.34,52.09-18.88,61.95-.19,3.38-.54,6.75-1.03,10.1-1.39,9.53-3.82,27.33-3.09,30.95.06.3.3.74.71,1.31,0,.02.03.04.04.06,6.46,8.94,51.53,47.48,51.53,47.48,0,0,6.99,4.73,12.27,12.6.17.23.32.47.48.71,6.36,9.91,9.76,24.51-6.03,40.84l-13,20s-1.37,2.15.17,4.13c0,0,0,0,0,.01.93,1.18,2.89,2.3,6.82,2.86,0,0,63,21,148,22,0,0,2.53.08,7.15.08,11.54,0,36.14-.51,66.85-4.08,1.94-.22,3.83-.33,5.68-.33,11.18.01,20.73,3.95,28.66,9.58.01,0,.02.01.03.02,19.86,14.08,29.63,38.73,29.63,38.73l153.2-2.15v-2s-151.88,2.13-151.88,2.13c-1.52-3.47-6.2-13.37-14.23-23.39-13.07-16.3-28.77-24.92-45.41-24.92-1.95,0-3.94.12-5.91.35-30.44,3.53-54.81,4.06-66.62,4.06-4.53,0-7.06-.08-7.09-.08-83.72-.98-146.8-21.69-147.43-21.9l-.17-.05-.18-.03c-4.41-.63-5.46-1.89-5.71-2.41-.33-.68.07-1.45.13-1.55l12.87-19.81c8.73-9.08,12.64-18.6,11.62-28.3-1.72-16.58-17.17-27.64-18.69-28.69-16.13-13.79-49.74-43.42-51.55-47.72-.44-2.51.72-13.77,3.12-30.2.51-3.52.87-6.98,1.05-10.28.54-9.94,3.44-35.77,18.59-61.03,7.67-12.78,11.17-25.11,13.99-35.02.36-1.27.71-2.5,1.05-3.7l.26.08.54-2c2.75-10.25,4.47-18.91,5.12-22.4,33.38-.6,51.96-18.79,52.74-19.57l.1-.1.08-.11c21.11-27.83,54.08-28.21,54.41-28.21.41,0,.79,0,1.16,0,40.32,0,95.16,51.24,96.44,52.45,15.92,15.92,22.07,31.11,22.5,32.2,13.81,47.26,48.2,93.11,49.28,94.54.9,1.27,20.82,29.07,61.59,53.54,24.82,14.89,58.91,18.01,83.14,18.01,16.98,0,29.57-1.54,31.02-1.73,1.54,0,3.05,0,4.52-.02,57.09-.66,65.88-13.29,67.1-15.99l23.17-31.45c1.77-2.4,4.5-3.95,7.47-4.24l91.02-8.8c2.22-.08,4.41-.12,6.51-.12,32.11,0,48.24,8.69,70.57,20.72,4,2.15,8.13,4.38,12.59,6.68,27.64,14.26,76.25,43.02,85.97,48.79-5.9,7.81-25.59,34.84-35.98,60.53-7.92,19.62-16.27,22.54-20.54,22.54-1.66,0-2.67-.45-2.68-.45l-.1-.05-.08-.02c-.42-.15-42.54-15.12-74.36-20.09-3.37-.53-6.57-.8-9.51-.8-24.63,0-25.79,18.49-25.8,18.68v.21l2,33v.05s0,.05,0,.05c1.71,15.36-.49,20.4-1.96,22.03-.7.79-1.52,1.15-2.58,1.15-.57,0-1.2-.11-1.9-.31l-.3-.09h-.31l-140,3-47.79.67v1.48s0,.52,0,.52l47.82-.67Zm315.16-143.09c-10.02-5.95-58.47-34.61-86.16-48.91-29.37-15.15-45.65-27.62-84.08-27.62-2.14,0-4.36.04-6.64.12l-91.08,8.81c-3.55.35-6.78,2.18-8.89,5.05l-23.31,31.64s-4.76,14.28-65.36,14.98c-1.51.01-3.06.02-4.64.02,0,0-.23.03-.68.08-2.88.35-14.6,1.65-30.21,1.65-24.21,0-57.76-3.12-82.11-17.73-41.63-24.98-61-53-61-53,0,0-35-46-49-94,0,0-6-16-23-33,0,0-55.96-53.01-97.84-53.01-.39,0-.78,0-1.16,0,0,0-34,0-56,29,0,0-19,19-53,19,0,0-1.79,10.5-5.38,23.87l-.21-.06s0,.03,0,.05c-3.31,10.99-6.4,25.14-15.4,40.14-15.44,25.73-18.34,52.09-18.88,61.95-.19,3.38-.54,6.75-1.03,10.1-1.39,9.53-3.82,27.33-3.09,30.95.06.3.3.74.71,1.31,0,.02.03.04.04.06,6.46,8.94,51.53,47.48,51.53,47.48,0,0,6.99,4.73,12.27,12.6.17.23.32.47.48.71,6.36,9.91,9.76,24.51-6.03,40.84l-13,20s-1.37,2.15.17,4.13c0,0,0,0,0,.01.93,1.18,2.89,2.3,6.82,2.86,0,0,63,21,148,22,0,0,2.53.08,7.15.08,11.54,0,36.14-.51,66.85-4.08,1.94-.22,3.83-.33,5.68-.33,11.18.01,20.73,3.95,28.66,9.58.01,0,.02.01.03.02,19.86,14.08,29.63,38.73,29.63,38.73l153.2-2.15v-2s-151.88,2.13-151.88,2.13c-1.52-3.47-6.2-13.37-14.23-23.39-13.07-16.3-28.77-24.92-45.41-24.92-1.95,0-3.94.12-5.91.35-30.44,3.53-54.81,4.06-66.62,4.06-4.53,0-7.06-.08-7.09-.08-83.72-.98-146.8-21.69-147.43-21.9l-.17-.05-.18-.03c-4.41-.63-5.46-1.89-5.71-2.41-.33-.68.07-1.45.13-1.55l12.87-19.81c8.73-9.08,12.64-18.6,11.62-28.3-1.72-16.58-17.17-27.64-18.69-28.69-16.13-13.79-49.74-43.42-51.55-47.72-.44-2.51.72-13.77,3.12-30.2.51-3.52.87-6.98,1.05-10.28.54-9.94,3.44-35.77,18.59-61.03,7.67-12.78,11.17-25.11,13.99-35.02.36-1.27.71-2.5,1.05-3.7l.26.08.54-2c2.75-10.25,4.47-18.91,5.12-22.4,33.38-.6,51.96-18.79,52.74-19.57l.1-.1.08-.11c21.11-27.83,54.08-28.21,54.41-28.21.41,0,.79,0,1.16,0,40.32,0,95.16,51.24,96.44,52.45,15.92,15.92,22.07,31.11,22.5,32.2,13.81,47.26,48.2,93.11,49.28,94.54.9,1.27,20.82,29.07,61.59,53.54,24.82,14.89,58.91,18.01,83.14,18.01,16.98,0,29.57-1.54,31.02-1.73,1.54,0,3.05,0,4.52-.02,57.09-.66,65.88-13.29,67.1-15.99l23.17-31.45c1.77-2.4,4.5-3.95,7.47-4.24l91.02-8.8c2.22-.08,4.41-.12,6.51-.12,32.11,0,48.24,8.69,70.57,20.72,4,2.15,8.13,4.38,12.59,6.68,27.64,14.26,76.25,43.02,85.97,48.79-5.9,7.81-25.59,34.84-35.98,60.53-7.92,19.62-16.27,22.54-20.54,22.54-1.66,0-2.67-.45-2.68-.45l-.1-.05-.08-.02c-.42-.15-42.54-15.12-74.36-20.09-3.37-.53-6.57-.8-9.51-.8-24.63,0-25.79,18.49-25.8,18.68v.21l2,33v.05s0,.05,0,.05c1.71,15.36-.49,20.4-1.96,22.03-.7.79-1.52,1.15-2.58,1.15-.57,0-1.2-.11-1.9-.31l-.3-.09h-.31l-140,3-47.79.67v1.48s0,.52,0,.52l47.82-.67,140-3c.89.27,1.71.4,2.47.4,6.41,0,8.32-9.31,6.53-25.4l-2-33s.79-16.77,23.8-16.77c2.74,0,5.8.24,9.2.77,18.77,2.93,40.98,9.31,56.13,14.07.1.04.2.07.29.1,10.53,3.31,17.58,5.83,17.58,5.83,0,0,1.33.64,3.53.64,1.3,0,2.91-.23,4.72-.94.03-.02.07-.03.1-.05,4.98-2.01,11.51-7.78,17.58-22.8,10.43-25.78,30.5-53.17,35.77-60.16.69-.91.44-2.2-.54-2.78Zm0,0c-10.02-5.95-58.47-34.61-86.16-48.91-29.37-15.15-45.65-27.62-84.08-27.62-2.14,0-4.36.04-6.64.12l-91.08,8.81c-3.55.35-6.78,2.18-8.89,5.05l-23.31,31.64s-4.76,14.28-65.36,14.98c-1.51.01-3.06.02-4.64.02,0,0-.23.03-.68.08-2.88.35-14.6,1.65-30.21,1.65-24.21,0-57.76-3.12-82.11-17.73-41.63-24.98-61-53-61-53,0,0-35-46-49-94,0,0-6-16-23-33,0,0-55.96-53.01-97.84-53.01-.39,0-.78,0-1.16,0,0,0-34,0-56,29,0,0-19,19-53,19,0,0-1.79,10.5-5.38,23.87l-.21-.06s0,.03,0,.05c-3.31,10.99-6.4,25.14-15.4,40.14-15.44,25.73-18.34,52.09-18.88,61.95-.19,3.38-.54,6.75-1.03,10.1-1.39,9.53-3.82,27.33-3.09,30.95.06.3.3.74.71,1.31,0,.02.03.04.04.06,6.46,8.94,51.53,47.48,51.53,47.48,0,0,6.99,4.73,12.27,12.6.17.23.32.47.48.71,6.36,9.91,9.76,24.51-6.03,40.84l-13,20s-1.37,2.15.17,4.13c0,0,0,0,0,.01.93,1.18,2.89,2.3,6.82,2.86,0,0,63,21,148,22,0,0,2.53.08,7.15.08,11.54,0,36.14-.51,66.85-4.08,1.94-.22,3.83-.33,5.68-.33,11.18.01,20.73,3.95,28.66,9.58.01,0,.02.01.03.02,19.86,14.08,29.63,38.73,29.63,38.73l153.2-2.15v-2s-151.88,2.13-151.88,2.13c-1.52-3.47-6.2-13.37-14.23-23.39-13.07-16.3-28.77-24.92-45.41-24.92-1.95,0-3.94.12-5.91.35-30.44,3.53-54.81,4.06-66.62,4.06-4.53,0-7.06-.08-7.09-.08-83.72-.98-146.8-21.69-147.43-21.9l-.17-.05-.18-.03c-4.41-.63-5.46-1.89-5.71-2.41-.33-.68.07-1.45.13-1.55l12.87-19.81c8.73-9.08,12.64-18.6,11.62-28.3-1.72-16.58-17.17-27.64-18.69-28.69-16.13-13.79-49.74-43.42-51.55-47.72-.44-2.51.72-13.77,3.12-30.2.51-3.52.87-6.98,1.05-10.28.54-9.94,3.44-35.77,18.59-61.03,7.67-12.78,11.17-25.11,13.99-35.02.36-1.27.71-2.5,1.05-3.7l.26.08.54-2c2.75-10.25,4.47-18.91,5.12-22.4,33.38-.6,51.96-18.79,52.74-19.57l.1-.1.08-.11c21.11-27.83,54.08-28.21,54.41-28.21.41,0,.79,0,1.16,0,40.32,0,95.16,51.24,96.44,52.45,15.92,15.92,22.07,31.11,22.5,32.2,13.81,47.26,48.2,93.11,49.28,94.54.9,1.27,20.82,29.07,61.59,53.54,24.82,14.89,58.91,18.01,83.14,18.01,16.98,0,29.57-1.54,31.02-1.73,1.54,0,3.05,0,4.52-.02,57.09-.66,65.88-13.29,67.1-15.99l23.17-31.45c1.77-2.4,4.5-3.95,7.47-4.24l91.02-8.8c2.22-.08,4.41-.12,6.51-.12,32.11,0,48.24,8.69,70.57,20.72,4,2.15,8.13,4.38,12.59,6.68,27.64,14.26,76.25,43.02,85.97,48.79-5.9,7.81-25.59,34.84-35.98,60.53-7.92,19.62-16.27,22.54-20.54,22.54-1.66,0-2.67-.45-2.68-.45l-.1-.05-.08-.02c-.42-.15-42.54-15.12-74.36-20.09-3.37-.53-6.57-.8-9.51-.8-24.63,0-25.79,18.49-25.8,18.68v.21l2,33v.05s0,.05,0,.05c1.71,15.36-.49,20.4-1.96,22.03-.7.79-1.52,1.15-2.58,1.15-.57,0-1.2-.11-1.9-.31l-.3-.09h-.31l-140,3-47.79.67v1.48s0,.52,0,.52l47.82-.67,140-3c.89.27,1.71.4,2.47.4,6.41,0,8.32-9.31,6.53-25.4l-2-33s.79-16.77,23.8-16.77c2.74,0,5.8.24,9.2.77,18.77,2.93,40.98,9.31,56.13,14.07.1.04.2.07.29.1,10.53,3.31,17.58,5.83,17.58,5.83,0,0,1.33.64,3.53.64,1.3,0,2.91-.23,4.72-.94.03-.02.07-.03.1-.05,4.98-2.01,11.51-7.78,17.58-22.8,10.43-25.78,30.5-53.17,35.77-60.16.69-.91.44-2.2-.54-2.78Z"/><path class="cls-2" d="m327.7,389.43c-7.65-15.23-19.48-24.65-32.88-35.18-27.43-21.54-75.27-50.28-121.82-12.25-71,58-34.78,81.93-34.78,81.93,0,0,93.78,48.07,85.78,89.07,0,0-22,36-60,65s-3.87,72-3.87,72c0,0,11.65,30.7,90.26-4.65,78.61-35.35,171.61-39.35,171.61-39.35,0,0,177-10,271-1s155,25,155,25c0,0,40,15,56-35,11.43-35.72-32.77-48.81-58.95-53.37-11.86-2.07-23.53-5.15-34.84-9.28-31.64-11.54-101.95-29.36-158.2,12.64,0,0-17.96,15.67-48,19.14-68,7.86-137,15.86-191.57-39.14,0,0-34.43-21-64.01-89.71-7.42-17.23-13.69-31.85-20.72-45.86Z"/><rect x="561.73" y="692.99" width="6.11" height="55.73" transform="translate(-6.44 5.09) rotate(-.51)"/></g><g id="Simple-2"><g id="DRS_Circles"><circle class="cls-5" cx="500" cy="547" r="10"/><circle class="cls-5" cx="817" cy="660" r="10"/></g><g id="DRS"><path class="cls-4" d="m953.13,543.32c-.1-.05-.53-.28-1.26-.65l-1.11-.58,2.05-3.96,2.45,1.23-2.13,3.97Zm6.15-1.95l-6.48-3.24,2.08-4.03,1.11.58c1.3.67,5.26,2.72,3.28,6.69Zm-11.21-.66l-2.67-1.38,4.14-7.99,2.67,1.39-4.14,7.99Zm-5.35-2.77l-2.67-1.39,4.15-7.98,2.67,1.39-4.16,7.98Zm-5.33-2.77l-2.67-1.39,4.15-7.98,2.66,1.38-4.15,7.99Zm-5.33-2.78l-2.67-1.39,4.16-7.98,2.66,1.39-4.15,7.98Zm-5.33-2.78l-2.66-1.39,4.16-7.98,2.67,1.39-4.17,7.98Zm-5.33-2.78l-2.66-1.39,4.17-7.98,2.67,1.39-4.17,7.97Zm-5.33-2.79l-2.66-1.39,4.17-7.97,2.67,1.39-4.18,7.97Zm-5.32-2.78l-2.66-1.39,4.18-7.97,2.66,1.39-4.18,7.97Zm-5.32-2.79l-2.66-1.4,4.19-7.97,2.65,1.39-4.18,7.97Zm-5.32-2.8l-2.66-1.4,4.19-7.96,2.66,1.4-4.19,7.97Zm-5.32-2.8l-2.66-1.4,4.2-7.96,2.65,1.4-4.19,7.96Zm-5.32-2.8l-2.66-1.4,4.2-7.96,2.65,1.4-4.2,7.96Zm-5.32-2.81l-2.65-1.4,4.21-7.96,2.66,1.4-4.21,7.95Zm-5.31-2.81l-2.65-1.41,4.22-7.95,2.65,1.41-4.22,7.95Zm-5.32-2.82l-2.66-1.41,4.23-7.95,2.65,1.41-4.22,7.95Zm-5.31-2.82l-2.65-1.41,4.23-7.94,2.64,1.41-4.23,7.94Zm-5.29-2.82l-2.65-1.42,4.25-7.94,2.65,1.41-4.24,7.94Zm-5.3-2.83l-2.65-1.42,4.26-7.93,2.64,1.42-4.25,7.93Zm-5.3-2.84l-2.65-1.43,4.27-7.92,2.64,1.42-4.26,7.93Zm-5.29-2.85l-2.65-1.43,4.29-7.92,2.64,1.42-4.28,7.92Zm-5.29-2.86l-2.64-1.43,4.3-7.91,2.64,1.43-4.29,7.91Zm-5.28-2.87l-2.64-1.44,4.32-7.9,2.63,1.44-4.31,7.9Zm-5.24-2.86c-.85-.45-1.7-.9-2.55-1.33l4.04-8.04c.93.47,1.85.94,2.77,1.44l-4.26,7.93Zm-5.14-2.58c-.88-.41-1.75-.81-2.63-1.19l3.62-8.24c.95.42,1.89.84,2.83,1.29l-3.82,8.15Zm-5.28-2.32c-.89-.37-1.79-.72-2.69-1.06l3.2-8.41c.97.37,1.93.75,2.9,1.14l-3.41,8.33Zm-5.4-2.05c-.91-.32-1.83-.63-2.74-.93l2.79-8.56c.98.32,1.96.65,2.94,1l-2.99,8.49Zm-5.5-1.8c-.93-.28-1.86-.55-2.79-.8l2.4-8.67c.99.27,1.99.56,2.98.86l-2.59,8.62Zm-5.59-1.54c-.94-.24-1.88-.46-2.82-.68l2.02-8.77c1,.23,2.01.47,3.01.73l-2.2,8.73Zm-72.29-1.17l-2.06-8.76s1.16-.27,3.15-.65l1.66,8.85c-1.76.33-2.74.56-2.75.56Zm66.63-.13c-.95-.2-1.91-.39-2.85-.56l1.65-8.85c1.01.19,2.02.39,3.03.6l-1.83,8.81Zm-61.03-.94l-1.46-8.88c.92-.15,1.94-.31,3.05-.47l1.29,8.91c-1.05.15-2.01.3-2.88.44Zm55.31-.13c-.96-.16-1.92-.31-2.88-.45l1.3-8.91c1.01.15,2.03.31,3.05.48l-1.47,8.88Zm-49.53-.71l-1.13-8.93c.97-.12,1.99-.24,3.06-.36l.98,8.95c-1.01.11-1.98.23-2.91.34Zm43.77-.14c-.97-.12-1.94-.24-2.9-.34l.96-8.95c1.01.11,2.03.23,3.06.36l-1.13,8.93Zm-37.95-.5l-.83-8.96c.99-.09,2.01-.18,3.06-.26l.69,8.97c-1,.08-1.98.16-2.92.25Zm32.15-.12c-.98-.09-1.95-.17-2.91-.23l.64-8.98c1.01.07,2.04.16,3.07.25l-.8,8.96Zm-26.3-.33l-.55-8.98c1-.06,2.02-.12,3.07-.16l.41,8.99c-1,.05-1.97.1-2.93.16Zm20.48-.09c-.98-.05-1.96-.1-2.92-.13l.33-8.99c1.01.04,2.04.08,3.07.14l-.48,8.99Zm-14.63-.17l-.26-9c1.01-.03,2.03-.05,3.07-.06l.12,9c-.99.01-1.97.03-2.93.06Zm8.78-.04c-.99-.02-1.96-.03-2.93-.03l.03-9c1.01,0,2.04.02,3.08.04l-.18,9Z"/><path class="cls-4" d="m396.72,768.95l-.22-9,3-.07.22,9-3,.07Zm6-.15l-.22-9,3-.07.22,9-3,.07Zm6-.15l-.22-9,3-.07.22,9-3,.07Zm6-.15l-.22-9,3-.07.22,9-3,.07Zm6-.15l-.22-9,3-.07.22,9-3,.07Zm6-.15l-.22-9,3-.07.22,9-3,.07Zm6-.15l-.22-9,3-.07.22,9-3,.07Zm6-.15l-.22-9,3-.07.22,9-3,.07Zm6-.15l-.22-9,3-.07.22,9-3,.07Zm6-.15l-.22-9,3-.07.22,9-3,.07Zm6-.15l-.22-9,3-.07.22,9-3,.07Zm6-.15l-.22-9,3-.07.22,9-3,.07Zm6-.15l-.22-9,3-.07.22,9-3,.07Zm6-.15l-.22-9,3-.07.22,9-3,.07Zm6-.15l-.22-9,3-.07.22,9-3,.07Zm6-.15l-.22-9,3-.07.22,9-3,.07Zm6-.15l-.22-9,3-.07.22,9-3,.07Zm6-.15l-.22-9,3-.07.22,9-3,.07Zm6-.15l-.22-9,3-.07.22,9-3,.07Zm6-.15l-.22-9,3-.07.22,9-3,.07Zm6-.15l-.22-9,3-.07.22,9-3,.07Zm6-.15l-.22-9,3-.07.22,9-3,.07Zm6-.15l-.22-9,3-.07.22,9-3,.07Zm6-.15l-.22-9,3-.07.22,9-3,.07Zm6-.15l-.22-9,3-.07.22,9-3,.07Zm6-.15l-.22-9,3-.07.22,9-3,.07Zm6-.15l-.22-9,3-.07.22,9-3,.07Zm6-.15l-.22-9,3-.07.22,9-3,.07Zm6-.15l-.22-9,3-.07.22,9-3,.07Zm6-.15l-.22-9,3-.07.22,9-3,.07Zm6-.15l-.22-9,3-.07.22,9-3,.07Zm6-.15l-.22-9,3-.07.22,9-3,.07Zm6-.15l-.22-9,3-.07.22,9-3,.07Zm6-.15l-.22-9,3-.07.22,9-3,.07Zm6-.15l-.22-9,3-.07.22,9-3,.07Zm6-.15l-.22-9,3-.07.22,9-3,.07Zm6-.15l-.22-9,3-.07.22,9-3,.07Zm6-.15l-.22-9,3-.07.22,9-3,.07Zm6-.15l-.22-9,3-.07.22,9-3,.07Zm6-.15l-.22-9,3-.07.22,9-3,.07Zm6-.15l-.22-9,3-.07.22,9-3,.07Zm6-.15l-.22-9,3-.07.22,9-3,.07Zm6-.15l-.22-9,3-.07.22,9-3,.07Zm6-.15l-.22-9,3-.07.22,9-3,.07Zm6-.15l-.22-9,3-.07.22,9-3,.07Zm6-.15l-.22-9,3-.07.22,9-3,.07Zm6-.15l-.22-9,3-.07.22,9-3,.07Zm6-.15l-.22-9,3-.07.22,9-3,.07Zm6-.15l-.22-9,3-.07.22,9-3,.07Zm6-.15l-.22-9,3-.07.22,9-3,.07Zm6-.15l-.22-9,3-.07.22,9-3,.07Zm6-.15l-.22-9,3-.07.22,9-3,.07Zm6-.15l-.22-9,3-.07.22,9-3,.07Zm6-.15l-.22-9,3-.07.22,9-3,.07Zm6-.15l-.22-9,3-.07.22,9-3,.07Zm6-.15l-.22-9,3-.07.22,9-3,.07Zm6-.15l-.22-9,3-.07.22,9-3,.07Zm6-.15l-.22-9,3-.07.22,9-3,.07Zm6-.15l-.22-9,3-.07.22,9-3,.07Zm6-.15l-.22-9,3-.07.22,9-3,.07Zm6-.15l-.22-9,3-.07.22,9-3,.07Z"/><path class="cls-4" d="m263.19,723.68h-1.08s.03-9,.03-9h1.07s1.9,0,1.9,0l.04,9h-1.95Zm-4.1-.02c-1.01,0-2.02-.02-3.02-.03l.12-9c.99.01,1.98.02,2.98.03l-.07,9Zm9.07,0l-.08-9c.99,0,1.98-.02,2.97-.04l.14,9c-1.01.02-2.02.03-3.03.04Zm-15.12-.07c-1.01-.02-2.02-.04-3.02-.07l.22-9c.99.02,1.98.05,2.98.07l-.18,9Zm21.18-.02l-.19-9c.99-.02,1.98-.04,2.98-.07l.23,9c-1.01.03-2.02.05-3.02.07Zm-27.22-.13c-1.01-.03-2.02-.06-3.03-.1l.33-8.99c.99.04,1.98.07,2.97.1l-.27,9Zm33.27-.03l-.28-9c.99-.03,1.98-.06,2.97-.1l.33,8.99c-1.01.04-2.02.07-3.02.1Zm-39.32-.19c-1.01-.04-2.02-.09-3.02-.13l.42-8.99c.99.05,1.98.09,2.97.13l-.38,8.99Zm45.36-.03l-.38-8.99c.99-.04,1.98-.09,2.97-.13l.44,8.99c-1.01.05-2.02.09-3.03.14Zm-51.4-.25c-1.01-.05-2.02-.11-3.02-.17l.53-8.98c.98.06,1.97.11,2.97.17l-.47,8.99Zm57.44-.04l-.49-8.99c.99-.05,1.98-.11,2.97-.17l.53,8.98c-1.01.06-2.01.12-3.01.17Zm-63.49-.32c-1.01-.07-2.02-.13-3.02-.2l.63-8.98c.98.07,1.97.14,2.97.2l-.58,8.98Zm69.51-.04l-.58-8.98c.99-.06,1.98-.13,2.97-.2l.62,8.98c-1.01.07-2.01.14-3.01.2Zm-75.55-.38c-1.01-.08-2.02-.16-3.02-.24l.73-8.97c.98.08,1.97.16,2.96.23l-.67,8.97Zm81.57-.04l-.68-8.97c.98-.07,1.97-.15,2.96-.23l.73,8.97c-1.01.08-2.01.16-3.01.24Zm-87.61-.45c-1.01-.09-2.01-.18-3.01-.27l.84-8.96c.98.09,1.97.18,2.96.27l-.79,8.96Zm93.62-.03l-.78-8.97c.98-.08,1.97-.17,2.96-.26l.82,8.96c-1,.09-2.01.18-3.01.27Zm-99.65-.53c-1.01-.1-2.01-.2-3.01-.31l.95-8.95c.98.1,1.97.21,2.96.3l-.89,8.96Zm105.66-.03l-.88-8.96c.98-.1,1.97-.2,2.96-.3l.92,8.95c-1,.1-2,.2-3,.3Zm-111.68-.61c-1.01-.11-2.01-.23-3-.34l1.04-8.94c.98.11,1.96.23,2.96.34l-1,8.95Zm117.69-.01l-.97-8.95c.98-.11,1.96-.22,2.95-.33l1.02,8.94c-1,.11-2,.23-3,.33Zm6-.69l-1.07-8.94c.98-.12,1.96-.24,2.95-.36l1.12,8.93c-1,.12-2,.25-3,.37Zm-129.7,0c-1.01-.12-2.01-.25-3-.38l1.15-8.93c.98.13,1.96.25,2.95.37l-1.1,8.93Zm135.69-.74l-1.17-8.92c.98-.13,1.96-.26,2.94-.39l1.21,8.92c-1,.14-2,.27-2.99.4Zm-141.69-.03c-1-.14-2-.27-2.99-.41l1.26-8.91c.98.14,1.96.27,2.95.41l-1.21,8.92Zm147.67-.78l-1.26-8.91,1.71-.24,1.3,8.91-1.75.25Zm-153.67-.07c-1.01-.15-2-.3-2.99-.45l1.36-8.9c.97.15,1.95.3,2.94.44l-1.31,8.9Zm-5.99-.92c-1-.16-2-.32-2.99-.49l1.48-8.88c.97.16,1.95.32,2.93.48l-1.42,8.89Zm-5.98-.99c-1-.17-2-.35-2.98-.52l1.59-8.86c.97.17,1.95.34,2.93.51l-1.54,8.87Zm-5.96-1.07c-1-.19-1.99-.37-2.97-.56l1.69-8.84c.97.19,1.94.37,2.92.55l-1.65,8.85Zm-5.94-1.14c-1-.2-1.99-.4-2.97-.6l1.81-8.82c.96.2,1.93.39,2.91.59l-1.74,8.83Zm-5.94-1.22c-1-.21-1.99-.42-2.96-.64l1.92-8.79c.96.21,1.92.42,2.9.62l-1.86,8.81Zm-5.92-1.29c-1-.22-1.98-.45-2.95-.68l2.04-8.77c.95.22,1.92.44,2.9.66l-1.98,8.78Zm-5.91-1.37c-.99-.24-1.97-.48-2.94-.72l2.16-8.74c.95.23,1.91.47,2.89.7l-2.11,8.75Zm-5.88-1.45c-.99-.25-1.97-.51-2.93-.76l2.28-8.71c.94.25,1.9.5,2.88.74l-2.23,8.72Zm-5.87-1.54c-.99-.27-1.97-.54-2.92-.8l2.41-8.67c.94.26,1.89.52,2.86.78l-2.35,8.69Zm-5.85-1.62c-.99-.28-1.96-.57-2.91-.85l2.54-8.63c.93.27,1.88.55,2.85.83l-2.48,8.65Zm-5.82-1.72c-1-.3-1.96-.6-2.9-.89l2.68-8.59c.92.29,1.86.58,2.83.87l-2.61,8.61Zm-5.8-1.81c-1-.32-1.96-.64-2.89-.94l2.83-8.54c.9.3,1.84.61,2.82.92l-2.76,8.57Zm-5.78-1.92c-1.01-.35-1.97-.68-2.88-1l3-8.48c.88.31,1.81.64,2.79.97l-2.91,8.52Zm-5.75-2.04c-1.05-.38-2.01-.75-2.87-1.08l3.22-8.41c.83.32,1.74.66,2.75,1.03l-3.1,8.45Zm-5.74-2.2c-1.94-.78-2.93-1.22-2.93-1.22l3.65-8.23s0,0,0,0h0c.06.03.95.42,2.63,1.09l-3.35,8.35Z"/></g><g id="Starting_Line"><polygon points="552.41 715.4 555.19 712.56 546.51 704.03 555.04 695.35 552.2 692.56 540.89 704.08 552.41 715.4"/><polygon points="536.21 715.6 539 712.76 530.31 704.23 538.85 695.55 536.01 692.76 524.7 704.28 536.21 715.6"/><polygon points="520.02 715.8 522.81 712.96 514.12 704.43 522.65 695.75 519.82 692.96 508.5 704.48 520.02 715.8"/></g></g></g></svg>