<?xml version="1.0" encoding="UTF-8"?><svg id="Albert_Park" xmlns="http://www.w3.org/2000/svg" viewBox="0 0 1000 1000"><defs><style>.cls-1,.cls-2{fill:#fff;}.cls-3{fill:#fae44a;}.cls-4{fill:#e3f7ff;}.cls-5{fill:#db4a25;}.cls-6,.cls-7{fill:#1bce20;}.cls-8{fill:#75e5fd;}.cls-2{font-family:OpenSans-ExtraBold, 'Open Sans';font-size:14px;font-weight:700;}.cls-7{stroke:#000;stroke-miterlimit:10;stroke-width:2px;}</style></defs><g id="Detailed"><g id="Colors"><path class="cls-8" d="m566.82,539.96c-1.51.01-3.06.02-4.64.02,0,0-70.5,9.5-113-16-41.63-24.98-61-53-61-53,0,0-35-46-49-94,0,0-6-16-23-33,0,0-57-54-99-53,0,0-34,0-56,29,0,0-19,19-53,19,0,0-1.79,10.5-5.38,23.87l-25.56-7.57c1.23-4.82,2.11-9.5,2.44-13.8,2-26,20-30,20-30,0,0,24,6,38-7s32-26,32-26c0,0,26-16,63-13s82,44,82,44c0,0,37,26,49.22,60.35,12.21,34.35,44.35,83,44.35,83,0,0,10.43,12.65,27.43,28.65,17.19,16.18,41,28,69,32,13.35,1.91,37.85,1.09,59.82-.3l2.32,26.78Z"/><path class="cls-3" d="m955.68,573.48c-23.27,27.63-39,67-39,67,0,0-11,23-31,27s-72-13-86-17-6-1-6,33-31,38-31,38l-93,2-100.38,2.48v-.48l-.12-11.89-.04-4-.1-10.42v-.52l48.14-.67,140-3c8.5.5,9.5-5.5,8-24l-1.5-33.5s1.5-21.5,33.5-16.5c18.64,2.91,40.66,9.56,55.81,14.59.1.04.2.07.29.1,9.72,3.24,16.55,5.79,17.72,6.24,0-.01-.02-.01-.03-.02.03,0,.08.03.17.07h0s0,0,0,0c.76.27,3.87,1.1,8.07-.81,4.82-2.18,11.08-7.97,16.89-22.32,10.43-25.79,30.5-53.18,35.77-60.16.69-.91,1.44-2.2.46-2.79-10.02-5.94-58.47-34.61-86.16-48.9-31-16-47.43-29-90.72-27.5l-91.08,8.81c-3.55.34-6.78,2.18-8.89,5.04l-23.31,31.65s-4.76,14.28-65.36,14.98c-1.51.01-3.06.02-4.64.02,0,0-.34.04-.98.11l-.02-.51-.42-9.82-.17-3.97-.51-11.84-.02-.5c1.49-.09,2.97-.18,4.44-.27,24.11-1.51,45.18-3.7,45.18-3.7,1.94,0,8.17-9.89,13.73-17.58,2.74-3.79,6.21-7.76,8.59-11.79,11.98-20.27,29.68-18.63,29.68-18.63,0,0,36,0,88.3-7.65,52.31-7.65,94.7,22.65,94.7,22.65l61.09,32.48,27.9,14.83c8.46,4.4,17.35,8.39,22.73,15.95.12.15.22.31.32.47.44.63.85,1.3,1.23,1.99,4.78,8.65,5.33,22.25-2.27,31.28Z"/><path class="cls-5" d="m556.31,725.8v.48l-88.63,2.2s-60.97,1-76,1c-9,0-13-12-13-12-9-40-37-37-37-37,0,0-28,9-108,3-74.7-5.6-112.79-19.41-116.67-20.87-.22-.09-.33-.13-.33-.13-.12-.01-.25-.03-.37-.05-29.3-3.59-37.23-17.34-38.63-24.95-.52-2.83.81-7.39,2-10,3.41-7.49,12.18-26.19,21-35,1.93-1.93,3.24-3.63,4.09-5.1.78-1.34,1.18-2.49,1.33-3.47.37-2.37-.67-3.78-1.42-4.43-.8-.7-9.32-9.43-28-24-26.48-20.65-36.78-36.65-36.78-36.65,0,0-.16-.09-.38-.56-.01-.02-.02-.05-.04-.09,0-.01-.01-.03-.02-.06-.95-2.22-2.71-11.08,1.22-45.64,6.12-53.89,15-66,15-66,0,0,15.33-26.87,21.56-51.2l.51.15,11.13,3.14,3.86,1.1,9.52,2.69.42.12c-3.34,11.04-6.41,25.34-15.5,40.5-15.44,25.73-18.34,52.08-18.88,61.95-.19,3.38-.54,6.75-1.03,10.1-1.39,9.53-3.82,27.33-3.09,30.95.04.21.17.49.39.83.01.02.03.04.04.06,5.02,7.91,51.85,47.96,51.85,47.96,0,0,6.71,4.54,11.95,12.12.17.23.32.47.48.71,6.57,9.92,10.33,24.72-5.71,41.32l-13,20s-3.5,4.5,7,6c0,0,61.82,18.02,148,22,0,0,31,1,74-4s64,48,64,48l152.88-2.14v.51l.1,10.53.04,4.01.11,11.91Z"/></g><g id="Track_Inner_Line"><path d="m949.37,553.48c-1.47-6.77-7.41-12.96-17.66-18.42-4.03-2.14-9.69-5.19-16.43-8.83-48.54-26.19-101.32-54.33-113.21-56.71-1.96-.39-3.81-.81-5.78-1.25-12.56-2.84-25.56-5.77-61.8-.78-2.48.34-4.97.6-7.42.77l-67.95,4.65c-1.09.07-2.13.3-3.08.68-4.6,1.81-12.48,7.7-23.94,25.51-1.82,2.81-3.4,5.71-4.57,7.91-2.45,4.59-10.67,15.32-34.2,15.94-1.61.04-3.29.18-4.99.41-1.3.18-12.21,1.61-27.75,2.43-31.98,1.68-83.56.79-111.11-18.93-1.81-1.3-3.53-2.46-5.26-3.55-11.35-7.17-41.46-30.6-75.76-93.11-2.32-4.23-3.89-8.98-5.42-13.58-.58-1.75-1.16-3.49-1.77-5.22l-.4-1.11c-5.61-15.71-18.73-52.49-70.09-86.48-35.57-23.54-62.15-27.79-78.17-27.2-16.62.6-25.63,6.25-26.94,7.13-2.26,1.1-25.75,12.73-37.55,27.49-11.21,14.01-44,12.27-44.32,12.25h-.26c-1.7.12-10.35,2.21-14.11,31.54-.15,1.19-.34,2.38-.55,3.55-2.66,14.74-9.84,28.12-15.17,38.09-2.02,3.77-3.75,7.02-4.91,9.69-.59,1.39-1.29,2.71-2.03,4.12-1.16,2.2-2.35,4.47-3.12,6.99-4.43,14.52-14.54,52.35-12.97,90.1l.77,6.23c.22,1.71.95,3.29,2.12,4.57,5.45,5.93,18.61,18.89,26.02,24.9,18.15,14.73,29.06,24.54,33.94,29.08,2.89,2.69,4.85,6.16,5.5,9.78.25,1.34-.55,5.43-1.02,6.25-1.91,2.88-4.11,6.05-6.44,9.42-3.51,5.07-7.14,10.31-10.57,15.6-7.61,11.76-10.19,20.32-7.89,26.18,2.3,5.83,8.6,7.43,13.21,8.59l.96.25c1.51.39,3.16.77,4.83,1.17,2.59.6,5.28,1.23,7.51,1.9,27.19,8.17,84.76,21.74,165.1,21,1.8-.04,44.13-1.04,59.24-4.02,2.06-.15,28.38-1.19,45.38,40.92.39.97,1,3.2,1.26,4.39l-.32.35.57,1.21c.18.38.59.71,1.17.98l-.02.05,1.24.44.04-.05c2.54.69,6.58.88,10.27.88,2.39,0,4.63-.08,6.22-.15,9.02-.43,74.68-1.98,146.43-3.59l-.04-4.01c-71.81,1.62-137.53,3.17-146.58,3.6-9.04.43-13.3-.14-15.02-.5-.26-1.82-1.04-3.94-1.51-5.1-18.51-45.85-48.31-43.52-49.56-43.39l-.2.03c-14.66,2.93-58.22,3.95-58.63,3.96-2.13.02-4.24.03-6.34.03-76.44,0-131.3-12.98-157.55-20.86-2.35-.7-5.09-1.35-7.75-1.97-1.64-.38-3.25-.76-4.73-1.15l-.99-.25c-3.98-1-8.92-2.25-10.47-6.18-1.77-4.5.76-12.08,7.53-22.53,3.39-5.25,7-10.46,10.49-15.5,2.34-3.38,4.56-6.58,6.49-9.48,1-1.5,2.07-6.78,1.63-9.18-.81-4.47-3.2-8.73-6.72-12-4.92-4.57-15.9-14.45-34.14-29.25-7.27-5.91-20.22-18.66-25.6-24.51-.6-.66-.98-1.47-1.09-2.36l-.75-5.98c-1.53-37.11,8.44-74.37,12.8-88.68.66-2.16,1.72-4.17,2.84-6.3.74-1.41,1.51-2.87,2.17-4.4,1.08-2.52,2.78-5.7,4.76-9.38,5.42-10.13,12.68-23.68,15.5-38.88.26-1.36.48-2.75.66-4.14,3.15-24.6,9.57-27.73,10.44-28.04,3.59.18,35.35,1.3,47.4-13.76,11.57-14.46,36.06-26.33,36.3-26.45l.3-.17c.08-.06,8.69-6,25.26-6.52,15.39-.48,40.98,3.73,75.48,26.56,50.24,33.25,63.05,69.15,68.52,84.49l.4,1.11c.61,1.7,1.18,3.41,1.75,5.13,1.58,4.76,3.21,9.69,5.71,14.25,34.74,63.32,65.51,87.22,77.12,94.56,1.67,1.05,3.33,2.17,5.07,3.42,28.44,20.36,81.07,21.34,113.61,19.65,15.75-.82,26.79-2.26,28.11-2.44,1.56-.21,3.1-.33,4.57-.37,25.63-.68,34.84-12.85,37.61-18.05,1.15-2.14,2.68-4.94,4.41-7.64,11.46-17.8,18.73-22.64,22.04-23.95.58-.22,1.21-.36,1.89-.41l67.95-4.65c2.54-.18,5.13-.44,7.69-.8,35.53-4.89,48.16-2.04,60.39.72,1.9.43,3.86.87,5.87,1.27,12.3,2.46,77.21,37.49,112.09,56.31,6.75,3.64,12.42,6.7,16.45,8.85,8.98,4.78,14.38,10.19,15.62,15.64,1.05,4.7-1.27,7.9-1.31,7.96-.18.22-18.37,22.24-35.56,61.83-9.34,21.53-23.45,27.35-31.04,28.91-2.45.51-5.04.42-7.51-.25l-65.55-17.71c-3.43-.93-6.95-1.54-10.46-1.8l-1.26-.1c-5.85-.45-9.73-.74-12.26,1.72-3.46,3.37-3.13,10.11-2.14,30.13.1,2.08.21,4.29.32,6.64.68,14.35-1.84,24.38-7.5,29.82-4.53,4.34-9.94,4.57-12.75,4.32-1.67-.15-3.44-.19-5.58-.15-17.02.37-102.29,2.21-183.71,4.03l.04,4c81.42-1.82,166.73-3.66,183.75-4.03,2-.04,3.63,0,5.14.13,3.5.31,10.21.02,15.88-5.42,6.53-6.27,9.47-17.33,8.73-32.89-.12-2.36-.22-4.57-.33-6.64-.82-16.62-1.23-24.97.94-27.07,1.23-1.21,4.39-.97,9.17-.6l1.26.1c3.26.24,6.53.8,9.72,1.67l65.54,17.71c3.07.83,6.31.94,9.37.31,8.34-1.71,23.84-8.05,33.9-31.23,16.94-39.02,34.79-60.66,35.02-60.94.14-.19,3.52-4.7,2.1-11.21Zm-554.72,160.81c.03.29,0,.6-.13.92h-.01c.09-.27.13-.58.14-.92Z"/></g><path id="Track_Outline" d="m959.38,540.76c-4.89-8.85-13.8-13.42-22.42-17.84-.9-.46-1.79-.92-2.69-1.38l-88.87-46.25c-1.11-.78-9.3-6.39-22.48-12.07-12.82-5.52-32.97-12.11-56.09-12.11-5.88,0-11.75.43-17.46,1.26-49.97,7.31-85.45,7.62-87.88,7.63-.32-.04-1.05-.11-2.08-.11-5.23,0-18.46,1.82-28.45,18.73-1.5,2.54-3.52,5.13-5.46,7.64-1.02,1.31-2.08,2.67-3.03,3.99-1.12,1.54-2.3,3.21-3.5,4.9-3.34,4.73-8.36,11.82-9.99,12.88-2.03.21-22.26,2.25-44.93,3.67l-4.43.27c-12.99.77-24.29,1.15-33.59,1.15s-16.28-.37-21.39-1.1c-25.4-3.63-49.52-15.16-67.91-32.48-16.01-15.06-26.28-27.28-27.19-28.38-1.57-2.39-32.34-49.45-44.08-82.48-12.11-34.04-47.35-59.47-49.86-61.25-1.09-.96-12.19-10.62-27.27-20.48-21.35-13.95-40.13-21.67-55.81-22.94-3.12-.26-6.29-.38-9.43-.38-32.2,0-53.87,13.11-54.78,13.67l-.06.04-.06.04c-.19.13-18.27,13.22-32.19,26.16-6.99,6.48-16.81,7.84-23.81,7.84-4.14,0-7.69-.46-9.94-.84-.73-.12-1.46-.19-2.19-.19-1.89,0-3.76.43-5.39,1.25-5.46,2.71-14.84,10.11-16.31,29.25-.3,3.91-1.1,8.43-2.38,13.46-5.85,22.82-20,49.2-21.28,51.56-1.52,1.87-10.83,15.27-15.34,65.95-1.66,18.73-2.47,32.27-2.39,40.25.05,5.46.47,6.98,1.13,7.65,1.47,2.03,12.52,16.69,37.55,36.21,10.72,8.36,20,16.37,27.58,23.79.42.42.69.69.81.79.63.55,1.1,3.67-4.32,11.34-6.39,9.05-18.37,28.68-21.87,36.37-1.39,3.05-1.81,6.36-1.21,9.56,1.35,7.27,7.36,20.21,32.41,25.11,5.04.98,9.56,2.1,13.83,3.42,13.04,4.05,49.92,13.86,110.35,17.69,18.92,1.19,36.58,1.8,52.49,1.8,38.04,0,54.11-3.4,55.95-3.82.17-.01.53-.03,1.06-.03,6.26,0,27.27,2.56,34.68,35.49.14.6,3.51,13.56,13.95,13.56,14.87,0,75.42-.99,76.03-1l88.93-2.2v-1.52s0-.48,0-.48l-88.95,2.2s-60.97,1-76,1c-9,0-12-12-12-12-7.83-34.78-30.78-37.05-36.63-37.05-.88,0-1.37.05-1.37.05,0,0-15.74,3.8-55.64,3.8-14.25,0-31.58-.48-52.36-1.8-59.34-3.75-95.54-13.15-109.89-17.6-2.14-.66-4.29-1.25-6.46-1.79-.23-.07-.47-.12-.7-.18-2.28-.56-4.57-1.06-6.88-1.51-23.72-4.63-29.52-16.5-30.83-23.51-.52-2.83-.12-5.74,1.07-8.36,3.41-7.49,15.33-27.05,21.69-36.05,1.53-2.17,2.64-4.03,3.41-5.62.66-1.34,1.08-2.49,1.33-3.47.71-2.76.05-4.22-.74-4.91-.8-.69-9.8-10.08-28.48-24.65-26.48-20.65-37.3-36-37.3-36,0,0-.02-.01-.06-.08-.01-.02-.02-.05-.04-.09,0-.01-.01-.03-.02-.06-.4-1.13-1.51-7.78,1.9-46.12,4.8-54.02,15-65,15-65,0,0,15.07-27.39,21.39-51.57.06-.21.12-.42.17-.63,1.23-4.82,2.11-9.5,2.44-13.8,1.39-18.11,10.06-25.06,15.2-27.61,1.4-.7,2.94-1.04,4.5-1.04.62,0,1.24.06,1.85.16,2.31.4,5.99.87,10.28.87,7.9,0,17.89-1.62,25.17-8.38,14-13,32-26,32-26,0,0,21.73-13.37,53.73-13.37,3,0,6.1.11,9.27.37,37,3,82,43,82,43,0,0,37,26,49.22,60.35,12.21,34.35,44.35,83,44.35,83,0,0,10.43,12.65,27.43,28.65,17.18,16.18,41,29,69,33,5.6.8,13.15,1.12,21.67,1.12,10.42,0,22.28-.48,33.71-1.15.11-.01.23-.01.34-.02,1.38-.08,2.74-.17,4.1-.25,24.11-1.51,45.18-3.7,45.18-3.7,1.94,0,9.16-10.89,14.73-18.58,2.74-3.79,6.21-7.76,8.59-11.79,9.51-16.08,21.98-17.74,26.73-17.74,1.23,0,1.95.11,1.95.11,0,0,36,0,88.3-7.65,5.86-.86,11.6-1.24,17.17-1.24,44.1,0,77.53,23.89,77.53,23.89l61.41,31.96,27.58,14.35c8.62,4.5,17.73,8.56,23.05,16.43.12.15.22.31.32.47.32.49.62.99.91,1.51,4.77,8.65,5.33,22.26-2.27,31.28-23.27,27.63-39,67-39,67,0,0-11,23-31,27-2.08.42-4.51.61-7.2.61-23.21,0-66.26-14.03-78.8-17.61-2.94-.84-4.91-1.37-6.19-1.37-4.8,0,.19,7.51.19,34.37,0,34-31,38-31,38l-93,2-100.06,2.48v2s100.11-2.48,100.11-2.48l92.99-2h.11l.1-.02c.34-.04,8.32-1.12,16.37-6.57,7.47-5.06,16.38-14.97,16.38-33.41,0-12.4-1.05-20.63-1.74-26.08-.33-2.63-.67-5.34-.5-6.29h.05c1.02,0,3.07.56,5.64,1.29,1.71.49,4.05,1.19,6.76,2.01,16.97,5.09,52.28,15.68,72.59,15.68,2.9,0,5.45-.22,7.59-.65,20.74-4.15,31.94-27.12,32.41-28.1l.03-.06.02-.06c.16-.39,15.89-39.4,38.68-66.45,8.33-9.89,7.56-24.36,2.49-33.53Zm-342.52,157.74l140-3c.89.27,1.71.4,2.47.4,6.41,0,8.31-9.31,6.53-25.4l-2-33s.79-16.77,23.8-16.77c2.74,0,5.79.24,9.2.77,18.77,2.93,40.98,9.31,56.13,14.07.1.04.2.07.29.1,10.53,3.31,17.58,5.83,17.58,5.83,0,0,1.33.64,3.52.64,1.33,0,2.98-.24,4.84-.99,4.99-2.03,11.5-7.8,17.57-22.8,10.42-25.79,30.5-53.18,35.77-60.16.69-.91.44-2.2-.55-2.78-10.01-5.95-58.46-34.61-86.15-48.91-29.37-15.15-45.65-27.62-84.08-27.62-2.14,0-4.36.04-6.64.12l-91.08,8.81c-3.55.34-6.78,2.18-8.89,5.05l-23.31,31.64s-4.76,14.28-65.36,14.98c-1.51.01-3.06.02-4.64.02,0,0-.23.03-.68.08-2.88.35-14.6,1.65-30.21,1.65-24.21,0-57.76-3.12-82.11-17.73-41.63-24.98-61-53-61-53,0,0-35-46-49-94,0,0-6-16-23-33,0,0-55.96-53.01-97.84-53.01-.39,0-.78,0-1.16.01,0,0-34,0-56,29,0,0-19,19-53,19,0,0-1.79,10.5-5.38,23.87l-.21-.06s-.01.03-.01.05c-3.31,10.98-6.4,25.14-15.4,40.14-15.44,25.73-18.34,52.09-18.88,61.95-.19,3.38-.54,6.75-1.03,10.1-1.39,9.53-3.82,27.33-3.09,30.95.06.3.3.74.71,1.31.01.02.03.04.04.06,6.46,8.94,51.53,47.48,51.53,47.48,0,0,6.99,4.73,12.27,12.6.17.23.32.47.48.71,6.36,9.91,9.76,24.51-6.03,40.84l-13,20s-3.5,5.5,7,7c0,0,63,21,148,22,0,0,2.53.08,7.15.08,11.54,0,36.13-.51,66.85-4.08,1.94-.22,3.82-.33,5.67-.33,39.17,0,58.33,48.33,58.33,48.33l153.2-2.15v-2s-151.88,2.13-151.88,2.13c-1.52-3.47-6.2-13.37-14.24-23.39-13.06-16.3-28.76-24.92-45.41-24.92-1.94,0-3.93.11-5.9.34-30.45,3.54-54.81,4.07-66.62,4.07-4.53,0-7.06-.08-7.09-.08-83.72-.98-146.8-21.69-147.43-21.9l-.17-.05-.18-.03c-4.41-.63-5.47-1.89-5.71-2.41-.33-.68.07-1.45.13-1.55l12.87-19.81c8.72-9.08,12.63-18.6,11.62-28.3-1.73-16.58-17.17-27.64-18.7-28.69-16.13-13.8-49.73-43.42-51.54-47.72-.44-2.51.72-13.77,3.12-30.2.51-3.52.86-6.98,1.04-10.28.55-9.94,3.45-35.77,18.6-61.03,7.67-12.78,11.17-25.11,13.98-35.02.37-1.27.71-2.5,1.06-3.7l.26.08.54-2c2.75-10.25,4.47-18.91,5.12-22.4,33.38-.6,51.95-18.79,52.74-19.58l.1-.09.08-.11c21.11-27.83,54.08-28.21,54.41-28.21.41-.01.79-.01,1.16-.01,40.32,0,95.16,51.24,96.44,52.44,15.92,15.93,22.07,31.12,22.5,32.21,13.81,47.26,48.2,93.11,49.28,94.54.89,1.27,20.82,29.07,61.59,53.54,24.82,14.89,58.91,18.01,83.14,18.01,16.97,0,29.57-1.54,31.02-1.73,1.54,0,3.05-.01,4.52-.02,57.09-.66,65.88-13.29,67.1-15.99l23.17-31.45c1.77-2.4,4.49-3.95,7.47-4.24l91.02-8.8c2.21-.08,4.4-.12,6.51-.12,32.1,0,48.24,8.69,70.57,20.72,4,2.15,8.13,4.38,12.59,6.68,27.64,14.26,76.24,43.02,85.96,48.79-5.89,7.81-25.58,34.84-35.97,60.53-7.92,19.62-16.27,22.54-20.55,22.54-1.65,0-2.67-.45-2.68-.45l-.09-.05-.08-.02c-.42-.15-42.55-15.12-74.36-20.1-3.37-.52-6.57-.79-9.51-.79-24.63,0-25.79,18.49-25.8,18.68v.1s0,.11,0,.11l2,33v.1c1.72,15.36-.49,20.4-1.95,22.03-.7.78-1.52,1.15-2.58,1.15-.57,0-1.21-.11-1.9-.32l-.3-.09h-.32s-140,3.01-140,3.01l-47.78.67v1.48s0,.52,0,.52l47.82-.67Zm315.15-143.09c-10.01-5.95-58.46-34.61-86.15-48.91-29.37-15.15-45.65-27.62-84.08-27.62-2.14,0-4.36.04-6.64.12l-91.08,8.81c-3.55.34-6.78,2.18-8.89,5.05l-23.31,31.64s-4.76,14.28-65.36,14.98c-1.51.01-3.06.02-4.64.02,0,0-.23.03-.68.08-2.88.35-14.6,1.65-30.21,1.65-24.21,0-57.76-3.12-82.11-17.73-41.63-24.98-61-53-61-53,0,0-35-46-49-94,0,0-6-16-23-33,0,0-55.96-53.01-97.84-53.01-.39,0-.78,0-1.16.01,0,0-34,0-56,29,0,0-19,19-53,19,0,0-1.79,10.5-5.38,23.87l-.21-.06s-.01.03-.01.05c-3.31,10.98-6.4,25.14-15.4,40.14-15.44,25.73-18.34,52.09-18.88,61.95-.19,3.38-.54,6.75-1.03,10.1-1.39,9.53-3.82,27.33-3.09,30.95.06.3.3.74.71,1.31.01.02.03.04.04.06,6.46,8.94,51.53,47.48,51.53,47.48,0,0,6.99,4.73,12.27,12.6.17.23.32.47.48.71,6.36,9.91,9.76,24.51-6.03,40.84l-13,20s-3.5,5.5,7,7c0,0,63,21,148,22,0,0,2.53.08,7.15.08,11.54,0,36.13-.51,66.85-4.08,1.94-.22,3.82-.33,5.67-.33,39.17,0,58.33,48.33,58.33,48.33l153.2-2.15v-2s-151.88,2.13-151.88,2.13c-1.52-3.47-6.2-13.37-14.24-23.39-13.06-16.3-28.76-24.92-45.41-24.92-1.94,0-3.93.11-5.9.34-30.45,3.54-54.81,4.07-66.62,4.07-4.53,0-7.06-.08-7.09-.08-83.72-.98-146.8-21.69-147.43-21.9l-.17-.05-.18-.03c-4.41-.63-5.47-1.89-5.71-2.41-.33-.68.07-1.45.13-1.55l12.87-19.81c8.72-9.08,12.63-18.6,11.62-28.3-1.73-16.58-17.17-27.64-18.7-28.69-16.13-13.8-49.73-43.42-51.54-47.72-.44-2.51.72-13.77,3.12-30.2.51-3.52.86-6.98,1.04-10.28.55-9.94,3.45-35.77,18.6-61.03,7.67-12.78,11.17-25.11,13.98-35.02.37-1.27.71-2.5,1.06-3.7l.26.08.54-2c2.75-10.25,4.47-18.91,5.12-22.4,33.38-.6,51.95-18.79,52.74-19.58l.1-.09.08-.11c21.11-27.83,54.08-28.21,54.41-28.21.41-.01.79-.01,1.16-.01,40.32,0,95.16,51.24,96.44,52.44,15.92,15.93,22.07,31.12,22.5,32.21,13.81,47.26,48.2,93.11,49.28,94.54.89,1.27,20.82,29.07,61.59,53.54,24.82,14.89,58.91,18.01,83.14,18.01,16.97,0,29.57-1.54,31.02-1.73,1.54,0,3.05-.01,4.52-.02,57.09-.66,65.88-13.29,67.1-15.99l23.17-31.45c1.77-2.4,4.49-3.95,7.47-4.24l91.02-8.8c2.21-.08,4.4-.12,6.51-.12,32.1,0,48.24,8.69,70.57,20.72,4,2.15,8.13,4.38,12.59,6.68,27.64,14.26,76.24,43.02,85.96,48.79-5.89,7.81-25.58,34.84-35.97,60.53-7.92,19.62-16.27,22.54-20.55,22.54-1.65,0-2.67-.45-2.68-.45l-.09-.05-.08-.02c-.42-.15-42.55-15.12-74.36-20.1-3.37-.52-6.57-.79-9.51-.79-24.63,0-25.79,18.49-25.8,18.68v.1s0,.11,0,.11l2,33v.1c1.72,15.36-.49,20.4-1.95,22.03-.7.78-1.52,1.15-2.58,1.15-.57,0-1.21-.11-1.9-.32l-.3-.09h-.32s-140,3.01-140,3.01l-47.78.67v1.48s0,.52,0,.52l47.82-.67,140-3c.89.27,1.71.4,2.47.4,6.41,0,8.31-9.31,6.53-25.4l-2-33s.79-16.77,23.8-16.77c2.74,0,5.79.24,9.2.77,18.77,2.93,40.98,9.31,56.13,14.07.1.04.2.07.29.1,10.53,3.31,17.58,5.83,17.58,5.83,0,0,1.33.64,3.52.64,1.33,0,2.98-.24,4.84-.99,4.99-2.03,11.5-7.8,17.57-22.8,10.42-25.79,30.5-53.18,35.77-60.16.69-.91.44-2.2-.55-2.78Zm0,0c-10.01-5.95-58.46-34.61-86.15-48.91-29.37-15.15-45.65-27.62-84.08-27.62-2.14,0-4.36.04-6.64.12l-91.08,8.81c-3.55.34-6.78,2.18-8.89,5.05l-23.31,31.64s-4.76,14.28-65.36,14.98c-1.51.01-3.06.02-4.64.02,0,0-.23.03-.68.08-2.88.35-14.6,1.65-30.21,1.65-24.21,0-57.76-3.12-82.11-17.73-41.63-24.98-61-53-61-53,0,0-35-46-49-94,0,0-6-16-23-33,0,0-55.96-53.01-97.84-53.01-.39,0-.78,0-1.16.01,0,0-34,0-56,29,0,0-19,19-53,19,0,0-1.79,10.5-5.38,23.87l-.21-.06s-.01.03-.01.05c-3.31,10.98-6.4,25.14-15.4,40.14-15.44,25.73-18.34,52.09-18.88,61.95-.19,3.38-.54,6.75-1.03,10.1-1.39,9.53-3.82,27.33-3.09,30.95.06.3.3.74.71,1.31.01.02.03.04.04.06,6.46,8.94,51.53,47.48,51.53,47.48,0,0,6.99,4.73,12.27,12.6.17.23.32.47.48.71,6.36,9.91,9.76,24.51-6.03,40.84l-13,20s-3.5,5.5,7,7c0,0,63,21,148,22,0,0,2.53.08,7.15.08,11.54,0,36.13-.51,66.85-4.08,1.94-.22,3.82-.33,5.67-.33,39.17,0,58.33,48.33,58.33,48.33l153.2-2.15v-2s-151.88,2.13-151.88,2.13c-1.52-3.47-6.2-13.37-14.24-23.39-13.06-16.3-28.76-24.92-45.41-24.92-1.94,0-3.93.11-5.9.34-30.45,3.54-54.81,4.07-66.62,4.07-4.53,0-7.06-.08-7.09-.08-83.72-.98-146.8-21.69-147.43-21.9l-.17-.05-.18-.03c-4.41-.63-5.47-1.89-5.71-2.41-.33-.68.07-1.45.13-1.55l12.87-19.81c8.72-9.08,12.63-18.6,11.62-28.3-1.73-16.58-17.17-27.64-18.7-28.69-16.13-13.8-49.73-43.42-51.54-47.72-.44-2.51.72-13.77,3.12-30.2.51-3.52.86-6.98,1.04-10.28.55-9.94,3.45-35.77,18.6-61.03,7.67-12.78,11.17-25.11,13.98-35.02.37-1.27.71-2.5,1.06-3.7l.26.08.54-2c2.75-10.25,4.47-18.91,5.12-22.4,33.38-.6,51.95-18.79,52.74-19.58l.1-.09.08-.11c21.11-27.83,54.08-28.21,54.41-28.21.41-.01.79-.01,1.16-.01,40.32,0,95.16,51.24,96.44,52.44,15.92,15.93,22.07,31.12,22.5,32.21,13.81,47.26,48.2,93.11,49.28,94.54.89,1.27,20.82,29.07,61.59,53.54,24.82,14.89,58.91,18.01,83.14,18.01,16.97,0,29.57-1.54,31.02-1.73,1.54,0,3.05-.01,4.52-.02,57.09-.66,65.88-13.29,67.1-15.99l23.17-31.45c1.77-2.4,4.49-3.95,7.47-4.24l91.02-8.8c2.21-.08,4.4-.12,6.51-.12,32.1,0,48.24,8.69,70.57,20.72,4,2.15,8.13,4.38,12.59,6.68,27.64,14.26,76.24,43.02,85.96,48.79-5.89,7.81-25.58,34.84-35.97,60.53-7.92,19.62-16.27,22.54-20.55,22.54-1.65,0-2.67-.45-2.68-.45l-.09-.05-.08-.02c-.42-.15-42.55-15.12-74.36-20.1-3.37-.52-6.57-.79-9.51-.79-24.63,0-25.79,18.49-25.8,18.68v.1s0,.11,0,.11l2,33v.1c1.72,15.36-.49,20.4-1.95,22.03-.7.78-1.52,1.15-2.58,1.15-.57,0-1.21-.11-1.9-.32l-.3-.09h-.32s-140,3.01-140,3.01l-47.78.67v1.48s0,.52,0,.52l47.82-.67,140-3c.89.27,1.71.4,2.47.4,6.41,0,8.31-9.31,6.53-25.4l-2-33s.79-16.77,23.8-16.77c2.74,0,5.79.24,9.2.77,18.77,2.93,40.98,9.31,56.13,14.07.1.04.2.07.29.1,10.53,3.31,17.58,5.83,17.58,5.83,0,0,1.33.64,3.52.64,1.33,0,2.98-.24,4.84-.99,4.99-2.03,11.5-7.8,17.57-22.8,10.42-25.79,30.5-53.18,35.77-60.16.69-.91.44-2.2-.55-2.78Z"/><circle class="cls-7" cx="497.68" cy="526.48" r="10"/><circle class="cls-7" cx="814.68" cy="639.48" r="10"/><path class="cls-6" d="m950.84,522.81l-2.4-1.24,1.42-2.74h3.09l-2.1,3.98Zm-5.08-2.63l-2.67-1.38,4.14-7.99,2.67,1.39-4.14,7.99Zm11.68-1.35h-7.59l2.72-5.26,1.65.85c1.21.62,3.22,1.67,3.22,4.41Zm-17.03-1.42l-2.67-1.39,4.15-7.98,2.67,1.39-4.16,7.98Zm-5.33-2.77l-2.67-1.39,4.15-7.98,2.66,1.38-4.15,7.99Zm-5.33-2.78l-2.67-1.39,4.16-7.98,2.66,1.39-4.15,7.98Zm-5.33-2.78l-2.66-1.39,4.16-7.98,2.67,1.39-4.17,7.98Zm-5.32-2.78l-2.66-1.39,4.17-7.98,2.66,1.39-4.17,7.98Zm-5.33-2.78l-2.66-1.39,4.17-7.97,2.66,1.39-4.17,7.97Zm-5.32-2.79l-2.66-1.4,4.18-7.97,2.66,1.39-4.18,7.97Zm-5.32-2.79l-2.66-1.4,4.19-7.97,2.66,1.39-4.18,7.97Zm-5.32-2.79l-2.66-1.4,4.19-7.97,2.66,1.4-4.19,7.96Zm-5.32-2.8l-2.66-1.4,4.2-7.96,2.65,1.4-4.19,7.96Zm-5.31-2.8l-2.66-1.4,4.2-7.96,2.65,1.4-4.2,7.96Zm-5.31-2.81l-2.66-1.41,4.21-7.95,2.65,1.4-4.2,7.96Zm-5.31-2.81l-2.65-1.41,4.22-7.95,2.65,1.41-4.22,7.95Zm-5.32-2.82l-2.66-1.41,4.23-7.95,2.65,1.41-4.22,7.95Zm-5.31-2.82l-2.65-1.41,4.23-7.94,2.64,1.41-4.23,7.94Zm-5.29-2.82l-2.65-1.42,4.25-7.94,2.65,1.41-4.24,7.94Zm-5.3-2.83l-2.65-1.42,4.26-7.93,2.64,1.42-4.25,7.93Zm-5.3-2.84l-2.65-1.43,4.27-7.92,2.64,1.42-4.26,7.93Zm-5.29-2.85l-2.65-1.43,4.29-7.92,2.64,1.42-4.28,7.92Zm-5.29-2.86l-2.64-1.43,4.3-7.91,2.64,1.43-4.29,7.91Zm-5.28-2.87l-2.64-1.44,4.32-7.9,2.63,1.44-4.31,7.9Zm-5.24-2.86c-.85-.45-1.7-.9-2.55-1.33l4.04-8.04c.93.47,1.85.94,2.77,1.44l-4.26,7.93Zm-5.14-2.58c-.87-.41-1.75-.81-2.63-1.19l3.62-8.24c.95.42,1.89.85,2.84,1.29l-3.83,8.15Zm-5.28-2.32c-.89-.37-1.79-.72-2.69-1.06l3.2-8.41c.97.37,1.93.75,2.9,1.14l-3.41,8.33Zm-5.4-2.05c-.91-.32-1.83-.63-2.74-.93l2.79-8.56c.98.32,1.96.65,2.94,1l-2.99,8.49Zm-5.5-1.8c-.93-.28-1.86-.55-2.79-.8l2.4-8.67c.99.27,1.99.56,2.98.86l-2.59,8.62Zm-5.59-1.54c-.94-.24-1.88-.46-2.82-.68l2.02-8.77c1,.23,2.01.47,3.01.73l-2.2,8.73Zm-72.29-1.17l-2.06-8.76s1.16-.27,3.15-.65l1.66,8.85c-1.76.33-2.74.56-2.75.56Zm66.63-.13c-.95-.2-1.91-.39-2.85-.56l1.65-8.85c1.01.19,2.02.39,3.03.6l-1.83,8.81Zm-61.03-.94l-1.46-8.88c.92-.15,1.94-.31,3.05-.47l1.29,8.91c-1.05.15-2.01.3-2.88.44Zm55.31-.13c-.96-.16-1.92-.31-2.88-.45l1.3-8.91c1.01.15,2.03.31,3.05.48l-1.47,8.88Zm-49.53-.71l-1.13-8.93c.97-.12,1.99-.24,3.06-.36l.98,8.95c-1.01.11-1.98.23-2.91.34Zm43.77-.14c-.97-.12-1.94-.24-2.9-.34l.96-8.95c1.01.11,2.03.23,3.06.36l-1.12,8.93Zm-37.95-.5l-.83-8.96c.99-.09,2.01-.18,3.06-.26l.69,8.97c-1,.08-1.98.16-2.92.25Zm32.15-.12c-.98-.09-1.95-.17-2.91-.23l.64-8.98c1.01.07,2.04.15,3.07.25l-.8,8.96Zm-26.3-.33l-.55-8.98c1-.06,2.02-.12,3.07-.16l.41,8.99c-1,.04-1.97.1-2.93.16Zm20.48-.09c-.98-.05-1.96-.1-2.92-.13l.33-8.99c1.01.04,2.04.08,3.07.14l-.48,8.99Zm-14.63-.17l-.26-9c1.01-.03,2.03-.05,3.07-.06l.12,9c-.99.01-1.97.03-2.93.06Zm8.78-.04c-.99-.02-1.96-.03-2.93-.03l.03-9c1.01,0,2.04.02,3.08.04l-.18,9Z"/><path class="cls-6" d="m394.4,748.43l-.22-9,3-.07.22,9-3,.07Zm6-.15l-.22-9,3-.07.22,9-3,.07Zm6-.15l-.22-9,3-.07.22,9-3,.07Zm6-.15l-.22-9,3-.07.22,9-3,.07Zm6-.15l-.22-9,3-.07.22,9-3,.07Zm6-.15l-.22-9,3-.07.22,9-3,.07Zm6-.15l-.22-9,3-.07.22,9-3,.07Zm6-.15l-.22-9,3-.07.22,9-3,.07Zm6-.15l-.22-9,3-.07.22,9-3,.07Zm6-.15l-.22-9,3-.07.22,9-3,.07Zm6-.15l-.22-9,3-.07.22,9-3,.07Zm6-.15l-.22-9,3-.07.22,9-3,.07Zm6-.15l-.22-9,3-.07.22,9-3,.07Zm6-.15l-.22-9,3-.07.22,9-3,.07Zm6-.15l-.22-9,3-.07.22,9-3,.07Zm6-.15l-.22-9,3-.07.22,9-3,.07Zm6-.15l-.22-9,3-.07.22,9-3,.07Zm6-.15l-.22-9,3-.07.22,9-3,.07Zm6-.15l-.22-9,3-.07.22,9-3,.07Zm6-.15l-.22-9,3-.07.22,9-3,.07Zm6-.15l-.22-9,3-.07.22,9-3,.07Zm6-.15l-.22-9,3-.07.22,9-3,.07Zm6-.15l-.22-9,3-.07.22,9-3,.07Zm6-.15l-.22-9,3-.07.22,9-3,.07Zm6-.15l-.22-9,3-.07.22,9-3,.07Zm6-.15l-.22-9,3-.07.22,9-3,.07Zm6-.15l-.22-9,3-.07.22,9-3,.07Zm6-.15l-.22-9,3-.07.22,9-3,.07Zm6-.15l-.22-9,3-.07.22,9-3,.07Zm6-.15l-.22-9,3-.07.22,9-3,.07Zm6-.15l-.22-9,3-.07.22,9-3,.07Zm6-.15l-.22-9,3-.07.22,9-3,.07Zm6-.15l-.22-9,3-.07.22,9-3,.07Zm6-.15l-.22-9,3-.07.22,9-3,.07Zm6-.15l-.22-9,3-.07.22,9-3,.07Zm6-.15l-.22-9,3-.07.22,9-3,.07Zm6-.15l-.22-9,3-.07.22,9-3,.07Zm6-.15l-.22-9,3-.07.22,9-3,.07Zm6-.15l-.22-9,3-.07.22,9-3,.07Zm6-.15l-.22-9,3-.07.22,9-3,.07Zm6-.15l-.22-9,3-.07.22,9-3,.07Zm6-.15l-.22-9,3-.07.22,9-3,.07Zm6-.15l-.22-9,3-.07.22,9-3,.07Zm6-.15l-.22-9,3-.07.22,9-3,.07Zm6-.15l-.22-9,3-.07.22,9-3,.07Zm6-.15l-.22-9,3-.07.22,9-3,.07Zm6-.15l-.22-9,3-.07.22,9-3,.07Zm6-.15l-.22-9,3-.07.22,9-3,.07Zm6-.15l-.22-9,3-.07.22,9-3,.07Zm6-.15l-.22-9,3-.07.22,9-3,.07Zm6-.15l-.22-9,3-.07.22,9-3,.07Zm6-.15l-.22-9,3-.07.22,9-3,.07Zm6-.15l-.22-9,3-.07.22,9-3,.07Zm6-.15l-.22-9,3-.07.22,9-3,.07Zm6-.15l-.22-9,3-.07.22,9-3,.07Zm6-.15l-.22-9,3-.07.22,9-3,.07Zm6-.15l-.22-9,3-.07.22,9-3,.07Zm6-.15l-.22-9,3-.07.22,9-3,.07Zm6-.15l-.22-9,3-.07.22,9-3,.07Zm6-.15l-.22-9,3-.07.22,9-3,.07Zm6-.15l-.22-9,3-.07.22,9-3,.07Z"/><path class="cls-6" d="m260.87,703.16h-1.08s.03-9,.03-9h1.07s1.9,0,1.9,0l.04,9h-1.95Zm-4.1-.02c-1.01,0-2.02-.02-3.02-.03l.12-9c.99.01,1.98.02,2.98.03l-.07,9Zm9.07,0l-.08-9c.99,0,1.98-.02,2.97-.04l.14,9c-1.01.02-2.02.03-3.03.04Zm-15.12-.07c-1.01-.02-2.02-.04-3.02-.07l.22-9c.99.02,1.98.05,2.98.07l-.18,9Zm21.18-.02l-.19-9c.99-.02,1.98-.04,2.98-.07l.23,9c-1.01.03-2.02.05-3.02.07Zm-27.22-.13c-1.01-.03-2.02-.06-3.03-.1l.33-8.99c.99.04,1.98.07,2.97.1l-.27,9Zm33.27-.03l-.28-9c.99-.03,1.98-.06,2.97-.1l.33,8.99c-1.01.04-2.02.07-3.02.1Zm-39.32-.19c-1.01-.04-2.02-.09-3.02-.13l.42-8.99c.99.05,1.98.09,2.97.13l-.38,8.99Zm45.36-.03l-.38-8.99c.99-.04,1.98-.09,2.97-.13l.44,8.99c-1.01.05-2.02.09-3.03.14Zm-51.4-.25c-1.01-.05-2.02-.11-3.02-.17l.53-8.98c.98.06,1.97.11,2.97.17l-.47,8.99Zm57.44-.04l-.49-8.99c.99-.05,1.98-.11,2.97-.17l.53,8.98c-1.01.06-2.01.12-3.01.17Zm-63.49-.32c-1.01-.07-2.02-.13-3.02-.2l.63-8.98c.98.07,1.97.14,2.97.2l-.58,8.98Zm69.51-.04l-.58-8.98c.99-.06,1.98-.13,2.97-.2l.62,8.98c-1.01.07-2.01.14-3.01.2Zm-75.55-.38c-1.01-.08-2.02-.16-3.02-.24l.73-8.97c.98.08,1.97.16,2.96.23l-.67,8.97Zm81.57-.04l-.68-8.97c.98-.07,1.97-.15,2.96-.23l.73,8.97c-1.01.08-2.01.16-3.01.24Zm-87.61-.45c-1.01-.09-2.01-.18-3.01-.27l.84-8.96c.98.09,1.97.18,2.96.27l-.79,8.96Zm93.62-.03l-.78-8.97c.98-.08,1.97-.17,2.96-.26l.82,8.96c-1,.09-2.01.18-3.01.27Zm-99.65-.53c-1.01-.1-2.01-.2-3.01-.31l.95-8.95c.98.1,1.97.21,2.96.3l-.89,8.96Zm105.66-.03l-.88-8.96c.98-.1,1.97-.2,2.96-.3l.92,8.95c-1,.1-2,.2-3,.3Zm-111.68-.61c-1.01-.11-2.01-.23-3-.34l1.04-8.94c.98.11,1.96.23,2.96.34l-1,8.95Zm117.69-.01l-.97-8.95c.98-.11,1.96-.22,2.95-.33l1.02,8.94c-1,.11-2,.23-3,.33Zm6-.69l-1.07-8.94c.98-.12,1.96-.24,2.95-.36l1.12,8.93c-1,.12-2,.25-3,.37Zm-129.7,0c-1.01-.12-2.01-.25-3-.38l1.15-8.93c.98.13,1.96.25,2.95.37l-1.1,8.93Zm135.69-.74l-1.17-8.92c.98-.13,1.96-.26,2.94-.39l1.21,8.92c-1,.14-2,.27-2.99.4Zm-141.69-.03c-1-.14-2-.27-2.99-.41l1.26-8.91c.98.14,1.96.27,2.95.41l-1.21,8.92Zm147.67-.78l-1.26-8.91,1.71-.24,1.3,8.91-1.75.25Zm-153.67-.07c-1.01-.15-2-.3-2.99-.45l1.36-8.9c.97.15,1.95.3,2.94.44l-1.31,8.9Zm-5.99-.92c-1-.16-2-.32-2.99-.49l1.48-8.88c.97.16,1.95.32,2.93.48l-1.42,8.89Zm-5.98-.99c-1-.17-2-.35-2.98-.52l1.59-8.86c.97.17,1.95.34,2.93.51l-1.54,8.87Zm-5.96-1.07c-1-.19-1.99-.37-2.97-.56l1.69-8.84c.97.19,1.94.37,2.92.55l-1.65,8.85Zm-5.94-1.14c-1-.2-1.99-.4-2.97-.6l1.81-8.82c.96.2,1.93.39,2.91.59l-1.74,8.83Zm-5.94-1.22c-1-.21-1.99-.42-2.96-.64l1.92-8.79c.96.21,1.92.42,2.9.62l-1.86,8.81Zm-5.92-1.29c-1-.22-1.98-.45-2.95-.68l2.04-8.77c.95.22,1.92.44,2.9.66l-1.98,8.78Zm-5.91-1.37c-.99-.24-1.97-.48-2.94-.72l2.16-8.74c.95.23,1.91.47,2.89.7l-2.11,8.75Zm-5.88-1.45c-.99-.25-1.97-.51-2.93-.76l2.28-8.71c.94.25,1.9.5,2.88.74l-2.23,8.72Zm-5.87-1.54c-.99-.27-1.97-.54-2.92-.8l2.41-8.67c.94.26,1.89.52,2.86.78l-2.35,8.69Zm-5.85-1.62c-.99-.28-1.96-.57-2.91-.85l2.54-8.63c.93.27,1.88.55,2.85.83l-2.48,8.65Zm-5.82-1.72c-1-.3-1.96-.6-2.9-.89l2.68-8.59c.92.29,1.86.58,2.83.87l-2.61,8.61Zm-5.8-1.81c-1-.32-1.96-.64-2.89-.94l2.83-8.54c.9.3,1.84.61,2.82.92l-2.76,8.57Zm-5.78-1.92c-1.01-.35-1.97-.68-2.88-1l3-8.48c.88.31,1.81.64,2.79.97l-2.91,8.52Zm-5.75-2.04c-1.05-.38-2.01-.75-2.87-1.08l3.22-8.41c.83.32,1.74.66,2.75,1.03l-3.1,8.45Zm-5.74-2.2c-1.94-.78-2.93-1.22-2.93-1.22l3.65-8.23s0,0,0,0h0c.06.03.95.42,2.63,1.09l-3.35,8.35Z"/><rect x="559.41" y="672.47" width="6.11" height="55.73" transform="translate(-6.25 5.07) rotate(-.51)"/><polygon points="550.09 694.88 552.87 692.04 544.19 683.51 552.72 674.83 549.88 672.04 538.57 683.56 550.09 694.88"/><polygon points="533.89 695.08 536.68 692.24 527.99 683.71 536.52 675.02 533.69 672.24 522.37 683.76 533.89 695.08"/><polygon points="517.7 695.27 520.48 692.44 511.8 683.91 520.33 675.22 517.5 672.44 506.18 683.96 517.7 695.27"/><path class="cls-4" d="m327.07,367.7c-7.65-15.23-19.48-24.65-32.88-35.18-27.43-21.54-75.27-50.28-121.82-12.25-71,58-34.78,81.93-34.78,81.93,0,0,93.78,48.07,85.78,89.07,0,0-22,36-60,65s-3.87,72-3.87,72c0,0,11.65,30.7,90.26-4.65,78.61-35.35,171.61-39.35,171.61-39.35,0,0,177-10,271-1s155,25,155,25c0,0,40,15,56-35,11.43-35.72-32.77-48.81-58.95-53.37-11.86-2.07-23.53-5.15-34.84-9.28-31.64-11.54-101.95-29.36-158.2,12.64,0,0-17.96,15.67-48,19.14-68,7.86-137,15.86-191.57-39.14,0,0-34.43-21-64.01-89.71-7.42-17.23-13.69-31.85-20.72-45.86Z"/><g id="_1"><circle cx="378" cy="735" r="12"/><path d="m378,724c6.08,0,11,4.92,11,11s-4.92,11-11,11-11-4.92-11-11,4.92-11,11-11m0-2c-7.17,0-13,5.83-13,13s5.83,13,13,13,13-5.83,13-13-5.83-13-13-13h0Z"/><text class="cls-2" transform="translate(369.38 739.35)"><tspan x="0" y="0">01</tspan></text></g><g id="_1-2"><circle cx="382" cy="656" r="12"/><path d="m382,645c6.08,0,11,4.92,11,11s-4.92,11-11,11-11-4.92-11-11,4.92-11,11-11m0-2c-7.17,0-13,5.83-13,13s5.83,13,13,13,13-5.83,13-13-5.83-13-13-13h0Z"/><text class="cls-2" transform="translate(373.38 660.35)"><tspan x="0" y="0">02</tspan></text></g><g id="_1-3"><circle cx="71" cy="649" r="12"/><path d="m71,638c6.08,0,11,4.92,11,11s-4.92,11-11,11-11-4.92-11-11,4.92-11,11-11m0-2c-7.17,0-13,5.83-13,13s5.83,13,13,13,13-5.83,13-13-5.83-13-13-13h0Z"/><text class="cls-2" transform="translate(62.38 653.47) scale(1.08 1)"><tspan x="0" y="0">03</tspan></text></g><g id="_1-4"><circle cx="145" cy="582" r="12"/><path d="m145,571c6.08,0,11,4.92,11,11s-4.92,11-11,11-11-4.92-11-11,4.92-11,11-11m0-2c-7.17,0-13,5.83-13,13s5.83,13,13,13,13-5.83,13-13-5.83-13-13-13h0Z"/><text class="cls-2" transform="translate(137.38 586.35)"><tspan x="0" y="0">04</tspan></text></g><g id="_1-5"><circle cx="28" cy="518" r="12"/><path d="m28,507c6.08,0,11,4.92,11,11s-4.92,11-11,11-11-4.92-11-11,4.92-11,11-11m0-2c-7.17,0-13,5.83-13,13s5.83,13,13,13,13-5.83,13-13-5.83-13-13-13h0Z"/><text class="cls-2" transform="translate(19.38 522.35)"><tspan x="0" y="0">05</tspan></text></g><g id="_1-6"><circle cx="81" cy="311" r="12"/><path d="m81,300c6.08,0,11,4.92,11,11s-4.92,11-11,11-11-4.92-11-11,4.92-11,11-11m0-2c-7.17,0-13,5.83-13,13s5.83,13,13,13,13-5.83,13-13-5.83-13-13-13h0Z"/><text class="cls-2" transform="translate(72.38 315.35)"><tspan x="0" y="0">06</tspan></text></g><g id="_1-7"><circle cx="168" cy="328" r="12"/><path d="m168,317c6.08,0,11,4.92,11,11s-4.92,11-11,11-11-4.92-11-11,4.92-11,11-11m0-2c-7.17,0-13,5.83-13,13s5.83,13,13,13,13-5.83,13-13-5.83-13-13-13h0Z"/><text class="cls-2" transform="translate(159.38 332.35)"><tspan x="0" y="0">07</tspan></text></g><g id="_1-8"><circle cx="244" cy="255" r="12"/><path d="m244,244c6.08,0,11,4.92,11,11s-4.92,11-11,11-11-4.92-11-11,4.92-11,11-11m0-2c-7.17,0-13,5.83-13,13s5.83,13,13,13,13-5.83,13-13-5.83-13-13-13h0Z"/><text class="cls-2" transform="translate(235.38 259.35)"><tspan x="0" y="0">08</tspan></text></g><g id="_1-9"><circle cx="638" cy="536" r="12"/><path d="m638,525c6.08,0,11,4.92,11,11s-4.92,11-11,11-11-4.92-11-11,4.92-11,11-11m0-2c-7.17,0-13,5.83-13,13s5.83,13,13,13,13-5.83,13-13-5.83-13-13-13h0Z"/><text class="cls-2" transform="translate(629.38 540.35)"><tspan x="0" y="0">09</tspan></text></g><g id="_1-10"><circle cx="641" cy="454" r="12"/><path d="m641,443c6.08,0,11,4.92,11,11s-4.92,11-11,11-11-4.92-11-11,4.92-11,11-11m0-2c-7.17,0-13,5.83-13,13s5.83,13,13,13,13-5.83,13-13-5.83-13-13-13h0Z"/><text class="cls-2" transform="translate(632.38 458.35)"><tspan x="0" y="0">10</tspan></text></g><g id="_1-11"><circle cx="973" cy="550" r="12"/><path d="m973,539c6.08,0,11,4.92,11,11s-4.92,11-11,11-11-4.92-11-11,4.92-11,11-11m0-2c-7.17,0-13,5.83-13,13s5.83,13,13,13,13-5.83,13-13-5.83-13-13-13h0Z"/><text class="cls-2" transform="translate(964.38 554.35)"><tspan x="0" y="0">11</tspan></text></g><g id="_1-12"><circle cx="896" cy="677" r="12"/><path d="m896,666c6.08,0,11,4.92,11,11s-4.92,11-11,11-11-4.92-11-11,4.92-11,11-11m0-2c-7.17,0-13,5.83-13,13s5.83,13,13,13,13-5.83,13-13-5.83-13-13-13h0Z"/><text class="cls-2" transform="translate(887.38 681.35)"><tspan x="0" y="0">12</tspan></text></g><g id="_1-13"><circle cx="762" cy="616" r="12"/><path d="m762,605c6.08,0,11,4.92,11,11s-4.92,11-11,11-11-4.92-11-11,4.92-11,11-11m0-2c-7.17,0-13,5.83-13,13s5.83,13,13,13,13-5.83,13-13-5.83-13-13-13h0Z"/><text class="cls-2" transform="translate(753.38 620.35)"><tspan x="0" y="0">13</tspan></text></g><g id="_1-14"><circle cx="790" cy="722" r="12"/><path d="m790,711c6.08,0,11,4.92,11,11s-4.92,11-11,11-11-4.92-11-11,4.92-11,11-11m0-2c-7.17,0-13,5.83-13,13s5.83,13,13,13,13-5.83,13-13-5.83-13-13-13h0Z"/><text class="cls-2" transform="translate(781.38 726.35)"><tspan x="0" y="0">14</tspan></text></g><g id="Legend"><circle cx="65.14" cy="211.76" r="13"/><path d="m89.65,210.93v-2.36h8.94v2.36h-8.94Zm0,4.02v-2.38h8.94v2.38h-8.94Z"/><path d="m111.14,218.1h-3.47v-10.02h-3.14v-2.84h9.75v2.84h-3.13v10.02Z"/><path d="m127.04,205.24v7.74c0,1.08-.21,2.02-.62,2.81-.41.79-1.03,1.41-1.85,1.84-.82.43-1.85.65-3.09.65-1.77,0-3.12-.45-4.06-1.36-.93-.91-1.4-2.19-1.4-3.85v-7.82h3.49v7.55c0,.91.17,1.57.51,1.98.34.41.84.62,1.5.62.47,0,.86-.09,1.16-.27s.52-.46.66-.85c.14-.39.21-.89.21-1.5v-7.53h3.47Z"/><path d="m133.96,205.24c1.17,0,2.14.14,2.91.43.77.28,1.36.71,1.75,1.27.39.56.58,1.26.58,2.1,0,.52-.09,1-.26,1.43s-.43.81-.75,1.15c-.33.34-.71.63-1.17.88l3.75,5.6h-3.94l-2.73-4.68h-.88v4.68h-3.47v-12.86h4.21Zm-.05,2.63h-.69v2.94h.65c.53,0,.97-.12,1.31-.35.34-.23.51-.65.51-1.26,0-.42-.14-.74-.42-.98s-.74-.35-1.36-.35Z"/><path d="m154.18,218.1h-4.56l-4.7-9.06h-.08c.03.28.06.61.08.99s.04.78.06,1.18.03.76.03,1.09v5.8h-3.08v-12.86h4.54l4.68,8.94h.05c-.02-.28-.04-.61-.05-.98-.02-.37-.03-.75-.05-1.13-.01-.38-.02-.72-.02-1.01v-5.81h3.1v12.86Z"/><path d="m173.88,218.1h-4.56l-4.7-9.06h-.08c.03.28.06.61.08.99s.04.78.06,1.18.03.76.03,1.09v5.8h-3.08v-12.86h4.54l4.68,8.94h.05c-.02-.28-.04-.61-.05-.98-.02-.37-.03-.75-.05-1.13-.01-.38-.02-.72-.02-1.01v-5.81h3.1v12.86Z"/><path d="m187.6,205.24v7.74c0,1.08-.21,2.02-.62,2.81-.41.79-1.03,1.41-1.85,1.84-.82.43-1.85.65-3.09.65-1.77,0-3.12-.45-4.06-1.36-.93-.91-1.4-2.19-1.4-3.85v-7.82h3.49v7.55c0,.91.17,1.57.51,1.98.34.41.84.62,1.5.62.47,0,.86-.09,1.16-.27s.52-.46.66-.85c.14-.39.21-.89.21-1.5v-7.53h3.47Z"/><path d="m195.9,218.1l-2.63-9.26h-.08c.02.24.05.57.07.98.03.41.05.85.08,1.33s.04.93.04,1.37v5.59h-3.08v-12.86h4.63l2.68,9.13h.07l2.63-9.13h4.64v12.86h-3.19v-5.64c0-.4,0-.84.02-1.31s.03-.91.05-1.32c.02-.41.04-.74.06-.98h-.08l-2.59,9.25h-3.31Z"/><path d="m207.71,205.24h4.49c1.86,0,3.18.28,3.98.83.79.55,1.19,1.34,1.19,2.38,0,.56-.1,1.04-.3,1.43-.2.39-.46.7-.77.93-.31.23-.62.38-.95.47v.09c.35.09.7.23,1.05.44s.64.5.87.91c.23.4.35.95.35,1.63,0,.78-.2,1.45-.59,2.01-.4.56-.96,1-1.69,1.3-.73.3-1.6.45-2.61.45h-5.01v-12.86Zm3.47,4.93h1.05c.58,0,.98-.12,1.21-.36.23-.24.35-.53.35-.87s-.13-.62-.4-.8c-.27-.19-.68-.28-1.24-.28h-.98v2.3Zm0,2.54v2.7h1.22c.6,0,1.03-.13,1.27-.39.24-.26.36-.59.36-.98,0-.23-.05-.44-.15-.65-.1-.2-.28-.37-.52-.49s-.59-.19-1.02-.19h-1.15Z"/><path d="m227.49,218.1h-7.64v-12.86h7.64v2.79h-4.16v2.02h3.85v2.79h-3.85v2.43h4.16v2.83Z"/><path d="m233.96,205.24c1.17,0,2.14.14,2.91.43.77.28,1.36.71,1.75,1.27.39.56.58,1.26.58,2.1,0,.52-.09,1-.26,1.43s-.43.81-.75,1.15c-.33.34-.71.63-1.17.88l3.75,5.6h-3.94l-2.73-4.68h-.88v4.68h-3.47v-12.86h4.21Zm-.05,2.63h-.69v2.94h.65c.53,0,.97-.12,1.31-.35.34-.23.51-.65.51-1.26,0-.42-.14-.74-.42-.98s-.74-.35-1.36-.35Z"/><path d="m250.34,214.2c0,.7-.18,1.36-.53,1.98s-.9,1.13-1.64,1.52c-.74.39-1.7.58-2.87.58-.59,0-1.1-.03-1.54-.08-.44-.05-.85-.14-1.24-.26-.38-.12-.78-.28-1.19-.47v-3.1c.7.35,1.4.62,2.11.8.71.18,1.35.28,1.93.28.35,0,.63-.04.85-.12.22-.08.38-.19.49-.34.11-.14.16-.31.16-.5,0-.22-.08-.41-.23-.57s-.4-.32-.74-.49c-.34-.17-.79-.38-1.35-.63-.47-.22-.9-.45-1.29-.69-.38-.23-.71-.5-.99-.81-.27-.3-.48-.66-.63-1.06-.15-.4-.22-.88-.22-1.43,0-.83.2-1.52.61-2.08.41-.56.98-.98,1.71-1.26.73-.28,1.57-.42,2.53-.42.84,0,1.59.09,2.26.28.67.19,1.27.4,1.81.64l-1.06,2.68c-.55-.25-1.09-.45-1.63-.6-.53-.15-1.03-.22-1.49-.22-.3,0-.54.04-.73.11-.19.07-.33.17-.42.29s-.14.26-.14.42c0,.2.08.38.23.54.16.16.42.33.78.51.37.19.87.42,1.5.72.63.28,1.16.58,1.6.91.44.33.78.72,1.01,1.17.23.45.35,1.02.35,1.68Z"/><circle class="cls-6" cx="65.14" cy="131.76" r="13"/><path d="m65.14,145.76c-7.72,0-14-6.28-14-14s6.28-14,14-14,14,6.28,14,14-6.28,14-14,14Zm0-26c-6.62,0-12,5.38-12,12s5.38,12,12,12,12-5.38,12-12-5.38-12-12-12Z"/><path d="m89.65,130.93v-2.36h8.94v2.36h-8.94Zm0,4.02v-2.38h8.94v2.38h-8.94Z"/><path d="m116.38,131.4c0,1.5-.28,2.74-.84,3.73-.56.99-1.34,1.73-2.35,2.23-1.01.5-2.2.74-3.57.74h-4.16v-12.86h4.45c1.38,0,2.56.24,3.52.71s1.69,1.17,2.2,2.08c.5.92.75,2.04.75,3.36Zm-3.61.12c0-.78-.1-1.43-.31-1.94s-.52-.9-.94-1.15c-.42-.25-.94-.38-1.57-.38h-1.01v7.2h.77c1.06,0,1.83-.31,2.32-.92.49-.61.74-1.55.74-2.81Z"/><path d="m122.9,125.24c1.17,0,2.14.14,2.91.43.77.28,1.36.71,1.75,1.27.39.56.58,1.26.58,2.1,0,.52-.09,1-.26,1.43s-.43.81-.75,1.15c-.33.34-.71.63-1.17.88l3.75,5.6h-3.94l-2.73-4.68h-.88v4.68h-3.47v-12.86h4.21Zm-.05,2.63h-.69v2.94h.65c.53,0,.97-.12,1.31-.35.34-.23.51-.65.51-1.26,0-.42-.14-.74-.42-.98s-.74-.35-1.36-.35Z"/><path d="m139.29,134.2c0,.7-.18,1.36-.53,1.98s-.9,1.13-1.64,1.52c-.74.39-1.7.58-2.87.58-.59,0-1.1-.03-1.54-.08-.44-.05-.85-.14-1.24-.26-.38-.12-.78-.28-1.19-.47v-3.1c.7.35,1.4.62,2.11.8.71.18,1.35.28,1.93.28.35,0,.63-.04.85-.12.22-.08.38-.19.49-.34.11-.14.16-.31.16-.5,0-.22-.08-.41-.23-.57s-.4-.32-.74-.49c-.34-.17-.79-.38-1.35-.63-.47-.22-.9-.45-1.29-.69-.38-.23-.71-.5-.99-.81-.27-.3-.48-.66-.63-1.06-.15-.4-.22-.88-.22-1.43,0-.83.2-1.52.61-2.08.41-.56.98-.98,1.71-1.26.73-.28,1.57-.42,2.53-.42.84,0,1.59.09,2.26.28.67.19,1.27.4,1.81.64l-1.06,2.68c-.55-.25-1.09-.45-1.63-.6-.53-.15-1.03-.22-1.49-.22-.3,0-.54.04-.73.11-.19.07-.33.17-.42.29s-.14.26-.14.42c0,.2.08.38.23.54.16.16.42.33.78.51.37.19.87.42,1.5.72.63.28,1.16.58,1.6.91.44.33.78.72,1.01,1.17.23.45.35,1.02.35,1.68Z"/><path d="m156.87,131.4c0,1.5-.28,2.74-.84,3.73-.56.99-1.34,1.73-2.35,2.23-1.01.5-2.2.74-3.57.74h-4.16v-12.86h4.45c1.38,0,2.56.24,3.52.71s1.69,1.17,2.2,2.08c.5.92.75,2.04.75,3.36Zm-3.61.12c0-.78-.1-1.43-.31-1.94s-.52-.9-.94-1.15c-.42-.25-.94-.38-1.57-.38h-1.01v7.2h.77c1.06,0,1.83-.31,2.32-.92.49-.61.74-1.55.74-2.81Z"/><path d="m166.81,138.1h-7.64v-12.86h7.64v2.79h-4.16v2.02h3.85v2.79h-3.85v2.43h4.16v2.83Z"/><path d="m174.74,138.1h-3.47v-10.02h-3.14v-2.84h9.75v2.84h-3.13v10.02Z"/><path d="m187.34,138.1h-7.64v-12.86h7.64v2.79h-4.16v2.02h3.85v2.79h-3.85v2.43h4.16v2.83Z"/><path d="m195.32,127.91c-.41,0-.78.09-1.1.26s-.6.42-.83.75c-.23.33-.4.73-.52,1.2-.12.47-.18,1.01-.18,1.61,0,.81.1,1.49.31,2.04.21.55.52.97.94,1.25.42.28.95.42,1.58.42.58,0,1.13-.08,1.66-.24.53-.16,1.07-.35,1.61-.57v2.94c-.57.25-1.15.43-1.75.55-.59.11-1.23.17-1.9.17-1.4,0-2.54-.28-3.43-.83-.89-.55-1.54-1.32-1.96-2.31-.42-.99-.63-2.13-.63-3.43,0-.97.14-1.86.41-2.67.27-.81.67-1.51,1.2-2.11.53-.6,1.18-1.06,1.96-1.38.78-.33,1.67-.49,2.67-.49.62,0,1.28.07,1.97.22.69.14,1.36.37,2.02.69l-1.06,2.74c-.47-.22-.94-.41-1.42-.56-.48-.15-.99-.23-1.53-.23Z"/><path d="m206.96,138.1h-3.47v-10.02h-3.14v-2.84h9.75v2.84h-3.13v10.02Z"/><path d="m211.93,138.1v-12.86h3.49v12.86h-3.49Z"/><path d="m230.24,131.66c0,.99-.12,1.89-.36,2.7-.24.81-.61,1.51-1.11,2.1-.5.59-1.15,1.04-1.94,1.35-.79.31-1.74.47-2.84.47s-2.01-.16-2.8-.47c-.79-.31-1.44-.76-1.95-1.35-.51-.58-.89-1.28-1.13-2.1-.25-.81-.37-1.72-.37-2.73,0-1.34.22-2.5.66-3.49.44-.99,1.13-1.75,2.05-2.3s2.11-.81,3.55-.81,2.66.27,3.58.82,1.59,1.31,2.02,2.3c.43.99.64,2.15.64,3.49Zm-8.85,0c0,.77.09,1.44.26,2s.46.99.84,1.28c.38.3.88.45,1.5.45s1.15-.15,1.53-.45c.38-.3.65-.73.82-1.28s.25-1.22.25-2c0-1.16-.19-2.08-.58-2.75s-1.05-1.01-2-1.01c-.63,0-1.13.15-1.52.46-.38.31-.66.74-.83,1.3s-.26,1.23-.26,2.01Z"/><path d="m244.8,138.1h-4.56l-4.7-9.06h-.08c.03.28.06.61.08.99s.04.78.06,1.18.03.76.03,1.09v5.8h-3.08v-12.86h4.54l4.68,8.94h.05c-.02-.28-.04-.61-.05-.98-.02-.37-.03-.75-.05-1.13-.01-.38-.02-.72-.02-1.01v-5.81h3.1v12.86Z"/><path d="m261.43,138.1h-10.02v-2.15l5.57-7.91h-5.44v-2.81h9.75v2.14l-5.57,7.92h5.71v2.81Z"/><path d="m275.3,131.66c0,.99-.12,1.89-.36,2.7-.24.81-.61,1.51-1.11,2.1-.5.59-1.15,1.04-1.94,1.35-.79.31-1.74.47-2.84.47s-2.01-.16-2.8-.47c-.79-.31-1.44-.76-1.95-1.35-.51-.58-.89-1.28-1.13-2.1-.25-.81-.37-1.72-.37-2.73,0-1.34.22-2.5.66-3.49.44-.99,1.13-1.75,2.05-2.3s2.11-.81,3.55-.81,2.66.27,3.58.82,1.59,1.31,2.02,2.3c.43.99.64,2.15.64,3.49Zm-8.85,0c0,.77.09,1.44.26,2s.46.99.84,1.28c.38.3.88.45,1.5.45s1.15-.15,1.53-.45c.38-.3.65-.73.82-1.28s.25-1.22.25-2c0-1.16-.19-2.08-.58-2.75s-1.05-1.01-2-1.01c-.63,0-1.13.15-1.52.46-.38.31-.66.74-.83,1.3s-.26,1.23-.26,2.01Z"/><path d="m289.87,138.1h-4.56l-4.7-9.06h-.08c.03.28.06.61.08.99s.04.78.06,1.18.03.76.03,1.09v5.8h-3.08v-12.86h4.54l4.68,8.94h.05c-.02-.28-.04-.61-.05-.98-.02-.37-.03-.75-.05-1.13-.01-.38-.02-.72-.02-1.01v-5.81h3.1v12.86Z"/><path d="m300.28,138.1h-7.64v-12.86h7.64v2.79h-4.16v2.02h3.85v2.79h-3.85v2.43h4.16v2.83Z"/><path d="m89.65,169.93v-2.36h8.94v2.36h-8.94Zm0,4.02v-2.38h8.94v2.38h-8.94Z"/><path d="m116.38,170.4c0,1.5-.28,2.74-.84,3.73-.56.99-1.34,1.73-2.35,2.23-1.01.5-2.2.74-3.57.74h-4.16v-12.86h4.45c1.38,0,2.56.24,3.52.71s1.69,1.17,2.2,2.08c.5.92.75,2.04.75,3.36Zm-3.61.12c0-.78-.1-1.43-.31-1.94s-.52-.9-.94-1.15c-.42-.25-.94-.38-1.57-.38h-1.01v7.2h.77c1.06,0,1.83-.31,2.32-.92.49-.61.74-1.55.74-2.81Z"/><path d="m122.9,164.24c1.17,0,2.14.14,2.91.43.77.28,1.36.71,1.75,1.27.39.56.58,1.26.58,2.1,0,.52-.09,1-.26,1.43s-.43.81-.75,1.15c-.33.34-.71.63-1.17.88l3.75,5.6h-3.94l-2.73-4.68h-.88v4.68h-3.47v-12.86h4.21Zm-.05,2.63h-.69v2.94h.65c.53,0,.97-.12,1.31-.35.34-.23.51-.65.51-1.26,0-.42-.14-.74-.42-.98s-.74-.35-1.36-.35Z"/><path d="m139.29,173.2c0,.7-.18,1.36-.53,1.98s-.9,1.13-1.64,1.52c-.74.39-1.7.58-2.87.58-.59,0-1.1-.03-1.54-.08-.44-.05-.85-.14-1.24-.26-.38-.12-.78-.28-1.19-.47v-3.1c.7.35,1.4.62,2.11.8.71.18,1.35.28,1.93.28.35,0,.63-.04.85-.12.22-.08.38-.19.49-.34.11-.14.16-.31.16-.5,0-.22-.08-.41-.23-.57s-.4-.32-.74-.49c-.34-.17-.79-.38-1.35-.63-.47-.22-.9-.45-1.29-.69-.38-.23-.71-.5-.99-.81-.27-.3-.48-.66-.63-1.06-.15-.4-.22-.88-.22-1.43,0-.83.2-1.52.61-2.08.41-.56.98-.98,1.71-1.26.73-.28,1.57-.42,2.53-.42.84,0,1.59.09,2.26.28.67.19,1.27.4,1.81.64l-1.06,2.68c-.55-.25-1.09-.45-1.63-.6-.53-.15-1.03-.22-1.49-.22-.3,0-.54.04-.73.11-.19.07-.33.17-.42.29s-.14.26-.14.42c0,.2.08.38.23.54.16.16.42.33.78.51.37.19.87.42,1.5.72.63.28,1.16.58,1.6.91.44.33.78.72,1.01,1.17.23.45.35,1.02.35,1.68Z"/><path d="m155.12,177.1h-10.02v-2.15l5.57-7.91h-5.44v-2.81h9.75v2.14l-5.57,7.92h5.71v2.81Z"/><path d="m168.99,170.66c0,.99-.12,1.89-.36,2.7-.24.81-.61,1.51-1.11,2.1-.5.59-1.15,1.04-1.94,1.35-.79.31-1.74.47-2.84.47s-2.01-.16-2.8-.47c-.79-.31-1.44-.76-1.95-1.35-.51-.58-.89-1.28-1.13-2.1-.25-.81-.37-1.72-.37-2.73,0-1.34.22-2.5.66-3.49.44-.99,1.13-1.75,2.05-2.3s2.11-.81,3.55-.81,2.66.27,3.58.82,1.59,1.31,2.02,2.3c.43.99.64,2.15.64,3.49Zm-8.85,0c0,.77.09,1.44.26,2s.46.99.84,1.28c.38.3.88.45,1.5.45s1.15-.15,1.53-.45c.38-.3.65-.73.82-1.28s.25-1.22.25-2c0-1.16-.19-2.08-.58-2.75s-1.05-1.01-2-1.01c-.63,0-1.13.15-1.52.46-.38.31-.66.74-.83,1.3s-.26,1.23-.26,2.01Z"/><path d="m183.56,177.1h-4.56l-4.7-9.06h-.08c.03.28.06.61.08.99s.04.78.06,1.18.03.76.03,1.09v5.8h-3.08v-12.86h4.54l4.68,8.94h.05c-.02-.28-.04-.61-.05-.98-.02-.37-.03-.75-.05-1.13-.01-.38-.02-.72-.02-1.01v-5.81h3.1v12.86Z"/><path d="m193.98,177.1h-7.64v-12.86h7.64v2.79h-4.16v2.02h3.85v2.79h-3.85v2.43h4.16v2.83Z"/><path d="m204.64,173.2c0,.7-.18,1.36-.53,1.98s-.9,1.13-1.64,1.52c-.74.39-1.7.58-2.87.58-.59,0-1.1-.03-1.54-.08-.44-.05-.85-.14-1.24-.26-.38-.12-.78-.28-1.19-.47v-3.1c.7.35,1.4.62,2.11.8.71.18,1.35.28,1.93.28.35,0,.63-.04.85-.12.22-.08.38-.19.49-.34.11-.14.16-.31.16-.5,0-.22-.08-.41-.23-.57s-.4-.32-.74-.49c-.34-.17-.79-.38-1.35-.63-.47-.22-.9-.45-1.29-.69-.38-.23-.71-.5-.99-.81-.27-.3-.48-.66-.63-1.06-.15-.4-.22-.88-.22-1.43,0-.83.2-1.52.61-2.08.41-.56.98-.98,1.71-1.26.73-.28,1.57-.42,2.53-.42.84,0,1.59.09,2.26.28.67.19,1.27.4,1.81.64l-1.06,2.68c-.55-.25-1.09-.45-1.63-.6-.53-.15-1.03-.22-1.49-.22-.3,0-.54.04-.73.11-.19.07-.33.17-.42.29s-.14.26-.14.42c0,.2.08.38.23.54.16.16.42.33.78.51.37.19.87.42,1.5.72.63.28,1.16.58,1.6.91.44.33.78.72,1.01,1.17.23.45.35,1.02.35,1.68Z"/><path class="cls-6" d="m78.14,182.76h-2.5v-23h2.5v23Zm-5.5,0h-3v-23h3v23Zm-6,0h-3v-23h3v23Zm-6,0h-3v-23h3v23Zm-6,0h-3v-23h3v23Z"/><path class="cls-1" d="m64.62,210.54c0,.84-.07,1.59-.2,2.26s-.35,1.23-.64,1.69-.68.82-1.17,1.06c-.48.24-1.08.37-1.78.37-.88,0-1.59-.21-2.15-.64-.56-.43-.97-1.04-1.24-1.84-.26-.8-.4-1.76-.4-2.89s.12-2.1.36-2.91c.24-.81.64-1.42,1.19-1.85.55-.43,1.3-.65,2.23-.65.88,0,1.59.21,2.15.64.56.43.97,1.04,1.24,1.85.27.81.4,1.78.4,2.92Zm-4.75,0c0,.68.02,1.26.08,1.72.05.46.15.81.29,1.04.14.23.34.35.61.35s.46-.12.6-.35.23-.58.29-1.04.08-1.04.08-1.72-.03-1.27-.08-1.74-.15-.81-.29-1.05-.34-.35-.6-.35-.46.12-.61.35c-.14.24-.24.59-.29,1.05-.05.46-.08,1.04-.08,1.74Z"/><path class="cls-1" d="m71.89,215.77h-2.88v-5.71c0-.26,0-.54.01-.85,0-.31.02-.59.03-.84-.12.15-.24.27-.35.38-.11.11-.21.2-.31.29l-1.19.98-1.47-1.81,3.6-2.93h2.55v10.48Z"/></g></g></svg>