<?xml version="1.0" encoding="UTF-8"?><svg id="Bahrain_Detailed" xmlns="http://www.w3.org/2000/svg" viewBox="0 0 1000 1000"><defs><style>.cls-1,.cls-2{fill:#fff;}.cls-3{fill:#fae44a;}.cls-4{fill:#db4a25;}.cls-5,.cls-6{fill:#1bce20;}.cls-7{fill:#75e5fd;}.cls-6{stroke:#000;stroke-miterlimit:10;stroke-width:2px;}.cls-2{font-family:OpenSans-ExtraBold, 'Open Sans';font-size:12.58px;}</style></defs><path d="M961.15,765.34c-3.05-4.07-5.61-7.88-7.8-11.63l-114.38-195.12-110.02-180.02-43.92-69.88c-1.21-2.76-17.44-38.19-50.63-38.19-12.34,0-25.56,4.88-39.35,14.54-.69,.52-17.16,13.39-37.14,62.33-3.28,8.03-6.81,15.6-10.23,22.93-17.4,37.27-32.42,69.47,2.34,128.81,.75,1.34,19.16,32.94,84.23,49.95,32.88,8.6,50.84,26.99,60.11,40.89,10.08,15.11,12.41,28.38,12.43,28.51l.05,.24c.08,.25,7.51,25.9-.61,36.75-2.35,3.15-5.78,4.68-10.47,4.68H414.77l-136.9-1-81.53-8.74c2.45-7.2,13.46-30.3,53.65-30.3,4.85,0,10.07,.35,15.52,1.02,63.27,7.91,201.62,24.84,203.01,25.01l.17,.02h.17c.41-.03,40.9-2.43,40.9-30.01,0-21.42-14.26-32.68-22.03-35.77l-97.79-71.84-.36-.21c-.29-.14-29.5-13.87-21.85-57.84,8.09-46.52-12.7-66.94-13.63-67.82-.68-.62-16.97-15.16-46.9-25.52-11.98-4.15-22.75-10.39-32.01-18.56-38.12-33.64-93.82-102.5-94.37-103.2l-.18-.21-.23-.16c-.72-.51-17.93-12.51-36.49-12.51-17.1,0-29.4,9.91-36.54,29.45l-.1,.39c-8.85,58.02-57,390.12-57.99,396.93-.49,2.16-6.73,31.47,7.14,63.17,9.31,21.3,13.26,33.66,14.78,39.14,.6,2.15,.1,4.46-1.35,6.18l-29.1,34.56c-.78,.89-19.11,21.93-13.13,35.95,2.97,6.98,11.23,10.8,24.54,11.37,40.7,1.73,441,2.71,520.86,2.89v-1.5s.01-.45,.01-.45v-.5s-.01-1.67-.01-1.67v-.99s.01-32.01,.01-32.01v-.31s.06-1.57,.06-1.57h-.06c-90.03-.21-388.15-.97-488.84-2.25l15.49-18.4c9.75-11.58,13.15-27.19,9.1-41.76-2.2-7.9-6.87-22-16.63-44.31-8.03-18.34-5.24-36.54-4.82-38.96l.21-.75,.39-2.59c4.82-33.25,47.33-326.34,57.24-391.98,.16-.32,.31-.6,.44-.85,2.41,.43,5.72,1.65,9.05,3.35,13.79,16.8,60.05,72.19,94.72,102.79,13.08,11.55,28.24,20.36,45.06,26.17,16.7,5.78,27.7,13.24,31.94,16.41,1.8,3.09,6.4,13.35,2.92,33.4-6.36,36.56,4.68,61.18,15.06,75.4,8.49,11.63,18.02,18.53,24.57,22.29l86.81,63.79c-41.08-5.04-135.65-16.63-185.4-22.85-6.95-.88-13.8-1.32-20.36-1.32-39,0-61.71,15.72-73.89,28.9-13.88,15.04-17.79,30.62-18.65,35.04l-4.73,24.19c-.77,3.94,.16,8.06,2.54,11.3,2.39,3.23,6.05,5.34,10.05,5.77l108.5,11.62,1.83,.2,138.86,1.01h281.26c17.1,0,31.91-7.22,41.71-20.34,17.49-23.39,10.93-56.29,7.27-69.41-1.35-6.3-5.78-22.77-17.78-40.85-13.02-19.61-37.97-45.46-82.83-57.19-24.8-6.49-40.2-15.23-48.76-21.41-7.71-5.58-11.24-10.02-12.01-11.05-15.06-25.9-15.89-40.55-15.21-49.32,1.02-13.08,7.12-26.16,14.87-42.77,3.4-7.26,7.24-15.49,10.99-24.67,12.43-30.45,22.47-43.14,25.51-46.56,5.93-3.85,11.34-6.06,14.88-6.06,5.94,0,12.59,9.92,14.76,14.51l.86,2.27,45.78,72.83,109.7,179.51,114.2,194.81c2.78,4.74,5.87,9.4,9.4,14.17-.06,.04-.12,.08-.18,.12-23.18,15.25-42.07,16.02-45.62,16.02l-.74-.11h-262.23c-.64,0-9.22-.02-23.83-.06l-9.18-.02-.06,1.79v.24s-.01,.44-.01,.44v31.31s-.01,1.33-.01,1.33v1.17s.01,1.22,.01,1.22v1.32s-.01,.19-.01,.19h.01c20.82,.05,33.01,.07,33.01,.07h259.62c.34,.03,1.52,.11,3.42,.11,9.91,0,36.27-2.19,67.06-22.44,11.17-7.35,17.7-15.98,19.38-25.66,2.2-12.6-4.44-23.77-8.59-29.3Zm4.65,28.61c-1.49,8.55-7.42,16.29-17.64,23.01-29.89,19.66-55.31,21.78-64.86,21.78-2.03,0-3.14-.1-3.15-.1h-.1s-259.79-.01-259.79-.01c0,0-11.41-.02-31.02-.07v-31s7.25,.01,7.25,.01c14.61,.04,23.2,.06,23.84,.06h261.89l.46,.08,.62,.03c3.75,0,23.69-.8,47.8-16.67,.7-.45,1.37-.92,2.04-1.43l1.52-1.17-1.51-2.13c-3.81-5.07-7.08-9.96-9.99-14.93l-114.22-194.84-109.74-179.56-45.58-72.53-.75-1.96-.06-.14c-.08-.17-8.17-16.88-18.41-16.88-4.4,0-10.54,2.44-17.29,6.86l-.21,.14-.17,.19c-2.93,3.24-13.5,16.27-26.42,47.91-3.71,9.1-7.54,17.28-10.94,24.55-7.89,16.93-14.13,30.3-15.2,44.09-.73,9.32,.11,24.82,15.79,51.75l.12,.17c.68,.94,4.53,5.92,12.95,12.01,8.83,6.39,24.69,15.39,50.08,22.03,43.65,11.42,67.88,36.51,80.51,55.55,11.66,17.56,15.93,33.49,17.22,39.53l.03,.12c3.5,12.51,9.85,43.99-6.6,65.99-9.03,12.09-22.7,18.74-38.51,18.74H414.51l-137-1h-1.63s-110.15-11.81-110.15-11.81c-2.93-.31-5.5-1.8-7.25-4.17-1.75-2.37-2.4-5.27-1.84-8.16l4.73-24.18c.82-4.16,4.5-18.83,17.67-33.09,11.64-12.6,33.4-27.62,70.95-27.62,6.39,0,13.07,.43,19.86,1.28,50.04,6.26,145.39,17.95,186.1,22.94l14.5,1.78-99.24-72.91-.19-.13c-6.2-3.55-15.31-10.11-23.41-21.23-9.93-13.59-20.48-37.18-14.36-72.36,3.74-21.56-1.3-32.7-3.65-36.49l-.2-.32-.29-.22c-4.15-3.15-15.69-11.12-33.36-17.24-16.32-5.64-31.03-14.19-43.72-25.39-34.66-30.6-81.12-86.3-94.53-102.65l-.26-.32-.37-.18c-1.7-.89-7.62-3.81-12.15-4.14l-1.14-.08-.65,.95c-.48,.71-1,1.64-1.49,2.69l-.12,.26-.05,.29c-9.83,65.08-52.46,359-57.29,392.3l-.32,2.22-.2,.72-.04,.18c-.39,2.16-3.53,21.69,5.08,41.35,9.66,22.1,14.27,36.01,16.43,43.79,3.7,13.29,.6,27.53-8.3,38.1l-20.93,24.86,4.22,.06c95.63,1.31,397.43,2.09,491.12,2.31v31c-84.3-.2-478.4-1.17-518.7-2.89-11.63-.49-18.71-3.5-21.03-8.94-5-11.71,12.28-31.54,12.48-31.77l29.13-34.59c2.3-2.73,3.1-6.41,2.15-9.84-1.55-5.57-5.56-18.14-14.98-39.66-13.55-30.98-6.95-60.45-6.88-60.75l.03-.16c.49-3.38,48.99-337.93,57.97-396.79,6.51-17.68,17.52-26.64,32.71-26.64,16.2,0,31.94,10.26,33.97,11.63,3.59,4.42,57.39,70.56,94.66,103.45,9.64,8.51,20.86,15.02,33.35,19.34,29.1,10.08,45.36,24.56,45.48,24.66,6.98,6.73,18.57,28.8,12.41,64.22-4.25,24.45,2.47,40.02,8.85,48.77,6.45,8.84,13.75,12.65,15.09,13.3l97.85,71.88,.21,.16,.26,.1c.2,.07,19.71,7.79,19.71,32.13,0,22.98-34.26,25.81-36.94,25.99-5.81-.71-140.6-17.2-202.81-24.97-5.62-.7-11-1.06-16.02-1.06-26.34,0-40.73,9.61-48.18,17.66-8.15,8.83-9.94,17.63-10.01,18l-.42,2.14,86.17,9.23h.1s137.11,1.01,137.11,1.01h281c5.96,0,10.56-2.12,13.68-6.29,9.1-12.18,1.91-37.96,1.27-40.16-.27-1.5-2.83-14.6-12.91-29.78-17.5-26.35-43.66-37.77-62.53-42.7-33.08-8.66-53.56-21.27-64.91-30.33-12.28-9.79-16.81-17.64-16.87-17.75-33.72-57.56-19.8-87.38-2.18-125.13,3.43-7.37,6.99-14.98,10.3-23.1,19.47-47.69,35.7-60.55,35.8-60.62,13.04-9.14,25.49-13.77,36.99-13.77,31.68,0,46.86,35.54,47.01,35.9l.07,.15,44.07,70.12,109.98,179.97,114.36,195.09c2.28,3.89,4.91,7.81,8.06,12.01,3.76,5.02,9.79,15.09,7.85,26.21Z"/><path class="cls-4" d="M573.04,805.52v32.83s-.01,1.73-.01,1.73v.44c-129.41-.29-482.47-1.26-520.77-2.89-47-2-10-44-10-44l29.13-34.59c1.87-2.22,2.53-5.21,1.75-8.01-1.68-6.04-5.7-18.42-14.88-39.4-14-32-7-62-7-62,0,0,49-338,58-397,7.97-21.81,21.56-28.14,34.66-28.14,18.14,0,35.34,12.14,35.34,12.14,0,0,52.24,64.72,90.66,99.89l-24.93,24.62c-33.97-31.41-76.05-81.88-89.04-97.71-3.58-1.86-8.18-3.68-11.37-3.91-.34,.5-.8,1.28-1.33,2.41-10.29,68.1-56.87,389.41-57.35,392.72l-.28,1.91-.23,.84c-.41,2.29-3.44,21.07,4.94,40.2,9.71,22.2,14.35,36.21,16.53,44.05,3.88,13.94,.62,28.86-8.7,39.93l-18.21,21.63c92.71,1.27,379.25,2.05,493.09,2.31Z"/><path class="cls-7" d="M735.87,677.59c-9.41,12.6-23.66,19.54-40.11,19.54H414.5l-137-1h-1.74s-1.73-.2-1.73-.2l-84-9-24.51-2.62c-7.22-.78-12.23-7.57-10.84-14.7l4.73-24.19c.84-4.28,4.62-19.39,18.16-34.06,11.91-12.89,34.15-28.26,72.42-28.26,6.42,0,13.18,.43,20.11,1.3,53.32,6.67,160.04,19.74,193,23.78l-93.07-68.38c-5.84-3.34-15.5-10.08-24.04-21.79-10.16-13.91-20.95-38.02-14.71-73.88,3.68-21.2-1.43-31.95-3.38-35.1-4.06-3.08-15.42-10.92-32.8-16.94-16.57-5.73-31.51-14.41-44.39-25.78-1.88-1.66-3.78-3.38-5.72-5.17l24.93-24.62c1.34,1.22,2.65,2.41,3.95,3.55,9.53,8.41,20.66,14.79,32.68,18.95,29.89,10.35,46.21,25.11,46.21,25.11,0,0,21,20,13,66s23,60,23,60l98,72s21,8,21,34-39,28-39,28c0,0-139-17-203-25-5.69-.71-10.93-1.04-15.77-1.04-49.58,0-56.23,34.04-56.23,34.04l84,9,137,1h281c26,0,13-44,13-44,0,0-9-54-74-71s-83-49-83-49c-28.74-49.08-23.08-78.98-10.23-109.36l30.83,17.02c-3.31,8.27-5.6,15.91-6.2,23.61-.71,9.07,.14,24.15,15.53,50.58,.68,.93,4.34,5.66,12.51,11.57,8.7,6.29,24.34,15.16,49.42,21.72,44.25,11.57,68.84,37.04,81.67,56.37,11.75,17.7,16.11,33.69,17.51,40.22,3.92,14.04,9.82,45.33-6.93,67.73Z"/><path class="cls-3" d="M949.26,818.63c-30.65,20.16-56.94,22.11-65.96,22.11-2.17,0-3.34-.11-3.34-.11h-259.7s-12.19-.02-33.01-.07v-34.54l.22-.47c20.07,.05,32.09,.08,32.86,.08h262.06l.63,.11h.28c3.65,0,23.07-.79,46.72-16.35,.76-.49,1.38-.94,1.9-1.34-.12-.17-.24-.33-.37-.51-3.87-5.15-7.18-10.1-10.12-15.12l-114.2-194.81-109.72-179.54-43.88-69.81-1.81-2.88-.82-2.15c-1.64-3.51-8.91-15.73-16.6-15.73-4.01,0-9.83,2.36-16.19,6.53-2.75,3.04-13.19,15.83-26.05,47.33-3.62,8.87-7.34,16.86-10.95,24.58-3.34,7.16-6.38,13.68-8.85,19.85l-30.83-17.02c5.47-12.96,12.25-25.99,18.23-40.64,20-49,36.5-61.5,36.5-61.5,14.65-10.26,27.33-14.13,38.14-14.13,33.43,0,48.86,37.13,48.86,37.13l44,70,110,180,114.36,195.09c2.4,4.1,5.08,8.02,7.93,11.82,6.83,9.1,19.57,32.45-10.29,52.09Z"/><g id="Start_Line"><polygon points="558.97 857.62 569.67 846.58 572.4 849.2 564.33 857.54 572.66 865.61 570.03 868.32 558.97 857.62"/><polygon points="557.23 865.89 554.6 868.62 546.92 861.18 543.56 857.92 554.26 846.87 556.97 849.51 548.9 857.84 550.15 859.05 557.23 865.89"/><polygon points="541.82 866.19 539.18 868.91 537.57 867.36 528.13 858.21 538.84 847.17 541.55 849.8 533.49 858.13 540.81 865.21 541.82 866.19"/></g><g><polygon points="583.26 805.21 583.25 805.51 583.25 805.56 583.24 805.68 583.25 805.81 583.25 806.02 583.24 837.33 583.24 838.69 583.25 839.86 583.24 839.89 583.24 840.04 583.25 840.51 583.25 841.02 583.24 842.38 583.25 845.33 583.24 868.23 577.04 868.23 577.04 845.4 577.03 842.3 577.04 841.02 577.04 840.53 577.03 840 577.03 838.44 577.04 837.41 577.04 805.53 577.05 805.22 581.11 805.22 583.26 805.21"/><g><polygon points="583.26 805.21 583.25 805.51 583.25 805.56 583.24 805.68 583.25 805.81 583.25 806.02 583.24 837.33 583.24 838.69 583.25 839.86 583.24 839.89 583.24 840.04 583.25 840.51 583.25 841.02 583.24 842.38 583.25 845.33 583.24 868.23 577.04 868.23 577.04 845.4 577.03 842.3 577.04 841.02 577.04 840.53 577.03 840 577.03 838.44 577.04 837.41 577.04 805.53 577.05 805.22 581.11 805.22 583.26 805.21"/><path class="cls-1" d="M585.24,840.21v.26s.01-.29,.01-.29v.03Z"/></g></g><path d="M949.63,781.56l-64.98-112.51-87.04-149.06c-1.06-1.67-106.29-167.47-131.98-209.97-8.01-13.24-17.72-20.6-28.87-21.88-18.83-2.13-34.61,13.84-35.27,14.53l-.15,.16c-.58,.75-14.45,18.89-40.25,78.44-24.85,57.33-10.18,80.71-7.96,83.74,.75,2.18,5.21,14.25,15.46,27.52,10.25,13.28,28.45,30.22,56.97,35.5,41.97,7.77,65.93,27.73,72.73,37.19l.17,.21c.28,.3,28.49,30.96,29.46,71.68,.35,14.5-2.89,25.37-9.62,32.3-7.28,7.51-16.3,7.65-16.38,7.65H388.94l-121.89-1-81.89-9.99h-.14c-.06-.01-6.86-.44-9.41-4.91-1.84-3.25-1.14-8.02,2.08-14.17,.87-1.65,1.66-3.19,2.41-4.64,8.58-16.58,10.37-20.03,33.82-33.56,25.7-14.83,93.88,.07,94.57,.22l.17,.03c.9,.12,90.59,12.08,141.99,19,19.04,2.56,30.99,.23,35.51-6.95,1.95-3.1,2.16-6.72,1.61-10.1-.98-6.05-4.49-11.41-9.44-15.03l-88.24-64.52-.1-.07c-45.42-29.29-41.89-63.4-38.78-93.49,.48-4.61,.93-8.95,1.2-13.21,2.14-34.29-25.91-42.47-48.44-49.04-22.71-6.62-43.02-24.5-44.17-25.52-1.82-1.9-47.83-49.98-81.87-89.86-12.78-14.97-24.57-21.73-35.06-20.08-12.49,1.97-18.07,15.05-18.31,15.61l-.09,.22-11.04,70.26-22,150.01c-.17,1.19-17.09,119.48-24.99,163.93-6.6,37.1,.75,53.26,10.92,75.62,2.34,5.15,4.75,10.47,7.2,16.48,10.67,26.27,1.61,36.35-16.43,56.42-3.09,3.45-6.29,7.01-9.74,11.03-6.8,7.93-9.04,13.87-6.83,18.15,2.32,4.51,9.26,6.27,20.6,5.25,7.73-.69,15.94-.99,24.4-.87l130.34,1.77,198.01,1h148.11v-4s-148.1,0-148.1,0l-197.98-1-130.33-1.77c-1.2-.02-2.4-.03-3.59-.03-7.33,0-14.45,.31-21.21,.92-9.17,.82-15.25-.31-16.7-3.11-.76-1.48-.95-5.23,6.32-13.71,3.41-3.98,6.6-7.53,9.68-10.96,17.94-19.96,28.77-32.01,17.15-60.59-2.47-6.09-4.91-11.45-7.26-16.63-9.87-21.71-17-37.39-10.62-73.27,7.91-44.52,24.84-162.88,25.01-164.06l22-149.98,10.96-69.74c.7-1.55,5.6-11.49,15.14-12.99,9.01-1.41,19.58,4.88,31.4,18.72,34.64,40.57,81.61,89.59,82.08,90.08l.1,.1c.87,.79,21.62,19.39,45.78,26.44,22.27,6.5,47.51,13.86,45.56,44.96-.26,4.17-.7,8.47-1.17,13.03-3.08,29.68-6.9,66.62,40.54,97.24l88.54,64.74c4,2.92,6.84,7.26,7.6,12.15,.39,2.52,.23,5.16-1.17,7.36-3.57,5.64-14.49,7.41-31.58,5.11-50.71-6.83-138.68-18.56-141.92-18.99-3.9-.86-70.53-15.24-97.35,.24-24.47,14.11-26.56,18.16-35.37,35.19-.75,1.43-1.54,2.97-2.4,4.61-3.91,7.45-4.58,13.52-2,18.03,3.5,6.12,11.63,6.83,12.59,6.89l82.05,10.01,122.13,1h313c.43,0,10.69-.1,19.18-8.79,7.55-7.74,11.19-19.6,10.82-35.26-.99-41.54-28.36-71.95-30.45-74.22-1.64-2.23-22.17-28.88-75.19-38.7-52.15-9.65-69.29-60.14-69.46-60.65l-.12-.36-.22-.28c-.05-.05-4.26-5.46-5.36-17.9-1.03-11.57,.5-31.74,13.63-62.05,24.64-56.85,38.61-76.04,39.68-77.48,1.2-1.19,15.62-15.12,31.88-13.25,9.85,1.12,18.56,7.85,25.9,19.98,25.71,42.52,130.96,208.36,131.98,209.97l87,148.99,64.98,112.5c1.16,2.02,1.36,4.42,.53,6.59-2.62,6.91-10.17,19.2-31.22,23.96-30.78,6.95-35.12,6.95-107.56,6.95h-220.67v4h220.67c72.86,0,77.22,0,108.44-7.05,22.88-5.16,31.17-18.78,34.08-26.44,1.26-3.3,.96-6.95-.81-10.01Z"/><path class="cls-5" d="M703.38,715.54h-3s.04-9.01,.04-9.01h3s-.04,9.01-.04,9.01Zm-6-.03h-3s.04-9.01,.04-9.01h3s-.04,9.01-.04,9.01Zm-6-.03h-3s.04-9.01,.04-9.01h3s-.04,9.01-.04,9.01Zm-6-.03h-3s.04-9.01,.04-9.01h3s-.04,9.01-.04,9.01Zm-6-.03h-3s.04-9.01,.04-9.01h3s-.04,9.01-.04,9.01Zm-6-.03h-3s.04-9.01,.04-9.01h3s-.04,9.01-.04,9.01Zm-6-.03h-3s.04-9.01,.04-9.01h3s-.04,9.01-.04,9.01Zm-6-.03h-3s.04-9.01,.04-9.01h3s-.04,9.01-.04,9.01Zm-6-.03h-3s.04-9.01,.04-9.01h3s-.04,9.01-.04,9.01Zm-6-.03h-3s.04-9.01,.04-9.01h3s-.04,9.01-.04,9.01Zm-6-.03h-3s.04-9.01,.04-9.01h3s-.04,9.01-.04,9.01Zm-6-.03h-3s.04-9.01,.04-9.01h3s-.04,9.01-.04,9.01Zm-6-.03h-3s.04-9.01,.04-9.01h3s-.04,9.01-.04,9.01Zm-6-.03h-3s.04-9.01,.04-9.01h3s-.04,9.01-.04,9.01Zm-6-.03h-3s.04-9.01,.04-9.01h3s-.04,9.01-.04,9.01Zm-6-.03h-3s.04-9.01,.04-9.01h3s-.04,9.01-.04,9.01Zm-6-.03h-3s.04-9.01,.04-9.01h3s-.04,9.01-.04,9.01Zm-6-.03h-3s.04-9.01,.04-9.01h3s-.04,9.01-.04,9.01Zm-6-.03h-3s.04-9.01,.04-9.01h3s-.04,9.01-.04,9.01Zm-6-.03h-3s.04-9.01,.04-9.01h3s-.04,9.01-.04,9.01Zm-6-.03h-3s.04-9.01,.04-9.01h3s-.04,9.01-.04,9.01Zm-6-.03h-3s.04-9.01,.04-9.01h3s-.04,9.01-.04,9.01Zm-6-.03h-3s.04-9.01,.04-9.01h3s-.04,9.01-.04,9.01Zm-6-.03h-3s.04-9.01,.04-9.01h3s-.04,9.01-.04,9.01Zm-6-.03h-3s.04-9.01,.04-9.01h3s-.04,9.01-.04,9.01Zm-6-.03h-3s.04-9.01,.04-9.01h3s-.04,9.01-.04,9.01Zm-6-.03h-3s.04-9.01,.04-9.01h3s-.04,9.01-.04,9.01Zm-6-.03h-3s.04-9.01,.04-9.01h3s-.04,9.01-.04,9.01Zm-6-.03h-3s.04-9.01,.04-9.01h3s-.04,9.01-.04,9.01Zm-6-.03h-3s.04-9.01,.04-9.01h3s-.04,9.01-.04,9.01Zm-6-.03h-3s.04-9.01,.04-9.01h3s-.04,9.01-.04,9.01Zm-6-.03h-3s.04-9.01,.04-9.01h3s-.04,9.01-.04,9.01Zm-6-.03h-3s.04-9.01,.04-9.01h3s-.04,9.01-.04,9.01Zm-6-.03h-3s.04-9.01,.04-9.01h3s-.04,9.01-.04,9.01Zm-6-.03h-3s.04-9.01,.04-9.01h3s-.04,9.01-.04,9.01Zm-6-.03h-3s.04-9.01,.04-9.01h3s-.04,9.01-.04,9.01Zm-6-.03h-3s.04-9.01,.04-9.01h3s-.04,9.01-.04,9.01Zm-6-.03h-3s.04-9.01,.04-9.01h3s-.04,9.01-.04,9.01Zm-6-.03h-3s.04-9.01,.04-9.01h3s-.04,9.01-.04,9.01Zm-6-.03h-3s.04-9.01,.04-9.01h3s-.04,9.01-.04,9.01Zm-6-.03h-3s.04-9.01,.04-9.01h3s-.04,9.01-.04,9.01Zm-6-.03h-3s.04-9.01,.04-9.01h3s-.04,9.01-.04,9.01Zm-6-.03h-3s.04-9.01,.04-9.01h3s-.04,9.01-.04,9.01Zm-6-.03h-3s.04-9.01,.04-9.01h3s-.04,9.01-.04,9.01Zm-6-.03h-3s.04-9.01,.04-9.01h3s-.04,9.01-.04,9.01Zm-6-.03h-3s.04-9.01,.04-9.01h3s-.04,9.01-.04,9.01Zm-6-.03h-3s.04-9.01,.04-9.01h3s-.04,9.01-.04,9.01Zm-6-.03h-3s.04-9.01,.04-9.01h3s-.04,9.01-.04,9.01Zm-6-.03h-3s.04-9.01,.04-9.01h3s-.04,9.01-.04,9.01Zm-6-.03h-3s.04-9.01,.04-9.01h3s-.04,9.01-.04,9.01Zm-6-.03h-3s.04-9.01,.04-9.01h3s-.04,9.01-.04,9.01Zm-6-.03h-3s.04-9.01,.04-9.01h3s-.04,9.01-.04,9.01Zm-6-.03h-3s.04-9.01,.04-9.01h3s-.04,9.01-.04,9.01Zm-6-.03h-3s.04-9.01,.04-9.01h3s-.04,9.01-.04,9.01Zm-6-.03h-3s.04-9.01,.04-9.01h3s-.04,9.01-.04,9.01Zm-6-.03h-3s.04-9.01,.04-9.01h3s-.04,9.01-.04,9.01Zm-6-.03h-3s.04-9.01,.04-9.01h3s-.04,9.01-.04,9.01Zm-6-.03h-3s.04-9.01,.04-9.01h3s-.04,9.01-.04,9.01Zm-6-.03h-3s.04-9.01,.04-9.01h3s-.04,9.01-.04,9.01Zm-6-.03h-3s.04-9.01,.04-9.01h3s-.04,9.01-.04,9.01Zm-6-.03h-3s.04-9.01,.04-9.01h3s-.04,9.01-.04,9.01Zm-6-.03h-3s.04-9.01,.04-9.01h3s-.04,9.01-.04,9.01Zm-6-.03h-3s.04-9.01,.04-9.01h3s-.04,9.01-.04,9.01Zm-6-.03h-3s.04-9.01,.04-9.01h3s-.04,9.01-.04,9.01Zm-6-.03h-3s.04-9.01,.04-9.01h3s-.04,9.01-.04,9.01Zm-6-.03h-3s.04-9.01,.04-9.01h3s-.04,9.01-.04,9.01Zm-6-.03h-3s.04-9.01,.04-9.01h3s-.04,9.01-.04,9.01Zm-6-.03h-3s.04-9.01,.04-9.01h3s-.04,9.01-.04,9.01Zm-6-.03h-3s.04-9.01,.04-9.01h3s-.04,9.01-.04,9.01Zm-6-.03h-3s.04-9.01,.04-9.01h3s-.04,9.01-.04,9.01Zm-6-.03h-3s.04-9.01,.04-9.01h3s-.04,9.01-.04,9.01Zm-6-.03h-3s.04-9.01,.04-9.01h3s-.04,9.01-.04,9.01Zm-6-.03l-1.93-.03-1.51-.16,.92-8.95,1.29,.13h1.26s-.04,9.01-.04,9.01Zm-6.42-.49l-2.98-.31,.92-8.95,2.98,.31-.92,8.95Zm-5.97-.62l-2.98-.31,.92-8.95,2.98,.31-.92,8.95Zm-5.97-.62l-2.98-.31,.92-8.95,2.98,.31-.92,8.95Zm-5.97-.62l-2.98-.31,.92-8.95,2.98,.31-.92,8.95Zm-5.97-.62l-2.98-.31,.92-8.95,2.98,.31-.92,8.95Zm-5.97-.62l-2.98-.31,.92-8.95,2.98,.31-.92,8.95Zm-5.97-.62l-2.98-.31,.92-8.95,2.98,.31-.92,8.95Zm-5.97-.62l-2.98-.31,.92-8.95,2.98,.31-.92,8.95Zm-5.97-.62l-2.98-.31,.92-8.95,2.98,.31-.92,8.95Zm-5.97-.62l-2.98-.31,.92-8.95,2.98,.31-.92,8.95Zm-5.97-.62l-2.98-.31,.92-8.95,2.98,.31-.92,8.95Zm-5.97-.62l-2.98-.31,.92-8.95,2.98,.31-.92,8.95Zm-5.97-.62l-2.98-.31,.92-8.95,2.98,.31-.92,8.95Zm-5.97-.62l-2.98-.31,.92-8.95,2.98,.31-.92,8.95Zm-5.97-.62l-2.98-.31,.92-8.95,2.98,.31-.92,8.95Zm-5.97-.62l-2.98-.31,.92-8.95,2.98,.31-.92,8.95Z"/><path class="cls-5" d="M518.42,857.06l-.02-9h.02v9Zm-3.06-.03l-3-.03,.08-9,3,.03-.08,9Zm-6-.05l-3-.03,.08-9,3,.03-.08,9Zm-6-.05l-3-.03,.08-9,3,.03-.08,9Zm-6-.05l-3-.03,.08-9,3,.03-.08,9Zm-6-.05l-3-.03,.08-9,3,.03-.08,9Zm-6-.05l-3-.03,.08-9,3,.03-.08,9Zm-6-.05l-3-.03,.08-9,3,.03-.08,9Zm-6-.05l-3-.03,.08-9,3,.03-.08,9Zm-6-.05l-3-.03,.08-9,3,.03-.08,9Zm-6-.05l-3-.03,.08-9,3,.03-.08,9Zm-6-.05l-3-.03,.08-9,3,.03-.08,9Zm-6-.05l-3-.03,.08-9,3,.03-.08,9Zm-6-.05l-3-.03,.08-9,3,.03-.08,9Zm-6-.05l-3-.03,.08-9,3,.03-.08,9Zm-6-.05l-3-.03,.08-9,3,.03-.08,9Zm-6-.05l-3-.03,.08-9,3,.03-.08,9Zm-6-.05l-3-.03,.08-9,3,.03-.08,9Zm-6-.05l-3-.03,.08-9,3,.03-.08,9Zm-6-.05l-3-.03,.08-9,3,.03-.08,9Zm-6-.05l-3-.03,.08-9,3,.03-.08,9Zm-6-.05l-3-.03,.08-9,3,.03-.08,9Zm-6-.05l-3-.03,.08-9,3,.03-.08,9Zm-6-.05l-3-.03,.08-9,3,.03-.08,9Zm-6-.05l-3-.03,.08-9,3,.03-.08,9Zm-6-.05l-3-.03,.08-9,3,.03-.08,9Zm-6-.05l-3-.03,.08-9,3,.03-.08,9Zm-6-.05l-3-.03,.08-9,3,.03-.08,9Zm-6-.05l-3-.03,.08-9,3,.03-.08,9Zm-6-.05l-3-.03,.08-9,3,.03-.08,9Zm-6-.05l-3-.03,.08-9,3,.03-.08,9Zm-6-.05l-3-.03,.08-9,3,.03-.08,9Zm-6-.05l-3-.03,.08-9,3,.03-.08,9Zm-6-.05l-3-.03,.08-9,3,.03-.08,9Zm-6-.05l-3-.03,.08-9,3,.03-.08,9Zm-6-.05l-3-.03,.08-9,3,.03-.08,9Zm-6-.05l-3-.03,.08-9,3,.03-.08,9Zm-6-.05l-3-.03,.08-9,3,.03-.08,9Zm-6-.05l-3-.03,.08-9,3,.03-.08,9Zm-6-.05l-3-.03,.08-9,3,.03-.08,9Zm-6-.05l-3-.03,.08-9,3,.03-.08,9Zm-6-.05l-3-.03,.08-9,3,.03-.08,9Zm-6-.05l-3-.03,.08-9,3,.03-.08,9Zm-6-.05l-3-.03,.08-9,3,.03-.08,9Zm-6-.05l-3-.03,.08-9,3,.03-.08,9Zm-6-.05l-3-.03,.08-9,3,.03-.08,9Zm-6-.05l-3-.03,.08-9,3,.03-.08,9Zm-6-.05l-3-.03,.08-9,3,.03-.08,9Zm-6-.05l-3-.03,.08-9,3,.03-.08,9Zm-6-.05l-3-.03,.08-9,3,.03-.08,9Zm-6-.05l-3-.03,.08-9,3,.03-.08,9Zm-6-.05l-3-.03,.08-9,3,.03-.08,9Zm-6-.05l-3-.03,.08-9,3,.03-.08,9Zm-6-.05l-3-.03,.08-9,3,.03-.08,9Zm-6-.05l-3-.03,.08-9,3,.03-.08,9Zm-6-.05l-3-.03,.08-9,3,.03-.08,9Zm-6-.05l-3-.03,.08-9,3,.03-.08,9Zm-6-.05l-3-.03,.08-9,3,.03-.08,9Zm-6-.05l-3-.03,.08-9,3,.03-.08,9Zm-6-.05l-3-.03,.08-9,3,.03-.08,9Zm-6-.05l-3-.03,.08-9,3,.03-.08,9Zm-6-.05l-3-.03,.08-9,3,.03-.08,9Zm-6-.05l-3-.03,.08-9,3,.03-.08,9Zm-6-.05l-3-.03,.08-9,3,.03-.08,9Zm-6-.05l-3-.03,.08-9,3,.03-.08,9Zm-6-.05l-3-.03,.08-9,3,.03-.08,9Zm-6-.05l-3-.03,.08-9,3,.03-.08,9Zm-6-.05l-3-.03,.08-9,3,.03-.08,9Zm-6-.05l-3-.03,.08-9,3,.03-.08,9Zm-6-.05l-3-.03,.08-9,3,.03-.08,9Zm-6-.05l-3-.03,.08-9,3,.03-.08,9Zm-6-.05l-3-.03,.08-9,3,.03-.08,9Zm-6-.05l-3-.03,.08-9,3,.03-.08,9Zm-6-.05l-3-.03,.08-9,3,.03-.08,9Zm-6-.05l-3-.03,.08-9,3,.03-.08,9Zm-6-.05l-3-.03,.08-9,3,.03-.08,9Zm-6-.05l-3-.03,.08-9,3,.03-.08,9Zm-6-.05l-3-.03,.08-9,3,.03-.08,9Z"/><path class="cls-5" d="M587.43,857.06l-.03-9h3s.03,8.99,.03,8.99h-3Zm6,0l-.03-9h3s.03,8.99,.03,8.99h-3Zm6,0l-.03-9h3s.03,8.99,.03,8.99h-3Zm6,0l-.03-9h3s.03,8.99,.03,8.99h-3Zm6,0l-.03-9h3s.03,8.99,.03,8.99h-3Zm6,0l-.03-9h3s.03,8.99,.03,8.99h-3Zm6,0l-.03-9h3s.03,8.99,.03,8.99h-3Zm6,0l-.03-9h3s.03,8.99,.03,8.99h-3Zm6,0l-.03-9h3s.03,8.99,.03,8.99h-3Zm6,0l-.03-9h3s.03,8.99,.03,8.99h-3Zm6,0l-.03-9h3s.03,8.99,.03,8.99h-3Zm6,0l-.03-9h3s.03,8.99,.03,8.99h-3Zm6,0l-.03-9h3s.03,8.99,.03,8.99h-3Zm6,0l-.03-9h3s.03,8.99,.03,8.99h-3Zm6,0l-.03-9h3s.03,8.99,.03,8.99h-3Zm6,0l-.03-9h3s.03,8.99,.03,8.99h-3Zm6,0l-.03-9h3s.03,8.99,.03,8.99h-3Zm6,0l-.03-9h3s.03,8.99,.03,8.99h-3Zm6,0l-.03-9h3s.03,8.99,.03,8.99h-3Zm6,0l-.03-9h3s.03,8.99,.03,8.99h-3Zm6,0l-.03-9h3s.03,8.99,.03,8.99h-3Zm6,0l-.03-9h3s.03,8.99,.03,8.99h-3Zm6,0l-.03-9h3s.03,8.99,.03,8.99h-3Zm6,0l-.03-9h3s.03,8.99,.03,8.99h-3Zm6,0l-.03-9h3s.03,8.99,.03,8.99h-3Zm6,0l-.03-9h3s.03,8.99,.03,8.99h-3Zm6,0l-.03-9h3s.03,8.99,.03,8.99h-3Zm6,0l-.03-9h3s.03,8.99,.03,8.99h-3Zm6,0l-.03-9h3s.03,8.99,.03,8.99h-3Zm6,0l-.03-9h3s.03,8.99,.03,8.99h-3Zm6,0l-.03-9h3s.03,8.99,.03,8.99h-3Zm6,0l-.03-9h3s.03,8.99,.03,8.99h-3Zm6,0l-.03-9h3s.03,8.99,.03,8.99h-3Zm6,0l-.03-9h3s.03,8.99,.03,8.99h-3Zm6,0l-.03-9h3s.03,8.99,.03,8.99h-3Zm6,0l-.03-9h3s.03,8.99,.03,8.99h-3Zm6,0l-.03-9h3s.03,8.99,.03,8.99h-3Zm6,0l-.03-9h3s.03,8.99,.03,8.99h-3Zm6,0l-.03-9h3s.03,8.99,.03,8.99h-3Zm6,0l-.03-9h3s.03,8.99,.03,8.99h-3Zm6,0l-.03-9h3s.03,8.99,.03,8.99h-3Zm6,0l-.03-9h3s.03,8.99,.03,8.99h-3Zm6,0l-.03-9h3s.03,8.99,.03,8.99h-3Zm6,0l-.03-9h3s.03,8.99,.03,8.99h-3Zm6,0l-.03-9h3s.03,8.99,.03,8.99h-3Zm6,0l-.03-9h3s.03,8.99,.03,8.99h-3Zm6,0l-.03-9h3s.03,8.99,.03,8.99h-3Zm6,0l-.03-9h3s.03,8.99,.03,8.99h-3Zm6,0l-.03-9h3s.03,8.99,.03,8.99h-3Zm6,0l-.03-9h3s.03,8.99,.03,8.99h-3Zm6,0l-.03-9h3s.03,8.99,.03,8.99h-3Zm6,0l-.03-9h3s.03,8.99,.03,8.99h-3Z"/><circle class="cls-6" cx="941.92" cy="772.06" r="10"/><circle class="cls-6" cx="108.92" cy="820.06" r="10"/><circle class="cls-6" cx="242.92" cy="600.06" r="10"/><g id="_1"><g><path d="M20.92,847.2c-6,0-10.88-4.88-10.88-10.88s4.88-10.88,10.88-10.88,10.88,4.88,10.88,10.88-4.88,10.88-10.88,10.88Z"/><path d="M20.92,826.44c5.46,0,9.88,4.42,9.88,9.88s-4.42,9.88-9.88,9.88-9.88-4.42-9.88-9.88,4.42-9.88,9.88-9.88m0-2c-6.55,0-11.88,5.33-11.88,11.88s5.33,11.88,11.88,11.88,11.88-5.33,11.88-11.88-5.33-11.88-11.88-11.88h0Z"/></g><text class="cls-2" transform="translate(13.18 840.23)"><tspan x="0" y="0">01</tspan></text></g><g id="_1-2"><g><path d="M119.92,767.2c-6,0-10.88-4.88-10.88-10.88s4.88-10.88,10.88-10.88,10.88,4.88,10.88,10.88-4.88,10.88-10.88,10.88Z"/><path d="M119.92,746.44c5.46,0,9.88,4.42,9.88,9.88s-4.42,9.88-9.88,9.88-9.88-4.42-9.88-9.88,4.42-9.88,9.88-9.88m0-2c-6.55,0-11.88,5.33-11.88,11.88s5.33,11.88,11.88,11.88,11.88-5.33,11.88-11.88-5.33-11.88-11.88-11.88h0Z"/></g><text class="cls-2" transform="translate(112.18 760.23)"><tspan x="0" y="0">02</tspan></text></g><g id="_1-3"><g><path d="M37.92,689.2c-6,0-10.88-4.88-10.88-10.88s4.88-10.88,10.88-10.88,10.88,4.88,10.88,10.88-4.88,10.88-10.88,10.88Z"/><path d="M37.92,668.44c5.46,0,9.88,4.42,9.88,9.88s-4.42,9.88-9.88,9.88-9.88-4.42-9.88-9.88,4.42-9.88,9.88-9.88m0-2c-6.55,0-11.88,5.33-11.88,11.88s5.33,11.88,11.88,11.88,11.88-5.33,11.88-11.88-5.33-11.88-11.88-11.88h0Z"/></g><text class="cls-2" transform="translate(30.18 682.23)"><tspan x="0" y="0">03</tspan></text></g><g id="_1-4"><g><path d="M137.92,224.2c-6,0-10.88-4.88-10.88-10.88s4.88-10.88,10.88-10.88,10.88,4.88,10.88,10.88-4.88,10.88-10.88,10.88Z"/><path d="M137.92,203.44c5.46,0,9.88,4.42,9.88,9.88s-4.42,9.88-9.88,9.88-9.88-4.42-9.88-9.88,4.42-9.88,9.88-9.88m0-2c-6.55,0-11.88,5.33-11.88,11.88s5.33,11.88,11.88,11.88,11.88-5.33,11.88-11.88-5.33-11.88-11.88-11.88h0Z"/></g><text class="cls-2" transform="translate(130.18 217.23)"><tspan x="0" y="0">04</tspan></text></g><g id="_1-5"><g><path d="M270.92,406.2c-6,0-10.88-4.88-10.88-10.88s4.88-10.88,10.88-10.88,10.88,4.88,10.88,10.88-4.88,10.88-10.88,10.88Z"/><path d="M270.92,385.44c5.46,0,9.88,4.42,9.88,9.88s-4.42,9.88-9.88,9.88-9.88-4.42-9.88-9.88,4.42-9.88,9.88-9.88m0-2c-6.55,0-11.88,5.33-11.88,11.88s5.33,11.88,11.88,11.88,11.88-5.33,11.88-11.88-5.33-11.88-11.88-11.88h0Z"/></g><text class="cls-2" transform="translate(263.18 399.23)"><tspan x="0" y="0">05</tspan></text></g><g id="_1-6"><g><path d="M368.92,396.2c-6,0-10.88-4.88-10.88-10.88s4.88-10.88,10.88-10.88,10.88,4.88,10.88,10.88-4.88,10.88-10.88,10.88Z"/><path d="M368.92,375.44c5.46,0,9.88,4.42,9.88,9.88s-4.42,9.88-9.88,9.88-9.88-4.42-9.88-9.88,4.42-9.88,9.88-9.88m0-2c-6.55,0-11.88,5.33-11.88,11.88s5.33,11.88,11.88,11.88,11.88-5.33,11.88-11.88-5.33-11.88-11.88-11.88h0Z"/></g><text class="cls-2" transform="translate(361.18 389.23)"><tspan x="0" y="0">06</tspan></text></g><g id="_1-7"><g><path d="M324.92,514.2c-6,0-10.88-4.88-10.88-10.88s4.88-10.88,10.88-10.88,10.88,4.88,10.88,10.88-4.88,10.88-10.88,10.88Z"/><path d="M324.92,493.44c5.46,0,9.88,4.42,9.88,9.88s-4.42,9.88-9.88,9.88-9.88-4.42-9.88-9.88,4.42-9.88,9.88-9.88m0-2c-6.55,0-11.88,5.33-11.88,11.88s5.33,11.88,11.88,11.88,11.88-5.33,11.88-11.88-5.33-11.88-11.88-11.88h0Z"/></g><text class="cls-2" transform="translate(317.18 507.23)"><tspan x="0" y="0">07</tspan></text></g><g id="_1-8"><g><path d="M518.92,634.2c-6,0-10.88-4.88-10.88-10.88s4.88-10.88,10.88-10.88,10.88,4.88,10.88,10.88-4.88,10.88-10.88,10.88Z"/><path d="M518.92,613.44c5.46,0,9.88,4.42,9.88,9.88s-4.42,9.88-9.88,9.88-9.88-4.42-9.88-9.88,4.42-9.88,9.88-9.88m0-2c-6.55,0-11.88,5.33-11.88,11.88s5.33,11.88,11.88,11.88,11.88-5.33,11.88-11.88-5.33-11.88-11.88-11.88h0Z"/></g><text class="cls-2" transform="translate(511.18 627.23)"><tspan x="0" y="0">08</tspan></text></g><g id="_1-9"><g><path d="M207.92,588.2c-6,0-10.88-4.88-10.88-10.88s4.88-10.88,10.88-10.88,10.88,4.88,10.88,10.88-4.88,10.88-10.88,10.88Z"/><path d="M207.92,567.44c5.46,0,9.88,4.42,9.88,9.88s-4.42,9.88-9.88,9.88-9.88-4.42-9.88-9.88,4.42-9.88,9.88-9.88m0-2c-6.55,0-11.88,5.33-11.88,11.88s5.33,11.88,11.88,11.88,11.88-5.33,11.88-11.88-5.33-11.88-11.88-11.88h0Z"/></g><text class="cls-2" transform="translate(200.18 581.23)"><tspan x="0" y="0">09</tspan></text></g><g id="_1-10"><g><path d="M147.92,698.2c-6,0-10.88-4.88-10.88-10.88s4.88-10.88,10.88-10.88,10.88,4.88,10.88,10.88-4.88,10.88-10.88,10.88Z"/><path d="M147.92,677.44c5.46,0,9.88,4.42,9.88,9.88s-4.42,9.88-9.88,9.88-9.88-4.42-9.88-9.88,4.42-9.88,9.88-9.88m0-2c-6.55,0-11.88,5.33-11.88,11.88s5.33,11.88,11.88,11.88,11.88-5.33,11.88-11.88-5.33-11.88-11.88-11.88h0Z"/></g><text class="cls-2" transform="translate(140.18 691.23)"><tspan x="0" y="0">10</tspan></text></g><g id="_1-11"><g><path d="M754.92,677.2c-6,0-10.88-4.88-10.88-10.88s4.88-10.88,10.88-10.88,10.88,4.88,10.88,10.88-4.88,10.88-10.88,10.88Z"/><path d="M754.92,656.44c5.46,0,9.88,4.42,9.88,9.88s-4.42,9.88-9.88,9.88-9.88-4.42-9.88-9.88,4.42-9.88,9.88-9.88m0-2c-6.55,0-11.88,5.33-11.88,11.88s5.33,11.88,11.88,11.88,11.88-5.33,11.88-11.88-5.33-11.88-11.88-11.88h0Z"/></g><text class="cls-2" transform="translate(747.18 670.23)"><tspan x="0" y="0">11</tspan></text></g><g id="_1-12"><g><path d="M526.92,485.2c-6,0-10.88-4.88-10.88-10.88s4.88-10.88,10.88-10.88,10.88,4.88,10.88,10.88-4.88,10.88-10.88,10.88Z"/><path d="M526.92,464.44c5.46,0,9.88,4.42,9.88,9.88s-4.42,9.88-9.88,9.88-9.88-4.42-9.88-9.88,4.42-9.88,9.88-9.88m0-2c-6.55,0-11.88,5.33-11.88,11.88s5.33,11.88,11.88,11.88,11.88-5.33,11.88-11.88-5.33-11.88-11.88-11.88h0Z"/></g><text class="cls-2" transform="translate(519.18 478.23)"><tspan x="0" y="0">12</tspan></text></g><g id="_1-13"><g><path d="M603.92,279.2c-6,0-10.88-4.88-10.88-10.88s4.88-10.88,10.88-10.88,10.88,4.88,10.88,10.88-4.88,10.88-10.88,10.88Z"/><path d="M603.92,258.44c5.46,0,9.88,4.42,9.88,9.88s-4.42,9.88-9.88,9.88-9.88-4.42-9.88-9.88,4.42-9.88,9.88-9.88m0-2c-6.55,0-11.88,5.33-11.88,11.88s5.33,11.88,11.88,11.88,11.88-5.33,11.88-11.88-5.33-11.88-11.88-11.88h0Z"/></g><text class="cls-2" transform="translate(596.18 272.23)"><tspan x="0" y="0">13</tspan></text></g><g id="_1-14"><g><path d="M978.92,811.2c-6,0-10.88-4.88-10.88-10.88s4.88-10.88,10.88-10.88,10.88,4.88,10.88,10.88-4.88,10.88-10.88,10.88Z"/><path d="M978.92,790.44c5.46,0,9.88,4.42,9.88,9.88s-4.42,9.88-9.88,9.88-9.88-4.42-9.88-9.88,4.42-9.88,9.88-9.88m0-2c-6.55,0-11.88,5.33-11.88,11.88s5.33,11.88,11.88,11.88,11.88-5.33,11.88-11.88-5.33-11.88-11.88-11.88h0Z"/></g><text class="cls-2" transform="translate(971.18 804.23)"><tspan x="0" y="0">14</tspan></text></g><g id="_1-15"><g><path d="M919.92,857.2c-6,0-10.88-4.88-10.88-10.88s4.88-10.88,10.88-10.88,10.88,4.88,10.88,10.88-4.88,10.88-10.88,10.88Z"/><path d="M919.92,836.44c5.46,0,9.88,4.42,9.88,9.88s-4.42,9.88-9.88,9.88-9.88-4.42-9.88-9.88,4.42-9.88,9.88-9.88m0-2c-6.55,0-11.88,5.33-11.88,11.88s5.33,11.88,11.88,11.88,11.88-5.33,11.88-11.88-5.33-11.88-11.88-11.88h0Z"/></g><text class="cls-2" transform="translate(912.18 850.23)"><tspan x="0" y="0">15</tspan></text></g><g id="Legend"><circle cx="90.11" cy="153.18" r="13"/><g><path d="M114.62,152.36v-2.36h8.94v2.36h-8.94Zm0,4.02v-2.38h8.94v2.38h-8.94Z"/><path d="M136.11,159.53h-3.47v-10.02h-3.14v-2.84h9.75v2.84h-3.13v10.02Z"/><path d="M152.01,146.67v7.74c0,1.08-.21,2.02-.62,2.81-.41,.79-1.03,1.41-1.85,1.84-.82,.43-1.85,.65-3.09,.65-1.77,0-3.12-.45-4.06-1.36-.93-.91-1.4-2.19-1.4-3.85v-7.82h3.49v7.55c0,.91,.17,1.57,.51,1.98,.34,.41,.84,.62,1.5,.62,.47,0,.86-.09,1.16-.27s.52-.46,.66-.85c.14-.39,.21-.89,.21-1.5v-7.53h3.47Z"/><path d="M158.93,146.67c1.17,0,2.14,.14,2.91,.43,.77,.28,1.36,.71,1.75,1.27,.39,.56,.58,1.26,.58,2.1,0,.52-.09,1-.26,1.43s-.43,.81-.75,1.15c-.33,.34-.71,.63-1.17,.88l3.75,5.6h-3.94l-2.73-4.68h-.88v4.68h-3.47v-12.86h4.21Zm-.05,2.63h-.69v2.94h.65c.53,0,.97-.12,1.31-.35,.34-.23,.51-.65,.51-1.26,0-.42-.14-.74-.42-.98s-.74-.35-1.36-.35Z"/><path d="M179.15,159.53h-4.56l-4.7-9.06h-.08c.03,.28,.06,.61,.08,.99s.04,.78,.06,1.18,.03,.76,.03,1.09v5.8h-3.08v-12.86h4.54l4.68,8.94h.05c-.02-.28-.04-.61-.05-.98-.02-.37-.03-.75-.05-1.13-.01-.38-.02-.72-.02-1.01v-5.81h3.1v12.86Z"/><path d="M198.85,159.53h-4.56l-4.7-9.06h-.08c.03,.28,.06,.61,.08,.99s.04,.78,.06,1.18,.03,.76,.03,1.09v5.8h-3.08v-12.86h4.54l4.68,8.94h.05c-.02-.28-.04-.61-.05-.98-.02-.37-.03-.75-.05-1.13-.01-.38-.02-.72-.02-1.01v-5.81h3.1v12.86Z"/><path d="M212.57,146.67v7.74c0,1.08-.21,2.02-.62,2.81-.41,.79-1.03,1.41-1.85,1.84-.82,.43-1.85,.65-3.09,.65-1.77,0-3.12-.45-4.06-1.36-.93-.91-1.4-2.19-1.4-3.85v-7.82h3.49v7.55c0,.91,.17,1.57,.51,1.98,.34,.41,.84,.62,1.5,.62,.47,0,.86-.09,1.16-.27s.52-.46,.66-.85c.14-.39,.21-.89,.21-1.5v-7.53h3.47Z"/><path d="M220.87,159.53l-2.63-9.26h-.08c.02,.24,.05,.57,.07,.98,.03,.41,.05,.85,.08,1.33s.04,.93,.04,1.37v5.59h-3.08v-12.86h4.63l2.68,9.13h.07l2.63-9.13h4.64v12.86h-3.19v-5.64c0-.4,0-.84,.02-1.31s.03-.91,.05-1.32c.02-.41,.04-.74,.06-.98h-.08l-2.59,9.25h-3.31Z"/><path d="M232.69,146.67h4.49c1.86,0,3.18,.28,3.98,.83,.79,.55,1.19,1.34,1.19,2.38,0,.56-.1,1.04-.3,1.43-.2,.39-.46,.7-.77,.93-.31,.23-.62,.38-.95,.47v.09c.35,.09,.7,.23,1.05,.44s.64,.5,.87,.91c.23,.4,.35,.95,.35,1.63,0,.78-.2,1.45-.59,2.01-.4,.56-.96,1-1.69,1.3-.73,.3-1.6,.45-2.61,.45h-5.01v-12.86Zm3.47,4.93h1.05c.58,0,.98-.12,1.21-.36,.23-.24,.35-.53,.35-.87s-.13-.62-.4-.8c-.27-.19-.68-.28-1.24-.28h-.98v2.3Zm0,2.54v2.7h1.22c.6,0,1.03-.13,1.27-.39,.24-.26,.36-.59,.36-.98,0-.23-.05-.44-.15-.65-.1-.2-.28-.37-.52-.49s-.59-.19-1.02-.19h-1.15Z"/><path d="M252.46,159.53h-7.64v-12.86h7.64v2.79h-4.16v2.02h3.85v2.79h-3.85v2.43h4.16v2.83Z"/><path d="M258.93,146.67c1.17,0,2.14,.14,2.91,.43,.77,.28,1.36,.71,1.75,1.27,.39,.56,.58,1.26,.58,2.1,0,.52-.09,1-.26,1.43s-.43,.81-.75,1.15c-.33,.34-.71,.63-1.17,.88l3.75,5.6h-3.94l-2.73-4.68h-.88v4.68h-3.47v-12.86h4.21Zm-.05,2.63h-.69v2.94h.65c.53,0,.97-.12,1.31-.35,.34-.23,.51-.65,.51-1.26,0-.42-.14-.74-.42-.98s-.74-.35-1.36-.35Z"/><path d="M275.32,155.62c0,.7-.18,1.36-.53,1.98s-.9,1.13-1.64,1.52c-.74,.39-1.7,.58-2.87,.58-.59,0-1.1-.03-1.54-.08-.44-.05-.85-.14-1.24-.26-.38-.12-.78-.28-1.19-.47v-3.1c.7,.35,1.4,.62,2.11,.8,.71,.18,1.35,.28,1.93,.28,.35,0,.63-.04,.85-.12,.22-.08,.38-.19,.49-.34,.11-.14,.16-.31,.16-.5,0-.22-.08-.41-.23-.57s-.4-.32-.74-.49c-.34-.17-.79-.38-1.35-.63-.47-.22-.9-.45-1.29-.69-.38-.23-.71-.5-.99-.81-.27-.3-.48-.66-.63-1.06-.15-.4-.22-.88-.22-1.43,0-.83,.2-1.52,.61-2.08,.41-.56,.98-.98,1.71-1.26,.73-.28,1.57-.42,2.53-.42,.84,0,1.59,.09,2.26,.28,.67,.19,1.27,.4,1.81,.64l-1.06,2.68c-.55-.25-1.09-.45-1.63-.6-.53-.15-1.03-.22-1.49-.22-.3,0-.54,.04-.73,.11-.19,.07-.33,.17-.42,.29s-.14,.26-.14,.42c0,.2,.08,.38,.23,.54,.16,.16,.42,.33,.78,.51,.37,.19,.87,.42,1.5,.72,.63,.28,1.16,.58,1.6,.91,.44,.33,.78,.72,1.01,1.17,.23,.45,.35,1.02,.35,1.68Z"/></g><g><circle class="cls-5" cx="90.11" cy="73.18" r="13"/><path d="M90.11,87.18c-7.72,0-14-6.28-14-14s6.28-14,14-14,14,6.28,14,14-6.28,14-14,14Zm0-26c-6.62,0-12,5.38-12,12s5.38,12,12,12,12-5.38,12-12-5.38-12-12-12Z"/></g><g><path d="M114.62,72.36v-2.36h8.94v2.36h-8.94Zm0,4.02v-2.38h8.94v2.38h-8.94Z"/><path d="M141.35,72.82c0,1.5-.28,2.74-.84,3.73-.56,.99-1.34,1.73-2.35,2.23-1.01,.5-2.2,.74-3.57,.74h-4.16v-12.86h4.45c1.38,0,2.56,.24,3.52,.71s1.69,1.17,2.2,2.08c.5,.92,.75,2.04,.75,3.36Zm-3.61,.12c0-.78-.1-1.43-.31-1.94s-.52-.9-.94-1.15c-.42-.25-.94-.38-1.57-.38h-1.01v7.2h.77c1.06,0,1.83-.31,2.32-.92,.49-.61,.74-1.55,.74-2.81Z"/><path d="M147.87,66.67c1.17,0,2.14,.14,2.91,.43,.77,.28,1.36,.71,1.75,1.27,.39,.56,.58,1.26,.58,2.1,0,.52-.09,1-.26,1.43s-.43,.81-.75,1.15c-.33,.34-.71,.63-1.17,.88l3.75,5.6h-3.94l-2.73-4.68h-.88v4.68h-3.47v-12.86h4.21Zm-.05,2.63h-.69v2.94h.65c.53,0,.97-.12,1.31-.35,.34-.23,.51-.65,.51-1.26,0-.42-.14-.74-.42-.98s-.74-.35-1.36-.35Z"/><path d="M164.26,75.62c0,.7-.18,1.36-.53,1.98s-.9,1.13-1.64,1.52c-.74,.39-1.7,.58-2.87,.58-.59,0-1.1-.03-1.54-.08-.44-.05-.85-.14-1.24-.26-.38-.12-.78-.28-1.19-.47v-3.1c.7,.35,1.4,.62,2.11,.8,.71,.18,1.35,.28,1.93,.28,.35,0,.63-.04,.85-.12,.22-.08,.38-.19,.49-.34,.11-.14,.16-.31,.16-.5,0-.22-.08-.41-.23-.57s-.4-.32-.74-.49c-.34-.17-.79-.38-1.35-.63-.47-.22-.9-.45-1.29-.69-.38-.23-.71-.5-.99-.81-.27-.3-.48-.66-.63-1.06-.15-.4-.22-.88-.22-1.43,0-.83,.2-1.52,.61-2.08,.41-.56,.98-.98,1.71-1.26,.73-.28,1.57-.42,2.53-.42,.84,0,1.59,.09,2.26,.28,.67,.19,1.27,.4,1.81,.64l-1.06,2.68c-.55-.25-1.09-.45-1.63-.6-.53-.15-1.03-.22-1.49-.22-.3,0-.54,.04-.73,.11-.19,.07-.33,.17-.42,.29s-.14,.26-.14,.42c0,.2,.08,.38,.23,.54,.16,.16,.42,.33,.78,.51,.37,.19,.87,.42,1.5,.72,.63,.28,1.16,.58,1.6,.91,.44,.33,.78,.72,1.01,1.17,.23,.45,.35,1.02,.35,1.68Z"/><path d="M181.84,72.82c0,1.5-.28,2.74-.84,3.73-.56,.99-1.34,1.73-2.35,2.23-1.01,.5-2.2,.74-3.57,.74h-4.16v-12.86h4.45c1.38,0,2.56,.24,3.52,.71s1.69,1.17,2.2,2.08c.5,.92,.75,2.04,.75,3.36Zm-3.61,.12c0-.78-.1-1.43-.31-1.94s-.52-.9-.94-1.15c-.42-.25-.94-.38-1.57-.38h-1.01v7.2h.77c1.06,0,1.83-.31,2.32-.92,.49-.61,.74-1.55,.74-2.81Z"/><path d="M191.78,79.53h-7.64v-12.86h7.64v2.79h-4.16v2.02h3.85v2.79h-3.85v2.43h4.16v2.83Z"/><path d="M199.71,79.53h-3.47v-10.02h-3.14v-2.84h9.75v2.84h-3.13v10.02Z"/><path d="M212.31,79.53h-7.64v-12.86h7.64v2.79h-4.16v2.02h3.85v2.79h-3.85v2.43h4.16v2.83Z"/><path d="M220.29,69.33c-.41,0-.78,.09-1.1,.26s-.6,.42-.83,.75c-.23,.33-.4,.73-.52,1.2-.12,.47-.18,1.01-.18,1.61,0,.81,.1,1.49,.31,2.04,.21,.55,.52,.97,.94,1.25,.42,.28,.95,.42,1.58,.42,.58,0,1.13-.08,1.66-.24,.53-.16,1.07-.35,1.61-.57v2.94c-.57,.25-1.15,.43-1.75,.55-.59,.11-1.23,.17-1.9,.17-1.4,0-2.54-.28-3.43-.83-.89-.55-1.54-1.32-1.96-2.31-.42-.99-.63-2.13-.63-3.43,0-.97,.14-1.86,.41-2.67,.27-.81,.67-1.51,1.2-2.11,.53-.6,1.18-1.06,1.96-1.38,.78-.33,1.67-.49,2.67-.49,.62,0,1.28,.07,1.97,.22,.69,.14,1.36,.37,2.02,.69l-1.06,2.74c-.47-.22-.94-.41-1.42-.56-.48-.15-.99-.23-1.53-.23Z"/><path d="M231.93,79.53h-3.47v-10.02h-3.14v-2.84h9.75v2.84h-3.13v10.02Z"/><path d="M236.9,79.53v-12.86h3.49v12.86h-3.49Z"/><path d="M255.21,73.08c0,.99-.12,1.89-.36,2.7-.24,.81-.61,1.51-1.11,2.1-.5,.59-1.15,1.04-1.94,1.35-.79,.31-1.74,.47-2.84,.47s-2.01-.16-2.8-.47c-.79-.31-1.44-.76-1.95-1.35-.51-.58-.89-1.28-1.13-2.1-.25-.81-.37-1.72-.37-2.73,0-1.34,.22-2.5,.66-3.49,.44-.99,1.13-1.75,2.05-2.3s2.11-.81,3.55-.81,2.66,.27,3.58,.82,1.59,1.31,2.02,2.3c.43,.99,.64,2.15,.64,3.49Zm-8.85,0c0,.77,.09,1.44,.26,2s.46,.99,.84,1.28c.38,.3,.88,.45,1.5,.45s1.15-.15,1.53-.45c.38-.3,.65-.73,.82-1.28s.25-1.22,.25-2c0-1.16-.19-2.08-.58-2.75s-1.05-1.01-2-1.01c-.63,0-1.13,.15-1.52,.46-.38,.31-.66,.74-.83,1.3s-.26,1.23-.26,2.01Z"/><path d="M269.77,79.53h-4.56l-4.7-9.06h-.08c.03,.28,.06,.61,.08,.99s.04,.78,.06,1.18,.03,.76,.03,1.09v5.8h-3.08v-12.86h4.54l4.68,8.94h.05c-.02-.28-.04-.61-.05-.98-.02-.37-.03-.75-.05-1.13-.01-.38-.02-.72-.02-1.01v-5.81h3.1v12.86Z"/><path d="M286.4,79.53h-10.02v-2.15l5.57-7.91h-5.44v-2.81h9.75v2.14l-5.57,7.92h5.71v2.81Z"/><path d="M300.27,73.08c0,.99-.12,1.89-.36,2.7-.24,.81-.61,1.51-1.11,2.1-.5,.59-1.15,1.04-1.94,1.35-.79,.31-1.74,.47-2.84,.47s-2.01-.16-2.8-.47c-.79-.31-1.44-.76-1.95-1.35-.51-.58-.89-1.28-1.13-2.1-.25-.81-.37-1.72-.37-2.73,0-1.34,.22-2.5,.66-3.49,.44-.99,1.13-1.75,2.05-2.3s2.11-.81,3.55-.81,2.66,.27,3.58,.82,1.59,1.31,2.02,2.3c.43,.99,.64,2.15,.64,3.49Zm-8.85,0c0,.77,.09,1.44,.26,2s.46,.99,.84,1.28c.38,.3,.88,.45,1.5,.45s1.15-.15,1.53-.45c.38-.3,.65-.73,.82-1.28s.25-1.22,.25-2c0-1.16-.19-2.08-.58-2.75s-1.05-1.01-2-1.01c-.63,0-1.13,.15-1.52,.46-.38,.31-.66,.74-.83,1.3s-.26,1.23-.26,2.01Z"/><path d="M314.84,79.53h-4.56l-4.7-9.06h-.08c.03,.28,.06,.61,.08,.99s.04,.78,.06,1.18,.03,.76,.03,1.09v5.8h-3.08v-12.86h4.54l4.68,8.94h.05c-.02-.28-.04-.61-.05-.98-.02-.37-.03-.75-.05-1.13-.01-.38-.02-.72-.02-1.01v-5.81h3.1v12.86Z"/><path d="M325.25,79.53h-7.64v-12.86h7.64v2.79h-4.16v2.02h3.85v2.79h-3.85v2.43h4.16v2.83Z"/></g><g><path d="M114.62,111.36v-2.36h8.94v2.36h-8.94Zm0,4.02v-2.38h8.94v2.38h-8.94Z"/><path d="M141.35,111.82c0,1.5-.28,2.74-.84,3.73-.56,.99-1.34,1.73-2.35,2.23-1.01,.5-2.2,.74-3.57,.74h-4.16v-12.86h4.45c1.38,0,2.56,.24,3.52,.71s1.69,1.17,2.2,2.08c.5,.92,.75,2.04,.75,3.36Zm-3.61,.12c0-.78-.1-1.43-.31-1.94s-.52-.9-.94-1.15c-.42-.25-.94-.38-1.57-.38h-1.01v7.2h.77c1.06,0,1.83-.31,2.32-.92,.49-.61,.74-1.55,.74-2.81Z"/><path d="M147.87,105.67c1.17,0,2.14,.14,2.91,.43,.77,.28,1.36,.71,1.75,1.27,.39,.56,.58,1.26,.58,2.1,0,.52-.09,1-.26,1.43s-.43,.81-.75,1.15c-.33,.34-.71,.63-1.17,.88l3.75,5.6h-3.94l-2.73-4.68h-.88v4.68h-3.47v-12.86h4.21Zm-.05,2.63h-.69v2.94h.65c.53,0,.97-.12,1.31-.35,.34-.23,.51-.65,.51-1.26,0-.42-.14-.74-.42-.98s-.74-.35-1.36-.35Z"/><path d="M164.26,114.62c0,.7-.18,1.36-.53,1.98s-.9,1.13-1.64,1.52c-.74,.39-1.7,.58-2.87,.58-.59,0-1.1-.03-1.54-.08-.44-.05-.85-.14-1.24-.26-.38-.12-.78-.28-1.19-.47v-3.1c.7,.35,1.4,.62,2.11,.8,.71,.18,1.35,.28,1.93,.28,.35,0,.63-.04,.85-.12,.22-.08,.38-.19,.49-.34,.11-.14,.16-.31,.16-.5,0-.22-.08-.41-.23-.57s-.4-.32-.74-.49c-.34-.17-.79-.38-1.35-.63-.47-.22-.9-.45-1.29-.69-.38-.23-.71-.5-.99-.81-.27-.3-.48-.66-.63-1.06-.15-.4-.22-.88-.22-1.43,0-.83,.2-1.52,.61-2.08,.41-.56,.98-.98,1.71-1.26,.73-.28,1.57-.42,2.53-.42,.84,0,1.59,.09,2.26,.28,.67,.19,1.27,.4,1.81,.64l-1.06,2.68c-.55-.25-1.09-.45-1.63-.6-.53-.15-1.03-.22-1.49-.22-.3,0-.54,.04-.73,.11-.19,.07-.33,.17-.42,.29s-.14,.26-.14,.42c0,.2,.08,.38,.23,.54,.16,.16,.42,.33,.78,.51,.37,.19,.87,.42,1.5,.72,.63,.28,1.16,.58,1.6,.91,.44,.33,.78,.72,1.01,1.17,.23,.45,.35,1.02,.35,1.68Z"/><path d="M180.09,118.53h-10.02v-2.15l5.57-7.91h-5.44v-2.81h9.75v2.14l-5.57,7.92h5.71v2.81Z"/><path d="M193.96,112.08c0,.99-.12,1.89-.36,2.7-.24,.81-.61,1.51-1.11,2.1-.5,.59-1.15,1.04-1.94,1.35-.79,.31-1.74,.47-2.84,.47s-2.01-.16-2.8-.47c-.79-.31-1.44-.76-1.95-1.35-.51-.58-.89-1.28-1.13-2.1-.25-.81-.37-1.72-.37-2.73,0-1.34,.22-2.5,.66-3.49,.44-.99,1.13-1.75,2.05-2.3s2.11-.81,3.55-.81,2.66,.27,3.58,.82,1.59,1.31,2.02,2.3c.43,.99,.64,2.15,.64,3.49Zm-8.85,0c0,.77,.09,1.44,.26,2s.46,.99,.84,1.28c.38,.3,.88,.45,1.5,.45s1.15-.15,1.53-.45c.38-.3,.65-.73,.82-1.28s.25-1.22,.25-2c0-1.16-.19-2.08-.58-2.75s-1.05-1.01-2-1.01c-.63,0-1.13,.15-1.52,.46-.38,.31-.66,.74-.83,1.3s-.26,1.23-.26,2.01Z"/><path d="M208.53,118.53h-4.56l-4.7-9.06h-.08c.03,.28,.06,.61,.08,.99s.04,.78,.06,1.18,.03,.76,.03,1.09v5.8h-3.08v-12.86h4.54l4.68,8.94h.05c-.02-.28-.04-.61-.05-.98-.02-.37-.03-.75-.05-1.13-.01-.38-.02-.72-.02-1.01v-5.81h3.1v12.86Z"/><path d="M218.95,118.53h-7.64v-12.86h7.64v2.79h-4.16v2.02h3.85v2.79h-3.85v2.43h4.16v2.83Z"/><path d="M229.61,114.62c0,.7-.18,1.36-.53,1.98s-.9,1.13-1.64,1.52c-.74,.39-1.7,.58-2.87,.58-.59,0-1.1-.03-1.54-.08-.44-.05-.85-.14-1.24-.26-.38-.12-.78-.28-1.19-.47v-3.1c.7,.35,1.4,.62,2.11,.8,.71,.18,1.35,.28,1.93,.28,.35,0,.63-.04,.85-.12,.22-.08,.38-.19,.49-.34,.11-.14,.16-.31,.16-.5,0-.22-.08-.41-.23-.57s-.4-.32-.74-.49c-.34-.17-.79-.38-1.35-.63-.47-.22-.9-.45-1.29-.69-.38-.23-.71-.5-.99-.81-.27-.3-.48-.66-.63-1.06-.15-.4-.22-.88-.22-1.43,0-.83,.2-1.52,.61-2.08,.41-.56,.98-.98,1.71-1.26,.73-.28,1.57-.42,2.53-.42,.84,0,1.59,.09,2.26,.28,.67,.19,1.27,.4,1.81,.64l-1.06,2.68c-.55-.25-1.09-.45-1.63-.6-.53-.15-1.03-.22-1.49-.22-.3,0-.54,.04-.73,.11-.19,.07-.33,.17-.42,.29s-.14,.26-.14,.42c0,.2,.08,.38,.23,.54,.16,.16,.42,.33,.78,.51,.37,.19,.87,.42,1.5,.72,.63,.28,1.16,.58,1.6,.91,.44,.33,.78,.72,1.01,1.17,.23,.45,.35,1.02,.35,1.68Z"/></g><path class="cls-5" d="M103.11,124.18h-2.5v-23h2.5v23Zm-5.5,0h-3v-23h3v23Zm-6,0h-3v-23h3v23Zm-6,0h-3v-23h3v23Zm-6,0h-3v-23h3v23Z"/><g><path class="cls-1" d="M89.59,151.96c0,.84-.07,1.59-.2,2.26s-.35,1.23-.64,1.69-.68,.82-1.17,1.06c-.48,.24-1.08,.37-1.78,.37-.88,0-1.59-.21-2.15-.64-.56-.43-.97-1.04-1.24-1.84-.26-.8-.4-1.76-.4-2.89s.12-2.1,.36-2.91c.24-.81,.64-1.42,1.19-1.85,.55-.43,1.3-.65,2.23-.65,.88,0,1.59,.21,2.15,.64,.56,.43,.97,1.04,1.24,1.85,.27,.81,.4,1.78,.4,2.92Zm-4.75,0c0,.68,.02,1.26,.08,1.72,.05,.46,.15,.81,.29,1.04,.14,.23,.34,.35,.61,.35s.46-.12,.6-.35,.23-.58,.29-1.04,.08-1.04,.08-1.72-.03-1.27-.08-1.74-.15-.81-.29-1.05-.34-.35-.6-.35-.46,.12-.61,.35c-.14,.24-.24,.59-.29,1.05-.05,.46-.08,1.04-.08,1.74Z"/><path class="cls-1" d="M96.86,157.19h-2.88v-5.71c0-.26,0-.54,.01-.85,0-.31,.02-.59,.03-.84-.12,.15-.24,.27-.35,.38-.11,.11-.21,.2-.31,.29l-1.19,.98-1.47-1.81,3.6-2.93h2.55v10.48Z"/></g></g></svg>