<?xml version="1.0" encoding="UTF-8"?><svg id="Baku_City_Azerbaijan_Detailed" xmlns="http://www.w3.org/2000/svg" viewBox="0 0 1000 1000"><defs><style>.cls-1,.cls-2{fill:#fff;}.cls-3{fill:#fae44a;}.cls-4{fill:#db4a25;}.cls-5{fill:#1bce20;}.cls-6{fill:#75e5fd;}.cls-2{font-family:OpenSans-ExtraBold, 'Open Sans';font-size:14px;font-weight:700;}</style></defs><path class="cls-1" d="m287.5,556.88l4.41,1.21c-.28.69-.76,1.28-1.39,1.68l-3.54-.97.52-1.92Z"/><path class="cls-1" d="m470.08,603.24c-.08.16-.2.37-.37.58.11-.19.23-.38.37-.58Z"/><path class="cls-1" d="m470.31,602.89c-.07.1-.14.21-.21.31.1-.22.14-.36.14-.36l.07.05Z"/><polygon class="cls-1" points="772.76 746.27 760.08 769.37 745.94 795.13 740.58 792.19 754.83 766.23 767.4 743.33 772.76 746.27"/><polygon points="772.76 746.27 760.08 769.37 745.94 795.13 740.58 792.19 754.83 766.23 767.4 743.33 772.76 746.27"/><polygon points="778.8 750.05 774.99 751.16 778.39 762.84 766.7 766.25 767.81 770.06 783.32 765.55 778.8 750.05"/><polygon points="793.02 757.79 789.21 758.9 792.61 770.59 780.92 773.99 782.03 777.81 797.54 773.29 793.02 757.79"/><polygon points="807.25 765.54 803.43 766.65 806.83 778.34 795.15 781.74 796.26 785.55 811.76 781.04 807.25 765.54"/><path class="cls-4" d="m949.86,762.07c-.08.1-.15.22-.22.34l-40.9,74.93-10,17s-15.65,28-55.33,0c-27.1-19.13-70.23-43.86-94.83-57.61l.88-1.6,5.27-9.61,1.94-3.54,5.03-9.17,1.02-1.85c48.45,28.96,96.42,57.66,108.26,64.73,1.52.91,3.48.38,4.35-1.16l51.97-91.66c.82-1.43.39-3.24-.97-4.16l-25.59-17.37c-74-46-111.07-65.15-111.07-65.15l-138.32-76.41c-1.46-.81-3.31-.33-4.2,1.09l-25.85,41.16c-.1.16-.19.33-.26.51-16.88,42.82-40.23,25.19-42.04,23.74-.08-.07-.17-.13-.27-.19-40.03-25-73.08-40.44-89.59-46.89l5.61-10.72,1.86-3.55,6.12-11.68c.63.33,1.26.68,1.9,1.03.07.04.14.07.22.11,2.88,1.24,62.38,27.95,82,44.09,1.58,1.3,3.94.81,4.84-1.02,6.31-12.74,26.98-54.05,32.05-59.12,5.17-5.17,20.14-21.43,47.84-1.12.11.08.21.15.32.21,4.83,2.56,115.44,61.45,180.91,98.76,64.3,36.65,94.51,60.24,96.79,62.04.09.07.17.13.27.18,1.79,1.08,21.79,14.02-.01,43.66Z"/><path class="cls-3" d="m752.53,764.86l-.75,1.37-.19.35-5.17,9.41-1.94,3.53-6.29,11.45c-5.32-2.94-8.45-4.63-8.45-4.63l-207-122s-53-29-106-42c-50.65-12.42-110.5-30.5-115.76-30.42-.23,0-11.23,1.57-29.91,11.21-18.84,9.71-59.83-6.29-113.6-15.57-.49-.09-2.23-.72-4.49-.08l-59.14,10.84c-.06.01-.12.03-.19.04-2.17.55-37.41,6.48-40.17-35.8-.02-.24,0-.49-.05-.73l-.85-4.76,12.21-2.18,3.94-.7,12.8-2.28,2.72,15.91c.3,1.78,2.04,2.94,3.8,2.54l62.08-13.89c1.69-.38,3.43-.47,5.15-.27,33.99,3.96,85.53,16.75,85.53,16.75,7.71,1.77,23.53-3.06,35.73-7.55,0,0,.03-.02.1-.04,1.2-.44,2.36-.88,3.47-1.3,4.12-1.37,11.19-3.18,17.81-2.26l151.75,41.7c50.67,15.25,63.92,20.86,65.06,21.35.05.03.08.04.08.04,51.44,29.11,131.45,76.71,132.93,77.45.95.47,51.65,30.75,104.79,62.52Z"/><path class="cls-6" d="m502.73,573.25l-13.59,25.95c-2.94-1.15-5.35-2.02-7.19-2.6-2.59-1.12-5.01-1.25-7.21-.38-2.01.8-3.45,5.28-4.43,6.67-.07.1-.14.21-.21.31-.01.01-.01.02-.02.04-.08.16-.2.37-.37.58-.83,1.03-2.83,2.35-7.47,1.02v.04s-163.22-44.84-163.22-44.84c-6.4-3.09-2.36-13.81-1.93-15.22.04-.14.07-.22.07-.22,3.36-10,4.62-14,7.4-18.9,0,0,17.85-25.54,18.75-26.72,3.93-5.14,16.76-15.44-.57-28.64-21-16,4-37,4-37l-18.49-9.84c-107.21-58.93-111.21-50.93-112.66-50.99-.39,0-51.78,18.48-64.83,23.09-2.29.81-4.37,2.12-6.08,3.85-28.78,29.18-49.7,44.26-57.3,49.36-1.9,1.28-2.88,3.54-2.5,5.79l16.65,97.31-28.95,5.16-17.84-99.73s-3.98-17.91,8.91-26.93c.06-.05.12-.09.17-.14l57.75-48.79c.11-.09.2-.18.29-.28,1.34-1.48,13.42-14.23,38.75-20.82.08-.03.17-.05.26-.09l43.87-15.95,11.85-4.58c.26-.1.53-.17.81-.2,1.72-.17,8.21-.5,14.93,3.53.26.16.54.28.83.35,3.51.87,29.66,8.2,104.58,48.9,0,0,1.93,1.14,5.08,3.12,0,0,24.36,10.42,39.12,24.33,4.3,4.05-1.08,12.78-3.7,20.05,0,0-5,9-9,13,0,0,16.72,18.48,14.66,40.58-.27,2.96-1.29,5.8-2.81,8.35-2.77,4.62-10.23,11.03-17.21,21.01-5.64,8.06-5.64,11.06-6.51,14.06-.01.05.03.12,0,.17-1.31,1.77-.44,4.3,1.67,4.91,0,0,113.2,32.33,114.2,31.92,3.27-1.32,5.39-3.58,9.48-7.26,7.28-6.52,21.19-3.46,40.01,6.67Z"/><path d="m199.32,341.47c2.4,0,7.15.43,11.97,3.32.44.27.92.47,1.4.59,2.72.67,28.7,7.75,104.07,48.7.26.15,2.13,1.27,5,3.07l.13.08.14.06c.24.1,24.21,10.45,38.54,23.95,2.35,2.21.04,7.66-2.2,12.92-.68,1.6-1.38,3.25-1.96,4.84-.63,1.12-5.09,8.93-8.59,12.42l-1.35,1.35,1.28,1.41c.16.18,16.11,18.07,14.15,39.06-.23,2.55-1.09,5.07-2.53,7.5-1.16,1.93-3.38,4.4-5.96,7.25-3.25,3.6-7.29,8.09-11.17,13.64-4.93,7.04-5.76,10.47-6.43,13.23-.12.5-.23.97-.37,1.42v.03c-.74,1.27-.9,2.81-.42,4.22.54,1.6,1.84,2.84,3.47,3.31,33.69,9.62,112.31,32,114.72,32h.42s.36-.15.36-.15c3.08-1.24,5.25-3.23,8.25-5.97.57-.52,1.17-1.07,1.82-1.66,2.2-1.97,5.11-2.92,8.92-2.92,6.95,0,16.65,3.32,28.83,9.88.49.25.97.52,1.46.79l.37.2c.09.05.18.09.27.14l.05.02.05.03.05.02c.59.26,61.69,27.48,81.52,43.8.93.77,2.1,1.19,3.3,1.19,1.97,0,3.74-1.1,4.61-2.86,12.77-25.79,27.8-54.72,31.67-58.59.85-.85,1.71-1.93,2.63-3.07,3.43-4.28,9.7-7.61,17.95-7.61,7.06,0,14.03,1.95,24.68,9.76.16.11.33.23.56.36,1.09.58,114.15,60.71,180.86,98.73,63.52,36.21,93.35,59.35,96.55,61.88.14.11.31.23.51.34.91.56,7.06,4.6,8.68,12.73,1.6,8-1.53,17.42-9.29,27.98-.16.2-.27.4-.35.54v.02s-.03.03-.03.03l-40.88,74.9-10,17c-.26.47-6.65,11.43-21.61,11.43-9.1,0-19.47-4.06-30.83-12.08-26.69-18.84-69.18-43.25-93.28-56.75l12.19-22.21c25.56,15.28,50.87,30.42,70.68,42.26,17.26,10.32,30.35,18.15,35.8,21.4.8.48,1.71.73,2.63.73,1.85,0,3.57-1,4.48-2.62l51.97-91.65c1.33-2.32.63-5.31-1.58-6.81l-25.59-17.37-.03-.02-.03-.02c-72.37-44.99-109.96-64.58-111.18-65.21l-138.3-76.4c-.76-.42-1.62-.64-2.49-.64-1.79,0-3.43.91-4.38,2.42l-25.85,41.16c-.18.28-.32.56-.42.84-7.04,17.85-16.23,27.29-26.59,27.29-6.6,0-11.65-3.82-12.32-4.35-.2-.17-.38-.28-.49-.34-37.6-23.48-71.1-39.71-89.92-47.06-2.91-1.14-5.34-2.02-7.22-2.61-1.67-.71-3.32-1.07-4.91-1.07-1.29,0-2.54.24-3.74.71-2.12.84-3.42,3.55-4.47,5.72-.32.67-.66,1.37-.86,1.66-.04.06-.09.13-.13.19h0s-.17.18-.17.18l-.11.29c-.03.06-.07.11-.1.16-.44.55-1.27.84-2.4.84-.85,0-1.85-.16-2.96-.48l-2-.53v.02s-161.05-44.24-161.05-44.24c-3.47-1.85-2.4-7.71-.88-12.34.06-.18.11-.32.15-.46.01-.04.02-.07.02-.07,0,0,0,0,0,0v-.03s.02-.03.02-.03l.65-1.93c2.88-8.58,4.08-12.17,6.55-16.54,5-7.15,17.93-25.64,18.65-26.57.43-.56.99-1.21,1.64-1.96,3.05-3.51,7.65-8.83,6.96-15.52-.5-4.81-3.71-9.51-9.55-13.96-4.93-3.76-7.49-8.09-7.61-12.89-.27-10.8,11.56-20.89,11.68-20.99l2.27-1.91-2.61-1.39-18.47-9.83c-61.38-33.74-99.91-51.57-111.42-51.57-1.3,0-2.03.22-2.42.34l-.09.03c-.97.22-5.4,1.79-37.29,13.21-11.7,4.19-22.75,8.14-27.91,9.96-2.57.91-4.93,2.41-6.84,4.33-28.59,28.99-49.38,44-56.99,49.11-2.55,1.72-3.86,4.77-3.35,7.79l16.65,97.31,2.72,15.91c.42,2.48,2.55,4.29,5.07,4.29.38,0,.77-.04,1.14-.13l62.08-13.89c.96-.22,1.94-.32,2.93-.32.52,0,1.04.03,1.55.09,33.47,3.9,84.77,16.58,85.31,16.71,1.23.28,2.67.43,4.28.43,7.11,0,18.08-2.71,32.59-8.05l.22-.08h.01c1.06-.39,2.08-.78,3.07-1.16l.25-.09c3.3-1.1,8.29-2.4,13.36-2.4,1.18,0,2.31.07,3.38.21l151.57,41.65c48.95,14.73,62.98,20.48,64.77,21.24.01,0,.03.01.04.02,38.7,21.9,92.89,53.87,118.94,69.23,10.09,5.95,13.6,8.02,13.98,8.21,1.33.72,38.86,23.11,103.03,61.47l-12.45,22.66c-3.95-2.18-6.37-3.49-6.68-3.65l-206.97-121.98-.03-.02-.03-.02c-.53-.29-53.84-29.28-106.48-42.19-25.44-6.24-53.05-13.86-75.23-19.99-24.96-6.89-38.11-10.49-41.01-10.49-1.14,0-12.8,2.13-30.83,11.43-3.65,1.88-8.42,2.8-14.56,2.8-12.75,0-30.21-4.01-50.43-8.66-14.13-3.25-30.15-6.93-47.33-9.9-.04,0-.1-.02-.17-.04-.5-.13-1.44-.36-2.66-.36-.84,0-1.67.11-2.48.33l-59.02,10.82c-.06.01-.13.02-.2.04h-.05s-.1.03-.1.03c-.44.11-2.74.52-6.01.52-10.99,0-29.71-4.48-31.68-34.55,0-.05,0-.1,0-.14,0-.2-.01-.48-.07-.79l-.85-4.74-17.84-99.73v-.04s-.02-.04-.02-.04c-.04-.17-3.55-16.7,8.1-24.86l.08-.05.06-.05c.07-.06.14-.12.21-.18l57.69-48.74c.18-.15.34-.3.51-.49,1.26-1.39,13.03-13.79,37.77-20.23l.09-.02.1-.04c.1-.03.19-.06.29-.1l43.86-15.95,11.85-4.58c.11-.04.21-.07.29-.08.36-.04.95-.08,1.72-.08m556.27,427.54c.6.36,1.21.72,1.81,1.09l-12.25,22.32-1.85-1.02,12.29-22.39M199.32,339.47c-.86,0-1.52.05-1.92.09-.28.03-.55.1-.81.2l-11.85,4.58-43.87,15.95c-.09.04-.18.06-.26.09-25.33,6.59-37.41,19.34-38.75,20.82-.09.1-.18.19-.29.28l-57.75,48.79c-.05.05-.11.09-.17.14-12.89,9.02-8.91,26.93-8.91,26.93l17.84,99.73.85,4.76c.05.24.03.49.05.73,2.09,32,22.79,36.39,33.67,36.39,3.49,0,5.97-.45,6.5-.58.07-.01.13-.03.19-.04l59.14-10.84c.74-.21,1.43-.28,2.04-.28,1.23,0,2.12.3,2.45.36,41.98,7.25,76.18,18.59,98.12,18.59,6.16,0,11.35-.89,15.48-3.02,18.68-9.64,29.68-11.21,29.91-11.21.01,0,.02,0,.04,0,5.49,0,65.19,18.03,115.72,30.42,53,13,106,42,106,42l207,122s3.13,1.69,8.45,4.63l14.34-26.11c-53.14-31.77-103.84-62.05-104.79-62.52-1.48-.74-81.49-48.34-132.93-77.45,0,0-.03-.01-.08-.04-1.14-.49-14.39-6.1-65.06-21.35l-151.75-41.7c-1.25-.17-2.52-.25-3.78-.25-5.41,0-10.69,1.4-14.03,2.51-1.11.42-2.27.86-3.47,1.3-.07.02-.1.04-.1.04-10.43,3.84-23.5,7.92-31.9,7.92-1.43,0-2.72-.12-3.83-.37,0,0-51.54-12.79-85.53-16.75-.59-.07-1.19-.1-1.78-.1-1.13,0-2.26.12-3.37.37l-62.08,13.89c-.24.05-.47.08-.7.08-1.5,0-2.84-1.08-3.1-2.62l-2.72-15.91-16.65-97.31c-.38-2.25.6-4.51,2.5-5.79,7.6-5.1,28.52-20.18,57.3-49.36,1.71-1.73,3.79-3.04,6.08-3.85,13.05-4.61,64.44-23.09,64.83-23.09,0,0,.01,0,.02,0,.3,0,.74-.33,2.19-.33,5.53,0,25.88,4.84,110.45,51.32l18.49,9.84s-25,21-4,37c17.33,13.2,4.5,23.5.57,28.64-.9,1.18-18.75,26.72-18.75,26.72-2.78,4.9-4.04,8.9-7.4,18.9,0,0-.03.08-.07.22-.43,1.41-4.47,12.13,1.93,15.22l163.21,44.84v-.04c1.41.4,2.57.56,3.53.56,2.22,0,3.37-.86,3.95-1.58.17-.21.29-.42.37-.58,0-.02,0-.03.02-.04.07-.1.14-.21.21-.31.98-1.39,2.42-5.87,4.43-6.67.96-.38,1.96-.57,3-.57,1.34,0,2.75.32,4.21.95,1.84.58,4.25,1.45,7.19,2.6,16.51,6.45,49.56,21.89,89.59,46.89.1.06.19.12.27.19.84.67,6.3,4.81,13.59,4.81,8.46,0,19.38-5.57,28.45-28.55.07-.18.16-.35.26-.51l25.85-41.16c.6-.95,1.63-1.48,2.68-1.48.52,0,1.04.13,1.52.39l138.32,76.41s37.07,19.15,111.07,65.15l25.59,17.37c1.36.92,1.79,2.73.97,4.16l-51.97,91.66c-.58,1.03-1.65,1.61-2.74,1.61-.55,0-1.1-.14-1.61-.45-11.84-7.07-59.81-35.77-108.26-64.73l-14.14,25.77c24.6,13.75,67.73,38.48,94.83,57.61,13.23,9.33,23.78,12.44,31.98,12.44,16.4,0,23.35-12.44,23.35-12.44l10-17,40.9-74.93c.07-.12.14-.24.22-.34,21.8-29.64,1.8-42.58,0-43.66-.1-.05-.18-.11-.27-.18-2.28-1.8-32.49-25.39-96.79-62.04-65.47-37.31-176.08-96.2-180.91-98.76-.11-.06-.21-.13-.32-.21-12.33-9.04-19.23-10.14-25.85-10.14-11.56,0-18.18,7.45-21.99,11.26-5.07,5.07-25.74,46.38-32.05,59.12-.56,1.13-1.67,1.75-2.82,1.75-.71,0-1.42-.24-2.02-.73-19.62-16.14-79.12-42.85-82-44.09-.08-.04-.15-.07-.22-.11-.64-.35-1.27-.7-1.9-1.03-12.1-6.51-22.17-10.1-29.76-10.1-4.21,0-7.65,1.11-10.25,3.43-4.09,3.68-6.21,5.94-9.48,7.26,0,0-.02,0-.03,0-2.39,0-114.17-31.92-114.17-31.92-2.11-.61-2.98-3.14-1.67-4.91.03-.05-.01-.12,0-.17.87-3,.87-6,6.51-14.06,6.98-9.98,14.44-16.39,17.21-21.01,1.52-2.55,2.54-5.39,2.81-8.35,2.06-22.1-14.66-40.58-14.66-40.58,4-4,9-13,9-13,2.62-7.27,8-16,3.7-20.05-14.76-13.91-39.12-24.33-39.12-24.33-3.15-1.98-5.08-3.12-5.08-3.12-74.92-40.7-101.07-48.03-104.58-48.9-.29-.07-.57-.19-.83-.35-5.16-3.09-10.18-3.62-13.01-3.62h0Zm555.51,426.76l-14.25,25.96,5.36,2.94,14.14-25.76c-1.75-1.04-3.5-2.09-5.25-3.14h0Z"/><polygon class="cls-3" points="719.21 777.81 738.95 789.3 751.78 766.23 747.87 764.4 724.55 767.8 719.21 777.81"/><polygon class="cls-4" points="770.46 792.41 767.8 793.19 753.69 797.3 749.46 795.13 754.73 785.52 756.67 781.98 761.7 772.81 767.32 776.03 769.96 789.78 770.46 792.41"/><path d="m941.48,729.88c-.51-.36-1.04-.76-1.52-1.19-2.54-2.28-11.76-9.7-42.34-29.31-38.62-24.76-81.71-47.85-82.11-48.06-1.35-.75-135.2-75.12-153.97-85.99-7.53-4.35-14.11-5.68-19.57-3.96-5.39,1.71-7.74,5.87-8.18,6.71-1.06,1.69-16.52,26.23-30.75,54.08-2.99,5.86-6.54,9.29-10.53,10.2-5.76,1.31-12.02-2.78-16.22-5.97-5.56-4.24-11.95-8.16-18.98-11.66-17.02-8.46-43.83-21.74-60.7-29.8-5.25-2.5-9.54-4.5-12.27-5.7-14.57-6.37-21.18,4.64-22.86,8.17-.08.15-.25.23-.42.19l-9-2.46c-81.15-21.77-121.73-33.77-132.64-37.75-.79-.29-1.22-1.14-.97-1.95l1.52-4.89c1.23-3.98,3.04-7.73,5.36-11.16,13.48-19.89,22.42-35.44,24.83-39.73.85-1.5.37-3.42-1.1-4.37-3.51-2.28-2.84-5.85-2.82-5.98l.05-.39c.27-12.55-8.64-19.63-9.02-19.92l-.17-.12s-1.64-1.12-2.01-3.44c-.46-2.85,1.09-6.51,4.49-10.58,10.73-12.89,6.54-18.89,6.02-19.53l-.24-.3-21.31-12.18c-94.78-56.07-124.1-59.64-125.3-59.76l-.45-.05-.42.15s-34,12-52,18.32c-17.99,6.33-29.89,13.55-30.38,13.86l-.27.2c-.47.41-46.97,40.95-54.75,45.81-16.82,10.51-13.94,22.92-12.72,28.22l.05.22c1.91,8.26,3.74,16.37,5.15,24.73l11.83,70.35,2.12,12.59c.78,4.62,2.67,8.85,5.46,12.23,2.52,3.05,6.82,6.75,13,7.11h.09c.96.12,3.57-.35,16.43-2.96,5.69-1.15,11.57-2.35,15.48-3.03,2.83-.5,5.54-1.21,8.07-2.12,9.96-3.55,21.15-4.51,27.16-5.03.71-.06,1.34-.11,1.89-.16,2.88-.28,22.67,3.21,34.56,5.49,2.79.89,35.27,11.08,60.15,11.08,7.38,0,14.1-.9,19.17-3.2,12.06-5.49,20.91-8.05,27.1-7.83,6.71.24,14.22,2.29,20.25,3.93,3.19.87,5.96,1.62,8.13,1.99.19.07.53.2,1,.38,2.19.85,6.74,2.62,9.57,3.39,4.77,1.31,12.58,3.24,22.46,5.68,29.4,7.26,78.6,19.42,112.45,31.45,27.02,9.61,50.74,22.46,64.91,30.14l3.35,1.81c12.81,6.89,131.72,78.23,132.96,78.97.61.35,24.03,13.74,53.95,31.1,6.39,3.71,13.08,7.6,19.91,11.58.02.02.05.03.07.04l1.94-3.53s-.03-.02-.05-.03c-5.31-3.09-10.53-6.13-15.6-9.07-30.74-17.85-55.68-32.1-58.2-33.54-4.9-2.94-120.19-72.1-133.08-79.05l-3.34-1.8c-14.28-7.73-38.17-20.67-65.48-30.38-34.04-12.11-83.36-24.29-112.83-31.58-9.86-2.43-17.64-4.35-22.37-5.65-2.62-.72-7.05-2.43-9.18-3.26-1.32-.51-1.37-.53-1.63-.57-1.99-.32-4.73-1.07-7.89-1.93-6.23-1.7-13.99-3.81-21.16-4.06-.3-.01-.6-.02-.91-.02-6.79,0-15.73,2.62-27.99,8.2-21.04,9.56-76.01-7.91-76.56-8.09l-.23-.06c-3.2-.61-31.4-5.98-35.8-5.56-.54.05-1.17.1-1.86.16-6.19.53-17.72,1.52-28.16,5.25-2.32.82-4.82,1.48-7.42,1.94-3.96.69-9.87,1.89-15.59,3.05-6.2,1.26-13.9,2.82-15.21,2.9h-.03c-.07,0-.15,0-.25-.02-4.74-.27-8.14-3.22-10.15-5.66-2.35-2.83-3.93-6.41-4.6-10.34l-2.12-12.63-11.83-70.32c-1.42-8.47-3.27-16.64-5.19-24.96l-.05-.22c-1.21-5.22-3.46-14.93,10.94-23.93,7.91-4.94,51.83-43.2,55.12-46.07,1.39-.83,12.95-7.6,29.49-13.41,16.75-5.89,47.39-16.7,51.53-18.16,3.86.65,35.53,7.25,123.28,59.17l20.53,11.73c.42,1.08,1.3,5.44-6.05,14.27-4.21,5.05-6.01,9.69-5.36,13.77.6,3.73,3.09,5.68,3.71,6.11.57.48,7.59,6.48,7.44,16.5-.18,1.16-.67,6.16,4.06,9.6-2.8,4.95-11.48,19.91-24.33,38.87-2.55,3.75-4.52,7.86-5.87,12.22l-1.52,4.89c-.88,2.84.62,5.87,3.42,6.89,11,4,51.7,16.05,132.96,37.86l9,2.45c2.03.55,4.17-.43,5.08-2.33,2.05-4.31,7.07-10.85,17.65-6.22,2.68,1.17,6.87,3.13,12.01,5.58,16.8,8.02,43.72,21.35,60.78,29.84,6.8,3.38,12.98,7.17,18.34,11.25,4.84,3.68,12.12,8.38,19.53,6.69,5.2-1.18,9.64-5.32,13.2-12.28,14.58-28.54,30.47-53.59,30.63-53.84l.12-.22c.07-.14,1.7-3.46,5.91-4.76,4.33-1.33,9.8-.11,16.28,3.64,18.8,10.88,152.68,85.26,154.06,86.03.43.23,43.38,23.25,81.86,47.92,30.34,19.45,39.36,26.7,41.83,28.92.61.54,1.24,1.02,1.83,1.45,7.86,5.73-3.5,25.34-10.96,36.51-2.6,3.89-4.86,7.52-6.91,11.13l-31.42,55.28-5.91,9.83c-1.12,1.2-10.89,10.5-30.16-4.39-10.17-7.86-46.38-29.69-83.8-51.7-4.43-2.61-8.88-5.21-13.29-7.8l-1.94,3.54c4.35,2.54,8.72,5.1,13.07,7.67,37.41,22,73.59,43.79,83.52,51.46,9.02,6.97,16.41,9.11,22.08,9.11,8.93,0,13.59-5.31,13.67-5.4l6.21-10.31,31.45-55.31c2-3.52,4.21-7.08,6.75-10.89,14.89-22.28,18.16-36.01,10-41.97Z"/><path class="cls-5" d="m937.24,702.1c-.77-.57-1.57-1.15-2.38-1.74l5.27-7.3c.84.61,1.66,1.21,2.46,1.8l-5.35,7.24Zm-4.79-3.46c-.79-.56-1.6-1.13-2.43-1.7l5.14-7.39c.85.59,1.67,1.17,2.49,1.75l-5.2,7.35Zm-4.87-3.39c-.81-.55-1.63-1.11-2.46-1.68l5.05-7.45c.85.57,1.68,1.14,2.5,1.7l-5.08,7.43Zm-4.94-3.34c-.81-.54-1.64-1.09-2.48-1.65l4.96-7.51c.85.56,1.7,1.12,2.53,1.68l-5.01,7.48Zm-4.97-3.29c-.82-.54-1.66-1.08-2.5-1.63l4.9-7.55c.85.55,1.7,1.1,2.53,1.65l-4.93,7.53Zm-5.01-3.25c-.83-.53-1.67-1.07-2.51-1.61l4.84-7.59c.86.55,1.71,1.09,2.54,1.63l-4.87,7.57Zm-5.04-3.21c-.83-.53-1.68-1.06-2.53-1.59l4.79-7.62c.86.54,1.71,1.08,2.55,1.61l-4.81,7.6Zm-5.06-3.18l-2.54-1.58,4.74-7.65,2.56,1.59-4.76,7.64Zm-5.09-3.16l-2.54-1.57,4.71-7.67c.86.53,1.72,1.06,2.57,1.58l-4.73,7.66Zm-5.1-3.13l-2.56-1.56,4.67-7.69,2.57,1.57-4.69,7.68Zm-5.12-3.11l-2.56-1.55,4.64-7.71,2.58,1.56-4.66,7.7Zm-5.13-3.09l-2.57-1.54,4.62-7.73,2.58,1.55-4.63,7.72Zm-5.14-3.07l-2.58-1.53,4.59-7.74,2.59,1.54-4.6,7.74Zm-5.16-3.06l-2.58-1.52,4.57-7.75,2.59,1.53-4.58,7.75Zm-5.15-3.04l-2.59-1.52,4.54-7.77,2.59,1.52-4.54,7.77Zm-5.18-3.03l-2.59-1.51,4.52-7.78,2.6,1.51-4.54,7.77Zm-5.18-3.01l-2.59-1.5,4.5-7.79,2.6,1.51-4.52,7.79Zm-5.19-3l-2.6-1.5,4.49-7.8,2.61,1.5-4.5,7.8Zm-5.2-2.99l-2.6-1.49,4.47-7.81,2.61,1.49-4.48,7.81Zm-5.2-2.98l-2.61-1.49,4.45-7.82,2.61,1.49-4.46,7.82Zm-5.21-2.97l-2.61-1.48,4.44-7.83,2.61,1.48-4.45,7.83Zm-5.22-2.96l-2.61-1.47,4.42-7.84,2.62,1.48-4.43,7.83Zm-5.22-2.95l-2.61-1.47,4.41-7.85,2.62,1.47-4.41,7.84Zm-5.23-2.94l-2.61-1.47,4.4-7.85,2.62,1.47-4.41,7.85Zm-5.23-2.93l-2.63-1.47,4.38-7.86,2.63,1.47-4.39,7.86Zm-5.25-2.93l-2.62-1.46,4.38-7.87,2.63,1.46-4.38,7.86Zm-5.25-2.92l-2.62-1.45,4.36-7.87,2.63,1.46-4.37,7.87Zm-5.23-2.9l-2.62-1.45,4.35-7.88,2.62,1.45-4.35,7.88Zm-5.24-2.89l-2.63-1.45,4.35-7.88,2.63,1.45-4.35,7.88Zm-5.25-2.89l-2.63-1.45,4.33-7.89,2.63,1.45-4.33,7.89Zm-5.26-2.89l-2.63-1.44,4.32-7.89,2.64,1.45-4.33,7.89Zm-5.26-2.88l-2.63-1.44,4.31-7.9,2.64,1.44-4.32,7.89Zm-5.26-2.88l-2.63-1.43,4.3-7.9,2.64,1.44-4.31,7.9Zm-5.27-2.87l-2.63-1.43,4.3-7.91,2.64,1.44-4.3,7.9Zm-5.27-2.86l-2.64-1.43,4.29-7.91,2.64,1.43-4.29,7.91Zm-5.27-2.86l-2.64-1.43,4.28-7.92,2.64,1.43-4.28,7.92Zm-5.28-2.86l-2.64-1.42,4.27-7.92,2.65,1.43-4.28,7.92Zm-5.28-2.85l-2.64-1.42,4.26-7.93,2.65,1.43-4.28,7.92Zm-5.28-2.84l-2.64-1.42,4.26-7.93,2.65,1.42-4.26,7.93Zm-5.29-2.84l-2.65-1.42,4.25-7.93,2.65,1.42-4.25,7.93Zm-5.29-2.83l-2.65-1.42,4.24-7.94,2.65,1.42-4.24,7.94Zm-5.29-2.83l-2.65-1.41,4.24-7.94,2.65,1.42-4.24,7.94Zm-5.29-2.82l-2.65-1.41,4.23-7.95,2.65,1.41-4.23,7.94Zm-5.29-2.82l-2.66-1.41,4.22-7.95,2.65,1.41-4.21,7.95Zm-5.31-2.82l-2.65-1.41,4.21-7.95,2.66,1.41-4.22,7.95Zm-5.3-2.81l-2.66-1.4,4.21-7.96,2.65,1.4-4.21,7.96Zm-5.3-2.8l-2.66-1.4,4.2-7.96,2.65,1.4-4.2,7.96Zm-5.32-2.8l-2.65-1.4,4.19-7.97,2.66,1.4-4.2,7.96Zm-5.31-2.79l-2.66-1.4,4.19-7.97,2.66,1.4-4.19,7.97Zm-5.32-2.79l-2.66-1.39,4.18-7.97,2.66,1.4-4.18,7.97Zm-5.32-2.79l-2.66-1.39,4.16-7.98,2.67,1.39-4.17,7.98Zm-5.33-2.78l-2.67-1.39,4.16-7.98,2.67,1.39-4.16,7.98Zm-5.35-2.78l-2.7-1.4,4.13-8,2.71,1.41-4.15,7.99Z"/><path class="cls-5" d="m834.43,863.87l-2.58-1.52,4.56-7.76,2.58,1.52-4.56,7.76Zm-5.17-3.04l-2.59-1.52,4.56-7.76,2.59,1.52-4.56,7.76Zm-5.17-3.04l-2.59-1.52,4.56-7.76,2.59,1.52-4.56,7.76Zm-5.17-3.04l-2.58-1.52,4.56-7.76,2.58,1.52-4.56,7.76Zm-5.17-3.04l-2.58-1.52,4.56-7.76,2.58,1.52-4.56,7.76Zm-5.17-3.04l-2.59-1.52,4.56-7.76,2.59,1.52-4.56,7.76Zm-5.17-3.04l-2.59-1.52,4.56-7.76,2.59,1.52-4.56,7.76Zm-5.17-3.04l-2.58-1.52,4.56-7.76,2.58,1.52-4.56,7.76Zm-5.17-3.04l-2.58-1.52,4.56-7.76,2.58,1.52-4.56,7.76Zm-5.17-3.04l-2.59-1.52,4.56-7.76,2.59,1.52-4.56,7.76Zm-5.17-3.04l-2.59-1.52,4.56-7.76,2.59,1.52-4.56,7.76Zm-5.17-3.04l-2.58-1.52,4.56-7.76,2.58,1.52-4.56,7.76Zm-5.17-3.04l-2.59-1.52,4.56-7.76,2.59,1.52-4.56,7.76Zm-5.17-3.04l-2.59-1.52,4.56-7.76,2.59,1.52-4.56,7.76Zm-5.17-3.04l-2.59-1.52,4.56-7.76,2.59,1.52-4.56,7.76Zm-5.17-3.04l-2.58-1.52,4.56-7.76,2.58,1.52-4.56,7.76Zm-5.17-3.04l-2.59-1.52,4.56-7.76,2.59,1.52-4.56,7.76Zm-5.17-3.04l-2.59-1.52,4.56-7.76,2.59,1.52-4.56,7.76Zm-5.17-3.04l-2.59-1.52,4.56-7.76,2.59,1.52-4.56,7.76Zm-5.17-3.04l-2.58-1.52,4.56-7.76,2.58,1.52-4.56,7.76Zm-5.17-3.04l-2.59-1.52,4.56-7.76,2.59,1.52-4.56,7.76Zm-5.17-3.04l-2.59-1.52,4.56-7.76,2.59,1.52-4.56,7.76Zm-5.17-3.04l-2.59-1.52,4.56-7.76,2.59,1.52-4.56,7.76Zm-5.17-3.04l-2.58-1.52,4.56-7.76,2.58,1.52-4.56,7.76Zm-5.17-3.04l-2.59-1.52,4.56-7.76,2.59,1.52-4.56,7.76Zm-5.17-3.04l-2.59-1.52,4.56-7.76,2.59,1.52-4.56,7.76Zm-5.17-3.04l-2.58-1.52,4.56-7.76,2.58,1.52-4.56,7.76Zm-5.17-3.04l-2.58-1.52,4.56-7.76,2.58,1.52-4.56,7.76Zm-5.17-3.04l-2.59-1.52,4.56-7.76,2.59,1.52-4.56,7.76Zm-5.17-3.04l-2.59-1.52,4.56-7.76,2.59,1.52-4.56,7.76Zm-5.17-3.04l-2.58-1.52,4.56-7.76,2.58,1.52-4.56,7.76Zm-5.17-3.04l-2.58-1.52,4.56-7.76,2.58,1.52-4.56,7.76Zm-5.17-3.04l-2.59-1.52,4.56-7.76,2.59,1.52-4.56,7.76Zm-5.17-3.04l-2.59-1.52,4.56-7.76,2.59,1.52-4.56,7.76Zm-5.17-3.04l-2.58-1.52,4.56-7.76,2.58,1.52-4.56,7.76Zm-5.17-3.04l-2.59-1.52,4.56-7.76,2.59,1.52-4.56,7.76Zm-5.17-3.04l-2.59-1.52,4.56-7.76,2.59,1.52-4.56,7.76Zm-5.17-3.04l-2.59-1.52,4.56-7.76,2.59,1.52-4.56,7.76Zm-5.17-3.04l-2.58-1.52,4.56-7.76,2.58,1.52-4.56,7.76Zm-5.17-3.04l-2.59-1.52,4.56-7.76,2.59,1.52-4.56,7.76Zm-5.17-3.04l-2.59-1.52,4.56-7.76,2.59,1.52-4.56,7.76Zm-5.17-3.04l-2.59-1.52,4.56-7.76,2.59,1.52-4.56,7.76Zm-5.17-3.04l-2.58-1.52,4.56-7.76,2.58,1.52-4.56,7.76Zm-5.17-3.04l-2.59-1.52,4.56-7.76,2.59,1.52-4.56,7.76Zm-5.17-3.04l-2.59-1.52,4.56-7.76,2.59,1.52-4.56,7.76Zm-5.17-3.04l-2.58-1.52,4.56-7.76,2.58,1.52-4.56,7.76Zm-5.17-3.04l-2.58-1.52,4.56-7.76,2.58,1.52-4.56,7.76Zm-5.17-3.04l-2.59-1.52,4.56-7.76,2.59,1.52-4.56,7.76Zm-5.17-3.04l-2.59-1.52,4.56-7.76,2.59,1.52-4.56,7.76Zm-5.17-3.04l-2.58-1.52,4.56-7.76,2.58,1.52-4.56,7.76Zm-5.17-3.04l-2.58-1.52,4.56-7.76,2.58,1.52-4.56,7.76Zm-5.17-3.04l-2.59-1.52,4.56-7.76,2.59,1.52-4.56,7.76Zm-5.17-3.04l-2.59-1.52,4.56-7.76,2.59,1.52-4.56,7.76Zm-5.17-3.04l-2.58-1.52,4.56-7.76,2.58,1.52-4.56,7.76Zm-5.17-3.04l-2.58-1.52,4.56-7.76,2.58,1.52-4.56,7.76Zm-5.17-3.04l-2.59-1.52,4.56-7.76,2.59,1.52-4.56,7.76Zm-5.17-3.04l-2.59-1.52,4.56-7.76,2.59,1.52-4.56,7.76Z"/><g id="_1"><circle cx="880" cy="878" r="12"/><path d="m880,867c6.08,0,11,4.92,11,11s-4.92,11-11,11-11-4.92-11-11,4.92-11,11-11m0-2c-7.17,0-13,5.83-13,13s5.83,13,13,13,13-5.83,13-13-5.83-13-13-13h0Z"/><text class="cls-2" transform="translate(871.38 882.35)"><tspan x="0" y="0">01</tspan></text></g><g id="_1-2"><circle cx="971" cy="737" r="12"/><path d="m971,726c6.08,0,11,4.92,11,11s-4.92,11-11,11-11-4.92-11-11,4.92-11,11-11m0-2c-7.17,0-13,5.83-13,13s5.83,13,13,13,13-5.83,13-13-5.83-13-13-13h0Z"/><text class="cls-2" transform="translate(962.38 741.35)"><tspan x="0" y="0">02</tspan></text></g><g id="_1-3"><circle cx="632" cy="538" r="12"/><path d="m632,527c6.08,0,11,4.92,11,11s-4.92,11-11,11-11-4.92-11-11,4.92-11,11-11m0-2c-7.17,0-13,5.83-13,13s5.83,13,13,13,13-5.83,13-13-5.83-13-13-13h0Z"/><text class="cls-2" transform="translate(623.38 542.35)"><tspan x="0" y="0">03</tspan></text></g><g id="_1-4"><circle cx="586" cy="604" r="12"/><path d="m586,593c6.08,0,11,4.92,11,11s-4.92,11-11,11-11-4.92-11-11,4.92-11,11-11m0-2c-7.17,0-13,5.83-13,13s5.83,13,13,13,13-5.83,13-13-5.83-13-13-13h0Z"/><text class="cls-2" transform="translate(577.38 608.35)"><tspan x="0" y="0">04</tspan></text></g><g id="_1-5"><circle cx="481" cy="552" r="12"/><path d="m481,541c6.08,0,11,4.92,11,11s-4.92,11-11,11-11-4.92-11-11,4.92-11,11-11m0-2c-7.17,0-13,5.83-13,13s5.83,13,13,13,13-5.83,13-13-5.83-13-13-13h0Z"/><text class="cls-2" transform="translate(472.38 556.35)"><tspan x="0" y="0">05</tspan></text></g><g id="_1-6"><circle cx="452" cy="562" r="12"/><path d="m452,551c6.08,0,11,4.92,11,11s-4.92,11-11,11-11-4.92-11-11,4.92-11,11-11m0-2c-7.17,0-13,5.83-13,13s5.83,13,13,13,13-5.83,13-13-5.83-13-13-13h0Z"/><text class="cls-2" transform="translate(443.38 566.35)"><tspan x="0" y="0">06</tspan></text></g><g id="_1-7"><circle cx="351" cy="534" r="12"/><path d="m351,523c6.08,0,11,4.92,11,11s-4.92,11-11,11-11-4.92-11-11,4.92-11,11-11m0-2c-7.17,0-13,5.83-13,13s5.83,13,13,13,13-5.83,13-13-5.83-13-13-13h0Z"/><text class="cls-2" transform="translate(342.38 538.35)"><tspan x="0" y="0">07</tspan></text></g><g id="_1-8"><circle cx="375" cy="498" r="12"/><path d="m375,487c6.08,0,11,4.92,11,11s-4.92,11-11,11-11-4.92-11-11,4.92-11,11-11m0-2c-7.17,0-13,5.83-13,13s5.83,13,13,13,13-5.83,13-13-5.83-13-13-13h0Z"/><text class="cls-2" transform="translate(366.38 502.35)"><tspan x="0" y="0">08</tspan></text></g><g id="_1-9"><circle cx="319" cy="487" r="12"/><path d="m319,476c6.08,0,11,4.92,11,11s-4.92,11-11,11-11-4.92-11-11,4.92-11,11-11m0-2c-7.17,0-13,5.83-13,13s5.83,13,13,13,13-5.83,13-13-5.83-13-13-13h0Z"/><text class="cls-2" transform="translate(310.38 491.35)"><tspan x="0" y="0">09</tspan></text></g><g id="_1-10"><circle cx="367" cy="459" r="12"/><path d="m367,448c6.08,0,11,4.92,11,11s-4.92,11-11,11-11-4.92-11-11,4.92-11,11-11m0-2c-7.17,0-13,5.83-13,13s5.83,13,13,13,13-5.83,13-13-5.83-13-13-13h0Z"/><text class="cls-2" transform="translate(358.38 463.35)"><tspan x="0" y="0">10</tspan></text></g><g id="_1-11"><circle cx="304" cy="448" r="12"/><path d="m304,437c6.08,0,11,4.92,11,11s-4.92,11-11,11-11-4.92-11-11,4.92-11,11-11m0-2c-7.17,0-13,5.83-13,13s5.83,13,13,13,13-5.83,13-13-5.83-13-13-13h0Z"/><text class="cls-2" transform="translate(295.38 452.35)"><tspan x="0" y="0">11</tspan></text></g><g id="_1-12"><circle cx="375" cy="418" r="12"/><path d="m375,407c6.08,0,11,4.92,11,11s-4.92,11-11,11-11-4.92-11-11,4.92-11,11-11m0-2c-7.17,0-13,5.83-13,13s5.83,13,13,13,13-5.83,13-13-5.83-13-13-13h0Z"/><text class="cls-2" transform="translate(366.38 422.35)"><tspan x="0" y="0">12</tspan></text></g><g id="_1-13"><circle cx="199" cy="328" r="12"/><path d="m199,317c6.08,0,11,4.92,11,11s-4.92,11-11,11-11-4.92-11-11,4.92-11,11-11m0-2c-7.17,0-13,5.83-13,13s5.83,13,13,13,13-5.83,13-13-5.83-13-13-13h0Z"/><text class="cls-2" transform="translate(190.38 332.35)"><tspan x="0" y="0">13</tspan></text></g><g id="_1-14"><circle cx="103" cy="364" r="12"/><path d="m103,353c6.08,0,11,4.92,11,11s-4.92,11-11,11-11-4.92-11-11,4.92-11,11-11m0-2c-7.17,0-13,5.83-13,13s5.83,13,13,13,13-5.83,13-13-5.83-13-13-13h0Z"/><text class="cls-2" transform="translate(94.38 368.35)"><tspan x="0" y="0">14</tspan></text></g><g id="_1-15"><circle cx="27" cy="433" r="12"/><path d="m27,422c6.08,0,11,4.92,11,11s-4.92,11-11,11-11-4.92-11-11,4.92-11,11-11m0-2c-7.17,0-13,5.83-13,13s5.83,13,13,13,13-5.83,13-13-5.83-13-13-13h0Z"/><text class="cls-2" transform="translate(18.38 437.35)"><tspan x="0" y="0">15</tspan></text></g><g id="_1-16"><circle cx="66" cy="605" r="12"/><path d="m66,594c6.08,0,11,4.92,11,11s-4.92,11-11,11-11-4.92-11-11,4.92-11,11-11m0-2c-7.17,0-13,5.83-13,13s5.83,13,13,13,13-5.83,13-13-5.83-13-13-13h0Z"/><text class="cls-2" transform="translate(57.38 609.35)"><tspan x="0" y="0">16</tspan></text></g><g id="_1-17"><circle cx="155" cy="599" r="12"/><path d="m155,588c6.08,0,11,4.92,11,11s-4.92,11-11,11-11-4.92-11-11,4.92-11,11-11m0-2c-7.17,0-13,5.83-13,13s5.83,13,13,13,13-5.83,13-13-5.83-13-13-13h0Z"/><text class="cls-2" transform="translate(146.38 603.35)"><tspan x="0" y="0">17</tspan></text></g><g id="_1-18"><circle cx="257" cy="618" r="12"/><path d="m257,607c6.08,0,11,4.92,11,11s-4.92,11-11,11-11-4.92-11-11,4.92-11,11-11m0-2c-7.17,0-13,5.83-13,13s5.83,13,13,13,13-5.83,13-13-5.83-13-13-13h0Z"/><text class="cls-2" transform="translate(248.38 622.35)"><tspan x="0" y="0">18</tspan></text></g><g id="_1-19"><circle cx="302" cy="604" r="12"/><path d="m302,593c6.08,0,11,4.92,11,11s-4.92,11-11,11-11-4.92-11-11,4.92-11,11-11m0-2c-7.17,0-13,5.83-13,13s5.83,13,13,13,13-5.83,13-13-5.83-13-13-13h0Z"/><text class="cls-2" transform="translate(293.38 608.35)"><tspan x="0" y="0">19</tspan></text></g><g id="_1-20"><circle cx="460" cy="649" r="12"/><path d="m460,638c6.08,0,11,4.92,11,11s-4.92,11-11,11-11-4.92-11-11,4.92-11,11-11m0-2c-7.17,0-13,5.83-13,13s5.83,13,13,13,13-5.83,13-13-5.83-13-13-13h0Z"/><text class="cls-2" transform="translate(451.38 653.35)"><tspan x="0" y="0">20</tspan></text></g><g id="Legend"><circle cx="67.47" cy="218.59" r="13"/><path d="m91.98,217.76v-2.36h8.94v2.36h-8.94Zm0,4.02v-2.38h8.94v2.38h-8.94Z"/><path d="m113.47,224.93h-3.47v-10.02h-3.14v-2.84h9.75v2.84h-3.13v10.02Z"/><path d="m129.37,212.07v7.74c0,1.08-.21,2.02-.62,2.81-.41.79-1.03,1.41-1.85,1.84-.82.43-1.85.65-3.09.65-1.77,0-3.12-.45-4.06-1.36-.93-.91-1.4-2.19-1.4-3.85v-7.82h3.49v7.55c0,.91.17,1.57.51,1.98.34.41.84.62,1.5.62.47,0,.86-.09,1.16-.27s.52-.46.66-.85c.14-.39.21-.89.21-1.5v-7.53h3.47Z"/><path d="m136.29,212.07c1.17,0,2.14.14,2.91.43.77.28,1.36.71,1.75,1.27.39.56.58,1.26.58,2.1,0,.52-.09,1-.26,1.43s-.43.81-.75,1.15c-.33.34-.71.63-1.17.88l3.75,5.6h-3.94l-2.73-4.68h-.88v4.68h-3.47v-12.86h4.21Zm-.05,2.63h-.69v2.94h.65c.53,0,.97-.12,1.31-.35.34-.23.51-.65.51-1.26,0-.42-.14-.74-.42-.98s-.74-.35-1.36-.35Z"/><path d="m156.51,224.93h-4.56l-4.7-9.06h-.08c.03.28.06.61.08.99s.04.78.06,1.18.03.76.03,1.09v5.8h-3.08v-12.86h4.54l4.68,8.94h.05c-.02-.28-.04-.61-.05-.98-.02-.37-.03-.75-.05-1.13-.01-.38-.02-.72-.02-1.01v-5.81h3.1v12.86Z"/><path d="m176.21,224.93h-4.56l-4.7-9.06h-.08c.03.28.06.61.08.99s.04.78.06,1.18.03.76.03,1.09v5.8h-3.08v-12.86h4.54l4.68,8.94h.05c-.02-.28-.04-.61-.05-.98-.02-.37-.03-.75-.05-1.13-.01-.38-.02-.72-.02-1.01v-5.81h3.1v12.86Z"/><path d="m189.93,212.07v7.74c0,1.08-.21,2.02-.62,2.81-.41.79-1.03,1.41-1.85,1.84-.82.43-1.85.65-3.09.65-1.77,0-3.12-.45-4.06-1.36-.93-.91-1.4-2.19-1.4-3.85v-7.82h3.49v7.55c0,.91.17,1.57.51,1.98.34.41.84.62,1.5.62.47,0,.86-.09,1.16-.27s.52-.46.66-.85c.14-.39.21-.89.21-1.5v-7.53h3.47Z"/><path d="m198.23,224.93l-2.63-9.26h-.08c.02.24.05.57.07.98.03.41.05.85.08,1.33s.04.93.04,1.37v5.59h-3.08v-12.86h4.63l2.68,9.13h.07l2.63-9.13h4.64v12.86h-3.19v-5.64c0-.4,0-.84.02-1.31s.03-.91.05-1.32c.02-.41.04-.74.06-.98h-.08l-2.59,9.25h-3.31Z"/><path d="m210.05,212.07h4.49c1.86,0,3.18.28,3.98.83.79.55,1.19,1.34,1.19,2.38,0,.56-.1,1.04-.3,1.43-.2.39-.46.7-.77.93-.31.23-.62.38-.95.47v.09c.35.09.7.23,1.05.44s.64.5.87.91c.23.4.35.95.35,1.63,0,.78-.2,1.45-.59,2.01-.4.56-.96,1-1.69,1.3-.73.3-1.6.45-2.61.45h-5.01v-12.86Zm3.47,4.93h1.05c.58,0,.98-.12,1.21-.36.23-.24.35-.53.35-.87s-.13-.62-.4-.8c-.27-.19-.68-.28-1.24-.28h-.98v2.3Zm0,2.54v2.7h1.22c.6,0,1.03-.13,1.27-.39.24-.26.36-.59.36-.98,0-.23-.05-.44-.15-.65-.1-.2-.28-.37-.52-.49s-.59-.19-1.02-.19h-1.15Z"/><path d="m229.82,224.93h-7.64v-12.86h7.64v2.79h-4.16v2.02h3.85v2.79h-3.85v2.43h4.16v2.83Z"/><path d="m236.29,212.07c1.17,0,2.14.14,2.91.43.77.28,1.36.71,1.75,1.27.39.56.58,1.26.58,2.1,0,.52-.09,1-.26,1.43s-.43.81-.75,1.15c-.33.34-.71.63-1.17.88l3.75,5.6h-3.94l-2.73-4.68h-.88v4.68h-3.47v-12.86h4.21Zm-.05,2.63h-.69v2.94h.65c.53,0,.97-.12,1.31-.35.34-.23.51-.65.51-1.26,0-.42-.14-.74-.42-.98s-.74-.35-1.36-.35Z"/><path d="m252.68,221.02c0,.7-.18,1.36-.53,1.98s-.9,1.13-1.64,1.52c-.74.39-1.7.58-2.87.58-.59,0-1.1-.03-1.54-.08-.44-.05-.85-.14-1.24-.26-.38-.12-.78-.28-1.19-.47v-3.1c.7.35,1.4.62,2.11.8.71.18,1.35.28,1.93.28.35,0,.63-.04.85-.12.22-.08.38-.19.49-.34.11-.14.16-.31.16-.5,0-.22-.08-.41-.23-.57s-.4-.32-.74-.49c-.34-.17-.79-.38-1.35-.63-.47-.22-.9-.45-1.29-.69-.38-.23-.71-.5-.99-.81-.27-.3-.48-.66-.63-1.06-.15-.4-.22-.88-.22-1.43,0-.83.2-1.52.61-2.08.41-.56.98-.98,1.71-1.26.73-.28,1.57-.42,2.53-.42.84,0,1.59.09,2.26.28.67.19,1.27.4,1.81.64l-1.06,2.68c-.55-.25-1.09-.45-1.63-.6-.53-.15-1.03-.22-1.49-.22-.3,0-.54.04-.73.11-.19.07-.33.17-.42.29s-.14.26-.14.42c0,.2.08.38.23.54.16.16.42.33.78.51.37.19.87.42,1.5.72.63.28,1.16.58,1.6.91.44.33.78.72,1.01,1.17.23.45.35,1.02.35,1.68Z"/><circle class="cls-5" cx="67.47" cy="138.59" r="13"/><path d="m67.47,152.59c-7.72,0-14-6.28-14-14s6.28-14,14-14,14,6.28,14,14-6.28,14-14,14Zm0-26c-6.62,0-12,5.38-12,12s5.38,12,12,12,12-5.38,12-12-5.38-12-12-12Z"/><path d="m91.98,137.76v-2.36h8.94v2.36h-8.94Zm0,4.02v-2.38h8.94v2.38h-8.94Z"/><path d="m118.71,138.23c0,1.5-.28,2.74-.84,3.73-.56.99-1.34,1.73-2.35,2.23-1.01.5-2.2.74-3.57.74h-4.16v-12.86h4.45c1.38,0,2.56.24,3.52.71s1.69,1.17,2.2,2.08c.5.92.75,2.04.75,3.36Zm-3.61.12c0-.78-.1-1.43-.31-1.94s-.52-.9-.94-1.15c-.42-.25-.94-.38-1.57-.38h-1.01v7.2h.77c1.06,0,1.83-.31,2.32-.92.49-.61.74-1.55.74-2.81Z"/><path d="m125.23,132.07c1.17,0,2.14.14,2.91.43.77.28,1.36.71,1.75,1.27.39.56.58,1.26.58,2.1,0,.52-.09,1-.26,1.43s-.43.81-.75,1.15c-.33.34-.71.63-1.17.88l3.75,5.6h-3.94l-2.73-4.68h-.88v4.68h-3.47v-12.86h4.21Zm-.05,2.63h-.69v2.94h.65c.53,0,.97-.12,1.31-.35.34-.23.51-.65.51-1.26,0-.42-.14-.74-.42-.98s-.74-.35-1.36-.35Z"/><path d="m141.62,141.02c0,.7-.18,1.36-.53,1.98s-.9,1.13-1.64,1.52c-.74.39-1.7.58-2.87.58-.59,0-1.1-.03-1.54-.08-.44-.05-.85-.14-1.24-.26-.38-.12-.78-.28-1.19-.47v-3.1c.7.35,1.4.62,2.11.8.71.18,1.35.28,1.93.28.35,0,.63-.04.85-.12.22-.08.38-.19.49-.34.11-.14.16-.31.16-.5,0-.22-.08-.41-.23-.57s-.4-.32-.74-.49c-.34-.17-.79-.38-1.35-.63-.47-.22-.9-.45-1.29-.69-.38-.23-.71-.5-.99-.81-.27-.3-.48-.66-.63-1.06-.15-.4-.22-.88-.22-1.43,0-.83.2-1.52.61-2.08.41-.56.98-.98,1.71-1.26.73-.28,1.57-.42,2.53-.42.84,0,1.59.09,2.26.28.67.19,1.27.4,1.81.64l-1.06,2.68c-.55-.25-1.09-.45-1.63-.6-.53-.15-1.03-.22-1.49-.22-.3,0-.54.04-.73.11-.19.07-.33.17-.42.29s-.14.26-.14.42c0,.2.08.38.23.54.16.16.42.33.78.51.37.19.87.42,1.5.72.63.28,1.16.58,1.6.91.44.33.78.72,1.01,1.17.23.45.35,1.02.35,1.68Z"/><path d="m159.2,138.23c0,1.5-.28,2.74-.84,3.73-.56.99-1.34,1.73-2.35,2.23-1.01.5-2.2.74-3.57.74h-4.16v-12.86h4.45c1.38,0,2.56.24,3.52.71s1.69,1.17,2.2,2.08c.5.92.75,2.04.75,3.36Zm-3.61.12c0-.78-.1-1.43-.31-1.94s-.52-.9-.94-1.15c-.42-.25-.94-.38-1.57-.38h-1.01v7.2h.77c1.06,0,1.83-.31,2.32-.92.49-.61.74-1.55.74-2.81Z"/><path d="m169.14,144.93h-7.64v-12.86h7.64v2.79h-4.16v2.02h3.85v2.79h-3.85v2.43h4.16v2.83Z"/><path d="m177.07,144.93h-3.47v-10.02h-3.14v-2.84h9.75v2.84h-3.13v10.02Z"/><path d="m189.67,144.93h-7.64v-12.86h7.64v2.79h-4.16v2.02h3.85v2.79h-3.85v2.43h4.16v2.83Z"/><path d="m197.65,134.73c-.41,0-.78.09-1.1.26s-.6.42-.83.75c-.23.33-.4.73-.52,1.2-.12.47-.18,1.01-.18,1.61,0,.81.1,1.49.31,2.04.21.55.52.97.94,1.25.42.28.95.42,1.58.42.58,0,1.13-.08,1.66-.24.53-.16,1.07-.35,1.61-.57v2.94c-.57.25-1.15.43-1.75.55-.59.11-1.23.17-1.9.17-1.4,0-2.54-.28-3.43-.83-.89-.55-1.54-1.32-1.96-2.31-.42-.99-.63-2.13-.63-3.43,0-.97.14-1.86.41-2.67.27-.81.67-1.51,1.2-2.11.53-.6,1.18-1.06,1.96-1.38.78-.33,1.67-.49,2.67-.49.62,0,1.28.07,1.97.22.69.14,1.36.37,2.02.69l-1.06,2.74c-.47-.22-.94-.41-1.42-.56-.48-.15-.99-.23-1.53-.23Z"/><path d="m209.29,144.93h-3.47v-10.02h-3.14v-2.84h9.75v2.84h-3.13v10.02Z"/><path d="m214.26,144.93v-12.86h3.49v12.86h-3.49Z"/><path d="m232.57,138.48c0,.99-.12,1.89-.36,2.7-.24.81-.61,1.51-1.11,2.1-.5.59-1.15,1.04-1.94,1.35-.79.31-1.74.47-2.84.47s-2.01-.16-2.8-.47c-.79-.31-1.44-.76-1.95-1.35-.51-.58-.89-1.28-1.13-2.1-.25-.81-.37-1.72-.37-2.73,0-1.34.22-2.5.66-3.49.44-.99,1.13-1.75,2.05-2.3s2.11-.81,3.55-.81,2.66.27,3.58.82,1.59,1.31,2.02,2.3c.43.99.64,2.15.64,3.49Zm-8.85,0c0,.77.09,1.44.26,2s.46.99.84,1.28c.38.3.88.45,1.5.45s1.15-.15,1.53-.45c.38-.3.65-.73.82-1.28s.25-1.22.25-2c0-1.16-.19-2.08-.58-2.75s-1.05-1.01-2-1.01c-.63,0-1.13.15-1.52.46-.38.31-.66.74-.83,1.3s-.26,1.23-.26,2.01Z"/><path d="m247.13,144.93h-4.56l-4.7-9.06h-.08c.03.28.06.61.08.99s.04.78.06,1.18.03.76.03,1.09v5.8h-3.08v-12.86h4.54l4.68,8.94h.05c-.02-.28-.04-.61-.05-.98-.02-.37-.03-.75-.05-1.13-.01-.38-.02-.72-.02-1.01v-5.81h3.1v12.86Z"/><path d="m263.76,144.93h-10.02v-2.15l5.57-7.91h-5.44v-2.81h9.75v2.14l-5.57,7.92h5.71v2.81Z"/><path d="m277.63,138.48c0,.99-.12,1.89-.36,2.7-.24.81-.61,1.51-1.11,2.1-.5.59-1.15,1.04-1.94,1.35-.79.31-1.74.47-2.84.47s-2.01-.16-2.8-.47c-.79-.31-1.44-.76-1.95-1.35-.51-.58-.89-1.28-1.13-2.1-.25-.81-.37-1.72-.37-2.73,0-1.34.22-2.5.66-3.49.44-.99,1.13-1.75,2.05-2.3s2.11-.81,3.55-.81,2.66.27,3.58.82,1.59,1.31,2.02,2.3c.43.99.64,2.15.64,3.49Zm-8.85,0c0,.77.09,1.44.26,2s.46.99.84,1.28c.38.3.88.45,1.5.45s1.15-.15,1.53-.45c.38-.3.65-.73.82-1.28s.25-1.22.25-2c0-1.16-.19-2.08-.58-2.75s-1.05-1.01-2-1.01c-.63,0-1.13.15-1.52.46-.38.31-.66.74-.83,1.3s-.26,1.23-.26,2.01Z"/><path d="m292.2,144.93h-4.56l-4.7-9.06h-.08c.03.28.06.61.08.99s.04.78.06,1.18.03.76.03,1.09v5.8h-3.08v-12.86h4.54l4.68,8.94h.05c-.02-.28-.04-.61-.05-.98-.02-.37-.03-.75-.05-1.13-.01-.38-.02-.72-.02-1.01v-5.81h3.1v12.86Z"/><path d="m302.61,144.93h-7.64v-12.86h7.64v2.79h-4.16v2.02h3.85v2.79h-3.85v2.43h4.16v2.83Z"/><path d="m91.98,176.76v-2.36h8.94v2.36h-8.94Zm0,4.02v-2.38h8.94v2.38h-8.94Z"/><path d="m118.71,177.23c0,1.5-.28,2.74-.84,3.73-.56.99-1.34,1.73-2.35,2.23-1.01.5-2.2.74-3.57.74h-4.16v-12.86h4.45c1.38,0,2.56.24,3.52.71s1.69,1.17,2.2,2.08c.5.92.75,2.04.75,3.36Zm-3.61.12c0-.78-.1-1.43-.31-1.94s-.52-.9-.94-1.15c-.42-.25-.94-.38-1.57-.38h-1.01v7.2h.77c1.06,0,1.83-.31,2.32-.92.49-.61.74-1.55.74-2.81Z"/><path d="m125.23,171.07c1.17,0,2.14.14,2.91.43.77.28,1.36.71,1.75,1.27.39.56.58,1.26.58,2.1,0,.52-.09,1-.26,1.43s-.43.81-.75,1.15c-.33.34-.71.63-1.17.88l3.75,5.6h-3.94l-2.73-4.68h-.88v4.68h-3.47v-12.86h4.21Zm-.05,2.63h-.69v2.94h.65c.53,0,.97-.12,1.31-.35.34-.23.51-.65.51-1.26,0-.42-.14-.74-.42-.98s-.74-.35-1.36-.35Z"/><path d="m141.62,180.02c0,.7-.18,1.36-.53,1.98s-.9,1.13-1.64,1.52c-.74.39-1.7.58-2.87.58-.59,0-1.1-.03-1.54-.08-.44-.05-.85-.14-1.24-.26-.38-.12-.78-.28-1.19-.47v-3.1c.7.35,1.4.62,2.11.8.71.18,1.35.28,1.93.28.35,0,.63-.04.85-.12.22-.08.38-.19.49-.34.11-.14.16-.31.16-.5,0-.22-.08-.41-.23-.57s-.4-.32-.74-.49c-.34-.17-.79-.38-1.35-.63-.47-.22-.9-.45-1.29-.69-.38-.23-.71-.5-.99-.81-.27-.3-.48-.66-.63-1.06-.15-.4-.22-.88-.22-1.43,0-.83.2-1.52.61-2.08.41-.56.98-.98,1.71-1.26.73-.28,1.57-.42,2.53-.42.84,0,1.59.09,2.26.28.67.19,1.27.4,1.81.64l-1.06,2.68c-.55-.25-1.09-.45-1.63-.6-.53-.15-1.03-.22-1.49-.22-.3,0-.54.04-.73.11-.19.07-.33.17-.42.29s-.14.26-.14.42c0,.2.08.38.23.54.16.16.42.33.78.51.37.19.87.42,1.5.72.63.28,1.16.58,1.6.91.44.33.78.72,1.01,1.17.23.45.35,1.02.35,1.68Z"/><path d="m157.45,183.93h-10.02v-2.15l5.57-7.91h-5.44v-2.81h9.75v2.14l-5.57,7.92h5.71v2.81Z"/><path d="m171.33,177.48c0,.99-.12,1.89-.36,2.7-.24.81-.61,1.51-1.11,2.1-.5.59-1.15,1.04-1.94,1.35-.79.31-1.74.47-2.84.47s-2.01-.16-2.8-.47c-.79-.31-1.44-.76-1.95-1.35-.51-.58-.89-1.28-1.13-2.1-.25-.81-.37-1.72-.37-2.73,0-1.34.22-2.5.66-3.49.44-.99,1.13-1.75,2.05-2.3s2.11-.81,3.55-.81,2.66.27,3.58.82,1.59,1.31,2.02,2.3c.43.99.64,2.15.64,3.49Zm-8.85,0c0,.77.09,1.44.26,2s.46.99.84,1.28c.38.3.88.45,1.5.45s1.15-.15,1.53-.45c.38-.3.65-.73.82-1.28s.25-1.22.25-2c0-1.16-.19-2.08-.58-2.75s-1.05-1.01-2-1.01c-.63,0-1.13.15-1.52.46-.38.31-.66.74-.83,1.3s-.26,1.23-.26,2.01Z"/><path d="m185.89,183.93h-4.56l-4.7-9.06h-.08c.03.28.06.61.08.99s.04.78.06,1.18.03.76.03,1.09v5.8h-3.08v-12.86h4.54l4.68,8.94h.05c-.02-.28-.04-.61-.05-.98-.02-.37-.03-.75-.05-1.13-.01-.38-.02-.72-.02-1.01v-5.81h3.1v12.86Z"/><path d="m196.31,183.93h-7.64v-12.86h7.64v2.79h-4.16v2.02h3.85v2.79h-3.85v2.43h4.16v2.83Z"/><path d="m206.97,180.02c0,.7-.18,1.36-.53,1.98s-.9,1.13-1.64,1.52c-.74.39-1.7.58-2.87.58-.59,0-1.1-.03-1.54-.08-.44-.05-.85-.14-1.24-.26-.38-.12-.78-.28-1.19-.47v-3.1c.7.35,1.4.62,2.11.8.71.18,1.35.28,1.93.28.35,0,.63-.04.85-.12.22-.08.38-.19.49-.34.11-.14.16-.31.16-.5,0-.22-.08-.41-.23-.57s-.4-.32-.74-.49c-.34-.17-.79-.38-1.35-.63-.47-.22-.9-.45-1.29-.69-.38-.23-.71-.5-.99-.81-.27-.3-.48-.66-.63-1.06-.15-.4-.22-.88-.22-1.43,0-.83.2-1.52.61-2.08.41-.56.98-.98,1.71-1.26.73-.28,1.57-.42,2.53-.42.84,0,1.59.09,2.26.28.67.19,1.27.4,1.81.64l-1.06,2.68c-.55-.25-1.09-.45-1.63-.6-.53-.15-1.03-.22-1.49-.22-.3,0-.54.04-.73.11-.19.07-.33.17-.42.29s-.14.26-.14.42c0,.2.08.38.23.54.16.16.42.33.78.51.37.19.87.42,1.5.72.63.28,1.16.58,1.6.91.44.33.78.72,1.01,1.17.23.45.35,1.02.35,1.68Z"/><path class="cls-5" d="m80.47,189.59h-2.5v-23h2.5v23Zm-5.5,0h-3v-23h3v23Zm-6,0h-3v-23h3v23Zm-6,0h-3v-23h3v23Zm-6,0h-3v-23h3v23Z"/><path class="cls-1" d="m66.95,217.36c0,.84-.07,1.59-.2,2.26s-.35,1.23-.64,1.69-.68.82-1.17,1.06c-.48.24-1.08.37-1.78.37-.88,0-1.59-.21-2.15-.64-.56-.43-.97-1.04-1.24-1.84-.26-.8-.4-1.76-.4-2.89s.12-2.1.36-2.91c.24-.81.64-1.42,1.19-1.85.55-.43,1.3-.65,2.23-.65.88,0,1.59.21,2.15.64.56.43.97,1.04,1.24,1.85.27.81.4,1.78.4,2.92Zm-4.75,0c0,.68.02,1.26.08,1.72.05.46.15.81.29,1.04.14.23.34.35.61.35s.46-.12.6-.35.23-.58.29-1.04.08-1.04.08-1.72-.03-1.27-.08-1.74-.15-.81-.29-1.05-.34-.35-.6-.35-.46.12-.61.35c-.14.24-.24.59-.29,1.05-.05.46-.08,1.04-.08,1.74Z"/><path class="cls-1" d="m74.22,222.59h-2.88v-5.71c0-.26,0-.54.01-.85,0-.31.02-.59.03-.84-.12.15-.24.27-.35.38-.11.11-.21.2-.31.29l-1.19.98-1.47-1.81,3.6-2.93h2.55v10.48Z"/></g></svg>