<?xml version="1.0" encoding="UTF-8"?><svg xmlns="http://www.w3.org/2000/svg" viewBox="0 0 1000 1000"><defs><style>.cls-1{font-size:13.33px;}.cls-1,.cls-2{fill:#fff;}.cls-3{fill:#fae44a;}.cls-4{fill:#db4a25;}.cls-5,.cls-6{fill:#1bce20;}.cls-7{fill:#75e5fd;}.cls-6{stroke:#000;stroke-miterlimit:10;stroke-width:2px;}</style></defs><g id="Barcelona_Simple"><path d="M983.14,524.23v-8.23c.13-.98-.25-2.73-.47-3.62-1.72-37.07-5.85-74-10.55-94.13-7.3-31.27-88.9-48.29-94.02-49.33l-7.29-2.54c-3.66-1.28-6.97-2.43-9.77-3.41l-1.25-.44c-.67-.3-4.51-2-10.4-3.7-8.07-2.33-15.88-3.51-23.24-3.51-17.13,0-30.73,6.25-40.43,18.56-10.81,13.72-14.55,29.18-11.11,45.96,2.91,14.13,12.09,25.93,25.19,32.37,7.29,3.59,15.5,6.7,24.42,9.25,26.01,7.43,39.5,25.98,41.16,28.38,.03,.06,.06,.11,.08,.16,1.38,3.09,12.44,28.85,4.14,43.82-1.3,2.36-3.51,3.5-6.75,3.5-7.11,0-19.13-5.84-33.86-16.45-3.9-2.81-7.75-5.49-11.44-7.96-7.16-4.83-14.44-9.41-21.61-13.61l-142.94-83.67-93.98-55.98-.05-.03-.04-.03-.11-.05c-1.65-.82-16.69-8-36.48-8-21.2,0-39.54,8.14-54.49,24.2l-.06,.06-.05,.06-.11,.14-.05,.06-.04,.06-77.92,115.73-.15,.21c-.21,.29-.41,.56-.61,.84-1.47,1.96-6.36,10.67-6.36,38.6v19c-.22,1.18-2.21,9-17,9-13.95,0-59.37-.7-75.82-.97l-5-.53c-9.1-1.82-41.85-10.41-87.48-45.22l-.09-.07-.05-.03-.04-.03-37.59-25.07c-4.32-2.87-7.51-6.8-9.23-11.37-1.37-3.64-1.34-6.52,.08-8.57,1.88-2.71,6.45-4.14,13.22-4.14h131.64s5.56-.62,5.56-.62h.11s.1-.04,.1-.04c14.73-3.25,62.98-17.71,65.59-67.29,1.08-20.39-3.16-35.77-12.59-45.71-10.45-11.02-23.79-11.34-25.28-11.34h-.08l-54.51-2.5h-106.95c-.92-.06-3.31-.18-6.97-.18-17.11,0-60.58,2.57-94.69,26.36-41.93,29.25-48.61,74.23-48.98,76.99-.24,1.19-2.54,13.52,.45,29.52,2.82,15.02,11.07,36.29,34.41,52.25,30.54,20.9,53.13,27.51,66.63,31.45,6.57,1.92,10.89,3.18,13.11,5.09,7.42,6.39,12.18,12.86,10.6,43.44-.62,12.05,2.29,21.55,8.64,28.23,8.97,9.44,22.46,10.85,29.71,10.85,9.25,0,289.46,1.13,485.57,1.94l.02-2c-177.75-.73-475.89-1.94-485.59-1.94-6.93,0-19.81-1.33-28.26-10.23-5.96-6.27-8.68-15.27-8.09-26.75,1.62-31.48-3.42-38.28-11.3-45.06-2.55-2.19-7.04-3.5-13.85-5.49-13.38-3.91-35.79-10.46-66.06-31.18-44.04-30.12-34.14-79.21-34.02-79.79,.06-.46,6.04-46.3,48.15-75.68,33.65-23.47,76.63-26,93.55-26,3.46,0,5.81,.11,6.91,.18h106.92l54.55,2.5h.13c1.4,0,13.95,.3,23.83,10.72,9.04,9.52,13.09,24.4,12.04,44.23-2.53,48.14-49.57,62.25-64.02,65.44l-5.56,.61H163.5c-7.56,0-12.56,1.68-14.86,5-1.82,2.62-1.92,6.13-.31,10.42,1.87,4.96,5.32,9.22,9.99,12.32l37.59,25.07,.08,.06c46.08,35.16,79.23,43.79,88.39,45.61l5.18,.55c15.18,.25,61.71,.97,75.94,.97,16.77,0,18.8-9.64,18.98-10.74,.01-.11,.02-.23,.02-.36v-18.9c0-28.04,4.98-36.09,5.99-37.44,.25-.35,.5-.69,.77-1.06l77.94-115.76,.11-.14c14.56-15.63,32.4-23.56,53.03-23.56,19.45,0,34.32,7.16,35.59,7.79,.03,.02,.05,.03,.07,.04l93.99,55.99,142.94,83.67c7.13,4.17,14.33,8.7,21.51,13.54,3.8,2.55,7.6,5.2,11.38,7.92,10.66,7.68,25.4,16.83,35.03,16.83,3.97,0,6.84-1.53,8.5-4.53,8.81-15.9-2.74-42.66-4.08-45.65-.05-.1-.1-.2-.2-.37-1.5-2.19-15.36-21.54-42.3-29.23-8.8-2.52-16.91-5.59-24.09-9.12-12.54-6.17-21.33-17.46-24.11-30.98-3.32-16.18,.29-31.09,10.72-44.32,9.3-11.81,22.38-17.8,38.86-17.8,8.63,0,16.69,1.7,22.68,3.43s9.89,3.49,10.21,3.64l1.34,.47c4.6,1.6,10.56,3.68,17.19,5.99,0,0,85.43,17.15,92.6,47.85,4.84,20.74,8.88,58.53,10.51,93.97,.4,1.56,.53,2.69,.48,3.07,0,.05,0,.11-.02,.17v8.35c.42,13.3,.46,25.94,.03,36.83h-.52c-1.72,31.49-7.47,38.66-20.37,54.71l-2.06,2.58c-16.4,20.49-37.94,22.7-46.44,22.7-1.82,0-3.02-.1-3.55-.14-.09-.02-.17-.02-.24-.02-.99,0-16.41-.07-42.12-.17l-183.72-.76-.02,2,183.73,.76c14.74,.06,26.09,.1,33.28,.13,5.14,.03,8.16,.04,8.78,.04h.16s.09,.02,.09,.02c.59,.05,1.82,.14,3.61,.14,8.79,0,31.06-2.28,48-23.45l2.06-2.58c12.82-15.95,18.81-23.4,20.7-53.96h.55l.08-1.92c.42-10.62,.41-23.05-.03-36.94Zm-804.54,78.72s0-.08,.01-.12c1.93-37.65-4.2-56.85-23.44-73.41-.42-.36-.84-.71-1.26-1.04l21.65,14.43c58.75,44.6,99.89,51.5,107.54,52.43,1.21,.14,2.48,.23,3.79,.25l1.03,.03c26.98,.42,64.34,.98,77.58,.98,32.72,0,50.48-20.31,53.57-40.45,.28-1.87,.43-3.77,.43-5.65v-18.9c0-4.79,.18-9.14,.52-12.94,.39-4.26,1.87-8.4,4.28-11.97l72.29-107.35c7.45-7.3,15.63-10.7,25.75-10.7,9.02,0,16.59,2.72,19.46,3.91l92.5,55.12,142.94,83.67c6.89,4.02,13.96,8.5,21.01,13.29,2.89,1.95,5.87,4.03,9.12,6.37,22.21,15.98,39.84,23.42,55.48,23.42,16.67,0,31.29-8.43,39.12-22.56,16.29-29.41,2-66.32-2.77-76.94-.88-2-1.97-3.94-3.22-5.77-3.61-5.3-23.54-32.3-61.58-43.16-6.75-1.92-12.9-4.24-18.28-6.88-2.75-1.35-4.67-3.76-5.26-6.61-1.23-6-.09-10.53,3.91-15.62,1.78-2.26,4.13-4.46,11.38-4.46,7.71,0,15.89,2.83,18.39,3.92,1.01,.46,2.05,.88,3.07,1.25l.3-.83,.12,.03-.29,.84c10.61,3.68,23.88,8.3,36.39,12.69,21.68,7.57,35.38,12.55,43.55,19,7.27,5.74,10.86,12.92,14.19,28.41,.18,1.37,2.66,20.67,3.68,45.43,.33,15.73,.13,31.3-.09,41.6-.1,1.75-.2,3.56-.32,5.33v.07s-.01,4.23-.01,4.23c-.03,1.47-.06,2.87-.09,4.17l-.05,2.58v.05c-.12,5.27-.26,8.89-.6,11.64-.29,2.53-.73,4.4-1.62,6.91-1.25,3.55-3.49,6.43-9.77,14.24l-.61,.76-.34,.42c-.38,.48-.77,.96-1.16,1.45-6.66,8.33-14.83,9.57-19.11,9.57-.19,0-.33,0-.41-.01-1.11-.09-2.14-.14-3.17-.15-1.04,0-15.42-.06-39.24-.16l-10.93-.05-175.58-.72-.02,2,175.59,.72c30.47,.13,48.99,.21,50.16,.21,1.03,.01,2.02,.06,2.99,.14,.09,.01,.31,.02,.61,.02,4.64,0,13.49-1.34,20.67-10.32,.51-.64,1.01-1.26,1.5-1.87l.61-.76c6.43-7.99,8.73-10.95,10.09-14.82,.88-2.48,1.4-4.53,1.73-7.34,.34-2.81,.48-6.37,.61-11.88h0c.04-2,.09-4.24,.14-6.8v-4.16c.13-1.79,.23-3.59,.33-5.39,.24-11.08,.41-26.45,.09-41.76-1.07-25.97-3.71-45.69-3.71-45.69-6.35-29.59-13.76-33.13-59.05-48.96-12.87-4.51-26.04-9.1-36.4-12.69l-.33,.94,.22-.98c-.96-.34-1.95-.74-2.94-1.19-2.59-1.13-11.08-4.09-19.19-4.09s-10.95,2.69-12.95,5.22c-4.36,5.54-5.64,10.7-4.3,17.27,.72,3.46,3.03,6.37,6.34,8,5.46,2.68,11.72,5.04,18.61,7,37.39,10.68,56.94,37.17,60.48,42.37,1.19,1.74,2.21,3.57,3.05,5.46,4.67,10.4,18.67,46.57,2.84,75.15-7.47,13.48-21.44,21.53-37.37,21.53s-32.46-7.32-54.31-23.04c-3.04-2.19-6.09-4.33-9.16-6.4-7.04-4.79-14.11-9.27-21.13-13.37l-142.93-83.66-92.59-55.17-.13-.06c-2.96-1.23-10.87-4.08-20.26-4.08-10.7,0-19.36,3.61-27.23,11.35l-.07,.07-72.4,107.51c-2.6,3.86-4.19,8.33-4.61,12.91-.35,3.84-.53,8.25-.53,13.12v18.9c0,1.8-.14,3.59-.41,5.35-2.96,19.29-20.06,38.75-51.59,38.75-13.76,0-54.47-.62-77.52-.98l-1.06-.03c-1.23-.02-2.43-.1-3.58-.24-7.57-.92-48.27-7.76-106.62-52.07l-36.72-24.48c-10.44-6.96-18.24-16.7-22.55-28.16-5.42-14.39-3.94-29.27,4.05-40.82,6.08-8.77,18.3-19.22,42-19.22h127.16c2.57,0,5.13-.38,7.63-1.12,4.15-1.25,10.36-3.52,16.37-7.22,14.18-8.73,16.48-18.72,16.88-26.37,.85-6.47,.87-11.54,.05-15.05-.71-3-3.39-5.19-6.49-5.33l-51.9-2.41h-105.98c-.72,0-1.46-.03-2.33-.08h-.18c-.54-.03-2.18-.1-4.59-.1-10.77,0-47.97,1.45-74.66,20.06-29.47,20.56-34.24,52.27-34.26,52.55l-.26,2.12-.19,.68-.02,.12c-.29,1.98-1.07,9.12,.85,17.72,2.6,11.64,8.97,20.79,19.49,27.99,25.93,17.74,44.43,23.15,56.68,26.73,9.33,2.73,18.15,5.31,26.12,12.15,18.69,16.08,24.64,34.86,22.74,71.78-.02,.35-.03,.68-.04,.97l-.03,1.06,.91,.1c.86,.1,1.69,.15,2.55,.15,10.16,0,342.38,1.35,485.97,1.94l.02-2c-126.06-.52-475.4-1.94-485.99-1.94-.47,0-.93-.02-1.4-.05Zm-50.28-86.08c-12.13-3.54-30.45-8.89-56.12-26.46-10.08-6.9-16.18-15.66-18.67-26.78-1.85-8.27-1.1-15.05-.82-16.97l.16-.57,.04-.15,.02-.15,.26-2.12h0c.11-.74,5.11-31.4,33.41-51.15,26.22-18.28,62.9-19.7,73.52-19.7,2.18,0,3.71,.06,4.36,.08h.16s.14,.02,.14,.02c1.01,.06,1.74,.08,2.44,.08h105.93l51.86,2.41c2.22,.1,4.13,1.66,4.63,3.79,.77,3.26,.74,8.09-.08,14.33v.08s-.02,.08-.02,.08c-.37,7.19-2.52,16.51-15.93,24.77-5.83,3.59-11.86,5.79-15.9,7-2.31,.69-4.69,1.04-7.05,1.04h-127.16c-24.57,0-37.29,10.92-43.64,20.08-8.38,12.1-9.94,27.65-4.28,42.67,4.46,11.85,12.52,21.92,23.31,29.11l8.49,5.66c-6.06-3.34-12.43-5.21-19.06-7.15Z"/><g id="Start_Line"><polygon points="652.56 657.92 663.34 646.95 666.04 649.6 657.92 657.87 666.19 666 663.54 668.7 652.56 657.92"/><polygon points="650.76 666.18 648.11 668.89 640.48 661.39 637.14 658.11 647.92 647.13 650.61 649.79 642.49 658.07 643.73 659.28 650.76 666.18"/><polygon points="635.35 666.37 632.69 669.07 631.09 667.51 621.72 658.29 632.5 647.33 635.2 649.97 627.07 658.25 634.35 665.39 635.35 666.37"/></g><polyline points="677.19 606.14 676.96 637.8 676.96 639.17 676.95 640.98 676.91 645.79 676.75 668.7 672.67 668.67 670.55 668.65 670.71 645.83 670.74 640.95 670.75 638.86 670.76 637.83 670.98 606.17 670.99 605.95 671 605.64 675.06 605.67 677.2 605.68"/><path class="cls-3" d="M981.17,561.09h-.52c-1.72,31.49-7.47,38.66-20.37,54.71l-2.06,2.58c-16.4,20.49-37.94,22.7-46.44,22.7-1.82,0-3.02-.1-3.55-.14-.09-.02-.17-.02-.24-.02-.99,0-16.41-.07-42.12-.17l-183.72-.76,.28-33,175.59,.72c30.47,.13,48.99,.21,50.16,.21,1.03,.01,2.02,.06,2.99,.14,.09,.01,.31,.02,.61,.02,4.64,0,13.49-1.34,20.67-10.32,.51-.64,1.01-1.26,1.5-1.87l.61-.76c6.43-7.99,8.73-10.95,10.09-14.82,.88-2.48,1.4-4.53,1.73-7.34,.34-2.81,.48-6.37,.61-11.88h0c.04-2,.09-4.24,.14-6.8v-4.16c.13-1.79,.23-3.59,.33-5.39,.24-11.08,.41-26.45,.09-41.76-1.07-25.97-3.71-45.69-3.71-45.69-6.35-29.59-13.76-33.13-59.05-48.96-12.87-4.51-26.04-9.1-36.4-12.69l-.33,.94,.22-.98c-.96-.34-1.95-.74-2.94-1.19-2.59-1.13-11.08-4.09-19.19-4.09s-10.95,2.69-12.95,5.22c-4.36,5.54-5.64,10.7-4.3,17.27,.72,3.46,3.03,6.37,6.34,8,5.46,2.68,11.72,5.04,18.61,7,37.39,10.68,56.94,37.17,60.48,42.37,1.19,1.74,2.21,3.57,3.05,5.46,4.67,10.4,18.67,46.57,2.84,75.15-7.47,13.48-21.44,21.53-37.37,21.53s-32.46-7.32-54.31-23.04c-3.04-2.19-6.09-4.33-9.16-6.4l17.06-28.31c3.8,2.55,7.6,5.2,11.38,7.92,10.66,7.68,25.4,16.83,35.03,16.83,3.97,0,6.84-1.53,8.5-4.53,8.81-15.9-2.74-42.66-4.08-45.65-.05-.1-.1-.2-.2-.37-1.5-2.19-15.36-21.54-42.3-29.23-8.8-2.52-16.91-5.59-24.09-9.12-12.54-6.17-21.33-17.46-24.11-30.98-3.32-16.18,.29-31.09,10.72-44.32,9.3-11.81,22.38-17.8,38.86-17.8,8.63,0,16.69,1.7,22.68,3.43s9.89,3.49,10.21,3.64l1.34,.47c4.6,1.6,10.56,3.68,17.19,5.99,0,0,85.43,17.15,92.6,47.85,4.84,20.74,8.88,58.53,10.51,93.97,.4,1.56,.53,2.69,.48,3.07,0,.05,0,.11-.02,.17v8.35c.42,13.3,.46,25.94,.03,36.83Z"/><path class="cls-7" d="M816.44,514.57l-17.06,28.31c-7.04-4.79-14.11-9.27-21.13-13.37l-142.93-83.66-92.59-55.17-.13-.06c-2.96-1.23-10.87-4.08-20.26-4.08-10.7,0-19.36,3.61-27.23,11.35l-.07,.07-72.4,107.51c-2.6,3.86-4.19,8.33-4.61,12.91-.35,3.84-.53,8.25-.53,13.12v18.9c0,1.8-.14,3.59-.41,5.35-2.96,19.29-20.06,38.75-51.59,38.75-13.76,0-54.47-.62-77.52-.98l-1.06-.03c-1.23-.02-2.43-.1-3.58-.24-7.57-.92-48.27-7.76-106.62-52.07l-36.72-24.48c-10.44-6.96-18.24-16.7-22.55-28.16-5.42-14.39-3.94-29.27,4.05-40.82,6.08-8.77,18.3-19.22,42-19.22h127.16c2.57,0,5.13-.38,7.63-1.12,4.15-1.25,10.36-3.52,16.37-7.22,14.18-8.73,16.48-18.72,16.88-26.37,.85-6.47,.87-11.54,.05-15.05-.71-3-3.39-5.19-6.49-5.33l-51.9-2.41h-4.98l.56-33h5.17l54.55,2.5h.13c1.4,0,13.95,.3,23.83,10.72,9.04,9.52,13.09,24.4,12.04,44.23-2.53,48.14-49.57,62.25-64.02,65.44l-5.56,.61H163.5c-7.56,0-12.56,1.68-14.86,5-1.82,2.62-1.92,6.13-.31,10.42,1.87,4.96,5.32,9.22,9.99,12.32l37.59,25.07,.08,.06c46.08,35.16,79.23,43.79,88.39,45.61l5.18,.55c15.18,.25,61.71,.97,75.94,.97,16.77,0,18.8-9.64,18.98-10.74,.01-.11,.02-.23,.02-.36v-18.9c0-28.04,4.98-36.09,5.99-37.44,.25-.35,.5-.69,.77-1.06l77.94-115.76,.11-.14c14.56-15.63,32.4-23.56,53.03-23.56,19.45,0,34.32,7.16,35.59,7.79,.03,.02,.05,.03,.07,.04l93.99,55.99,142.94,83.67c7.13,4.17,14.33,8.7,21.51,13.54Z"/><path class="cls-4" d="M665.98,606.94l-.24,33c-177.73-.73-476.04-1.94-485.74-1.94-6.93,0-19.81-1.33-28.26-10.23-5.96-6.27-8.68-15.27-8.09-26.75,1.62-31.48-3.42-38.28-11.3-45.06-2.55-2.19-7.04-3.5-13.85-5.49-13.38-3.91-35.79-10.46-66.06-31.18-44.04-30.12-34.14-79.21-34.02-79.79,.06-.46,6.04-46.3,48.15-75.68,33.65-23.47,76.63-26,93.55-26,3.46,0,5.81,.11,6.91,.18h101.75l-.56,33h-101c-.72,0-1.46-.03-2.33-.08h-.18c-.54-.03-2.18-.1-4.59-.1-10.77,0-47.97,1.45-74.66,20.06-29.47,20.56-34.24,52.27-34.26,52.55l-.26,2.12-.19,.68-.02,.12c-.29,1.98-1.07,9.12,.85,17.72,2.6,11.64,8.97,20.79,19.49,27.99,25.93,17.74,44.43,23.15,56.68,26.73,9.33,2.73,18.15,5.31,26.12,12.15,18.69,16.08,24.64,34.86,22.74,71.78-.02,.35-.03,.68-.04,.97l-.03,1.06,.91,.1c.86,.1,1.69,.15,2.55,.15,10.16,0,342.4,1.35,485.98,1.94Z"/><polygon points="665.98 606.94 665.74 639.94 665.59 639.94 665.97 606.94 665.98 606.94"/><path d="M964.55,466.38c-.12-1.49-.23-2.98-.35-4.48-.31-4.01-.63-8.15-1.09-12.22l-.05-.49c-1.14-10.13-3.82-33.87-41.88-47.57-49.51-17.83-87.79-27.95-88.17-28.05l-.14-.04c-.26-.04-25.99-4.59-36.15,15.05-10.2,19.72-7.3,36.78,7.77,45.64,4.48,2.64,10.47,4.94,17.39,7.6,19.2,7.37,45.5,17.46,57.81,43.53,13.06,27.65,8.36,50.16,4.09,58.13-.49,.83-12.32,20.1-34.27,7.29-23.72-13.83-145.76-86.26-147-86.99l-125.59-73.72c-6.26-3.68-11.69-7.15-16.57-10.61-8.02-5.67-24.67-14.63-46.19-10.92-30.92,5.33-41.11,24.32-51.88,44.44l-54.94,81.92-.13,.22c-.46,.91-11.22,22.79-9.2,49.04,.69,8.98-1.27,16.42-5.81,22.1-3.77,4.72-9.52,7.73-15.76,8.26-10.33,.86-31,2.21-53.38,1.49-4.78-.15-9.34-.17-13.74-.18-23.87-.06-44.49-.12-81.25-23.51-38.41-24.44-66.34-43.3-76.56-50.27-5.87-4-10.76-8.81-14.53-14.29-3.25-4.73-6.85-11.66-5.52-17.83,2.41-11.28,7.73-22.38,43.1-23.42,26.71-.79,86.17-.34,110.5-.11,9.08,.07,17.97-1.44,26.33-4.53,10.49-3.89,24.35-10.74,30.82-21.32,9.42-15.42,8.91-44.45,7.27-49.7-4.21-13.62-33.29-16.95-56.95-17.34-14.74-.25-29.05-.8-42.89-1.33-42.82-1.65-83.27-3.22-129.46,4.36-32.12,5.26-52.31,22.45-63.59,35.94-11.62,13.9-16.33,26.53-16.92,28.22-1.54,2.82-20.51,39.32,2.31,66.11,22.93,26.92,38.07,33.27,68.24,45.91l1.51,.63c5.96,2.51,11.14,4.5,15.71,6.25,19.04,7.33,25.45,9.8,28.09,25.25,2.67,15.65,2.05,37.33,1.98,39.42-.23,1.18-.94,6.42,2.99,11.35,4.88,6.11,14.66,9.1,29,8.89l476.26,.69,.05-4-476.34-.69c-16.24,.25-22.98-3.85-25.79-7.32-3.17-3.92-2.27-8.05-2.24-8.21l.06-.4c.03-.95,.84-23.61-2.03-40.41-3.02-17.69-11.09-20.8-30.6-28.3-4.54-1.75-9.69-3.73-15.6-6.2l-1.5-.64c-29.58-12.4-44.43-18.62-66.75-44.82-21.8-25.59-1.98-61.36-1.78-61.71l.15-.35c.05-.13,4.58-13.17,16.37-27.23,10.84-12.92,30.23-29.38,61.06-34.44,45.8-7.5,86.05-5.95,128.67-4.3,13.86,.53,28.19,1.08,42.98,1.33,31.11,.52,50.49,5.81,53.19,14.52l.03,.1c1.14,3.64,2.15,31.53-6.9,46.34-5.86,9.6-18.89,15.98-28.79,19.65-7.9,2.92-16.25,4.38-24.9,4.28-24.35-.23-83.88-.68-110.66,.11-34.41,1.01-43.63,11.36-46.9,26.58-1.3,6.07,.77,13.11,6.15,20.93,4.05,5.89,9.28,11.05,15.57,15.33,10.24,6.99,38.2,25.87,76.67,50.35,37.73,24.01,58.88,24.07,83.38,24.13,4.37,.01,8.9,.03,13.63,.18,22.57,.73,43.42-.63,53.83-1.51,7.34-.61,14.1-4.16,18.55-9.74,5.2-6.5,7.44-14.88,6.67-24.9-1.86-24.21,7.94-45.18,8.75-46.85l54.92-81.89,.1-.17c12.47-23.31,22-37.8,49.08-42.47,20.09-3.46,35.69,4.93,43.2,10.25,4.98,3.52,10.49,7.05,16.86,10.79l125.58,73.71c1.23,.73,123.28,73.16,147.01,87.01,25.42,14.83,39.59-8.48,39.77-8.78,.55-1.01,13.28-25.31-3.95-61.8-13-27.53-40.16-37.95-59.99-45.57-6.76-2.59-12.6-4.83-16.81-7.3-6.25-3.68-19.37-14.97-6.23-40.36,8.55-16.54,30.45-13.19,31.79-12.96,1.99,.52,39.51,10.55,87.75,27.92,35.73,12.86,38.11,34.07,39.26,44.26l.06,.49c.45,4,.77,8.1,1.07,12.08,.12,1.5,.23,3,.36,4.49,1.61,19.75,2.7,58.88,.43,104.2-.73,14.59-6.12,26.49-16.03,35.37-12.93,11.58-33.37,17.44-56.05,16.08-12.5-.75-25-.87-36.65-.89l-169.96-.25-.03,4,169.98,.25c11.59,.02,24.03,.14,36.41,.88,2.24,.14,4.45,.2,6.65,.2,21.08,0,39.89-6.16,52.32-17.29,10.73-9.62,16.57-22.45,17.36-38.15,2.27-45.51,1.18-84.86-.45-104.72Z"/><path class="cls-5" d="M851.21,586.37c-1.11,0-2.25-.05-3.38-.15l.77-8.97c.88,.08,1.75,.11,2.6,.11v9Zm3.44-.16l-.87-8.96c1.09-.11,1.92-.26,2.42-.37l1.95,8.79c-1.09,.24-2.27,.43-3.5,.55Zm-10.14-.41c-1.08-.18-2.18-.41-3.26-.67l2.13-8.74c.87,.21,1.75,.39,2.61,.54l-1.48,8.88Zm-6.45-1.56c-1.03-.33-2.07-.7-3.1-1.09l3.27-8.39c.85,.33,1.71,.63,2.56,.9l-2.73,8.58Zm-6.1-2.37c-.97-.44-1.95-.93-2.91-1.44l4.21-7.96c.82,.43,1.65,.84,2.46,1.22l-3.76,8.18Zm-5.73-3.02c-.91-.54-1.82-1.12-2.72-1.71l4.98-7.5c.78,.52,1.57,1.02,2.35,1.48l-4.61,7.73Zm-5.21-3.38c-.78-.52-1.61-1.06-2.49-1.63l4.91-7.54c.89,.58,1.74,1.14,2.54,1.67l-4.97,7.5Zm-4.99-3.25c-.81-.52-1.65-1.06-2.51-1.61l4.84-7.58c.88,.56,1.72,1.1,2.54,1.63l-4.88,7.57Zm-5.03-3.21l-2.53-1.6,4.8-7.61,2.55,1.61-4.82,7.6Zm-5.07-3.19l-2.54-1.59,4.76-7.64,2.56,1.6-4.79,7.62Zm-5.08-3.17l-2.55-1.58,4.74-7.65,2.56,1.59-4.75,7.65Zm-5.1-3.16l-2.55-1.57,4.72-7.67,2.56,1.58-4.73,7.66Zm-5.1-3.14l-2.56-1.57,4.7-7.67,2.56,1.57-4.7,7.67Zm-5.11-3.13l-2.56-1.56,4.68-7.69,2.57,1.57-4.69,7.68Zm-5.12-3.12l-2.56-1.56,4.67-7.69,2.57,1.56-4.68,7.69Zm-5.13-3.11l-2.56-1.55,4.65-7.7,2.57,1.56-4.67,7.7Zm-5.13-3.1l-2.58-1.55,4.64-7.71,2.58,1.55-4.65,7.71Zm-5.15-3.1l-2.57-1.54,4.63-7.72,2.58,1.55-4.63,7.71Zm-5.14-3.08l-2.56-1.53,4.62-7.73,2.57,1.54-4.63,7.72Zm-5.13-3.07l-2.58-1.54,4.61-7.73,2.58,1.54-4.61,7.73Zm-5.16-3.07l-2.58-1.53,4.59-7.74,2.58,1.53-4.6,7.74Zm-5.16-3.06l-2.58-1.53,4.58-7.75,2.59,1.53-4.59,7.74Zm-5.16-3.05l-2.58-1.52,4.57-7.76,2.59,1.53-4.57,7.75Zm-5.17-3.04l-2.58-1.51,4.55-7.77,2.6,1.52-4.56,7.76Zm-5.17-3.02l-2.59-1.51,4.53-7.78,2.6,1.51-4.54,7.77Zm-5.18-3.02l-2.59-1.5,4.5-7.8,2.61,1.51-4.51,7.79Zm-5.2-3l-2.6-1.51,4.51-7.79,2.6,1.51-4.51,7.79Zm-5.21-3.02l-2.6-1.51,4.52-7.79,2.6,1.51-4.52,7.79Zm-5.2-3.02l-2.57-1.49,4.48-7.8,2.6,1.51-4.51,7.79Zm-5.21-3.02l-2.6-1.51,4.52-7.78,2.6,1.51-4.52,7.78Zm-5.19-3.02l-2.6-1.51,4.52-7.78,2.6,1.51-4.52,7.78Zm-5.2-3.02l-2.6-1.51,4.53-7.78,2.6,1.51-4.52,7.78Zm-5.19-3.02l-2.6-1.51,4.52-7.78,2.6,1.51-4.53,7.78Zm-5.19-3.02l-2.6-1.51,4.53-7.78,2.59,1.51-4.52,7.78Zm-5.2-3.02l-2.59-1.51,4.53-7.78,2.6,1.51-4.53,7.78Zm-5.19-3.02l-2.6-1.51,4.53-7.78,2.6,1.51-4.53,7.78Zm-5.19-3.02l-2.6-1.51,4.52-7.78,2.6,1.51-4.53,7.78Zm-5.19-3.02l-2.6-1.51,4.53-7.78,2.6,1.51-4.53,7.78Zm-5.19-3.02l-2.59-1.51,4.53-7.78,2.6,1.51-4.53,7.78Zm-5.19-3.02l-2.59-1.51,4.53-7.78,2.6,1.51-4.53,7.78Zm-5.19-3.02l-2.59-1.51,4.53-7.78,2.6,1.51-4.53,7.78Zm-5.19-3.02l-2.59-1.51,4.53-7.78,2.6,1.51-4.53,7.78Zm-5.19-3.02l-2.59-1.51,4.53-7.78,2.59,1.51-4.53,7.78Zm-5.19-3.02l-2.61-1.52,4.53-7.78,2.6,1.52-4.53,7.78Zm-5.21-3.03l-2.59-1.51,4.53-7.78,2.6,1.51-4.53,7.78Zm-5.19-3.02l-2.58-1.51,4.53-7.78,2.59,1.51-4.53,7.78Zm-5.18-3.02l-2.59-1.51,4.53-7.78,2.6,1.51-4.53,7.78Zm-5.19-3.02l-2.6-1.51,4.53-7.78,2.59,1.51-4.53,7.78Zm-5.19-3.02l-2.59-1.51,4.53-7.78,2.59,1.51-4.53,7.78Zm-5.19-3.02l-2.59-1.51,4.53-7.78,2.6,1.51-4.53,7.77Zm-5.19-3.02l-2.59-1.51,4.53-7.78,2.6,1.51-4.54,7.77Zm-5.19-3.02l-2.59-1.51,4.53-7.78,2.6,1.51-4.53,7.78Zm-5.19-3.02l-2.59-1.51,4.53-7.78,2.6,1.51-4.54,7.77Zm-5.19-3.02l-2.6-1.51,4.53-7.78,2.59,1.51-4.53,7.78Zm-5.19-3.03l-2.59-1.51,4.53-7.78,2.59,1.51-4.53,7.78Zm-5.19-3.02l-2.6-1.51,4.53-7.78,2.59,1.51-4.53,7.78Zm-5.19-3.03l-2.6-1.51,4.53-7.78,2.6,1.51-4.53,7.78Zm-5.19-3.03l-2.6-1.51,4.53-7.78,2.6,1.51-4.53,7.78Zm-5.19-3.03l-2.6-1.51,4.53-7.78,2.6,1.51-4.53,7.78Zm-5.2-3.03l-2.6-1.52,4.53-7.78,2.6,1.51-4.53,7.78Zm-5.21-3.03l-2.6-1.52,4.53-7.78,2.61,1.52-4.53,7.77Zm-5.22-3.04l-2.63-1.53,4.53-7.78,2.63,1.53-4.54,7.77Z"/><path class="cls-5" d="M889.5,654h-3v-9h3v9Zm-6,0h-3v-9h3v9Zm-6,0h-3v-9h3v9Zm-6,0h-3v-9h3v9Zm-6,0h-3v-9h3v9Zm-6,0h-3v-9h3v9Zm-6,0h-3v-9h3v9Zm-6,0h-3v-9h3v9Zm-6,0h-3v-9h3v9Zm-6,0h-3v-9h3v9Zm-6,0h-3v-9h3v9Zm-6,0h-3v-9h3v9Zm-6,0h-3v-9h3v9Zm-6,0h-3v-9h3v9Zm-6,0h-3v-9h3v9Zm-6,0h-3v-9h3v9Zm-6,0h-3v-9h3v9Zm-6,0h-3v-9h3v9Zm-6,0h-3v-9h3v9Zm-6,0h-3v-9h3v9Zm-6,0h-3v-9h3v9Zm-6,0h-3v-9h3v9Zm-6,0h-3v-9h3v9Zm-6,0h-3v-9h3v9Zm-6,0h-3v-9h3v9Zm-6,0h-3v-9h3v9Zm-6,0h-3v-9h3v9Zm-6,0h-3v-9h3v9Zm-6,0h-3v-9h3v9Zm-6,0h-3v-9h3v9Zm-6,0h-3v-9h3v9Zm-6,0h-3v-9h3v9Zm-6,0h-3v-9h3v9Zm-6,0h-3v-9h3v9Zm-6,0h-3v-9h3v9Z"/><path class="cls-5" d="M612.49,654h-3s.02-9.01,.02-9.01h3s-.02,9.01-.02,9.01Zm-6-.01h-3s.02-9.01,.02-9.01h3s-.02,9.01-.02,9.01Zm-6-.01h-3s.02-9.01,.02-9.01h3s-.02,9.01-.02,9.01Zm-6-.01h-3s.02-9.01,.02-9.01h3s-.02,9.01-.02,9.01Zm-6-.01h-3s.02-9.01,.02-9.01h3s-.02,9.01-.02,9.01Zm-6-.01h-3s.02-9.01,.02-9.01h3s-.02,9.01-.02,9.01Zm-6-.01h-3s.02-9.01,.02-9.01h3s-.02,9.01-.02,9.01Zm-6-.01h-3s.02-9.01,.02-9.01h3s-.02,9.01-.02,9.01Zm-6-.01h-3s.02-9.01,.02-9.01h3s-.02,9.01-.02,9.01Zm-6-.01h-3s.02-9.01,.02-9.01h3s-.02,9.01-.02,9.01Zm-6-.01h-3s.02-9.01,.02-9.01h3s-.02,9.01-.02,9.01Zm-6-.01h-3s.02-9.01,.02-9.01h3s-.02,9.01-.02,9.01Zm-6-.01h-3s.02-9.01,.02-9.01h3s-.02,9.01-.02,9.01Zm-6-.01h-3s.02-9.01,.02-9.01h3s-.02,9.01-.02,9.01Zm-6-.01h-3s.02-9.01,.02-9.01h3s-.02,9.01-.02,9.01Zm-6-.01h-3s.02-9.01,.02-9.01h3s-.02,9.01-.02,9.01Zm-6-.01h-3s.02-9.01,.02-9.01h3s-.02,9.01-.02,9.01Zm-6-.01h-3s.02-9.01,.02-9.01h3s-.02,9.01-.02,9.01Zm-6-.01h-3s.02-9.01,.02-9.01h3s-.02,9.01-.02,9.01Zm-6-.01h-3s.02-9.01,.02-9.01h3s-.02,9.01-.02,9.01Zm-6-.01h-3s.02-9.01,.02-9.01h3s-.02,9.01-.02,9.01Zm-6-.01h-3s.02-9.01,.02-9.01h3s-.02,9.01-.02,9.01Zm-6-.01h-3s.02-9.01,.02-9.01h3s-.02,9.01-.02,9.01Zm-6-.01h-3s.02-9.01,.02-9.01h3s-.02,9.01-.02,9.01Zm-6-.01h-3s.02-9.01,.02-9.01h3s-.02,9.01-.02,9.01Zm-6-.01h-3s.02-9.01,.02-9.01h3s-.02,9.01-.02,9.01Zm-6-.01h-3s.02-9.01,.02-9.01h3s-.02,9.01-.02,9.01Zm-6-.01h-3s.02-9.01,.02-9.01h3s-.02,9.01-.02,9.01Zm-6-.01h-3s.02-9.01,.02-9.01h3s-.02,9.01-.02,9.01Zm-6-.01h-3s.02-9.01,.02-9.01h3s-.02,9.01-.02,9.01Zm-6-.01h-3s.02-9.01,.02-9.01h3s-.02,9.01-.02,9.01Zm-6-.01h-3s.02-9.01,.02-9.01h3s-.02,9.01-.02,9.01Zm-6-.01h-3s.02-9.01,.02-9.01h3s-.02,9.01-.02,9.01Zm-6-.01h-3s.02-9.01,.02-9.01h3s-.02,9.01-.02,9.01Zm-6-.01h-3s.02-9.01,.02-9.01h3s-.02,9.01-.02,9.01Zm-6-.01h-3s.02-9.01,.02-9.01h3s-.02,9.01-.02,9.01Zm-6-.01h-3s.02-9.01,.02-9.01h3s-.02,9.01-.02,9.01Zm-6-.01h-3s.02-9.01,.02-9.01h3s-.02,9.01-.02,9.01Zm-6-.01h-3s.02-9.01,.02-9.01h3s-.02,9.01-.02,9.01Zm-6-.01h-3s.02-9.01,.02-9.01h3s-.02,9.01-.02,9.01Zm-6-.01h-3s.02-9.01,.02-9.01h3s-.02,9.01-.02,9.01Zm-6-.01h-3s.02-9.01,.02-9.01h3s-.02,9.01-.02,9.01Zm-6-.01h-3s.02-9.01,.02-9.01h3s-.02,9.01-.02,9.01Zm-6-.01h-3s.02-9.01,.02-9.01h3s-.02,9.01-.02,9.01Zm-6-.01h-3s.02-9.01,.02-9.01h3s-.02,9.01-.02,9.01Zm-6-.01h-3s.02-9.01,.02-9.01h3s-.02,9.01-.02,9.01Zm-6-.01h-3s.02-9.01,.02-9.01h3s-.02,9.01-.02,9.01Zm-6-.01h-3s.02-9.01,.02-9.01h3s-.02,9.01-.02,9.01Zm-6-.01h-3s.02-9.01,.02-9.01h3s-.02,9.01-.02,9.01Zm-6-.01h-3s.02-9.01,.02-9.01h3s-.02,9.01-.02,9.01Zm-6-.01h-3s.02-9.01,.02-9.01h3s-.02,9.01-.02,9.01Zm-6-.01h-3s.02-9.01,.02-9.01h3s-.02,9.01-.02,9.01Zm-6-.01h-3s.02-9.01,.02-9.01h3s-.02,9.01-.02,9.01Zm-6-.01h-3s.02-9.01,.02-9.01h3s-.02,9.01-.02,9.01Zm-6-.01h-3s.02-9.01,.02-9.01h3s-.02,9.01-.02,9.01Zm-6-.01h-3s.02-9.01,.02-9.01h3s-.02,9.01-.02,9.01Zm-6-.01h-3s.02-9.01,.02-9.01h3s-.02,9.01-.02,9.01Zm-6-.01h-3s.02-9.01,.02-9.01h3s-.02,9.01-.02,9.01Zm-6-.01h-3s.02-9.01,.02-9.01h3s-.02,9.01-.02,9.01Zm-6-.01h-3s.02-9.01,.02-9.01h3s-.02,9.01-.02,9.01Zm-6-.01h-3s.02-9.01,.02-9.01h3s-.02,9.01-.02,9.01Zm-6-.01h-3s.02-9.01,.02-9.01h3s-.02,9.01-.02,9.01Zm-6-.01h-3s.02-9.01,.02-9.01h3s-.02,9.01-.02,9.01Zm-6-.01h-3s.02-9.01,.02-9.01h3s-.02,9.01-.02,9.01Zm-6-.01h-3s.02-9.01,.02-9.01h3s-.02,9.01-.02,9.01Zm-6-.01h-3s.02-9.01,.02-9.01h3s-.02,9.01-.02,9.01Zm-6-.01h-3s.02-9.01,.02-9.01h3s-.02,9.01-.02,9.01Zm-6-.01h-3s.02-9.01,.02-9.01h3s-.02,9.01-.02,9.01Zm-6-.01h-3s.02-9.01,.02-9.01h3s-.02,9.01-.02,9.01Zm-6-.01h-3s.02-9.01,.02-9.01h3s-.02,9.01-.02,9.01Zm-6-.01h-3s.02-9.01,.02-9.01h3s-.02,9.01-.02,9.01Zm-6-.01h-3s.02-9.01,.02-9.01h3s-.02,9.01-.02,9.01Zm-6-.01h-3s.02-9.01,.02-9.01h3s-.02,9.01-.02,9.01Zm-6-.01h-3s.02-9.01,.02-9.01h3s-.02,9.01-.02,9.01Zm-6-.01h-3s.02-9.01,.02-9.01h3s-.02,9.01-.02,9.01Z"/><circle class="cls-6" cx="445" cy="442" r="10"/><circle class="cls-6" cx="963" cy="566" r="10"/><g id="_1"><g><circle cx="145.1" cy="639.53" r="11.47"/><path d="M145.1,629.06c5.78,0,10.47,4.69,10.47,10.47s-4.69,10.47-10.47,10.47-10.47-4.69-10.47-10.47,4.69-10.47,10.47-10.47m0-2c-6.88,0-12.47,5.59-12.47,12.47s5.59,12.47,12.47,12.47,12.47-5.59,12.47-12.47-5.59-12.47-12.47-12.47h0Z"/></g><text class="cls-1" transform="translate(136.9 643.67)"><tspan x="0" y="0">01</tspan></text></g><g id="_1-2"><g><circle cx="128.1" cy="570.53" r="11.47"/><path d="M128.1,560.06c5.78,0,10.47,4.69,10.47,10.47s-4.69,10.47-10.47,10.47-10.47-4.69-10.47-10.47,4.69-10.47,10.47-10.47m0-2c-6.88,0-12.47,5.59-12.47,12.47s5.59,12.47,12.47,12.47,12.47-5.59,12.47-12.47-5.59-12.47-12.47-12.47h0Z"/></g><text class="cls-1" transform="translate(119.9 574.67)"><tspan x="0" y="0">02</tspan></text></g><g id="_1-3"><g><circle cx="63.1" cy="456.53" r="11.47"/><path d="M63.1,446.06c5.78,0,10.47,4.69,10.47,10.47s-4.69,10.47-10.47,10.47-10.47-4.69-10.47-10.47,4.69-10.47,10.47-10.47m0-2c-6.88,0-12.47,5.59-12.47,12.47s5.59,12.47,12.47,12.47,12.47-5.59,12.47-12.47-5.59-12.47-12.47-12.47h0Z"/></g><text class="cls-1" transform="translate(54.9 460.67)"><tspan x="0" y="0">03</tspan></text></g><g id="_1-4"><g><circle cx="372.1" cy="359.53" r="11.47"/><path d="M372.1,349.06c5.78,0,10.47,4.69,10.47,10.47s-4.69,10.47-10.47,10.47-10.47-4.69-10.47-10.47,4.69-10.47,10.47-10.47m0-2c-6.88,0-12.47,5.59-12.47,12.47s5.59,12.47,12.47,12.47,12.47-5.59,12.47-12.47-5.59-12.47-12.47-12.47h0Z"/></g><text class="cls-1" transform="translate(363.9 363.67)"><tspan x="0" y="0">04</tspan></text></g><g id="_1-5"><g><path d="M161.1,486c-6.01,0-10.83-4.78-11.47-11.38-.29-3.03,.57-5.74,2.48-7.85,2.15-2.36,5.42-3.72,8.99-3.72,6.33,0,11.47,5.15,11.47,11.47s-5.15,11.47-11.47,11.47Z"/><path d="M161.1,464.06c5.78,0,10.47,4.69,10.47,10.47s-4.69,10.47-10.47,10.47-9.92-4.71-10.47-10.47c-.63-6.53,4.69-10.47,10.47-10.47m0-2c-3.84,0-7.39,1.48-9.73,4.05-2.11,2.32-3.06,5.3-2.74,8.61,.68,7.12,5.92,12.28,12.46,12.28,6.88,0,12.47-5.59,12.47-12.47s-5.59-12.47-12.47-12.47h0Z"/></g><text class="cls-1" transform="translate(152.9 478.67)"><tspan x="0" y="0">05</tspan></text></g><g id="_1-6"><g><circle cx="281.1" cy="546.53" r="11.47"/><path d="M281.1,536.06c5.78,0,10.47,4.69,10.47,10.47s-4.69,10.47-10.47,10.47-10.47-4.69-10.47-10.47,4.69-10.47,10.47-10.47m0-2c-6.88,0-12.47,5.59-12.47,12.47s5.59,12.47,12.47,12.47,12.47-5.59,12.47-12.47-5.59-12.47-12.47-12.47h0Z"/></g><text class="cls-1" transform="translate(272.9 550.67)"><tspan x="0" y="0">06</tspan></text></g><g id="_1-7"><g><circle cx="417.1" cy="584.53" r="11.47"/><path d="M417.1,574.06c5.78,0,10.47,4.69,10.47,10.47s-4.69,10.47-10.47,10.47-10.47-4.69-10.47-10.47,4.69-10.47,10.47-10.47m0-2c-6.88,0-12.47,5.59-12.47,12.47s5.59,12.47,12.47,12.47,12.47-5.59,12.47-12.47-5.59-12.47-12.47-12.47h0Z"/></g><text class="cls-1" transform="translate(408.9 588.67)"><tspan x="0" y="0">01</tspan></text></g><g id="_1-8"><g><circle cx="373.1" cy="505.53" r="11.47"/><path d="M373.1,495.06c5.78,0,10.47,4.69,10.47,10.47s-4.69,10.47-10.47,10.47-10.47-4.69-10.47-10.47,4.69-10.47,10.47-10.47m0-2c-6.88,0-12.47,5.59-12.47,12.47s5.59,12.47,12.47,12.47,12.47-5.59,12.47-12.47-5.59-12.47-12.47-12.47h0Z"/></g><text class="cls-1" transform="translate(364.9 509.67)"><tspan x="0" y="0">07</tspan></text></g><g id="_1-9"><g><circle cx="518.1" cy="340.53" r="11.47"/><path d="M518.1,330.06c5.78,0,10.47,4.69,10.47,10.47s-4.69,10.47-10.47,10.47-10.47-4.69-10.47-10.47,4.69-10.47,10.47-10.47m0-2c-6.88,0-12.47,5.59-12.47,12.47s5.59,12.47,12.47,12.47,12.47-5.59,12.47-12.47-5.59-12.47-12.47-12.47h0Z"/></g><text class="cls-1" transform="translate(509.9 344.67)"><tspan x="0" y="0">08</tspan></text></g><g id="_1-10"><g><circle cx="862.1" cy="527.53" r="11.47"/><path d="M862.1,517.06c5.78,0,10.47,4.69,10.47,10.47s-4.69,10.47-10.47,10.47-10.47-4.69-10.47-10.47,4.69-10.47,10.47-10.47m0-2c-6.88,0-12.47,5.59-12.47,12.47s5.59,12.47,12.47,12.47,12.47-5.59,12.47-12.47-5.59-12.47-12.47-12.47h0Z"/></g><text class="cls-1" transform="translate(853.9 531.67)"><tspan x="0" y="0">09</tspan></text></g><g id="_1-11"><g><circle cx="847.1" cy="485.53" r="11.47"/><path d="M847.1,475.06c5.78,0,10.47,4.69,10.47,10.47s-4.69,10.47-10.47,10.47-10.47-4.69-10.47-10.47,4.69-10.47,10.47-10.47m0-2c-6.88,0-12.47,5.59-12.47,12.47s5.59,12.47,12.47,12.47,12.47-5.59,12.47-12.47-5.59-12.47-12.47-12.47h0Z"/></g><text class="cls-1" transform="translate(838.9 489.67)"><tspan x="0" y="0">10</tspan></text></g><g id="_1-12"><g><circle cx="764.1" cy="394.53" r="11.47"/><path d="M764.1,384.06c5.78,0,10.47,4.69,10.47,10.47s-4.69,10.47-10.47,10.47-10.47-4.69-10.47-10.47,4.69-10.47,10.47-10.47m0-2c-6.88,0-12.47,5.59-12.47,12.47s5.59,12.47,12.47,12.47,12.47-5.59,12.47-12.47-5.59-12.47-12.47-12.47h0Z"/></g><text class="cls-1" transform="translate(755.9 398.67)"><tspan x="0" y="0">11</tspan></text></g><g id="_1-13"><g><circle cx="984.1" cy="421.53" r="11.47"/><path d="M984.1,411.06c5.78,0,10.47,4.69,10.47,10.47s-4.69,10.47-10.47,10.47-10.47-4.69-10.47-10.47,4.69-10.47,10.47-10.47m0-2c-6.88,0-12.47,5.59-12.47,12.47s5.59,12.47,12.47,12.47,12.47-5.59,12.47-12.47-5.59-12.47-12.47-12.47h0Z"/></g><text class="cls-1" transform="translate(975.9 425.67)"><tspan x="0" y="0">12</tspan></text></g><g id="_1-14"><g><circle cx="975.1" cy="617.53" r="11.47"/><path d="M975.1,607.06c5.78,0,10.47,4.69,10.47,10.47s-4.69,10.47-10.47,10.47-10.47-4.69-10.47-10.47,4.69-10.47,10.47-10.47m0-2c-6.88,0-12.47,5.59-12.47,12.47s5.59,12.47,12.47,12.47,12.47-5.59,12.47-12.47-5.59-12.47-12.47-12.47h0Z"/></g><text class="cls-1" transform="translate(966.9 621.67)"><tspan x="0" y="0">13</tspan></text></g></g><g id="Imola_Detailed"><g id="Legend"><circle cx="82.04" cy="215.7" r="13"/><g><path d="M106.54,214.87v-2.36h8.94v2.36h-8.94Zm0,4.02v-2.38h8.94v2.38h-8.94Z"/><path d="M128.03,222.04h-3.47v-10.02h-3.14v-2.84h9.75v2.84h-3.13v10.02Z"/><path d="M143.94,209.18v7.74c0,1.08-.21,2.02-.62,2.81-.41,.79-1.03,1.41-1.85,1.84-.82,.43-1.85,.65-3.09,.65-1.77,0-3.12-.45-4.06-1.36-.93-.91-1.4-2.19-1.4-3.85v-7.82h3.49v7.55c0,.91,.17,1.57,.51,1.98,.34,.41,.84,.62,1.5,.62,.47,0,.86-.09,1.16-.27s.52-.46,.66-.85c.14-.39,.21-.89,.21-1.5v-7.53h3.47Z"/><path d="M150.85,209.18c1.17,0,2.14,.14,2.91,.43,.77,.28,1.36,.71,1.75,1.27,.39,.56,.58,1.26,.58,2.1,0,.52-.09,1-.26,1.43s-.43,.81-.75,1.15c-.33,.34-.71,.63-1.17,.88l3.75,5.6h-3.94l-2.73-4.68h-.88v4.68h-3.47v-12.86h4.21Zm-.05,2.63h-.69v2.94h.65c.53,0,.97-.12,1.31-.35,.34-.23,.51-.65,.51-1.26,0-.42-.14-.74-.42-.98s-.74-.35-1.36-.35Z"/><path d="M171.08,222.04h-4.56l-4.7-9.06h-.08c.03,.28,.06,.61,.08,.99s.04,.78,.06,1.18,.03,.76,.03,1.09v5.8h-3.08v-12.86h4.54l4.68,8.94h.05c-.02-.28-.04-.61-.05-.98-.02-.37-.03-.75-.05-1.13-.01-.38-.02-.72-.02-1.01v-5.81h3.1v12.86Z"/><path d="M190.78,222.04h-4.56l-4.7-9.06h-.08c.03,.28,.06,.61,.08,.99s.04,.78,.06,1.18,.03,.76,.03,1.09v5.8h-3.08v-12.86h4.54l4.68,8.94h.05c-.02-.28-.04-.61-.05-.98-.02-.37-.03-.75-.05-1.13-.01-.38-.02-.72-.02-1.01v-5.81h3.1v12.86Z"/><path d="M204.49,209.18v7.74c0,1.08-.21,2.02-.62,2.81-.41,.79-1.03,1.41-1.85,1.84-.82,.43-1.85,.65-3.09,.65-1.77,0-3.12-.45-4.06-1.36-.93-.91-1.4-2.19-1.4-3.85v-7.82h3.49v7.55c0,.91,.17,1.57,.51,1.98,.34,.41,.84,.62,1.5,.62,.47,0,.86-.09,1.16-.27s.52-.46,.66-.85c.14-.39,.21-.89,.21-1.5v-7.53h3.47Z"/><path d="M212.8,222.04l-2.63-9.26h-.08c.02,.24,.05,.57,.07,.98,.03,.41,.05,.85,.08,1.33s.04,.93,.04,1.37v5.59h-3.08v-12.86h4.63l2.68,9.13h.07l2.63-9.13h4.64v12.86h-3.19v-5.64c0-.4,0-.84,.02-1.31s.03-.91,.05-1.32c.02-.41,.04-.74,.06-.98h-.08l-2.59,9.25h-3.31Z"/><path d="M224.61,209.18h4.49c1.86,0,3.18,.28,3.98,.83,.79,.55,1.19,1.34,1.19,2.38,0,.56-.1,1.04-.3,1.43-.2,.39-.46,.7-.77,.93-.31,.23-.62,.38-.95,.47v.09c.35,.09,.7,.23,1.05,.44s.64,.5,.87,.91c.23,.4,.35,.95,.35,1.63,0,.78-.2,1.45-.59,2.01-.4,.56-.96,1-1.69,1.3-.73,.3-1.6,.45-2.61,.45h-5.01v-12.86Zm3.47,4.93h1.05c.58,0,.98-.12,1.21-.36,.23-.24,.35-.53,.35-.87s-.13-.62-.4-.8c-.27-.19-.68-.28-1.24-.28h-.98v2.3Zm0,2.54v2.7h1.22c.6,0,1.03-.13,1.27-.39,.24-.26,.36-.59,.36-.98,0-.23-.05-.44-.15-.65-.1-.2-.28-.37-.52-.49s-.59-.19-1.02-.19h-1.15Z"/><path d="M244.39,222.04h-7.64v-12.86h7.64v2.79h-4.16v2.02h3.85v2.79h-3.85v2.43h4.16v2.83Z"/><path d="M250.85,209.18c1.17,0,2.14,.14,2.91,.43,.77,.28,1.36,.71,1.75,1.27,.39,.56,.58,1.26,.58,2.1,0,.52-.09,1-.26,1.43s-.43,.81-.75,1.15c-.33,.34-.71,.63-1.17,.88l3.75,5.6h-3.94l-2.73-4.68h-.88v4.68h-3.47v-12.86h4.21Zm-.05,2.63h-.69v2.94h.65c.53,0,.97-.12,1.31-.35,.34-.23,.51-.65,.51-1.26,0-.42-.14-.74-.42-.98s-.74-.35-1.36-.35Z"/><path d="M267.24,218.13c0,.7-.18,1.36-.53,1.98s-.9,1.13-1.64,1.52c-.74,.39-1.7,.58-2.87,.58-.59,0-1.1-.03-1.54-.08-.44-.05-.85-.14-1.24-.26-.38-.12-.78-.28-1.19-.47v-3.1c.7,.35,1.4,.62,2.11,.8,.71,.18,1.35,.28,1.93,.28,.35,0,.63-.04,.85-.12,.22-.08,.38-.19,.49-.34,.11-.14,.16-.31,.16-.5,0-.22-.08-.41-.23-.57s-.4-.32-.74-.49c-.34-.17-.79-.38-1.35-.63-.47-.22-.9-.45-1.29-.69-.38-.23-.71-.5-.99-.81-.27-.3-.48-.66-.63-1.06-.15-.4-.22-.88-.22-1.43,0-.83,.2-1.52,.61-2.08,.41-.56,.98-.98,1.71-1.26,.73-.28,1.57-.42,2.53-.42,.84,0,1.59,.09,2.26,.28,.67,.19,1.27,.4,1.81,.64l-1.06,2.68c-.55-.25-1.09-.45-1.63-.6-.53-.15-1.03-.22-1.49-.22-.3,0-.54,.04-.73,.11-.19,.07-.33,.17-.42,.29s-.14,.26-.14,.42c0,.2,.08,.38,.23,.54,.16,.16,.42,.33,.78,.51,.37,.19,.87,.42,1.5,.72,.63,.28,1.16,.58,1.6,.91,.44,.33,.78,.72,1.01,1.17,.23,.45,.35,1.02,.35,1.68Z"/></g><g><circle class="cls-5" cx="82.04" cy="135.7" r="13"/><path d="M82.04,149.7c-7.72,0-14-6.28-14-14s6.28-14,14-14,14,6.28,14,14-6.28,14-14,14Zm0-26c-6.62,0-12,5.38-12,12s5.38,12,12,12,12-5.38,12-12-5.38-12-12-12Z"/></g><g><path d="M106.54,134.87v-2.36h8.94v2.36h-8.94Zm0,4.02v-2.38h8.94v2.38h-8.94Z"/><path d="M133.28,135.33c0,1.5-.28,2.74-.84,3.73-.56,.99-1.34,1.73-2.35,2.23-1.01,.5-2.2,.74-3.57,.74h-4.16v-12.86h4.45c1.38,0,2.56,.24,3.52,.71s1.69,1.17,2.2,2.08c.5,.92,.75,2.04,.75,3.36Zm-3.61,.12c0-.78-.1-1.43-.31-1.94s-.52-.9-.94-1.15c-.42-.25-.94-.38-1.57-.38h-1.01v7.2h.77c1.06,0,1.83-.31,2.32-.92,.49-.61,.74-1.55,.74-2.81Z"/><path d="M139.8,129.18c1.17,0,2.14,.14,2.91,.43,.77,.28,1.36,.71,1.75,1.27,.39,.56,.58,1.26,.58,2.1,0,.52-.09,1-.26,1.43s-.43,.81-.75,1.15c-.33,.34-.71,.63-1.17,.88l3.75,5.6h-3.94l-2.73-4.68h-.88v4.68h-3.47v-12.86h4.21Zm-.05,2.63h-.69v2.94h.65c.53,0,.97-.12,1.31-.35,.34-.23,.51-.65,.51-1.26,0-.42-.14-.74-.42-.98s-.74-.35-1.36-.35Z"/><path d="M156.18,138.13c0,.7-.18,1.36-.53,1.98s-.9,1.13-1.64,1.52c-.74,.39-1.7,.58-2.87,.58-.59,0-1.1-.03-1.54-.08-.44-.05-.85-.14-1.24-.26-.38-.12-.78-.28-1.19-.47v-3.1c.7,.35,1.4,.62,2.11,.8,.71,.18,1.35,.28,1.93,.28,.35,0,.63-.04,.85-.12,.22-.08,.38-.19,.49-.34,.11-.14,.16-.31,.16-.5,0-.22-.08-.41-.23-.57s-.4-.32-.74-.49c-.34-.17-.79-.38-1.35-.63-.47-.22-.9-.45-1.29-.69-.38-.23-.71-.5-.99-.81-.27-.3-.48-.66-.63-1.06-.15-.4-.22-.88-.22-1.43,0-.83,.2-1.52,.61-2.08,.41-.56,.98-.98,1.71-1.26,.73-.28,1.57-.42,2.53-.42,.84,0,1.59,.09,2.26,.28,.67,.19,1.27,.4,1.81,.64l-1.06,2.68c-.55-.25-1.09-.45-1.63-.6-.53-.15-1.03-.22-1.49-.22-.3,0-.54,.04-.73,.11-.19,.07-.33,.17-.42,.29s-.14,.26-.14,.42c0,.2,.08,.38,.23,.54,.16,.16,.42,.33,.78,.51,.37,.19,.87,.42,1.5,.72,.63,.28,1.16,.58,1.6,.91,.44,.33,.78,.72,1.01,1.17,.23,.45,.35,1.02,.35,1.68Z"/><path d="M173.77,135.33c0,1.5-.28,2.74-.84,3.73-.56,.99-1.34,1.73-2.35,2.23-1.01,.5-2.2,.74-3.57,.74h-4.16v-12.86h4.45c1.38,0,2.56,.24,3.52,.71s1.69,1.17,2.2,2.08c.5,.92,.75,2.04,.75,3.36Zm-3.61,.12c0-.78-.1-1.43-.31-1.94s-.52-.9-.94-1.15c-.42-.25-.94-.38-1.57-.38h-1.01v7.2h.77c1.06,0,1.83-.31,2.32-.92,.49-.61,.74-1.55,.74-2.81Z"/><path d="M183.71,142.04h-7.64v-12.86h7.64v2.79h-4.16v2.02h3.85v2.79h-3.85v2.43h4.16v2.83Z"/><path d="M191.63,142.04h-3.47v-10.02h-3.14v-2.84h9.75v2.84h-3.13v10.02Z"/><path d="M204.24,142.04h-7.64v-12.86h7.64v2.79h-4.16v2.02h3.85v2.79h-3.85v2.43h4.16v2.83Z"/><path d="M212.22,131.84c-.41,0-.78,.09-1.1,.26s-.6,.42-.83,.75c-.23,.33-.4,.73-.52,1.2-.12,.47-.18,1.01-.18,1.61,0,.81,.1,1.49,.31,2.04,.21,.55,.52,.97,.94,1.25,.42,.28,.95,.42,1.58,.42,.58,0,1.13-.08,1.66-.24,.53-.16,1.07-.35,1.61-.57v2.94c-.57,.25-1.15,.43-1.75,.55-.59,.11-1.23,.17-1.9,.17-1.4,0-2.54-.28-3.43-.83-.89-.55-1.54-1.32-1.96-2.31-.42-.99-.63-2.13-.63-3.43,0-.97,.14-1.86,.41-2.67,.27-.81,.67-1.51,1.2-2.11,.53-.6,1.18-1.06,1.96-1.38,.78-.33,1.67-.49,2.67-.49,.62,0,1.28,.07,1.97,.22,.69,.14,1.36,.37,2.02,.69l-1.06,2.74c-.47-.22-.94-.41-1.42-.56-.48-.15-.99-.23-1.53-.23Z"/><path d="M223.86,142.04h-3.47v-10.02h-3.14v-2.84h9.75v2.84h-3.13v10.02Z"/><path d="M228.83,142.04v-12.86h3.49v12.86h-3.49Z"/><path d="M247.13,135.59c0,.99-.12,1.89-.36,2.7-.24,.81-.61,1.51-1.11,2.1-.5,.59-1.15,1.04-1.94,1.35-.79,.31-1.74,.47-2.84,.47s-2.01-.16-2.8-.47c-.79-.31-1.44-.76-1.95-1.35-.51-.58-.89-1.28-1.13-2.1-.25-.81-.37-1.72-.37-2.73,0-1.34,.22-2.5,.66-3.49,.44-.99,1.13-1.75,2.05-2.3s2.11-.81,3.55-.81,2.66,.27,3.58,.82,1.59,1.31,2.02,2.3c.43,.99,.64,2.15,.64,3.49Zm-8.85,0c0,.77,.09,1.44,.26,2s.46,.99,.84,1.28c.38,.3,.88,.45,1.5,.45s1.15-.15,1.53-.45c.38-.3,.65-.73,.82-1.28s.25-1.22,.25-2c0-1.16-.19-2.08-.58-2.75s-1.05-1.01-2-1.01c-.63,0-1.13,.15-1.52,.46-.38,.31-.66,.74-.83,1.3s-.26,1.23-.26,2.01Z"/><path d="M261.7,142.04h-4.56l-4.7-9.06h-.08c.03,.28,.06,.61,.08,.99s.04,.78,.06,1.18,.03,.76,.03,1.09v5.8h-3.08v-12.86h4.54l4.68,8.94h.05c-.02-.28-.04-.61-.05-.98-.02-.37-.03-.75-.05-1.13-.01-.38-.02-.72-.02-1.01v-5.81h3.1v12.86Z"/><path d="M278.32,142.04h-10.02v-2.15l5.57-7.91h-5.44v-2.81h9.75v2.14l-5.57,7.92h5.71v2.81Z"/><path d="M292.2,135.59c0,.99-.12,1.89-.36,2.7-.24,.81-.61,1.51-1.11,2.1-.5,.59-1.15,1.04-1.94,1.35-.79,.31-1.74,.47-2.84,.47s-2.01-.16-2.8-.47c-.79-.31-1.44-.76-1.95-1.35-.51-.58-.89-1.28-1.13-2.1-.25-.81-.37-1.72-.37-2.73,0-1.34,.22-2.5,.66-3.49,.44-.99,1.13-1.75,2.05-2.3s2.11-.81,3.55-.81,2.66,.27,3.58,.82,1.59,1.31,2.02,2.3c.43,.99,.64,2.15,.64,3.49Zm-8.85,0c0,.77,.09,1.44,.26,2s.46,.99,.84,1.28c.38,.3,.88,.45,1.5,.45s1.15-.15,1.53-.45c.38-.3,.65-.73,.82-1.28s.25-1.22,.25-2c0-1.16-.19-2.08-.58-2.75s-1.05-1.01-2-1.01c-.63,0-1.13,.15-1.52,.46-.38,.31-.66,.74-.83,1.3s-.26,1.23-.26,2.01Z"/><path d="M306.76,142.04h-4.56l-4.7-9.06h-.08c.03,.28,.06,.61,.08,.99s.04,.78,.06,1.18,.03,.76,.03,1.09v5.8h-3.08v-12.86h4.54l4.68,8.94h.05c-.02-.28-.04-.61-.05-.98-.02-.37-.03-.75-.05-1.13-.01-.38-.02-.72-.02-1.01v-5.81h3.1v12.86Z"/><path d="M317.18,142.04h-7.64v-12.86h7.64v2.79h-4.16v2.02h3.85v2.79h-3.85v2.43h4.16v2.83Z"/></g><g><path d="M106.54,173.87v-2.36h8.94v2.36h-8.94Zm0,4.02v-2.38h8.94v2.38h-8.94Z"/><path d="M133.28,174.33c0,1.5-.28,2.74-.84,3.73-.56,.99-1.34,1.73-2.35,2.23-1.01,.5-2.2,.74-3.57,.74h-4.16v-12.86h4.45c1.38,0,2.56,.24,3.52,.71s1.69,1.17,2.2,2.08c.5,.92,.75,2.04,.75,3.36Zm-3.61,.12c0-.78-.1-1.43-.31-1.94s-.52-.9-.94-1.15c-.42-.25-.94-.38-1.57-.38h-1.01v7.2h.77c1.06,0,1.83-.31,2.32-.92,.49-.61,.74-1.55,.74-2.81Z"/><path d="M139.8,168.18c1.17,0,2.14,.14,2.91,.43,.77,.28,1.36,.71,1.75,1.27,.39,.56,.58,1.26,.58,2.1,0,.52-.09,1-.26,1.43s-.43,.81-.75,1.15c-.33,.34-.71,.63-1.17,.88l3.75,5.6h-3.94l-2.73-4.68h-.88v4.68h-3.47v-12.86h4.21Zm-.05,2.63h-.69v2.94h.65c.53,0,.97-.12,1.31-.35,.34-.23,.51-.65,.51-1.26,0-.42-.14-.74-.42-.98s-.74-.35-1.36-.35Z"/><path d="M156.18,177.13c0,.7-.18,1.36-.53,1.98s-.9,1.13-1.64,1.52c-.74,.39-1.7,.58-2.87,.58-.59,0-1.1-.03-1.54-.08-.44-.05-.85-.14-1.24-.26-.38-.12-.78-.28-1.19-.47v-3.1c.7,.35,1.4,.62,2.11,.8,.71,.18,1.35,.28,1.93,.28,.35,0,.63-.04,.85-.12,.22-.08,.38-.19,.49-.34,.11-.14,.16-.31,.16-.5,0-.22-.08-.41-.23-.57s-.4-.32-.74-.49c-.34-.17-.79-.38-1.35-.63-.47-.22-.9-.45-1.29-.69-.38-.23-.71-.5-.99-.81-.27-.3-.48-.66-.63-1.06-.15-.4-.22-.88-.22-1.43,0-.83,.2-1.52,.61-2.08,.41-.56,.98-.98,1.71-1.26,.73-.28,1.57-.42,2.53-.42,.84,0,1.59,.09,2.26,.28,.67,.19,1.27,.4,1.81,.64l-1.06,2.68c-.55-.25-1.09-.45-1.63-.6-.53-.15-1.03-.22-1.49-.22-.3,0-.54,.04-.73,.11-.19,.07-.33,.17-.42,.29s-.14,.26-.14,.42c0,.2,.08,.38,.23,.54,.16,.16,.42,.33,.78,.51,.37,.19,.87,.42,1.5,.72,.63,.28,1.16,.58,1.6,.91,.44,.33,.78,.72,1.01,1.17,.23,.45,.35,1.02,.35,1.68Z"/><path d="M172.02,181.04h-10.02v-2.15l5.57-7.91h-5.44v-2.81h9.75v2.14l-5.57,7.92h5.71v2.81Z"/><path d="M185.89,174.59c0,.99-.12,1.89-.36,2.7-.24,.81-.61,1.51-1.11,2.1-.5,.59-1.15,1.04-1.94,1.35-.79,.31-1.74,.47-2.84,.47s-2.01-.16-2.8-.47c-.79-.31-1.44-.76-1.95-1.35-.51-.58-.89-1.28-1.13-2.1-.25-.81-.37-1.72-.37-2.73,0-1.34,.22-2.5,.66-3.49,.44-.99,1.13-1.75,2.05-2.3s2.11-.81,3.55-.81,2.66,.27,3.58,.82,1.59,1.31,2.02,2.3c.43,.99,.64,2.15,.64,3.49Zm-8.85,0c0,.77,.09,1.44,.26,2s.46,.99,.84,1.28c.38,.3,.88,.45,1.5,.45s1.15-.15,1.53-.45c.38-.3,.65-.73,.82-1.28s.25-1.22,.25-2c0-1.16-.19-2.08-.58-2.75s-1.05-1.01-2-1.01c-.63,0-1.13,.15-1.52,.46-.38,.31-.66,.74-.83,1.3s-.26,1.23-.26,2.01Z"/><path d="M200.46,181.04h-4.56l-4.7-9.06h-.08c.03,.28,.06,.61,.08,.99s.04,.78,.06,1.18,.03,.76,.03,1.09v5.8h-3.08v-12.86h4.54l4.68,8.94h.05c-.02-.28-.04-.61-.05-.98-.02-.37-.03-.75-.05-1.13-.01-.38-.02-.72-.02-1.01v-5.81h3.1v12.86Z"/><path d="M210.87,181.04h-7.64v-12.86h7.64v2.79h-4.16v2.02h3.85v2.79h-3.85v2.43h4.16v2.83Z"/><path d="M221.53,177.13c0,.7-.18,1.36-.53,1.98s-.9,1.13-1.64,1.52c-.74,.39-1.7,.58-2.87,.58-.59,0-1.1-.03-1.54-.08-.44-.05-.85-.14-1.24-.26-.38-.12-.78-.28-1.19-.47v-3.1c.7,.35,1.4,.62,2.11,.8,.71,.18,1.35,.28,1.93,.28,.35,0,.63-.04,.85-.12,.22-.08,.38-.19,.49-.34,.11-.14,.16-.31,.16-.5,0-.22-.08-.41-.23-.57s-.4-.32-.74-.49c-.34-.17-.79-.38-1.35-.63-.47-.22-.9-.45-1.29-.69-.38-.23-.71-.5-.99-.81-.27-.3-.48-.66-.63-1.06-.15-.4-.22-.88-.22-1.43,0-.83,.2-1.52,.61-2.08,.41-.56,.98-.98,1.71-1.26,.73-.28,1.57-.42,2.53-.42,.84,0,1.59,.09,2.26,.28,.67,.19,1.27,.4,1.81,.64l-1.06,2.68c-.55-.25-1.09-.45-1.63-.6-.53-.15-1.03-.22-1.49-.22-.3,0-.54,.04-.73,.11-.19,.07-.33,.17-.42,.29s-.14,.26-.14,.42c0,.2,.08,.38,.23,.54,.16,.16,.42,.33,.78,.51,.37,.19,.87,.42,1.5,.72,.63,.28,1.16,.58,1.6,.91,.44,.33,.78,.72,1.01,1.17,.23,.45,.35,1.02,.35,1.68Z"/></g><path class="cls-5" d="M95.04,186.7h-2.5v-23h2.5v23Zm-5.5,0h-3v-23h3v23Zm-6,0h-3v-23h3v23Zm-6,0h-3v-23h3v23Zm-6,0h-3v-23h3v23Z"/><g><path class="cls-2" d="M81.52,214.47c0,.84-.07,1.59-.2,2.26s-.35,1.23-.64,1.69-.68,.82-1.17,1.06c-.48,.24-1.08,.37-1.78,.37-.88,0-1.59-.21-2.15-.64-.56-.43-.97-1.04-1.24-1.84-.26-.8-.4-1.76-.4-2.89s.12-2.1,.36-2.91c.24-.81,.64-1.42,1.19-1.85,.55-.43,1.3-.65,2.23-.65,.88,0,1.59,.21,2.15,.64,.56,.43,.97,1.04,1.24,1.85,.27,.81,.4,1.78,.4,2.92Zm-4.75,0c0,.68,.02,1.26,.08,1.72,.05,.46,.15,.81,.29,1.04,.14,.23,.34,.35,.61,.35s.46-.12,.6-.35,.23-.58,.29-1.04,.08-1.04,.08-1.72-.03-1.27-.08-1.74-.15-.81-.29-1.05-.34-.35-.6-.35-.46,.12-.61,.35c-.14,.24-.24,.59-.29,1.05-.05,.46-.08,1.04-.08,1.74Z"/><path class="cls-2" d="M88.79,219.7h-2.88v-5.71c0-.26,0-.54,.01-.85,0-.31,.02-.59,.03-.84-.12,.15-.24,.27-.35,.38-.11,.11-.21,.2-.31,.29l-1.19,.98-1.47-1.81,3.6-2.93h2.55v10.48Z"/></g></g></g></svg>