<?xml version="1.0" encoding="UTF-8"?><svg id="Barcelona_Simple" xmlns="http://www.w3.org/2000/svg" viewBox="0 0 1000 1000"><defs><style>.cls-1{fill:#fae44a;}.cls-2{fill:#db4a25;}.cls-3,.cls-4{fill:#1bce20;}.cls-5{fill:#75e5fd;}.cls-4{stroke:#000;stroke-miterlimit:10;stroke-width:2px;}</style></defs><path d="M982.14,524.23v-8.23c.13-.98-.25-2.73-.47-3.62-1.72-37.07-5.85-74-10.55-94.13-7.3-31.27-88.9-48.29-94.02-49.33l-7.29-2.54c-3.66-1.28-6.97-2.43-9.77-3.41l-1.25-.44c-.67-.3-4.51-2-10.4-3.7-8.07-2.33-15.88-3.51-23.24-3.51-17.13,0-30.73,6.25-40.43,18.56-10.81,13.72-14.55,29.18-11.11,45.96,2.91,14.13,12.09,25.93,25.19,32.37,7.29,3.59,15.5,6.7,24.42,9.25,26.01,7.43,39.5,25.98,41.16,28.38,.03,.06,.06,.11,.08,.16,1.38,3.09,12.44,28.85,4.14,43.82-1.3,2.36-3.51,3.5-6.75,3.5-7.11,0-19.13-5.84-33.86-16.45-3.9-2.81-7.75-5.49-11.44-7.96-7.16-4.83-14.44-9.41-21.61-13.61l-142.94-83.67-93.98-55.98-.05-.03-.04-.03-.11-.05c-1.65-.82-16.69-8-36.48-8-21.2,0-39.54,8.14-54.49,24.2l-.06,.06-.05,.06-.11,.14-.05,.06-.04,.06-77.92,115.73-.15,.21c-.21,.29-.41,.56-.61,.84-1.47,1.96-6.36,10.67-6.36,38.6v19c-.22,1.18-2.21,9-17,9-13.95,0-59.37-.7-75.82-.97l-5-.53c-9.1-1.82-41.85-10.41-87.48-45.22l-.09-.07-.05-.03-.04-.03-37.59-25.07c-4.32-2.87-7.51-6.8-9.23-11.37-1.37-3.64-1.34-6.52,.08-8.57,1.88-2.71,6.45-4.14,13.22-4.14h131.64s5.56-.62,5.56-.62h.11s.1-.04,.1-.04c14.73-3.25,62.98-17.71,65.59-67.29,1.08-20.39-3.16-35.77-12.59-45.71-10.45-11.02-23.79-11.34-25.28-11.34h-.08l-54.51-2.5h-106.95c-.92-.06-3.31-.18-6.97-.18-17.11,0-60.58,2.57-94.69,26.36-41.93,29.25-48.61,74.23-48.98,76.99-.24,1.19-2.54,13.52,.45,29.52,2.82,15.02,11.07,36.29,34.41,52.25,30.54,20.9,53.13,27.51,66.63,31.45,6.57,1.92,10.89,3.18,13.11,5.09,7.42,6.39,12.18,12.86,10.6,43.44-.62,12.05,2.29,21.55,8.64,28.23,8.97,9.44,22.46,10.85,29.71,10.85,9.25,0,289.46,1.13,485.57,1.94l.02-2c-177.75-.73-475.89-1.94-485.59-1.94-6.93,0-19.81-1.33-28.26-10.23-5.96-6.27-8.68-15.27-8.09-26.75,1.62-31.48-3.42-38.28-11.3-45.06-2.55-2.19-7.04-3.5-13.85-5.49-13.38-3.91-35.79-10.46-66.06-31.18-44.04-30.12-34.14-79.21-34.02-79.79,.06-.46,6.04-46.3,48.15-75.68,33.65-23.47,76.63-26,93.55-26,3.46,0,5.81,.11,6.91,.18h106.92l54.55,2.5h.13c1.4,0,13.95,.3,23.83,10.72,9.04,9.52,13.09,24.4,12.04,44.23-2.53,48.14-49.57,62.25-64.02,65.44l-5.56,.61H162.5c-7.56,0-12.56,1.68-14.86,5-1.82,2.62-1.92,6.13-.31,10.42,1.87,4.96,5.32,9.22,9.99,12.32l37.59,25.07,.08,.06c46.08,35.16,79.23,43.79,88.39,45.61l5.18,.55c15.18,.25,61.71,.97,75.94,.97,16.77,0,18.8-9.64,18.98-10.74,.01-.11,.02-.23,.02-.36v-18.9c0-28.04,4.98-36.09,5.99-37.44,.25-.35,.5-.69,.77-1.06l77.94-115.76,.11-.14c14.56-15.63,32.4-23.56,53.03-23.56,19.45,0,34.32,7.16,35.59,7.79,.03,.02,.05,.03,.07,.04l93.99,55.99,142.94,83.67c7.13,4.17,14.33,8.7,21.51,13.54,3.8,2.55,7.6,5.2,11.38,7.92,10.66,7.68,25.4,16.83,35.03,16.83,3.97,0,6.84-1.53,8.5-4.53,8.81-15.9-2.74-42.66-4.08-45.65-.05-.1-.1-.2-.2-.37-1.5-2.19-15.36-21.54-42.3-29.23-8.8-2.52-16.91-5.59-24.09-9.12-12.54-6.17-21.33-17.46-24.11-30.98-3.32-16.18,.29-31.09,10.72-44.32,9.3-11.81,22.38-17.8,38.86-17.8,8.63,0,16.69,1.7,22.68,3.43s9.89,3.49,10.21,3.64l1.34,.47c4.6,1.6,10.56,3.68,17.19,5.99,0,0,85.43,17.15,92.6,47.85,4.84,20.74,8.88,58.53,10.51,93.97,.4,1.56,.53,2.69,.48,3.07,0,.05,0,.11-.02,.17v8.35c.42,13.3,.46,25.94,.03,36.83h-.52c-1.72,31.49-7.47,38.66-20.37,54.71l-2.06,2.58c-16.4,20.49-37.94,22.7-46.44,22.7-1.82,0-3.02-.1-3.55-.14-.09-.02-.17-.02-.24-.02-.99,0-16.41-.07-42.12-.17l-183.72-.76-.02,2,183.73,.76c14.74,.06,26.09,.1,33.28,.13,5.14,.03,8.16,.04,8.78,.04h.16s.09,.02,.09,.02c.59,.05,1.82,.14,3.61,.14,8.79,0,31.06-2.28,48-23.45l2.06-2.58c12.82-15.95,18.81-23.4,20.7-53.96h.55l.08-1.92c.42-10.62,.41-23.05-.03-36.94Zm-804.54,78.72s0-.08,.01-.12c1.93-37.65-4.2-56.85-23.44-73.41-.42-.36-.84-.71-1.26-1.04l21.65,14.43c58.75,44.6,99.89,51.5,107.54,52.43,1.21,.14,2.48,.23,3.79,.25l1.03,.03c26.98,.42,64.34,.98,77.58,.98,32.72,0,50.48-20.31,53.57-40.45,.28-1.87,.43-3.77,.43-5.65v-18.9c0-4.79,.18-9.14,.52-12.94,.39-4.26,1.87-8.4,4.28-11.97l72.29-107.35c7.45-7.3,15.63-10.7,25.75-10.7,9.02,0,16.59,2.72,19.46,3.91l92.5,55.12,142.94,83.67c6.89,4.02,13.96,8.5,21.01,13.29,2.89,1.95,5.87,4.03,9.12,6.37,22.21,15.98,39.84,23.42,55.48,23.42,16.67,0,31.29-8.43,39.12-22.56,16.29-29.41,2-66.32-2.77-76.94-.88-2-1.97-3.94-3.22-5.77-3.61-5.3-23.54-32.3-61.58-43.16-6.75-1.92-12.9-4.24-18.28-6.88-2.75-1.35-4.67-3.76-5.26-6.61-1.23-6-.09-10.53,3.91-15.62,1.78-2.26,4.13-4.46,11.38-4.46,7.71,0,15.89,2.83,18.39,3.92,1.01,.46,2.05,.88,3.07,1.25l.3-.83,.12,.03-.29,.84c10.61,3.68,23.88,8.3,36.39,12.69,21.68,7.57,35.38,12.55,43.55,19,7.27,5.74,10.86,12.92,14.19,28.41,.18,1.37,2.66,20.67,3.68,45.43,.33,15.73,.13,31.3-.09,41.6-.1,1.75-.2,3.56-.32,5.33v.07s-.01,4.23-.01,4.23c-.03,1.47-.06,2.87-.09,4.17l-.05,2.58v.05c-.12,5.27-.26,8.89-.6,11.64-.29,2.53-.73,4.4-1.62,6.91-1.25,3.55-3.49,6.43-9.77,14.24l-.61,.76-.34,.42c-.38,.48-.77,.96-1.16,1.45-6.66,8.33-14.83,9.57-19.11,9.57-.19,0-.33,0-.41-.01-1.11-.09-2.14-.14-3.17-.15-1.04,0-15.42-.06-39.24-.16l-10.93-.05-175.58-.72-.02,2,175.59,.72c30.47,.13,48.99,.21,50.16,.21,1.03,.01,2.02,.06,2.99,.14,.09,.01,.31,.02,.61,.02,4.64,0,13.49-1.34,20.67-10.32,.51-.64,1.01-1.26,1.5-1.87l.61-.76c6.43-7.99,8.73-10.95,10.09-14.82,.88-2.48,1.4-4.53,1.73-7.34,.34-2.81,.48-6.37,.61-11.88h0c.04-2,.09-4.24,.14-6.8v-4.16c.13-1.79,.23-3.59,.33-5.39,.24-11.08,.41-26.45,.09-41.76-1.07-25.97-3.71-45.69-3.71-45.69-6.35-29.59-13.76-33.13-59.05-48.96-12.87-4.51-26.04-9.1-36.4-12.69l-.33,.94,.22-.98c-.96-.34-1.95-.74-2.94-1.19-2.59-1.13-11.08-4.09-19.19-4.09s-10.95,2.69-12.95,5.22c-4.36,5.54-5.64,10.7-4.3,17.27,.72,3.46,3.03,6.37,6.34,8,5.46,2.68,11.72,5.04,18.61,7,37.39,10.68,56.94,37.17,60.48,42.37,1.19,1.74,2.21,3.57,3.05,5.46,4.67,10.4,18.67,46.57,2.84,75.15-7.47,13.48-21.44,21.53-37.37,21.53s-32.46-7.32-54.31-23.04c-3.04-2.19-6.09-4.33-9.16-6.4-7.04-4.79-14.11-9.27-21.13-13.37l-142.93-83.66-92.59-55.17-.13-.06c-2.96-1.23-10.87-4.08-20.26-4.08-10.7,0-19.36,3.61-27.23,11.35l-.07,.07-72.4,107.51c-2.6,3.86-4.19,8.33-4.61,12.91-.35,3.84-.53,8.25-.53,13.12v18.9c0,1.8-.14,3.59-.41,5.35-2.96,19.29-20.06,38.75-51.59,38.75-13.76,0-54.47-.62-77.52-.98l-1.06-.03c-1.23-.02-2.43-.1-3.58-.24-7.57-.92-48.27-7.76-106.62-52.07l-36.72-24.48c-10.44-6.96-18.24-16.7-22.55-28.16-5.42-14.39-3.94-29.27,4.05-40.82,6.08-8.77,18.3-19.22,42-19.22h127.16c2.57,0,5.13-.38,7.63-1.12,4.15-1.25,10.36-3.52,16.37-7.22,14.18-8.73,16.48-18.72,16.88-26.37,.85-6.47,.87-11.54,.05-15.05-.71-3-3.39-5.19-6.49-5.33l-51.9-2.41h-105.98c-.72,0-1.46-.03-2.33-.08h-.18c-.54-.03-2.18-.1-4.59-.1-10.77,0-47.97,1.45-74.66,20.06-29.47,20.56-34.24,52.27-34.26,52.55l-.26,2.12-.19,.68-.02,.12c-.29,1.98-1.07,9.12,.85,17.72,2.6,11.64,8.97,20.79,19.49,27.99,25.93,17.74,44.43,23.15,56.68,26.73,9.33,2.73,18.15,5.31,26.12,12.15,18.69,16.08,24.64,34.86,22.74,71.78-.02,.35-.03,.68-.04,.97l-.03,1.06,.91,.1c.86,.1,1.69,.15,2.55,.15,10.16,0,342.38,1.35,485.97,1.94l.02-2c-126.06-.52-475.4-1.94-485.99-1.94-.47,0-.93-.02-1.4-.05Zm-50.28-86.08c-12.13-3.54-30.45-8.89-56.12-26.46-10.08-6.9-16.18-15.66-18.67-26.78-1.85-8.27-1.1-15.05-.82-16.97l.16-.57,.04-.15,.02-.15,.26-2.12h0c.11-.74,5.11-31.4,33.41-51.15,26.22-18.28,62.9-19.7,73.52-19.7,2.18,0,3.71,.06,4.36,.08h.16s.14,.02,.14,.02c1.01,.06,1.74,.08,2.44,.08h105.93l51.86,2.41c2.22,.1,4.13,1.66,4.63,3.79,.77,3.26,.74,8.09-.08,14.33v.08s-.02,.08-.02,.08c-.37,7.19-2.52,16.51-15.93,24.77-5.83,3.59-11.86,5.79-15.9,7-2.31,.69-4.69,1.04-7.05,1.04h-127.16c-24.57,0-37.29,10.92-43.64,20.08-8.38,12.1-9.94,27.65-4.28,42.67,4.46,11.85,12.52,21.92,23.31,29.11l8.49,5.66c-6.06-3.34-12.43-5.21-19.06-7.15Z"/><g id="Start_Line"><polygon points="651.56 657.92 662.34 646.95 665.04 649.6 656.92 657.87 665.19 666 662.54 668.7 651.56 657.92"/><polygon points="649.76 666.18 647.11 668.89 639.48 661.39 636.14 658.11 646.92 647.13 649.61 649.79 641.49 658.07 642.73 659.28 649.76 666.18"/><polygon points="634.35 666.37 631.69 669.07 630.09 667.51 620.72 658.29 631.5 647.33 634.2 649.97 626.07 658.25 633.35 665.39 634.35 666.37"/></g><polyline points="676.19 606.14 675.96 637.8 675.96 639.17 675.95 640.98 675.91 645.79 675.75 668.7 671.67 668.67 669.55 668.65 669.71 645.83 669.74 640.95 669.75 638.86 669.76 637.83 669.98 606.17 669.99 605.95 670 605.64 674.06 605.67 676.2 605.68"/><path class="cls-1" d="M980.17,561.09h-.52c-1.72,31.49-7.47,38.66-20.37,54.71l-2.06,2.58c-16.4,20.49-37.94,22.7-46.44,22.7-1.82,0-3.02-.1-3.55-.14-.09-.02-.17-.02-.24-.02-.99,0-16.41-.07-42.12-.17l-183.72-.76,.28-33,175.59,.72c30.47,.13,48.99,.21,50.16,.21,1.03,.01,2.02,.06,2.99,.14,.09,.01,.31,.02,.61,.02,4.64,0,13.49-1.34,20.67-10.32,.51-.64,1.01-1.26,1.5-1.87l.61-.76c6.43-7.99,8.73-10.95,10.09-14.82,.88-2.48,1.4-4.53,1.73-7.34,.34-2.81,.48-6.37,.61-11.88h0c.04-2,.09-4.24,.14-6.8v-4.16c.13-1.79,.23-3.59,.33-5.39,.24-11.08,.41-26.45,.09-41.76-1.07-25.97-3.71-45.69-3.71-45.69-6.35-29.59-13.76-33.13-59.05-48.96-12.87-4.51-26.04-9.1-36.4-12.69l-.33,.94,.22-.98c-.96-.34-1.95-.74-2.94-1.19-2.59-1.13-11.08-4.09-19.19-4.09s-10.95,2.69-12.95,5.22c-4.36,5.54-5.64,10.7-4.3,17.27,.72,3.46,3.03,6.37,6.34,8,5.46,2.68,11.72,5.04,18.61,7,37.39,10.68,56.94,37.17,60.48,42.37,1.19,1.74,2.21,3.57,3.05,5.46,4.67,10.4,18.67,46.57,2.84,75.15-7.47,13.48-21.44,21.53-37.37,21.53s-32.46-7.32-54.31-23.04c-3.04-2.19-6.09-4.33-9.16-6.4l17.06-28.31c3.8,2.55,7.6,5.2,11.38,7.92,10.66,7.68,25.4,16.83,35.03,16.83,3.97,0,6.84-1.53,8.5-4.53,8.81-15.9-2.74-42.66-4.08-45.65-.05-.1-.1-.2-.2-.37-1.5-2.19-15.36-21.54-42.3-29.23-8.8-2.52-16.91-5.59-24.09-9.12-12.54-6.17-21.33-17.46-24.11-30.98-3.32-16.18,.29-31.09,10.72-44.32,9.3-11.81,22.38-17.8,38.86-17.8,8.63,0,16.69,1.7,22.68,3.43s9.89,3.49,10.21,3.64l1.34,.47c4.6,1.6,10.56,3.68,17.19,5.99,0,0,85.43,17.15,92.6,47.85,4.84,20.74,8.88,58.53,10.51,93.97,.4,1.56,.53,2.69,.48,3.07,0,.05,0,.11-.02,.17v8.35c.42,13.3,.46,25.94,.03,36.83Z"/><path class="cls-5" d="M815.44,514.57l-17.06,28.31c-7.04-4.79-14.11-9.27-21.13-13.37l-142.93-83.66-92.59-55.17-.13-.06c-2.96-1.23-10.87-4.08-20.26-4.08-10.7,0-19.36,3.61-27.23,11.35l-.07,.07-72.4,107.51c-2.6,3.86-4.19,8.33-4.61,12.91-.35,3.84-.53,8.25-.53,13.12v18.9c0,1.8-.14,3.59-.41,5.35-2.96,19.29-20.06,38.75-51.59,38.75-13.76,0-54.47-.62-77.52-.98l-1.06-.03c-1.23-.02-2.43-.1-3.58-.24-7.57-.92-48.27-7.76-106.62-52.07l-36.72-24.48c-10.44-6.96-18.24-16.7-22.55-28.16-5.42-14.39-3.94-29.27,4.05-40.82,6.08-8.77,18.3-19.22,42-19.22h127.16c2.57,0,5.13-.38,7.63-1.12,4.15-1.25,10.36-3.52,16.37-7.22,14.18-8.73,16.48-18.72,16.88-26.37,.85-6.47,.87-11.54,.05-15.05-.71-3-3.39-5.19-6.49-5.33l-51.9-2.41h-4.98l.56-33h5.17l54.55,2.5h.13c1.4,0,13.95,.3,23.83,10.72,9.04,9.52,13.09,24.4,12.04,44.23-2.53,48.14-49.57,62.25-64.02,65.44l-5.56,.61H162.5c-7.56,0-12.56,1.68-14.86,5-1.82,2.62-1.92,6.13-.31,10.42,1.87,4.96,5.32,9.22,9.99,12.32l37.59,25.07,.08,.06c46.08,35.16,79.23,43.79,88.39,45.61l5.18,.55c15.18,.25,61.71,.97,75.94,.97,16.77,0,18.8-9.64,18.98-10.74,.01-.11,.02-.23,.02-.36v-18.9c0-28.04,4.98-36.09,5.99-37.44,.25-.35,.5-.69,.77-1.06l77.94-115.76,.11-.14c14.56-15.63,32.4-23.56,53.03-23.56,19.45,0,34.32,7.16,35.59,7.79,.03,.02,.05,.03,.07,.04l93.99,55.99,142.94,83.67c7.13,4.17,14.33,8.7,21.51,13.54Z"/><path class="cls-2" d="M664.98,606.94l-.24,33c-177.73-.73-476.04-1.94-485.74-1.94-6.93,0-19.81-1.33-28.26-10.23-5.96-6.27-8.68-15.27-8.09-26.75,1.62-31.48-3.42-38.28-11.3-45.06-2.55-2.19-7.04-3.5-13.85-5.49-13.38-3.91-35.79-10.46-66.06-31.18-44.04-30.12-34.14-79.21-34.02-79.79,.06-.46,6.04-46.3,48.15-75.68,33.65-23.47,76.63-26,93.55-26,3.46,0,5.81,.11,6.91,.18h101.75l-.56,33h-101c-.72,0-1.46-.03-2.33-.08h-.18c-.54-.03-2.18-.1-4.59-.1-10.77,0-47.97,1.45-74.66,20.06-29.47,20.56-34.24,52.27-34.26,52.55l-.26,2.12-.19,.68-.02,.12c-.29,1.98-1.07,9.12,.85,17.72,2.6,11.64,8.97,20.79,19.49,27.99,25.93,17.74,44.43,23.15,56.68,26.73,9.33,2.73,18.15,5.31,26.12,12.15,18.69,16.08,24.64,34.86,22.74,71.78-.02,.35-.03,.68-.04,.97l-.03,1.06,.91,.1c.86,.1,1.69,.15,2.55,.15,10.16,0,342.4,1.35,485.98,1.94Z"/><polygon points="664.98 606.94 664.74 639.94 664.59 639.94 664.97 606.94 664.98 606.94"/><path d="M963.55,466.38c-.12-1.49-.23-2.98-.35-4.48-.31-4.01-.63-8.15-1.09-12.22l-.05-.49c-1.14-10.13-3.82-33.87-41.88-47.57-49.51-17.83-87.79-27.95-88.17-28.05l-.14-.04c-.26-.04-25.99-4.59-36.15,15.05-10.2,19.72-7.3,36.78,7.77,45.64,4.48,2.64,10.47,4.94,17.39,7.6,19.2,7.37,45.5,17.46,57.81,43.53,13.06,27.65,8.36,50.16,4.09,58.13-.49,.83-12.32,20.1-34.27,7.29-23.72-13.83-145.76-86.26-147-86.99l-125.59-73.72c-6.26-3.68-11.69-7.15-16.57-10.61-8.02-5.67-24.67-14.63-46.19-10.92-30.92,5.33-41.11,24.32-51.88,44.44l-54.94,81.92-.13,.22c-.46,.91-11.22,22.79-9.2,49.04,.69,8.98-1.27,16.42-5.81,22.1-3.77,4.72-9.52,7.73-15.76,8.26-10.33,.86-31,2.21-53.38,1.49-4.78-.15-9.34-.17-13.74-.18-23.87-.06-44.49-.12-81.25-23.51-38.41-24.44-66.34-43.3-76.56-50.27-5.87-4-10.76-8.81-14.53-14.29-3.25-4.73-6.85-11.66-5.52-17.83,2.41-11.28,7.73-22.38,43.1-23.42,26.71-.79,86.17-.34,110.5-.11,9.08,.07,17.97-1.44,26.33-4.53,10.49-3.89,24.35-10.74,30.82-21.32,9.42-15.42,8.91-44.45,7.27-49.7-4.21-13.62-33.29-16.95-56.95-17.34-14.74-.25-29.05-.8-42.89-1.33-42.82-1.65-83.27-3.22-129.46,4.36-32.12,5.26-52.31,22.45-63.59,35.94-11.62,13.9-16.33,26.53-16.92,28.22-1.54,2.82-20.51,39.32,2.31,66.11,22.93,26.92,38.07,33.27,68.24,45.91l1.51,.63c5.96,2.51,11.14,4.5,15.71,6.25,19.04,7.33,25.45,9.8,28.09,25.25,2.67,15.65,2.05,37.33,1.98,39.42-.23,1.18-.94,6.42,2.99,11.35,4.88,6.11,14.66,9.1,29,8.89l476.26,.69,.05-4-476.34-.69c-16.24,.25-22.98-3.85-25.79-7.32-3.17-3.92-2.27-8.05-2.24-8.21l.06-.4c.03-.95,.84-23.61-2.03-40.41-3.02-17.69-11.09-20.8-30.6-28.3-4.54-1.75-9.69-3.73-15.6-6.2l-1.5-.64c-29.58-12.4-44.43-18.62-66.75-44.82-21.8-25.59-1.98-61.36-1.78-61.71l.15-.35c.05-.13,4.58-13.17,16.37-27.23,10.84-12.92,30.23-29.38,61.06-34.44,45.8-7.5,86.05-5.95,128.67-4.3,13.86,.53,28.19,1.08,42.98,1.33,31.11,.52,50.49,5.81,53.19,14.52l.03,.1c1.14,3.64,2.15,31.53-6.9,46.34-5.86,9.6-18.89,15.98-28.79,19.65-7.9,2.92-16.25,4.38-24.9,4.28-24.35-.23-83.88-.68-110.66,.11-34.41,1.01-43.63,11.36-46.9,26.58-1.3,6.07,.77,13.11,6.15,20.93,4.05,5.89,9.28,11.05,15.57,15.33,10.24,6.99,38.2,25.87,76.67,50.35,37.73,24.01,58.88,24.07,83.38,24.13,4.37,.01,8.9,.03,13.63,.18,22.57,.73,43.42-.63,53.83-1.51,7.34-.61,14.1-4.16,18.55-9.74,5.2-6.5,7.44-14.88,6.67-24.9-1.86-24.21,7.94-45.18,8.75-46.85l54.92-81.89,.1-.17c12.47-23.31,22-37.8,49.08-42.47,20.09-3.46,35.69,4.93,43.2,10.25,4.98,3.52,10.49,7.05,16.86,10.79l125.58,73.71c1.23,.73,123.28,73.16,147.01,87.01,25.42,14.83,39.59-8.48,39.77-8.78,.55-1.01,13.28-25.31-3.95-61.8-13-27.53-40.16-37.95-59.99-45.57-6.76-2.59-12.6-4.83-16.81-7.3-6.25-3.68-19.37-14.97-6.23-40.36,8.55-16.54,30.45-13.19,31.79-12.96,1.99,.52,39.51,10.55,87.75,27.92,35.73,12.86,38.11,34.07,39.26,44.26l.06,.49c.45,4,.77,8.1,1.07,12.08,.12,1.5,.23,3,.36,4.49,1.61,19.75,2.7,58.88,.43,104.2-.73,14.59-6.12,26.49-16.03,35.37-12.93,11.58-33.37,17.44-56.05,16.08-12.5-.75-25-.87-36.65-.89l-169.96-.25-.03,4,169.98,.25c11.59,.02,24.03,.14,36.41,.88,2.24,.14,4.45,.2,6.65,.2,21.08,0,39.89-6.16,52.32-17.29,10.73-9.62,16.57-22.45,17.36-38.15,2.27-45.51,1.18-84.86-.45-104.72Z"/><path class="cls-3" d="M850.21,586.37c-1.11,0-2.25-.05-3.38-.15l.77-8.97c.88,.08,1.75,.11,2.6,.11v9Zm3.44-.16l-.87-8.96c1.09-.11,1.92-.26,2.42-.37l1.95,8.79c-1.09,.24-2.27,.43-3.5,.55Zm-10.14-.41c-1.08-.18-2.18-.41-3.26-.67l2.13-8.74c.87,.21,1.75,.39,2.61,.54l-1.48,8.88Zm-6.45-1.56c-1.03-.33-2.07-.7-3.1-1.09l3.27-8.39c.85,.33,1.71,.63,2.56,.9l-2.73,8.58Zm-6.1-2.37c-.97-.44-1.95-.93-2.91-1.44l4.21-7.96c.82,.43,1.65,.84,2.46,1.22l-3.76,8.18Zm-5.73-3.02c-.91-.54-1.82-1.12-2.72-1.71l4.98-7.5c.78,.52,1.57,1.02,2.35,1.48l-4.61,7.73Zm-5.21-3.38c-.78-.52-1.61-1.06-2.49-1.63l4.91-7.54c.89,.58,1.74,1.14,2.54,1.67l-4.97,7.5Zm-4.99-3.25c-.81-.52-1.65-1.06-2.51-1.61l4.84-7.58c.88,.56,1.72,1.1,2.54,1.63l-4.88,7.57Zm-5.03-3.21l-2.53-1.6,4.8-7.61,2.55,1.61-4.82,7.6Zm-5.07-3.19l-2.54-1.59,4.76-7.64,2.56,1.6-4.79,7.62Zm-5.08-3.17l-2.55-1.58,4.74-7.65,2.56,1.59-4.75,7.65Zm-5.1-3.16l-2.55-1.57,4.72-7.67,2.56,1.58-4.73,7.66Zm-5.1-3.14l-2.56-1.57,4.7-7.67,2.56,1.57-4.7,7.67Zm-5.11-3.13l-2.56-1.56,4.68-7.69,2.57,1.57-4.69,7.68Zm-5.12-3.12l-2.56-1.56,4.67-7.69,2.57,1.56-4.68,7.69Zm-5.13-3.11l-2.56-1.55,4.65-7.7,2.57,1.56-4.67,7.7Zm-5.13-3.1l-2.58-1.55,4.64-7.71,2.58,1.55-4.65,7.71Zm-5.15-3.1l-2.57-1.54,4.63-7.72,2.58,1.55-4.63,7.71Zm-5.14-3.08l-2.56-1.53,4.62-7.73,2.57,1.54-4.63,7.72Zm-5.13-3.07l-2.58-1.54,4.61-7.73,2.58,1.54-4.61,7.73Zm-5.16-3.07l-2.58-1.53,4.59-7.74,2.58,1.53-4.6,7.74Zm-5.16-3.06l-2.58-1.53,4.58-7.75,2.59,1.53-4.59,7.74Zm-5.16-3.05l-2.58-1.52,4.57-7.76,2.59,1.53-4.57,7.75Zm-5.17-3.04l-2.58-1.51,4.55-7.77,2.6,1.52-4.56,7.76Zm-5.17-3.02l-2.59-1.51,4.53-7.78,2.6,1.51-4.54,7.77Zm-5.18-3.02l-2.59-1.5,4.5-7.8,2.61,1.51-4.51,7.79Zm-5.2-3l-2.6-1.51,4.51-7.79,2.6,1.51-4.51,7.79Zm-5.21-3.02l-2.6-1.51,4.52-7.79,2.6,1.51-4.52,7.79Zm-5.2-3.02l-2.57-1.49,4.48-7.8,2.6,1.51-4.51,7.79Zm-5.21-3.02l-2.6-1.51,4.52-7.78,2.6,1.51-4.52,7.78Zm-5.19-3.02l-2.6-1.51,4.52-7.78,2.6,1.51-4.52,7.78Zm-5.2-3.02l-2.6-1.51,4.53-7.78,2.6,1.51-4.52,7.78Zm-5.19-3.02l-2.6-1.51,4.52-7.78,2.6,1.51-4.53,7.78Zm-5.19-3.02l-2.6-1.51,4.53-7.78,2.59,1.51-4.52,7.78Zm-5.2-3.02l-2.59-1.51,4.53-7.78,2.6,1.51-4.53,7.78Zm-5.19-3.02l-2.6-1.51,4.53-7.78,2.6,1.51-4.53,7.78Zm-5.19-3.02l-2.6-1.51,4.52-7.78,2.6,1.51-4.53,7.78Zm-5.19-3.02l-2.6-1.51,4.53-7.78,2.6,1.51-4.53,7.78Zm-5.19-3.02l-2.59-1.51,4.53-7.78,2.6,1.51-4.53,7.78Zm-5.19-3.02l-2.59-1.51,4.53-7.78,2.6,1.51-4.53,7.78Zm-5.19-3.02l-2.59-1.51,4.53-7.78,2.6,1.51-4.53,7.78Zm-5.19-3.02l-2.59-1.51,4.53-7.78,2.6,1.51-4.53,7.78Zm-5.19-3.02l-2.59-1.51,4.53-7.78,2.59,1.51-4.53,7.78Zm-5.19-3.02l-2.61-1.52,4.53-7.78,2.6,1.52-4.53,7.78Zm-5.21-3.03l-2.59-1.51,4.53-7.78,2.6,1.51-4.53,7.78Zm-5.19-3.02l-2.58-1.51,4.53-7.78,2.59,1.51-4.53,7.78Zm-5.18-3.02l-2.59-1.51,4.53-7.78,2.6,1.51-4.53,7.78Zm-5.19-3.02l-2.6-1.51,4.53-7.78,2.59,1.51-4.53,7.78Zm-5.19-3.02l-2.59-1.51,4.53-7.78,2.59,1.51-4.53,7.78Zm-5.19-3.02l-2.59-1.51,4.53-7.78,2.6,1.51-4.53,7.77Zm-5.19-3.02l-2.59-1.51,4.53-7.78,2.6,1.51-4.54,7.77Zm-5.19-3.02l-2.59-1.51,4.53-7.78,2.6,1.51-4.53,7.78Zm-5.19-3.02l-2.59-1.51,4.53-7.78,2.6,1.51-4.54,7.77Zm-5.19-3.02l-2.6-1.51,4.53-7.78,2.59,1.51-4.53,7.78Zm-5.19-3.03l-2.59-1.51,4.53-7.78,2.59,1.51-4.53,7.78Zm-5.19-3.02l-2.6-1.51,4.53-7.78,2.59,1.51-4.53,7.78Zm-5.19-3.03l-2.6-1.51,4.53-7.78,2.6,1.51-4.53,7.78Zm-5.19-3.03l-2.6-1.51,4.53-7.78,2.6,1.51-4.53,7.78Zm-5.19-3.03l-2.6-1.51,4.53-7.78,2.6,1.51-4.53,7.78Zm-5.2-3.03l-2.6-1.52,4.53-7.78,2.6,1.51-4.53,7.78Zm-5.21-3.03l-2.6-1.52,4.53-7.78,2.61,1.52-4.53,7.77Zm-5.22-3.04l-2.63-1.53,4.53-7.78,2.63,1.53-4.54,7.77Z"/><path class="cls-3" d="M888.5,654h-3v-9h3v9Zm-6,0h-3v-9h3v9Zm-6,0h-3v-9h3v9Zm-6,0h-3v-9h3v9Zm-6,0h-3v-9h3v9Zm-6,0h-3v-9h3v9Zm-6,0h-3v-9h3v9Zm-6,0h-3v-9h3v9Zm-6,0h-3v-9h3v9Zm-6,0h-3v-9h3v9Zm-6,0h-3v-9h3v9Zm-6,0h-3v-9h3v9Zm-6,0h-3v-9h3v9Zm-6,0h-3v-9h3v9Zm-6,0h-3v-9h3v9Zm-6,0h-3v-9h3v9Zm-6,0h-3v-9h3v9Zm-6,0h-3v-9h3v9Zm-6,0h-3v-9h3v9Zm-6,0h-3v-9h3v9Zm-6,0h-3v-9h3v9Zm-6,0h-3v-9h3v9Zm-6,0h-3v-9h3v9Zm-6,0h-3v-9h3v9Zm-6,0h-3v-9h3v9Zm-6,0h-3v-9h3v9Zm-6,0h-3v-9h3v9Zm-6,0h-3v-9h3v9Zm-6,0h-3v-9h3v9Zm-6,0h-3v-9h3v9Zm-6,0h-3v-9h3v9Zm-6,0h-3v-9h3v9Zm-6,0h-3v-9h3v9Zm-6,0h-3v-9h3v9Zm-6,0h-3v-9h3v9Z"/><path class="cls-3" d="M611.49,654h-3s.02-9.01,.02-9.01h3s-.02,9.01-.02,9.01Zm-6-.01h-3s.02-9.01,.02-9.01h3s-.02,9.01-.02,9.01Zm-6-.01h-3s.02-9.01,.02-9.01h3s-.02,9.01-.02,9.01Zm-6-.01h-3s.02-9.01,.02-9.01h3s-.02,9.01-.02,9.01Zm-6-.01h-3s.02-9.01,.02-9.01h3s-.02,9.01-.02,9.01Zm-6-.01h-3s.02-9.01,.02-9.01h3s-.02,9.01-.02,9.01Zm-6-.01h-3s.02-9.01,.02-9.01h3s-.02,9.01-.02,9.01Zm-6-.01h-3s.02-9.01,.02-9.01h3s-.02,9.01-.02,9.01Zm-6-.01h-3s.02-9.01,.02-9.01h3s-.02,9.01-.02,9.01Zm-6-.01h-3s.02-9.01,.02-9.01h3s-.02,9.01-.02,9.01Zm-6-.01h-3s.02-9.01,.02-9.01h3s-.02,9.01-.02,9.01Zm-6-.01h-3s.02-9.01,.02-9.01h3s-.02,9.01-.02,9.01Zm-6-.01h-3s.02-9.01,.02-9.01h3s-.02,9.01-.02,9.01Zm-6-.01h-3s.02-9.01,.02-9.01h3s-.02,9.01-.02,9.01Zm-6-.01h-3s.02-9.01,.02-9.01h3s-.02,9.01-.02,9.01Zm-6-.01h-3s.02-9.01,.02-9.01h3s-.02,9.01-.02,9.01Zm-6-.01h-3s.02-9.01,.02-9.01h3s-.02,9.01-.02,9.01Zm-6-.01h-3s.02-9.01,.02-9.01h3s-.02,9.01-.02,9.01Zm-6-.01h-3s.02-9.01,.02-9.01h3s-.02,9.01-.02,9.01Zm-6-.01h-3s.02-9.01,.02-9.01h3s-.02,9.01-.02,9.01Zm-6-.01h-3s.02-9.01,.02-9.01h3s-.02,9.01-.02,9.01Zm-6-.01h-3s.02-9.01,.02-9.01h3s-.02,9.01-.02,9.01Zm-6-.01h-3s.02-9.01,.02-9.01h3s-.02,9.01-.02,9.01Zm-6-.01h-3s.02-9.01,.02-9.01h3s-.02,9.01-.02,9.01Zm-6-.01h-3s.02-9.01,.02-9.01h3s-.02,9.01-.02,9.01Zm-6-.01h-3s.02-9.01,.02-9.01h3s-.02,9.01-.02,9.01Zm-6-.01h-3s.02-9.01,.02-9.01h3s-.02,9.01-.02,9.01Zm-6-.01h-3s.02-9.01,.02-9.01h3s-.02,9.01-.02,9.01Zm-6-.01h-3s.02-9.01,.02-9.01h3s-.02,9.01-.02,9.01Zm-6-.01h-3s.02-9.01,.02-9.01h3s-.02,9.01-.02,9.01Zm-6-.01h-3s.02-9.01,.02-9.01h3s-.02,9.01-.02,9.01Zm-6-.01h-3s.02-9.01,.02-9.01h3s-.02,9.01-.02,9.01Zm-6-.01h-3s.02-9.01,.02-9.01h3s-.02,9.01-.02,9.01Zm-6-.01h-3s.02-9.01,.02-9.01h3s-.02,9.01-.02,9.01Zm-6-.01h-3s.02-9.01,.02-9.01h3s-.02,9.01-.02,9.01Zm-6-.01h-3s.02-9.01,.02-9.01h3s-.02,9.01-.02,9.01Zm-6-.01h-3s.02-9.01,.02-9.01h3s-.02,9.01-.02,9.01Zm-6-.01h-3s.02-9.01,.02-9.01h3s-.02,9.01-.02,9.01Zm-6-.01h-3s.02-9.01,.02-9.01h3s-.02,9.01-.02,9.01Zm-6-.01h-3s.02-9.01,.02-9.01h3s-.02,9.01-.02,9.01Zm-6-.01h-3s.02-9.01,.02-9.01h3s-.02,9.01-.02,9.01Zm-6-.01h-3s.02-9.01,.02-9.01h3s-.02,9.01-.02,9.01Zm-6-.01h-3s.02-9.01,.02-9.01h3s-.02,9.01-.02,9.01Zm-6-.01h-3s.02-9.01,.02-9.01h3s-.02,9.01-.02,9.01Zm-6-.01h-3s.02-9.01,.02-9.01h3s-.02,9.01-.02,9.01Zm-6-.01h-3s.02-9.01,.02-9.01h3s-.02,9.01-.02,9.01Zm-6-.01h-3s.02-9.01,.02-9.01h3s-.02,9.01-.02,9.01Zm-6-.01h-3s.02-9.01,.02-9.01h3s-.02,9.01-.02,9.01Zm-6-.01h-3s.02-9.01,.02-9.01h3s-.02,9.01-.02,9.01Zm-6-.01h-3s.02-9.01,.02-9.01h3s-.02,9.01-.02,9.01Zm-6-.01h-3s.02-9.01,.02-9.01h3s-.02,9.01-.02,9.01Zm-6-.01h-3s.02-9.01,.02-9.01h3s-.02,9.01-.02,9.01Zm-6-.01h-3s.02-9.01,.02-9.01h3s-.02,9.01-.02,9.01Zm-6-.01h-3s.02-9.01,.02-9.01h3s-.02,9.01-.02,9.01Zm-6-.01h-3s.02-9.01,.02-9.01h3s-.02,9.01-.02,9.01Zm-6-.01h-3s.02-9.01,.02-9.01h3s-.02,9.01-.02,9.01Zm-6-.01h-3s.02-9.01,.02-9.01h3s-.02,9.01-.02,9.01Zm-6-.01h-3s.02-9.01,.02-9.01h3s-.02,9.01-.02,9.01Zm-6-.01h-3s.02-9.01,.02-9.01h3s-.02,9.01-.02,9.01Zm-6-.01h-3s.02-9.01,.02-9.01h3s-.02,9.01-.02,9.01Zm-6-.01h-3s.02-9.01,.02-9.01h3s-.02,9.01-.02,9.01Zm-6-.01h-3s.02-9.01,.02-9.01h3s-.02,9.01-.02,9.01Zm-6-.01h-3s.02-9.01,.02-9.01h3s-.02,9.01-.02,9.01Zm-6-.01h-3s.02-9.01,.02-9.01h3s-.02,9.01-.02,9.01Zm-6-.01h-3s.02-9.01,.02-9.01h3s-.02,9.01-.02,9.01Zm-6-.01h-3s.02-9.01,.02-9.01h3s-.02,9.01-.02,9.01Zm-6-.01h-3s.02-9.01,.02-9.01h3s-.02,9.01-.02,9.01Zm-6-.01h-3s.02-9.01,.02-9.01h3s-.02,9.01-.02,9.01Zm-6-.01h-3s.02-9.01,.02-9.01h3s-.02,9.01-.02,9.01Zm-6-.01h-3s.02-9.01,.02-9.01h3s-.02,9.01-.02,9.01Zm-6-.01h-3s.02-9.01,.02-9.01h3s-.02,9.01-.02,9.01Zm-6-.01h-3s.02-9.01,.02-9.01h3s-.02,9.01-.02,9.01Zm-6-.01h-3s.02-9.01,.02-9.01h3s-.02,9.01-.02,9.01Zm-6-.01h-3s.02-9.01,.02-9.01h3s-.02,9.01-.02,9.01Zm-6-.01h-3s.02-9.01,.02-9.01h3s-.02,9.01-.02,9.01Z"/><circle class="cls-4" cx="444" cy="442" r="10"/><circle class="cls-4" cx="961" cy="566" r="10"/></svg>