<?xml version="1.0" encoding="UTF-8"?><svg id="Circuit_of_the_Americas_Simple" xmlns="http://www.w3.org/2000/svg" viewBox="0 0 1000 1000"><defs><style>.cls-1{fill:#fae44a;}.cls-2{fill:#db4a25;}.cls-3{fill:#1bce20;}.cls-4{fill:#75e5fd;}</style></defs><path class="cls-2" d="M593,497c-10.47-6.44-22.11-13.5-25.09-14.46-3.57-1.15-10.21-3.28-23.68,4.42-13.37,7.64-15.54,13.76-17.83,20.24l-.11,.32c-2.32,6.55-3.49,11.8-4.42,16.02-.39,1.77-.73,3.31-1.1,4.65-1.76,6.47-8.16,17.45-13.78,21.91-5.53,4.38-15.76,8.71-30.42,12.86-8.93,2.53-10.39,5.78-11.93,9.23-.26,.57-.51,1.14-.79,1.69-.53,1.06-1.27,2.69-2.13,4.58-2.45,5.4-5.81,12.81-8.72,16.77-4.29,5.85-10.46,13.22-20.22,18.37-3.7,1.95-16.04,8-30.33,15.01-19.46,9.54-46.11,22.61-48.14,24.06-.19,.13-18.54,13.93-14.8,35.86,2.62,15.36,17.04,72.01,17.19,72.59l.06,.34c.1,.9,2.23,22.14-10.81,27.94-4.21,1.87-8.12,2.64-11.76,2.64-7.43,0-13.75-3.19-19.2-6.67-15.58-9.93-51.59-42.6-113.34-102.81-60.27-58.77-123.04-117.13-123.66-117.71l-1.83-1.7,22.53-22.99,1.73,1.65,211.03,200.37c2.97,2.61,6.35,5.48,8.99,7.61-3.59-14.91-12.29-52.36-13.47-57.45l-.05-.28c-.09-.78-2.02-19.4,6.64-38.31,6.23-13.61,15.39-23.77,27.99-31.05,11.52-6.66,74.87-37.23,77.56-38.53l.2-.09s7.08-3.09,13.43-18.94c3.69-9.22,11.85-20.03,16.69-23.52,4.38-3.17,8.86-6.05,19.33-9.19,8.75-2.62,16.33-6.03,18.11-6.86,.78-.95,4.16-5.88,6.5-21.6,2.33-15.69,12.9-28.72,22.01-35.69,10.44-7.98,28.79-15.67,37.35-17.67,8.6-2.01,20.99-.36,28.28,2.22,2.33,.82,18.05,10.51,29.45,17.61l-17.48,26.56Z"/><path class="cls-4" d="M393.07,440.79c-11.26-18.28-22.56-35.39-22.74-35.68-.34-.51-8.36-12.79-1.1-23.53,6.43-9.52,10.56-10.07,17.92-10.28l1.33-.04c7.2-.25,208.04-7.2,208.04-7.2,.87-.06,97.08-6.95,179.31-19.35,21.02-3.17,49.34-8.77,66.26-12.12l5.81-1.15c7.47-1.47,20.95-4.55,35.23-7.81,15.42-3.52,31.36-7.16,40.39-8.91l1.91-.37c17.11-3.34,33.28-6.49,39.8,6.28,5.81,11.36,7.93,17.02-2.75,32.08-9.96,14.05-113.63,117.3-119.48,123.13-.92,1.17-6.87,8.35-16.83,11.67-6.82,2.27-18.12,3.49-30.08,4.78-5.96,.64-12.11,1.3-17.48,2.09-27.99,4.13-46.09,5.42-53.82,3.83-10-2.05-16.23-13.33-19.7-22.43-1.75-4.59-3.13-6.43-9.86-6.07-7.59,.41-10.48,4.64-14.86,11.04-.97,1.42-1.98,2.89-3.11,4.43-6.39,8.69-29.07,25.7-40.14,27.12-10.6,1.36-16.18,1.72-27.11-4.87-2.94-1.78-6.79-4.15-10.86-6.67-1.94-1.2-4.01-2.48-6.11-3.77l17.45-26.56c4.97,3.1,9.12,5.71,10.99,6.89l.23,.16c2.61,2.11,5.89,3.92,6.88,3.87,2.06-.3,7.95-3.59,11.47-5.83,.05-.03,11.32-7.8,20.72-20,4.5-5.84,17.25-16.94,33.35-17.16,11.53-.16,14.46,.77,21.93,4.81,10.77,5.83,17.27,18.31,19.2,23.7,2.96-.13,12.25-.92,41.32-4.55,4.23-.53,9.28-1.07,14.17-1.58,9.76-1.04,23.13-2.46,25.1-3.53,7.03-4.84,73.89-73.68,108.71-109.88-14.25,3.06-53.87,11.87-70.68,15.62-.41,.08-37.35,7.71-71.73,13.14-35.65,5.63-106.39,14.03-184.06,20.08-51.53,4.02-167.57,6.56-191.05,7.04,2.86,4.82,13.95,23.82,13.95,23.82l-27.91,13.76Z"/><path class="cls-1" d="M420.99,427.04c7.78,13.48,16.3,28.62,20.42,37.23,3.5,7.31,7.08,18.17-2.13,28.07-5.95,6.4-10.63,9.26-22.61,9.26-.28,0-27.74-.04-33.17-1.64-4.9-1.44-9.29-3.22-13.34-10.39-1.98-3.51-2.63-7.84-3.37-12.85-.61-4.1-1.3-8.75-2.9-13.41-.99-2.88-8.56-12.21-14.12-17.98,4.08,9.43,11.45,25.26,14.42,31.66l1.11,2.39c1.42,3.05,13.83,30.08,14.11,41.08,.42,16.6-11.73,39.15-14.87,43.42-.52,.7-1.04,1.46-1.6,2.26-3.39,4.9-8.03,11.62-17.6,15.4-1.01,.4-2.17,.87-3.45,1.38-9.86,3.96-26.36,10.59-36.91,11.76-14.97,1.67-25.28-.83-37.06-5.38l-1.65-.64c-11.18-4.3-25.09-9.65-31.47-19.23-8.4-12.59-15.39-24.69-21.55-35.37-3.53-6.12-6.87-11.89-10.12-17.16-2.74-4.45-6.56-10.81-10.26-16.96-4.32-7.2-8.41-14-10.42-17.16-.13-.2-.38-.29-.61-.21l-106.7,35.42,15.35,13.8-22.31,22.31-1.71-1.47c-7.55-6.51-25.26-21.86-26.55-23.65l-.3-.41c-2.23-3.05-6.87-9.39-3.44-20.09,2.89-9.01,7.03-12.37,13.67-15.42,14.28-6.57,115.68-39.54,119.99-40.94l.22-.06c1.73-.39,17.16-3.67,24.97,.63,6.58,3.61,9.44,5.36,14.22,12.47,5.54,8.24,36.83,59.98,48.2,80.68,2.34,4.26,7.08,6.67,11.35,8.6,11.84,5.35,14.36,6.23,22.48,7.8,7.05,1.36,12.25,.18,21.23-2.99,8.35-2.95,17.98-6.76,21.45-8.5,7.04-3.52,9.48-16.15,9.5-16.27l.08-.32c1.67-5.03,3.73-14.39,2.13-18.07-2.53-5.81-35.89-76.88-36.23-77.6l-.1-.24c-2.1-6.11-2.93-19.31,9.01-25.57,10.59-5.55,18.23-5.83,27.84-4.43,10.42,1.52,19.47,6.12,24.21,12.31,4.84,6.32,15.67,20.84,18.31,25.4,4.55,7.89,5.69,20.61,5.97,25.72,.02,.3,.6,.7,1.23,.71l15.52,.29c-4.3-8.55-11.39-20.53-18.48-32.04l28.02-13.59Z"/><path d="M947.1,313.39c8.42,0,13.45,2.51,16.34,8.15,2.82,5.51,4.66,9.45,4.59,13.71-.07,4.43-2.23,9.3-7.19,16.3-9.91,13.98-114.8,118.43-119.26,122.87l-.09,.09-.08,.1c-.62,.79-6.36,7.83-15.89,11-6.62,2.2-17.81,3.41-29.67,4.68-5.96,.64-12.12,1.3-17.55,2.1-20.1,2.96-35.16,4.47-44.76,4.47-3.56,0-6.37-.21-8.36-.62-9.11-1.87-14.94-12.55-18.23-21.18-1.65-4.33-3.35-7.4-10.19-7.4-.51,0-1.06,.02-1.64,.05-8.58,.46-12.03,5.51-16.42,11.93-.96,1.4-1.95,2.84-3.06,4.35-6.06,8.24-28.35,24.98-38.78,26.32-3.37,.43-6.39,.79-9.19,.79-4.62,0-9.21-.92-16.63-5.39-2.88-1.73-6.63-4.05-10.6-6.5l-.27-.17c-15.22-9.4-28.11-17.27-31.65-18.41-1.56-.5-3.92-1.26-7.2-1.26-5.28,0-11.2,1.91-18.09,5.85-14.02,8.01-16.41,14.77-18.73,21.31l-.11,.32c-2.36,6.67-3.54,11.99-4.5,16.29-.38,1.74-.72,3.23-1.07,4.52-1.64,6.05-7.85,16.71-13.09,20.86-5.32,4.21-15.32,8.42-29.72,12.51-9.83,2.79-11.55,6.62-13.21,10.33l-.03,.06c-.25,.55-.48,1.06-.73,1.56-.55,1.1-1.3,2.74-2.16,4.66-2.41,5.32-5.72,12.61-8.5,16.4-4.16,5.68-10.14,12.83-19.54,17.78-3.68,1.94-16.01,7.99-30.28,14.99l-.11,.05c-26.15,12.82-46.31,22.75-48.32,24.18-.2,.14-19.55,14.73-15.61,37.83,2.57,15.06,16.39,69.49,17.21,72.67l.04,.2c.15,1.52,1.85,20.72-9.65,25.83-3.73,1.66-7.31,2.46-10.95,2.46-7.19,0-13.2-3.21-18.12-6.35-15.46-9.86-51.37-42.45-113.01-102.56-59.21-57.73-121.07-115.3-123.7-117.75l-.32-.3,19.71-20.12,.31,.29,211.03,200.37,.03,.03,.03,.03c3.08,2.71,6.47,5.57,9.06,7.66l4.58,3.69-1.38-5.71c-3.37-13.99-11.13-47.38-13.45-57.38l-.03-.16c-.14-1.31-1.82-19.09,6.47-37.2,6.05-13.22,14.94-23.08,27.18-30.15,11.38-6.58,74.15-36.88,77.39-38.44l.16-.07c.32-.14,7.89-3.52,14.5-20.04,3.51-8.77,11.48-19.38,16-22.65,4.23-3.06,8.56-5.84,18.73-8.89,8.78-2.63,16.29-5.99,18.38-6.96l.42-.19,.29-.36c1.02-1.26,4.55-6.6,6.93-22.57,2.25-15.1,12.45-27.67,21.25-34.39,10.23-7.82,28.21-15.35,36.59-17.31,2.39-.56,5.21-.84,8.38-.84,6.25,0,13.62,1.18,18.78,3,2.28,.81,21.72,12.76,39.98,24.27l.14,.1c1.53,1.23,5.83,4.28,8.04,4.28h.23l.1-.02c3.37-.49,12.16-6.07,12.25-6.12l.04-.03,.03-.02c.48-.33,11.8-8.27,21.16-20.42,4.29-5.57,16.46-16.17,31.79-16.39,.8-.01,1.56-.02,2.28-.02,9.2,0,11.92,.93,18.68,4.59,9.98,5.4,16.31,17.15,18.26,22.61l.5,1.39,1.47-.06c2.83-.12,11.99-.88,41.48-4.57,4.23-.53,9.26-1.06,14.14-1.58,15.94-1.69,23.87-2.69,25.84-3.76l.09-.05,.09-.06c8.96-6.16,104.94-105.9,109.02-110.14l4.54-4.71-6.4,1.37c-13.91,2.99-52.33,11.53-70.69,15.62-1.54,.32-37.99,7.81-71.61,13.12-35.63,5.63-106.31,14.02-183.9,20.06-51.52,4.01-168.09,6.56-190.93,7.03l-3.43,.07,1.75,2.95c6.23,10.5,27.12,45.91,34.29,60.91,3.52,7.35,6.49,16.94-1.79,25.85-5.65,6.08-9.84,8.62-21.14,8.62-7.08,0-28.28-.29-32.61-1.56-4.64-1.36-8.47-2.93-12.17-9.46-1.8-3.19-2.42-7.34-3.14-12.16-.62-4.19-1.33-8.93-2.98-13.76-1.18-3.45-9.28-13.23-14.57-18.72l-7.67-7.96,4.39,10.14c4.13,9.53,11.62,25.64,14.45,31.71l1.11,2.39c5.07,10.91,13.71,31.67,13.93,40.29,.41,16.09-11.42,38.03-14.48,42.18-.53,.71-1.05,1.48-1.63,2.31-3.24,4.69-7.68,11.12-16.69,14.68-.96,.38-2.06,.82-3.26,1.3l-.21,.08c-9.76,3.92-26.1,10.49-36.38,11.63-3.06,.34-5.92,.51-8.72,.51-10.37,0-18.45-2.3-27.4-5.76l-1.65-.64c-10.91-4.2-24.49-9.42-30.52-18.47-8.37-12.55-15.34-24.62-21.49-35.26l-.03-.06c-3.53-6.11-6.86-11.88-10.12-17.15-2.75-4.46-6.56-10.8-10.25-16.94l-.09-.15c-4.29-7.14-8.35-13.89-10.35-17.04-.46-.73-1.26-1.17-2.13-1.17-.26,0-.52,.04-.8,.13l-106.7,35.42-3.27,1.08,2.56,2.3,13.78,12.39-19.5,19.5-.3-.26c-18.2-15.7-25.49-22.33-26.24-23.31l-.3-.42c-2.19-2.99-6.26-8.57-3.15-18.3,2.68-8.35,6.34-11.34,12.6-14.22,14.05-6.46,114.76-39.23,119.73-40.84l.13-.04c.88-.19,7-1.5,13.23-1.5,4.49,0,7.95,.65,10.3,1.94,6.55,3.6,9.05,5.18,13.52,11.84,5.53,8.22,36.76,59.87,48.11,80.52,2.64,4.8,7.72,7.4,12.27,9.46,12.03,5.44,14.6,6.33,22.92,7.94,2.07,.4,4,.59,5.91,.59,5.01,0,9.79-1.34,16.37-3.66,8.42-2.97,18.15-6.83,21.68-8.59,7.68-3.84,10.33-16.46,10.56-17.62l.05-.2c.35-1.08,4.43-13.95,2.05-19.42-2.5-5.76-35.16-75.33-36.23-77.6l-.06-.14c-1.9-5.57-2.64-17.49,8.07-23.1,6.48-3.4,12.14-4.91,18.33-4.91,2.43,0,5.06,.22,8.29,.69,9.92,1.44,18.48,5.76,22.91,11.54,4.81,6.28,15.58,20.71,18.16,25.18,4.34,7.52,5.44,19.87,5.71,24.83,.09,1.57,1.72,2.57,3.19,2.6l15.52,.29,3.31,.06-1.49-2.96c-11.12-22.1-40.94-67.31-41.25-67.77-.31-.47-7.62-11.66-1.11-21.3,5.9-8.74,9.27-9.2,16.32-9.41l1.33-.04c7.2-.25,208.04-7.2,208.04-7.2h.13c4-.3,98.82-7.22,179.41-19.37,21.05-3.17,49.39-8.78,66.35-12.14l5.81-1.15c7.47-1.47,20.92-4.54,35.16-7.79l.12-.03,.15-.03c15.34-3.5,31.21-7.12,40.17-8.86l1.91-.37c7.7-1.5,14.98-2.92,21.31-2.92m0-2c-6.51,0-14,1.46-21.69,2.96l-1.91,.37c-9.03,1.75-24.97,5.39-40.39,8.91-14.28,3.26-27.76,6.34-35.23,7.81l-5.81,1.15c-16.92,3.35-45.24,8.95-66.26,12.12-82.23,12.4-178.43,19.28-179.31,19.35,0,0-200.84,6.95-208.04,7.2l-1.33,.04c-7.35,.21-11.49,.77-17.92,10.28-7.26,10.74,.76,23.02,1.1,23.53,.31,.46,30.02,45.49,41.13,67.56l-15.52-.29c-.63-.01-1.21-.41-1.23-.71-.28-5.1-1.42-17.83-5.97-25.72-2.63-4.56-13.47-19.08-18.31-25.4-4.74-6.19-13.79-10.79-24.21-12.31-3-.44-5.81-.71-8.58-.71-6.09,0-11.97,1.32-19.26,5.14-11.94,6.26-11.11,19.46-9.01,25.57l.1,.24c.34,.72,33.7,71.78,36.23,77.6,1.6,3.68-.46,13.03-2.13,18.07l-.08,.32c-.02,.13-2.46,12.76-9.5,16.27-3.48,1.74-13.1,5.55-21.45,8.5-6.5,2.3-11.02,3.55-15.7,3.55-1.78,0-3.59-.18-5.53-.56-8.12-1.57-10.64-2.45-22.48-7.8-4.26-1.93-9-4.34-11.34-8.6-11.37-20.69-42.66-72.44-48.2-80.68-4.78-7.11-7.64-8.86-14.22-12.47-3.02-1.66-7.19-2.19-11.26-2.19-6.45,0-12.65,1.32-13.71,1.56l-.22,.06c-4.31,1.4-105.71,34.37-119.99,40.94-6.64,3.05-10.79,6.41-13.67,15.42-3.43,10.7,1.21,17.04,3.44,20.09l.3,.41c1.29,1.8,19,17.14,26.55,23.65l1.71,1.47,22.31-22.31-15.35-13.8,106.7-35.42c.06-.02,.11-.03,.17-.03,.18,0,.35,.09,.44,.24,2.01,3.16,6.09,9.96,10.42,17.16,3.69,6.15,7.51,12.51,10.26,16.96,3.25,5.27,6.59,11.05,10.12,17.16,6.17,10.68,13.16,22.78,21.55,35.37,6.38,9.57,20.29,14.93,31.47,19.23l1.65,.64c9.29,3.59,17.66,5.9,28.12,5.9,2.81,0,5.77-.17,8.94-.52,10.55-1.17,27.05-7.8,36.91-11.76,1.28-.51,2.43-.98,3.45-1.38,9.57-3.78,14.21-10.5,17.6-15.4,.55-.8,1.08-1.56,1.6-2.26,3.14-4.27,15.3-26.82,14.87-43.42-.28-11-12.7-38.03-14.11-41.08l-1.11-2.39c-2.98-6.4-10.34-22.23-14.42-31.66,5.56,5.77,13.14,15.1,14.12,17.98,1.59,4.66,2.28,9.31,2.9,13.41,.75,5.01,1.39,9.34,3.37,12.85,4.05,7.17,8.44,8.95,13.34,10.39,5.43,1.6,32.9,1.64,33.17,1.64,11.98,0,16.66-2.86,22.61-9.26,9.2-9.9,5.62-20.77,2.13-28.07-7.16-14.97-27.65-49.73-34.38-61.07,23.48-.48,139.52-3.02,191.05-7.04,77.67-6.05,148.41-14.45,184.06-20.08,34.38-5.43,71.32-13.06,71.73-13.14,16.82-3.75,56.44-12.56,70.68-15.62-34.82,36.2-101.68,105.05-108.71,109.88-1.96,1.07-15.33,2.49-25.1,3.53-4.89,.52-9.94,1.06-14.17,1.58-29.07,3.63-38.36,4.43-41.32,4.55-1.93-5.39-8.43-17.87-19.2-23.7-6.95-3.76-9.97-4.83-19.63-4.83-.73,0-1.49,0-2.3,.02-16.1,.23-28.85,11.33-33.35,17.17-9.4,12.21-20.68,19.97-20.72,20-3.52,2.24-9.41,5.53-11.47,5.83h-.04c-1.03,0-4.26-1.8-6.83-3.87l-.23-.16c-6.16-3.88-37.08-23.31-40.43-24.49-5.03-1.77-12.48-3.11-19.44-3.11-3.13,0-6.17,.27-8.84,.89-8.56,2-26.91,9.68-37.35,17.67-9.11,6.96-19.68,20-22.01,35.69-2.34,15.73-5.72,20.65-6.5,21.6-1.79,.83-9.36,4.23-18.11,6.86-10.47,3.14-14.95,6.02-19.33,9.19-4.84,3.5-13,14.3-16.69,23.52-6.34,15.86-13.39,18.93-13.43,18.94l-.2,.09c-2.69,1.3-66.05,31.87-77.56,38.53-12.6,7.28-21.76,17.44-27.99,31.05-8.66,18.91-6.72,37.53-6.64,38.31l.05,.28c1.18,5.1,9.88,42.54,13.47,57.45-2.65-2.13-6.02-4.99-8.99-7.61l-211.03-200.37-1.73-1.65-22.53,22.99,1.83,1.7c.63,.58,63.39,58.94,123.66,117.71,61.74,60.21,97.76,92.88,113.34,102.81,5.45,3.48,11.77,6.67,19.2,6.67h0c3.64,0,7.55-.77,11.76-2.64,13.04-5.79,10.91-27.04,10.81-27.94l-.06-.34c-.15-.57-14.57-57.22-17.19-72.59-3.74-21.93,14.61-35.73,14.8-35.86,2.03-1.45,28.68-14.52,48.14-24.06,14.29-7.01,26.63-13.06,30.33-15.01,9.75-5.15,15.93-12.52,20.22-18.37,2.91-3.97,6.27-11.37,8.72-16.77,.86-1.89,1.6-3.52,2.13-4.58,.28-.55,.53-1.12,.79-1.69,1.54-3.44,3-6.69,11.93-9.23,14.66-4.16,24.89-8.48,30.42-12.86,5.62-4.45,12.02-15.43,13.78-21.91,.36-1.34,.7-2.88,1.1-4.65,.93-4.22,2.1-9.47,4.42-16.02l.11-.32c2.29-6.48,4.46-12.6,17.83-20.24,7.69-4.4,13.16-5.59,17.1-5.59,2.96,0,5.05,.67,6.58,1.16,3.6,1.15,19.57,11.02,31.23,18.22,4.07,2.51,7.92,4.89,10.86,6.67,7.23,4.36,12.11,5.68,17.66,5.68,2.84,0,5.85-.35,9.45-.81,11.06-1.42,33.74-18.42,40.14-27.12,1.14-1.55,2.14-3.01,3.11-4.43,4.38-6.4,7.27-10.63,14.86-11.04,.55-.03,1.06-.04,1.53-.04,5.42,0,6.72,1.89,8.32,6.11,3.47,9.1,9.7,20.38,19.7,22.43,2.13,.44,5.06,.66,8.76,.66,9.71,0,24.8-1.5,45.05-4.49,5.36-.79,11.52-1.45,17.48-2.09,11.96-1.29,23.26-2.5,30.08-4.78,9.96-3.32,15.91-10.5,16.83-11.67,5.85-5.83,109.52-109.08,119.48-123.13,10.68-15.06,8.56-20.72,2.75-32.08-3.6-7.04-10.12-9.24-18.12-9.24h0Z"/><g id="Start_Line"><polygon points="55.22 579.68 69.6 565.31 74 560.91 74.65 560.26 96.54 538.39 96.87 538.05 92.52 533.69 92.24 533.98 70.34 555.86 69.48 556.72 65.3 560.89 50.87 575.32 55.22 579.68"/><polygon points="76.85 584.45 76.85 568.19 72.85 568.18 72.84 580.45 60.58 580.45 60.58 584.45 76.85 584.45"/><polygon points="88.33 596.03 88.34 579.77 84.34 579.77 84.34 592.03 72.07 592.02 72.07 596.03 88.33 596.03"/><polygon points="99.83 607.6 99.83 591.34 95.83 591.34 95.82 603.6 83.57 603.59 83.56 607.6 99.83 607.6"/></g><path d="M331.21,775.94c-6.25,0-13.26-4.38-15.56-6.46-55.38-50.43-220.5-207.91-222.16-209.5l2.76-2.89c1.66,1.58,166.75,159.04,222.09,209.44,3.18,2.9,11.69,7.17,15.96,4.69,3.28-1.91,3.9-8.22,1.74-17.77-2-8.85-4.23-17.35-6.39-25.57-4.03-15.34-7.83-29.83-8.65-41.73-.92-13.37,6.71-38.16,26.02-48.88,17.49-9.72,75.53-40.09,78.23-41.51,1.14-.77,17.32-12.07,27.89-38.49,2.2-5.5,7.78-7.21,14.84-9.38,7.73-2.37,18.31-5.62,29.71-15.39,2.17-1.86,3.54-7,5.12-12.95,2.93-11.02,6.94-26.12,19.77-38.95,12.33-12.33,26.92-17.76,44.55-16.58,15.16,1.01,31.72,15.21,33.12,16.43,6.57,4.78,25.14,16.58,33.28,14.62,12.45-3,19.54-11.53,27.05-20.56,9.19-11.06,18.7-22.49,38.42-22.49,12.52,0,19.31,11.3,24.28,19.54,2.11,3.51,4.11,6.83,5.69,7.71,4.88,1.79,65.48-5.71,87.72-9.23,5.37-.85,9.65-2.2,10.9-3.44l105.97-108.97c7.05-6.81,17.65-19.75,16.25-25.69-.21-.9-.8-2.19-3.41-3.01-2.7-.76-24.06,3.07-75.92,16.03-51.53,12.88-144.32,23.94-145.25,24.05-.99,.11-98.21,11.27-130.6,13.51-40.81,2.83-117.13,4.8-167.64,6.11-8.7,.23-16.68,.43-23.65,.62-.59,.02-1.32,.02-2.16,.02-4.02,0-13.59,0-15.39,3.12-.58,1.02-.27,2.57,.93,4.63,7.31,12.54,24.79,40.67,24.97,40.95l.07,.12,17.98,33.96c.36,.62,2.86,5.25,.23,9.6-3.09,5.12-11.88,7.26-26.1,6.37-1.26-.08-2.45-.15-3.58-.21-13.17-.75-19.79-1.12-21.28-14.57-.19-1.69-.31-3.13-.41-4.43-.45-5.48-.65-7.98-5.32-15.76-7.41-12.35-22.7-29.46-30.95-28.06-.94,.16-1.84,.3-2.7,.44-5.74,.93-9.89,1.61-10.86,3.45-1.27,2.41,1.49,8.89,4.04,14.27,9.14,19.3,30.48,64.71,31.17,69.57,3.32,23.23-7.43,40.71-13.58,46.71-7.57,7.39-43.53,19.6-51.08,20.33-7.28,.7-41.5-4.85-51.91-18.55-8.6-11.32-49.47-80.68-52.06-85.08-.93-1.14-9.89-11.55-25.25-6.73-10.52,3.31-47.81,16.88-75.04,26.79-16.26,5.92-29.11,10.59-32.43,11.7-5.05,1.68-7.72,3.41-8.16,5.28-.43,1.83,1.1,4.57,4.45,7.91l12.5,12.5-2.83,2.83-12.5-12.5c-4.5-4.5-6.3-8.31-5.51-11.66,1.03-4.36,6.03-6.57,10.79-8.16,3.27-1.09,16.09-5.76,32.33-11.67,27.26-9.92,64.6-23.51,75.21-26.85,18.62-5.85,29.58,8.05,29.68,8.19l.14,.21c.43,.73,43.31,73.55,51.87,84.8,8.79,11.57,40.62,17.75,48.34,16.98,7.5-.72,42.19-12.88,48.67-19.21,6.56-6.4,15.28-23.21,12.42-43.29-.41-2.87-12.8-30.37-30.83-68.43-4.67-9.86-5.71-14.53-3.97-17.85,1.9-3.62,6.62-4.38,13.76-5.54,.85-.14,1.75-.28,2.68-.44,12.86-2.16,30.92,23.07,35.05,29.94,5.15,8.58,5.41,11.75,5.87,17.5,.1,1.26,.22,2.67,.4,4.31,1.12,10.08,4.27,10.26,17.53,11.01,1.14,.06,2.34,.13,3.61,.21,16.55,1.03,21.16-2.34,22.43-4.45,1.5-2.49-.24-5.49-.26-5.52l-.06-.1-17.97-33.94c-.9-1.45-17.81-28.68-24.99-40.99-1.97-3.38-2.29-6.29-.94-8.63,2.96-5.14,12.93-5.15,18.86-5.13,.8,0,1.5,0,2.05-.01,6.97-.19,14.95-.4,23.66-.62,50.47-1.31,126.74-3.28,167.46-6.1,32.3-2.24,129.43-13.38,130.41-13.49,.92-.11,93.46-11.13,144.74-23.95,47.62-11.9,73.89-17.27,78.08-15.97,4.21,1.32,5.65,3.94,6.11,5.91,2.38,10.08-15.3,27.49-17.32,29.44l-105.96,108.96c-2.49,2.47-8.51,3.85-13.12,4.58-.83,.13-83.88,12.33-90.28,8.77-2.52-1.4-4.57-4.82-7.18-9.14-4.72-7.84-10.6-17.61-20.85-17.61-17.84,0-26.34,10.22-35.35,21.05-7.59,9.13-15.45,18.58-29.18,21.89-11.44,2.76-34.1-13.47-36.65-15.33l-.14-.12c-.17-.15-16.67-14.56-30.81-15.5-16.66-1.11-29.82,3.79-41.45,15.42-12.07,12.07-15.92,26.56-18.73,37.15-1.82,6.86-3.26,12.29-6.38,14.96-12.04,10.32-23.08,13.71-31.14,16.18-6.51,2-10.81,3.32-12.3,7.04-11.41,28.53-28.77,39.94-29.5,40.41l-.16,.09c-.6,.31-60.46,31.63-78.23,41.51-17.79,9.88-24.83,32.76-23.98,45.11,.79,11.53,4.38,25.18,8.53,40.99,2.17,8.25,4.41,16.79,6.42,25.71,2.65,11.73,1.43,19.17-3.63,22.11-1.55,.9-3.3,1.27-5.11,1.27Z"/><path class="cls-3" d="M398.53,364l-.06-9,3.01-.02,.08,9-3.04,.02Zm6.05-.05l-.09-9,2.99-.03,.11,9-3.01,.03Zm6.02-.06l-.1-9,3-.04,.11,9-3.01,.04Zm6.02-.07l-.12-9,3-.04,.12,9-3,.04Zm6.01-.08l-.13-9,3-.04,.13,9-3,.04Zm6.01-.09l-.13-9,3-.05,.14,9-3,.05Zm6.01-.09l-.14-9,3-.05,.15,9-3,.05Zm6.01-.1l-.15-9,3-.05,.16,9-3,.05Zm6.01-.11l-.16-9,3-.05,.16,9-3,.05Zm6.01-.11l-.17-9,3-.06,.17,9-3,.06Zm6.01-.12l-.18-9,3-.06,.18,9-3,.06Zm6.01-.12l-.2-9,3-.06,.19,9-3,.06Zm6.01-.13l-.2-9,3-.07,.2,9-3,.07Zm6.01-.14l-.21-9,3-.07,.21,9-3,.07Zm6.01-.14l-.22-9,3-.07,.23,9-3,.07Zm6-.15l-.23-9,3-.08,.23,9-3,.08Zm6.01-.16l-.24-9,3-.08,.24,9-3,.08Zm6.01-.17l-.26-9,3-.08,.25,9-3,.08Zm6-.17l-.26-9,3-.09,.27,9-3,.09Zm6-.18l-.27-9,3-.09,.28,9-3,.09Zm6.01-.19l-.29-9,3-.1,.29,9-3,.1Zm6-.2l-.3-8.99,3-.1,.31,8.99-3,.1Zm6-.2l-.31-8.99,2.99-.1,.32,8.99-2.99,.1Zm5.99-.21l-.33-8.99,2.99-.11,.33,8.99-3,.11Zm6-.22l-.34-8.99,3-.11,.34,8.99-3,.11Zm6-.23l-.35-8.99,3-.12,.36,8.99-3.01,.12Zm6.02-.24l-.37-8.99,3-.12,.38,8.99-3.01,.12Zm6.03-.25l-.39-8.99,3-.13,.39,8.99-3,.13Zm6-.27l-.4-8.99,3-.14,.4,8.99-3,.14Zm6.01-.28l-.42-8.99,2.99-.14,.43,8.99-3,.14Zm6.01-.29l-.45-8.99,2.99-.15,.46,8.99-3,.15Zm6-.3l-.46-8.99,2.99-.16,.47,8.99-3,.16Zm6.01-.32l-.49-8.99,2.99-.17,.5,8.99-3,.17Zm6-.33l-.51-8.99,2.99-.17,.53,8.98-3.01,.17Zm6.01-.35l-.55-8.98,2.99-.18,.56,8.98-3,.18Zm6.01-.38l-.58-8.98,2.98-.2,.6,8.98-3.01,.2Zm6.01-.4l-.62-8.98,2.99-.21,.64,8.98-3,.21Zm6-.43l-.66-8.98,2.99-.22,.67,8.97-3,.22Zm6-.45l-.69-8.97,2.98-.23,.71,8.97-3,.23Zm6-.47l-.72-8.97,2.98-.24,.74,8.97-3,.24Zm5.99-.49l-.75-8.97,2.97-.25,.77,8.97-2.99,.25Zm5.98-.51l-.78-8.97,2.98-.26,.79,8.96-2.99,.26Zm5.98-.53l-.81-8.96,2.98-.27,.82,8.96-2.99,.27Zm5.99-.55l-.83-8.96,2.98-.28,.85,8.96-3,.28Zm5.99-.57l-.86-8.96,2.98-.29,.88,8.96-3,.29Zm6-.58l-.88-8.96,2.99-.3,.9,8.96-3,.3Zm6.01-.61l-.91-8.95,2.98-.31,.93,8.95-3,.31Zm5.98-.62l-.94-8.95,2.98-.31,.95,8.95-2.99,.32Zm5.98-.63l-.96-8.95,2.97-.32,.98,8.95-2.99,.32Zm5.98-.65l-.98-8.95,2.98-.33,.99,8.95-2.99,.33Zm5.98-.66l-1.01-8.94,2.98-.34,1.01,8.94-2.98,.34Zm5.97-.68l-1.03-8.94,2.97-.34,1.04,8.94-2.99,.35Zm5.97-.69l-1.05-8.94,2.98-.35,1.06,8.94-2.98,.35Zm5.97-.71l-1.07-8.94,2.97-.36,1.08,8.93-2.99,.36Zm5.97-.72l-1.1-8.93,2.97-.37,1.11,8.93-2.99,.37Zm5.97-.74l-1.12-8.93,2.98-.38,1.13,8.93-2.98,.38Zm5.96-.75l-1.14-8.93,2.97-.38,1.15,8.93-2.98,.38Zm5.96-.77l-1.16-8.92,2.96-.39,1.18,8.92-2.99,.39Zm5.96-.79l-1.19-8.92,2.97-.4,1.2,8.92-2.98,.4Zm5.96-.8l-1.21-8.92,2.96-.41,1.24,8.91-2.98,.41Zm5.96-.82l-1.24-8.91,2.96-.42,1.27,8.91-2.99,.42Zm5.96-.84l-1.27-8.91,2.97-.42,1.28,8.91-2.98,.43Zm5.95-.86l-1.3-8.91,2.96-.43,1.32,8.9-2.98,.44Zm5.96-.88l-1.33-8.9,2.96-.45,1.35,8.9-2.98,.45Zm5.96-.91l-1.37-8.89,2.95-.46,1.4,8.89-2.98,.46Zm5.95-.93l-1.41-8.89,2.95-.47,1.43,8.88-2.98,.48Zm5.95-.96l-1.46-8.88,2.95-.49,1.48,8.88-2.97,.49Zm5.95-1l-1.52-8.87,2.94-.51,1.55,8.87c-.97,.17-1.96,.34-2.97,.52Zm5.95-1.04l-1.59-8.86c1-.18,1.98-.36,2.93-.54l1.64,8.85c-.96,.18-1.96,.36-2.98,.54Zm5.96-1.1l-1.69-8.84c1.01-.19,1.98-.38,2.92-.57l1.76,8.83c-.96,.19-1.95,.38-2.98,.58Zm5.97-1.19l-1.85-8.81c1.02-.21,1.98-.42,2.88-.62l1.96,8.78c-.94,.21-1.94,.43-2.99,.65Z"/><path class="cls-3" d="M289.5,784.85l-.61-.55,6.04-6.68,.58,.52-6,6.71Zm-2.87-2.6c-.68-.62-1.42-1.31-2.23-2.05l6.11-6.61,2.21,2.03-6.09,6.63Zm-4.45-4.11l-2.21-2.05,6.13-6.59,2.2,2.05-6.13,6.59Zm-4.41-4.11l-2.2-2.05,6.15-6.57,2.2,2.05-6.15,6.57Zm-4.4-4.11l-2.2-2.06,6.16-6.56,2.19,2.05-6.15,6.57Zm-4.39-4.12l-2.19-2.06,6.16-6.56,2.19,2.05-6.16,6.56Zm-4.38-4.12l-2.19-2.06,6.17-6.55,2.19,2.06-6.17,6.55Zm-4.38-4.12l-2.19-2.06,6.17-6.55,2.19,2.06-6.17,6.55Zm-4.37-4.12l-2.19-2.06,6.17-6.55,2.18,2.06-6.17,6.55Zm-4.38-4.12l-2.19-2.06,6.18-6.54,2.18,2.06-6.18,6.55Zm-4.37-4.12l-2.18-2.06,6.18-6.54,2.18,2.06-6.18,6.55Zm-4.37-4.13l-2.18-2.06,6.18-6.54,2.19,2.07-6.19,6.54Zm-4.37-4.13l-2.18-2.06,6.18-6.54,2.18,2.07-6.19,6.54Zm-4.37-4.13l-2.18-2.06,6.19-6.54,2.18,2.06-6.19,6.54Zm-4.36-4.13l-2.18-2.06,6.19-6.54,2.18,2.06-6.19,6.54Zm-4.36-4.12l-2.18-2.07,6.19-6.54,2.18,2.06-6.18,6.54Zm-4.36-4.13l-2.18-2.06,6.19-6.54,2.18,2.06-6.19,6.54Zm-4.36-4.13l-2.18-2.06,6.19-6.54,2.18,2.07-6.19,6.53Zm-4.36-4.13l-2.18-2.07,6.19-6.53,2.18,2.07-6.19,6.53Zm-4.36-4.13l-2.18-2.07,6.19-6.53,2.18,2.07-6.19,6.53Zm-4.36-4.13l-2.18-2.06,6.19-6.53,2.18,2.07-6.2,6.53Zm-4.36-4.13l-2.18-2.06,6.19-6.53,2.18,2.07-6.2,6.53Zm-4.37-4.14l-2.18-2.07,6.19-6.53,2.18,2.07-6.2,6.53Zm-4.36-4.13l-2.18-2.07,6.2-6.53,2.17,2.06-6.19,6.53Zm-4.35-4.13l-2.18-2.07,6.2-6.53,2.18,2.07-6.2,6.53Zm-4.36-4.13l-2.18-2.06,6.2-6.53,2.18,2.07-6.2,6.52Zm-4.36-4.13l-2.18-2.07,6.2-6.53,2.18,2.07-6.2,6.53Zm-4.35-4.13l-2.18-2.07,6.19-6.53,2.18,2.07-6.19,6.53Zm-4.36-4.13l-2.18-2.07,6.2-6.53,2.17,2.06-6.19,6.53Zm-4.35-4.14l-2.18-2.07,6.19-6.53,2.18,2.07-6.19,6.53Zm-4.36-4.14l-2.18-2.07,6.2-6.53,2.18,2.07-6.2,6.53Zm-4.36-4.14l-2.18-2.07,6.2-6.53,2.18,2.07-6.2,6.53Zm-4.35-4.14l-2.18-2.07,6.2-6.53,2.18,2.07-6.2,6.53Zm-4.36-4.14l-2.18-2.07,6.2-6.53,2.18,2.07-6.2,6.52Zm-4.35-4.14l-2.18-2.07,6.2-6.52,2.17,2.07-6.2,6.53Zm-4.36-4.14l-2.18-2.07,6.2-6.52,2.18,2.07-6.2,6.52Zm-4.35-4.14l-2.18-2.07,6.2-6.52,2.18,2.07-6.2,6.53Zm-4.36-4.14l-2.18-2.07,6.2-6.52,2.18,2.07-6.2,6.52Zm-4.35-4.14l-2.18-2.07,6.2-6.52,2.18,2.07-6.2,6.52Zm-4.36-4.14l-2.18-2.07,6.2-6.52,2.18,2.07-6.2,6.52Zm-4.36-4.15l-2.18-2.07,6.2-6.52,2.18,2.07-6.2,6.52Zm-4.36-4.15l-2.19-2.08,6.2-6.52,2.18,2.08-6.2,6.52Zm-4.38-4.16l-2.21-2.11,6.21-6.52,2.21,2.1-6.2,6.52Z"/><path class="cls-3" d="M54.98,562.36l-2.17-2.07,6.2-6.53,2.17,2.07-6.2,6.53Zm-4.35-4.13l-2.17-2.07,6.2-6.53,2.17,2.07-6.2,6.53Zm-4.35-4.13l-2.17-2.07,6.2-6.53,2.17,2.07-6.2,6.53Zm-4.35-4.13l-2.18-2.07,6.2-6.53,2.18,2.07-6.2,6.53Zm-4.35-4.13l-2.17-2.07,6.2-6.53,2.17,2.07-6.2,6.53Z"/><g><circle class="cls-3" cx="889" cy="407" r="10"/><path d="M889,418c-6.07,0-11-4.93-11-11s4.93-11,11-11,11,4.93,11,11-4.93,11-11,11Zm0-20c-4.96,0-9,4.04-9,9s4.04,9,9,9,9-4.04,9-9-4.04-9-9-9Z"/></g><g><circle class="cls-3" cx="218" cy="510" r="10"/><path d="M218,521c-6.07,0-11-4.93-11-11s4.93-11,11-11,11,4.93,11,11-4.93,11-11,11Zm0-20c-4.96,0-9,4.04-9,9s4.04,9,9,9,9-4.04,9-9-4.04-9-9-9Z"/></g></svg>