<?xml version="1.0" encoding="UTF-8"?><svg id="Canadian_GP_Simple" xmlns="http://www.w3.org/2000/svg" viewBox="0 0 1000 1000"><defs><style>.cls-1{fill:#fae44a;}.cls-2{fill:#db4a25;}.cls-3,.cls-4{fill:#1bce20;}.cls-5{fill:#75e5fd;}.cls-4{stroke:#000;stroke-miterlimit:10;stroke-width:2px;}</style></defs><path d="M993.52,534.49c.2-3.88,.9-36.12-31.53-40.16-.77-.23-3.54-.95-7.45-.95-7.07,0-17.45,2.3-26.77,13.24-.78,.91-2.21,1.1-3.18,.42-9.5-6.68-42.67-29.09-70.49-36.68-3.08-.84-6.98-1.84-12.3-3.17h-.02l-10.88,37.5s.07,.01,.08,.01l.14,.04c5.35,1.31,9.51,2.37,12.71,3.25,17.24,4.7,41.43,19.07,58.32,30.95,7.01,4.92,15.23,7.53,23.79,7.53s16.34-2.5,23.1-7.05c-.1,.17-.21,.34-.31,.51-2.07,3.28-9.01,12.87-28.81,30.88-7.32,6.68-15.6,12.38-24.61,16.94-25.41,12.9-45.97,22.81-58.1,28.02-.58-.42-1.23-.99-1.71-1.53-7.58-8.64-18.51-13.6-29.99-13.6-3.25,0-6.5,.4-9.67,1.2-4.8,1.2-47.08,11.77-54.44,13.88-7.78,2.21-13.55,5.94-18.19,8.94l-.1,.06c-4.21,2.73-8.57,5.55-16.38,8.23-.72,.04-1.44,.06-2.16,.06-11.9,0-26.92-4.73-33.97-7.54l-46.06-22.11c-5.3-2.55-11.21-3.89-17.07-3.89-18.57,0-34.41,12.65-38.52,30.76-.11,.47-.54,1.77-1.3,3.58-3.32,1.76-7.73,2.39-9.92,2.48-2.15,.09-4.06,.23-5.82,.41-1.78-.08-13.7-.99-43.95-11.25-44.87-15.23-84.53-33.57-106.67-45.65-18.2-9.92-31.03-19.95-59.13-41.91l-4.81-3.76c-12.03-9.4-22.06-18.03-29.83-25.69,4.06-11.42,6.29-32.86-18.66-56.13-6.46-6.03-12.97-10.66-15.53-12.4l-.55-.43c-20.33-15.65-56.51-43.52-70.49-54.4-6.89-5.36-15.38-11.03-25.24-16.83-5.39-3.18-11.25-6.45-17.51-9.75,21.21,.95,61.87,2.84,80.9,4.2,22.01,1.57,34.89,2.6,38.52,2.89l104.02,23.3,201,45,1.2,.27,1.35,.21c1.25,.19,2.84,.58,4.24,.93,.14,.03,.28,.07,.42,.1l.92,11.96,.19,.37c.28,.52,.49,1.24,.75,2.07,.89,2.99,2.25,7.49,8.96,11.69,6.99,4.37,21.29,6.18,25.51,6.63l11.25,1.19c6.5,.67,14.93,1.56,23.57,2.46l2.91,.31c9.61,1,19.21,2,26.42,2.75l10.12,1.06c16.77,3.58,73.92,15.83,112.76,24.9,.76,.17,1.49,.35,2.23,.52l.31,.07,10.8-37.53c-45.2-10.64-119.16-26.36-119.9-26.52l-.21-.03s-61.66-6.42-74.58-7.78c.78-3.18,2.13-8.96-1.86-15.21-5.26-8.24-18.34-14.46-38.83-18.47l-201-45-106.52-23.86-.27-.04c-.14-.01-13.81-1.17-41.51-3.15-27.38-1.95-96.69-4.9-99-5-.73-.06-7.45-.67-18.41-.67-6.63,0-13.47,.23-20.34,.67-1.16,.08-2.32,.12-3.44,.12-12.6,0-23.13-4.47-32.41-8.42-5.84-2.48-11.36-4.82-16.43-5.54-1.25-.18-2.43-.36-3.54-.53-3.33-.52-6.2-.96-9.11-.96-6.61,0-12.54,2.39-21.14,8.52-15.37,10.96-7.58,30-6.7,32,.5,1.67,4.65,13.54,22.52,17.89,5.93,1.45,14.54,3.06,24.5,4.92,19.4,3.62,43.54,8.12,54.46,12.97,5.37,2.38,19.55,8.88,35.24,17.61,11.94,6.63,21.67,12.85,28.93,18.5,17.8,13.84,71.58,55.23,72.12,55.64l.12,.09c9.1,5.98,22.6,17.77,20.13,23.95-1.08,2.72-2.35,5.17-3.58,7.54-3.15,6.11-6.14,11.88-1.84,16.92l1.05,1.24c5.52,6.56,17.01,20.19,47,43.62l4.69,3.66c28.99,22.66,43.54,34.04,64.58,45.52,11.43,6.23,53.33,28.13,112.82,48.33,34.16,11.6,50.24,13.33,56.78,13.33,1.17,0,2.2-.05,3.04-.15,1.23-.14,2.55-.23,4.18-.3,6.92-.31,24.42-2.37,37.49-14.9,1.5-1.45,2.76-3.16,3.75-5.1,1.76-3.5,4.91-10.28,6.31-16.39,.09-.38,.42-.48,.69-.35l47.12,22.61c1.05,.45,25.92,10.88,49.78,10.88,3.63,0,7.1-.25,10.3-.74l.28-.07c14.95-4.55,23.16-9.86,29.16-13.74,3.11-2.01,5.57-3.61,7.81-4.25,2.81-.8,14.31-3.8,53.21-13.54,.33-.09,.64,.04,.86,.29,4.01,4.58,15.04,15.22,30.74,15.22,4.78,0,9.63-1.03,14.42-3.05,16.24-6.87,42.47-19.89,61.62-29.6,12.13-6.15,23.3-13.85,33.21-22.87,11.77-10.71,27.49-26.17,35.54-38.93,10.88-17.25,12.28-23.78,11.8-26.24Zm-15.18,24.1c-7.81,12.39-23.27,27.56-34.86,38.11-9.64,8.78-20.51,16.27-32.32,22.27-19.09,9.68-45.23,22.65-61.37,29.48-4.29,1.81-8.62,2.73-12.86,2.73-14.45,0-24.88-10.61-27.73-13.86-1.21-1.37-3.07-2-4.9-1.52-30.78,7.71-49.21,12.4-53.28,13.57-2.82,.8-5.5,2.54-8.89,4.73-5.77,3.74-13.68,8.86-28,13.23-2.97,.45-6.18,.68-9.56,.68-23.03,0-47.97-10.46-48.13-10.52l-47.03-22.57c-.6-.29-1.28-.45-1.95-.45-2.11,0-3.91,1.45-4.38,3.51-1.3,5.7-4.31,12.15-5.98,15.47-.78,1.54-1.78,2.89-2.95,4.03-12.09,11.58-28.43,13.5-34.89,13.78-1.72,.07-3.13,.18-4.47,.32-.48,.06-1.32,.13-2.58,.13-6.3,0-21.88-1.7-55.5-13.11-59.18-20.1-100.83-41.87-112.18-48.07-20.75-11.32-35.22-22.62-64.04-45.15l-4.69-3.67c-29.66-23.17-40.97-36.59-46.4-43.03-.39-.46-.74-.89-1.07-1.27-2.44-2.85-.87-6.24,2.36-12.48,1.21-2.34,2.58-5,3.74-7.9,4.44-11.11-18.62-26.77-21.59-28.73-2.07-1.59-54.52-41.96-72.04-55.59-7.43-5.77-17.33-12.11-29.45-18.84-15.82-8.81-30.14-15.36-35.56-17.77-11.35-5.03-34.72-9.4-55.34-13.25-9.5-1.77-18.47-3.44-24.3-4.86-16.4-4-19.52-14.76-19.65-15.21l-.12-.35c-.09-.17-8.13-17.59,5.33-27.19,9.06-6.46,14.08-7.78,18.82-7.78,2.6,0,5.33,.42,8.49,.91,1.14,.18,2.33,.36,3.6,.54,4.55,.64,9.59,2.78,15.42,5.26,9.64,4.1,20.57,8.74,33.98,8.74,1.21,0,2.45-.04,3.7-.12,6.78-.45,13.54-.67,20.08-.67,11.15,0,18.01,.65,18.08,.66h.11c.71,.04,71.29,3.03,98.94,5.01,26.2,1.87,39.83,3,41.32,3.12l106.38,23.83,201.06,45.01c19.42,3.8,31.63,9.43,36.28,16.71,3.12,4.89,1.99,9.49,1.31,12.23l-.13,.52c-.22,.96-.03,1.96,.54,2.77,.56,.8,1.46,1.33,2.46,1.45,11.2,1.18,72.25,7.54,75.11,7.84,3.14,.67,73.18,15.57,117.69,26l-8.1,27.6-.66,2.19c-.25-.06-.49-.11-.74-.17-38.94-9.09-96.29-21.38-112.93-24.94l-10.43-1.09c-7.21-.76-16.82-1.76-26.42-2.76l-2.92-.31c-8.63-.9-17.06-1.78-23.56-2.46l-11.25-1.19c-8.24-.88-18.83-2.93-23.81-6.05-5.43-3.39-6.44-6.75-7.25-9.44-.26-.84-.5-1.65-.84-2.4l-1.09-14.1-1.46-.31c-.48-.11-1.09-.26-1.77-.43-1.47-.36-3.15-.78-4.6-1l-1.13-.17-202.13-45.25-104.16-23.33-.28-.04c-3.43-.28-16.37-1.31-38.7-2.91-21.78-1.56-70.27-3.74-90.1-4.61l-9.28-.4,8.29,4.19c9.27,4.68,17.81,9.32,25.39,13.8,9.71,5.72,18.06,11.29,24.81,16.55,13.99,10.88,50.18,38.76,70.51,54.41l.69,.53c2.45,1.67,8.8,6.18,15.11,12.05,24.15,22.54,21.14,42.88,17.2,52.99l-.48,1.22,.93,.93c8,7.99,18.47,17.05,31.1,26.92l4.81,3.75c28.28,22.1,41.18,32.19,59.67,42.28,22.3,12.16,62.19,30.6,107.31,45.91,31.01,10.53,43.11,11.4,45.23,11.47h.27c1.72-.19,3.59-.32,5.73-.41,3.32-.15,8.55-1.11,12.33-3.35l.55-.33,.26-.59c.86-1.97,1.57-3.89,1.8-4.9,3.69-16.28,17.93-27.65,34.62-27.65,5.27,0,10.57,1.21,15.34,3.49l46.12,22.14,.13,.06c7.29,2.91,22.97,7.85,35.51,7.85,.89,0,1.78-.03,2.67-.08l.27-.02,.25-.09c8.44-2.86,13.06-5.85,17.53-8.74l.09-.06c4.41-2.85,9.91-6.4,17.12-8.46,7.3-2.09,49.52-12.64,54.31-13.84,2.85-.72,5.78-1.08,8.7-1.08,10.33,0,20.17,4.46,26.99,12.24,.95,1.09,2.42,2.28,3.57,2.9l.84,.46,.89-.38c12.07-5.11,33.14-15.25,59.32-28.55,9.33-4.72,17.91-10.62,25.5-17.54,20.15-18.35,27.34-28.29,29.49-31.71,3.15-4.99,4.98-8.32,5.96-10.24l1.3-2.53-4.44-.57-.7,.81c-7.12,8.22-17.43,12.94-28.29,12.94-7.73,0-15.16-2.35-21.49-6.81-17.17-12.07-41.83-26.7-59.56-31.53-2.86-.78-6.46-1.71-10.97-2.82l8.75-29.78c4.37,1.1,7.69,1.96,10.37,2.69,27.2,7.41,59.88,29.5,69.26,36.1,1.08,.75,2.33,1.15,3.64,1.15,1.88,0,3.65-.82,4.87-2.25,8.34-9.79,17.51-11.84,23.73-11.84,3.84,0,6.39,.8,6.41,.81l.38,.09c30.65,3.71,28.29,34.91,28.18,36.23l-.05,.59,.14,.28c.03,.82-.37,5.94-11.26,23.21Z"/><path class="cls-1" d="M827.46,465.81l-9.09,30.92-.52,1.76s-1.01,.12-2.85,.35c-40.83-9.53-101.7-22.54-112.9-24.93-5.26-.55-20.95-2.18-36.64-3.82-9.63-1.01-19.25-2.02-26.48-2.77-3.62-.38-6.63-.7-8.75-.92l-2.5-.27c-8.98-.96-19.54-3.14-24.66-6.34-8-5-7.48-10.13-9-13l-1-13c-1.52-.33-4.23-1.09-6.24-1.4l-1.21-.18-1.2-.27-201-45-104.16-23.33c-4.94-.4-17.77-1.41-38.68-2.91-21.71-1.55-70.81-3.76-90.05-4.6,7.7,3.89,16.62,8.62,25.5,13.87l-25.65,25.65c-13.04-7.26-26.26-13.63-35.4-17.69-16.58-7.36-61.41-13.64-79.3-18-17.89-4.36-21.11-16.64-21.11-16.64,0,0-9-19,5.98-29.68,8.98-6.4,14.42-8.15,19.98-8.15,3.71,0,7.47,.78,12.37,1.47,12.48,1.76,27.95,13.98,49.12,13.98,1.17,0,2.36-.04,3.57-.12,7.68-.5,14.51-.67,20.21-.67,11.4,0,18.27,.67,18.27,.67,0,0,71,3,99,5s41.48,3.14,41.48,3.14l106.52,23.86,201,45c46,9,40.42,26.09,39.03,31.88-.2,.85,.39,1.67,1.26,1.77,11.47,1.21,75.21,7.85,75.21,7.85,0,0,74.19,15.76,119.89,26.52Z"/><path class="cls-2" d="M980.03,559.66c-7.89,12.51-23.29,27.68-35.2,38.52-9.85,8.97-20.89,16.54-32.77,22.57-17.49,8.87-44.83,22.49-61.49,29.54-4.85,2.05-9.42,2.89-13.64,2.89-15.14,0-25.88-10.71-29.24-14.54-.56-.64-1.36-1-2.18-1-.23,0-.46,.03-.69,.09-8.7,2.18-47.05,11.79-53.25,13.56-7,2-14,11-37,18-3.25,.5-6.61,.72-10,.72-23.73,0-49-10.72-49-10.72l-19.74-9.47,11.56-33.28,22.41,10.76c5.95,2.38,21.94,7.71,34.77,7.71,.9,0,1.75-.03,2.55-.08,8.2-2.78,12.71-5.7,17.08-8.53,4.55-2.94,10.2-6.61,17.75-8.76,6.42-1.84,40.16-10.31,54.37-13.86,2.99-.75,6.09-1.14,9.19-1.14,10.91,0,21.29,4.71,28.49,12.92,.87,.99,2.17,2,3.02,2.46,11.97-5.07,32.99-15.18,59.2-28.49,9.16-4.64,17.59-10.44,25.05-17.24,19.93-18.14,27.03-27.93,29.15-31.3,3.01-4.77,4.82-8.03,5.87-10.08l-.55-.07c-7.5,8.67-18.34,13.63-29.8,13.63-8.14,0-15.97-2.48-22.64-7.17-17.02-11.97-41.44-26.47-58.94-31.24-3.41-.93-7.74-2.03-12.76-3.26l.47-2.28,9.22-31.37,.03-.02c4.77,1.19,8.91,2.25,12.25,3.16,27.29,7.44,59.54,29.12,69.87,36.39,.76,.53,1.63,.79,2.5,.79,1.25,0,2.48-.53,3.35-1.55,8.91-10.46,18.8-12.54,25.25-12.54,4.26,0,7.03,.91,7.03,.91,33,4,29.93,38.4,29.93,38.4,0,0,1.96,3.68-11.47,24.97Z"/><path class="cls-5" d="M647.39,616.54l-11.56,33.28-27.29-13.1c-.35-.17-.72-.25-1.08-.25-1.12,0-2.16,.77-2.43,1.96-1.35,5.91-4.41,12.47-6.15,15.93-.86,1.69-1.98,3.24-3.35,4.56-12.62,12.1-29.61,14.05-36.19,14.34-1.44,.06-2.88,.15-4.31,.31-.67,.08-1.6,.14-2.82,.14-6.74,0-22.61-1.84-56.14-13.22-49.5-16.81-90.5-36.2-112.5-48.2s-37-24-69-49-43-39-47.76-44.58c-4.76-5.58,1.76-12.42,5.76-22.42,4-10-20.89-26.36-20.89-26.36,0,0-54.11-41.64-72.11-55.64-8.08-6.28-18.57-12.77-29.19-18.67l25.65-25.65c8.78,5.17,17.53,10.85,25.03,16.69,16.48,12.82,64.06,49.45,71.1,54.87,2.8,1.91,9.11,6.43,15.34,12.24,24.94,23.27,21.89,44.43,17.7,55.18,6.46,6.45,16.1,15.18,30.92,26.76l4.7,3.67c28.25,22.08,41.14,32.16,59.51,42.18,22.2,12.11,61.96,30.5,106.99,45.78,30.85,10.47,42.79,11.3,44.65,11.36,1.84-.19,3.76-.32,5.85-.41,2.78-.12,7.77-.92,11.4-3.07,.96-2.2,1.52-3.85,1.68-4.54,3.9-17.2,18.94-29.21,36.57-29.21,5.57,0,11.18,1.28,16.21,3.69l23.71,11.38Z"/><g id="Start_Line"><polygon points="840.15 522.89 833 509.28 829.64 511.03 835.03 521.3 824.77 526.69 826.53 530.04 840.15 522.89"/><polygon points="839.48 531.32 841.24 534.67 850.71 529.7 854.85 527.52 847.71 513.9 844.36 515.67 849.75 525.94 848.21 526.74 839.48 531.32"/><polygon points="854.19 535.95 855.96 539.31 857.94 538.27 869.57 532.15 862.41 518.54 859.07 520.29 864.45 530.57 855.43 535.3 854.19 535.95"/></g><polygon points="837.59 467.51 837.51 467.81 837.46 468.02 837.41 468.19 828.53 498.4 828.24 499.38 827.64 501.39 827.52 501.81 826.26 506.07 819.83 527.96 817.79 527.37 813.88 526.22 820.34 504.24 821.47 500.36 821.69 499.62 822.2 497.89 822.6 496.58 831.36 466.74 831.52 466.2 831.57 466.05 831.64 465.76 833.69 466.36 837.59 467.51"/><path d="M973.54,519.72c-.64-.81-5.65-6.91-13.91-7.74-6.25-.63-12.63,1.9-18.96,7.53-5.15,4.57-10.41,6.7-15.62,6.3-8.03-.6-13.46-7.02-13.51-7.08l-.17-.21-.22-.15c-24.06-17.02-47.12-25.6-74.59-33.05l-1.1,3.83c27.5,7.42,49.51,15.64,73.18,32.34,1.14,1.29,7.13,7.61,16.06,8.31,6.35,.5,12.62-1.96,18.63-7.31,5.44-4.83,10.77-7.04,15.86-6.53,6.9,.67,11.17,6.19,11.21,6.24l.14,.16c.14,.16,3.58,4,3.1,11.42-.47,7.52-5.19,19.99-24.93,36.69-38.29,32.41-82.03,50.5-82.47,50.68l-.36,.19c-10.13,6.82-28.34,15.74-34.05,10.67-1.72-1.53-3.18-3.11-4.6-4.64-6.03-6.49-11.23-12.09-29.19-7.82-14.82,3.53-38.09,9.55-50.64,12.82-5.13,1.33-9.83,3.66-13.97,6.92-9.55,7.52-29.68,18.34-57.13,6.38-38.58-16.82-65.78-27.91-66.13-28.05-.16-.06-15.97-5.4-24.55,18.2-7.14,19.64-32.05,18.78-33.88,18.69-3.46-.66-76.34-14.92-133.26-46.76-57.07-31.91-107.28-71.85-109.64-73.74l-17.43-17.43c-.74-.74-.92-1.88-.44-2.77,4.71-8.69,11.28-32.12-29.29-61.92-13.22-9.72-26.07-19.59-38.5-29.14-33.68-25.87-62.77-48.22-82.09-54.16l-3.47-1.07c-26.13-8.05-61.93-19.08-87.97-21.01-10.36-.77-16.05-6.25-17.92-11.11-1.32-3.45-.87-6.82,1.23-9.01,3.2-3.36,9.73-3.72,17.91-.99,4.26,1.42,8.07,2.96,11.75,4.45,16.25,6.57,31.61,12.78,85.01,11.3,5.73-.15,59.25,2.18,77.18,3.84,8.69,.81,17.13,.73,25.29,.66,10.78-.1,20.97-.19,30.67,1.73,52.12,10.33,94.61,20.59,135.7,30.52,40.32,9.74,78.42,18.94,121.1,27.06l64.95,15.98,.24,.06h.24c1.96,.01,7.49,.69,9.48,3.72,1.16,1.77,1.06,4.29-.32,7.49-1.6,3.73-1.5,7.05,.28,9.87,4.54,7.21,18.87,7.89,19.42,7.92,.7,.04,70.57,5.18,134.63,21.94,13.4,3.5,25.35,6.39,36.9,9.18,6.38,1.54,12.44,3.01,18.25,4.46l1.1-3.85c-5.9-1.48-12.02-2.96-18.41-4.5-11.53-2.79-23.46-5.67-36.82-9.17-64.44-16.85-134.67-22-135.43-22.06-3.55-.15-13.41-1.52-16.26-6.05-1.05-1.67-1.04-3.68,.02-6.16,1.94-4.53,1.93-8.32-.02-11.28-3.3-5-11.01-5.46-12.56-5.51l-64.78-15.94-.11-.02c-42.61-8.1-80.67-17.29-120.96-27.03-41.13-9.93-83.66-20.21-135.86-30.55-10.11-2.01-20.49-1.91-31.49-1.81-8.06,.07-16.39,.15-24.87-.64-18.03-1.68-71.88-4.03-77.67-3.86-52.56,1.46-67.54-4.6-83.4-11.01-3.74-1.51-7.61-3.08-11.99-4.54-13.28-4.42-19.53-.63-22.06,2.02-3.19,3.34-3.97,8.28-2.07,13.21,2.31,6.01,9.13,12.76,21.35,13.66,25.6,1.9,61.14,12.85,87.09,20.85l3.47,1.07c18.63,5.73,47.46,27.87,80.83,53.51,12.45,9.56,25.32,19.45,38.58,29.19,38.02,27.94,32.34,49.03,28.13,56.8-1.32,2.43-.85,5.52,1.13,7.5l17.51,17.5,.16,.15c.51,.41,51.8,41.48,110.27,74.19,58.61,32.78,133.86,47.08,134.61,47.22l.23,.03s.65,.04,1.69,.04c6.4,0,29.09-1.45,36.33-21.36,7.04-19.36,18.54-16.09,19.42-15.8,1.43,.58,28.23,11.53,65.9,27.95,30.46,13.28,52.95-.4,61.2-6.9,3.71-2.91,7.91-5,12.5-6.19,12.54-3.27,35.79-9.28,50.56-12.79,15.7-3.74,19.74,.61,25.34,6.64,1.48,1.6,3.01,3.25,4.87,4.9,9.71,8.64,35.13-7.78,38.78-10.22,3.23-1.35,45.86-19.52,83.34-51.24,16.81-14.23,25.68-27.58,26.36-39.69,.48-8.55-3.46-13.38-4.11-14.12Z"/><path class="cls-3" d="M610.88,389.13l-2.96-.68,2-8.77,2.96,.68-2,8.77Zm-5.9-1.35l-2.94-.67,2-8.77,2.94,.67-2,8.77Zm-5.87-1.34l-2.94-.67,2-8.77,2.93,.67-2,8.78Zm-5.87-1.34l-2.93-.67,2-8.77,2.93,.67-2.01,8.77Zm-5.86-1.34l-2.93-.67,2-8.77,2.93,.67-2,8.77Zm-5.86-1.33l-2.93-.67,2-8.78,2.93,.67-2,8.78Zm-5.86-1.34l-2.93-.67,2-8.78,2.93,.67-2,8.77Zm-5.86-1.33l-2.93-.67,2-8.78,2.93,.67-2,8.77Zm-5.86-1.33l-2.83-.64,1.9-8.8,2.93,.67-2,8.78Zm-5.86-1.33l-2.93-.67,2-8.78,2.93,.67-1.99,8.78Zm-5.86-1.33l-2.93-.67,1.99-8.78,2.93,.67-2,8.78Zm-5.86-1.33l-2.93-.67,2-8.78,2.93,.67-2,8.78Zm-5.86-1.33l-2.93-.67,1.99-8.78,2.93,.67-2,8.78Zm-5.86-1.33l-2.93-.67,2-8.78,2.93,.67-2,8.78Zm-5.85-1.33l-2.93-.67,1.99-8.78,2.93,.66-1.99,8.78Zm-5.85-1.33l-2.93-.67,1.99-8.78,2.93,.66-1.99,8.78Zm-5.86-1.33l-2.93-.66,1.99-8.78,2.93,.67-1.99,8.78Zm-5.86-1.33l-2.93-.66,1.99-8.78,2.93,.66-1.99,8.78Zm-5.86-1.33l-2.93-.66,1.99-8.78,2.93,.66-1.99,8.78Zm-5.85-1.33l-2.93-.66,1.99-8.78,2.93,.66-1.99,8.78Zm-5.85-1.33l-2.93-.66,1.99-8.78,2.93,.66-1.98,8.78Zm-5.86-1.33l-2.93-.66,1.99-8.78,2.93,.66-1.99,8.78Zm-5.85-1.33l-2.93-.66,1.99-8.78,2.93,.66-1.99,8.78Zm-5.86-1.32l-2.93-.66,1.99-8.78,2.93,.66-1.99,8.78Zm-5.86-1.32l-2.93-.66,1.98-8.78,2.93,.66-1.99,8.78Zm-5.85-1.32l-2.93-.66,1.98-8.78,2.93,.66-1.98,8.78Zm-5.86-1.32l-2.92-.66,1.98-8.78,2.93,.66-1.99,8.78Zm-5.85-1.32l-2.93-.66,1.98-8.78,2.93,.66-1.98,8.78Zm-5.86-1.32l-2.94-.66,1.98-8.78,2.94,.66-1.98,8.78Zm-5.88-1.32l-2.93-.66,1.98-8.78,2.93,.66-1.98,8.78Zm-5.86-1.32l-2.93-.66,1.98-8.78,2.93,.66-1.98,8.78Zm-5.85-1.32l-2.92-.66,1.98-8.78,2.92,.66-1.98,8.78Zm-5.85-1.32l-2.93-.66,1.97-8.78,2.93,.66-1.97,8.78Zm-5.86-1.32l-2.93-.66,1.97-8.78,2.93,.66-1.98,8.78Zm-5.86-1.31l-2.93-.66,1.97-8.78,2.93,.66-1.97,8.78Zm-5.86-1.32l-2.92-.66,1.97-8.78,2.93,.66-1.98,8.78Zm-5.85-1.31l-2.93-.66,1.97-8.78,2.93,.66-1.97,8.78Zm-5.86-1.31l-2.93-.66,1.96-8.78,2.93,.66-1.97,8.78Zm-5.86-1.31l-2.93-.65,1.96-8.78,2.93,.65-1.96,8.78Zm-5.86-1.31l-2.93-.65,1.96-8.78,2.93,.65-1.96,8.78Zm-5.86-1.31l-2.93-.65,1.96-8.78,2.93,.65-1.96,8.78Zm-5.86-1.31l-2.93-.65,1.96-8.79,2.93,.65-1.96,8.78Zm-5.86-1.3l-2.93-.65,1.95-8.79,2.93,.65-1.95,8.79Zm-5.86-1.3l-2.93-.65,1.95-8.79,2.93,.65-1.95,8.79Zm-5.86-1.3l-2.93-.65,1.94-8.79,2.94,.65-1.95,8.79Zm-5.86-1.3l-2.93-.65,1.94-8.79,2.93,.65-1.94,8.79Zm-5.86-1.29l-2.93-.65,1.93-8.79,2.93,.65-1.94,8.79Zm-5.86-1.29l-2.93-.64,1.93-8.79,2.94,.64-1.93,8.79Zm-5.86-1.29l-2.93-.64,1.92-8.79,2.94,.64-1.92,8.79Zm-5.87-1.28l-2.93-.64,1.91-8.79,2.94,.64-1.92,8.79Zm-5.87-1.27l-2.93-.63,1.9-8.8,2.94,.64-1.91,8.8Zm-5.87-1.27l-2.93-.63,1.88-8.8,2.94,.63-1.89,8.8Zm-5.87-1.25l-2.93-.62,1.85-8.81,2.95,.62-1.87,8.8Zm-5.87-1.24l-2.94-.61,1.82-8.81,2.96,.61-1.83,8.81Zm-5.87-1.21c-1.06-.21-2.04-.41-2.93-.58l1.73-8.83c.91,.18,1.9,.38,2.98,.59l-1.78,8.82Zm-5.82-1.13c-.95-.17-1.92-.34-2.9-.5l1.48-8.88c1.02,.17,2.02,.34,3.02,.53l-1.61,8.86Zm-5.8-.97c-.96-.15-1.94-.29-2.92-.43l1.26-8.91c1.01,.14,2.02,.29,3.02,.45l-1.36,8.9Zm-5.85-.83c-.97-.13-1.95-.25-2.93-.37l1.08-8.94c1.01,.12,2.02,.25,3.02,.38l-1.17,8.92Zm-5.87-.71c-.98-.11-1.96-.21-2.95-.32l.92-8.95c1.01,.1,2.02,.21,3.02,.32l-1,8.94Zm-5.9-.61c-.98-.09-1.97-.18-2.96-.27l.78-8.97c1.01,.09,2.02,.18,3.03,.28l-.85,8.96Zm-5.92-.52c-.99-.08-1.98-.16-2.97-.23l.67-8.98c1.01,.08,2.02,.15,3.02,.23l-.72,8.97Zm-5.93-.44c-.99-.07-1.98-.13-2.97-.19l.56-8.98c1,.06,2.01,.13,3.02,.2l-.61,8.98Zm-5.94-.37c-.99-.06-1.98-.11-2.97-.16l.46-8.99c1,.05,2.01,.11,3.02,.16l-.51,8.99Zm-5.94-.3c-1-.05-1.99-.09-2.98-.13l.37-8.99c1,.04,2.01,.09,3.02,.13l-.42,8.99Zm-5.95-.25c-1-.04-1.99-.07-2.98-.1l.29-9c1,.03,2.01,.07,3.02,.1l-.33,8.99Zm-50.68-.13l-.34-8.99s1.08-.04,3.05-.1l.25,9c-1.9,.05-2.94,.09-2.95,.09Zm44.72-.06c-1-.03-2-.05-2.98-.08l.21-9c1,.02,2.01,.05,3.02,.08l-.25,9Zm-38.79-.11l-.2-9c.92-.02,1.92-.04,3.02-.06l.17,9c-1.08,.02-2.08,.04-2.98,.06Zm32.82-.04c-1.01-.02-2-.04-2.98-.05l.14-9c.99,.02,2,.03,3.02,.05l-.18,9Zm-26.86-.07l-.13-9c.96-.01,1.97-.03,3.02-.04l.09,9c-1.04,.01-2.04,.02-2.98,.04Zm20.89-.02c-1.01-.01-2.01-.02-2.99-.03l.08-9c.99,0,2,.02,3.02,.03l-.11,9Zm-14.92-.04l-.06-9c.98,0,1.98-.01,3.02-.01l.03,9c-1.02,0-2.02,0-2.98,.01Zm8.95,0h-2.99s0-9.01,0-9.01h3.02s-.04,9.01-.04,9.01Z"/><path class="cls-3" d="M921.06,488.28c-.82-.51-1.65-1.02-2.49-1.53l4.65-7.71c.88,.53,1.76,1.07,2.62,1.61l-4.78,7.63Zm-5.01-3.02c-.84-.49-1.69-.97-2.55-1.46l4.41-7.85c.9,.5,1.78,1.01,2.66,1.52l-4.52,7.78Zm-5.12-2.88c-.86-.46-1.72-.93-2.59-1.39l4.19-7.96c.91,.48,1.81,.96,2.7,1.44l-4.3,7.91Zm-5.21-2.74c-.87-.44-1.75-.88-2.63-1.32l3.99-8.07c.92,.45,1.83,.91,2.73,1.37l-4.09,8.02Zm-5.28-2.61c-.88-.42-1.77-.85-2.67-1.26l3.81-8.15c.93,.43,1.84,.87,2.76,1.31l-3.9,8.11Zm-5.35-2.5c-.89-.41-1.79-.81-2.7-1.21l3.64-8.23c.93,.41,1.86,.83,2.78,1.25l-3.72,8.19Zm-5.41-2.39c-.9-.39-1.81-.78-2.72-1.16l3.48-8.3c.94,.39,1.87,.79,2.8,1.19l-3.56,8.27Zm-5.46-2.29c-.91-.37-1.83-.74-2.75-1.11l3.34-8.36c.94,.38,1.88,.76,2.82,1.14l-3.41,8.33Zm-5.51-2.2c-.92-.36-1.84-.71-2.77-1.07l3.21-8.41c.95,.36,1.89,.73,2.83,1.09l-3.27,8.38Zm-5.54-2.11c-.93-.34-1.85-.69-2.79-1.03l3.08-8.46c.95,.35,1.9,.7,2.84,1.05l-3.14,8.43Zm-5.58-2.04c-.93-.33-1.87-.66-2.8-.99l2.97-8.5c.96,.33,1.91,.67,2.86,1.01l-3.02,8.48Zm-5.61-1.96c-.94-.32-1.88-.64-2.82-.95l2.86-8.53c.96,.32,1.91,.64,2.87,.97l-2.91,8.52Zm-5.64-1.89c-.94-.31-1.88-.61-2.83-.92l2.75-8.57c.96,.31,1.92,.62,2.88,.94l-2.8,8.55Zm-5.67-1.82c-.94-.3-1.89-.59-2.84-.89l2.66-8.6c.97,.3,1.93,.6,2.89,.9l-2.71,8.58Zm-5.69-1.76c-.95-.29-1.9-.57-2.85-.86l2.57-8.63c.97,.29,1.93,.58,2.9,.87l-2.61,8.61Zm-5.71-1.7c-.95-.28-1.91-.55-2.86-.83l2.48-8.65c.97,.28,1.94,.56,2.9,.84l-2.52,8.64Zm-5.73-1.64c-.96-.27-1.91-.54-2.87-.8l2.4-8.67c.97,.27,1.94,.54,2.91,.81l-2.44,8.66Zm-5.75-1.59c-.96-.26-1.92-.52-2.88-.77l2.32-8.7c.97,.26,1.95,.52,2.92,.79l-2.36,8.68Zm-5.77-1.54c-.96-.25-1.93-.5-2.89-.75l2.24-8.72c.98,.25,1.96,.51,2.93,.76l-2.28,8.71Zm-5.79-1.49c-.97-.24-1.93-.49-2.9-.73l2.17-8.73c.98,.24,1.95,.49,2.93,.74l-2.21,8.73Zm-5.79-1.44l-2.9-.7,2.11-8.75c.98,.24,1.95,.47,2.93,.71l-2.14,8.74Zm-5.79-1.4l-2.9-.68,2.04-8.77,2.93,.69-2.07,8.76Zm-5.8-1.35l-2.91-.66,1.98-8.78,2.94,.67-2,8.77Zm-5.83-1.31l-2.92-.64,1.92-8.79,2.95,.65-1.95,8.79Zm-5.83-1.27l-2.92-.62,1.86-8.81,2.95,.63-1.88,8.8Zm-5.85-1.23l-2.93-.6,1.8-8.82,2.95,.61-1.83,8.81Zm-5.85-1.2l-2.93-.58,1.75-8.83,2.96,.59-1.77,8.82Zm-5.86-1.16l-2.94-.57,1.7-8.84,2.96,.57-1.72,8.83Zm-5.87-1.13l-2.94-.55,1.64-8.85,2.96,.56-1.67,8.84Zm-5.88-1.09l-2.94-.53,1.6-8.86,2.97,.54-1.62,8.85Zm-5.89-1.06l-2.95-.52,1.55-8.87,2.97,.52-1.57,8.86Zm-5.89-1.03l-2.95-.5,1.5-8.87,2.97,.51-1.52,8.87Zm-5.9-1l-2.95-.49,1.45-8.88,2.97,.49-1.48,8.88Zm-5.9-.96l-2.95-.47,1.41-8.89,2.98,.48-1.43,8.89Zm-5.9-.94l-2.96-.46,1.36-8.9,2.97,.46-1.38,8.89Zm-5.92-.91l-2.96-.44,1.32-8.9,2.98,.44-1.34,8.9Zm-5.92-.88l-2.96-.43,1.27-8.91,2.98,.43-1.3,8.91Zm-5.92-.85l-2.96-.41,1.23-8.92,2.98,.42-1.25,8.91Zm-5.93-.82l-2.96-.4,1.18-8.92,2.99,.4-1.21,8.92Zm-5.93-.79l-2.97-.38,1.14-8.93,2.99,.39-1.16,8.92Zm-5.93-.76l-2.97-.37,1.1-8.93,2.99,.37-1.12,8.93Zm-5.94-.73l-2.97-.35,1.05-8.94,2.99,.35-1.07,8.94Zm-5.94-.7l-2.97-.34,1-8.94,3,.34-1.02,8.94Zm-5.95-.66l-2.98-.32,.95-8.95,3,.32-.97,8.95Zm-5.95-.63c-1.09-.11-2.08-.21-2.98-.3l.88-8.96c.91,.09,1.92,.19,3.01,.3l-.91,8.95Zm-5.96-.58c-1.93-.18-2.97-.27-2.98-.27l.75-8.97s1.07,.09,3.07,.28l-.84,8.96Z"/><path class="cls-3" d="M549.22,693.89c-1.01-.11-2.02-.22-3.01-.33l1.01-8.94c.98,.11,1.96,.22,2.96,.33l-.96,8.95Zm-6.01-.68c-1.01-.12-2.02-.24-3.01-.37l1.13-8.93c.97,.12,1.95,.24,2.95,.36l-1.07,8.94Zm-6.01-.76c-1.01-.14-2.01-.27-3-.41l1.26-8.91c.97,.14,1.95,.27,2.94,.4l-1.19,8.92Zm-6.01-.85c-1.01-.15-2.01-.31-3-.46l1.41-8.89c.96,.15,1.94,.3,2.93,.45l-1.33,8.9Zm-6-.95c-1.01-.17-2.01-.34-3-.52l1.57-8.86c.96,.17,1.93,.34,2.91,.5l-1.49,8.88Zm-5.99-1.06c-1.01-.19-2-.38-2.99-.58l1.76-8.83c.95,.19,1.92,.38,2.89,.56l-1.66,8.85Zm-5.98-1.19c-1-.21-2-.43-2.98-.65l1.96-8.78c.95,.21,1.91,.42,2.88,.62l-1.86,8.81Zm-5.95-1.33c-1-.23-1.99-.48-2.97-.72l2.18-8.73c.94,.24,1.89,.47,2.85,.69l-2.06,8.76Zm-5.93-1.48c-.99-.26-1.98-.52-2.95-.79l2.4-8.67c.94,.26,1.88,.51,2.83,.76l-2.28,8.71Zm-5.89-1.63c-.98-.29-1.96-.58-2.93-.87l2.63-8.61c.93,.28,1.87,.56,2.81,.84l-2.51,8.64Zm-5.84-1.78c-.97-.31-1.94-.63-2.9-.95l2.85-8.54c.93,.31,1.86,.61,2.79,.91l-2.73,8.58Zm-5.79-1.93c-.96-.33-1.92-.67-2.87-1.02l3.05-8.47c.92,.33,1.85,.66,2.77,.98l-2.96,8.5Zm-5.74-2.07c-.95-.35-1.9-.71-2.85-1.08l3.24-8.4c.92,.35,1.84,.7,2.75,1.05l-3.15,8.43Zm-5.68-2.19c-.94-.37-1.88-.75-2.82-1.14l3.4-8.33c.92,.37,1.83,.74,2.74,1.1l-3.32,8.36Zm-5.62-2.29c-.93-.39-1.86-.78-2.79-1.18l3.54-8.28c.91,.39,1.82,.77,2.73,1.15l-3.47,8.3Zm-5.57-2.38c-.92-.4-1.84-.8-2.77-1.21l3.64-8.23c.91,.4,1.82,.8,2.72,1.19l-3.59,8.25Zm-5.53-2.44c-.91-.41-1.83-.82-2.75-1.24l3.72-8.2c.91,.41,1.82,.82,2.71,1.23l-3.68,8.21Zm-5.49-2.49l-2.73-1.26,3.78-8.17,2.71,1.25-3.75,8.18Zm-5.46-2.53l-2.72-1.27,3.81-8.15,2.71,1.26-3.8,8.16Zm-5.44-2.55l-2.72-1.28,3.84-8.14,2.7,1.27-3.82,8.15Zm-5.43-2.56l-2.71-1.28,3.85-8.14,2.71,1.28-3.84,8.14Zm-5.42-2.56l-2.71-1.28,3.85-8.14,2.71,1.28-3.84,8.14Zm-5.42-2.56l-2.71-1.28,3.84-8.14,2.71,1.28-3.84,8.14Zm-5.42-2.55l-2.71-1.27,3.82-8.15,2.72,1.28-3.83,8.14Zm-5.42-2.54l-2.71-1.27,3.8-8.16,2.72,1.27-3.81,8.15Zm-5.43-2.53l-2.71-1.26,3.78-8.17,2.73,1.27-3.8,8.16Zm-5.43-2.51l-2.72-1.25,3.75-8.18,2.73,1.26-3.77,8.17Zm-5.44-2.5l-2.72-1.24,3.73-8.19,2.73,1.25-3.74,8.19Zm-5.45-2.48c-.93-.42-1.85-.85-2.77-1.28l3.82-8.15c.89,.42,1.78,.83,2.68,1.24l-3.72,8.19Zm-5.53-2.59c-.92-.44-1.83-.89-2.74-1.34l4-8.06c.88,.44,1.76,.87,2.65,1.3l-3.91,8.11Zm-5.46-2.71c-.91-.46-1.81-.93-2.71-1.4l4.17-7.98c.87,.46,1.75,.91,2.62,1.35l-4.08,8.02Zm-5.4-2.82c-.89-.48-1.78-.96-2.67-1.45l4.33-7.89c.86,.47,1.73,.94,2.6,1.41l-4.25,7.93Zm-5.33-2.92c-.88-.5-1.76-1-2.64-1.5l4.48-7.81c.85,.49,1.71,.98,2.57,1.46l-4.41,7.85Zm-5.27-3.02c-.87-.51-1.74-1.03-2.61-1.55l4.62-7.72c.84,.5,1.69,1.01,2.54,1.5l-4.55,7.76Zm-5.2-3.11c-.87-.53-1.73-1.06-2.59-1.6l4.76-7.64c.84,.52,1.68,1.04,2.52,1.55l-4.69,7.68Zm-5.16-3.21c-.86-.54-1.71-1.09-2.56-1.64l4.88-7.56c.83,.54,1.66,1.07,2.5,1.6l-4.83,7.6Zm-5.1-3.3c-.85-.56-1.69-1.12-2.53-1.68l5.01-7.48c.82,.55,1.64,1.1,2.47,1.64l-4.95,7.51Zm-5.04-3.38c-.84-.57-1.67-1.14-2.5-1.72l5.13-7.4c.81,.56,1.63,1.12,2.45,1.68l-5.07,7.44Zm-4.99-3.46c-.83-.58-1.66-1.17-2.48-1.76l5.24-7.32c.8,.57,1.61,1.15,2.42,1.72l-5.18,7.36Zm-4.94-3.53c-.82-.6-1.63-1.19-2.44-1.79l5.34-7.24c.79,.59,1.59,1.17,2.4,1.76l-5.29,7.28Zm-4.88-3.6c-.81-.61-1.62-1.22-2.42-1.83l5.44-7.17c.79,.6,1.58,1.19,2.37,1.79l-5.39,7.21Zm-4.83-3.67c-.81-.62-1.6-1.24-2.4-1.86l5.54-7.09c.78,.61,1.56,1.21,2.35,1.82l-5.49,7.13Zm-4.78-3.73c-.8-.63-1.58-1.26-2.37-1.89l5.63-7.02c.77,.62,1.54,1.23,2.33,1.85l-5.59,7.06Zm-4.73-3.79c-.79-.64-1.57-1.28-2.35-1.92l5.72-6.95c.76,.63,1.53,1.25,2.3,1.88l-5.68,6.98Zm-4.68-3.85c-.78-.65-1.55-1.3-2.32-1.95l5.81-6.88c.75,.64,1.51,1.27,2.28,1.91l-5.76,6.91Zm-4.63-3.91c-.77-.66-1.54-1.32-2.3-1.98l5.89-6.8c.74,.64,1.5,1.29,2.25,1.94l-5.85,6.84Zm-4.58-3.97c-.76-.67-1.52-1.34-2.27-2l5.97-6.73c.74,.65,1.48,1.31,2.23,1.97l-5.93,6.77Zm-4.53-4.02c-.76-.68-1.51-1.36-2.25-2.03l6.05-6.66c.73,.66,1.46,1.33,2.21,1.99l-6.01,6.7Zm-4.48-4.07c-.75-.69-1.49-1.38-2.22-2.06l6.13-6.59c.72,.67,1.45,1.34,2.19,2.02l-6.09,6.62Zm-4.43-4.12c-.74-.7-1.48-1.4-2.2-2.08l6.21-6.52c.71,.68,1.43,1.36,2.16,2.05l-6.17,6.55Zm-4.39-4.18c-.74-.71-1.46-1.41-2.18-2.11l6.28-6.44c.7,.68,1.41,1.37,2.14,2.07l-6.24,6.48Zm-4.34-4.23c-.73-.72-1.45-1.43-2.15-2.13l6.36-6.37c.69,.69,1.39,1.39,2.11,2.1l-6.32,6.4Zm-4.29-4.28c-.73-.74-1.44-1.46-2.13-2.16l6.44-6.29c.68,.69,1.37,1.4,2.09,2.12l-6.4,6.33Zm-4.24-4.33c-.73-.75-1.43-1.48-2.1-2.19l6.51-6.21c.66,.69,1.35,1.41,2.06,2.14l-6.47,6.26Zm-4.19-4.39c-.73-.77-1.42-1.51-2.07-2.22l6.6-6.12c.64,.69,1.32,1.42,2.03,2.17l-6.56,6.17Zm-4.13-4.46c-.75-.82-1.43-1.57-2.04-2.26l6.7-6.01c.6,.67,1.27,1.4,1.99,2.2l-6.64,6.07Zm-4.08-4.54c-1.35-1.53-2.05-2.36-2.05-2.36l6.89-5.79s.67,.8,1.92,2.21l-6.76,5.95Z"/><circle class="cls-4" cx="251" cy="448" r="10"/><circle class="cls-4" cx="665" cy="643" r="10"/></svg>