<?xml version="1.0" encoding="UTF-8"?><svg xmlns="http://www.w3.org/2000/svg" viewBox="0 0 1000 1000"><defs><style>.cls-1,.cls-2{fill:#fff;}.cls-3{fill:#fae44a;}.cls-4{fill:#db4a25;}.cls-5,.cls-6{fill:#1bce20;}.cls-7{fill:#75e5fd;}.cls-6{stroke:#000;stroke-miterlimit:10;stroke-width:2px;}.cls-2{font-family:OpenSans-ExtraBold, 'Open Sans';font-size:12.78px;}</style></defs><g id="Canadian_GP_Detailed"><path d="M971.25,590.96c.19-3.72,.86-34.64-30.24-38.51-.74-.22-3.39-.91-7.14-.91-6.78,0-16.73,2.21-25.67,12.7-.75,.87-2.12,1.05-3.05,.4-9.11-6.41-40.92-27.9-67.6-35.17-2.95-.81-6.69-1.76-11.8-3.04h-.02l-10.43,35.96s.07,0,.08,0l.13,.04c5.13,1.26,9.12,2.27,12.19,3.12,16.53,4.51,39.73,18.29,55.93,29.68,6.72,4.72,14.6,7.22,22.81,7.22s15.67-2.4,22.15-6.76c-.1,.16-.2,.33-.3,.49-1.98,3.15-8.64,12.34-27.63,29.61-7.02,6.41-14.96,11.87-23.6,16.24-24.37,12.37-44.08,21.87-55.71,26.87-.56-.4-1.18-.95-1.64-1.47-7.27-8.29-17.75-13.04-28.76-13.04-3.12,0-6.23,.38-9.27,1.15-4.6,1.15-45.15,11.29-52.2,13.31-7.46,2.12-12.99,5.7-17.44,8.57l-.1,.06c-4.04,2.62-8.22,5.32-15.71,7.89-.69,.04-1.38,.06-2.07,.06-11.41,0-25.81-4.54-32.58-7.23l-44.17-21.2c-5.08-2.45-10.75-3.73-16.37-3.73-17.81,0-33,12.13-36.94,29.5-.11,.45-.52,1.7-1.25,3.43-3.18,1.69-7.41,2.29-9.51,2.38-2.06,.09-3.89,.22-5.58,.39-1.71-.08-13.14-.95-42.15-10.79-43.03-14.6-81.06-32.19-102.29-43.78-17.45-9.51-29.76-19.13-56.7-40.19l-4.61-3.61c-11.54-9.01-21.15-17.29-28.61-24.64,3.89-10.95,6.03-31.51-17.89-53.83-6.19-5.78-12.44-10.22-14.89-11.89l-.53-.41c-19.5-15.01-54.19-41.73-67.6-52.17-6.61-5.14-14.75-10.58-24.2-16.14-5.17-3.05-10.79-6.19-16.79-9.35,20.34,.91,59.33,2.72,77.58,4.03,21.11,1.51,33.46,2.49,36.94,2.77l99.75,22.34,192.75,43.15,1.15,.26,1.29,.2c1.2,.18,2.72,.56,4.07,.89,.13,.03,.27,.07,.4,.1l.88,11.47,.18,.35c.27,.5,.47,1.19,.72,1.99,.85,2.87,2.16,7.18,8.59,11.21,6.7,4.19,20.42,5.93,24.46,6.36l10.79,1.14c6.23,.64,14.32,1.5,22.6,2.36l2.79,.3c9.22,.96,18.42,1.92,25.34,2.64l9.7,1.02c16.08,3.43,70.88,15.18,108.13,23.88,.73,.16,1.43,.34,2.14,.5l.3,.07,10.36-35.99c-43.34-10.2-114.27-25.28-114.98-25.43l-.2-.03s-59.13-6.16-71.52-7.46c.75-3.05,2.04-8.59-1.78-14.59-5.04-7.9-17.59-13.87-37.24-17.71l-192.75-43.15-102.15-22.88-.26-.04c-.13,0-13.24-1.12-39.81-3.02-26.26-1.87-92.72-4.7-94.94-4.79-.7-.06-7.14-.64-17.65-.64-6.36,0-12.92,.22-19.5,.64-1.11,.08-2.22,.11-3.3,.11-12.08,0-22.18-4.29-31.08-8.07-5.6-2.38-10.89-4.62-15.76-5.31-1.2-.17-2.33-.35-3.39-.51-3.19-.5-5.95-.92-8.74-.92-6.34,0-12.03,2.29-20.27,8.17-14.74,10.51-7.27,28.77-6.43,30.69,.48,1.6,4.46,12.98,21.6,17.16,5.69,1.39,13.94,2.93,23.49,4.72,18.6,3.47,41.75,7.79,52.22,12.44,5.15,2.28,18.75,8.52,33.79,16.89,11.45,6.36,20.78,12.32,27.74,17.74,17.07,13.27,68.64,52.96,69.16,53.36l.12,.09c8.73,5.73,21.67,17.04,19.3,22.97-1.04,2.61-2.25,4.96-3.43,7.23-3.02,5.86-5.89,11.39-1.76,16.23l1.01,1.19c5.29,6.29,16.31,19.36,45.07,41.83l4.5,3.51c27.8,21.73,41.75,32.64,61.93,43.65,10.96,5.97,51.14,26.97,108.19,46.35,32.76,11.12,48.18,12.78,54.45,12.78,1.12,0,2.11-.05,2.92-.14,1.18-.13,2.45-.22,4.01-.29,6.64-.3,23.42-2.27,35.95-14.29,1.44-1.39,2.65-3.03,3.6-4.89,1.69-3.36,4.71-9.86,6.05-15.72,.09-.36,.4-.46,.66-.34l45.19,21.68c1.01,.43,24.86,10.43,47.74,10.43,3.48,0,6.81-.24,9.88-.71l.27-.07c14.34-4.36,22.21-9.46,27.96-13.18,2.98-1.93,5.34-3.46,7.49-4.08,2.69-.77,13.72-3.64,51.03-12.98,.32-.09,.61,.04,.82,.28,3.85,4.39,14.42,14.6,29.48,14.6,4.58,0,9.23-.99,13.83-2.92,15.57-6.59,40.73-19.07,59.09-28.38,11.63-5.9,22.34-13.28,31.85-21.93,11.29-10.27,26.36-25.1,34.08-37.33,10.43-16.54,11.78-22.8,11.32-25.16Zm-14.56,23.11c-7.49,11.88-22.31,26.43-33.43,36.55-9.24,8.42-19.67,15.6-30.99,21.36-18.31,9.28-43.37,21.72-58.85,28.27-4.11,1.74-8.27,2.62-12.33,2.62-13.86,0-23.86-10.17-26.59-13.29-1.16-1.31-2.94-1.92-4.7-1.46-29.52,7.39-47.19,11.89-51.09,13.01-2.7,.77-5.27,2.44-8.52,4.54-5.53,3.59-13.12,8.5-26.85,12.69-2.85,.43-5.93,.65-9.17,.65-22.08,0-46-10.03-46.15-10.09l-45.1-21.64c-.58-.28-1.23-.43-1.87-.43-2.02,0-3.75,1.39-4.2,3.37-1.25,5.47-4.13,11.65-5.73,14.83-.75,1.48-1.71,2.77-2.83,3.86-11.59,11.1-27.26,12.95-33.46,13.21-1.65,.07-3,.17-4.29,.31-.46,.06-1.27,.12-2.47,.12-6.04,0-20.98-1.63-53.22-12.57-56.75-19.27-96.69-40.15-107.57-46.1-19.9-10.86-33.77-21.69-61.41-43.3l-4.5-3.52c-28.44-22.22-39.29-35.09-44.49-41.26-.37-.44-.71-.85-1.03-1.22-2.34-2.73-.83-5.98,2.26-11.97,1.16-2.24,2.47-4.79,3.59-7.58,4.26-10.65-17.86-25.67-20.7-27.55-1.99-1.52-52.28-40.24-69.08-53.31-7.12-5.53-16.62-11.61-28.24-18.07-15.17-8.45-28.9-14.73-34.1-17.04-10.88-4.82-33.29-9.01-53.07-12.71-9.11-1.7-17.71-3.3-23.3-4.66-15.73-3.84-18.72-14.15-18.84-14.59l-.12-.34c-.09-.16-7.8-16.87,5.11-26.07,8.69-6.19,13.5-7.46,18.05-7.46,2.49,0,5.11,.4,8.14,.87,1.09,.17,2.23,.35,3.45,.52,4.36,.61,9.2,2.67,14.79,5.04,9.24,3.93,19.73,8.38,32.58,8.38,1.16,0,2.35-.04,3.55-.11,6.5-.43,12.98-.64,19.26-.64,10.69,0,17.27,.62,17.34,.63h.11c.68,.04,68.36,2.91,94.88,4.8,25.12,1.79,38.19,2.88,39.62,2.99l102.01,22.85,192.8,43.16c18.62,3.64,30.33,9.04,34.79,16.02,2.99,4.69,1.91,9.1,1.26,11.73l-.12,.5c-.21,.92-.03,1.88,.52,2.66,.54,.77,1.4,1.28,2.36,1.39,10.74,1.13,69.28,7.23,72.03,7.52,3.01,.64,70.18,14.93,112.86,24.93l-7.77,26.47-.63,2.1c-.24-.06-.47-.11-.71-.16-37.34-8.72-92.34-20.5-108.29-23.92l-10-1.05c-6.91-.73-16.13-1.69-25.34-2.65l-2.8-.3c-8.28-.86-16.36-1.71-22.59-2.36l-10.79-1.14c-7.9-.84-18.06-2.81-22.83-5.8-5.21-3.25-6.18-6.47-6.95-9.05-.25-.81-.48-1.58-.81-2.3l-1.05-13.52-1.4-.3c-.46-.11-1.05-.25-1.7-.41-1.41-.35-3.02-.75-4.41-.96l-1.08-.16-193.83-43.39-99.88-22.37-.27-.04c-3.29-.27-15.7-1.26-37.11-2.79-20.89-1.5-67.38-3.59-86.4-4.42l-8.9-.38,7.95,4.02c8.89,4.49,17.08,8.94,24.35,13.23,9.31,5.49,17.32,10.83,23.79,15.87,13.42,10.43,48.12,37.17,67.61,52.18l.66,.51c2.35,1.6,8.44,5.93,14.49,11.56,23.16,21.61,20.27,41.12,16.49,50.81l-.46,1.17,.89,.89c7.67,7.66,17.71,16.35,29.82,25.81l4.61,3.6c27.12,21.19,39.49,30.87,57.22,40.54,21.38,11.66,59.64,29.34,102.9,44.02,29.74,10.1,41.34,10.93,43.37,11h.26c1.65-.18,3.44-.31,5.49-.39,3.18-.14,8.2-1.06,11.82-3.21l.53-.32,.25-.57c.82-1.89,1.51-3.73,1.73-4.7,3.54-15.61,17.19-26.51,33.2-26.51,5.05,0,10.14,1.16,14.71,3.35l44.23,21.23,.12,.06c6.99,2.79,22.03,7.53,34.05,7.53,.85,0,1.71-.03,2.56-.08l.26-.02,.24-.09c8.09-2.74,12.52-5.61,16.81-8.38l.09-.06c4.23-2.73,9.5-6.14,16.42-8.11,7-2,47.49-12.12,52.08-13.27,2.73-.69,5.54-1.04,8.34-1.04,9.91,0,19.34,4.28,25.88,11.74,.91,1.05,2.32,2.19,3.42,2.78l.81,.44,.85-.36c11.57-4.9,31.78-14.62,56.88-27.38,8.95-4.53,17.17-10.18,24.45-16.82,19.32-17.6,26.22-27.13,28.28-30.41,3.02-4.79,4.78-7.98,5.72-9.82l1.25-2.43-4.26-.55-.67,.78c-6.83,7.88-16.71,12.41-27.13,12.41-7.41,0-14.54-2.25-20.61-6.53-16.46-11.57-40.11-25.6-57.11-30.24-2.74-.75-6.19-1.64-10.52-2.7l8.39-28.56c4.19,1.05,7.37,1.88,9.94,2.58,26.08,7.11,57.42,28.29,66.42,34.62,1.04,.72,2.23,1.1,3.49,1.1,1.8,0,3.5-.79,4.67-2.16,8-9.39,16.79-11.35,22.76-11.35,3.68,0,6.13,.77,6.15,.78l.36,.09c29.39,3.56,27.13,33.48,27.02,34.74l-.05,.57,.13,.27c.03,.79-.35,5.7-10.8,22.26Z"/><path class="cls-3" d="M812.01,525.1l-8.72,29.65-.5,1.69s-.97,.12-2.73,.34c-39.15-9.14-97.52-21.61-108.26-23.91-5.04-.53-20.09-2.09-35.14-3.66-9.23-.97-18.46-1.94-25.39-2.66-3.47-.36-6.36-.67-8.39-.88l-2.4-.26c-8.61-.92-18.74-3.01-23.65-6.08-7.67-4.79-7.17-9.71-8.63-12.47l-.96-12.47c-1.46-.32-4.06-1.05-5.98-1.34l-1.16-.17-1.15-.26-192.75-43.15-99.88-22.37c-4.74-.38-17.04-1.35-37.09-2.79-20.82-1.49-67.9-3.61-86.35-4.41,7.38,3.73,15.94,8.27,24.45,13.3l-24.6,24.6c-12.5-6.96-25.18-13.07-33.95-16.96-15.9-7.06-58.89-13.08-76.04-17.26-17.16-4.18-20.24-15.96-20.24-15.96,0,0-8.63-18.22,5.73-28.46,8.61-6.14,13.83-7.82,19.16-7.82,3.56,0,7.16,.75,11.86,1.41,11.97,1.69,26.8,13.41,47.1,13.41,1.12,0,2.26-.04,3.42-.11,7.36-.48,13.91-.64,19.38-.64,10.93,0,17.52,.64,17.52,.64,0,0,68.08,2.88,94.94,4.79,26.85,1.92,39.78,3.01,39.78,3.01l102.15,22.88,192.75,43.15c44.11,8.63,38.76,25.02,37.43,30.57-.19,.82,.37,1.6,1.21,1.7,11,1.16,72.12,7.53,72.12,7.53,0,0,71.14,15.11,114.97,25.43Z"/><path class="cls-4" d="M958.32,615.1c-7.57,12-22.33,26.54-33.75,36.94-9.45,8.6-20.03,15.86-31.42,21.64-16.77,8.51-42.99,21.57-58.97,28.33-4.65,1.97-9.03,2.77-13.08,2.77-14.52,0-24.82-10.27-28.04-13.94-.54-.61-1.3-.96-2.09-.96-.22,0-.44,.03-.66,.09-8.34,2.09-45.12,11.31-51.06,13-6.71,1.92-13.43,10.55-35.48,17.26-3.12,.48-6.34,.69-9.59,.69-22.76,0-46.99-10.28-46.99-10.28l-18.93-9.08,11.09-31.91,21.49,10.32c5.71,2.28,21.04,7.39,33.34,7.39,.86,0,1.68-.03,2.45-.08,7.86-2.67,12.19-5.47,16.38-8.18,4.36-2.82,9.78-6.34,17.02-8.4,6.16-1.76,38.51-9.89,52.14-13.29,2.87-.72,5.84-1.09,8.81-1.09,10.46,0,20.42,4.52,27.32,12.39,.83,.95,2.08,1.92,2.9,2.36,11.48-4.86,31.64-14.56,56.77-27.32,8.78-4.45,16.87-10.01,24.02-16.53,19.11-17.4,25.92-26.78,27.95-30.01,2.89-4.57,4.62-7.7,5.63-9.67l-.53-.07c-7.19,8.31-17.59,13.07-28.58,13.07-7.81,0-15.31-2.38-21.71-6.88-16.32-11.48-39.74-25.38-56.52-29.96-3.27-.89-7.42-1.95-12.24-3.13l.45-2.19,8.84-30.08,.03-.02c4.57,1.14,8.54,2.16,11.75,3.03,26.17,7.13,57.1,27.92,67,34.9,.73,.51,1.56,.76,2.4,.76,1.2,0,2.38-.51,3.21-1.49,8.54-10.03,18.03-12.03,24.21-12.03,4.09,0,6.74,.87,6.74,.87,31.65,3.84,28.7,36.82,28.7,36.82,0,0,1.88,3.53-11,23.94Z"/><path class="cls-7" d="M639.33,669.64l-11.09,31.91-26.17-12.56c-.34-.16-.69-.24-1.04-.24-1.07,0-2.07,.74-2.33,1.88-1.29,5.67-4.23,11.96-5.9,15.28-.82,1.62-1.9,3.11-3.21,4.37-12.1,11.6-28.39,13.47-34.7,13.75-1.38,.06-2.76,.14-4.13,.3-.64,.08-1.53,.13-2.7,.13-6.46,0-21.68-1.76-53.83-12.68-47.47-16.12-86.78-34.71-107.88-46.22-21.1-11.51-35.48-23.01-66.17-46.99s-41.23-37.4-45.8-42.75c-4.56-5.35,1.69-11.91,5.52-21.5,3.84-9.59-20.03-25.28-20.03-25.28,0,0-51.89-39.93-69.15-53.36-7.75-6.02-17.81-12.25-27.99-17.9l24.6-24.6c8.42,4.96,16.81,10.4,24,16,15.8,12.29,61.43,47.42,68.18,52.62,2.68,1.83,8.74,6.17,14.71,11.74,23.92,22.31,20.99,42.61,16.97,52.91,6.19,6.19,15.44,14.56,29.65,25.66l4.51,3.52c27.09,21.17,39.45,30.84,57.07,40.45,21.29,11.61,59.42,29.25,102.6,43.9,29.58,10.04,41.03,10.84,42.82,10.89,1.76-.18,3.61-.31,5.61-.39,2.67-.12,7.45-.88,10.93-2.94,.92-2.11,1.46-3.69,1.61-4.35,3.74-16.49,18.16-28.01,35.07-28.01,5.34,0,10.72,1.23,15.54,3.54l22.74,10.91Z"/><g id="Start_Line"><polygon points="824.18 579.84 817.32 566.79 814.1 568.46 819.27 578.31 809.43 583.49 811.11 586.7 824.18 579.84"/><polygon points="823.54 587.92 825.22 591.14 834.3 586.37 838.28 584.28 831.42 571.22 828.21 572.92 833.38 582.76 831.91 583.54 823.54 587.92"/><polygon points="837.64 592.36 839.34 595.58 841.23 594.58 852.39 588.72 845.53 575.67 842.32 577.35 847.49 587.2 838.83 591.74 837.64 592.36"/></g><polygon points="821.72 526.74 821.65 527.03 821.6 527.23 821.55 527.39 813.04 556.36 812.76 557.3 812.18 559.23 812.07 559.63 810.86 563.71 804.69 584.71 802.74 584.14 798.99 583.04 805.18 561.96 806.26 558.24 806.48 557.53 806.96 555.87 807.35 554.61 815.75 526 815.9 525.48 815.95 525.34 816.02 525.06 817.98 525.64 821.72 526.74"/><path d="M952.09,576.8c-.61-.78-5.42-6.63-13.34-7.42-5.99-.6-12.11,1.82-18.18,7.22-4.94,4.38-9.98,6.42-14.98,6.04-7.7-.58-12.91-6.73-12.96-6.79l-.16-.2-.21-.14c-23.07-16.32-45.19-24.55-71.53-31.69l-1.05,3.67c26.37,7.12,47.48,15,70.18,31.01,1.09,1.24,6.84,7.3,15.4,7.97,6.09,.48,12.1-1.88,17.87-7.01,5.22-4.63,10.33-6.75,15.21-6.26,6.62,.64,10.71,5.94,10.75,5.98l.13,.15c.13,.15,3.43,3.84,2.97,10.95-.45,7.21-4.98,19.17-23.91,35.18-36.72,31.08-78.66,48.43-79.08,48.6l-.35,.18c-9.71,6.54-27.18,15.09-32.65,10.23-1.65-1.47-3.05-2.98-4.41-4.45-5.78-6.22-10.77-11.59-27.99-7.5-14.21,3.39-36.53,9.16-48.56,12.29-4.92,1.28-9.43,3.51-13.4,6.64-9.16,7.21-28.46,17.59-54.78,6.12-37-16.13-63.08-26.76-63.41-26.9-.15-.06-15.31-5.18-23.54,17.45-6.85,18.83-30.73,18.01-32.49,17.92-3.32-.63-73.21-14.31-127.79-44.84-54.73-30.6-102.88-68.9-105.14-70.71l-16.71-16.71c-.71-.71-.88-1.8-.42-2.66,4.52-8.33,10.82-30.8-28.09-59.38-12.68-9.32-25-18.79-36.92-27.94-32.3-24.81-60.19-46.24-78.72-51.94l-3.33-1.03c-25.06-7.72-59.39-18.3-84.36-20.15-9.93-.74-15.39-5.99-17.18-10.65-1.27-3.31-.83-6.54,1.18-8.64,3.07-3.22,9.33-3.57,17.17-.95,4.08,1.36,7.74,2.84,11.27,4.27,15.58,6.3,30.31,12.26,81.52,10.84,5.49-.14,56.82,2.09,74.01,3.68,8.33,.78,16.43,.7,24.25,.63,10.34-.1,20.11-.18,29.41,1.66,49.98,9.91,90.73,19.74,130.13,29.27,38.66,9.34,75.2,18.16,116.13,25.95l62.28,15.32,.23,.06h.23c1.88,0,7.18,.66,9.09,3.57,1.11,1.7,1.02,4.11-.31,7.18-1.53,3.58-1.44,6.76,.27,9.46,4.35,6.91,18.1,7.57,18.62,7.59,.67,.04,67.67,4.97,129.1,21.04,12.85,3.36,24.31,6.13,35.38,8.8,6.12,1.48,11.93,2.89,17.5,4.28l1.05-3.69c-5.66-1.42-11.53-2.84-17.65-4.32-11.06-2.68-22.5-5.44-35.31-8.79-61.79-16.16-129.14-21.1-129.87-21.15-3.4-.14-12.86-1.46-15.59-5.8-1.01-1.6-1-3.53,.02-5.91,1.86-4.34,1.85-7.98-.02-10.82-3.16-4.79-10.56-5.24-12.04-5.28l-62.12-15.29-.11-.02c-40.86-7.77-77.36-16.58-115.99-25.92-39.44-9.52-80.23-19.38-130.28-29.3-9.69-1.93-19.65-1.83-30.2-1.74-7.73,.07-15.72,.14-23.85-.61-17.29-1.61-68.93-3.86-74.48-3.7-50.4,1.4-64.77-4.41-79.98-10.56-3.59-1.45-7.3-2.95-11.5-4.35-12.73-4.24-18.73-.6-21.15,1.94-3.06,3.2-3.81,7.94-1.99,12.67,2.22,5.76,8.76,12.24,20.47,13.1,24.55,1.82,58.63,12.32,83.51,19.99l3.33,1.03c17.86,5.49,45.51,26.73,77.51,51.31,11.94,9.17,24.28,18.65,37,27.99,36.46,26.79,31.01,47.02,26.97,54.47-1.27,2.33-.81,5.29,1.08,7.19l16.79,16.78,.15,.14c.49,.39,49.67,39.78,105.74,71.14,56.2,31.43,128.36,45.15,129.08,45.28l.22,.03s.62,.04,1.62,.04c6.14,0,27.9-1.39,34.84-20.48,6.75-18.57,17.78-15.43,18.62-15.15,1.37,.56,27.07,11.06,63.19,26.8,29.21,12.73,50.78-.38,58.69-6.62,3.56-2.79,7.59-4.79,11.99-5.94,12.03-3.14,34.32-8.9,48.48-12.26,15.06-3.59,18.93,.58,24.3,6.37,1.42,1.53,2.89,3.12,4.67,4.7,9.31,8.29,33.69-7.46,37.19-9.8,3.1-1.29,43.98-18.72,79.92-49.14,16.12-13.65,24.63-26.45,25.28-38.06,.46-8.2-3.32-12.83-3.94-13.54Z"/><g id="_1"><g><path d="M897.07,620.94c-6.09,0-11.04-4.95-11.04-11.04s4.95-11.04,11.04-11.04,11.04,4.95,11.04,11.04-4.95,11.04-11.04,11.04Z"/><path d="M897.07,599.86c5.55,0,10.04,4.5,10.04,10.04s-4.5,10.04-10.04,10.04-10.04-4.5-10.04-10.04,4.5-10.04,10.04-10.04m0-2c-6.64,0-12.04,5.4-12.04,12.04s5.4,12.04,12.04,12.04,12.04-5.4,12.04-12.04-5.4-12.04-12.04-12.04h0Z"/></g><text class="cls-2" transform="translate(889.2 613.87)"><tspan x="0" y="0">01</tspan></text></g><g id="_1-2"><g><circle cx="977.62" cy="568.67" r="11.04"/><path d="M977.62,558.62c5.55,0,10.04,4.5,10.04,10.04s-4.5,10.04-10.04,10.04-10.04-4.5-10.04-10.04,4.5-10.04,10.04-10.04m0-2c-6.64,0-12.04,5.4-12.04,12.04s5.4,12.04,12.04,12.04,12.04-5.4,12.04-12.04-5.4-12.04-12.04-12.04h0Z"/></g><text class="cls-2" transform="translate(969.75 572.64)"><tspan x="0" y="0">02</tspan></text></g><g id="_1-3"><g><path d="M816.52,728.34c-6.09,0-11.04-4.95-11.04-11.04s4.95-11.04,11.04-11.04,11.04,4.95,11.04,11.04-4.95,11.04-11.04,11.04Z"/><path d="M816.52,707.26c5.55,0,10.04,4.5,10.04,10.04s-4.5,10.04-10.04,10.04-10.04-4.5-10.04-10.04,4.5-10.04,10.04-10.04m0-2c-6.64,0-12.04,5.4-12.04,12.04s5.4,12.04,12.04,12.04,12.04-5.4,12.04-12.04-5.4-12.04-12.04-12.04h0Z"/></g><text class="cls-2" transform="translate(808.65 721.27)"><tspan x="0" y="0">03</tspan></text></g><g id="_1-4"><g><path d="M796.38,655.46c-6.09,0-11.04-4.95-11.04-11.04s4.95-11.04,11.04-11.04,11.04,4.95,11.04,11.04-4.95,11.04-11.04,11.04Z"/><path d="M796.38,634.38c5.55,0,10.04,4.5,10.04,10.04s-4.5,10.04-10.04,10.04-10.04-4.5-10.04-10.04,4.5-10.04,10.04-10.04m0-2c-6.64,0-12.04,5.4-12.04,12.04s5.4,12.04,12.04,12.04,12.04-5.4,12.04-12.04-5.4-12.04-12.04-12.04h0Z"/></g><text class="cls-2" transform="translate(788.51 648.39)"><tspan x="0" y="0">04</tspan></text></g><g id="_1-5"><g><path d="M693.77,743.69c-6.09,0-11.04-4.95-11.04-11.04s4.95-11.04,11.04-11.04,11.04,4.95,11.04,11.04-4.95,11.04-11.04,11.04Z"/><path d="M693.77,722.6c5.55,0,10.04,4.5,10.04,10.04s-4.5,10.04-10.04,10.04-10.04-4.5-10.04-10.04,4.5-10.04,10.04-10.04m0-2c-6.64,0-12.04,5.4-12.04,12.04s5.4,12.04,12.04,12.04,12.04-5.4,12.04-12.04-5.4-12.04-12.04-12.04h0Z"/></g><text class="cls-2" transform="translate(685.91 736.62)"><tspan x="0" y="0">05</tspan></text></g><g id="_1-6"><g><path d="M579.66,659.3c-6.09,0-11.04-4.95-11.04-11.04s4.95-11.04,11.04-11.04,11.04,4.95,11.04,11.04-4.95,11.04-11.04,11.04Z"/><path d="M579.66,638.22c5.55,0,10.04,4.5,10.04,10.04s-4.5,10.04-10.04,10.04-10.04-4.5-10.04-10.04,4.5-10.04,10.04-10.04m0-2c-6.64,0-12.04,5.4-12.04,12.04s5.4,12.04,12.04,12.04,12.04-5.4,12.04-12.04-5.4-12.04-12.04-12.04h0Z"/></g><text class="cls-2" transform="translate(571.79 652.23)"><tspan x="0" y="0">06</tspan></text></g><g id="_1-7"><g><path d="M560.48,747.52c-6.09,0-11.04-4.95-11.04-11.04s4.95-11.04,11.04-11.04,11.04,4.95,11.04,11.04-4.95,11.04-11.04,11.04Z"/><path d="M560.48,726.44c5.55,0,10.04,4.5,10.04,10.04s-4.5,10.04-10.04,10.04-10.04-4.5-10.04-10.04,4.5-10.04,10.04-10.04m0-2c-6.64,0-12.04,5.4-12.04,12.04s5.4,12.04,12.04,12.04,12.04-5.4,12.04-12.04-5.4-12.04-12.04-12.04h0Z"/></g><text class="cls-2" transform="translate(552.62 740.45)"><tspan x="0" y="0">07</tspan></text></g><g id="_1-8"><g><path d="M262.25,590.26c-6.09,0-11.04-4.95-11.04-11.04s4.95-11.04,11.04-11.04,11.04,4.95,11.04,11.04-4.95,11.04-11.04,11.04Z"/><path d="M262.25,569.17c5.55,0,10.04,4.5,10.04,10.04s-4.5,10.04-10.04,10.04-10.04-4.5-10.04-10.04,4.5-10.04,10.04-10.04m0-2c-6.64,0-12.04,5.4-12.04,12.04s5.4,12.04,12.04,12.04,12.04-5.4,12.04-12.04-5.4-12.04-12.04-12.04h0Z"/></g><text class="cls-2" transform="translate(254.38 583.19)"><tspan x="0" y="0">08</tspan></text></g><g id="_1-9"><g><path d="M323.62,544.23c-6.09,0-11.04-4.95-11.04-11.04s4.95-11.04,11.04-11.04,11.04,4.95,11.04,11.04-4.95,11.04-11.04,11.04Z"/><path d="M323.62,523.14c5.55,0,10.04,4.5,10.04,10.04s-4.5,10.04-10.04,10.04-10.04-4.5-10.04-10.04,4.5-10.04,10.04-10.04m0-2c-6.64,0-12.04,5.4-12.04,12.04s5.4,12.04,12.04,12.04,12.04-5.4,12.04-12.04-5.4-12.04-12.04-12.04h0Z"/></g><text class="cls-2" transform="translate(315.76 537.16)"><tspan x="0" y="0">09</tspan></text></g><g id="_1-10"><g><path d="M17.72,406.14c-6.09,0-11.04-4.95-11.04-11.04s4.95-11.04,11.04-11.04,11.04,4.95,11.04,11.04-4.95,11.04-11.04,11.04Z"/><path d="M17.72,385.06c5.55,0,10.04,4.5,10.04,10.04s-4.5,10.04-10.04,10.04-10.04-4.5-10.04-10.04,4.5-10.04,10.04-10.04m0-2c-6.64,0-12.04,5.4-12.04,12.04s5.4,12.04,12.04,12.04,12.04-5.4,12.04-12.04-5.4-12.04-12.04-12.04h0Z"/></g><text class="cls-2" transform="translate(9.86 399.07)"><tspan x="0" y="0">10</tspan></text></g><g id="_1-11"><g><path d="M105.94,384.08c-6.09,0-11.04-4.95-11.04-11.04s4.95-11.04,11.04-11.04,11.04,4.95,11.04,11.04-4.95,11.04-11.04,11.04Z"/><path d="M105.94,363c5.55,0,10.04,4.5,10.04,10.04s-4.5,10.04-10.04,10.04-10.04-4.5-10.04-10.04,4.5-10.04,10.04-10.04m0-2c-6.64,0-12.04,5.4-12.04,12.04s5.4,12.04,12.04,12.04,12.04-5.4,12.04-12.04-5.4-12.04-12.04-12.04h0Z"/></g><text class="cls-2" transform="translate(98.08 377.01)"><tspan x="0" y="0">11</tspan></text></g><g id="_1-12"><g><path d="M277.59,450.25c-6.09,0-11.04-4.95-11.04-11.04s4.95-11.04,11.04-11.04,11.04,4.95,11.04,11.04-4.95,11.04-11.04,11.04Z"/><path d="M277.59,429.17c5.55,0,10.04,4.5,10.04,10.04s-4.5,10.04-10.04,10.04-10.04-4.5-10.04-10.04,4.5-10.04,10.04-10.04m0-2c-6.64,0-12.04,5.4-12.04,12.04s5.4,12.04,12.04,12.04,12.04-5.4,12.04-12.04-5.4-12.04-12.04-12.04h0Z"/></g><text class="cls-2" transform="translate(269.73 443.18)"><tspan x="0" y="0">12</tspan></text></g><g id="_1-13"><g><path d="M634.32,479.98c-6.09,0-11.04-4.95-11.04-11.04s4.95-11.04,11.04-11.04,11.04,4.95,11.04,11.04-4.95,11.04-11.04,11.04Z"/><path d="M634.32,458.89c5.55,0,10.04,4.5,10.04,10.04s-4.5,10.04-10.04,10.04-10.04-4.5-10.04-10.04,4.5-10.04,10.04-10.04m0-2c-6.64,0-12.04,5.4-12.04,12.04s5.4,12.04,12.04,12.04,12.04-5.4,12.04-12.04-5.4-12.04-12.04-12.04h0Z"/></g><text class="cls-2" transform="translate(626.45 472.91)"><tspan x="0" y="0">13</tspan></text></g><g id="_1-14"><g><path d="M595,543.27c-6.09,0-11.04-4.95-11.04-11.04s4.95-11.04,11.04-11.04,11.04,4.95,11.04,11.04-4.95,11.04-11.04,11.04Z"/><path d="M595,522.18c5.55,0,10.04,4.5,10.04,10.04s-4.5,10.04-10.04,10.04-10.04-4.5-10.04-10.04,4.5-10.04,10.04-10.04m0-2c-6.64,0-12.04,5.4-12.04,12.04s5.4,12.04,12.04,12.04,12.04-5.4,12.04-12.04-5.4-12.04-12.04-12.04h0Z"/></g><text class="cls-2" transform="translate(587.14 536.2)"><tspan x="0" y="0">14</tspan></text></g><circle class="cls-6" cx="264" cy="510" r="10"/><circle class="cls-6" cx="655" cy="694" r="10"/></g><g id="Canadian_GP_Simple"><path class="cls-5" d="M598.88,454.13l-2.96-.68,2-8.77,2.96,.68-2,8.77Zm-5.9-1.35l-2.94-.67,2-8.77,2.94,.67-2,8.77Zm-5.87-1.34l-2.94-.67,2-8.77,2.93,.67-2,8.78Zm-5.87-1.34l-2.93-.67,2-8.77,2.93,.67-2.01,8.77Zm-5.86-1.34l-2.93-.67,2-8.77,2.93,.67-2,8.77Zm-5.86-1.33l-2.93-.67,2-8.78,2.93,.67-2,8.78Zm-5.86-1.34l-2.93-.67,2-8.78,2.93,.67-2,8.77Zm-5.86-1.33l-2.93-.67,2-8.78,2.93,.67-2,8.77Zm-5.86-1.33l-2.83-.64,1.9-8.8,2.93,.67-2,8.78Zm-5.86-1.33l-2.93-.67,2-8.78,2.93,.67-1.99,8.78Zm-5.86-1.33l-2.93-.67,1.99-8.78,2.93,.67-2,8.78Zm-5.86-1.33l-2.93-.67,2-8.78,2.93,.67-2,8.78Zm-5.86-1.33l-2.93-.67,1.99-8.78,2.93,.67-2,8.78Zm-5.86-1.33l-2.93-.67,2-8.78,2.93,.67-2,8.78Zm-5.85-1.33l-2.93-.67,1.99-8.78,2.93,.66-1.99,8.78Zm-5.85-1.33l-2.93-.67,1.99-8.78,2.93,.66-1.99,8.78Zm-5.86-1.33l-2.93-.66,1.99-8.78,2.93,.67-1.99,8.78Zm-5.86-1.33l-2.93-.66,1.99-8.78,2.93,.66-1.99,8.78Zm-5.86-1.33l-2.93-.66,1.99-8.78,2.93,.66-1.99,8.78Zm-5.85-1.33l-2.93-.66,1.99-8.78,2.93,.66-1.99,8.78Zm-5.85-1.33l-2.93-.66,1.99-8.78,2.93,.66-1.98,8.78Zm-5.86-1.33l-2.93-.66,1.99-8.78,2.93,.66-1.99,8.78Zm-5.85-1.33l-2.93-.66,1.99-8.78,2.93,.66-1.99,8.78Zm-5.86-1.32l-2.93-.66,1.99-8.78,2.93,.66-1.99,8.78Zm-5.86-1.32l-2.93-.66,1.98-8.78,2.93,.66-1.99,8.78Zm-5.85-1.32l-2.93-.66,1.98-8.78,2.93,.66-1.98,8.78Zm-5.86-1.32l-2.92-.66,1.98-8.78,2.93,.66-1.99,8.78Zm-5.85-1.32l-2.93-.66,1.98-8.78,2.93,.66-1.98,8.78Zm-5.86-1.32l-2.94-.66,1.98-8.78,2.94,.66-1.98,8.78Zm-5.88-1.32l-2.93-.66,1.98-8.78,2.93,.66-1.98,8.78Zm-5.86-1.32l-2.93-.66,1.98-8.78,2.93,.66-1.98,8.78Zm-5.85-1.32l-2.92-.66,1.98-8.78,2.92,.66-1.98,8.78Zm-5.85-1.32l-2.93-.66,1.97-8.78,2.93,.66-1.97,8.78Zm-5.86-1.32l-2.93-.66,1.97-8.78,2.93,.66-1.98,8.78Zm-5.86-1.31l-2.93-.66,1.97-8.78,2.93,.66-1.97,8.78Zm-5.86-1.32l-2.92-.66,1.97-8.78,2.93,.66-1.98,8.78Zm-5.85-1.31l-2.93-.66,1.97-8.78,2.93,.66-1.97,8.78Zm-5.86-1.31l-2.93-.66,1.96-8.78,2.93,.66-1.97,8.78Zm-5.86-1.31l-2.93-.65,1.96-8.78,2.93,.65-1.96,8.78Zm-5.86-1.31l-2.93-.65,1.96-8.78,2.93,.65-1.96,8.78Zm-5.86-1.31l-2.93-.65,1.96-8.78,2.93,.65-1.96,8.78Zm-5.86-1.31l-2.93-.65,1.96-8.79,2.93,.65-1.96,8.78Zm-5.86-1.3l-2.93-.65,1.95-8.79,2.93,.65-1.95,8.79Zm-5.86-1.3l-2.93-.65,1.95-8.79,2.93,.65-1.95,8.79Zm-5.86-1.3l-2.93-.65,1.94-8.79,2.94,.65-1.95,8.79Zm-5.86-1.3l-2.93-.65,1.94-8.79,2.93,.65-1.94,8.79Zm-5.86-1.29l-2.93-.65,1.93-8.79,2.93,.65-1.94,8.79Zm-5.86-1.29l-2.93-.64,1.93-8.79,2.94,.64-1.93,8.79Zm-5.86-1.29l-2.93-.64,1.92-8.79,2.94,.64-1.92,8.79Zm-5.87-1.28l-2.93-.64,1.91-8.79,2.94,.64-1.92,8.79Zm-5.87-1.27l-2.93-.63,1.9-8.8,2.94,.64-1.91,8.8Zm-5.87-1.27l-2.93-.63,1.88-8.8,2.94,.63-1.89,8.8Zm-5.87-1.25l-2.93-.62,1.85-8.81,2.95,.62-1.87,8.8Zm-5.87-1.24l-2.94-.61,1.82-8.81,2.96,.61-1.83,8.81Zm-5.87-1.21c-1.06-.21-2.04-.41-2.93-.58l1.73-8.83c.91,.18,1.9,.38,2.98,.59l-1.78,8.82Zm-5.82-1.13c-.95-.17-1.92-.34-2.9-.5l1.48-8.88c1.02,.17,2.02,.34,3.02,.53l-1.61,8.86Zm-5.8-.97c-.96-.15-1.94-.29-2.92-.43l1.26-8.91c1.01,.14,2.02,.29,3.02,.45l-1.36,8.9Zm-5.85-.83c-.97-.13-1.95-.25-2.93-.37l1.08-8.94c1.01,.12,2.02,.25,3.02,.38l-1.17,8.92Zm-5.87-.71c-.98-.11-1.96-.21-2.95-.32l.92-8.95c1.01,.1,2.02,.21,3.02,.32l-1,8.94Zm-5.9-.61c-.98-.09-1.97-.18-2.96-.27l.78-8.97c1.01,.09,2.02,.18,3.03,.28l-.85,8.96Zm-5.92-.52c-.99-.08-1.98-.16-2.97-.23l.67-8.98c1.01,.08,2.02,.15,3.02,.23l-.72,8.97Zm-5.93-.44c-.99-.07-1.98-.13-2.97-.19l.56-8.98c1,.06,2.01,.13,3.02,.2l-.61,8.98Zm-5.94-.37c-.99-.06-1.98-.11-2.97-.16l.46-8.99c1,.05,2.01,.11,3.02,.16l-.51,8.99Zm-5.94-.3c-1-.05-1.99-.09-2.98-.13l.37-8.99c1,.04,2.01,.09,3.02,.13l-.42,8.99Zm-5.95-.25c-1-.04-1.99-.07-2.98-.1l.29-9c1,.03,2.01,.07,3.02,.1l-.33,8.99Zm-50.68-.13l-.34-8.99s1.08-.04,3.05-.1l.25,9c-1.9,.05-2.94,.09-2.95,.09Zm44.72-.06c-1-.03-2-.05-2.98-.08l.21-9c1,.02,2.01,.05,3.02,.08l-.25,9Zm-38.79-.11l-.2-9c.92-.02,1.92-.04,3.02-.06l.17,9c-1.08,.02-2.08,.04-2.98,.06Zm32.82-.04c-1.01-.02-2-.04-2.98-.05l.14-9c.99,.02,2,.03,3.02,.05l-.18,9Zm-26.86-.07l-.13-9c.96-.01,1.97-.03,3.02-.04l.09,9c-1.04,.01-2.04,.02-2.98,.04Zm20.89-.02c-1.01-.01-2.01-.02-2.99-.03l.08-9c.99,0,2,.02,3.02,.03l-.11,9Zm-14.92-.04l-.06-9c.98,0,1.98-.01,3.02-.01l.03,9c-1.02,0-2.02,0-2.98,.01Zm8.95,0h-2.99s0-9.01,0-9.01h3.02s-.04,9.01-.04,9.01Z"/><path class="cls-5" d="M904.31,553.28c-.81-.55-1.62-1.09-2.45-1.63l4.56-8.22c.87,.57,1.73,1.14,2.57,1.72l-4.69,8.14Zm-4.92-3.22c-.83-.52-1.66-1.04-2.5-1.55l4.33-8.37c.88,.54,1.75,1.08,2.61,1.62l-4.44,8.3Zm-5.03-3.07c-.84-.5-1.69-.99-2.55-1.48l4.11-8.5c.89,.51,1.78,1.02,2.65,1.54l-4.22,8.44Zm-5.11-2.92c-.86-.47-1.72-.94-2.58-1.41l3.92-8.6c.9,.48,1.79,.97,2.68,1.46l-4.02,8.55Zm-5.19-2.79c-.87-.45-1.74-.9-2.62-1.35l3.74-8.7c.91,.46,1.81,.92,2.71,1.39l-3.83,8.65Zm-5.25-2.67c-.88-.43-1.76-.86-2.65-1.29l3.57-8.78c.92,.44,1.83,.88,2.73,1.33l-3.65,8.74Zm-5.31-2.55c-.89-.42-1.78-.83-2.67-1.24l3.42-8.85c.92,.42,1.84,.84,2.75,1.27l-3.5,8.82Zm-5.36-2.44c-.9-.4-1.79-.79-2.7-1.19l3.28-8.91c.93,.4,1.85,.81,2.76,1.22l-3.35,8.89Zm-5.41-2.35c-.9-.38-1.81-.76-2.72-1.14l3.15-8.97c.93,.39,1.86,.77,2.78,1.17l-3.21,8.94Zm-5.44-2.26c-.91-.37-1.82-.73-2.74-1.1l3.03-9.02c.93,.37,1.87,.74,2.79,1.12l-3.08,9Zm-5.48-2.17c-.91-.35-1.83-.71-2.75-1.05l2.91-9.06c.94,.36,1.87,.71,2.81,1.08l-2.97,9.04Zm-5.51-2.09c-.92-.34-1.84-.68-2.77-1.02l2.81-9.1c.94,.34,1.88,.69,2.81,1.03l-2.85,9.09Zm-5.54-2.02c-.92-.33-1.85-.66-2.78-.98l2.7-9.14c.94,.33,1.89,.66,2.83,1l-2.75,9.12Zm-5.56-1.94c-.93-.32-1.86-.63-2.79-.95l2.61-9.17c.95,.32,1.89,.64,2.84,.96l-2.66,9.15Zm-5.58-1.88c-.93-.31-1.87-.61-2.8-.91l2.52-9.2c.95,.31,1.9,.62,2.84,.93l-2.56,9.19Zm-5.6-1.81c-.94-.3-1.87-.59-2.81-.88l2.44-9.23c.95,.3,1.9,.59,2.85,.9l-2.48,9.22Zm-5.62-1.75c-.94-.29-1.88-.57-2.82-.85l2.35-9.25c.95,.29,1.91,.57,2.86,.87l-2.39,9.24Zm-5.64-1.69c-.94-.28-1.88-.55-2.83-.83l2.28-9.28c.96,.28,1.91,.56,2.87,.84l-2.32,9.26Zm-5.67-1.64c-.95-.27-1.89-.54-2.84-.8l2.2-9.3c.96,.27,1.92,.54,2.88,.81l-2.24,9.29Zm-5.68-1.59c-.95-.26-1.9-.52-2.84-.78l2.13-9.32c.96,.26,1.92,.52,2.88,.78l-2.17,9.31Zm-5.69-1.54l-2.85-.75,2.07-9.33c.96,.25,1.92,.5,2.87,.76l-2.1,9.33Zm-5.69-1.49l-2.85-.73,2-9.35,2.87,.73-2.03,9.34Zm-5.69-1.44l-2.86-.71,1.94-9.36,2.89,.71-1.97,9.36Zm-5.72-1.4l-2.86-.68,1.88-9.38,2.89,.69-1.91,9.37Zm-5.73-1.36l-2.87-.66,1.82-9.39,2.9,.67-1.85,9.39Zm-5.74-1.32l-2.88-.64,1.77-9.4,2.9,.65-1.79,9.4Zm-5.75-1.28l-2.88-.62,1.72-9.42,2.9,.63-1.74,9.41Zm-5.76-1.24l-2.88-.61,1.67-9.43,2.91,.61-1.69,9.42Zm-5.76-1.2l-2.88-.59,1.61-9.44,2.91,.59-1.64,9.43Zm-5.77-1.17l-2.89-.57,1.57-9.45,2.91,.57-1.59,9.44Zm-5.78-1.13l-2.89-.55,1.52-9.46,2.91,.56-1.54,9.45Zm-5.78-1.1l-2.9-.54,1.47-9.47,2.92,.54-1.49,9.46Zm-5.79-1.06l-2.9-.52,1.43-9.47,2.92,.52-1.45,9.47Zm-5.8-1.03l-2.9-.5,1.38-9.48,2.92,.51-1.41,9.48Zm-5.8-1l-2.91-.49,1.34-9.49,2.92,.49-1.35,9.49Zm-5.81-.97l-2.9-.47,1.29-9.5,2.93,.47-1.32,9.49Zm-5.81-.93l-2.91-.46,1.25-9.5,2.93,.46-1.27,9.5Zm-5.82-.9l-2.91-.44,1.21-9.51,2.93,.44-1.23,9.51Zm-5.82-.87l-2.91-.42,1.16-9.52,2.93,.43-1.19,9.51Zm-5.82-.84l-2.91-.41,1.12-9.52,2.93,.41-1.14,9.52Zm-5.83-.81l-2.92-.39,1.08-9.53,2.94,.39-1.09,9.53Zm-5.83-.78l-2.92-.38,1.03-9.53,2.94,.38-1.05,9.53Zm-5.84-.74l-2.92-.36,.98-9.54,2.94,.36-1,9.54Zm-5.84-.71l-2.92-.34,.93-9.55,2.95,.34-.96,9.54Zm-5.84-.67c-1.07-.12-2.04-.22-2.93-.32l.86-9.55c.89,.1,1.88,.2,2.96,.32l-.9,9.55Zm-5.85-.62c-1.9-.19-2.91-.28-2.93-.29l.73-9.57s1.05,.09,3.01,.29l-.82,9.56Z"/><path class="cls-5" d="M527.26,738.92c-1-.14-2.02-.29-3.04-.46l1.41-8.89c.97,.15,1.94,.3,2.89,.43l-1.26,8.91Zm-6.07-.96c-1-.17-2-.36-3.02-.55l1.69-8.84c.97,.19,1.93,.36,2.88,.53l-1.55,8.86Zm-6.02-1.15c-.99-.2-1.99-.42-2.99-.64l1.93-8.79c.97,.21,1.93,.42,2.88,.61l-1.82,8.81Zm-5.97-1.31c-.98-.23-1.97-.47-2.97-.71l2.15-8.74c.96,.24,1.92,.47,2.86,.69l-2.05,8.76Zm-5.93-1.46c-.97-.25-1.96-.51-2.95-.78l2.35-8.69c.96,.26,1.91,.51,2.85,.75l-2.25,8.71Zm-5.88-1.59c-.97-.27-1.94-.55-2.93-.84l2.52-8.64c.95,.28,1.9,.55,2.84,.81l-2.44,8.66Zm-5.84-1.7c-.96-.29-1.93-.59-2.91-.89l2.68-8.59c.95,.3,1.89,.59,2.83,.87l-2.6,8.62Zm-5.8-1.81c-.95-.31-1.92-.62-2.89-.94l2.82-8.55c.95,.31,1.89,.62,2.82,.92l-2.75,8.57Zm-5.77-1.9c-.95-.32-1.9-.65-2.87-.98l2.95-8.5c.94,.33,1.88,.65,2.81,.96l-2.89,8.52Zm-5.73-1.98c-.94-.33-1.89-.67-2.85-1.02l3.06-8.46c.94,.34,1.87,.67,2.8,1l-3.01,8.48Zm-5.69-2.06c-.94-.35-1.88-.7-2.84-1.05l3.16-8.43c.94,.35,1.86,.7,2.79,1.04l-3.11,8.45Zm-5.67-2.13c-.93-.36-1.87-.72-2.82-1.09l3.26-8.39c.93,.36,1.86,.72,2.78,1.07l-3.21,8.41Zm-5.64-2.19c-.93-.37-1.87-.74-2.81-1.12l3.34-8.36c.93,.37,1.85,.74,2.77,1.1l-3.3,8.37Zm-5.61-2.24c-.93-.38-1.86-.76-2.8-1.14l3.42-8.32c.93,.38,1.84,.76,2.76,1.13l-3.38,8.34Zm-5.59-2.3c-.92-.38-1.85-.77-2.78-1.17l3.49-8.29c.92,.39,1.84,.77,2.75,1.15l-3.46,8.31Zm-5.56-2.34c-.92-.39-1.84-.79-2.77-1.19l3.56-8.27c.92,.4,1.83,.79,2.74,1.17l-3.53,8.28Zm-5.54-2.39c-.92-.4-1.84-.8-2.77-1.21l3.62-8.24c.92,.4,1.83,.8,2.73,1.19l-3.59,8.25Zm-5.52-2.43l-2.75-1.23,3.67-8.22,2.73,1.21-3.65,8.23Zm-5.5-2.46l-2.74-1.24,3.73-8.19,2.72,1.23-3.7,8.2Zm-5.48-2.49l-2.74-1.26,3.77-8.17,2.71,1.25-3.75,8.18Zm-5.47-2.53l-2.73-1.27,3.82-8.15,2.71,1.26-3.79,8.16Zm-5.46-2.55l-2.72-1.29,3.86-8.13,2.7,1.28-3.84,8.14Zm-5.44-2.58l-2.72-1.3,3.9-8.11,2.69,1.29-3.88,8.12Zm-5.43-2.61l-2.71-1.31,3.93-8.09,2.69,1.3-3.92,8.1Zm-5.41-2.63l-2.7-1.32,3.97-8.08,2.69,1.32-3.95,8.09Zm-5.42-2.67c-.91-.45-1.81-.91-2.71-1.37l4.1-8.01c.88,.45,1.76,.89,2.64,1.34l-4.03,8.05Zm-5.41-2.77c-.9-.47-1.79-.94-2.68-1.42l4.26-7.93c.87,.46,1.73,.93,2.61,1.38l-4.18,7.97Zm-5.35-2.87c-.89-.49-1.78-.98-2.66-1.48l4.4-7.85c.86,.48,1.72,.96,2.59,1.44l-4.33,7.89Zm-5.31-2.97c-.88-.5-1.76-1.01-2.63-1.52l4.54-7.77c.85,.5,1.71,.99,2.57,1.48l-4.47,7.81Zm-5.25-3.07c-.87-.52-1.74-1.04-2.6-1.57l4.67-7.69c.84,.51,1.69,1.02,2.54,1.53l-4.61,7.73Zm-5.19-3.15c-.86-.53-1.72-1.07-2.58-1.61l4.8-7.62c.83,.52,1.67,1.05,2.51,1.57l-4.73,7.66Zm-5.14-3.24c-.85-.55-1.7-1.1-2.55-1.65l4.91-7.54c.83,.54,1.66,1.08,2.49,1.61l-4.86,7.58Zm-5.08-3.31c-.85-.56-1.69-1.12-2.53-1.69l5.03-7.46c.82,.55,1.64,1.1,2.47,1.65l-4.97,7.5Zm-5.03-3.39c-.84-.57-1.67-1.15-2.5-1.72l5.14-7.39c.81,.56,1.62,1.12,2.44,1.68l-5.08,7.43Zm-4.98-3.46c-.83-.59-1.65-1.17-2.47-1.76l5.24-7.32c.8,.57,1.61,1.15,2.42,1.72l-5.19,7.35Zm-4.93-3.53c-.82-.6-1.64-1.2-2.45-1.79l5.34-7.24c.79,.58,1.59,1.17,2.39,1.75l-5.29,7.28Zm-4.88-3.6c-.81-.61-1.62-1.22-2.42-1.82l5.44-7.17c.78,.59,1.57,1.19,2.37,1.79l-5.39,7.21Zm-4.83-3.66c-.81-.62-1.61-1.24-2.4-1.86l5.53-7.1c.77,.6,1.56,1.21,2.35,1.82l-5.48,7.14Zm-4.78-3.73c-.8-.63-1.59-1.26-2.37-1.89l5.62-7.03c.77,.61,1.54,1.23,2.33,1.85l-5.58,7.06Zm-4.73-3.79c-.79-.64-1.57-1.28-2.35-1.92l5.71-6.96c.76,.62,1.53,1.25,2.3,1.88l-5.67,6.99Zm-4.68-3.84c-.78-.65-1.56-1.3-2.32-1.94l5.8-6.88c.75,.63,1.51,1.27,2.28,1.91l-5.75,6.92Zm-4.63-3.9c-.78-.66-1.55-1.32-2.3-1.97l5.88-6.81c.74,.64,1.49,1.28,2.26,1.94l-5.84,6.85Zm-4.59-3.96c-.77-.67-1.53-1.34-2.27-2l5.96-6.74c.73,.65,1.48,1.3,2.23,1.97l-5.93,6.77Zm-4.54-4.02c-.77-.69-1.52-1.36-2.25-2.03l6.05-6.67c.72,.65,1.46,1.32,2.21,1.99l-6.01,6.7Zm-4.49-4.07c-.76-.7-1.5-1.39-2.23-2.06l6.13-6.59c.71,.66,1.44,1.33,2.18,2.02l-6.09,6.63Zm-4.44-4.13c-.76-.72-1.49-1.41-2.2-2.09l6.22-6.5c.69,.66,1.41,1.35,2.16,2.05l-6.18,6.55Zm-4.39-4.19c-.76-.74-1.49-1.45-2.17-2.12l6.32-6.41c.67,.66,1.38,1.35,2.12,2.08l-6.27,6.46Zm-4.33-4.26c-.78-.78-1.5-1.51-2.14-2.16l6.42-6.31c.63,.64,1.33,1.34,2.09,2.11l-6.36,6.36Zm-4.28-4.36c-1.41-1.47-2.15-2.27-2.15-2.27l6.63-6.08s.71,.77,2,2.12l-6.49,6.24Z"/></g><g id="Monaco_Detailed"><g id="Legend"><circle cx="60.04" cy="238.7" r="13"/><g><path d="M84.54,237.87v-2.36h8.94v2.36h-8.94Zm0,4.02v-2.38h8.94v2.38h-8.94Z"/><path d="M106.03,245.04h-3.47v-10.02h-3.14v-2.84h9.75v2.84h-3.13v10.02Z"/><path d="M121.94,232.18v7.74c0,1.08-.21,2.02-.62,2.81-.41,.79-1.03,1.41-1.85,1.84-.82,.43-1.85,.65-3.09,.65-1.77,0-3.12-.45-4.06-1.36-.93-.91-1.4-2.19-1.4-3.85v-7.82h3.49v7.55c0,.91,.17,1.57,.51,1.98,.34,.41,.84,.62,1.5,.62,.47,0,.86-.09,1.16-.27s.52-.46,.66-.85c.14-.39,.21-.89,.21-1.5v-7.53h3.47Z"/><path d="M128.85,232.18c1.17,0,2.14,.14,2.91,.43,.77,.28,1.36,.71,1.75,1.27,.39,.56,.58,1.26,.58,2.1,0,.52-.09,1-.26,1.43s-.43,.81-.75,1.15c-.33,.34-.71,.63-1.17,.88l3.75,5.6h-3.94l-2.73-4.68h-.88v4.68h-3.47v-12.86h4.21Zm-.05,2.63h-.69v2.94h.65c.53,0,.97-.12,1.31-.35,.34-.23,.51-.65,.51-1.26,0-.42-.14-.74-.42-.98s-.74-.35-1.36-.35Z"/><path d="M149.08,245.04h-4.56l-4.7-9.06h-.08c.03,.28,.06,.61,.08,.99s.04,.78,.06,1.18,.03,.76,.03,1.09v5.8h-3.08v-12.86h4.54l4.68,8.94h.05c-.02-.28-.04-.61-.05-.98-.02-.37-.03-.75-.05-1.13-.01-.38-.02-.72-.02-1.01v-5.81h3.1v12.86Z"/><path d="M168.78,245.04h-4.56l-4.7-9.06h-.08c.03,.28,.06,.61,.08,.99s.04,.78,.06,1.18,.03,.76,.03,1.09v5.8h-3.08v-12.86h4.54l4.68,8.94h.05c-.02-.28-.04-.61-.05-.98-.02-.37-.03-.75-.05-1.13-.01-.38-.02-.72-.02-1.01v-5.81h3.1v12.86Z"/><path d="M182.49,232.18v7.74c0,1.08-.21,2.02-.62,2.81-.41,.79-1.03,1.41-1.85,1.84-.82,.43-1.85,.65-3.09,.65-1.77,0-3.12-.45-4.06-1.36-.93-.91-1.4-2.19-1.4-3.85v-7.82h3.49v7.55c0,.91,.17,1.57,.51,1.98,.34,.41,.84,.62,1.5,.62,.47,0,.86-.09,1.16-.27s.52-.46,.66-.85c.14-.39,.21-.89,.21-1.5v-7.53h3.47Z"/><path d="M190.8,245.04l-2.63-9.26h-.08c.02,.24,.05,.57,.07,.98,.03,.41,.05,.85,.08,1.33s.04,.93,.04,1.37v5.59h-3.08v-12.86h4.63l2.68,9.13h.07l2.63-9.13h4.64v12.86h-3.19v-5.64c0-.4,0-.84,.02-1.31s.03-.91,.05-1.32c.02-.41,.04-.74,.06-.98h-.08l-2.59,9.25h-3.31Z"/><path d="M202.61,232.18h4.49c1.86,0,3.18,.28,3.98,.83,.79,.55,1.19,1.34,1.19,2.38,0,.56-.1,1.04-.3,1.43-.2,.39-.46,.7-.77,.93-.31,.23-.62,.38-.95,.47v.09c.35,.09,.7,.23,1.05,.44s.64,.5,.87,.91c.23,.4,.35,.95,.35,1.63,0,.78-.2,1.45-.59,2.01-.4,.56-.96,1-1.69,1.3-.73,.3-1.6,.45-2.61,.45h-5.01v-12.86Zm3.47,4.93h1.05c.58,0,.98-.12,1.21-.36,.23-.24,.35-.53,.35-.87s-.13-.62-.4-.8c-.27-.19-.68-.28-1.24-.28h-.98v2.3Zm0,2.54v2.7h1.22c.6,0,1.03-.13,1.27-.39,.24-.26,.36-.59,.36-.98,0-.23-.05-.44-.15-.65-.1-.2-.28-.37-.52-.49s-.59-.19-1.02-.19h-1.15Z"/><path d="M222.39,245.04h-7.64v-12.86h7.64v2.79h-4.16v2.02h3.85v2.79h-3.85v2.43h4.16v2.83Z"/><path d="M228.85,232.18c1.17,0,2.14,.14,2.91,.43,.77,.28,1.36,.71,1.75,1.27,.39,.56,.58,1.26,.58,2.1,0,.52-.09,1-.26,1.43s-.43,.81-.75,1.15c-.33,.34-.71,.63-1.17,.88l3.75,5.6h-3.94l-2.73-4.68h-.88v4.68h-3.47v-12.86h4.21Zm-.05,2.63h-.69v2.94h.65c.53,0,.97-.12,1.31-.35,.34-.23,.51-.65,.51-1.26,0-.42-.14-.74-.42-.98s-.74-.35-1.36-.35Z"/><path d="M245.24,241.13c0,.7-.18,1.36-.53,1.98s-.9,1.13-1.64,1.52c-.74,.39-1.7,.58-2.87,.58-.59,0-1.1-.03-1.54-.08-.44-.05-.85-.14-1.24-.26-.38-.12-.78-.28-1.19-.47v-3.1c.7,.35,1.4,.62,2.11,.8,.71,.18,1.35,.28,1.93,.28,.35,0,.63-.04,.85-.12,.22-.08,.38-.19,.49-.34,.11-.14,.16-.31,.16-.5,0-.22-.08-.41-.23-.57s-.4-.32-.74-.49c-.34-.17-.79-.38-1.35-.63-.47-.22-.9-.45-1.29-.69-.38-.23-.71-.5-.99-.81-.27-.3-.48-.66-.63-1.06-.15-.4-.22-.88-.22-1.43,0-.83,.2-1.52,.61-2.08,.41-.56,.98-.98,1.71-1.26,.73-.28,1.57-.42,2.53-.42,.84,0,1.59,.09,2.26,.28,.67,.19,1.27,.4,1.81,.64l-1.06,2.68c-.55-.25-1.09-.45-1.63-.6-.53-.15-1.03-.22-1.49-.22-.3,0-.54,.04-.73,.11-.19,.07-.33,.17-.42,.29s-.14,.26-.14,.42c0,.2,.08,.38,.23,.54,.16,.16,.42,.33,.78,.51,.37,.19,.87,.42,1.5,.72,.63,.28,1.16,.58,1.6,.91,.44,.33,.78,.72,1.01,1.17,.23,.45,.35,1.02,.35,1.68Z"/></g><g><circle class="cls-5" cx="60.04" cy="158.7" r="13"/><path d="M60.04,172.7c-7.72,0-14-6.28-14-14s6.28-14,14-14,14,6.28,14,14-6.28,14-14,14Zm0-26c-6.62,0-12,5.38-12,12s5.38,12,12,12,12-5.38,12-12-5.38-12-12-12Z"/></g><g><path d="M84.54,157.87v-2.36h8.94v2.36h-8.94Zm0,4.02v-2.38h8.94v2.38h-8.94Z"/><path d="M111.28,158.33c0,1.5-.28,2.74-.84,3.73-.56,.99-1.34,1.73-2.35,2.23-1.01,.5-2.2,.74-3.57,.74h-4.16v-12.86h4.45c1.38,0,2.56,.24,3.52,.71s1.69,1.17,2.2,2.08c.5,.92,.75,2.04,.75,3.36Zm-3.61,.12c0-.78-.1-1.43-.31-1.94s-.52-.9-.94-1.15c-.42-.25-.94-.38-1.57-.38h-1.01v7.2h.77c1.06,0,1.83-.31,2.32-.92,.49-.61,.74-1.55,.74-2.81Z"/><path d="M117.8,152.18c1.17,0,2.14,.14,2.91,.43,.77,.28,1.36,.71,1.75,1.27,.39,.56,.58,1.26,.58,2.1,0,.52-.09,1-.26,1.43s-.43,.81-.75,1.15c-.33,.34-.71,.63-1.17,.88l3.75,5.6h-3.94l-2.73-4.68h-.88v4.68h-3.47v-12.86h4.21Zm-.05,2.63h-.69v2.94h.65c.53,0,.97-.12,1.31-.35,.34-.23,.51-.65,.51-1.26,0-.42-.14-.74-.42-.98s-.74-.35-1.36-.35Z"/><path d="M134.18,161.13c0,.7-.18,1.36-.53,1.98s-.9,1.13-1.64,1.52c-.74,.39-1.7,.58-2.87,.58-.59,0-1.1-.03-1.54-.08-.44-.05-.85-.14-1.24-.26-.38-.12-.78-.28-1.19-.47v-3.1c.7,.35,1.4,.62,2.11,.8,.71,.18,1.35,.28,1.93,.28,.35,0,.63-.04,.85-.12,.22-.08,.38-.19,.49-.34,.11-.14,.16-.31,.16-.5,0-.22-.08-.41-.23-.57s-.4-.32-.74-.49c-.34-.17-.79-.38-1.35-.63-.47-.22-.9-.45-1.29-.69-.38-.23-.71-.5-.99-.81-.27-.3-.48-.66-.63-1.06-.15-.4-.22-.88-.22-1.43,0-.83,.2-1.52,.61-2.08,.41-.56,.98-.98,1.71-1.26,.73-.28,1.57-.42,2.53-.42,.84,0,1.59,.09,2.26,.28,.67,.19,1.27,.4,1.81,.64l-1.06,2.68c-.55-.25-1.09-.45-1.63-.6-.53-.15-1.03-.22-1.49-.22-.3,0-.54,.04-.73,.11-.19,.07-.33,.17-.42,.29s-.14,.26-.14,.42c0,.2,.08,.38,.23,.54,.16,.16,.42,.33,.78,.51,.37,.19,.87,.42,1.5,.72,.63,.28,1.16,.58,1.6,.91,.44,.33,.78,.72,1.01,1.17,.23,.45,.35,1.02,.35,1.68Z"/><path d="M151.77,158.33c0,1.5-.28,2.74-.84,3.73-.56,.99-1.34,1.73-2.35,2.23-1.01,.5-2.2,.74-3.57,.74h-4.16v-12.86h4.45c1.38,0,2.56,.24,3.52,.71s1.69,1.17,2.2,2.08c.5,.92,.75,2.04,.75,3.36Zm-3.61,.12c0-.78-.1-1.43-.31-1.94s-.52-.9-.94-1.15c-.42-.25-.94-.38-1.57-.38h-1.01v7.2h.77c1.06,0,1.83-.31,2.32-.92,.49-.61,.74-1.55,.74-2.81Z"/><path d="M161.71,165.04h-7.64v-12.86h7.64v2.79h-4.16v2.02h3.85v2.79h-3.85v2.43h4.16v2.83Z"/><path d="M169.63,165.04h-3.47v-10.02h-3.14v-2.84h9.75v2.84h-3.13v10.02Z"/><path d="M182.24,165.04h-7.64v-12.86h7.64v2.79h-4.16v2.02h3.85v2.79h-3.85v2.43h4.16v2.83Z"/><path d="M190.22,154.84c-.41,0-.78,.09-1.1,.26s-.6,.42-.83,.75c-.23,.33-.4,.73-.52,1.2-.12,.47-.18,1.01-.18,1.61,0,.81,.1,1.49,.31,2.04,.21,.55,.52,.97,.94,1.25,.42,.28,.95,.42,1.58,.42,.58,0,1.13-.08,1.66-.24,.53-.16,1.07-.35,1.61-.57v2.94c-.57,.25-1.15,.43-1.75,.55-.59,.11-1.23,.17-1.9,.17-1.4,0-2.54-.28-3.43-.83-.89-.55-1.54-1.32-1.96-2.31-.42-.99-.63-2.13-.63-3.43,0-.97,.14-1.86,.41-2.67,.27-.81,.67-1.51,1.2-2.11,.53-.6,1.18-1.06,1.96-1.38,.78-.33,1.67-.49,2.67-.49,.62,0,1.28,.07,1.97,.22,.69,.14,1.36,.37,2.02,.69l-1.06,2.74c-.47-.22-.94-.41-1.42-.56-.48-.15-.99-.23-1.53-.23Z"/><path d="M201.86,165.04h-3.47v-10.02h-3.14v-2.84h9.75v2.84h-3.13v10.02Z"/><path d="M206.83,165.04v-12.86h3.49v12.86h-3.49Z"/><path d="M225.13,158.59c0,.99-.12,1.89-.36,2.7-.24,.81-.61,1.51-1.11,2.1-.5,.59-1.15,1.04-1.94,1.35-.79,.31-1.74,.47-2.84,.47s-2.01-.16-2.8-.47c-.79-.31-1.44-.76-1.95-1.35-.51-.58-.89-1.28-1.13-2.1-.25-.81-.37-1.72-.37-2.73,0-1.34,.22-2.5,.66-3.49,.44-.99,1.13-1.75,2.05-2.3s2.11-.81,3.55-.81,2.66,.27,3.58,.82,1.59,1.31,2.02,2.3c.43,.99,.64,2.15,.64,3.49Zm-8.85,0c0,.77,.09,1.44,.26,2s.46,.99,.84,1.28c.38,.3,.88,.45,1.5,.45s1.15-.15,1.53-.45c.38-.3,.65-.73,.82-1.28s.25-1.22,.25-2c0-1.16-.19-2.08-.58-2.75s-1.05-1.01-2-1.01c-.63,0-1.13,.15-1.52,.46-.38,.31-.66,.74-.83,1.3s-.26,1.23-.26,2.01Z"/><path d="M239.7,165.04h-4.56l-4.7-9.06h-.08c.03,.28,.06,.61,.08,.99s.04,.78,.06,1.18,.03,.76,.03,1.09v5.8h-3.08v-12.86h4.54l4.68,8.94h.05c-.02-.28-.04-.61-.05-.98-.02-.37-.03-.75-.05-1.13-.01-.38-.02-.72-.02-1.01v-5.81h3.1v12.86Z"/><path d="M256.32,165.04h-10.02v-2.15l5.57-7.91h-5.44v-2.81h9.75v2.14l-5.57,7.92h5.71v2.81Z"/><path d="M270.2,158.59c0,.99-.12,1.89-.36,2.7-.24,.81-.61,1.51-1.11,2.1-.5,.59-1.15,1.04-1.94,1.35-.79,.31-1.74,.47-2.84,.47s-2.01-.16-2.8-.47c-.79-.31-1.44-.76-1.95-1.35-.51-.58-.89-1.28-1.13-2.1-.25-.81-.37-1.72-.37-2.73,0-1.34,.22-2.5,.66-3.49,.44-.99,1.13-1.75,2.05-2.3s2.11-.81,3.55-.81,2.66,.27,3.58,.82,1.59,1.31,2.02,2.3c.43,.99,.64,2.15,.64,3.49Zm-8.85,0c0,.77,.09,1.44,.26,2s.46,.99,.84,1.28c.38,.3,.88,.45,1.5,.45s1.15-.15,1.53-.45c.38-.3,.65-.73,.82-1.28s.25-1.22,.25-2c0-1.16-.19-2.08-.58-2.75s-1.05-1.01-2-1.01c-.63,0-1.13,.15-1.52,.46-.38,.31-.66,.74-.83,1.3s-.26,1.23-.26,2.01Z"/><path d="M284.76,165.04h-4.56l-4.7-9.06h-.08c.03,.28,.06,.61,.08,.99s.04,.78,.06,1.18,.03,.76,.03,1.09v5.8h-3.08v-12.86h4.54l4.68,8.94h.05c-.02-.28-.04-.61-.05-.98-.02-.37-.03-.75-.05-1.13-.01-.38-.02-.72-.02-1.01v-5.81h3.1v12.86Z"/><path d="M295.18,165.04h-7.64v-12.86h7.64v2.79h-4.16v2.02h3.85v2.79h-3.85v2.43h4.16v2.83Z"/></g><g><path d="M84.54,196.87v-2.36h8.94v2.36h-8.94Zm0,4.02v-2.38h8.94v2.38h-8.94Z"/><path d="M111.28,197.33c0,1.5-.28,2.74-.84,3.73-.56,.99-1.34,1.73-2.35,2.23-1.01,.5-2.2,.74-3.57,.74h-4.16v-12.86h4.45c1.38,0,2.56,.24,3.52,.71s1.69,1.17,2.2,2.08c.5,.92,.75,2.04,.75,3.36Zm-3.61,.12c0-.78-.1-1.43-.31-1.94s-.52-.9-.94-1.15c-.42-.25-.94-.38-1.57-.38h-1.01v7.2h.77c1.06,0,1.83-.31,2.32-.92,.49-.61,.74-1.55,.74-2.81Z"/><path d="M117.8,191.18c1.17,0,2.14,.14,2.91,.43,.77,.28,1.36,.71,1.75,1.27,.39,.56,.58,1.26,.58,2.1,0,.52-.09,1-.26,1.43s-.43,.81-.75,1.15c-.33,.34-.71,.63-1.17,.88l3.75,5.6h-3.94l-2.73-4.68h-.88v4.68h-3.47v-12.86h4.21Zm-.05,2.63h-.69v2.94h.65c.53,0,.97-.12,1.31-.35,.34-.23,.51-.65,.51-1.26,0-.42-.14-.74-.42-.98s-.74-.35-1.36-.35Z"/><path d="M134.18,200.13c0,.7-.18,1.36-.53,1.98s-.9,1.13-1.64,1.52c-.74,.39-1.7,.58-2.87,.58-.59,0-1.1-.03-1.54-.08-.44-.05-.85-.14-1.24-.26-.38-.12-.78-.28-1.19-.47v-3.1c.7,.35,1.4,.62,2.11,.8,.71,.18,1.35,.28,1.93,.28,.35,0,.63-.04,.85-.12,.22-.08,.38-.19,.49-.34,.11-.14,.16-.31,.16-.5,0-.22-.08-.41-.23-.57s-.4-.32-.74-.49c-.34-.17-.79-.38-1.35-.63-.47-.22-.9-.45-1.29-.69-.38-.23-.71-.5-.99-.81-.27-.3-.48-.66-.63-1.06-.15-.4-.22-.88-.22-1.43,0-.83,.2-1.52,.61-2.08,.41-.56,.98-.98,1.71-1.26,.73-.28,1.57-.42,2.53-.42,.84,0,1.59,.09,2.26,.28,.67,.19,1.27,.4,1.81,.64l-1.06,2.68c-.55-.25-1.09-.45-1.63-.6-.53-.15-1.03-.22-1.49-.22-.3,0-.54,.04-.73,.11-.19,.07-.33,.17-.42,.29s-.14,.26-.14,.42c0,.2,.08,.38,.23,.54,.16,.16,.42,.33,.78,.51,.37,.19,.87,.42,1.5,.72,.63,.28,1.16,.58,1.6,.91,.44,.33,.78,.72,1.01,1.17,.23,.45,.35,1.02,.35,1.68Z"/><path d="M150.02,204.04h-10.02v-2.15l5.57-7.91h-5.44v-2.81h9.75v2.14l-5.57,7.92h5.71v2.81Z"/><path d="M163.89,197.59c0,.99-.12,1.89-.36,2.7-.24,.81-.61,1.51-1.11,2.1-.5,.59-1.15,1.04-1.94,1.35-.79,.31-1.74,.47-2.84,.47s-2.01-.16-2.8-.47c-.79-.31-1.44-.76-1.95-1.35-.51-.58-.89-1.28-1.13-2.1-.25-.81-.37-1.72-.37-2.73,0-1.34,.22-2.5,.66-3.49,.44-.99,1.13-1.75,2.05-2.3s2.11-.81,3.55-.81,2.66,.27,3.58,.82,1.59,1.31,2.02,2.3c.43,.99,.64,2.15,.64,3.49Zm-8.85,0c0,.77,.09,1.44,.26,2s.46,.99,.84,1.28c.38,.3,.88,.45,1.5,.45s1.15-.15,1.53-.45c.38-.3,.65-.73,.82-1.28s.25-1.22,.25-2c0-1.16-.19-2.08-.58-2.75s-1.05-1.01-2-1.01c-.63,0-1.13,.15-1.52,.46-.38,.31-.66,.74-.83,1.3s-.26,1.23-.26,2.01Z"/><path d="M178.46,204.04h-4.56l-4.7-9.06h-.08c.03,.28,.06,.61,.08,.99s.04,.78,.06,1.18,.03,.76,.03,1.09v5.8h-3.08v-12.86h4.54l4.68,8.94h.05c-.02-.28-.04-.61-.05-.98-.02-.37-.03-.75-.05-1.13-.01-.38-.02-.72-.02-1.01v-5.81h3.1v12.86Z"/><path d="M188.87,204.04h-7.64v-12.86h7.64v2.79h-4.16v2.02h3.85v2.79h-3.85v2.43h4.16v2.83Z"/><path d="M199.53,200.13c0,.7-.18,1.36-.53,1.98s-.9,1.13-1.64,1.52c-.74,.39-1.7,.58-2.87,.58-.59,0-1.1-.03-1.54-.08-.44-.05-.85-.14-1.24-.26-.38-.12-.78-.28-1.19-.47v-3.1c.7,.35,1.4,.62,2.11,.8,.71,.18,1.35,.28,1.93,.28,.35,0,.63-.04,.85-.12,.22-.08,.38-.19,.49-.34,.11-.14,.16-.31,.16-.5,0-.22-.08-.41-.23-.57s-.4-.32-.74-.49c-.34-.17-.79-.38-1.35-.63-.47-.22-.9-.45-1.29-.69-.38-.23-.71-.5-.99-.81-.27-.3-.48-.66-.63-1.06-.15-.4-.22-.88-.22-1.43,0-.83,.2-1.52,.61-2.08,.41-.56,.98-.98,1.71-1.26,.73-.28,1.57-.42,2.53-.42,.84,0,1.59,.09,2.26,.28,.67,.19,1.27,.4,1.81,.64l-1.06,2.68c-.55-.25-1.09-.45-1.63-.6-.53-.15-1.03-.22-1.49-.22-.3,0-.54,.04-.73,.11-.19,.07-.33,.17-.42,.29s-.14,.26-.14,.42c0,.2,.08,.38,.23,.54,.16,.16,.42,.33,.78,.51,.37,.19,.87,.42,1.5,.72,.63,.28,1.16,.58,1.6,.91,.44,.33,.78,.72,1.01,1.17,.23,.45,.35,1.02,.35,1.68Z"/></g><path class="cls-5" d="M73.04,209.7h-2.5v-23h2.5v23Zm-5.5,0h-3v-23h3v23Zm-6,0h-3v-23h3v23Zm-6,0h-3v-23h3v23Zm-6,0h-3v-23h3v23Z"/><g><path class="cls-1" d="M59.52,237.47c0,.84-.07,1.59-.2,2.26s-.35,1.23-.64,1.69-.68,.82-1.17,1.06c-.48,.24-1.08,.37-1.78,.37-.88,0-1.59-.21-2.15-.64-.56-.43-.97-1.04-1.24-1.84-.26-.8-.4-1.76-.4-2.89s.12-2.1,.36-2.91c.24-.81,.64-1.42,1.19-1.85,.55-.43,1.3-.65,2.23-.65,.88,0,1.59,.21,2.15,.64,.56,.43,.97,1.04,1.24,1.85,.27,.81,.4,1.78,.4,2.92Zm-4.75,0c0,.68,.02,1.26,.08,1.72,.05,.46,.15,.81,.29,1.04,.14,.23,.34,.35,.61,.35s.46-.12,.6-.35,.23-.58,.29-1.04,.08-1.04,.08-1.72-.03-1.27-.08-1.74-.15-.81-.29-1.05-.34-.35-.6-.35-.46,.12-.61,.35c-.14,.24-.24,.59-.29,1.05-.05,.46-.08,1.04-.08,1.74Z"/><path class="cls-1" d="M66.79,242.7h-2.88v-5.71c0-.26,0-.54,.01-.85,0-.31,.02-.59,.03-.84-.12,.15-.24,.27-.35,.38-.11,.11-.21,.2-.31,.29l-1.19,.98-1.47-1.81,3.6-2.93h2.55v10.48Z"/></g></g></g></svg>