<?xml version="1.0" encoding="UTF-8"?><svg id="Hungaroring_Simple" xmlns="http://www.w3.org/2000/svg" viewBox="0 0 1000 1000"><defs><style>.cls-1{fill:#fae44a;}.cls-2{fill:#db4a25;}.cls-3,.cls-4{fill:#1bce20;}.cls-5{fill:#75e5fd;}.cls-4{stroke:#000;stroke-miterlimit:10;stroke-width:2px;}</style></defs><path d="M932.06,224.08c-5.32-7.98-12.17-14.08-20.37-18.12-8.16-4.02-17.76-6.06-28.53-6.06-20.75,0-39.18,7.93-39.96,8.27l-.09,.04c-.64,.32-16,8.45-59.87,69.86-8.85,12.41-15.73,22.12-20.46,28.85l-2.5,5.02-.12,.28c-.32,1.01-8.19,24.67-39.61,24.67-.63,0-1.25-.01-1.89-.03-6.18-.19-13.06-.28-20.45-.28-17.63,0-33.7,.55-41.71,.88-5.77,.24-11.5,.89-17.06,1.95l-86.93,16.47-152.86,32.97h-.05c-2.3,.22-56.42,5.31-67.38,23.25-10,16.36-36.64,75.11-41.88,86.72l-.2,.47c-.57,1.5-9.85,25.08-27.29,25.08-.13,0-13.41-.08-20.79-6.89-5.38-4.96-7.71-15.42-6.91-31.1,1.67-32.48,1.24-113.99,1.07-138.2-.04-4.67,.14-9.49,.53-14.71,1.44-18.29,1.9-66.04-24.66-114.35-31.07-56.49-56.22-71.55-58.95-73.06-.14-.08-.27-.15-.41-.21l-.13-.05c-1.9-.66-8.78-2.84-17.25-2.84-32.18,0-40.17,29.03-41.2,53.38-2.97,70.27,.96,109.68,.99,110.01v353.92h26.13l9.66-.27c.14-.38,.22-.79,.22-1.22V304.76c0-.11,0-.24-.03-.4l-.15-1.59c-.04-.37-3.68-37.93-.85-104.9,.53-12.44,2.98-17.4,3.89-18.83,.56-.07,2.12-.12,3.76,.11,6.17,4.98,22.46,20.39,42.77,57.32,22.43,40.78,21.24,82.42,20.34,94.21-.48,6.11-.7,12.08-.66,17.75,.17,23.96,.6,104.58-1.02,136.12-1.3,25.24,4.37,44.7,16.85,57.83,7.23,7.61,16.81,12.84,27.01,14.74,1.05,.19,2.09,.39,3.12,.62,4.25,.98,12.06,2.63,16.67,2.63,19.01,0,36.57-9.7,49.44-27.31,6.15-8.42,9.79-16.72,11.04-19.82,9.2-20.44,22.54-49.2,31.63-67.36,4.18-8.35,11.78-14.4,20.85-16.61,2.01-.49,4.23-.98,6.63-1.46,9.5-1.92,17.9-2.84,20.23-3.08l2.11-.19,.43-.07,154.44-33.3,84.79-16.07,1.71-.33c3.83-.72,7.8-1.17,11.8-1.34,9.48-.39,24.15-.85,40.26-.85,6.73,0,13.25,.09,19.39,.26,.98,.03,1.98,.05,2.95,.05,29.29,0,47.64-12.78,57.88-23.5,8.74-9.16,13.21-18.67,15.11-23.6l.06-.1c4.65-6.64,11.02-15.62,18.94-26.7,14.41-20.18,26.99-36.33,37.39-48.01,8.47-9.52,20.47-15.01,32.93-15.08h.3c13.53,0,17.19,5.5,18.94,8.14,7.19,10.78,11.22,32.58,11.06,59.8-.13,22.09-2.93,40.92-3.48,44.45l-.21,1.26c-4.57,33.44-11.44,79.72-15.83,102.81-1.02-.1-2.07-.24-3.15-.43-2.28-.4-4.61-.6-6.92-.6-12.48,0-24.42,5.94-31.96,15.89-18.31,24.24-61.66,81.64-68.68,91.26-3.96,5.46-7.12,11.24-9.41,17.18-6.02,15.64-4.4,33.58,4.34,47.98l14.06,23.17s.02,.04,.03,.06l.95,1.31c1.04,1.47,6.49,9.31,11.64,19.06,8.61,16.31,8.71,23.2,8.71,23.49v.04c-.08,.93-.36,3.2-3.71,5.02-3.99,2.18-7.48,4.22-10.67,6.23-48.55,30.57-86.36,53.72-94.08,57.58-.9,.44-1.79,.91-2.7,1.4-23.25,12.55-40.47,33.67-48.48,59.47-7.2,23.15-20.6,65.61-29.35,89.83-3.87,10.71-20.94,13.77-26.29,14.47-.74-.03-13.47-.73-28.77-1.58-53.72-2.95-231.83-12.78-268.13-15.25-3.43-.23-6.31-.69-8.58-1.35l2.56-43.53,10.2-112.12c.02-.24,.02-.46,0-.64l-.21-2.66c-.2-2.72-1.19-12.43-5.25-23.02-8.62-22.39-26.62-35.76-48.14-35.76s-38.7,12.6-48,33.7c-4.54,10.35-5.93,19.9-6.25,22.57l-.23,1.9-.02,.34v105.27c0,8.44-2.05,16.48-5.93,23.26-6.09,10.63-13.67,14.97-26.16,14.97-.27,0-.54,0-.86-.01-16.34-.27-22.78-6.59-26.2-11.32-3.78-5.22-5.34-10.96-5.86-13.27v-.11s-.99-113.95-.99-113.95v-73.25c0-.33-.05-.66-.14-.96h-35.66c-.13,.36-.2,.74-.2,1.14v73.24l1,116.8c0,.17,0,.32,.03,.43,.32,2.45,2.36,15.34,10.74,28.25,12.22,18.82,31.3,28.58,56.71,29,.48,.01,.95,.01,1.43,.01,31.55,0,48.49-17.76,57.15-32.66,7.16-12.32,10.94-26.69,10.94-41.56v-103.27c.18-1.45,3.31-24.52,18.5-24.52s17.33,23.58,17.5,25.45l-10.01,110.07-2.98,50.93c-.03,.39-.6,9.77,6.89,18.38,7.21,8.28,19.17,13.05,35.56,14.17,32.54,2.22,181.92,10.5,268.07,15.25l11.87,.65c11.52,.64,18.75,1.04,19.93,1.1h.37c2.13-.14,13.37-1.08,25.85-6.09,16.66-6.69,28.22-17.84,33.42-32.24,9.11-25.2,22.63-68.08,29.87-91.4,5.2-16.75,16.28-30.4,31.21-38.45,.55-.31,1.1-.58,1.68-.87,13.59-6.8,77.83-47.14,97.2-59.35,2.75-1.73,5.64-3.41,8.57-4.99,6.24-3.37,20.91-13.44,22.49-34.08,1.92-24.78-24.07-62.09-27.06-66.29l-13.45-22.15c-2.99-4.93-3.56-11.04-1.51-16.34,1.16-3.05,2.83-6.06,4.94-8.95,4.59-6.31,28.75-38.42,68.04-90.42l.23-.3c.77-1.02,1.95-1.61,3.24-1.61,.26,0,.5,.02,.72,.06,2.52,.45,7.61,1.2,13.41,1.2,15.85,0,25.68-5.57,28.44-16.11,5.94-22.77,18.87-117.1,18.99-117.98,.08-.45,4-23.84,4-52.15,0-26.76-3.51-57.92-17.07-78.27Zm13.03,80.61c-.2,26.94-3.86,48.92-3.91,49.2-.13,.95-13.03,95.04-18.91,117.58-2.84,10.84-14.93,13.12-24.57,13.12-5.49,0-10.32-.71-12.71-1.14-.45-.08-.93-.12-1.42-.12-2.56,0-4.91,1.17-6.44,3.2l-.22,.3c-39.3,52.01-63.48,84.14-68.09,90.47-2.31,3.18-4.15,6.5-5.44,9.87-2.48,6.44-1.8,13.87,1.83,19.86l13.45,22.15,.18,.26c10.46,14.71,27.78,44.66,26.32,63.65-1.44,18.67-14.75,27.8-20.41,30.86-3.01,1.62-5.97,3.34-8.81,5.13-19.32,12.18-83.42,52.44-96.85,59.15-.63,.31-1.22,.62-1.81,.94-15.83,8.54-27.59,23.02-33.11,40.78-7.23,23.28-20.73,66.09-29.81,91.22-4.87,13.49-15.35,23.55-31.15,29.88-11.98,4.81-23.04,5.71-24.56,5.81h-.02c-1.33-.07-8.51-.47-19.86-1.09l-11.84-.66h-.03c-86.14-4.74-235.5-13.03-268.01-15.25-15.3-1.04-26.34-5.34-32.82-12.8-6.42-7.37-5.95-15.14-5.92-15.49l2.98-50.89,9.99-109.93,.05-.3-.03-.37c-.1-1.28-.76-7.99-3.47-14.7-3.85-9.5-10.08-14.52-18.02-14.52-18.85,0-22.34,26.93-22.48,28.08l-.02,.22v103.49c0,14.16-3.6,27.84-10.4,39.56-8.13,13.98-24.04,30.66-53.69,30.66-.45,0-.89,0-1.36-.01-24-.4-41.98-9.54-53.42-27.18-7.9-12.16-9.86-24.6-10.13-26.53v-.02l-1-116.77v-72.71l28-.18v72.76l.98,114.09,.09,.72c.54,2.5,2.28,8.95,6.54,14.84,3.92,5.43,11.24,12.68,29.34,12.98,.34,.01,.64,.01,.96,.01,13.76,0,22.9-5.24,29.64-16.99,4.22-7.38,6.45-16.11,6.45-25.24v-105.12l.23-1.91c.3-2.54,1.62-11.6,5.93-21.44,8.64-19.61,25.22-31.31,44.34-31.31s36.4,12.41,44.4,33.2c3.87,10.07,4.81,19.29,5.01,21.89l.2,2.63-10.2,112.18-2.75,46.75,2.62,.79c2.61,.81,5.93,1.36,9.86,1.64,36.32,2.46,214.39,12.29,268.16,15.25h.03c18.73,1.03,28.34,1.56,28.79,1.58l.36,.02,.31-.05c5.76-.74,24.92-4.18,29.58-17.08,8.78-24.29,22.2-66.82,29.41-90.01,7.7-24.79,24.24-45.08,46.55-57.13,.86-.45,1.71-.9,2.59-1.33,7.83-3.93,45.79-27.15,94.44-57.79,3.12-1.97,6.54-3.96,10.44-6.1,3.54-1.92,5.49-4.7,5.79-8.28v-.29c.01-1.33-.43-8.82-9.16-25.35-5.27-9.98-10.85-18-11.91-19.51l-.77-1.03-14.12-23.28c-8.1-13.35-9.61-29.97-4.02-44.46,2.16-5.62,5.16-11.09,8.91-16.27,6.99-9.59,50.33-66.97,68.63-91.19,6.78-8.96,17.54-14.31,28.77-14.31,2.08,0,4.18,.18,6.24,.54,1.34,.23,2.66,.41,3.92,.52h.05l.27,.02c1.69,0,3.13-1.2,3.43-2.84,4.4-22.99,11.35-69.76,15.94-103.42l.21-1.22c.56-3.6,3.4-22.69,3.53-45.07,.16-27.99-4.11-50.61-11.73-62.04-1.97-2.97-6.6-9.92-22.27-9.92h-.31c-13.6,.07-26.69,6.06-35.9,16.42-10.5,11.78-23.17,28.05-37.67,48.35-7.96,11.14-14.36,20.17-19.03,26.82l-.4,.75c-1.77,4.62-5.98,13.66-14.32,22.39-9.7,10.15-27.11,22.26-54.98,22.26-.93,0-1.89-.02-2.83-.05-6.18-.17-12.74-.26-19.51-.26-16.18,0-30.91,.46-40.42,.85-4.2,.18-8.36,.65-12.39,1.42l-86.54,16.4-152.57,32.9-1.84,.4-2.16,.2c-2.4,.24-10.96,1.19-20.65,3.14-2.44,.49-4.72,1-6.77,1.5-10.22,2.49-18.78,9.3-23.49,18.69-9.11,18.22-22.48,47.04-31.72,67.59-1.23,3.04-4.72,10.97-10.61,19.03-12.09,16.55-28.5,25.67-46.2,25.67-4.37,0-12.48-1.77-15.78-2.53-1.09-.25-2.19-.45-3.3-.66-9.36-1.74-18.17-6.55-24.82-13.56-11.69-12.3-16.99-30.76-15.75-54.87,1.62-31.64,1.19-112.36,1.02-136.34-.04-5.56,.18-11.42,.64-17.42,.93-12.07,2.15-54.7-20.82-96.44-20.78-37.79-37.61-53.58-43.9-58.63l-.73-.57-.93-.14c-2.05-.3-3.81-.33-5.31-.09l-1.49,.24-.86,1.25c-1.51,2.22-4.14,7.9-4.7,21.09-2.84,67.32,.83,105.17,.87,105.47l.16,1.64v353.46l-28,.17V306.36l-.02-.35c-.04-.39-3.94-39.55-.98-109.51,1.37-32.41,14.23-49.54,37.2-49.54,7.83,0,14.33,2.07,15.82,2.58,2.66,1.48,26.89,16,57.42,71.5,26.04,47.37,25.58,94.18,24.18,112.12-.41,5.34-.59,10.27-.55,15.05,.17,24.18,.6,105.6-1.07,137.97-.87,17.15,1.81,28.35,8.19,34.24,8.53,7.86,22.9,7.95,23.51,7.95,19.98,0,29.95-24.8,31.05-27.69l.09-.21c5.22-11.57,31.77-70.13,41.65-86.29,8.23-13.47,49.22-19.97,64.24-21.33h.21l153.21-33.06,84.6-16.02,2.29-.44c5.36-1.01,10.9-1.64,16.47-1.87,7.98-.33,23.99-.88,41.55-.88,7.35,0,14.19,.09,20.33,.28,.68,.02,1.34,.03,2.01,.03,33.34,0,42.56-24.87,43.38-27.3l2.22-4.5c4.71-6.72,11.56-16.38,20.35-28.7,41.92-58.67,57.59-68.14,58.37-68.58,1.23-.53,19.01-7.91,38.29-7.91,10.16,0,19.16,1.9,26.77,5.64,3.77,1.86,7.25,4.21,10.39,7.01,3.14,2.8,5.96,6.05,8.42,9.75,10.96,16.46,16.62,43.56,16.35,78.39Z"/><g id="Start_Line"><polygon points="77.92 648.02 89.03 658.65 86.42 661.39 78.04 653.37 70.02 661.75 67.29 659.13 77.92 648.02"/><polygon points="69.64 646.32 66.9 643.71 74.29 635.98 77.53 632.6 88.64 643.23 86.02 645.96 77.64 637.95 76.44 639.2 69.64 646.32"/><polygon points="69.25 630.91 66.51 628.29 68.05 626.67 77.15 617.18 88.25 627.82 85.64 630.55 77.25 622.53 70.22 629.9 69.25 630.91"/></g><polygon points="130.48 671.98 130.18 671.97 130.12 671.97 130.01 671.96 98.36 672.15 96.99 672.16 95.82 672.17 95.65 672.17 95.18 672.18 93.3 672.18 90.36 672.21 67.46 672.34 67.44 668.26 67.42 666.14 90.25 666 93.35 665.97 95.12 665.97 95.65 665.96 97.21 665.95 98.24 665.95 129.9 665.76 130.43 665.76 130.45 669.83 130.48 671.98"/><path class="cls-1" d="M569.09,925.19l-.14,2-2.02,27.92-.14,2c-70.11-3.86-233.9-12.92-268.04-15.25-41.88-2.85-40.68-29.28-40.6-30.41l2.99-50.95,10-110,.02-.13v-.13c-.1-1.11-2.32-27.38-19.51-27.38s-20.36,25.25-20.49,26.32v.09s0,103.38,0,103.38c0,14.51-3.69,28.54-10.67,40.56-8.39,14.44-24.81,31.66-55.42,31.66-.46,0-.92,0-1.39-.01-24.71-.41-43.24-9.86-55.07-28.09-8.38-12.9-10.24-25.9-10.44-27.42,0-.06,0-.11,0-.17l-1-116.82v-74.36h32v74.21l.98,114.09,.04,.31c.52,2.38,2.17,8.52,6.21,14.1,3.67,5.08,10.56,11.87,27.79,12.15,.31,.01,.59,.01,.89,.01,13.14,0,21.48-4.78,27.9-15.98,4.05-7.08,6.19-15.46,6.19-24.25v-105.19c0-.06,0-.12,0-.18l.23-1.9c.31-2.62,1.68-11.95,6.09-22.01,8.97-20.35,26.23-32.5,46.17-32.5s37.96,12.89,46.27,34.48c3.95,10.28,4.93,19.79,5.13,22.45l.21,2.67c.01,.09,.01,.17,0,.26l-10.2,112.16-2.66,45.17,1.13,.34c2.47,.77,5.64,1.29,9.4,1.55,34.61,2.35,200.5,11.53,268.16,15.25Z"/><path class="cls-2" d="M644.06,373.14l-84.78,16.06-152.57,32.9-1.93,.42c-.06,.01-.12,.02-.18,.03l-2.11,.19c-2.37,.24-10.84,1.17-20.45,3.11-2.43,.49-4.69,.99-6.7,1.48-9.65,2.35-17.73,8.79-22.17,17.65-9.11,18.21-22.45,46.96-31.66,67.44-1.26,3.12-4.85,11.26-10.84,19.46-12.48,17.08-29.47,26.49-47.82,26.49-4.58,0-12.85-1.8-16.22-2.58-1.07-.24-2.15-.44-3.23-.64-9.77-1.82-18.92-6.8-25.9-14.15-12.09-12.72-17.57-31.68-16.3-56.35,1.62-31.62,1.19-112.27,1.02-136.23-.04-5.64,.18-11.55,.65-17.58,.91-11.92,2.15-54.02-20.58-95.33-20.6-37.46-37.2-53.05-43.38-58.01l-.32-.25-.4-.06c-1.01-.15-1.97-.23-2.84-.23s-1.5,.08-1.87,.14l-.64,.1-.37,.54c-1.12,1.64-3.79,6.89-4.35,20.04-2.81,66.67,.82,104.85,.86,105.2l.16,1.64s.01,.1,.01,.14v354.02c0,.67-.44,1.23-1.04,1.42l-.44,.07-30.52,.18V306.21c-.05-.39-3.96-39.73-1-109.79,1.8-42.53,22.31-51.46,39.2-51.46,8.48,0,15.39,2.31,16.59,2.73,.07,.03,.13,.06,.2,.1,2.24,1.24,27.23,15.99,58.2,72.29,26.28,47.8,25.84,95.11,24.42,113.23-.4,5.24-.58,10.11-.54,14.89,.17,24.13,.61,105.39-1.07,138.08-.79,15.57,1.36,26.96,7.55,32.67,6.95,6.41,18.74,7.42,22.15,7.42,18.82,0,28.47-24.53,29.18-26.41,0-.02,0-.03,.02-.06,1.17-2.59,31.21-69.3,41.88-86.76,10.48-17.15,65.3-22.24,65.85-22.29h.1l153.05-33.02,84.59-16.02,6.54,31.33Z"/><path class="cls-5" d="M943.16,354.16c-.13,.95-13.05,95.17-18.96,117.82-3.16,12.08-16.15,14.61-26.5,14.61-5.6,0-10.59-.73-13.06-1.17-.34-.06-.7-.09-1.07-.09-1.93,0-3.69,.88-4.84,2.41-10.14,13.42-61.11,80.87-68.29,90.74-2.21,3.03-3.96,6.2-5.19,9.41-2.27,5.88-1.64,12.64,1.67,18.1l13.45,22.15,.07,.1c.28,.4,28.65,39.86,26.71,65-1.51,19.67-15.51,29.26-21.45,32.47-3.01,1.62-5.94,3.33-8.69,5.06-19.36,12.2-83.57,52.52-97.03,59.25-.6,.3-1.17,.59-1.75,.91-15.37,8.29-26.79,22.36-32.15,39.61-7.23,23.27-20.72,66.08-29.84,91.31-12.16,33.66-54.75,36.83-57.52,37.01h-.14c-1.54-.08-13.47-.74-31.79-1.75l2.3-31.92c17.4,.96,28.3,1.56,28.82,1.58h.14s.13,0,.13,0c5.48-.71,23.68-3.93,27.96-15.78,8.84-24.45,22.2-66.84,29.38-89.92,7.86-25.3,24.74-46,47.52-58.3,.88-.47,1.75-.93,2.63-1.36,7.81-3.91,45.7-27.1,94.27-57.69,3.17-2,6.63-4.02,10.56-6.17,4.4-2.38,4.66-5.63,4.75-6.69v-.12c0-.77-.25-7.96-8.94-24.42-5.69-10.77-11.75-19.24-11.81-19.33l-.78-1.05s-.05-.08-.07-.12l-14.08-23.21c-8.42-13.87-9.99-31.14-4.18-46.22,2.23-5.8,5.32-11.43,9.16-16.73,6.56-8.99,45.83-61.01,68.66-91.22,7.15-9.45,18.5-15.1,30.36-15.1,2.19,0,4.4,.19,6.58,.57,1.27,.22,2.54,.39,3.76,.5,.05,0,.09,0,.14,0,.71,0,1.34-.51,1.47-1.22,4.38-22.93,11.33-69.66,15.93-103.37l.2-1.2c.56-3.55,3.38-22.4,3.51-44.77,.16-27.61-3.99-49.81-11.39-60.92-1.95-2.93-6.03-9.03-20.61-9.03h-.3c-13.03,.07-25.58,5.81-34.42,15.75-10.43,11.71-23.06,27.92-37.53,48.18-7.95,11.13-14.35,20.15-19.02,26.81l-.17,.32c-1.82,4.74-6.14,14.04-14.74,23.05-9.97,10.44-27.85,22.88-56.43,22.88-.95,0-1.93-.02-2.89-.05-6.07-.17-12.61-.26-19.45-.26-16.05,0-30.79,.46-40.34,.85-4.08,.17-8.14,.63-12.09,1.38l-1.72,.33-6.54-31.33,2.3-.44c5.47-1.04,11.11-1.68,16.76-1.91,8.03-.33,24.12-.88,41.63-.88,7.23,0,14.09,.09,20.39,.28,.66,.02,1.3,.03,1.95,.03,32.91,0,41.18-24.99,41.52-26.06l2.35-4.76c4.23-6.03,10.68-15.14,20.45-28.84,43.9-61.45,59.03-69.18,59.13-69.23,0,0,18.59-8.1,39.16-8.1,10.52,0,19.75,1.96,27.65,5.85,7.89,3.89,14.44,9.71,19.59,17.44,27.34,41.02,12.92,128.04,12.76,128.97Z"/><path d="M931,267.87c-.89-13.82-5.32-32.79-21.44-44.61-9.7-7.11-18.95-8.2-19.27-8.24-1.14-.17-28.21-3.89-51.64,17.5-19.89,18.17-46.8,59.88-64.61,87.48-2.88,4.47-5.48,8.5-7.71,11.9-16.71,25.46-54.71,23.31-82.45,21.74-5.8-.33-11.28-.64-15.88-.64-20.58,0-48.14,5.33-66.38,8.85-5.74,1.11-10.69,2.07-13.95,2.56-2.63,.4-5.28,.91-7.86,1.5-23.01,5.27-139.93,31.92-183.14,39.12-42.78,7.13-45.12,10.46-52.06,20.36-.92,1.31-1.96,2.79-3.19,4.39-10.4,13.51-28.5,57.59-29.27,59.46l-.04,.11c-.13,.37-13.08,37.31-37.57,48.53-9.11,4.17-18.8,4.26-28.8,.26-32.47-12.99-29-56.31-27.33-77.13l.16-2.09c.62-7.96,3.21-122.35,2.43-155.97-.97-41.83-28.73-85.07-45.32-110.92l-2-3.11c-15.4-24.07-29.14-28.33-31.05-28.83-5.47-2.24-17.98-2.6-27.31,11.82-11.17,17.27-6.57,88.39-6.32,92.17l1,87.92v79l.5,93.5v135.84l4-.03v-135.82l-.5-93.5v-79.01l-1-88v-.11c-.05-.74-4.84-73.53,5.68-89.78,9.9-15.3,22.03-10.46,22.53-10.25l.36,.11c.13,.03,13.51,3.31,28.75,27.13l1.99,3.12c16.36,25.48,43.74,68.14,44.69,108.85,.8,34.24-1.96,149.79-2.42,155.55l-.16,2.09c-1.75,21.78-5.37,67.08,29.84,81.17,11.05,4.42,21.8,4.3,31.94-.34,25.79-11.81,38.89-48.57,39.67-50.81,.73-1.77,18.8-45.61,28.71-58.49,1.29-1.67,2.36-3.19,3.3-4.54,6.22-8.86,8.32-11.85,49.45-18.71,43.31-7.22,160.35-33.89,183.37-39.16,2.49-.57,5.04-1.06,7.57-1.44,3.34-.51,8.33-1.48,14.11-2.59,18.09-3.5,45.42-8.78,65.62-8.78,4.49,0,9.91,.31,15.65,.63,28.72,1.63,68.05,3.86,86.02-23.53,2.24-3.41,4.85-7.45,7.74-11.93,16.61-25.76,44.43-68.88,63.94-86.69,21.98-20.07,48.1-16.54,48.43-16.49,1.4,.16,34.37,4.46,37.22,49.14,2.92,45.63-3.73,104.39-3.98,106.58l-14.99,83.97c-.01,.06-1.09,6.28-5.33,8.77-2.25,1.33-5.12,1.38-8.53,.17-15.01-5.37-27.56,6.94-28.08,7.47l-.1,.09-71.01,94.02c-.79,.83-5.47,6.01-7.79,14.92-2.27,8.71-2.61,22.8,8.62,40.45,2.72,4.27,5.68,8.69,8.55,12.98,13.82,20.62,28.11,41.94,24.19,58.51-1.68,7.12-6.6,12.91-15.04,17.7-35.97,20.42-111.61,66.91-114.95,68.97-2.18,1.01-24.24,12.18-35.99,56.25-11.84,44.4-22.85,75.54-22.95,75.85l-.1,.4c-.01,.07-1.13,7.27-9.94,13.93-8.31,6.28-25.29,13.35-58.96,11.34-59.54-3.55-219.07-13.45-250.45-15.4-2.45-.16-4.92-.17-7.3-.19-2.46-.02-5.01-.04-7.47-.21l-1.93-.12c-13.34-.84-27.53-2.53-26.97-11.96,.75-12.82,5.53-83.18,7.55-112.84,.74-10.89,1.8-20.77,3.24-30.19,5.85-38.53-7.91-54.59-16.64-60.73-5.92-4.16-11.97-6.26-18.05-6.26-1.85,0-3.7,.2-5.54,.58-15.83,3.31-25.85,19.59-26.24,20.24-.38,.59-9.32,15.08-8.32,64.12,.17,8.22,.56,16.13,.94,23.78,1.86,37.65,3.32,67.39-24.12,87.57-32.14,23.63-59.22-4.55-60.36-5.76l-.09-.09c-.14-.13-14.37-14.01-14.37-49.54v-165.5h-4v165.5c0,36.81,14.5,51.38,15.59,52.42,1.01,1.05,16.16,16.27,37.05,16.27,8.72,0,18.44-2.65,28.54-10.08,29.19-21.46,27.67-52.14,25.75-90.99-.37-7.62-.76-15.5-.93-23.66-.97-47.45,7.6-61.75,7.71-61.92,.09-.16,9.57-15.5,23.68-18.45,6.81-1.41,13.69,.28,20.46,5.05,7.97,5.6,20.51,20.45,14.98,56.85-1.45,9.53-2.52,19.51-3.27,30.52-2.02,29.66-6.8,100.04-7.56,112.87-.83,14.2,19.69,15.49,30.72,16.19l1.9,.12c2.59,.18,5.2,.2,7.72,.22,2.33,.02,4.74,.03,7.09,.18,31.37,1.95,190.9,11.85,250.45,15.41,4.13,.24,8.02,.36,11.69,.36,54.94,0,60.88-25.9,61.38-28.87,.92-2.62,11.57-33.17,22.98-75.97,9.25-34.69,26.2-50.29,33.87-53.69l.25-.13c.78-.48,78.39-48.22,114.94-68.96,9.32-5.29,15.03-12.11,16.96-20.26,4.31-18.26-10.47-40.32-24.77-61.66-2.85-4.26-5.8-8.67-8.49-12.89-19.83-31.16-2.04-49.74-1.28-50.52l.1-.09,70.99-93.99c1.08-1.02,11.82-10.73,23.83-6.45,4.58,1.64,8.59,1.47,11.92-.49,5.86-3.47,7.17-11.24,7.22-11.54l15-84,.02-.12c.07-.6,6.98-60.72,4.01-107.36Z"/><path class="cls-3" d="M76.5,870.02l-.02-3,9-.05,.02,3-9,.05Zm-.03-6l-.02-3,9-.05,.02,3-9,.05Zm-.03-6l-.02-3,9-.05,.02,3-9,.05Zm-.03-6l-.02-3,9-.05,.02,3-9,.05Zm-.03-6l-.02-3,9-.05,.02,3-9,.05Zm-.03-6l-.02-3,9-.05,.02,3-9,.05Zm-.03-6l-.02-3,9-.05,.02,3-9,.05Zm-.03-6l-.02-3,9-.05,.02,3-9,.05Zm-.03-6l-.02-3,9-.05,.02,3-9,.05Zm-.03-6l-.02-3,9-.05,.02,3-9,.05Zm-.03-6l-.02-3,9-.05,.02,3-9,.05Zm-.03-6l-.02-3,9-.05,.02,3-9,.05Zm-.03-6l-.02-3,9-.05,.02,3-9,.05Zm-.03-6l-.02-3,9-.05,.02,3-9,.05Zm-.03-6l-.02-3,9-.05,.02,3-9,.05Zm-.03-6l-.02-3,9-.05,.02,3-9,.05Zm-.03-6l-.02-3,9-.05,.02,3-9,.05Zm-.03-6l-.02-3,9-.05,.02,3-9,.05Zm-.03-6l-.02-3,9-.05,.02,3-9,.05Zm-.03-6l-.02-3,9-.05,.02,3-9,.05Zm-.03-6l-.02-3,9-.05,.02,3-9,.05Zm-.03-6l-.02-3,9-.05,.02,3-9,.05Zm-.03-6l-.02-3,9-.05,.02,3-9,.05Zm-.03-6l-.02-3,9-.05,.02,3-9,.05Zm-.03-6l-.02-3,9-.05,.02,3-9,.05Zm-.03-6l-.02-3,9-.05,.02,3-9,.05Zm-.03-6l-.02-3,9-.05,.02,3-9,.05Zm-.03-6l-.02-3,9-.05,.02,3-9,.05Zm-.03-6l-.02-3,9-.05,.02,3-9,.05Zm-.03-6l-.02-3,9-.05,.02,3-9,.05Zm-.03-6l-.02-3,9-.05,.02,3-9,.05Zm-.03-6l-.02-3,9-.05,.02,3-9,.05Z"/><path class="cls-3" d="M86,611.5h-9v-3h9v3Zm0-6h-9v-3h9v3Zm0-6h-9v-3h9v3Zm0-6h-9v-3h9v3Zm0-6h-9v-3h9v3Zm0-6h-9v-3h9v3Zm0-6h-9v-3h9v3Zm0-6h-9v-3h9v3Zm0-6h-9v-3h9v3Zm0-6h-9v-3h9v3Zm0-6h-9v-3h9v3Zm0-6h-9v-3h9v3Zm0-6h-9v-3h9v3Zm0-6h-9v-3h9v3Zm0-6h-9v-3h9v3Zm0-6h-9v-3h9v3Zm0-6h-9v-3h9v3Zm0-6h-9v-3h9v3Zm0-6h-9v-3h9v3Zm0-6h-9v-3h9v3Zm0-6h-9v-3h9v3Zm0-6h-9v-3h9v3Zm0-6h-9v-3h9v3Zm0-6h-9v-3h9v3Zm0-6h-9v-3h9v3Zm0-6h-9v-3h9v3Zm0-6h-9v-3h9v3Zm0-6h-9v-3h9v3Zm0-6h-9v-3h9v3Zm0-6h-9v-3h9v3Zm0-6h-9v-3h9v3Zm0-6h-9v-3h9v3Zm0-6h-9v-3h9v3Zm0-6h-9v-3h9v3Zm0-6h-9v-3h9v3Zm0-6h-9v-3h9v3Zm0-6h-9v-3h9v3Zm0-6h-9v-3h9v3Zm0-6h-9v-3h9v3Zm0-6h-9v-3h9v3Zm0-6h-9v-3h9v3Zm0-6h-9v-3h9v3Zm0-6h-9v-3h9v3Zm0-6h-9v-3h9v3Zm0-6h-9v-3h9v3Zm0-6h-9v-3h9v3Zm0-6h-9v-3h9v3Zm0-6h-9v-3h9v3Zm0-6h-9v-3h9v3Zm0-6h-9v-3h9v3Zm0-6h-9v-3h9v3Zm0-6h-9v-3h9v3Zm0-6h-9v-3h9v3Zm0-6h-9v-3h9v3Zm0-6h-9v-3h9v3Zm0-6h-9v-3h9v3Zm0-6h-9v-3h9v3Zm0-6h-9v-3h9v3Zm0-6h-9v-3h9v3Zm0-6h-9v-3h9v3Zm0-6h-9v-3h9v3Zm0-6h-9v-3h9v3Zm0-6h-9v-3h9v3Zm0-6h-9v-3h9v3Zm0-6h-9v-3h9v3Zm0-6h-9v-3h9v3Zm0-6h-9v-3h9v3Zm0-6h-9v-3h9v3Zm0-6h-9v-3h9v3Zm0-6h-9v-3h9v3Zm0-6h-9v-3h9v3Zm0-6h-9v-3h9v3Z"/><path class="cls-3" d="M243.3,502.66c-1.32-1.34-1.31-2.68-1.29-4.23l.02-1.92,7.39,.08,.27-.27-.27,.27,1.61,.02-.03,2.9-4.48-.03-3.21,3.18Zm7.76-9.06l-9-.11,.03-2.91,4.5-.04,4.5,.13-.03,2.93Zm.06-6.02l-9-.09,.03-3,9,.08-.03,3.01Zm.06-6.02l-9-.07,.03-3.01,9,.08-.03,3Zm.05-6l-9-.09,.03-3,9,.08-.03,3.01Zm.05-6.01l-9-.08,.03-3,9,.08-.03,3Zm.05-6l-9-.08,.03-3,9,.08-.03,3Zm.05-6l-9-.08,.02-3,9,.07-.02,3.01Zm.05-6.01l-9-.07,.02-3,9,.07-.02,3Zm.05-6.01l-9-.06,.02-3,9,.07-.02,3Zm.04-6l-9-.07,.02-3,9,.06-.02,3.01Zm.04-6.01l-9-.06,.02-3,9,.06-.02,3Zm.04-6.01l-9-.05,.02-3.01,9,.06-.02,3Zm.04-6l-9-.06,.02-3,9,.05-.02,3.01Zm.04-6.01l-9-.05,.02-3,9,.05-.02,3Zm.03-6.01l-9-.04,.02-2.91,9-.04-.02,3Zm.03-6l-9-.05,.02-3,9,.04-.02,3.01Zm.03-6.01l-9-.04v-3s9.01,.04,9.01,.04v3Zm.01-6.01l-9-.04v-2.95s9.01-.02,9.01-.02v3Zm.01-6l-9-.04v-3s9.01,.04,9.01,.04v3.01Zm.01-6.01l-9-.04v-3s9.01,.04,9.01,.04v3Zm.01-6.01l-9-.03v-2.97s9.01,.04,9.01,.04v2.96Zm.01-6l-9-.04v-3s9.01,.03,9.01,.03v3.01Zm0-6.01l-9-.03v-3s9.01,.03,9.01,.03v3Zm0-6.01l-9-.02v-2.99s9.01,.03,9.01,.03v2.98Zm0-6l-9-.03v-3s9.01,.02,9.01,.02v3.01Zm0-6.01h-9s0-3,0-3l9,.02v2.99Zm0-6h-9s0-3.01,0-3.01h9s0,3.01,0,3.01Zm0-6h-9s0-3.01,0-3.01h9s0,3.01,0,3.01Zm0-6.01h-9v-3s9,0,9,0v2.99Zm0-6h-9s0-3,0-3h9v3Zm0-6h-9c0-.99,0-1.97-.02-2.94l9-.13c.01,1.02,.02,2.04,.02,3.07Zm-9.08-5.87c-.03-.98-.06-1.96-.11-2.94l8.99-.39c.04,1.02,.08,2.04,.11,3.06l-9,.26Zm-.25-5.87c-.06-.98-.12-1.95-.19-2.92l8.98-.65c.07,1.02,.14,2.04,.2,3.06l-8.98,.52Zm-.42-5.85c-.09-.98-.18-1.96-.28-2.93l8.95-.91c.1,1.01,.2,2.03,.29,3.05l-8.96,.79Zm-.59-5.84c-.11-.98-.23-1.95-.36-2.91l8.92-1.17c.13,1.01,.26,2.02,.38,3.04l-8.94,1.04Zm-.76-5.82c-.14-.97-.29-1.94-.45-2.9l8.89-1.43c.16,1,.32,2.01,.46,3.03l-8.9,1.3Zm-.93-5.8c-.17-.97-.35-1.93-.53-2.89l8.84-1.69c.19,1,.38,2,.55,3.01l-8.86,1.56Zm-1.1-5.77c-.2-.96-.4-1.92-.61-2.87l8.79-1.94c.22,1,.43,2,.64,3l-8.82,1.8Zm-1.26-5.72c-.23-.96-.46-1.91-.7-2.86l8.73-2.19c.25,.98,.49,1.98,.72,2.97l-8.76,2.07Zm-1.43-5.7c-.25-.95-.51-1.9-.78-2.83l8.66-2.44c.28,.98,.54,1.96,.81,2.95l-8.7,2.32Zm-1.59-5.65c-.28-.94-.57-1.88-.86-2.81l8.59-2.68c.3,.97,.6,1.95,.89,2.93l-8.63,2.56Zm-1.75-5.61c-.31-.94-.62-1.87-.94-2.79l8.52-2.91c.33,.96,.65,1.92,.97,2.9l-8.55,2.81Zm-1.91-5.56c-.33-.93-.67-1.85-1.01-2.76l8.43-3.15c.36,.95,.71,1.91,1.05,2.88l-8.47,3.03Zm-2.06-5.5c-.36-.92-.72-1.83-1.09-2.73l8.34-3.38c.38,.94,.76,1.89,1.13,2.84l-8.38,3.27Zm-2.21-5.45c-.38-.91-.77-1.81-1.16-2.7l8.25-3.6c.41,.93,.81,1.87,1.21,2.82l-8.3,3.49Zm-2.35-5.39c-.41-.9-.82-1.79-1.23-2.67l8.15-3.82c.43,.92,.86,1.84,1.28,2.78l-8.2,3.71Zm-2.5-5.32c-.43-.89-.86-1.77-1.3-2.64l8.05-4.03c.45,.91,.9,1.82,1.35,2.74l-8.1,3.93Zm-2.64-5.26c-.45-.88-.91-1.75-1.37-2.6l7.94-4.24c.48,.89,.95,1.8,1.42,2.71l-7.99,4.13Zm-2.77-5.19c-.48-.87-.96-1.72-1.44-2.57l7.83-4.44c.5,.88,1,1.77,1.49,2.67l-7.88,4.34Zm-2.91-5.12c-.5-.85-1-1.7-1.5-2.53l7.71-4.64c.52,.87,1.04,1.75,1.56,2.63l-7.77,4.54Zm-3.04-5.05c-.52-.84-1.04-1.67-1.56-2.49l7.59-4.84c.54,.85,1.09,1.72,1.63,2.6l-7.66,4.73Zm-3.16-4.96c-.54-.83-1.09-1.65-1.63-2.45l7.47-5.02c.56,.84,1.13,1.69,1.69,2.55l-7.53,4.93Zm-3.29-4.89c-.57-.82-1.13-1.62-1.69-2.41l7.34-5.21c.58,.82,1.17,1.65,1.75,2.5l-7.4,5.12Zm-3.41-4.8c-.59-.81-1.17-1.6-1.75-2.37l7.21-5.39c.6,.8,1.21,1.62,1.82,2.46l-7.27,5.3Zm-3.53-4.72c-.61-.79-1.21-1.57-1.81-2.32l7.06-5.58c.62,.79,1.25,1.59,1.88,2.42l-7.14,5.48Zm-3.64-4.62c-.63-.78-1.26-1.54-1.87-2.28l6.92-5.76c.64,.76,1.28,1.55,1.94,2.36l-6.99,5.67Zm-3.77-4.53c-.66-.77-1.3-1.51-1.93-2.22l6.76-5.95c.65,.74,1.32,1.51,2.01,2.32l-6.84,5.85Zm-3.89-4.41c-.69-.76-1.35-1.48-1.99-2.16l6.57-6.15c.67,.71,1.36,1.47,2.08,2.26l-6.67,6.04Zm-4.01-4.29c-.74-.77-1.42-1.46-2.05-2.09l6.36-6.37c.66,.66,1.39,1.4,2.17,2.2l-6.47,6.25Zm-4.13-4.12c-1.31-1.25-2.06-1.91-2.07-1.91l5.91-6.79s.89,.78,2.38,2.19l-6.22,6.51Z"/><circle class="cls-4" cx="216.44" cy="833.32" r="10"/></svg>