<?xml version="1.0" encoding="UTF-8"?><svg id="Imola_Simple" xmlns="http://www.w3.org/2000/svg" viewBox="0 0 1000 1000"><defs><style>.cls-1{fill:#fff;}.cls-2{fill:#fae44a;}.cls-3{fill:#db4a25;}.cls-4,.cls-5{fill:#1bce20;}.cls-6{fill:#75e5fd;}.cls-5{stroke:#000;stroke-miterlimit:10;stroke-width:2px;}</style></defs><path d="m964.6,315.2c-8.94-18.71-15.33-32.32-17.67-37.3l-.09-.2c-.46-1-1-1.98-1.64-2.99-8.17-12.88-22.22-20.57-37.58-20.57-7.16,0-14.5,1.64-21.82,4.86-18.43,8.11-56.02,23.65-71.33,29.96-8.02,3.31-15.82,6.89-23.17,10.65-9.73,4.98-35.49,16.66-64.56,17.72h-.12l.7,17.3.16,3.99.59,14.7-.54-14.7-.04-1.07-.11-2.92-.04-1.1-.53-14.2c29.44-1.07,55.45-12.85,65.4-17.94,7.28-3.72,15.02-7.28,23.02-10.58,19.25-7.93,54.11-22.38,71.38-29.98,5.1-2.24,10.03-3.62,14.73-4.26.86-.12,1.71-.21,2.55-.28,1.26-.1,2.5-.15,3.73-.15,1,0,1.99.03,2.97.1,1.46.1,2.9.27,4.3.51.94.15,1.86.34,2.77.56.77.19,1.54.39,2.29.62.57.17,1.13.35,1.69.54.73.25,1.46.53,2.17.83,1.37.55,2.7,1.18,3.98,1.87,1.17.63,2.3,1.31,3.39,2.03.72.48,1.43.98,2.12,1.51,1.38,1.04,2.68,2.16,3.9,3.34.31.29.61.6.9.9.3.31.59.61.87.92.57.62,1.12,1.25,1.64,1.89.53.65,1.03,1.31,1.52,1.98.48.67.94,1.35,1.38,2.04.57.9,1.07,1.8,1.52,2.77.74,1.58,7.52,16.08,17.77,37.51,7.07,14.78,5.28,26.27,2.53,33.3-5.11,13.09-16.17,18.9-19.8,20.5-3.94,1.91-35.57,17.26-49.88,23.94-10.83,5.05-19.45,10.76-22.2,12.65-4.72,4.74-28.85,29.07-55.11,57.05-26.42,33.22-69.75,60.18-74.62,63.15-.81.5-1.65.95-2.54,1.36-12.45,5.72-75.13,34.45-89.41,40.16-6.94,2.78-13.87,3.05-20.19,1.08-.52-.16-1.03-.34-1.53-.53-.38-.14-.75-.29-1.12-.45-.48-.2-.96-.42-1.44-.65-1.12-.55-2.21-1.17-3.28-1.87-.53-.35-1.06-.71-1.57-1.1-.78-.57-1.54-1.19-2.28-1.85-.49-.44-.98-.9-1.45-1.37-1.67-1.66-3.23-3.54-4.66-5.63l-40.04,1.57c-.63.03-2.39.12-5.08.25-.31.02-.63.03-.97.05-.96.05-2.02.1-3.18.15-.39.02-.79.04-1.2.06-1.1.06-2.28.11-3.52.17-.66.03-1.34.07-2.04.1-.07,0-.14.01-.21.01-.68.03-1.39.07-2.11.1-.82.04-1.66.08-2.52.12-.95.05-1.93.09-2.93.14-1.34.07-2.73.13-4.16.2-37.41,1.78-100.76,4.67-117.83,4.67-18.2,0-27.4-2.16-34.34-5.15-4.23,6.74-9.3,14.76-12.52,19.58-.01.03-.03.06-.05.08l2.93,8.8c.21.63.4,1.29.57,1.96l18.31,74.74c.22.9.39,1.79.51,2.69,5.2,39.28-5.14,60.43-19.44,89.71-1.03,2.1-2.09,4.27-3.17,6.51-9.01,18.57-26.63,29.2-49.61,29.92-.85.03-1.7.04-2.54.04-13.77,0-25.8-3.4-30.24-4.82-21.73-3.53-48.68-6.86-62.9-6.86-2.06,0-3.85.07-5.32.22-18.95,1.89-53.01,8.68-53.36,8.75l-.66.12-86.53,13.77c-7.09,2.34-15.02,3.81-22.96,3.81-13.95,0-27.96-4.54-37.6-16.93l-.1-.14c-10.58-13.88-11.65-31.11-2.94-47.25,5.22-9.67,12.48-16.29,14.22-17.81,1.59-1.43,14.94-13.48,30.08-27.19,17.71-16.04,37.86-34.33,44.45-40.48-.66-2.43-1.89-6.23-4.16-11.58-8.03-18.93-2.86-33.92-.84-38.5l14.86-39.94c1.93-5.45,34.43-97.06,44.67-123.84,7.28-26.48,17.63-38.99,20.65-42.2.94-1,1.93-1.85,2.99-2.59,12.49-8.69,35.57-23.66,50.21-26.59,2.49-.5,4.06-9.8,4.81-14.26,1.03-6.1,2.01-11.88,5.56-16.8,4-5.98,10.71-9.49,38.32-17.72,14.41-4.3,29.07-8.15,31.86-8.87,1.02-.27,2.09-.48,3.17-.61,8.65-1.1,84.01-10.6,114.02-12.53,10.14-.66,20.6-.51,31.15.21,1.98.13,3.97.29,5.95.46,5.97.52,11.94,1.21,17.89,2.03,1.98.27,3.96.55,5.94.85,15.81,2.4,31.35,5.59,45.85,8.81,30.61,6.81,48.31,8.34,51.65,8.59l1.04-.03c22.47-.55,74.89-1.83,112.19-2.69l-.02-2c-35.8.83-85.44,2.04-109.36,2.62l-2.86.07-.94.03c-3.52-.27-21.25-1.86-51.27-8.54-28.54-6.35-62-12.83-93.76-12.83-4.66,0-9.23.14-13.58.42-31.04,2-110.76,12.12-114.14,12.55-1.13.13-2.29.35-3.43.66-.15.03-16,4.13-31.92,8.88-27.09,8.08-34.84,11.71-39.39,18.5-3.81,5.3-4.82,11.28-5.89,17.61-1.55,9.2-2.7,11.99-3.41,12.67-15.01,3.08-38.24,18.14-50.78,26.87-1.21.84-2.29,1.77-3.31,2.86-3.07,3.27-13.67,16.02-21.09,42.95-10.54,27.57-44.32,122.84-44.66,123.79l-14.82,39.86c-1.96,4.46-7.54,20.26.85,40.03,1.92,4.54,3.07,7.91,3.74,10.17-5.98,5.55-20.61,18.87-43.53,39.63-15.15,13.71-28.54,25.8-30.08,27.18-2.09,1.83-9.37,8.6-14.64,18.35-9.1,16.86-7.97,34.86,3.09,49.39l.08.11.03.04.02.03c11.39,14.63,27.59,17.7,39.18,17.7,7.63,0,15.73-1.33,23.43-3.86l86.37-13.74.71-.13c.37-.08,34.35-6.85,53.2-8.73,1.37-.14,3.09-.21,5.12-.21,15.09,0,43.03,3.66,62.43,6.81,4.72,1.5,16.85,4.87,30.71,4.87.87,0,1.75-.01,2.6-.04,23.76-.75,42-11.77,51.35-31.05,1.08-2.24,2.14-4.4,3.17-6.5,14.46-29.62,24.9-50.99,19.62-90.85-.13-.97-.31-1.92-.55-2.91l-18.31-74.74c-.19-.75-.4-1.46-.61-2.11l-2.63-7.88c2.47-3.71,6.13-9.45,11.17-17.46,6.07,2.4,15.12,4.66,33.54,4.66,17.16,0,81.25-2.93,117.93-4.67h.06s.11-.01.11-.01c.08,0,.16-.01.23-.01,14.59-.69,25.43-1.23,27.52-1.33l38.93-1.53c6.85,9.48,16.31,14.69,26.76,14.69,4.16,0,8.37-.84,12.51-2.5,15.02-6.01,81.93-36.72,89.51-40.2.97-.45,1.87-.93,2.75-1.48,4.87-2.97,48.38-30,75.08-63.54,26.25-27.97,50.03-51.94,54.89-56.82,2.6-1.78,11.16-7.44,21.76-12.38,8.8-4.11,26.26-12.49,49.17-23.59l.7-.35c3.56-1.57,15.41-7.72,20.82-21.58,2.9-7.4,4.8-19.46-2.59-34.89Zm-155.99,18.24c6.42-3.29,13.27-6.43,20.34-9.35,15.54-6.4,53.68-22.17,72.17-30.31,2.51-1.11,4.72-1.67,6.56-1.67,2.23,0,3.86.79,5.11,2.49,2.38,5.07,8.68,18.48,17.53,36.98,1.39,2.92,1.49,4.18,1.42,4.67-.03.17-.04.26-.35.45l-.16.07-1.08.53-.04.03c-3.61,1.75-35.65,17.29-49.69,23.84-14.24,6.65-25.25,14.11-28.28,16.24-1.25.88-2.47,1.9-3.6,3.04-2.87,2.87-28.82,28.96-56.71,58.7-.5.54-.99,1.1-1.45,1.68-18.06,22.82-49.22,45.12-64.87,54.76-23.59,10.83-66.53,30.4-82.94,37.42-4.8-8.31-13.62-13.41-23.36-13.41-.35,0-.69,0-1.04.02l-45.46,1.78h-.21c-.37.03-12.17.62-28.4,1.39l-.71.03c-35.95,1.71-98.67,4.57-114.93,4.57s-19.56-1.81-22.76-3.56c-.87-.46-1.79-.95-2.74-1.43l-.31-.16c-3.74-1.83-7.73-2.76-11.85-2.76-9.36,0-17.91,4.77-22.89,12.76-4.3,6.91-12.13,19.42-16.26,25.61-9.67,14.5-7.1,25.13-4.65,30.24l3.2,9.58,18.06,73.73c3.61,28.08-2.59,40.78-16.17,68.57l-.89,1.84c-.77,1.56-1.55,3.15-2.34,4.79-2.2,4.56-6.1,9.27-18.33,9.64-.51.02-1.01.02-1.5.02-9.62,0-18.51-2.87-19.5-3.2-1.33-.45-2.74-.8-4.18-1.03-10.67-1.74-47.22-7.42-69.61-7.42-3.3,0-6.22.13-8.67.37-19.19,1.92-50.31,7.98-56.46,9.2l-86.9,13.83c-1.53.24-3.06.62-4.53,1.13-2.26.77-7.39,2.08-12.26,2.08-2.99,0-6.96-.51-8.91-2.92-4.52-6.11,5.12-14.94,6.24-15.92l.4-.35c1.3-1.17,15.37-13.88,31.44-28.44,17.35-15.69,38.06-34.51,44.42-40.46,9.04-5.93,13.44-16.33,11.22-26.56-.54-4.53-2.28-12.47-7.5-24.75-2.39-5.63-1.22-9.41-1-10.02.24-.53.45-1.04.65-1.59l15.01-40.34.1-.27c.03-.08.27-.76.7-1.97,10.43-29.36,35.59-99.98,43.88-121.58.32-.84.59-1.69.83-2.54,4.16-15.32,9.29-23.46,11.5-26.47,16.78-11.51,30.43-18.65,34.78-19.52,8.42-1.68,19.96-6.77,27.08-21.52,3.76-7.76,5.15-15.96,6.17-21.96v-.08c9.39-3.46,28.62-9.14,48.64-14.37,3.69-.47,82.06-10.37,111.11-12.24,3.55-.23,7.29-.35,11.13-.35,28.09,0,58.99,6.04,85.53,11.94,33.96,7.54,53.85,9.14,57.5,9.39.6.03,1.23.05,1.89.05h.51l1.49-.04,12.92-.32c25.38-.61,67.57-1.64,98.83-2.35l-.02-2c-37.25.84-89.4,2.13-111.78,2.67l-1.47.04c-.7.01-1.46,0-2.24-.05-3.59-.24-23.24-1.8-57.2-9.34-6.79-1.51-13.81-3.02-20.97-4.42-1.79-.36-3.58-.7-5.38-1.04-9.92-1.86-20.02-3.49-30.05-4.66-1.82-.21-3.64-.41-5.46-.59-12.14-1.2-24.09-1.65-35.36-.93-28.52,1.84-103.33,11.25-111.36,12.27-21.34,5.57-41.22,11.51-50.03,14.87-.07.39-.13.77-.19,1.13-1,5.89-2.36,13.97-6.01,21.51-6.76,14-17.69,18.84-25.67,20.43-4.64.93-18.65,8.23-35.8,20.02-2.02,2.69-7.6,11.13-12.02,27.4-.22.8-.48,1.59-.77,2.35-9.98,26.02-44.24,122.62-44.59,123.59l-.09.25-15.01,40.34c-.21.56-.41,1.04-.63,1.53-.24.63-1.76,5.04,1.01,11.56,5.21,12.27,6.87,20.04,7.37,24.3,1.84,8.34-1.01,18.52-10.49,24.65-5.99,5.62-26.36,24.13-44.52,40.56-15.93,14.43-30.14,27.27-31.4,28.4l-.43.37c-1.56,1.38-12.12,11.11-6.49,18.64,2.23,2.8,6.28,3.7,10.49,3.7,5.02,0,10.27-1.29,12.91-2.19,1.36-.47,2.77-.82,4.19-1.04l86.94-13.84c3.89-.77,36.55-7.2,56.31-9.18,2.48-.25,5.34-.36,8.47-.36,22.09,0,57.74,5.51,69.29,7.39,1.3.21,2.61.53,3.87.96,1.05.35,10.18,3.3,20.13,3.3.52,0,1.04,0,1.56-.02,13.37-.41,17.75-5.97,20.07-10.77,1.1-2.27,2.18-4.47,3.22-6.6,13.75-28.15,20.07-41.08,16.35-69.84l-18.11-73.92-3.26-9.77c-2.45-5.03-4.59-14.82,4.45-28.38,4.36-6.53,12.85-20.12,16.3-25.66,4.72-7.58,12.82-11.82,21.19-11.82,3.69,0,7.43.82,10.96,2.55l.3.15c.91.46,1.79.93,2.68,1.41,3.43,1.87,6.99,3.8,23.72,3.8s77.73-2.8,115.01-4.57c.53-.02,1.05-.05,1.57-.07,2.79-.13,5.42-.26,7.88-.38.45-.02.89-.04,1.33-.06,1.96-.09,3.8-.18,5.5-.27,1.72-.08,3.3-.16,4.71-.23.56-.03,1.08-.05,1.59-.08.58-.02,1.13-.05,1.64-.08.16,0,.32,0,.48-.02,2.74-.13,4.32-.21,4.45-.22h.17s45.46-1.79,45.46-1.79c3.86-.15,7.61.6,11.01,2.08.78.34,1.55.72,2.29,1.14.24.14.49.28.73.43.48.29.96.61,1.42.93,1.16.82,2.25,1.74,3.25,2.75.41.4.79.82,1.17,1.25,1.31,1.51,2.45,3.19,3.38,5.02.06.12.12.23.18.34,14.74-6.21,59.09-26.41,84.77-38.2,15.97-9.82,47.2-32.17,65.49-55.28.43-.54.88-1.06,1.35-1.56,28.05-29.91,53.81-55.8,56.66-58.66,1.03-1.03,2.15-1.98,3.34-2.81,2.99-2.1,13.88-9.49,27.98-16.07,14.71-6.86,49.41-23.71,49.76-23.88l1.08-.53h.01c1.49-.78,2.77-2.06,0-7.85-9.48-19.83-16.03-33.79-17.6-37.14-.2-.29-.42-.56-.64-.81-2.88-3.24-7.44-3.52-13.57-.82-17.59,7.74-52.73,22.3-72.12,30.29-7.15,2.95-14.04,6.12-20.49,9.42-14.87,7.61-44.74,20.38-79.63,21.66,0,0,.1.85.35,1.99,35.24-1.36,65.35-14.28,80.19-21.87Z"/><g id="Start_Line"><polygon points="699.08 369.23 710.1 357.43 713.01 360.13 704.71 369.04 713.6 377.35 710.9 380.25 699.08 369.23"/><polygon points="697.42 377.95 694.71 380.86 686.5 373.21 682.91 369.85 693.92 358.04 696.82 360.76 688.52 369.66 689.85 370.9 697.42 377.95"/><polygon points="681.24 378.57 678.52 381.48 676.81 379.88 666.72 370.46 677.74 358.66 680.64 361.36 672.34 370.27 680.17 377.56 681.24 378.57"/></g><polygon class="cls-1" points="712.96 333.89 712.96 333.91 712.92 333.91 712.96 333.89"/><g id="Layer_73"><polygon points="723.74 357.99 723.6 351.37 723.57 350.01 722.93 318.39 722.93 317.94 720.69 317.97 716.42 318.05 716.42 318.58 717.07 350.2 717.08 351.22 717.23 358.19 717.69 380.97 719.92 380.94 724.2 380.86 723.74 357.99"/><path class="cls-2" d="m965.33,349.36c-5.11,13.09-16.17,18.9-19.8,20.5-3.94,1.91-35.57,17.26-49.88,23.94-10.83,5.05-19.45,10.76-22.2,12.65-4.72,4.74-28.85,29.07-55.11,57.05-26.42,33.22-69.75,60.18-74.62,63.15-.81.5-1.65.95-2.54,1.36-12.45,5.72-75.13,34.45-89.41,40.16-14.25,5.71-28.46.85-37.52-12.37l-40.04,1.57c-1.78.09-12.7.63-27.92,1.35l-2.82-33.9c16.89-.8,28.78-1.39,29.15-1.41h.17s45.46-1.79,45.46-1.79c9.75-.37,18.86,4.95,23.25,13.6.06.12.12.23.18.34,14.74-6.21,59.09-26.41,84.77-38.2,15.97-9.82,47.2-32.17,65.49-55.28.43-.54.88-1.06,1.35-1.56,28.05-29.91,53.81-55.8,56.66-58.66,1.03-1.03,2.15-1.98,3.34-2.81,2.99-2.1,13.88-9.49,27.98-16.07,14.71-6.86,49.41-23.71,49.76-23.88l1.08-.53h.01c1.49-.78,2.77-2.06,0-7.85-9.48-19.83-16.03-33.79-17.6-37.14-2.82-3.99-7.6-4.54-14.21-1.63-17.59,7.74-52.73,22.3-72.12,30.29-7.15,2.95-14.04,6.12-20.49,9.42-14.87,7.61-44.74,20.38-79.63,21.66l-.58-15.77-.15-4.02-.53-14.2c29.44-1.07,55.45-12.85,65.4-17.94,7.28-3.72,15.02-7.28,23.02-10.58,19.25-7.93,54.11-22.38,71.38-29.98,25.6-11.27,47.03-.61,56.9,14.95.57.9,1.07,1.8,1.52,2.77.74,1.58,7.52,16.08,17.77,37.51,7.07,14.78,5.28,26.27,2.53,33.3Z"/><path class="cls-6" d="m546.67,558.7c-.12.01-.25.01-.38.02-37.41,1.78-100.76,4.67-117.83,4.67-18.2,0-27.4-2.16-34.34-5.15-4.23,6.74-9.3,14.76-12.52,19.58-.01.03-.03.06-.05.08l2.93,8.8c.21.63.4,1.29.57,1.96l18.31,74.74c.22.9.39,1.79.51,2.69,5.2,39.28-5.14,60.43-19.44,89.71-1.03,2.1-2.09,4.27-3.17,6.51-9.01,18.57-26.63,29.2-49.61,29.92-14.82.46-28.07-3.27-32.78-4.78-24.88-4.04-56.6-7.82-68.22-6.64-18.95,1.89-53.01,8.68-53.36,8.75l-.66.12-86.53,13.77c-7.09,2.34-15.02,3.81-22.96,3.81-13.95,0-27.96-4.54-37.6-16.93l-.1-.14c-10.58-13.88-11.65-31.11-2.94-47.25,5.22-9.67,12.48-16.29,14.22-17.81,1.59-1.43,14.94-13.48,30.08-27.19l23.95,24.17c-15.93,14.43-30.14,27.27-31.4,28.4l-.43.37c-1.56,1.38-12.12,11.11-6.49,18.64,4.88,6.13,18.54,3.17,23.4,1.51,1.36-.47,2.77-.82,4.19-1.04l86.94-13.84c3.89-.77,36.55-7.2,56.31-9.18,19.98-1.99,64.57,4.88,77.76,7.03,1.3.21,2.61.53,3.87.96,1.11.37,11.15,3.62,21.69,3.28,13.37-.41,17.75-5.97,20.07-10.77,1.1-2.27,2.18-4.47,3.22-6.6,13.75-28.15,20.07-41.08,16.35-69.84l-18.11-73.92-3.26-9.77c-2.45-5.03-4.59-14.82,4.45-28.38,4.36-6.53,12.85-20.12,16.3-25.66,6.8-10.93,20.63-14.91,32.15-9.27l.3.15c.91.46,1.79.93,2.68,1.41,3.43,1.87,6.99,3.8,23.72,3.8s77.73-2.8,115.01-4.57c.25-.01.49-.02.73-.03l2.47,33.91Z"/><path class="cls-3" d="m713.46,353.67c-37.25.84-89.4,2.13-111.78,2.67l-1.47.04c-.7.01-1.46,0-2.24-.05-3.59-.24-23.24-1.8-57.2-9.34-6.79-1.51-13.81-3.02-20.97-4.42-1.79-.36-3.58-.7-5.38-1.04-9.92-1.86-20.02-3.49-30.05-4.66-1.82-.21-3.64-.41-5.46-.59-12.14-1.2-24.09-1.65-35.36-.93-28.52,1.84-103.33,11.25-111.36,12.27-21.34,5.57-41.22,11.51-50.03,14.87-.07.39-.13.77-.19,1.13-1,5.89-2.36,13.97-6.01,21.51-6.76,14-17.69,18.84-25.67,20.43-4.64.93-18.65,8.23-35.8,20.02-2.02,2.69-7.6,11.13-12.02,27.4-.22.8-.48,1.59-.77,2.35-9.98,26.02-44.24,122.62-44.59,123.59l-.09.25-15.01,40.34c-.21.56-.41,1.04-.63,1.53-.24.63-1.76,5.04,1.01,11.56,5.21,12.27,6.87,20.04,7.37,24.3,1.84,8.34-1.01,18.52-10.49,24.65-5.99,5.62-26.36,24.13-44.52,40.56l-10.59-10.68-2.81-2.85-10.55-10.64c17.71-16.04,37.86-34.33,44.45-40.48-.66-2.43-1.89-6.23-4.16-11.58-8.03-18.93-2.86-33.92-.84-38.5l14.86-39.94c1.93-5.45,34.43-97.06,44.67-123.84,7.28-26.48,17.63-38.99,20.65-42.2.94-1,1.93-1.85,2.99-2.59,12.49-8.69,35.57-23.66,50.21-26.59,2.49-.5,4.06-9.8,4.81-14.26,1.03-6.1,2.01-11.88,5.56-16.8,4-5.98,10.71-9.49,38.32-17.72,14.41-4.3,29.07-8.15,31.86-8.87,1.02-.27,2.09-.48,3.17-.61,8.65-1.1,84.01-10.6,114.02-12.53,10.14-.66,20.6-.51,31.15.21,1.98.13,3.97.29,5.95.46,5.97.52,11.94,1.21,17.89,2.03,1.98.27,3.96.56,5.94.85,15.81,2.4,31.35,5.59,45.85,8.81,30.61,6.81,48.31,8.34,51.65,8.59l1.04-.03c22.47-.55,74.89-1.83,112.19-2.69l.19,15.33v.21s.15,3.78.15,3.78h-.1l.19,14.69Z"/></g><path d="m948.87,322.85c-9.55-19.96-16.06-33.84-17.83-37.62-.17-.38-.37-.74-.59-1.09-2.16-3.4-14.14-19.83-38.19-9.26-17.41,7.66-52.4,22.16-71.71,30.12-7.62,3.15-14.99,6.54-21.9,10.07-13.4,6.85-40.21,18.34-71.27,19.56h-.06l.16,3.99h.05c31.83-1.23,59.24-12.97,72.94-19.99,6.82-3.48,14.09-6.83,21.61-9.93,19.32-7.96,54.34-22.48,71.79-30.15,21.06-9.27,31.35,4.82,33.2,7.73.13.21.25.42.35.64,1.77,3.79,8.29,17.69,17.84,37.66,3.31,6.92,3.98,13.03,1.99,18.16-2.76,7.14-9.86,10.09-9.93,10.12l-.13.06c-.35.17-35.16,17.07-49.97,23.98-12.99,6.07-22.97,12.83-25.72,14.76-.48.34-.91.71-1.33,1.12-2.83,2.84-28.44,28.58-56.35,58.34-.18.19-.35.39-.51.59-24.36,30.78-65.3,56.25-69.89,59.06-.19.11-.38.22-.59.31-3.02,1.39-73.92,33.94-88.51,39.78-8.42,3.36-13.67-2.78-16.59-8.53-1.74-3.43-5.39-5.57-9.29-5.4l-45.47,1.79c-.37.02-11.82.59-28.23,1.37-37.31,1.76-100.23,4.63-116.67,4.63-20.54,0-26.04-2.99-30.88-5.62-.74-.4-1.47-.79-2.22-1.17l-.2-.1c-4.59-2.25-10.1-.65-12.82,3.73-4.33,6.95-12.24,19.59-16.55,26.05-5.18,7.76-4.32,11.9-3.35,13.68.13.24.27.52.35.77l3.67,10.98c.05.15.09.31.13.47l18.31,74.74c.06.22.1.45.13.68,4.45,33.57-3.88,50.61-17.68,78.85-1.03,2.12-2.1,4.31-3.19,6.56-14.28,29.45-55.38,16.72-60.02,15.17-.5-.17-1-.29-1.53-.38-9.07-1.48-55.25-8.76-73.85-6.9-19.87,1.98-54.85,8.95-55.12,9.01l-87.27,13.88c-.56.09-1.13.23-1.69.42-4.62,1.58-28.28,8.7-40.13-6.54-14.65-19.22,7.73-38.44,8.75-39.3.31-.28,14.86-13.42,31.25-28.27,18.91-17.12,40.28-36.52,45.06-41.07.36-.33.66-.57.96-.74,5.06-2.92,5.12-7.48,4.37-9.79-.1-1.59-.85-8.05-6.36-21.04-5.44-12.82-1.39-22.47-.9-23.53.09-.22.18-.43.26-.65l15.03-40.38c.35-.97,34.67-97.75,44.72-123.95.11-.3.21-.6.3-.91,6.43-23.65,15.3-33.59,16.33-34.67,5.03-3.49,30.73-21.06,43.03-23.52,15.32-3.07,18.03-19.12,19.82-29.74.65-3.8,1.31-7.73,2.32-8.94l.14-.2c2.19-2.63,27.15-10.63,59.34-19.02.24-.07.48-.11.73-.14,8.49-1.08,83.59-10.54,112.88-12.43,32.54-2.1,69.54,4.87,101.44,11.96,32.93,7.31,51.54,8.8,54.93,9.02.3.02.59.02.89.02,3.01-.08,68.23-1.68,113.21-2.71.21-.01.41-.01.61-.02h.1l-.14-3.78v-.21c-.41.01-.82.02-1.23.03h-.04c-44.96,1.02-109.61,2.62-112.61,2.69-.18,0-.35,0-.53-.01-3.34-.22-21.68-1.68-54.32-8.94-32.18-7.15-69.53-14.17-102.56-12.04-14.71.95-40.87,3.79-64.42,6.53-23.54,2.74-44.47,5.38-48.71,5.92-.42.05-.83.13-1.24.24-2.76.72-17.27,4.53-31.36,8.73-27.23,8.11-29.52,10.69-30.29,11.92-1.62,2.08-2.27,5.9-3.08,10.72-1.71,10.11-4.04,23.95-16.67,26.47-12.75,2.55-37.3,19.14-44.52,24.17l-.09.06c-.21.15-.4.31-.58.5-1.73,1.85-10.7,12.27-17.24,36.33-.05.19-.11.36-.18.54-10.06,26.24-44.4,123.07-44.74,124.02l-15.01,40.33c-.05.14-.11.27-.17.41-.9,1.99-5.11,12.66.87,26.74,5.9,13.91,6.05,19.82,6.06,19.87v.38l.14.36c.05.12,1.17,3.06-2.53,5.19-.57.33-1.13.76-1.71,1.31-4.77,4.54-26.2,23.99-45.12,41.12-16.32,14.79-30.78,27.84-31.07,28.1-.27.23-26.27,22.49-9.29,44.76,6.78,8.73,16.7,11.12,25.55,11.12s16.52-2.36,19.04-3.23c.35-.12.69-.2,1.03-.25l87.35-13.9c.35-.07,35.13-7.01,54.8-8.97,18.48-1.85,67.31,5.97,72.82,6.87.31.05.61.12.91.22,4.98,1.66,49.11,15.31,64.88-17.21,1.09-2.26,2.15-4.43,3.19-6.55,14.12-28.92,22.65-46.37,18.05-81.14-.05-.37-.12-.74-.21-1.1l-18.31-74.74c-.07-.27-.14-.53-.23-.79l-3.66-10.98c-.18-.54-.43-1.02-.64-1.41-.15-.28-1.31-2.84,3.17-9.55,4.33-6.51,12.27-19.18,16.61-26.16,1.64-2.62,4.93-3.59,7.66-2.25l.17.08c.72.36,1.41.74,2.11,1.12,5.26,2.86,11.23,6.1,32.79,6.1,16.54,0,79.69-2.88,117-4.65,16.33-.78,27.7-1.34,28.07-1.36l45.46-1.78c2.32-.08,4.53,1.17,5.57,3.21,5.12,10.09,13,13.89,21.64,10.43,14.68-5.87,85.67-38.47,88.68-39.85.35-.16.68-.34,1.02-.54,4.65-2.84,46.15-28.66,70.94-59.98.09-.12.18-.23.28-.34,27.88-29.72,53.45-55.42,56.28-58.26.24-.24.5-.46.79-.67,2.68-1.88,12.41-8.48,25.11-14.4,14.56-6.8,48.36-23.21,49.97-23.99.91-.38,8.8-3.88,12.08-12.3,2.43-6.22,1.72-13.41-2.09-21.39Z"/><polygon points="713.37 338.98 713.27 338.98 713.23 335.2 713.37 338.98"/><path class="cls-4" d="m261.26,321.32l-2.51-8.64,2.88-.84,2.51,8.64-2.88.84Zm5.76-1.68l-2.51-8.64,2.88-.84,2.51,8.64-2.88.84Zm5.76-1.68l-2.52-8.64,2.88-.84,2.52,8.64-2.88.84Zm5.76-1.68l-2.51-8.64,2.88-.84,2.51,8.64-2.88.84Zm5.76-1.68l-2.51-8.64,2.88-.84,2.51,8.64-2.88.84Zm5.76-1.68l-2.51-8.64,2.88-.84,2.51,8.64-2.88.84Zm331.32-1.38h-.19v-9h.19c.92,0,1.83,0,2.74-.02l.14,9c-.95.02-1.92.02-2.88.02Zm-3.27-.03c-1.01-.02-2.04-.04-3.06-.07l.27-9c.98.03,1.96.05,2.94.07l-.15,9Zm9.19-.06l-.22-9c.98-.02,1.99-.05,3.02-.07l.18,9c-1.01.02-2.01.04-2.98.07Zm-15.31-.12c-1.01-.04-2.03-.09-3.05-.15l.49-8.99c.99.05,1.97.1,2.95.14l-.39,8.99Zm21.29-.01l-.17-9,3.01-.05.15,9-3,.05Zm-337.46-.07l-2.51-8.64,2.88-.84,2.51,8.64-2.88.84Zm343.46-.03l-.14-9,3.01-.05.13,9-3,.04Zm6-.09l-.12-9,3-.04.13,9-3,.04Zm6-.08l-.12-9,3.01-.04.11,9-3,.04Zm-45.38-.05c-1.02-.07-2.03-.14-3.05-.22l.68-8.97c.98.08,1.97.15,2.95.21l-.59,8.98Zm51.38-.03l-.12-9,2.99-.04.14,9-3.01.04Zm6.01-.09l-.13-9,3-.04.14,9-3,.05Zm6.01-.1l-.15-9,2.99-.05.17,9-3.01.05Zm6.02-.11l-.18-9,2.99-.06.18,9-2.99.06Zm6-.12l-.2-9,2.99-.07.22,9-3.01.07Zm-81.51-.01c-1.01-.09-2.02-.18-3.03-.28l.85-8.96c.98.09,1.96.18,2.95.27l-.77,8.97Zm87.53-.14l-.24-9,3-.08.25,9-3.02.08Zm6.03-.17l-.28-9,2.99-.1.3,8.99-3.01.1Zm6.02-.2l-.32-8.99,2.98-.11.35,8.99-3.01.11Zm-105.64-.07c-1.01-.11-2.02-.21-3.02-.33l1-8.94c.98.11,1.96.22,2.95.32l-.94,8.95Zm111.67-.17l-.38-8.99,2.98-.13.41,8.99c-1,.05-2,.09-3.01.13Zm-403.85-.22l-2.52-8.64,2.88-.84,2.52,8.64-2.88.84Zm409.88-.06l-.46-8.99c1-.05,1.99-.1,2.98-.16l.49,8.99c-1,.05-2.01.11-3.02.16Zm-123.74-.23c-1.01-.12-2.01-.25-3.01-.37l1.14-8.93c.98.12,1.96.25,2.95.37l-1.07,8.94Zm129.78-.1l-.53-8.98c1-.06,1.99-.12,2.98-.18l.57,8.98c-1,.06-2,.12-3.01.18Zm6.04-.39l-.63-8.98c1-.07,1.99-.14,2.97-.22l.67,8.97c-1,.08-2,.15-3.02.22Zm-141.84-.28c-1.01-.14-2.01-.27-3.01-.42l1.27-8.91c.97.14,1.96.27,2.94.41l-1.2,8.92Zm147.88-.18l-.75-8.97c1-.08,1.98-.17,2.96-.26l.82,8.96c-1,.09-2.01.18-3.03.26Zm-422.24-.44l-2.51-8.64,2.88-.84,2.51,8.64-2.88.84Zm428.3-.12l-.9-8.96c1-.1,1.98-.2,2.94-.31l.99,8.95c-1,.11-2.01.22-3.03.32Zm-159.95-.11c-1.01-.15-2.01-.3-3-.45l1.38-8.89c.97.15,1.95.3,2.94.45l-1.32,8.9Zm166.02-.56l-1.09-8.93c.99-.12,1.96-.25,2.92-.38l1.22,8.92c-.99.13-2.01.27-3.04.39Zm-172-.37c-1.01-.16-2.01-.33-2.99-.49l1.49-8.88c.96.16,1.94.32,2.93.48l-1.43,8.89Zm178.09-.46l-1.36-8.9c.99-.15,1.95-.31,2.88-.47l1.53,8.87c-.99.17-2.01.34-3.05.5Zm-434.69-.06l-2.51-8.64,2.88-.84,2.51,8.64-2.88.84Zm250.62-.48c-1.01-.18-2.01-.35-2.98-.53l1.59-8.86c.96.17,1.94.34,2.94.52l-1.54,8.87Zm190.19-.53l-1.75-8.83c.97-.19,1.91-.39,2.8-.6l2.02,8.77c-.98.23-2.01.45-3.07.66Zm-435.45-.28l-1.56-8.86c.83-.15,1.84-.32,2.99-.51l1.49,8.88c-1.13.19-2.11.36-2.93.5Zm239.31-.26c-1.02-.19-2.02-.38-2.98-.56l1.69-8.84c.95.18,1.92.36,2.92.55l-1.63,8.85Zm-233.44-.73l-1.45-8.88c.94-.15,1.93-.31,2.99-.48l1.4,8.89c-1.04.16-2.02.32-2.94.47Zm435.75-.17l-2.4-8.67c.95-.26,1.82-.53,2.6-.8l2.94,8.51c-.96.33-2.01.66-3.14.97Zm-208.27-.23c-1.03-.2-2.03-.4-2.97-.59l1.79-8.82c.93.19,1.91.38,2.92.59l-1.75,8.83Zm-221.6-.52l-1.35-8.9c.97-.15,1.96-.3,3-.45l1.3,8.91c-1.01.15-2,.29-2.94.44Zm215.66-.69c-1.08-.23-2.07-.44-2.97-.63l1.9-8.8c.88.19,1.86.4,2.92.62l-1.85,8.81Zm-209.77-.18l-1.25-8.91c.98-.14,1.98-.28,3-.41l1.21,8.92c-1,.14-1.99.27-2.95.41Zm430.11-.49l-3.32-8.36,2.78-1.11,3.35,8.36-2.8,1.12Zm-424.22-.3l-1.15-8.93c.99-.13,1.99-.25,3.01-.38l1.09,8.93c-.99.12-1.98.25-2.95.37Zm197.93-.31c-1.93-.43-2.98-.69-2.98-.69l-.37-.11,1.33-4,1.14-4.65s0,0,.02,0h0c.18.04,1.16.28,2.82.65l-1.97,8.78Zm-192.04-.41l-1.03-8.94,3-.34,1,8.94-2.98.34Zm5.99-.68l-1.04-8.94,2.98-.35,1.05,8.94-3,.35Zm180.15-.29c-.97-.23-1.94-.45-2.9-.67l2.01-8.77c.97.22,1.95.45,2.94.68l-2.05,8.76Zm237.77-.24l-3.35-8.35c.94-.38,1.86-.75,2.77-1.12l3.38,8.34c-.92.37-1.85.75-2.8,1.13Zm-411.94-.17l-1.05-8.94,2.98-.35,1.06,8.94-2.99.35Zm5.98-.71l-1.07-8.94,2.99-.36,1.06,8.94-2.98.36Zm162.38-.21c-.97-.22-1.94-.43-2.9-.63l1.9-8.8c.98.21,1.96.43,2.96.65l-1.95,8.79Zm-156.41-.5l-1.08-8.94,2.99-.36,1.07,8.94-2.98.36Zm405.57-.66l-3.39-8.34,2.77-1.13,3.4,8.33-2.79,1.14Zm-399.59-.06l-1.08-8.94,2.98-.36,1.08,8.94-2.98.36Zm144.63-.03c-.98-.2-1.95-.4-2.91-.6l1.78-8.82c.98.2,1.97.4,2.97.61l-1.84,8.81Zm-138.66-.69l-1.08-8.93,2.98-.36,1.08,8.93-2.98.36Zm132.84-.49c-.98-.19-1.96-.38-2.92-.56l1.67-8.84c.98.18,1.97.38,2.97.57l-1.72,8.83Zm-126.88-.24l-1.09-8.93,2.99-.36,1.09,8.93-2.98.36Zm5.97-.73l-1.09-8.93,2.98-.36,1.1,8.93-2.99.37Zm387.27-.05l-3.43-8.32,2.77-1.14,3.44,8.32-2.78,1.15Zm-272.2-.08c-.98-.18-1.96-.35-2.93-.52l1.54-8.87c.98.17,1.98.35,2.98.53l-1.6,8.86Zm-109.11-.59l-1.09-8.93,2.98-.36,1.09,8.93-2.99.36Zm103.26-.43c-.99-.16-1.96-.32-2.93-.48l1.41-8.89c.99.16,1.99.32,2.99.49l-1.48,8.88Zm-97.29-.3l-1.09-8.93,2.98-.37,1.09,8.93-2.98.37Zm91.43-.63c-.99-.15-1.97-.3-2.93-.43l1.28-8.91c.99.14,1.99.29,3,.44l-1.35,8.9Zm-85.46-.1l-1.1-8.93,2.99-.37,1.09,8.93-2.98.37Zm374.93-.17l-3.46-8.31,2.76-1.15,3.48,8.3-2.78,1.16Zm-368.96-.56l-1.1-8.93,2.98-.37,1.1,8.93-2.99.37Zm73.62-.02c-.99-.13-1.97-.26-2.94-.39l1.14-8.93c.99.13,1.99.26,3.01.4l-1.21,8.92Zm-67.65-.72l-1.09-8.93,2.98-.37,1.1,8.93-2.99.37Zm61.77-.04c-1-.12-1.98-.23-2.94-.34l1-8.94c.99.11,2,.23,3.02.35l-1.07,8.94Zm-5.88-.66c-1-.1-1.99-.2-2.95-.29l.85-8.96c.99.09,1.99.19,3.02.3l-.92,8.95Zm-49.91-.04l-1.1-8.93,2.99-.37,1.09,8.93-2.99.37Zm362.57-.3l-3.49-8.29,2.75-1.16,3.52,8.29-2.78,1.17Zm-318.56-.22c-1-.08-1.99-.16-2.95-.24l.68-8.97c.99.08,2,.16,3.03.25l-.77,8.97Zm-38.03-.22l-1.1-8.93,3.01-.37,1.09,8.93-3,.37Zm32.13-.23c-1.01-.07-1.99-.13-2.95-.18l.5-8.99c.99.06,2,.12,3.04.19l-.59,8.98Zm-5.9-.33c-1.01-.05-1.99-.09-2.94-.12l.31-8.99c.99.03,2,.07,3.05.12l-.42,8.99Zm-20.52-.02l-.53-8.98c.85-.05,1.89-.1,3.09-.15l.34,8.99c-1.13.04-2.1.09-2.9.14Zm14.63-.19c-1.03-.02-2.01-.04-2.95-.05l.09-9c.97,0,1.99.03,3.05.05l-.2,9Zm-8.81-.03l-.17-9c.95-.02,1.97-.03,3.07-.03l.03,9c-1.05,0-2.02.02-2.93.03Zm350.61-1.12l-3.54-8.27c1.14-.49,2.06-.88,2.74-1.18l3.58,8.26c-.69.3-1.62.7-2.78,1.19Z"/><circle class="cls-5" cx="778" cy="479" r="10"/></svg>