<?xml version="1.0" encoding="UTF-8"?><svg id="Imola_Detailed" xmlns="http://www.w3.org/2000/svg" viewBox="0 0 1000 1000"><defs><style>.cls-1,.cls-2{fill:#fff;}.cls-3{fill:#fae44a;}.cls-2{font-family:OpenSans-ExtraBold, 'Open Sans';font-size:13.33px;font-weight:700;}.cls-4{fill:#db4a25;}.cls-5,.cls-6{fill:#1bce20;}.cls-7{fill:#75e5fd;}.cls-6{stroke:#000;stroke-miterlimit:10;stroke-width:2px;}</style></defs><g id="Detailed"><path d="m970.06,294.79c-8.94-18.71-15.33-32.32-17.67-37.3l-.09-.2c-.46-1-1-1.98-1.64-2.99-8.17-12.88-22.22-20.57-37.58-20.57-7.16,0-14.5,1.64-21.82,4.86-18.43,8.11-56.02,23.65-71.33,29.96-8.02,3.31-15.82,6.89-23.17,10.65-9.73,4.98-35.49,16.66-64.56,17.72h-.12l.7,17.3.16,3.99.59,14.7-.54-14.7-.04-1.07-.11-2.92-.04-1.1-.53-14.2c29.44-1.07,55.45-12.85,65.4-17.94,7.28-3.72,15.02-7.28,23.02-10.58,19.25-7.93,54.11-22.38,71.38-29.98,5.1-2.24,10.03-3.62,14.73-4.26.86-.12,1.71-.21,2.55-.28,1.26-.1,2.5-.15,3.73-.15,1,0,1.99.03,2.97.1,1.46.1,2.9.27,4.3.51.94.15,1.86.34,2.77.56.77.19,1.54.39,2.29.62.57.17,1.13.35,1.69.54.73.25,1.46.53,2.17.83,1.37.55,2.7,1.18,3.98,1.87,1.17.63,2.3,1.31,3.39,2.03.72.48,1.43.98,2.12,1.51,1.38,1.04,2.68,2.16,3.9,3.34.31.29.61.6.9.9.3.31.59.61.87.92.57.62,1.12,1.25,1.64,1.89.53.65,1.03,1.31,1.52,1.98.48.67.94,1.35,1.38,2.04.57.9,1.07,1.8,1.52,2.77.74,1.58,7.52,16.08,17.77,37.51,7.07,14.78,5.28,26.27,2.53,33.3-5.11,13.09-16.17,18.9-19.8,20.5-3.94,1.91-35.57,17.26-49.88,23.94-10.83,5.05-19.45,10.76-22.2,12.65-4.72,4.74-28.85,29.07-55.11,57.05-26.42,33.22-69.75,60.18-74.62,63.15-.81.5-1.65.95-2.54,1.36-12.45,5.72-75.13,34.45-89.41,40.16-6.94,2.78-13.87,3.05-20.19,1.08-.52-.16-1.03-.34-1.53-.53-.38-.14-.75-.29-1.12-.45-.48-.2-.96-.42-1.44-.65-1.12-.55-2.21-1.17-3.28-1.87-.53-.35-1.06-.71-1.57-1.1-.78-.57-1.54-1.19-2.28-1.85-.49-.44-.98-.9-1.45-1.37-1.67-1.66-3.23-3.54-4.66-5.63l-40.04,1.57c-.63.03-2.39.12-5.08.25-.31.02-.63.03-.97.05-.96.05-2.02.1-3.18.15-.39.02-.79.04-1.2.06-1.1.06-2.28.11-3.52.17-.66.03-1.34.07-2.04.1-.07,0-.14.01-.21.01-.68.03-1.39.07-2.11.1-.82.04-1.66.08-2.52.12-.95.05-1.93.09-2.93.14-1.34.07-2.73.13-4.16.2-37.41,1.78-100.76,6.67-117.83,6.67-18.2,0-27.4-4.16-34.34-7.15-4.23,6.74-9.3,14.76-12.52,19.58-.01.03-.03.06-.05.08l2.93,8.8c.21.63.4,1.29.57,1.96l18.31,74.74c.22.9.39,1.79.51,2.69,5.2,39.28-5.14,60.43-19.44,89.71-1.03,2.1-2.09,4.27-3.17,6.51-9.01,18.57-26.63,29.2-49.61,29.92-.85.03-1.7.04-2.54.04-13.77,0-25.8-3.4-30.24-4.82-21.73-3.53-48.68-6.86-62.9-6.86-2.06,0-3.85.07-5.32.22-18.95,1.89-53.01,8.68-53.36,8.75l-.66.12-86.53,13.77c-7.09,2.34-15.02,3.81-22.96,3.81-13.95,0-27.96-4.54-37.6-16.93l-.1-.14c-10.58-13.88-11.65-31.11-2.94-47.25,5.22-9.67,12.48-16.29,14.22-17.81,1.59-1.43,14.94-13.48,30.08-27.19,17.71-16.04,37.86-34.33,44.45-40.48-.66-2.43-1.89-6.23-4.16-11.58-8.03-18.93-2.86-33.92-.84-38.5l14.86-39.94c1.93-5.45,34.43-97.06,44.67-123.84,7.28-26.48,17.63-38.99,20.65-42.2.94-1,1.93-1.85,2.99-2.59,12.49-8.69,35.57-23.66,50.21-26.59,2.49-.5,4.06-9.8,4.81-14.26,1.03-6.1,2.01-11.88,5.56-16.8,4-5.98,10.71-9.49,38.32-17.72,14.41-4.3,29.07-8.15,31.86-8.87,1.02-.27,2.09-.48,3.17-.61,8.65-1.1,84.01-10.6,114.02-12.53,10.14-.66,20.6-.51,31.15.21,1.98.13,3.97.29,5.95.46,5.97.52,11.94,1.21,17.89,2.03,1.98.27,3.96.55,5.94.85,15.81,2.4,31.35,5.59,45.85,8.81,30.61,6.81,48.31,8.34,51.65,8.59l1.04-.03c22.47-.55,74.89-1.83,112.19-2.69l-.02-2c-35.8.83-85.44,2.04-109.36,2.62l-2.86.07-.94.03c-3.52-.27-21.25-1.86-51.27-8.54-28.54-6.35-62-12.83-93.76-12.83-4.66,0-9.23.14-13.58.42-31.04,2-110.76,12.12-114.14,12.55-1.13.13-2.29.35-3.43.66-.15.03-16,4.13-31.92,8.88-27.09,8.08-34.84,11.71-39.39,18.5-3.81,5.3-4.82,11.28-5.89,17.61-1.55,9.2-2.7,11.99-3.41,12.67-15.01,3.08-38.24,18.14-50.78,26.87-1.21.84-2.29,1.77-3.31,2.86-3.07,3.27-13.67,16.02-21.09,42.95-10.54,27.57-44.32,122.84-44.66,123.79l-14.82,39.86c-1.96,4.46-7.54,20.26.85,40.03,1.92,4.54,3.07,7.91,3.74,10.17-5.98,5.55-20.61,18.87-43.53,39.63-15.15,13.71-28.54,25.8-30.08,27.18-2.09,1.83-9.37,8.6-14.64,18.35-9.1,16.86-7.97,34.86,3.09,49.39l.08.11.03.04.02.03c11.39,14.63,27.59,17.7,39.18,17.7,7.63,0,15.73-1.33,23.43-3.86l86.37-13.74.71-.13c.37-.08,34.35-6.85,53.2-8.73,1.37-.14,3.09-.21,5.12-.21,15.09,0,43.03,3.66,62.43,6.81,4.72,1.5,16.85,4.87,30.71,4.87.87,0,1.75-.01,2.6-.04,23.76-.75,42-11.77,51.35-31.05,1.08-2.24,2.14-4.4,3.17-6.5,14.46-29.62,24.9-50.99,19.62-90.85-.13-.97-.31-1.92-.55-2.91l-18.31-74.74c-.19-.75-.4-1.46-.61-2.11l-2.63-7.88c2.47-3.71,6.13-9.45,11.17-17.46,6.07,2.4,15.12,6.66,33.54,6.66,17.16,0,81.25-4.93,117.93-6.67h.06s.11-.01.11-.01c.08,0,.16-.01.23-.01,14.59-.69,25.43-1.23,27.52-1.33l38.93-1.53c6.85,9.48,16.31,14.69,26.76,14.69,4.16,0,8.37-.84,12.51-2.5,15.02-6.01,81.93-36.72,89.51-40.2.97-.45,1.87-.93,2.75-1.48,4.87-2.97,48.38-30,75.08-63.54,26.25-27.97,50.03-51.94,54.89-56.82,2.6-1.78,11.16-7.44,21.76-12.38,8.8-4.11,26.26-12.49,49.17-23.59l.7-.35c3.56-1.57,15.41-7.72,20.82-21.58,2.9-7.4,4.8-19.46-2.59-34.89Zm-155.99,18.24c6.42-3.29,13.27-6.43,20.34-9.35,15.54-6.4,53.68-22.17,72.17-30.31,2.51-1.11,4.72-1.67,6.56-1.67,2.23,0,3.86.79,5.11,2.49,2.38,5.07,8.68,18.48,17.53,36.98,1.39,2.92,1.49,4.18,1.42,4.67-.03.17-.04.26-.35.45l-.16.07-1.08.53-.04.03c-3.61,1.75-35.65,17.29-49.69,23.84-14.24,6.65-25.25,14.11-28.28,16.24-1.25.88-2.47,1.9-3.6,3.04-2.87,2.87-28.82,28.96-56.71,58.7-.5.54-.99,1.1-1.45,1.68-18.06,22.82-49.22,45.12-64.87,54.76-23.59,10.83-66.53,30.4-82.94,37.42-4.8-8.31-13.62-13.41-23.36-13.41-.35,0-.69,0-1.04.02l-45.46,1.78h-.21c-.37.03-12.17.62-28.4,1.39l-.71.03c-35.95,1.71-98.67,6.57-114.93,6.57s-19.56-3.81-22.76-5.56c-.87-.46-1.79-.95-2.74-1.43l-.31-.16c-3.74-1.83-7.73-2.76-11.85-2.76-9.36,0-17.91,4.77-22.89,12.76-4.3,6.91-12.13,19.42-16.26,25.61-9.67,14.5-7.1,25.13-4.65,30.24l3.2,9.58,18.06,73.73c3.61,28.08-2.59,40.78-16.17,68.57l-.89,1.84c-.77,1.56-1.55,3.15-2.34,4.79-2.2,4.56-6.1,9.27-18.33,9.64-.51.02-1.01.02-1.5.02-9.62,0-18.51-2.87-19.5-3.2-1.33-.45-2.74-.8-4.18-1.03-10.67-1.74-47.22-7.42-69.61-7.42-3.3,0-6.22.13-8.67.37-19.19,1.92-50.31,7.98-56.46,9.2l-86.9,13.83c-1.53.24-3.06.62-4.53,1.13-2.26.77-7.39,2.08-12.26,2.08-2.99,0-6.96-.51-8.91-2.92-4.52-6.11,5.12-14.94,6.24-15.92l.4-.35c1.3-1.17,15.37-13.88,31.44-28.44,17.35-15.69,38.06-34.51,44.42-40.46,9.04-5.93,13.44-16.33,11.22-26.56-.54-4.53-2.28-12.47-7.5-24.75-2.39-5.63-1.22-9.41-1-10.02.24-.53.45-1.04.65-1.59l15.01-40.34.1-.27c.03-.08.27-.76.7-1.97,10.43-29.36,35.59-99.98,43.88-121.58.32-.84.59-1.69.83-2.54,4.16-15.32,9.29-23.46,11.5-26.47,16.78-11.51,30.43-18.65,34.78-19.52,8.42-1.68,19.96-6.77,27.08-21.52,3.76-7.76,5.15-15.96,6.17-21.96v-.08c9.39-3.46,28.62-9.14,48.64-14.37,3.69-.47,82.06-10.37,111.11-12.24,3.55-.23,7.29-.35,11.13-.35,28.09,0,58.99,6.04,85.53,11.94,33.96,7.54,53.85,9.14,57.5,9.39.6.03,1.23.05,1.89.05h.51l1.49-.04,12.92-.32c25.38-.61,67.57-1.64,98.83-2.35l-.02-2c-37.25.84-89.4,2.13-111.78,2.67l-1.47.04c-.7.01-1.46,0-2.24-.05-3.59-.24-23.24-1.8-57.2-9.34-6.79-1.51-13.81-3.02-20.97-4.42-1.79-.36-3.58-.7-5.38-1.04-9.92-1.86-20.02-3.49-30.05-4.66-1.82-.21-3.64-.41-5.46-.59-12.14-1.2-24.09-1.65-35.36-.93-28.52,1.84-103.33,11.25-111.36,12.27-21.34,5.57-41.22,11.51-50.03,14.87-.07.39-.13.77-.19,1.13-1,5.89-2.36,13.97-6.01,21.51-6.76,14-17.69,18.84-25.67,20.43-4.64.93-18.65,8.23-35.8,20.02-2.02,2.69-7.6,11.13-12.02,27.4-.22.8-.48,1.59-.77,2.35-9.98,26.02-44.24,122.62-44.59,123.59l-.09.25-15.01,40.34c-.21.56-.41,1.04-.63,1.53-.24.63-1.76,5.04,1.01,11.56,5.21,12.27,6.87,20.04,7.37,24.3,1.84,8.34-1.01,18.52-10.49,24.65-5.99,5.62-26.36,24.13-44.52,40.56-15.93,14.43-30.14,27.27-31.4,28.4l-.43.37c-1.56,1.38-12.12,11.11-6.49,18.64,2.23,2.8,6.28,3.7,10.49,3.7,5.02,0,10.27-1.29,12.91-2.19,1.36-.47,2.77-.82,4.19-1.04l86.94-13.84c3.89-.77,36.55-7.2,56.31-9.18,2.48-.25,5.34-.36,8.47-.36,22.09,0,57.74,5.51,69.29,7.39,1.3.21,2.61.53,3.87.96,1.05.35,10.18,3.3,20.13,3.3.52,0,1.04,0,1.56-.02,13.37-.41,17.75-5.97,20.07-10.77,1.1-2.27,2.18-4.47,3.22-6.6,13.75-28.15,20.07-41.08,16.35-69.84l-18.11-73.92-3.26-9.77c-2.45-5.03-4.59-14.82,4.45-28.38,4.36-6.53,12.85-20.12,16.3-25.66,4.72-7.58,12.82-11.82,21.19-11.82,3.69,0,7.43.82,10.96,2.55l.3.15c.91.46,1.79.93,2.68,1.41,3.43,1.87,6.99,5.8,23.72,5.8s77.73-4.8,115.01-6.57c.53-.02,1.05-.05,1.57-.07,2.79-.13,5.42-.26,7.88-.38.45-.02.89-.04,1.33-.06,1.96-.09,3.8-.18,5.5-.27,1.72-.08,3.3-.16,4.71-.23.56-.03,1.08-.05,1.59-.08.58-.02,1.13-.05,1.64-.08.16,0,.32,0,.48-.02,2.74-.13,4.32-.21,4.45-.22h.17s45.46-1.79,45.46-1.79c3.86-.15,7.61.6,11.01,2.08.78.34,1.55.72,2.29,1.14.24.14.49.28.73.43.48.29.96.61,1.42.93,1.16.82,2.25,1.74,3.25,2.75.41.4.79.82,1.17,1.25,1.31,1.51,2.45,3.19,3.38,5.02.06.12.12.23.18.34,14.74-6.21,59.09-26.41,84.77-38.2,15.97-9.82,47.2-32.17,65.49-55.28.43-.54.88-1.06,1.35-1.56,28.05-29.91,53.81-55.8,56.66-58.66,1.03-1.03,2.15-1.98,3.34-2.81,2.99-2.1,13.88-9.49,27.98-16.07,14.71-6.86,49.41-23.71,49.76-23.88l1.08-.53h.01c1.49-.78,2.77-2.06,0-7.85-9.48-19.83-16.03-33.79-17.6-37.14-.2-.29-.42-.56-.64-.81-2.88-3.24-7.44-3.52-13.57-.82-17.59,7.74-52.73,22.3-72.12,30.29-7.15,2.95-14.04,6.12-20.49,9.42-14.87,7.61-44.74,20.38-79.63,21.66,0,0,.1.85.35,1.99,35.24-1.36,65.35-14.28,80.19-21.87Z"/><g id="Start_Line"><polygon points="704.54 348.82 715.56 337.02 718.47 339.72 710.16 348.63 719.06 356.94 716.35 359.84 704.54 348.82"/><polygon points="702.88 357.54 700.17 360.45 691.96 352.8 688.36 349.44 699.38 337.63 702.28 340.35 693.97 349.25 695.31 350.49 702.88 357.54"/><polygon points="686.7 358.16 683.98 361.07 682.26 359.47 672.18 350.05 683.2 338.25 686.1 340.95 677.8 349.86 685.62 357.15 686.7 358.16"/></g><polygon class="cls-1" points="718.41 313.48 718.41 313.5 718.37 313.5 718.41 313.48"/><polygon points="729.2 337.58 729.06 330.96 729.03 329.6 728.39 297.98 728.39 297.53 726.15 297.56 721.87 297.64 721.88 298.17 722.52 329.79 722.54 330.81 722.69 337.78 723.15 360.56 725.38 360.53 729.66 360.45 729.2 337.58"/><path class="cls-3" d="m970.79,328.95c-5.11,13.09-16.17,18.9-19.8,20.5-3.94,1.91-35.57,17.26-49.88,23.94-10.83,5.05-19.45,10.76-22.2,12.65-4.72,4.74-28.85,29.07-55.11,57.05-26.42,33.22-69.75,60.18-74.62,63.15-.81.5-1.65.95-2.54,1.36-12.45,5.72-75.13,34.45-89.41,40.16-14.25,5.71-28.46.85-37.52-12.37l-40.04,1.57c-1.78.09-12.7.63-27.92,1.35l-2.82-33.9c16.89-.8,28.78-1.39,29.15-1.41h.17s45.46-1.79,45.46-1.79c9.75-.37,18.86,4.95,23.25,13.6.06.12.12.23.18.34,14.74-6.21,59.09-26.41,84.77-38.2,15.97-9.82,47.2-32.17,65.49-55.28.43-.54.88-1.06,1.35-1.56,28.05-29.91,53.81-55.8,56.66-58.66,1.03-1.03,2.15-1.98,3.34-2.81,2.99-2.1,13.88-9.49,27.98-16.07,14.71-6.86,49.41-23.71,49.76-23.88l1.08-.53h.01c1.49-.78,2.77-2.06,0-7.85-9.48-19.83-16.03-33.79-17.6-37.14-2.82-3.99-7.6-4.54-14.21-1.63-17.59,7.74-52.73,22.3-72.12,30.29-7.15,2.95-14.04,6.12-20.49,9.42-14.87,7.61-44.74,20.38-79.63,21.66l-.58-15.77-.15-4.02-.53-14.2c29.44-1.07,55.45-12.85,65.4-17.94,7.28-3.72,15.02-7.28,23.02-10.58,19.25-7.93,54.11-22.38,71.38-29.98,25.6-11.27,47.03-.61,56.9,14.95.57.9,1.07,1.8,1.52,2.77.74,1.58,7.52,16.08,17.77,37.51,7.07,14.78,5.28,26.27,2.53,33.3Z"/><path class="cls-7" d="m552.13,538.29c-.12.01-.25.01-.38.02-37.41,1.78-100.76,6.67-117.83,6.67-18.2,0-27.4-4.16-34.34-7.15-4.23,6.74-9.3,14.76-12.52,19.58-.01.03-.03.06-.05.08l2.93,8.8c.21.63.4,1.29.57,1.96l18.31,74.74c.22.9.39,1.79.51,2.69,5.2,39.28-5.14,60.43-19.44,89.71-1.03,2.1-2.09,4.27-3.17,6.51-9.01,18.57-26.63,29.2-49.61,29.92-14.82.46-28.07-3.27-32.78-4.78-24.88-4.04-56.6-7.82-68.22-6.64-18.95,1.89-53.01,8.68-53.36,8.75l-.66.12-86.53,13.77c-7.09,2.34-15.02,3.81-22.96,3.81-13.95,0-27.96-4.54-37.6-16.93l-.1-.14c-10.58-13.88-11.65-31.11-2.94-47.25,5.22-9.67,12.48-16.29,14.22-17.81,1.59-1.43,14.94-13.48,30.08-27.19l23.95,24.17c-15.93,14.43-30.14,27.27-31.4,28.4l-.43.37c-1.56,1.38-12.12,11.11-6.49,18.64,4.88,6.13,18.54,3.17,23.4,1.51,1.36-.47,2.77-.82,4.19-1.04l86.94-13.84c3.89-.77,36.55-7.2,56.31-9.18,19.98-1.99,64.57,4.88,77.76,7.03,1.3.21,2.61.53,3.87.96,1.11.37,11.15,3.62,21.69,3.28,13.37-.41,17.75-5.97,20.07-10.77,1.1-2.27,2.18-4.47,3.22-6.6,13.75-28.15,20.07-41.08,16.35-69.84l-18.11-73.92-3.26-9.77c-2.45-5.03-4.59-14.82,4.45-28.38,4.36-6.53,12.85-20.12,16.3-25.66,6.8-10.93,20.63-14.91,32.15-9.27l.3.15c.91.46,1.79.93,2.68,1.41,3.43,1.87,6.99,5.8,23.72,5.8s77.73-4.8,115.01-6.57c.25-.01.49-.02.73-.03l2.47,33.91Z"/><path class="cls-4" d="m718.92,333.26c-37.25.84-89.4,2.13-111.78,2.67l-1.47.04c-.7.01-1.46,0-2.24-.05-3.59-.24-23.24-1.8-57.2-9.34-6.79-1.51-13.81-3.02-20.97-4.42-1.79-.36-3.58-.7-5.38-1.04-9.92-1.86-20.02-3.49-30.05-4.66-1.82-.21-3.64-.41-5.46-.59-12.14-1.2-24.09-1.65-35.36-.93-28.52,1.84-103.33,11.25-111.36,12.27-21.34,5.57-41.22,11.51-50.03,14.87-.07.39-.13.77-.19,1.13-1,5.89-2.36,13.97-6.01,21.51-6.76,14-17.69,18.84-25.67,20.43-4.64.93-18.65,8.23-35.8,20.02-2.02,2.69-7.6,11.13-12.02,27.4-.22.8-.48,1.59-.77,2.35-9.98,26.02-44.24,122.62-44.59,123.59l-.09.25-15.01,40.34c-.21.56-.41,1.04-.63,1.53-.24.63-1.76,5.04,1.01,11.56,5.21,12.27,6.87,20.04,7.37,24.3,1.84,8.34-1.01,18.52-10.49,24.65-5.99,5.62-26.36,24.13-44.52,40.56l-10.59-10.68-2.81-2.85-10.55-10.64c17.71-16.04,37.86-34.33,44.45-40.48-.66-2.43-1.89-6.23-4.16-11.58-8.03-18.93-2.86-33.92-.84-38.5l14.86-39.94c1.93-5.45,34.43-97.06,44.67-123.84,7.28-26.48,17.63-38.99,20.65-42.2.94-1,1.93-1.85,2.99-2.59,12.49-8.69,35.57-23.66,50.21-26.59,2.49-.5,4.06-9.8,4.81-14.26,1.03-6.1,2.01-11.88,5.56-16.8,4-5.98,10.71-9.49,38.32-17.72,14.41-4.3,29.07-8.15,31.86-8.87,1.02-.27,2.09-.48,3.17-.61,8.65-1.1,84.01-10.6,114.02-12.53,10.14-.66,20.6-.51,31.15.21,1.98.13,3.97.29,5.95.46,5.97.52,11.94,1.21,17.89,2.03,1.98.27,3.96.56,5.94.85,15.81,2.4,31.35,5.59,45.85,8.81,30.61,6.81,48.31,8.34,51.65,8.59l1.04-.03c22.47-.55,74.89-1.83,112.19-2.69l.19,15.33v.21s.15,3.78.15,3.78h-.1l.19,14.69Z"/><path d="m954.33,302.44c-9.55-19.96-16.06-33.84-17.83-37.62-.17-.38-.37-.74-.59-1.09-2.16-3.4-14.14-19.83-38.19-9.26-17.41,7.66-52.4,22.16-71.71,30.12-7.62,3.15-14.99,6.54-21.9,10.07-13.4,6.85-40.21,18.34-71.27,19.56h-.06l.16,3.99h.05c31.83-1.23,59.24-12.97,72.94-19.99,6.82-3.48,14.09-6.83,21.61-9.93,19.32-7.96,54.34-22.48,71.79-30.15,21.06-9.27,31.35,4.82,33.2,7.73.13.21.25.42.35.64,1.77,3.79,8.29,17.69,17.84,37.66,3.31,6.92,3.98,13.03,1.99,18.16-2.76,7.14-9.86,10.09-9.93,10.12l-.13.06c-.35.17-35.16,17.07-49.97,23.98-12.99,6.07-22.97,12.83-25.72,14.76-.48.34-.91.71-1.33,1.12-2.83,2.84-28.44,28.58-56.35,58.34-.18.19-.35.39-.51.59-24.36,30.78-65.3,56.25-69.89,59.06-.19.11-.38.22-.59.31-3.02,1.39-73.92,33.94-88.51,39.78-8.42,3.36-13.67-2.78-16.59-8.53-1.74-3.43-5.39-5.57-9.29-5.4l-45.47,1.79c-.37.02-11.82.59-28.23,1.37-37.31,1.76-100.23,7.63-116.67,7.63-20.54,0-26.04-5.99-30.88-8.62-.74-.4-1.47-.79-2.22-1.17l-.2-.1c-4.59-2.25-10.1-.65-12.82,3.73-4.33,6.95-12.24,19.59-16.55,26.05-5.18,7.76-4.32,11.9-3.35,13.68.13.24.27.52.35.77l3.67,10.98c.05.15.09.31.13.47l18.31,74.74c.06.22.1.45.13.68,4.45,33.57-3.88,50.61-17.68,78.85-1.03,2.12-2.1,4.31-3.19,6.56-14.28,29.45-55.38,16.72-60.02,15.17-.5-.17-1-.29-1.53-.38-9.07-1.48-55.25-8.76-73.85-6.9-19.87,1.98-54.85,8.95-55.12,9.01l-87.27,13.88c-.56.09-1.13.23-1.69.42-4.62,1.58-28.28,8.7-40.13-6.54-14.65-19.22,7.73-38.44,8.75-39.3.31-.28,14.86-13.42,31.25-28.27,18.91-17.12,40.28-36.52,45.06-41.07.36-.33.66-.57.96-.74,5.06-2.92,5.12-7.48,4.37-9.79-.1-1.59-.85-8.05-6.36-21.04-5.44-12.82-1.39-22.47-.9-23.53.09-.22.18-.43.26-.65l15.03-40.38c.35-.97,34.67-97.75,44.72-123.95.11-.3.21-.6.3-.91,6.43-23.65,15.3-33.59,16.33-34.67,5.03-3.49,30.73-21.06,43.03-23.52,15.32-3.07,18.03-19.12,19.82-29.74.65-3.8,1.31-7.73,2.32-8.94l.14-.2c2.19-2.63,27.15-10.63,59.34-19.02.24-.07.48-.11.73-.14,8.49-1.08,83.59-10.54,112.88-12.43,32.54-2.1,69.54,4.87,101.44,11.96,32.93,7.31,51.54,8.8,54.93,9.02.3.02.59.02.89.02,3.01-.08,68.23-1.68,113.21-2.71.21-.01.41-.01.61-.02h.1l-.14-3.78v-.21c-.41.01-.82.02-1.23.03h-.04c-44.96,1.02-109.61,2.62-112.61,2.69-.18,0-.35,0-.53-.01-3.34-.22-21.68-1.68-54.32-8.94-32.18-7.15-69.53-14.17-102.56-12.04-14.71.95-40.87,3.79-64.42,6.53-23.54,2.74-44.47,5.38-48.71,5.92-.42.05-.83.13-1.24.24-2.76.72-17.27,4.53-31.36,8.73-27.23,8.11-29.52,10.69-30.29,11.92-1.62,2.08-2.27,5.9-3.08,10.72-1.71,10.11-4.04,23.95-16.67,26.47-12.75,2.55-37.3,19.14-44.52,24.17l-.09.06c-.21.15-.4.31-.58.5-1.73,1.85-10.7,12.27-17.24,36.33-.05.19-.11.36-.18.54-10.06,26.24-44.4,123.07-44.74,124.02l-15.01,40.33c-.05.14-.11.27-.17.41-.9,1.99-5.11,12.66.87,26.74,5.9,13.91,6.05,19.82,6.06,19.87v.38l.14.36c.05.12,1.17,3.06-2.53,5.19-.57.33-1.13.76-1.71,1.31-4.77,4.54-26.2,23.99-45.12,41.12-16.32,14.79-30.78,27.84-31.07,28.1-.27.23-26.27,22.49-9.29,44.76,6.78,8.73,16.7,11.12,25.55,11.12s16.52-2.36,19.04-3.23c.35-.12.69-.2,1.03-.25l87.35-13.9c.35-.07,35.13-7.01,54.8-8.97,18.48-1.85,67.31,5.97,72.82,6.87.31.05.61.12.91.22,4.98,1.66,49.11,15.31,64.88-17.21,1.09-2.26,2.15-4.43,3.19-6.55,14.12-28.92,22.65-46.37,18.05-81.14-.05-.37-.12-.74-.21-1.1l-18.31-74.74c-.07-.27-.14-.53-.23-.79l-3.66-10.98c-.18-.54-.43-1.02-.64-1.41-.15-.28-1.31-2.84,3.17-9.55,4.33-6.51,12.27-19.18,16.61-26.16,1.64-2.62,4.93-3.59,7.66-2.25l.17.08c.72.36,1.41.74,2.11,1.12,5.26,2.86,11.23,9.1,32.79,9.1,16.54,0,79.69-5.88,117-7.65,16.33-.78,27.7-1.34,28.07-1.36l45.46-1.78c2.32-.08,4.53,1.17,5.57,3.21,5.12,10.09,13,13.89,21.64,10.43,14.68-5.87,85.67-38.47,88.68-39.85.35-.16.68-.34,1.02-.54,4.65-2.84,46.15-28.66,70.94-59.98.09-.12.18-.23.28-.34,27.88-29.72,53.45-55.42,56.28-58.26.24-.24.5-.46.79-.67,2.68-1.88,12.41-8.48,25.11-14.4,14.56-6.8,48.36-23.21,49.97-23.99.91-.38,8.8-3.88,12.08-12.3,2.43-6.22,1.72-13.41-2.09-21.39Z"/><polygon points="718.83 318.57 718.73 318.57 718.69 314.79 718.83 318.57"/><path class="cls-5" d="m266.71,300.91l-2.51-8.64,2.88-.84,2.51,8.64-2.88.84Zm5.76-1.68l-2.51-8.64,2.88-.84,2.51,8.64-2.88.84Zm5.76-1.68l-2.52-8.64,2.88-.84,2.52,8.64-2.88.84Zm5.76-1.68l-2.51-8.64,2.88-.84,2.51,8.64-2.88.84Zm5.76-1.68l-2.51-8.64,2.88-.84,2.51,8.64-2.88.84Zm5.76-1.68l-2.51-8.64,2.88-.84,2.51,8.64-2.88.84Zm331.32-1.38h-.19v-9h.19c.92,0,1.83,0,2.74-.02l.14,9c-.95.02-1.92.02-2.88.02Zm-3.27-.03c-1.01-.02-2.04-.04-3.06-.07l.27-9c.98.03,1.96.05,2.94.07l-.15,9Zm9.19-.06l-.22-9c.98-.02,1.99-.05,3.02-.07l.18,9c-1.01.02-2.01.04-2.98.07Zm-15.31-.12c-1.01-.04-2.03-.09-3.05-.15l.49-8.99c.99.05,1.97.1,2.95.14l-.39,8.99Zm21.29-.01l-.17-9,3.01-.05.15,9-3,.05Zm-337.46-.07l-2.51-8.64,2.88-.84,2.51,8.64-2.88.84Zm343.46-.03l-.14-9,3.01-.05.13,9-3,.04Zm6-.09l-.12-9,3-.04.13,9-3,.04Zm6-.08l-.12-9,3.01-.04.11,9-3,.04Zm-45.38-.05c-1.02-.07-2.03-.14-3.05-.22l.68-8.97c.98.08,1.97.15,2.95.21l-.59,8.98Zm51.38-.03l-.12-9,2.99-.04.14,9-3.01.04Zm6.01-.09l-.13-9,3-.04.14,9-3,.05Zm6.01-.1l-.15-9,2.99-.05.17,9-3.01.05Zm6.02-.11l-.18-9,2.99-.06.18,9-2.99.06Zm6-.12l-.2-9,2.99-.07.22,9-3.01.07Zm-81.51-.01c-1.01-.09-2.02-.18-3.03-.28l.85-8.96c.98.09,1.96.18,2.95.27l-.77,8.97Zm87.53-.14l-.24-9,3-.08.25,9-3.02.08Zm6.03-.17l-.28-9,2.99-.1.3,8.99-3.01.1Zm6.02-.2l-.32-8.99,2.98-.11.35,8.99-3.01.11Zm-105.64-.07c-1.01-.11-2.02-.21-3.02-.33l1-8.94c.98.11,1.96.22,2.95.32l-.94,8.95Zm111.67-.17l-.38-8.99,2.98-.13.41,8.99c-1,.05-2,.09-3.01.13Zm-403.85-.22l-2.52-8.64,2.88-.84,2.52,8.64-2.88.84Zm409.88-.06l-.46-8.99c1-.05,1.99-.1,2.98-.16l.49,8.99c-1,.05-2.01.11-3.02.16Zm-123.74-.23c-1.01-.12-2.01-.25-3.01-.37l1.14-8.93c.98.12,1.96.25,2.95.37l-1.07,8.94Zm129.78-.1l-.53-8.98c1-.06,1.99-.12,2.98-.18l.57,8.98c-1,.06-2,.12-3.01.18Zm6.04-.39l-.63-8.98c1-.07,1.99-.14,2.97-.22l.67,8.97c-1,.08-2,.15-3.02.22Zm-141.84-.28c-1.01-.14-2.01-.27-3.01-.42l1.27-8.91c.97.14,1.96.27,2.94.41l-1.2,8.92Zm147.88-.18l-.75-8.97c1-.08,1.98-.17,2.96-.26l.82,8.96c-1,.09-2.01.18-3.03.26Zm-422.24-.44l-2.51-8.64,2.88-.84,2.51,8.64-2.88.84Zm428.3-.12l-.9-8.96c1-.1,1.98-.2,2.94-.31l.99,8.95c-1,.11-2.01.22-3.03.32Zm-159.95-.11c-1.01-.15-2.01-.3-3-.45l1.38-8.89c.97.15,1.95.3,2.94.45l-1.32,8.9Zm166.02-.56l-1.09-8.93c.99-.12,1.96-.25,2.92-.38l1.22,8.92c-.99.13-2.01.27-3.04.39Zm-172-.37c-1.01-.16-2.01-.33-2.99-.49l1.49-8.88c.96.16,1.94.32,2.93.48l-1.43,8.89Zm178.09-.46l-1.36-8.9c.99-.15,1.95-.31,2.88-.47l1.53,8.87c-.99.17-2.01.34-3.05.5Zm-434.69-.06l-2.51-8.64,2.88-.84,2.51,8.64-2.88.84Zm250.62-.48c-1.01-.18-2.01-.35-2.98-.53l1.59-8.86c.96.17,1.94.34,2.94.52l-1.54,8.87Zm190.19-.53l-1.75-8.83c.97-.19,1.91-.39,2.8-.6l2.02,8.77c-.98.23-2.01.45-3.07.66Zm-435.45-.28l-1.56-8.86c.83-.15,1.84-.32,2.99-.51l1.49,8.88c-1.13.19-2.11.36-2.93.5Zm239.31-.26c-1.02-.19-2.02-.38-2.98-.56l1.69-8.84c.95.18,1.92.36,2.92.55l-1.63,8.85Zm-233.44-.73l-1.45-8.88c.94-.15,1.93-.31,2.99-.48l1.4,8.89c-1.04.16-2.02.32-2.94.47Zm435.75-.17l-2.4-8.67c.95-.26,1.82-.53,2.6-.8l2.94,8.51c-.96.33-2.01.66-3.14.97Zm-208.27-.23c-1.03-.2-2.03-.4-2.97-.59l1.79-8.82c.93.19,1.91.38,2.92.59l-1.75,8.83Zm-221.6-.52l-1.35-8.9c.97-.15,1.96-.3,3-.45l1.3,8.91c-1.01.15-2,.29-2.94.44Zm215.66-.69c-1.08-.23-2.07-.44-2.97-.63l1.9-8.8c.88.19,1.86.4,2.92.62l-1.85,8.81Zm-209.77-.18l-1.25-8.91c.98-.14,1.98-.28,3-.41l1.21,8.92c-1,.14-1.99.27-2.95.41Zm430.11-.49l-3.32-8.36,2.78-1.11,3.35,8.36-2.8,1.12Zm-424.22-.3l-1.15-8.93c.99-.13,1.99-.25,3.01-.38l1.09,8.93c-.99.12-1.98.25-2.95.37Zm197.93-.31c-1.93-.43-2.98-.69-2.98-.69l-.37-.11,1.33-4,1.14-4.65s0,0,.02,0h0c.18.04,1.16.28,2.82.65l-1.97,8.78Zm-192.04-.41l-1.03-8.94,3-.34,1,8.94-2.98.34Zm5.99-.68l-1.04-8.94,2.98-.35,1.05,8.94-3,.35Zm180.15-.29c-.97-.23-1.94-.45-2.9-.67l2.01-8.77c.97.22,1.95.45,2.94.68l-2.05,8.76Zm237.77-.24l-3.35-8.35c.94-.38,1.86-.75,2.77-1.12l3.38,8.34c-.92.37-1.85.75-2.8,1.13Zm-411.94-.17l-1.05-8.94,2.98-.35,1.06,8.94-2.99.35Zm5.98-.71l-1.07-8.94,2.99-.36,1.06,8.94-2.98.36Zm162.38-.21c-.97-.22-1.94-.43-2.9-.63l1.9-8.8c.98.21,1.96.43,2.96.65l-1.95,8.79Zm-156.41-.5l-1.08-8.94,2.99-.36,1.07,8.94-2.98.36Zm405.57-.66l-3.39-8.34,2.77-1.13,3.4,8.33-2.79,1.14Zm-399.59-.06l-1.08-8.94,2.98-.36,1.08,8.94-2.98.36Zm144.63-.03c-.98-.2-1.95-.4-2.91-.6l1.78-8.82c.98.2,1.97.4,2.97.61l-1.84,8.81Zm-138.66-.69l-1.08-8.93,2.98-.36,1.08,8.93-2.98.36Zm132.84-.49c-.98-.19-1.96-.38-2.92-.56l1.67-8.84c.98.18,1.97.38,2.97.57l-1.72,8.83Zm-126.88-.24l-1.09-8.93,2.99-.36,1.09,8.93-2.98.36Zm5.97-.73l-1.09-8.93,2.98-.36,1.1,8.93-2.99.37Zm387.27-.05l-3.43-8.32,2.77-1.14,3.44,8.32-2.78,1.15Zm-272.2-.08c-.98-.18-1.96-.35-2.93-.52l1.54-8.87c.98.17,1.98.35,2.98.53l-1.6,8.86Zm-109.11-.59l-1.09-8.93,2.98-.36,1.09,8.93-2.99.36Zm103.26-.43c-.99-.16-1.96-.32-2.93-.48l1.41-8.89c.99.16,1.99.32,2.99.49l-1.48,8.88Zm-97.29-.3l-1.09-8.93,2.98-.37,1.09,8.93-2.98.37Zm91.43-.63c-.99-.15-1.97-.3-2.93-.43l1.28-8.91c.99.14,1.99.29,3,.44l-1.35,8.9Zm-85.46-.1l-1.1-8.93,2.99-.37,1.09,8.93-2.98.37Zm374.93-.17l-3.46-8.31,2.76-1.15,3.48,8.3-2.78,1.16Zm-368.96-.56l-1.1-8.93,2.98-.37,1.1,8.93-2.99.37Zm73.62-.02c-.99-.13-1.97-.26-2.94-.39l1.14-8.93c.99.13,1.99.26,3.01.4l-1.21,8.92Zm-67.65-.72l-1.09-8.93,2.98-.37,1.1,8.93-2.99.37Zm61.77-.04c-1-.12-1.98-.23-2.94-.34l1-8.94c.99.11,2,.23,3.02.35l-1.07,8.94Zm-5.88-.66c-1-.1-1.99-.2-2.95-.29l.85-8.96c.99.09,1.99.19,3.02.3l-.92,8.95Zm-49.91-.04l-1.1-8.93,2.99-.37,1.09,8.93-2.99.37Zm362.57-.3l-3.49-8.29,2.75-1.16,3.52,8.29-2.78,1.17Zm-318.56-.22c-1-.08-1.99-.16-2.95-.24l.68-8.97c.99.08,2,.16,3.03.25l-.77,8.97Zm-38.03-.22l-1.1-8.93,3.01-.37,1.09,8.93-3,.37Zm32.13-.23c-1.01-.07-1.99-.13-2.95-.18l.5-8.99c.99.06,2,.12,3.04.19l-.59,8.98Zm-5.9-.33c-1.01-.05-1.99-.09-2.94-.12l.31-8.99c.99.03,2,.07,3.05.12l-.42,8.99Zm-20.52-.02l-.53-8.98c.85-.05,1.89-.1,3.09-.15l.34,8.99c-1.13.04-2.1.09-2.9.14Zm14.63-.19c-1.03-.02-2.01-.04-2.95-.05l.09-9c.97,0,1.99.03,3.05.05l-.2,9Zm-8.81-.03l-.17-9c.95-.02,1.97-.03,3.07-.03l.03,9c-1.05,0-2.02.02-2.93.03Zm350.61-1.12l-3.54-8.27c1.14-.49,2.06-.88,2.74-1.18l3.58,8.26c-.69.3-1.62.7-2.78,1.19Z"/><circle class="cls-6" cx="783.46" cy="458.59" r="10"/></g><g id="Track_numbers"><g id="_1"><circle cx="586.68" cy="348" r="11.47"/><path d="m586.68,337.53c5.78,0,10.47,4.69,10.47,10.47s-4.69,10.47-10.47,10.47-10.47-4.69-10.47-10.47,4.69-10.47,10.47-10.47m0-2c-6.88,0-12.47,5.59-12.47,12.47s5.59,12.47,12.47,12.47,12.47-5.59,12.47-12.47-5.6-12.47-12.47-12.47h0Z"/><text class="cls-2" transform="translate(578.48 352.14)"><tspan x="0" y="0">01</tspan></text></g><g id="_1-2"><circle cx="248.68" cy="313" r="11.47"/><path d="m248.68,302.53c5.78,0,10.47,4.69,10.47,10.47s-4.69,10.47-10.47,10.47-10.47-4.69-10.47-10.47,4.69-10.47,10.47-10.47m0-2c-6.88,0-12.47,5.59-12.47,12.47s5.59,12.47,12.47,12.47,12.47-5.59,12.47-12.47-5.6-12.47-12.47-12.47h0Z"/><text class="cls-2" transform="translate(240.48 317.14)"><tspan x="0" y="0">02</tspan></text></g><g id="_1-3"><circle cx="285.68" cy="382" r="11.47"/><path d="m285.68,371.53c5.78,0,10.47,4.69,10.47,10.47s-4.69,10.47-10.47,10.47-10.47-4.69-10.47-10.47,4.69-10.47,10.47-10.47m0-2c-6.88,0-12.47,5.59-12.47,12.47s5.59,12.47,12.47,12.47,12.47-5.59,12.47-12.47-5.6-12.47-12.47-12.47h0Z"/><text class="cls-2" transform="translate(277.48 386.14)"><tspan x="0" y="0">03</tspan></text></g><g id="_1-4"><circle cx="181.68" cy="379" r="11.47"/><path d="m181.68,368.53c5.78,0,10.47,4.69,10.47,10.47s-4.69,10.47-10.47,10.47-10.47-4.69-10.47-10.47,4.69-10.47,10.47-10.47m0-2c-6.88,0-12.47,5.59-12.47,12.47s5.59,12.47,12.47,12.47,12.47-5.59,12.47-12.47-5.6-12.47-12.47-12.47h0Z"/><text class="cls-2" transform="translate(173.48 383.14)"><tspan x="0" y="0">04</tspan></text></g><g id="_1-5"><circle cx="99.68" cy="601" r="11.47"/><path d="m99.68,590.53c5.78,0,10.47,4.69,10.47,10.47s-4.69,10.47-10.47,10.47-10.47-4.69-10.47-10.47,4.69-10.47,10.47-10.47m0-2c-6.88,0-12.47,5.59-12.47,12.47s5.59,12.47,12.47,12.47,12.47-5.59,12.47-12.47-5.6-12.47-12.47-12.47h0Z"/><text class="cls-2" transform="translate(91.48 605.14)"><tspan x="0" y="0">05</tspan></text></g><g id="_1-6"><circle cx="167.68" cy="650" r="11.47"/><path d="m167.68,639.53c5.78,0,10.47,4.69,10.47,10.47s-4.69,10.47-10.47,10.47-10.47-4.69-10.47-10.47,4.69-10.47,10.47-10.47m0-2c-6.88,0-12.47,5.59-12.47,12.47s5.59,12.47,12.47,12.47,12.47-5.59,12.47-12.47-5.6-12.47-12.47-12.47h0Z"/><text class="cls-2" transform="translate(159.48 654.14)"><tspan x="0" y="0">06</tspan></text></g><g id="_1-7"><circle cx="21.68" cy="774" r="11.47"/><path d="m21.68,763.53c5.78,0,10.47,4.69,10.47,10.47s-4.69,10.47-10.47,10.47-10.47-4.69-10.47-10.47,4.69-10.47,10.47-10.47m0-2c-6.88,0-12.47,5.59-12.47,12.47s5.59,12.47,12.47,12.47,12.47-5.59,12.47-12.47-5.6-12.47-12.47-12.47h0Z"/><text class="cls-2" transform="translate(13.48 778.14)"><tspan x="0" y="0">07</tspan></text></g><g id="_1-8"><circle cx="236.68" cy="774" r="11.47"/><path d="m236.68,763.53c5.78,0,10.47,4.69,10.47,10.47s-4.69,10.47-10.47,10.47-10.47-4.69-10.47-10.47,4.69-10.47,10.47-10.47m0-2c-6.88,0-12.47,5.59-12.47,12.47s5.59,12.47,12.47,12.47,12.47-5.59,12.47-12.47-5.6-12.47-12.47-12.47h0Z"/><text class="cls-2" transform="translate(228.48 778.14)"><tspan x="0" y="0">08</tspan></text></g><g id="_1-9"><circle cx="370.68" cy="776" r="11.47"/><path d="m370.68,765.53c5.78,0,10.47,4.69,10.47,10.47s-4.69,10.47-10.47,10.47-10.47-4.69-10.47-10.47,4.69-10.47,10.47-10.47m0-2c-6.88,0-12.47,5.59-12.47,12.47s5.59,12.47,12.47,12.47,12.47-5.59,12.47-12.47-5.6-12.47-12.47-12.47h0Z"/><text class="cls-2" transform="translate(362.48 780.14)"><tspan x="0" y="0">09</tspan></text></g><g id="_1-10"><circle cx="422.68" cy="649" r="11.47"/><path d="m422.68,638.53c5.78,0,10.47,4.69,10.47,10.47s-4.69,10.47-10.47,10.47-10.47-4.69-10.47-10.47,4.69-10.47,10.47-10.47m0-2c-6.88,0-12.47,5.59-12.47,12.47s5.59,12.47,12.47,12.47,12.47-5.59,12.47-12.47-5.6-12.47-12.47-12.47h0Z"/><text class="cls-2" transform="translate(414.48 653.14)"><tspan x="0" y="0">10</tspan></text></g><g id="_1-11"><circle cx="339.68" cy="554" r="11.47"/><path d="m339.68,543.53c5.78,0,10.47,4.69,10.47,10.47s-4.69,10.47-10.47,10.47-10.47-4.69-10.47-10.47,4.69-10.47,10.47-10.47m0-2c-6.88,0-12.47,5.59-12.47,12.47s5.59,12.47,12.47,12.47,12.47-5.59,12.47-12.47-5.6-12.47-12.47-12.47h0Z"/><text class="cls-2" transform="translate(331.48 558.14)"><tspan x="0" y="0">11</tspan></text></g><g id="_1-12"><circle cx="388.68" cy="489" r="11.47"/><path d="m388.68,478.53c5.78,0,10.47,4.69,10.47,10.47s-4.69,10.47-10.47,10.47-10.47-4.69-10.47-10.47,4.69-10.47,10.47-10.47m0-2c-6.88,0-12.47,5.59-12.47,12.47s5.59,12.47,12.47,12.47,12.47-5.59,12.47-12.47-5.6-12.47-12.47-12.47h0Z"/><text class="cls-2" transform="translate(380.48 493.14)"><tspan x="0" y="0">12</tspan></text></g><g id="_1-13"><circle cx="425.68" cy="558" r="11.47"/><path d="m425.68,547.53c5.78,0,10.47,4.69,10.47,10.47s-4.69,10.47-10.47,10.47-10.47-4.69-10.47-10.47,4.69-10.47,10.47-10.47m0-2c-6.88,0-12.47,5.59-12.47,12.47s5.59,12.47,12.47,12.47,12.47-5.59,12.47-12.47-5.6-12.47-12.47-12.47h0Z"/><text class="cls-2" transform="translate(417.48 562.14)"><tspan x="0" y="0">13</tspan></text></g><g id="_1-14"><circle cx="635.68" cy="489" r="11.47"/><path d="m635.68,478.53c5.78,0,10.47,4.69,10.47,10.47s-4.69,10.47-10.47,10.47-10.47-4.69-10.47-10.47,4.69-10.47,10.47-10.47m0-2c-6.88,0-12.47,5.59-12.47,12.47s5.59,12.47,12.47,12.47,12.47-5.59,12.47-12.47-5.6-12.47-12.47-12.47h0Z"/><text class="cls-2" transform="translate(627.48 493.14)"><tspan x="0" y="0">14</tspan></text></g><g id="_1-15"><circle cx="656.68" cy="562" r="11.47"/><path d="m656.68,551.53c5.78,0,10.47,4.69,10.47,10.47s-4.69,10.47-10.47,10.47-10.47-4.69-10.47-10.47,4.69-10.47,10.47-10.47m0-2c-6.88,0-12.47,5.59-12.47,12.47s5.59,12.47,12.47,12.47,12.47-5.59,12.47-12.47-5.6-12.47-12.47-12.47h0Z"/><text class="cls-2" transform="translate(648.48 566.14)"><tspan x="0" y="0">15</tspan></text></g><g id="_1-16"><circle cx="887.68" cy="397" r="11.47"/><path d="m887.68,386.53c5.78,0,10.47,4.69,10.47,10.47s-4.69,10.47-10.47,10.47-10.47-4.69-10.47-10.47,4.69-10.47,10.47-10.47m0-2c-6.88,0-12.47,5.59-12.47,12.47s5.59,12.47,12.47,12.47,12.47-5.59,12.47-12.47-5.6-12.47-12.47-12.47h0Z"/><text class="cls-2" transform="translate(879.48 401.14)"><tspan x="0" y="0">16</tspan></text></g><g id="_1-17"><circle cx="985.68" cy="326" r="11.47"/><path d="m985.68,315.53c5.78,0,10.47,4.69,10.47,10.47s-4.69,10.47-10.47,10.47-10.47-4.69-10.47-10.47,4.69-10.47,10.47-10.47m0-2c-6.88,0-12.47,5.59-12.47,12.47s5.59,12.47,12.47,12.47,12.47-5.59,12.47-12.47-5.6-12.47-12.47-12.47h0Z"/><text class="cls-2" transform="translate(977.48 330.14)"><tspan x="0" y="0">17</tspan></text></g><g id="_1-18"><circle cx="927.68" cy="225" r="11.47"/><path d="m927.68,214.53c5.78,0,10.47,4.69,10.47,10.47s-4.69,10.47-10.47,10.47-10.47-4.69-10.47-10.47,4.69-10.47,10.47-10.47m0-2c-6.88,0-12.47,5.59-12.47,12.47s5.59,12.47,12.47,12.47,12.47-5.59,12.47-12.47-5.6-12.47-12.47-12.47h0Z"/><text class="cls-2" transform="translate(919.48 229.14)"><tspan x="0" y="0">18</tspan></text></g><g id="_1-19"><circle cx="768.68" cy="342" r="11.47"/><path d="m768.68,331.53c5.78,0,10.47,4.69,10.47,10.47s-4.69,10.47-10.47,10.47-10.47-4.69-10.47-10.47,4.69-10.47,10.47-10.47m0-2c-6.88,0-12.47,5.59-12.47,12.47s5.59,12.47,12.47,12.47,12.47-5.59,12.47-12.47-5.6-12.47-12.47-12.47h0Z"/><text class="cls-2" transform="translate(760.48 346.14)"><tspan x="0" y="0">19</tspan></text></g></g><g id="Legend"><circle cx="82.04" cy="214.7" r="13"/><path d="m106.54,213.87v-2.36h8.94v2.36h-8.94Zm0,4.02v-2.38h8.94v2.38h-8.94Z"/><path d="m128.03,221.04h-3.47v-10.02h-3.14v-2.84h9.75v2.84h-3.13v10.02Z"/><path d="m143.94,208.18v7.74c0,1.08-.21,2.02-.62,2.81-.41.79-1.03,1.41-1.85,1.84-.82.43-1.85.65-3.09.65-1.77,0-3.12-.45-4.06-1.36-.93-.91-1.4-2.19-1.4-3.85v-7.82h3.49v7.55c0,.91.17,1.57.51,1.98.34.41.84.62,1.5.62.47,0,.86-.09,1.16-.27s.52-.46.66-.85c.14-.39.21-.89.21-1.5v-7.53h3.47Z"/><path d="m150.85,208.18c1.17,0,2.14.14,2.91.43.77.28,1.36.71,1.75,1.27.39.56.58,1.26.58,2.1,0,.52-.09,1-.26,1.43s-.43.81-.75,1.15c-.33.34-.71.63-1.17.88l3.75,5.6h-3.94l-2.73-4.68h-.88v4.68h-3.47v-12.86h4.21Zm-.05,2.63h-.69v2.94h.65c.53,0,.97-.12,1.31-.35.34-.23.51-.65.51-1.26,0-.42-.14-.74-.42-.98s-.74-.35-1.36-.35Z"/><path d="m171.08,221.04h-4.56l-4.7-9.06h-.08c.03.28.06.61.08.99s.04.78.06,1.18.03.76.03,1.09v5.8h-3.08v-12.86h4.54l4.68,8.94h.05c-.02-.28-.04-.61-.05-.98-.02-.37-.03-.75-.05-1.13-.01-.38-.02-.72-.02-1.01v-5.81h3.1v12.86Z"/><path d="m190.78,221.04h-4.56l-4.7-9.06h-.08c.03.28.06.61.08.99s.04.78.06,1.18.03.76.03,1.09v5.8h-3.08v-12.86h4.54l4.68,8.94h.05c-.02-.28-.04-.61-.05-.98-.02-.37-.03-.75-.05-1.13-.01-.38-.02-.72-.02-1.01v-5.81h3.1v12.86Z"/><path d="m204.49,208.18v7.74c0,1.08-.21,2.02-.62,2.81-.41.79-1.03,1.41-1.85,1.84-.82.43-1.85.65-3.09.65-1.77,0-3.12-.45-4.06-1.36-.93-.91-1.4-2.19-1.4-3.85v-7.82h3.49v7.55c0,.91.17,1.57.51,1.98.34.41.84.62,1.5.62.47,0,.86-.09,1.16-.27s.52-.46.66-.85c.14-.39.21-.89.21-1.5v-7.53h3.47Z"/><path d="m212.8,221.04l-2.63-9.26h-.08c.02.24.05.57.07.98.03.41.05.85.08,1.33s.04.93.04,1.37v5.59h-3.08v-12.86h4.63l2.68,9.13h.07l2.63-9.13h4.64v12.86h-3.19v-5.64c0-.4,0-.84.02-1.31s.03-.91.05-1.32c.02-.41.04-.74.06-.98h-.08l-2.59,9.25h-3.31Z"/><path d="m224.61,208.18h4.49c1.86,0,3.18.28,3.98.83.79.55,1.19,1.34,1.19,2.38,0,.56-.1,1.04-.3,1.43-.2.39-.46.7-.77.93-.31.23-.62.38-.95.47v.09c.35.09.7.23,1.05.44s.64.5.87.91c.23.4.35.95.35,1.63,0,.78-.2,1.45-.59,2.01-.4.56-.96,1-1.69,1.3-.73.3-1.6.45-2.61.45h-5.01v-12.86Zm3.47,4.93h1.05c.58,0,.98-.12,1.21-.36.23-.24.35-.53.35-.87s-.13-.62-.4-.8c-.27-.19-.68-.28-1.24-.28h-.98v2.3Zm0,2.54v2.7h1.22c.6,0,1.03-.13,1.27-.39.24-.26.36-.59.36-.98,0-.23-.05-.44-.15-.65-.1-.2-.28-.37-.52-.49s-.59-.19-1.02-.19h-1.15Z"/><path d="m244.39,221.04h-7.64v-12.86h7.64v2.79h-4.16v2.02h3.85v2.79h-3.85v2.43h4.16v2.83Z"/><path d="m250.85,208.18c1.17,0,2.14.14,2.91.43.77.28,1.36.71,1.75,1.27.39.56.58,1.26.58,2.1,0,.52-.09,1-.26,1.43s-.43.81-.75,1.15c-.33.34-.71.63-1.17.88l3.75,5.6h-3.94l-2.73-4.68h-.88v4.68h-3.47v-12.86h4.21Zm-.05,2.63h-.69v2.94h.65c.53,0,.97-.12,1.31-.35.34-.23.51-.65.51-1.26,0-.42-.14-.74-.42-.98s-.74-.35-1.36-.35Z"/><path d="m267.24,217.13c0,.7-.18,1.36-.53,1.98s-.9,1.13-1.64,1.52c-.74.39-1.7.58-2.87.58-.59,0-1.1-.03-1.54-.08-.44-.05-.85-.14-1.24-.26-.38-.12-.78-.28-1.19-.47v-3.1c.7.35,1.4.62,2.11.8.71.18,1.35.28,1.93.28.35,0,.63-.04.85-.12.22-.08.38-.19.49-.34.11-.14.16-.31.16-.5,0-.22-.08-.41-.23-.57s-.4-.32-.74-.49c-.34-.17-.79-.38-1.35-.63-.47-.22-.9-.45-1.29-.69-.38-.23-.71-.5-.99-.81-.27-.3-.48-.66-.63-1.06-.15-.4-.22-.88-.22-1.43,0-.83.2-1.52.61-2.08.41-.56.98-.98,1.71-1.26.73-.28,1.57-.42,2.53-.42.84,0,1.59.09,2.26.28.67.19,1.27.4,1.81.64l-1.06,2.68c-.55-.25-1.09-.45-1.63-.6-.53-.15-1.03-.22-1.49-.22-.3,0-.54.04-.73.11-.19.07-.33.17-.42.29s-.14.26-.14.42c0,.2.08.38.23.54.16.16.42.33.78.51.37.19.87.42,1.5.72.63.28,1.16.58,1.6.91.44.33.78.72,1.01,1.17.23.45.35,1.02.35,1.68Z"/><circle class="cls-5" cx="82.04" cy="134.7" r="13"/><path d="m82.04,148.7c-7.72,0-14-6.28-14-14s6.28-14,14-14,14,6.28,14,14-6.28,14-14,14Zm0-26c-6.62,0-12,5.38-12,12s5.38,12,12,12,12-5.38,12-12-5.38-12-12-12Z"/><path d="m106.54,133.87v-2.36h8.94v2.36h-8.94Zm0,4.02v-2.38h8.94v2.38h-8.94Z"/><path d="m133.28,134.33c0,1.5-.28,2.74-.84,3.73-.56.99-1.34,1.73-2.35,2.23-1.01.5-2.2.74-3.57.74h-4.16v-12.86h4.45c1.38,0,2.56.24,3.52.71s1.69,1.17,2.2,2.08c.5.92.75,2.04.75,3.36Zm-3.61.12c0-.78-.1-1.43-.31-1.94s-.52-.9-.94-1.15c-.42-.25-.94-.38-1.57-.38h-1.01v7.2h.77c1.06,0,1.83-.31,2.32-.92.49-.61.74-1.55.74-2.81Z"/><path d="m139.8,128.18c1.17,0,2.14.14,2.91.43.77.28,1.36.71,1.75,1.27.39.56.58,1.26.58,2.1,0,.52-.09,1-.26,1.43s-.43.81-.75,1.15c-.33.34-.71.63-1.17.88l3.75,5.6h-3.94l-2.73-4.68h-.88v4.68h-3.47v-12.86h4.21Zm-.05,2.63h-.69v2.94h.65c.53,0,.97-.12,1.31-.35.34-.23.51-.65.51-1.26,0-.42-.14-.74-.42-.98s-.74-.35-1.36-.35Z"/><path d="m156.18,137.13c0,.7-.18,1.36-.53,1.98s-.9,1.13-1.64,1.52c-.74.39-1.7.58-2.87.58-.59,0-1.1-.03-1.54-.08-.44-.05-.85-.14-1.24-.26-.38-.12-.78-.28-1.19-.47v-3.1c.7.35,1.4.62,2.11.8.71.18,1.35.28,1.93.28.35,0,.63-.04.85-.12.22-.08.38-.19.49-.34.11-.14.16-.31.16-.5,0-.22-.08-.41-.23-.57s-.4-.32-.74-.49c-.34-.17-.79-.38-1.35-.63-.47-.22-.9-.45-1.29-.69-.38-.23-.71-.5-.99-.81-.27-.3-.48-.66-.63-1.06-.15-.4-.22-.88-.22-1.43,0-.83.2-1.52.61-2.08.41-.56.98-.98,1.71-1.26.73-.28,1.57-.42,2.53-.42.84,0,1.59.09,2.26.28.67.19,1.27.4,1.81.64l-1.06,2.68c-.55-.25-1.09-.45-1.63-.6-.53-.15-1.03-.22-1.49-.22-.3,0-.54.04-.73.11-.19.07-.33.17-.42.29s-.14.26-.14.42c0,.2.08.38.23.54.16.16.42.33.78.51.37.19.87.42,1.5.72.63.28,1.16.58,1.6.91.44.33.78.72,1.01,1.17.23.45.35,1.02.35,1.68Z"/><path d="m173.77,134.33c0,1.5-.28,2.74-.84,3.73-.56.99-1.34,1.73-2.35,2.23-1.01.5-2.2.74-3.57.74h-4.16v-12.86h4.45c1.38,0,2.56.24,3.52.71s1.69,1.17,2.2,2.08c.5.92.75,2.04.75,3.36Zm-3.61.12c0-.78-.1-1.43-.31-1.94s-.52-.9-.94-1.15c-.42-.25-.94-.38-1.57-.38h-1.01v7.2h.77c1.06,0,1.83-.31,2.32-.92.49-.61.74-1.55.74-2.81Z"/><path d="m183.71,141.04h-7.64v-12.86h7.64v2.79h-4.16v2.02h3.85v2.79h-3.85v2.43h4.16v2.83Z"/><path d="m191.63,141.04h-3.47v-10.02h-3.14v-2.84h9.75v2.84h-3.13v10.02Z"/><path d="m204.24,141.04h-7.64v-12.86h7.64v2.79h-4.16v2.02h3.85v2.79h-3.85v2.43h4.16v2.83Z"/><path d="m212.22,130.84c-.41,0-.78.09-1.1.26s-.6.42-.83.75c-.23.33-.4.73-.52,1.2-.12.47-.18,1.01-.18,1.61,0,.81.1,1.49.31,2.04.21.55.52.97.94,1.25.42.28.95.42,1.58.42.58,0,1.13-.08,1.66-.24.53-.16,1.07-.35,1.61-.57v2.94c-.57.25-1.15.43-1.75.55-.59.11-1.23.17-1.9.17-1.4,0-2.54-.28-3.43-.83-.89-.55-1.54-1.32-1.96-2.31-.42-.99-.63-2.13-.63-3.43,0-.97.14-1.86.41-2.67.27-.81.67-1.51,1.2-2.11.53-.6,1.18-1.06,1.96-1.38.78-.33,1.67-.49,2.67-.49.62,0,1.28.07,1.97.22.69.14,1.36.37,2.02.69l-1.06,2.74c-.47-.22-.94-.41-1.42-.56-.48-.15-.99-.23-1.53-.23Z"/><path d="m223.86,141.04h-3.47v-10.02h-3.14v-2.84h9.75v2.84h-3.13v10.02Z"/><path d="m228.83,141.04v-12.86h3.49v12.86h-3.49Z"/><path d="m247.13,134.59c0,.99-.12,1.89-.36,2.7-.24.81-.61,1.51-1.11,2.1-.5.59-1.15,1.04-1.94,1.35-.79.31-1.74.47-2.84.47s-2.01-.16-2.8-.47c-.79-.31-1.44-.76-1.95-1.35-.51-.58-.89-1.28-1.13-2.1-.25-.81-.37-1.72-.37-2.73,0-1.34.22-2.5.66-3.49.44-.99,1.13-1.75,2.05-2.3s2.11-.81,3.55-.81,2.66.27,3.58.82,1.59,1.31,2.02,2.3c.43.99.64,2.15.64,3.49Zm-8.85,0c0,.77.09,1.44.26,2s.46.99.84,1.28c.38.3.88.45,1.5.45s1.15-.15,1.53-.45c.38-.3.65-.73.82-1.28s.25-1.22.25-2c0-1.16-.19-2.08-.58-2.75s-1.05-1.01-2-1.01c-.63,0-1.13.15-1.52.46-.38.31-.66.74-.83,1.3s-.26,1.23-.26,2.01Z"/><path d="m261.7,141.04h-4.56l-4.7-9.06h-.08c.03.28.06.61.08.99s.04.78.06,1.18.03.76.03,1.09v5.8h-3.08v-12.86h4.54l4.68,8.94h.05c-.02-.28-.04-.61-.05-.98-.02-.37-.03-.75-.05-1.13-.01-.38-.02-.72-.02-1.01v-5.81h3.1v12.86Z"/><path d="m278.32,141.04h-10.02v-2.15l5.57-7.91h-5.44v-2.81h9.75v2.14l-5.57,7.92h5.71v2.81Z"/><path d="m292.2,134.59c0,.99-.12,1.89-.36,2.7-.24.81-.61,1.51-1.11,2.1-.5.59-1.15,1.04-1.94,1.35-.79.31-1.74.47-2.84.47s-2.01-.16-2.8-.47c-.79-.31-1.44-.76-1.95-1.35-.51-.58-.89-1.28-1.13-2.1-.25-.81-.37-1.72-.37-2.73,0-1.34.22-2.5.66-3.49.44-.99,1.13-1.75,2.05-2.3s2.11-.81,3.55-.81,2.66.27,3.58.82,1.59,1.31,2.02,2.3c.43.99.64,2.15.64,3.49Zm-8.85,0c0,.77.09,1.44.26,2s.46.99.84,1.28c.38.3.88.45,1.5.45s1.15-.15,1.53-.45c.38-.3.65-.73.82-1.28s.25-1.22.25-2c0-1.16-.19-2.08-.58-2.75s-1.05-1.01-2-1.01c-.63,0-1.13.15-1.52.46-.38.31-.66.74-.83,1.3s-.26,1.23-.26,2.01Z"/><path d="m306.76,141.04h-4.56l-4.7-9.06h-.08c.03.28.06.61.08.99s.04.78.06,1.18.03.76.03,1.09v5.8h-3.08v-12.86h4.54l4.68,8.94h.05c-.02-.28-.04-.61-.05-.98-.02-.37-.03-.75-.05-1.13-.01-.38-.02-.72-.02-1.01v-5.81h3.1v12.86Z"/><path d="m317.18,141.04h-7.64v-12.86h7.64v2.79h-4.16v2.02h3.85v2.79h-3.85v2.43h4.16v2.83Z"/><path d="m106.54,172.87v-2.36h8.94v2.36h-8.94Zm0,4.02v-2.38h8.94v2.38h-8.94Z"/><path d="m133.28,173.33c0,1.5-.28,2.74-.84,3.73-.56.99-1.34,1.73-2.35,2.23-1.01.5-2.2.74-3.57.74h-4.16v-12.86h4.45c1.38,0,2.56.24,3.52.71s1.69,1.17,2.2,2.08c.5.92.75,2.04.75,3.36Zm-3.61.12c0-.78-.1-1.43-.31-1.94s-.52-.9-.94-1.15c-.42-.25-.94-.38-1.57-.38h-1.01v7.2h.77c1.06,0,1.83-.31,2.32-.92.49-.61.74-1.55.74-2.81Z"/><path d="m139.8,167.18c1.17,0,2.14.14,2.91.43.77.28,1.36.71,1.75,1.27.39.56.58,1.26.58,2.1,0,.52-.09,1-.26,1.43s-.43.81-.75,1.15c-.33.34-.71.63-1.17.88l3.75,5.6h-3.94l-2.73-4.68h-.88v4.68h-3.47v-12.86h4.21Zm-.05,2.63h-.69v2.94h.65c.53,0,.97-.12,1.31-.35.34-.23.51-.65.51-1.26,0-.42-.14-.74-.42-.98s-.74-.35-1.36-.35Z"/><path d="m156.18,176.13c0,.7-.18,1.36-.53,1.98s-.9,1.13-1.64,1.52c-.74.39-1.7.58-2.87.58-.59,0-1.1-.03-1.54-.08-.44-.05-.85-.14-1.24-.26-.38-.12-.78-.28-1.19-.47v-3.1c.7.35,1.4.62,2.11.8.71.18,1.35.28,1.93.28.35,0,.63-.04.85-.12.22-.08.38-.19.49-.34.11-.14.16-.31.16-.5,0-.22-.08-.41-.23-.57s-.4-.32-.74-.49c-.34-.17-.79-.38-1.35-.63-.47-.22-.9-.45-1.29-.69-.38-.23-.71-.5-.99-.81-.27-.3-.48-.66-.63-1.06-.15-.4-.22-.88-.22-1.43,0-.83.2-1.52.61-2.08.41-.56.98-.98,1.71-1.26.73-.28,1.57-.42,2.53-.42.84,0,1.59.09,2.26.28.67.19,1.27.4,1.81.64l-1.06,2.68c-.55-.25-1.09-.45-1.63-.6-.53-.15-1.03-.22-1.49-.22-.3,0-.54.04-.73.11-.19.07-.33.17-.42.29s-.14.26-.14.42c0,.2.08.38.23.54.16.16.42.33.78.51.37.19.87.42,1.5.72.63.28,1.16.58,1.6.91.44.33.78.72,1.01,1.17.23.45.35,1.02.35,1.68Z"/><path d="m172.02,180.04h-10.02v-2.15l5.57-7.91h-5.44v-2.81h9.75v2.14l-5.57,7.92h5.71v2.81Z"/><path d="m185.89,173.59c0,.99-.12,1.89-.36,2.7-.24.81-.61,1.51-1.11,2.1-.5.59-1.15,1.04-1.94,1.35-.79.31-1.74.47-2.84.47s-2.01-.16-2.8-.47c-.79-.31-1.44-.76-1.95-1.35-.51-.58-.89-1.28-1.13-2.1-.25-.81-.37-1.72-.37-2.73,0-1.34.22-2.5.66-3.49.44-.99,1.13-1.75,2.05-2.3s2.11-.81,3.55-.81,2.66.27,3.58.82,1.59,1.31,2.02,2.3c.43.99.64,2.15.64,3.49Zm-8.85,0c0,.77.09,1.44.26,2s.46.99.84,1.28c.38.3.88.45,1.5.45s1.15-.15,1.53-.45c.38-.3.65-.73.82-1.28s.25-1.22.25-2c0-1.16-.19-2.08-.58-2.75s-1.05-1.01-2-1.01c-.63,0-1.13.15-1.52.46-.38.31-.66.74-.83,1.3s-.26,1.23-.26,2.01Z"/><path d="m200.46,180.04h-4.56l-4.7-9.06h-.08c.03.28.06.61.08.99s.04.78.06,1.18.03.76.03,1.09v5.8h-3.08v-12.86h4.54l4.68,8.94h.05c-.02-.28-.04-.61-.05-.98-.02-.37-.03-.75-.05-1.13-.01-.38-.02-.72-.02-1.01v-5.81h3.1v12.86Z"/><path d="m210.87,180.04h-7.64v-12.86h7.64v2.79h-4.16v2.02h3.85v2.79h-3.85v2.43h4.16v2.83Z"/><path d="m221.53,176.13c0,.7-.18,1.36-.53,1.98s-.9,1.13-1.64,1.52c-.74.39-1.7.58-2.87.58-.59,0-1.1-.03-1.54-.08-.44-.05-.85-.14-1.24-.26-.38-.12-.78-.28-1.19-.47v-3.1c.7.35,1.4.62,2.11.8.71.18,1.35.28,1.93.28.35,0,.63-.04.85-.12.22-.08.38-.19.49-.34.11-.14.16-.31.16-.5,0-.22-.08-.41-.23-.57s-.4-.32-.74-.49c-.34-.17-.79-.38-1.35-.63-.47-.22-.9-.45-1.29-.69-.38-.23-.71-.5-.99-.81-.27-.3-.48-.66-.63-1.06-.15-.4-.22-.88-.22-1.43,0-.83.2-1.52.61-2.08.41-.56.98-.98,1.71-1.26.73-.28,1.57-.42,2.53-.42.84,0,1.59.09,2.26.28.67.19,1.27.4,1.81.64l-1.06,2.68c-.55-.25-1.09-.45-1.63-.6-.53-.15-1.03-.22-1.49-.22-.3,0-.54.04-.73.11-.19.07-.33.17-.42.29s-.14.26-.14.42c0,.2.08.38.23.54.16.16.42.33.78.51.37.19.87.42,1.5.72.63.28,1.16.58,1.6.91.44.33.78.72,1.01,1.17.23.45.35,1.02.35,1.68Z"/><path class="cls-5" d="m95.04,185.7h-2.5v-23h2.5v23Zm-5.5,0h-3v-23h3v23Zm-6,0h-3v-23h3v23Zm-6,0h-3v-23h3v23Zm-6,0h-3v-23h3v23Z"/><path class="cls-1" d="m81.52,213.47c0,.84-.07,1.59-.2,2.26s-.35,1.23-.64,1.69-.68.82-1.17,1.06c-.48.24-1.08.37-1.78.37-.88,0-1.59-.21-2.15-.64-.56-.43-.97-1.04-1.24-1.84-.26-.8-.4-1.76-.4-2.89s.12-2.1.36-2.91c.24-.81.64-1.42,1.19-1.85.55-.43,1.3-.65,2.23-.65.88,0,1.59.21,2.15.64.56.43.97,1.04,1.24,1.85.27.81.4,1.78.4,2.92Zm-4.75,0c0,.68.02,1.26.08,1.72.05.46.15.81.29,1.04.14.23.34.35.61.35s.46-.12.6-.35.23-.58.29-1.04.08-1.04.08-1.72-.03-1.27-.08-1.74-.15-.81-.29-1.05-.34-.35-.6-.35-.46.12-.61.35c-.14.24-.24.59-.29,1.05-.05.46-.08,1.04-.08,1.74Z"/><path class="cls-1" d="m88.79,218.7h-2.88v-5.71c0-.26,0-.54.01-.85,0-.31.02-.59.03-.84-.12.15-.24.27-.35.38-.11.11-.21.2-.31.29l-1.19.98-1.47-1.81,3.6-2.93h2.55v10.48Z"/></g></svg>