<?xml version="1.0" encoding="UTF-8"?><svg id="Interlagos_Detailed" xmlns="http://www.w3.org/2000/svg" viewBox="0 0 1000 1000"><defs><style>.cls-1,.cls-2{fill:#fff;}.cls-3{fill:#fae44a;}.cls-4{fill:#db4a25;}.cls-5{fill:#1bce20;}.cls-6{fill:#75e5fd;}.cls-2{font-family:OpenSans-Regular, 'Open Sans';font-size:12.58px;font-variation-settings:'wght' 400, 'wdth' 100;}</style></defs><path class="cls-6" d="M572,765.85c-142.73-36.83-402.88-106.4-417.58-110.33-1.24-.35-30.03-8.55-51.67-29.17-15.38-14.65-49.21-58.98-49.56-95.3-.29-30.58,6.11-55.06,19.58-74.85,11.87-17.43,14.79-29.65,13.09-31.59-2.9-3.31-8.22-8.08-13.85-13.13-11.25-10.09-24-21.53-28.64-30.51-10.08-19.53,4.12-39.77,8.71-45.51,5.61-7.02,19.31-20.05,48-28.47,37.88-11.13,193.01-54.3,194.58-54.74l.25-.07,9.46,32.39,.08,.28-191.95,52.82c-9.5,3.24-34.69,13.93-38.03,24.72-1.18,3.82,6.03,11.87,11.52,16.37l.11,.09c.76,.73,18.88,17.84,25.94,26.21,6.26,7.42,10.25,13.06,8.88,23.51-1.38,10.51-7.81,27.63-14.33,38.15l-.28,.45c-6.85,11.07-21.11,34.1-18.57,61.29,3.23,34.61,26.58,66.13,46.92,80.78,15.76,11.36,36.55,17.35,47.55,19.92,.5,.11,.8,.19,.9,.22,43.75,13.68,270.12,71.3,397.56,103.54"/><path class="cls-3" d="M812.57,275.25m-232.38,457.54c50.55,12.78,85.65,21.6,87.84,22.16,4.03,.67,15.37,1.72,20.53-1.3,6.25-3.66,9.35-7.48,12.33-21.67,2.96-14.06,10.35-63.83,10.69-66.18,.11-1.68,1.72-30.2-5.75-45.02-5.8-11.51-15.64-23.09-27.71-32.6-11.23-8.86-226.01-162.06-228.17-163.6l-.14-.11c-.93-.79-22.75-19.59-26.22-44.83-2.98-21.69-2.06-51.91,5.46-67.68,12.63-26.51,28.18-42.81,46.23-48.45,15.05-4.71,86.4-21.03,106.8-21.03s32.99,1.33,42.62,19.18c9.94,18.43,1.59,40.4-1.21,46.7-3.22,7.22-7.94,12.81-12.1,17.74-5.72,6.77-10.66,12.61-10.2,20.65,.2,3.5,5.58,11.04,13.89,15.37,4.68,2.43,11.63,4.47,18.21,.4,11.52-7.13,31.66-27.22,47.85-43.35,6.15-6.13,11.96-11.93,16.68-16.4,10.06-9.54,43.24-24.89,85.51-29.13,29.33-2.95,37.93,6.85,43.7,16.26,7.55,12.34,4.93,29.4-6.38,41.48-4.36,4.65-15.73,15.34-28.89,27.72-20.29,19.08-45.55,42.83-51.05,50.23-2.92,3.93-12,18.91-6.03,46.38,2.86,13.19,14.47,29.45,25.88,36.24,5.44,3.24,32.77,20.27,60.94,37.87l-14.7,29.69-73.48-45.79c-17.56-12.49-23.26-26.97-27.42-37.54l-.06-.16c-5.27-13.4-7.76-38.76-5.03-51.2,.29-1.33,.57-2.73,.86-4.2,1.92-9.79,4.55-23.21,17.01-38.02,13.83-15.69,70.34-66.16,73.35-68.85,2.98-3.01,5.29-6.88,4.74-7.98-.23-.47-1.9-1.19-6.6-.58-15.11,1.95-54.51,13.36-60.58,16.62-6.73,3.62-12.19,7.87-22.65,16.63-3.28,2.75-9.34,8.96-16.36,16.14-17.05,17.47-38.26,39.21-48.05,41.46-20.15,4.65-37.37,1.79-51.17-8.51-16.83-12.56-24.94-31.85-24.03-43.63,.87-11.41,4.55-22.3,10.08-29.88,2.81-3.86,6.15-7.64,9.37-11.29,7.69-8.71,14.95-16.93,11.84-22.66-4.6-8.5-13.59-7.08-35.29-2.74-3.09,.62-7.14,1.41-11.78,2.32-21.94,4.27-58.66,11.44-65.15,14.39-16.42,7.49-21.7,20.27-25.93,30.54-.3,.72-.59,1.42-.88,2.12-4.87,11.64-5.83,29.82-2.44,46.31,1.54,7.5,5.39,18.82,20.94,30.46,18.14,13.59,213.48,152.28,215.45,153.68l.1,.07c1.48,1.19,36.34,29.62,45.85,62.27,9.47,32.5,2.89,71.03,2.61,72.65-.41,2.4-10.18,58.96-16.36,68.89-3.98,6.38-11.39,18.28-26.28,23.79-8.71,3.23-15.81,4.41-23.22,4.41-4.19,0-8.48-.38-13.22-.98-6.06-.77-41.78-9.7-91.73-22.59"/><path class="cls-4" d="M821.5,529.82c33.4,20.86,67.98,42.52,68.62,42.92,2.04,1.28,5.02,2.43,6.07,2.04,2.05-.77,5.49-7.27,7.5-12.85l24.3-64.15c.47-2.27,6.93-36.47-13.57-91.5-12.97-34.82-38.83-85.04-55.2-101.41-15.4-15.4-29.79-24.54-46.65-29.62-15.83-4.78-205.68-46.78-207.6-47.2-.23-.06-15.71-4.02-40.34-3.02-24.45,.99-33.28,2.65-52.65,6.3l-1.61,.31c-20.03,3.77-189.71,49.1-191.42,49.56l-.79,.21-.1-.34-.11-.38-9.39-32.12,192.07-48.67c.44-.09,36.13-7.47,61.84-6.95,33.07,.68,42.52,2.79,52.53,5.03,1.31,.29,2.63,.59,4.01,.88,12,2.56,182.05,38.81,182.05,38.81,1.9,.47,45.44,11.31,67.24,29.53,21.7,18.13,42.69,51.9,43.57,53.33,.36,.61,33.68,57.7,43.5,109.19,4.24,22.24,9.46,53.73,5.77,70.42-3.82,17.33-31.35,86.08-32.52,89l-.05,.12c-.31,.64-7.79,15.68-26.41,18.13-14.08,1.86-23.69-2.93-31.98-8.39l-63.52-39.58,14.84-29.6ZM294.66,252.25l.25-.07,9.46,32.39,.08,.28m425.14,36.96"/><path d="M676.24,790.23c-3.83,0-7.94-.3-13.35-.99-21.9-2.79-426.28-110.72-507.12-132.33l-1.61-.43c-1.24-.35-30.41-8.74-52.1-29.41-15.47-14.74-49.52-59.38-49.87-96.01-.29-30.79,6.17-55.46,19.75-75.42,12-17.62,14.31-29.01,13.16-30.37-2.85-3.25-8.13-7.99-13.71-13-11.36-10.19-24.18-21.69-28.91-30.84-10.35-20.06,4.13-40.73,8.82-46.59,5.68-7.11,19.54-20.3,48.5-28.81,33.1-9.73,155.94-43.98,192.8-54.24l2.99-.84,10.1,34.6-.97,.27-191.95,52.82c-9.26,3.16-34.13,13.67-37.34,24.05-.9,2.92,5.06,10.27,11.2,15.3l.53,.49c5.72,5.44,19.66,18.84,25.65,25.94,6.43,7.62,10.53,13.42,9.11,24.28-1.4,10.63-7.89,27.92-14.47,38.55l-.28,.45c-6.8,10.99-20.93,33.83-18.42,60.67,3.2,34.3,26.35,65.54,46.51,80.06,15.59,11.24,36.26,17.2,47.19,19.76,.53,.12,.85,.2,.96,.24,55.85,17.47,411.54,107.11,482.28,124.91l2.59,.65c3.79,.63,14.89,1.67,19.78-1.19,5.99-3.5,8.96-7.2,11.86-21.01,3.03-14.38,10.61-65.63,10.68-66.12,.01-.22,1.83-29.57-5.65-44.43-5.74-11.39-15.48-22.85-27.44-32.26-11.27-8.89-225.97-162.03-228.13-163.57l-.18-.14c-.97-.82-23.07-19.85-26.59-45.48-3-21.84-2.06-52.29,5.55-68.25,12.75-26.77,28.51-43.25,46.83-48.97,15.08-4.72,86.6-21.08,107.1-21.08s33.61,1.37,43.5,19.71c10.16,18.84,1.67,41.18-1.18,47.58-3.28,7.34-8.04,12.99-12.24,17.97-5.6,6.63-10.41,12.33-9.98,19.96,.18,3.19,5.48,10.43,13.35,14.54,4.45,2.31,11.04,4.26,17.22,.44,11.36-7.03,31.34-26.93,47.39-42.93l.92-.91c5.91-5.89,11.5-11.46,16.06-15.78,10.17-9.64,43.6-25.14,86.1-29.4,4.8-.48,9.06-.63,12.85-.49-49.69-11.8-189.73-42.78-191.32-43.13-.19-.05-15.72-3.99-40.09-3-24.4,.99-33.21,2.65-52.51,6.28l-1.61,.31c-19.82,3.73-189.67,49.09-191.35,49.54l-1.73,.46-.49-1.66-9.68-33.11,193.08-48.92c1.56-.32,36.82-7.5,62.11-6.98,33.19,.68,42.68,2.81,52.73,5.05l1.08,.24c.95,.21,1.92,.43,2.92,.64,12,2.56,182.05,38.81,182.05,38.81,4.7,1.16,46.23,11.82,67.67,29.74,22.03,18.4,43.57,53.22,43.78,53.57,.35,.59,33.73,57.61,43.63,109.53,4.26,22.34,9.49,53.98,5.76,70.82h0c-3.74,16.96-29.63,81.82-32.57,89.16l-.06,.13c-.34,.71-8.05,16.22-27.2,18.74-14.41,1.91-24.21-2.98-32.66-8.55l-136.84-85.27c-17.85-12.7-23.62-27.33-27.82-38.02l-.07-.18c-5.32-13.52-7.83-39.17-5.07-51.76,.29-1.32,.57-2.72,.86-4.18,1.94-9.91,4.6-23.47,17.23-38.47,13.43-15.24,67.31-63.46,73.4-68.91,2.83-2.86,4.45-5.83,4.53-6.75-.39-.17-1.81-.59-5.55-.11-15.01,1.94-54.19,13.27-60.23,16.51-6.64,3.57-12.07,7.79-22.48,16.51-3.17,2.66-9.05,8.67-15.85,15.63l-.44,.45c-17.17,17.59-38.47,39.42-48.54,41.74-20.46,4.72-37.95,1.8-51.99-8.68-17.11-12.77-25.36-32.46-24.43-44.51,.88-11.58,4.63-22.66,10.27-30.39,2.82-3.87,6.14-7.64,9.36-11.29l.07-.08c7.45-8.44,14.49-16.41,11.71-21.52-4.26-7.88-13.03-6.47-34.21-2.24-2.47,.5-5.55,1.1-9.05,1.79l-2.73,.54c-20.43,3.98-58.45,11.37-64.93,14.32-16.08,7.33-21.26,19.91-25.42,30.01l-.88,2.12c-4.8,11.47-5.74,29.42-2.39,45.73,1.51,7.34,5.28,18.42,20.56,29.86,16.48,12.35,181.18,129.34,214.03,152.67l1.49,1.06c1.55,1.24,36.6,29.73,46.24,62.81,9.47,32.5,2.92,71.46,2.64,73.1-.41,2.4-10.15,59.04-16.5,69.25-4.06,6.51-11.59,18.58-26.78,24.2-8.34,3.09-15.61,4.47-23.57,4.47ZM294.23,253.41l-1.09,.3c-36.86,10.27-159.68,44.51-192.77,54.24-28.44,8.35-41.97,21.21-47.5,28.13-4.5,5.62-18.4,25.44-8.6,44.43,4.56,8.83,17.24,20.2,28.42,30.23,5.68,5.1,11,9.87,13.93,13.21,2.54,2.89-2.09,16.77-13.02,32.81-13.35,19.61-19.69,43.91-19.41,74.28,.35,36,33.97,80.03,49.25,94.59,21.34,20.33,50.04,28.59,51.25,28.93l1.6,.43c80.82,21.6,485.08,129.5,506.86,132.27,5.32,.67,9.35,.97,13.09,.97,7.71,0,14.76-1.34,22.87-4.35,14.55-5.39,21.85-17.08,25.77-23.36,6.16-9.89,16.14-67.96,16.24-68.55,.28-1.62,6.76-40.14-2.58-72.2-9.46-32.48-44.05-60.59-45.52-61.77l-.04-.03-1.41-1c-32.85-23.33-197.57-140.34-214.07-152.7-15.83-11.85-19.75-23.4-21.32-31.06-3.43-16.67-2.45-35.08,2.5-46.9l.88-2.12c4.29-10.42,9.64-23.4,26.44-31.07,6.69-3.04,44.87-10.47,65.37-14.46l2.73-.54c3.5-.69,6.58-1.29,9.04-1.78,22.21-4.44,31.43-5.88,36.37,3.25,3.44,6.34-4.04,14.81-11.96,23.79l-.08,.09c-3.19,3.61-6.48,7.35-9.24,11.14-5.43,7.44-9.04,18.15-9.89,29.37-.89,11.51,7.09,30.41,23.63,42.75,13.55,10.11,30.49,12.92,50.35,8.34,9.49-2.18,30.57-23.78,47.51-41.13l.49-.5c6.84-7,12.75-13.04,16-15.76,10.52-8.81,16.02-13.09,22.82-16.74,6.13-3.29,45.77-14.78,60.93-16.73,4.29-.55,7-.15,7.63,1.13,1,2-2.49,6.66-4.93,9.12l-.09,.08c-6.09,5.44-59.88,53.59-73.22,68.72-12.27,14.59-14.88,27.86-16.78,37.54-.29,1.49-.57,2.89-.87,4.23-2.7,12.29-.23,37.37,4.98,50.62l.07,.18c4.11,10.44,9.74,24.76,27.06,37.07l136.81,85.25c8.15,5.36,17.56,10.06,31.32,8.25,18.09-2.38,25.34-16.96,25.64-17.58l.03-.07c1.16-2.91,28.7-71.74,32.47-88.83h0c3.64-16.49-1.55-47.86-5.78-70.02-9.84-51.57-43.04-108.3-43.38-108.87-.2-.33-21.57-34.88-43.35-53.07-21.47-17.94-65-28.87-66.84-29.33h0s-170.02-36.24-182.02-38.8c-1-.21-1.98-.43-2.94-.64l-1.08-.24c-9.95-2.23-19.34-4.33-52.33-5.01-25.05-.52-60.12,6.62-61.6,6.92l-191.04,48.41,9.04,30.91c5.96-1.6,171.35-45.77,191.34-49.53l1.61-.31c19.4-3.66,28.25-5.32,52.8-6.32,24.66-1.01,39.99,2.88,40.63,3.05,1.82,.4,191.74,42.41,207.64,47.21,17.02,5.13,31.54,14.34,47.07,29.87,16.46,16.46,42.42,66.84,55.43,101.77,20.76,55.73,13.91,90.59,13.61,92.05l-.04,.15-24.3,64.15c-1.74,4.82-5.33,12.4-8.08,13.43-1.63,.61-5.13-.98-6.95-2.13-.98-.62-117.53-73.62-129.54-80.78-11.62-6.91-23.43-23.46-26.35-36.89-6.06-27.88,3.22-43.17,6.2-47.19,5.54-7.46,30.78-31.19,51.06-50.26l.59-.56c12.92-12.15,24.08-22.65,28.36-27.22,11-11.75,13.58-28.31,6.26-40.27-5.61-9.15-14.01-18.68-42.75-15.79-42.03,4.21-74.96,19.41-84.92,28.86-4.55,4.31-10.12,9.87-16.03,15.75l-.92,.91c-16.13,16.07-36.2,36.06-47.75,43.21-6.98,4.32-14.29,2.19-19.2-.36-8.2-4.27-14.19-11.97-14.43-16.2-.48-8.43,4.57-14.41,10.42-21.34,4.14-4.91,8.81-10.43,11.96-17.52,2.75-6.19,10.97-27.78,1.24-45.82-9.36-17.36-22.61-18.65-41.74-18.65-20.34,0-91.49,16.28-106.5,20.98-17.77,5.55-33.12,21.68-45.63,47.93-7.44,15.6-8.33,45.57-5.37,67.12,3.42,24.88,24.96,43.42,25.88,44.2l.11,.09c2.13,1.51,216.87,154.69,228.17,163.6,12.18,9.6,22.12,21.29,27.98,32.93,7.73,15.33,5.94,44.31,5.85,45.54-.08,.57-7.67,51.89-10.71,66.32-3.06,14.56-6.28,18.51-12.8,22.33-6.51,3.81-21.05,1.45-21.2,1.42l-2.67-.67c-70.75-17.79-426.49-107.45-482.38-124.93-.08-.03-.36-.1-.82-.2-11.09-2.59-32.04-8.64-47.92-20.08-20.51-14.77-44.07-46.58-47.33-81.5-2.57-27.51,11.8-50.73,18.71-61.89l.29-.47c6.46-10.42,12.82-27.36,14.19-37.75,1.32-10.05-2.57-15.53-8.65-22.74-5.92-7.02-19.8-20.37-25.5-25.78l-.42-.39c-3.83-3.13-13.41-12.38-11.84-17.44,4.17-13.47,38.32-25.25,38.66-25.37l191.03-52.57-8.98-30.75Zm523.21,24.51c4.91,3.21,7.94,7.37,10.45,11.46,7.79,12.73,5.11,30.28-6.5,42.69-4.33,4.62-15.51,15.13-28.45,27.31l-.59,.56c-20.22,19.02-45.39,42.68-50.83,50-2.86,3.85-11.74,18.51-5.86,45.57,2.81,12.96,14.21,28.93,25.41,35.59,12.02,7.17,128.61,80.19,129.58,80.8,2.16,1.36,4.64,2.12,5.19,1.95,1.36-.51,4.6-5.86,6.9-12.25l24.28-64.09c.46-2.29,6.74-36.42-13.54-90.87-12.94-34.73-38.69-84.78-54.97-101.05-13.69-13.69-26.55-22.38-41.08-27.66Zm-21.46,28.44h0Z"/><g id="Start_Line"><polygon class="cls-1" points="309.85 266.66 309.69 266.71 309.64 266.72 303.99 268.38 303.85 267.93 295.96 241.06 295.7 240.18 293.96 234.26 299.67 232.67 299.72 232.66 299.85 232.62 301.51 238.24 301.84 239.4 309.74 266.27 309.85 266.66"/><polygon points="314.19 282.29 308.32 284.01 308.19 283.56 298.3 249.69 298.04 248.82 296.3 242.9 290.61 223.53 290.66 223.52 296.48 221.81 299.67 232.67 302.19 241.25 303.84 246.88 304.18 248.04 309.64 266.72 314.08 281.91 314.16 282.19 314.19 282.29"/><polygon points="276.17 240.11 290.34 247.84 292.25 244.36 281.56 238.52 287.39 227.83 283.91 225.93 276.17 240.11"/><polygon points="260.62 244.62 274.79 252.36 276.69 248.87 266 243.04 271.84 232.35 268.35 230.45 260.62 244.62"/><polygon points="245.07 249.14 259.24 256.87 261.14 253.39 250.45 247.55 256.29 236.87 252.8 234.96 245.07 249.14"/><g><polygon points="314.16 282.19 314.19 282.29 308.32 284.01 308.19 283.56 298.3 249.69 298.04 248.82 296.3 242.9 290.61 223.53 290.66 223.52 290.63 223.43 296.5 221.71 299.72 232.66 299.85 232.62 301.51 238.24 301.84 239.4 309.74 266.27 309.85 266.66 309.69 266.71 314.1 281.8 314.21 282.18 314.16 282.19"/><path class="cls-1" d="M314.16,282.19l-5.81,1.71-.14-.45-9.89-33.86-.26-.88-1.74-5.92-5.66-19.27h-.05l5.69,19.38,1.74,5.92,.26,.87,9.89,33.87,.13,.45,5.87-1.72-.03-.1Zm-10.3-35.42l.34,1.16,5.49,18.78,.16-.05-.11-.39-7.9-26.87-.33-1.16-1.66-5.62-.13,.04,2.49,8.48,1.65,5.63Z"/></g></g><path d="M673.46,774.51c-7.04,0-15.3-1.02-24.97-3.58-11.14-2.94-32.91-8.48-60.47-15.5-116.1-29.54-332.2-84.53-446.62-120.53-18.02-5.67-36.03-22.62-55.08-51.82-15.42-23.64-25.8-63.42-12.16-94.89,12.41-28.64,25.91-53.05,27.02-55.05,.39-1.06,3.17-9.48-3.24-17.39-2.76-3.41-7.98-8.07-13.5-13-11.83-10.55-25.23-22.52-28.36-33.2-3.09-10.57,2.75-27.02,17.88-36.27,18.04-11.02,178.69-54.38,185.52-56.22l27.02-7,1,3.87-27,7c-1.65,.44-166.91,45.04-184.46,55.77-14.71,8.99-18.31,24.25-16.12,31.73,2.81,9.58,16.32,21.65,27.19,31.34,5.89,5.26,10.98,9.8,13.95,13.46,8.22,10.16,3.99,21.05,3.8,21.5l-.11,.23c-.14,.25-14.1,25.26-26.91,54.82-13.05,30.12-3.01,68.34,11.84,91.11,18.51,28.39,35.83,44.8,52.93,50.18,114.31,35.97,330.34,90.94,446.4,120.47,27.57,7.02,49.35,12.56,60.51,15.5,50.36,13.3,60.19-15.44,60.58-16.67,.21-.69,21.48-73.3,13.93-120.08-4.8-29.78-29.45-48.02-29.7-48.2-2.07-1.47-208.65-148.69-228.52-163.52-31.58-23.56-29.64-51.34-27.93-75.86l.13-1.88c1.88-27.24,14.31-47.06,38-60.6,9.74-5.57,82.3-21.21,107.83-23.26,9.52-.76,17.03,1.24,22.31,5.96,5.53,4.93,8.5,12.66,8.85,22.97,.38,11.26-9.73,24.71-19.51,37.71-1.64,2.19-3.29,4.37-4.88,6.54-4.04,5.51-5.4,12.73-3.83,20.33,1.83,8.86,7.48,17.01,14.73,21.26,16.14,9.46,30.83,7.79,38.51,3.48,13.3-7.46,33.59-27.58,49.89-43.75,7.65-7.59,14.27-14.15,18.79-18.03,14.77-12.66,59.41-24.79,84.25-25.48,10.76-.3,17.72,2.36,20.71,7.89,5.6,10.37-5.54,26.56-6.02,27.25l-.27,.31c-.56,.53-56.58,53.6-68.44,66.88-11.26,12.61-19.94,23.83-20.94,43.77-.95,19.03,5.51,39.88,17.3,55.79,7.57,10.22,72.74,49.39,115.86,75.32,12.11,7.28,22.57,13.57,29.9,18.1,7.69,4.75,14.5,6.43,20.25,5,5.63-1.41,8.46-5.5,8.91-6.19,1.23-3.12,19.52-49.37,28.93-73.82,9.16-23.8,5.38-42.2,.6-65.49l-.69-3.39c-5.35-26.25-25.63-75.05-37.81-98.48-11.7-22.51-28.91-50.72-58.29-69.23-18.28-11.52-164.87-42.42-166.35-42.74-.67-.17-60.35-14.99-99.69-16.96-34.94-1.74-58.59,2.86-75.3,7.07-44.11,11.12-174.79,44.53-176.11,44.87l-.99-3.88c1.31-.34,132-33.76,176.12-44.87,16.97-4.28,41.01-8.96,76.47-7.19,39.74,1.99,99.78,16.91,100.39,17.06,5.99,1.26,148.7,31.35,167.58,43.25,30.2,19.03,47.77,47.81,59.71,70.77,12.29,23.64,32.77,72.93,38.19,99.52l.69,3.39c4.91,23.93,8.79,42.84-.79,67.73-9.7,25.21-28.81,73.53-29.01,74.02l-.12,.25c-.14,.25-3.6,6.18-11.38,8.16-6.85,1.75-14.73-.09-23.41-5.45-7.31-4.52-17.76-10.8-29.86-18.07-45.99-27.64-108.97-65.5-117.01-76.36-12.31-16.63-19.07-38.45-18.08-58.37,1.06-21.2,10.57-33.48,21.95-46.23,11.78-13.19,64.61-63.28,68.52-66.98,2.91-4.26,9.3-16.18,5.66-22.9-2.21-4.1-7.96-6.04-17.08-5.79-23.98,.67-67.94,12.68-81.75,24.52-4.42,3.78-10.98,10.29-18.58,17.83-16.47,16.34-36.97,36.67-50.75,44.4-8.6,4.83-24.89,6.8-42.49-3.52-8.2-4.81-14.57-13.97-16.62-23.9-1.8-8.72-.2-17.07,4.52-23.5,1.6-2.18,3.25-4.38,4.91-6.58,9.36-12.45,19.04-25.32,18.71-35.17-.31-9.18-2.84-15.95-7.51-20.12-4.44-3.96-10.94-5.62-19.33-4.95-24.52,1.96-96.95,17.48-106.17,22.74-22.44,12.82-34.22,31.6-36,57.4l-.13,1.89c-1.72,24.64-3.5,50.12,26.33,72.37,19.84,14.8,226.38,161.99,228.46,163.47,1.08,.79,26.24,19.36,31.31,50.81,7.69,47.68-13.84,121.15-14.06,121.89-.12,.38-2.83,8.77-12.41,15.33-5.69,3.89-14.63,7.61-28.04,7.61Z"/><g><circle class="cls-5" cx="83" cy="399" r="10"/><path d="M83,410c-6.07,0-11-4.93-11-11s4.93-11,11-11,11,4.93,11,11-4.93,11-11,11Zm0-20c-4.96,0-9,4.04-9,9s4.04,9,9,9,9-4.04,9-9-4.04-9-9-9Z"/></g><g><circle class="cls-5" cx="939" cy="434" r="10"/><path d="M939,445c-6.07,0-11-4.93-11-11s4.93-11,11-11,11,4.93,11,11-4.93,11-11,11Zm0-20c-4.96,0-9,4.04-9,9s4.04,9,9,9,9-4.04,9-9-4.04-9-9-9Z"/></g><path class="cls-5" d="M657.38,742.86l-.78-.2,2.25-8.71,.77,.2-2.24,8.72Zm-3.69-.95l-2.9-.75,2.24-8.72,2.91,.75-2.25,8.71Zm-5.81-1.5l-2.91-.75,2.25-8.71,2.9,.75-2.24,8.72Zm-5.82-1.5l-2.9-.75,2.25-8.71,2.91,.75-2.25,8.71Zm-5.81-1.5l-2.91-.75,2.25-8.71,2.91,.75-2.25,8.71Zm-5.82-1.5l-2.91-.75,2.25-8.71,2.91,.75-2.25,8.71Zm-5.81-1.5l-2.91-.75,2.25-8.71,2.91,.75-2.25,8.71Zm-5.82-1.5l-2.91-.75,2.26-8.71,2.91,.75-2.26,8.71Zm-5.81-1.5l-2.91-.75,2.25-8.71,2.91,.75-2.25,8.71Zm-5.82-1.5l-2.91-.75,2.25-8.71,2.91,.75-2.25,8.71Zm-5.81-1.5l-2.91-.75,2.25-8.71,2.91,.75-2.25,8.71Zm-5.82-1.5l-2.9-.75,2.25-8.71,2.91,.75-2.26,8.71Zm-5.81-1.5l-2.9-.75,2.25-8.71,2.91,.75-2.26,8.71Zm-5.81-1.5l-2.91-.75,2.26-8.71,2.9,.75-2.25,8.71Zm-5.82-1.51l-2.9-.75,2.26-8.71,2.91,.75-2.26,8.71Zm-5.81-1.5l-2.9-.75,2.26-8.71,2.91,.75-2.26,8.71Zm-5.81-1.51l-2.91-.75,2.26-8.71,2.91,.75-2.26,8.71Zm-5.81-1.51l-2.91-.75,2.26-8.71,2.9,.75-2.25,8.71Zm-5.82-1.51l-2.9-.75,2.26-8.71,2.91,.75-2.26,8.71Zm-5.81-1.51l-2.9-.75,2.26-8.71,2.91,.75-2.26,8.71Zm-5.81-1.51l-2.9-.75,2.26-8.71,2.91,.75-2.26,8.71Zm-5.81-1.51l-2.9-.75,2.26-8.71,2.91,.75-2.26,8.71Zm-5.81-1.51l-2.9-.75,2.26-8.71,2.91,.75-2.26,8.71Zm-5.81-1.51l-2.9-.75,2.26-8.71,2.91,.75-2.26,8.71Zm-5.81-1.51l-2.9-.75,2.26-8.71,2.91,.75-2.26,8.71Zm-5.81-1.51l-2.9-.75,2.26-8.71,2.91,.76-2.27,8.71Zm-5.81-1.51l-2.9-.75,2.26-8.71,2.91,.76-2.27,8.71Zm-5.81-1.51l-2.9-.75,2.26-8.71,2.91,.76-2.27,8.71Zm-5.81-1.51l-2.91-.75,2.26-8.71,2.9,.75-2.26,8.71Zm-5.81-1.51l-2.91-.75,2.26-8.71,2.9,.75-2.26,8.71Zm-5.81-1.51l-2.91-.75,2.26-8.71,2.9,.75-2.25,8.71Zm-5.81-1.51l-2.91-.75,2.26-8.71,2.9,.75-2.25,8.71Zm-5.81-1.51l-2.91-.75,2.26-8.71,2.9,.75-2.25,8.71Zm-5.81-1.51l-2.91-.76,2.27-8.71,2.9,.75-2.25,8.71Zm-5.81-1.51l-2.91-.75,2.27-8.71,2.9,.75-2.26,8.71Zm-5.81-1.51l-2.91-.75,2.27-8.71,2.9,.75-2.26,8.71Zm-5.81-1.51l-2.91-.75,2.27-8.71,2.9,.75-2.26,8.71Zm-5.81-1.51l-2.91-.75,2.27-8.71,2.9,.75-2.26,8.71Zm-5.81-1.51l-2.91-.76,2.27-8.71,2.9,.75-2.26,8.71Zm-5.81-1.51l-2.91-.76,2.27-8.71,2.9,.75-2.26,8.71Zm-5.81-1.51l-2.92-.76,2.26-8.71,2.92,.76-2.26,8.71Zm-5.83-1.52l-2.91-.76,2.26-8.71,2.91,.76-2.26,8.71Zm-5.83-1.51l-2.91-.76,2.26-8.71,2.91,.76-2.26,8.71Zm-5.81-1.51l-2.91-.76,2.27-8.71,2.9,.75-2.26,8.71Zm-5.81-1.51l-2.9-.75,2.26-8.71,2.9,.75-2.27,8.71Zm-5.8-1.51l-2.9-.75,2.27-8.71,2.9,.75-2.26,8.71Zm-5.79-1.51l-2.89-.75,2.26-8.71,2.89,.75-2.27,8.71Zm-5.79-1.5l-2.91-.76,2.27-8.71,2.9,.75-2.26,8.71Zm-5.81-1.51l-2.91-.76,2.27-8.71,2.9,.75-2.26,8.71Zm-5.81-1.51l-2.91-.76,2.27-8.71,2.9,.75-2.26,8.71Zm-5.81-1.51l-2.91-.76,2.27-8.71,2.9,.75-2.26,8.71Zm-5.81-1.51l-2.91-.76,2.27-8.71,2.9,.75-2.26,8.71Zm-5.81-1.51l-2.9-.75,2.26-8.71,2.91,.75-2.26,8.71Zm-5.81-1.51l-2.9-.75,2.26-8.71,2.91,.75-2.26,8.71Zm-5.81-1.51l-2.91-.75,2.26-8.71,2.9,.75-2.26,8.71Zm-5.81-1.51l-2.9-.75,2.26-8.71,2.91,.76-2.27,8.71Zm-5.81-1.51l-2.9-.75,2.26-8.71,2.91,.76-2.27,8.71Zm-5.81-1.51l-2.9-.75,2.26-8.71,2.91,.76-2.27,8.71Zm-5.81-1.51l-2.9-.75,2.26-8.71,2.91,.76-2.27,8.71Zm-5.81-1.51l-2.9-.75,2.26-8.71,2.91,.76-2.27,8.71Zm-5.81-1.51l-2.9-.75,2.26-8.71,2.91,.76-2.27,8.71Zm-5.81-1.51l-2.9-.75,2.26-8.71,2.91,.76-2.27,8.71Zm-5.81-1.51l-2.9-.75,2.27-8.71,2.91,.76-2.27,8.71Zm-5.81-1.51l-2.9-.75,2.27-8.71,2.91,.76-2.27,8.71Zm-5.81-1.51l-2.91-.76,2.27-8.71,2.9,.75-2.26,8.71Zm-5.81-1.51l-2.91-.76,2.27-8.71,2.9,.75-2.27,8.71Zm-5.81-1.51l-2.9-.76,2.27-8.71,2.91,.76-2.27,8.71Zm-5.8-1.51l-2.91-.76,2.27-8.71,2.9,.75-2.26,8.71Zm-5.81-1.51l-2.91-.76,2.27-8.71,2.9,.75-2.26,8.71Zm-5.81-1.51l-2.91-.76,2.27-8.71,2.9,.76-2.27,8.71Zm-5.81-1.51l-2.9-.75,2.26-8.71,2.91,.76-2.27,8.71Zm-5.81-1.51l-2.9-.75,2.26-8.71,2.91,.76-2.28,8.71Zm-5.8-1.51l-2.91-.76,2.27-8.71,2.91,.76-2.26,8.71Zm-5.81-1.51l-2.9-.76,2.27-8.71,2.91,.76-2.27,8.71Zm-5.81-1.51l-2.91-.76,2.27-8.71,2.91,.76-2.27,8.71Zm-5.81-1.51l-2.9-.75,2.26-8.71,2.91,.76-2.27,8.71Zm-5.81-1.51l-2.9-.76,2.27-8.71,2.91,.76-2.27,8.71Zm-5.81-1.51l-2.91-.76,2.27-8.71,2.9,.76-2.27,8.71Zm-5.81-1.51l-2.91-.76,2.27-8.71,2.91,.76-2.27,8.71Zm-5.81-1.51l-2.91-.76,2.27-8.71,2.91,.76-2.27,8.71Zm-5.81-1.51l-2.91-.76,2.27-8.71,2.9,.75-2.26,8.71Zm-5.82-1.52l-2.91-.76,2.27-8.71,2.91,.76-2.26,8.71Zm-5.82-1.52l-2.91-.76,2.27-8.71,2.91,.76-2.27,8.71Zm-5.82-1.52l-2.92-.76,2.27-8.71,2.91,.76-2.26,8.71Zm-5.84-1.52l-2.98-.78,2.27-8.71,2.98,.78-2.27,8.71Z"/><path class="cls-5" d="M98.68,295.84l-2.37-8.68,2.9-.79,2.36,8.69-2.9,.79Zm5.79-1.58l-2.36-8.69,2.9-.79,2.35,8.69-2.9,.78Zm5.8-1.57l-2.36-8.69,2.9-.79,2.35,8.69-2.89,.78Zm5.79-1.57l-2.35-8.69,2.9-.78,2.35,8.69-2.9,.78Zm5.79-1.57l-2.35-8.69,2.9-.78,2.34,8.69-2.89,.78Zm5.79-1.56l-2.35-8.69,2.9-.78,2.34,8.69-2.89,.78Zm5.79-1.56l-2.34-8.69,2.89-.78,2.35,8.69-2.9,.78Zm5.8-1.56l-2.34-8.69,2.9-.78,2.33,8.69-2.89,.78Zm5.79-1.56l-2.33-8.69,2.9-.78,2.33,8.69-2.9,.78Zm5.79-1.55l-2.33-8.69,2.89-.78,2.34,8.69-2.9,.78Zm5.79-1.55l-2.33-8.69,2.9-.78,2.33,8.69-2.9,.78Zm5.79-1.55l-2.33-8.69,2.9-.78,2.33,8.69-2.9,.78Zm5.8-1.55l-2.32-8.7,2.9-.77,2.33,8.69-2.9,.78Zm5.8-1.55l-2.32-8.7,2.9-.77,2.33,8.69-2.9,.78Zm5.8-1.55l-2.32-8.7,2.9-.77,2.32,8.7-2.9,.77Zm5.8-1.55l-2.32-8.7,2.9-.77,2.31,8.7-2.9,.77Zm5.8-1.54l-2.32-8.7,2.9-.77,2.31,8.7-2.9,.77Zm5.8-1.54l-2.32-8.7,2.9-.77,2.31,8.7-2.9,.77Zm5.8-1.54l-2.32-8.7,2.9-.77,2.31,8.7-2.9,.77Zm5.8-1.54l-2.31-8.7,2.9-.77,2.31,8.7-2.9,.77Zm5.79-1.54l-2.31-8.7,2.9-.77,2.31,8.7-2.9,.77Zm5.8-1.54l-2.31-8.7,2.9-.77,2.32,8.7-2.91,.77Zm5.8-1.54l-2.3-8.7,2.9-.77,2.3,8.7-2.9,.77Zm5.8-1.54l-2.3-8.7,2.9-.77,2.3,8.7-2.9,.77Zm5.8-1.53l-2.3-8.7,2.86-.76,2.3,8.7-2.87,.76Z"/><path class="cls-5" d="M309.75,239.82l-2.5-8.65s1.01-.29,2.92-.84l2.47,8.66c-1.89,.54-2.88,.83-2.89,.83Zm5.78-1.65l-2.45-8.66,2.9-.82,2.44,8.66-2.89,.82Zm5.78-1.63l-2.43-8.67,2.9-.81,2.42,8.67-2.89,.81Zm5.78-1.62l-2.42-8.67,2.9-.81,2.4,8.67-2.89,.8Zm5.78-1.61l-2.4-8.68,2.9-.8,2.4,8.68-2.89,.8Zm5.78-1.6l-2.38-8.68,2.9-.8,2.38,8.68-2.9,.8Zm5.79-1.59l-2.38-8.68,2.9-.79,2.36,8.69-2.89,.79Zm5.79-1.58l-2.36-8.69,2.9-.79,2.36,8.69-2.9,.79Zm5.79-1.57l-2.35-8.69,2.9-.78,2.34,8.69-2.9,.78Zm5.79-1.56l-2.33-8.69,2.9-.78,2.33,8.69-2.9,.78Zm5.79-1.55l-2.32-8.7,2.9-.77,2.32,8.7-2.9,.77Zm5.8-1.54l-2.31-8.7,2.91-.77,2.3,8.7-2.9,.77Zm5.79-1.53l-2.29-8.7,2.9-.76,2.29,8.7-2.9,.76Zm5.8-1.53l-2.28-8.71,2.9-.76,2.28,8.71-2.9,.76Zm5.8-1.52l-2.27-8.71,2.91-.76,2.26,8.71-2.9,.75Zm5.8-1.51l-2.26-8.71,2.91-.75,2.25,8.71-2.9,.75Zm5.8-1.5l-2.24-8.72,2.9-.75,2.25,8.71-2.91,.75Zm5.81-1.49l-2.23-8.72,2.92-.75,2.21,8.72-2.9,.74Zm5.81-1.48l-2.21-8.72,2.91-.74,2.21,8.72-2.91,.74Zm5.81-1.47l-2.2-8.73,2.91-.73,2.21,8.73-2.91,.73Zm5.81-1.46l-2.19-8.73,2.91-.73,2.18,8.73-2.91,.73Zm5.82-1.45l-2.18-8.73,2.92-.73,2.16,8.74-2.91,.72Zm5.82-1.44l-2.16-8.74,2.91-.72,2.16,8.74-2.92,.72Zm5.82-1.43l-2.15-8.74,2.92-.72,2.13,8.74-2.91,.71Zm5.82-1.42l-2.13-8.74,2.92-.71,2.12,8.75-2.91,.71Zm5.82-1.41l-2.11-8.75,2.92-.7,2.11,8.75-2.91,.7Zm5.83-1.4l-2.09-8.75,2.92-.7,2.1,8.75-2.92,.7Zm5.83-1.39l-2.08-8.76,2.92-.69,2.08,8.76-2.92,.69Zm5.83-1.38l-2.07-8.76,2.93-.69,2.05,8.76-2.92,.69Zm177.29-.63l-2.03-.46,2-8.77,2.03,.46-2.01,8.77Zm-171.46-.74l-2.05-8.76,2.92-.68,2.03,8.77-2.91,.68Zm166.51-.4l-2.92-.68,2.04-8.77,2.91,.67-2.02,8.77Zm-160.69-.95l-2.03-8.77,2.92-.67,2.02,8.77-2.91,.67Zm154.86-.4l-2.92-.68,2.04-8.77,2.91,.68-2.03,8.77Zm-149.03-.94l-2.01-8.77,2.93-.67,2,8.78-2.92,.67Zm143.2-.42l-2.91-.67,2.01-8.77,2.93,.67-2.02,8.77Zm-137.37-.91l-1.99-8.78,2.93-.66,1.98,8.78-2.92,.66Zm131.54-.42l-2.91-.65,1.95-8.79,2.94,.66-1.98,8.78Zm-125.7-.9l-1.97-8.78,2.94-.66,1.95,8.79-2.92,.65Zm119.88-.39c-.97-.21-1.94-.42-2.91-.62l1.86-8.8c.99,.21,1.97,.42,2.96,.64l-1.92,8.79Zm-114.05-.9l-1.91-8.79c1-.22,1.99-.43,2.97-.63l1.83,8.81c-.96,.2-1.92,.4-2.9,.61Zm108.23-.33c-.97-.2-1.94-.4-2.91-.59l1.76-8.83c.99,.2,1.98,.4,2.97,.6l-1.81,8.82Zm-102.44-.87l-1.75-8.83c1-.2,2-.39,2.99-.58l1.66,8.85c-.96,.18-1.93,.37-2.9,.56Zm96.62-.29c-.97-.18-1.94-.37-2.91-.54l1.61-8.85c1,.18,2,.37,2.99,.56l-1.69,8.84Zm-90.81-.81l-1.57-8.86c1.01-.18,2-.35,3-.52l1.49,8.88c-.97,.16-1.94,.33-2.91,.5Zm84.97-.26c-.97-.17-1.94-.33-2.92-.49l1.44-8.88c1.01,.16,2.01,.33,3.01,.51l-1.54,8.87Zm-79.15-.72l-1.39-8.89c1.01-.16,2.02-.31,3.01-.45l1.29,8.91c-.97,.14-1.94,.29-2.92,.44Zm73.31-.24c-.97-.15-1.94-.29-2.92-.43l1.26-8.91c1.01,.14,2.01,.29,3.01,.44l-1.36,8.9Zm-67.47-.61l-1.2-8.92c1.01-.14,2.02-.27,3.02-.39l1.1,8.93c-.97,.12-1.94,.24-2.93,.38Zm61.62-.21c-.97-.13-1.94-.25-2.92-.36l1.06-8.94c1.01,.12,2.02,.25,3.03,.38l-1.17,8.92Zm-55.77-.51l-1-8.95c1.02-.11,2.03-.22,3.03-.32l.89,8.96c-.97,.1-1.95,.2-2.93,.31Zm49.92-.19c-.97-.1-1.95-.2-2.93-.29l.84-8.96c1.02,.1,2.03,.2,3.04,.3l-.95,8.95Zm-44.05-.4l-.79-8.96c1.02-.09,2.04-.17,3.05-.25l.66,8.97c-.97,.07-1.95,.15-2.93,.24Zm38.19-.15c-.97-.08-1.95-.15-2.93-.22l.61-8.98c1.02,.07,2.04,.15,3.05,.23l-.73,8.97Zm-32.32-.29l-.56-8.98c1.02-.06,2.04-.12,3.05-.17l.45,8.99c-.97,.05-1.95,.1-2.94,.17Zm26.45-.11c-.97-.05-1.95-.1-2.94-.14l.38-8.99c1.02,.04,2.04,.09,3.06,.15l-.5,8.99Zm-20.58-.18l-.33-8.99c1.03-.04,2.05-.07,3.06-.09l.21,9c-.97,.02-1.95,.05-2.94,.09Zm14.71-.06c-.98-.03-1.96-.05-2.94-.06l.14-9c1.02,.02,2.04,.04,3.05,.07l-.25,9Zm-8.83-.08l-.09-9c.86,0,1.71-.01,2.56-.01h.51l-.05,9h-.46c-.83,0-1.64,0-2.46,.01Z"/><g id="Legend"><circle cx="79.69" cy="172.48" r="13"/><g><path d="M104.19,171.65v-2.36h8.94v2.36h-8.94Zm0,4.02v-2.38h8.94v2.38h-8.94Z"/><path d="M125.68,178.82h-3.47v-10.02h-3.14v-2.84h9.75v2.84h-3.13v10.02Z"/><path d="M141.58,165.96v7.74c0,1.08-.21,2.02-.62,2.81-.41,.79-1.03,1.41-1.85,1.84-.82,.43-1.85,.65-3.09,.65-1.77,0-3.12-.45-4.06-1.36-.93-.91-1.4-2.19-1.4-3.85v-7.82h3.49v7.55c0,.91,.17,1.57,.51,1.98,.34,.41,.84,.62,1.5,.62,.47,0,.86-.09,1.16-.27s.52-.46,.66-.85c.14-.39,.21-.89,.21-1.5v-7.53h3.47Z"/><path d="M148.5,165.96c1.17,0,2.14,.14,2.91,.43,.77,.28,1.36,.71,1.75,1.27,.39,.56,.58,1.26,.58,2.1,0,.52-.09,1-.26,1.43s-.43,.81-.75,1.15c-.33,.34-.71,.63-1.17,.88l3.75,5.6h-3.94l-2.73-4.68h-.88v4.68h-3.47v-12.86h4.21Zm-.05,2.63h-.69v2.94h.65c.53,0,.97-.12,1.31-.35,.34-.23,.51-.65,.51-1.26,0-.42-.14-.74-.42-.98s-.74-.35-1.36-.35Z"/><path d="M168.72,178.82h-4.56l-4.7-9.06h-.08c.03,.28,.06,.61,.08,.99s.04,.78,.06,1.18,.03,.76,.03,1.09v5.8h-3.08v-12.86h4.54l4.68,8.94h.05c-.02-.28-.04-.61-.05-.98-.02-.37-.03-.75-.05-1.13-.01-.38-.02-.72-.02-1.01v-5.81h3.1v12.86Z"/><path d="M188.43,178.82h-4.56l-4.7-9.06h-.08c.03,.28,.06,.61,.08,.99s.04,.78,.06,1.18,.03,.76,.03,1.09v5.8h-3.08v-12.86h4.54l4.68,8.94h.05c-.02-.28-.04-.61-.05-.98-.02-.37-.03-.75-.05-1.13-.01-.38-.02-.72-.02-1.01v-5.81h3.1v12.86Z"/><path d="M202.14,165.96v7.74c0,1.08-.21,2.02-.62,2.81-.41,.79-1.03,1.41-1.85,1.84-.82,.43-1.85,.65-3.09,.65-1.77,0-3.12-.45-4.06-1.36-.93-.91-1.4-2.19-1.4-3.85v-7.82h3.49v7.55c0,.91,.17,1.57,.51,1.98,.34,.41,.84,.62,1.5,.62,.47,0,.86-.09,1.16-.27s.52-.46,.66-.85c.14-.39,.21-.89,.21-1.5v-7.53h3.47Z"/><path d="M210.44,178.82l-2.63-9.26h-.08c.02,.24,.05,.57,.07,.98,.03,.41,.05,.85,.08,1.33s.04,.93,.04,1.37v5.59h-3.08v-12.86h4.63l2.68,9.13h.07l2.63-9.13h4.64v12.86h-3.19v-5.64c0-.4,0-.84,.02-1.31s.03-.91,.05-1.32c.02-.41,.04-.74,.06-.98h-.08l-2.59,9.25h-3.31Z"/><path d="M222.26,165.96h4.49c1.86,0,3.18,.28,3.98,.83,.79,.55,1.19,1.34,1.19,2.38,0,.56-.1,1.04-.3,1.43-.2,.39-.46,.7-.77,.93-.31,.23-.62,.38-.95,.47v.09c.35,.09,.7,.23,1.05,.44s.64,.5,.87,.91c.23,.4,.35,.95,.35,1.63,0,.78-.2,1.45-.59,2.01-.4,.56-.96,1-1.69,1.3-.73,.3-1.6,.45-2.61,.45h-5.01v-12.86Zm3.47,4.93h1.05c.58,0,.98-.12,1.21-.36,.23-.24,.35-.53,.35-.87s-.13-.62-.4-.8c-.27-.19-.68-.28-1.24-.28h-.98v2.3Zm0,2.54v2.7h1.22c.6,0,1.03-.13,1.27-.39,.24-.26,.36-.59,.36-.98,0-.23-.05-.44-.15-.65-.1-.2-.28-.37-.52-.49s-.59-.19-1.02-.19h-1.15Z"/><path d="M242.03,178.82h-7.64v-12.86h7.64v2.79h-4.16v2.02h3.85v2.79h-3.85v2.43h4.16v2.83Z"/><path d="M248.5,165.96c1.17,0,2.14,.14,2.91,.43,.77,.28,1.36,.71,1.75,1.27,.39,.56,.58,1.26,.58,2.1,0,.52-.09,1-.26,1.43s-.43,.81-.75,1.15c-.33,.34-.71,.63-1.17,.88l3.75,5.6h-3.94l-2.73-4.68h-.88v4.68h-3.47v-12.86h4.21Zm-.05,2.63h-.69v2.94h.65c.53,0,.97-.12,1.31-.35,.34-.23,.51-.65,.51-1.26,0-.42-.14-.74-.42-.98s-.74-.35-1.36-.35Z"/><path d="M264.89,174.92c0,.7-.18,1.36-.53,1.98s-.9,1.13-1.64,1.52c-.74,.39-1.7,.58-2.87,.58-.59,0-1.1-.03-1.54-.08-.44-.05-.85-.14-1.24-.26-.38-.12-.78-.28-1.19-.47v-3.1c.7,.35,1.4,.62,2.11,.8,.71,.18,1.35,.28,1.93,.28,.35,0,.63-.04,.85-.12,.22-.08,.38-.19,.49-.34,.11-.14,.16-.31,.16-.5,0-.22-.08-.41-.23-.57s-.4-.32-.74-.49c-.34-.17-.79-.38-1.35-.63-.47-.22-.9-.45-1.29-.69-.38-.23-.71-.5-.99-.81-.27-.3-.48-.66-.63-1.06-.15-.4-.22-.88-.22-1.43,0-.83,.2-1.52,.61-2.08,.41-.56,.98-.98,1.71-1.26,.73-.28,1.57-.42,2.53-.42,.84,0,1.59,.09,2.26,.28,.67,.19,1.27,.4,1.81,.64l-1.06,2.68c-.55-.25-1.09-.45-1.63-.6-.53-.15-1.03-.22-1.49-.22-.3,0-.54,.04-.73,.11-.19,.07-.33,.17-.42,.29s-.14,.26-.14,.42c0,.2,.08,.38,.23,.54,.16,.16,.42,.33,.78,.51,.37,.19,.87,.42,1.5,.72,.63,.28,1.16,.58,1.6,.91,.44,.33,.78,.72,1.01,1.17,.23,.45,.35,1.02,.35,1.68Z"/></g><g><circle class="cls-5" cx="79.69" cy="92.48" r="13"/><path d="M79.69,106.48c-7.72,0-14-6.28-14-14s6.28-14,14-14,14,6.28,14,14-6.28,14-14,14Zm0-26c-6.62,0-12,5.38-12,12s5.38,12,12,12,12-5.38,12-12-5.38-12-12-12Z"/></g><g><path d="M104.19,91.65v-2.36h8.94v2.36h-8.94Zm0,4.02v-2.38h8.94v2.38h-8.94Z"/><path d="M130.92,92.12c0,1.5-.28,2.74-.84,3.73-.56,.99-1.34,1.73-2.35,2.23-1.01,.5-2.2,.74-3.57,.74h-4.16v-12.86h4.45c1.38,0,2.56,.24,3.52,.71s1.69,1.17,2.2,2.08c.5,.92,.75,2.04,.75,3.36Zm-3.61,.12c0-.78-.1-1.43-.31-1.94s-.52-.9-.94-1.15c-.42-.25-.94-.38-1.57-.38h-1.01v7.2h.77c1.06,0,1.83-.31,2.32-.92,.49-.61,.74-1.55,.74-2.81Z"/><path d="M137.44,85.96c1.17,0,2.14,.14,2.91,.43,.77,.28,1.36,.71,1.75,1.27,.39,.56,.58,1.26,.58,2.1,0,.52-.09,1-.26,1.43s-.43,.81-.75,1.15c-.33,.34-.71,.63-1.17,.88l3.75,5.6h-3.94l-2.73-4.68h-.88v4.68h-3.47v-12.86h4.21Zm-.05,2.63h-.69v2.94h.65c.53,0,.97-.12,1.31-.35,.34-.23,.51-.65,.51-1.26,0-.42-.14-.74-.42-.98s-.74-.35-1.36-.35Z"/><path d="M153.83,94.92c0,.7-.18,1.36-.53,1.98s-.9,1.13-1.64,1.52c-.74,.39-1.7,.58-2.87,.58-.59,0-1.1-.03-1.54-.08-.44-.05-.85-.14-1.24-.26-.38-.12-.78-.28-1.19-.47v-3.1c.7,.35,1.4,.62,2.11,.8,.71,.18,1.35,.28,1.93,.28,.35,0,.63-.04,.85-.12,.22-.08,.38-.19,.49-.34,.11-.14,.16-.31,.16-.5,0-.22-.08-.41-.23-.57s-.4-.32-.74-.49c-.34-.17-.79-.38-1.35-.63-.47-.22-.9-.45-1.29-.69-.38-.23-.71-.5-.99-.81-.27-.3-.48-.66-.63-1.06-.15-.4-.22-.88-.22-1.43,0-.83,.2-1.52,.61-2.08,.41-.56,.98-.98,1.71-1.26,.73-.28,1.57-.42,2.53-.42,.84,0,1.59,.09,2.26,.28,.67,.19,1.27,.4,1.81,.64l-1.06,2.68c-.55-.25-1.09-.45-1.63-.6-.53-.15-1.03-.22-1.49-.22-.3,0-.54,.04-.73,.11-.19,.07-.33,.17-.42,.29s-.14,.26-.14,.42c0,.2,.08,.38,.23,.54,.16,.16,.42,.33,.78,.51,.37,.19,.87,.42,1.5,.72,.63,.28,1.16,.58,1.6,.91,.44,.33,.78,.72,1.01,1.17,.23,.45,.35,1.02,.35,1.68Z"/><path d="M171.41,92.12c0,1.5-.28,2.74-.84,3.73-.56,.99-1.34,1.73-2.35,2.23-1.01,.5-2.2,.74-3.57,.74h-4.16v-12.86h4.45c1.38,0,2.56,.24,3.52,.71s1.69,1.17,2.2,2.08c.5,.92,.75,2.04,.75,3.36Zm-3.61,.12c0-.78-.1-1.43-.31-1.94s-.52-.9-.94-1.15c-.42-.25-.94-.38-1.57-.38h-1.01v7.2h.77c1.06,0,1.83-.31,2.32-.92,.49-.61,.74-1.55,.74-2.81Z"/><path d="M181.36,98.82h-7.64v-12.86h7.64v2.79h-4.16v2.02h3.85v2.79h-3.85v2.43h4.16v2.83Z"/><path d="M189.28,98.82h-3.47v-10.02h-3.14v-2.84h9.75v2.84h-3.13v10.02Z"/><path d="M201.89,98.82h-7.64v-12.86h7.64v2.79h-4.16v2.02h3.85v2.79h-3.85v2.43h4.16v2.83Z"/><path d="M209.87,88.63c-.41,0-.78,.09-1.1,.26s-.6,.42-.83,.75c-.23,.33-.4,.73-.52,1.2-.12,.47-.18,1.01-.18,1.61,0,.81,.1,1.49,.31,2.04,.21,.55,.52,.97,.94,1.25,.42,.28,.95,.42,1.58,.42,.58,0,1.13-.08,1.66-.24,.53-.16,1.07-.35,1.61-.57v2.94c-.57,.25-1.15,.43-1.75,.55-.59,.11-1.23,.17-1.9,.17-1.4,0-2.54-.28-3.43-.83-.89-.55-1.54-1.32-1.96-2.31-.42-.99-.63-2.13-.63-3.43,0-.97,.14-1.86,.41-2.67,.27-.81,.67-1.51,1.2-2.11,.53-.6,1.18-1.06,1.96-1.38,.78-.33,1.67-.49,2.67-.49,.62,0,1.28,.07,1.97,.22,.69,.14,1.36,.37,2.02,.69l-1.06,2.74c-.47-.22-.94-.41-1.42-.56-.48-.15-.99-.23-1.53-.23Z"/><path d="M221.5,98.82h-3.47v-10.02h-3.14v-2.84h9.75v2.84h-3.13v10.02Z"/><path d="M226.47,98.82v-12.86h3.49v12.86h-3.49Z"/><path d="M244.78,92.37c0,.99-.12,1.89-.36,2.7-.24,.81-.61,1.51-1.11,2.1-.5,.59-1.15,1.04-1.94,1.35-.79,.31-1.74,.47-2.84,.47s-2.01-.16-2.8-.47c-.79-.31-1.44-.76-1.95-1.35-.51-.58-.89-1.28-1.13-2.1-.25-.81-.37-1.72-.37-2.73,0-1.34,.22-2.5,.66-3.49,.44-.99,1.13-1.75,2.05-2.3s2.11-.81,3.55-.81,2.66,.27,3.58,.82,1.59,1.31,2.02,2.3c.43,.99,.64,2.15,.64,3.49Zm-8.85,0c0,.77,.09,1.44,.26,2s.46,.99,.84,1.28c.38,.3,.88,.45,1.5,.45s1.15-.15,1.53-.45c.38-.3,.65-.73,.82-1.28s.25-1.22,.25-2c0-1.16-.19-2.08-.58-2.75s-1.05-1.01-2-1.01c-.63,0-1.13,.15-1.52,.46-.38,.31-.66,.74-.83,1.3s-.26,1.23-.26,2.01Z"/><path d="M259.34,98.82h-4.56l-4.7-9.06h-.08c.03,.28,.06,.61,.08,.99s.04,.78,.06,1.18,.03,.76,.03,1.09v5.8h-3.08v-12.86h4.54l4.68,8.94h.05c-.02-.28-.04-.61-.05-.98-.02-.37-.03-.75-.05-1.13-.01-.38-.02-.72-.02-1.01v-5.81h3.1v12.86Z"/><path d="M275.97,98.82h-10.02v-2.15l5.57-7.91h-5.44v-2.81h9.75v2.14l-5.57,7.92h5.71v2.81Z"/><path d="M289.84,92.37c0,.99-.12,1.89-.36,2.7-.24,.81-.61,1.51-1.11,2.1-.5,.59-1.15,1.04-1.94,1.35-.79,.31-1.74,.47-2.84,.47s-2.01-.16-2.8-.47c-.79-.31-1.44-.76-1.95-1.35-.51-.58-.89-1.28-1.13-2.1-.25-.81-.37-1.72-.37-2.73,0-1.34,.22-2.5,.66-3.49,.44-.99,1.13-1.75,2.05-2.3s2.11-.81,3.55-.81,2.66,.27,3.58,.82,1.59,1.31,2.02,2.3c.43,.99,.64,2.15,.64,3.49Zm-8.85,0c0,.77,.09,1.44,.26,2s.46,.99,.84,1.28c.38,.3,.88,.45,1.5,.45s1.15-.15,1.53-.45c.38-.3,.65-.73,.82-1.28s.25-1.22,.25-2c0-1.16-.19-2.08-.58-2.75s-1.05-1.01-2-1.01c-.63,0-1.13,.15-1.52,.46-.38,.31-.66,.74-.83,1.3s-.26,1.23-.26,2.01Z"/><path d="M304.41,98.82h-4.56l-4.7-9.06h-.08c.03,.28,.06,.61,.08,.99s.04,.78,.06,1.18,.03,.76,.03,1.09v5.8h-3.08v-12.86h4.54l4.68,8.94h.05c-.02-.28-.04-.61-.05-.98-.02-.37-.03-.75-.05-1.13-.01-.38-.02-.72-.02-1.01v-5.81h3.1v12.86Z"/><path d="M314.82,98.82h-7.64v-12.86h7.64v2.79h-4.16v2.02h3.85v2.79h-3.85v2.43h4.16v2.83Z"/></g><g><path d="M104.19,130.65v-2.36h8.94v2.36h-8.94Zm0,4.02v-2.38h8.94v2.38h-8.94Z"/><path d="M130.92,131.12c0,1.5-.28,2.74-.84,3.73-.56,.99-1.34,1.73-2.35,2.23-1.01,.5-2.2,.74-3.57,.74h-4.16v-12.86h4.45c1.38,0,2.56,.24,3.52,.71s1.69,1.17,2.2,2.08c.5,.92,.75,2.04,.75,3.36Zm-3.61,.12c0-.78-.1-1.43-.31-1.94s-.52-.9-.94-1.15c-.42-.25-.94-.38-1.57-.38h-1.01v7.2h.77c1.06,0,1.83-.31,2.32-.92,.49-.61,.74-1.55,.74-2.81Z"/><path d="M137.44,124.96c1.17,0,2.14,.14,2.91,.43,.77,.28,1.36,.71,1.75,1.27,.39,.56,.58,1.26,.58,2.1,0,.52-.09,1-.26,1.43s-.43,.81-.75,1.15c-.33,.34-.71,.63-1.17,.88l3.75,5.6h-3.94l-2.73-4.68h-.88v4.68h-3.47v-12.86h4.21Zm-.05,2.63h-.69v2.94h.65c.53,0,.97-.12,1.31-.35,.34-.23,.51-.65,.51-1.26,0-.42-.14-.74-.42-.98s-.74-.35-1.36-.35Z"/><path d="M153.83,133.92c0,.7-.18,1.36-.53,1.98s-.9,1.13-1.64,1.52c-.74,.39-1.7,.58-2.87,.58-.59,0-1.1-.03-1.54-.08-.44-.05-.85-.14-1.24-.26-.38-.12-.78-.28-1.19-.47v-3.1c.7,.35,1.4,.62,2.11,.8,.71,.18,1.35,.28,1.93,.28,.35,0,.63-.04,.85-.12,.22-.08,.38-.19,.49-.34,.11-.14,.16-.31,.16-.5,0-.22-.08-.41-.23-.57s-.4-.32-.74-.49c-.34-.17-.79-.38-1.35-.63-.47-.22-.9-.45-1.29-.69-.38-.23-.71-.5-.99-.81-.27-.3-.48-.66-.63-1.06-.15-.4-.22-.88-.22-1.43,0-.83,.2-1.52,.61-2.08,.41-.56,.98-.98,1.71-1.26,.73-.28,1.57-.42,2.53-.42,.84,0,1.59,.09,2.26,.28,.67,.19,1.27,.4,1.81,.64l-1.06,2.68c-.55-.25-1.09-.45-1.63-.6-.53-.15-1.03-.22-1.49-.22-.3,0-.54,.04-.73,.11-.19,.07-.33,.17-.42,.29s-.14,.26-.14,.42c0,.2,.08,.38,.23,.54,.16,.16,.42,.33,.78,.51,.37,.19,.87,.42,1.5,.72,.63,.28,1.16,.58,1.6,.91,.44,.33,.78,.72,1.01,1.17,.23,.45,.35,1.02,.35,1.68Z"/><path d="M169.66,137.82h-10.02v-2.15l5.57-7.91h-5.44v-2.81h9.75v2.14l-5.57,7.92h5.71v2.81Z"/><path d="M183.54,131.37c0,.99-.12,1.89-.36,2.7-.24,.81-.61,1.51-1.11,2.1-.5,.59-1.15,1.04-1.94,1.35-.79,.31-1.74,.47-2.84,.47s-2.01-.16-2.8-.47c-.79-.31-1.44-.76-1.95-1.35-.51-.58-.89-1.28-1.13-2.1-.25-.81-.37-1.72-.37-2.73,0-1.34,.22-2.5,.66-3.49,.44-.99,1.13-1.75,2.05-2.3s2.11-.81,3.55-.81,2.66,.27,3.58,.82,1.59,1.31,2.02,2.3c.43,.99,.64,2.15,.64,3.49Zm-8.85,0c0,.77,.09,1.44,.26,2s.46,.99,.84,1.28c.38,.3,.88,.45,1.5,.45s1.15-.15,1.53-.45c.38-.3,.65-.73,.82-1.28s.25-1.22,.25-2c0-1.16-.19-2.08-.58-2.75s-1.05-1.01-2-1.01c-.63,0-1.13,.15-1.52,.46-.38,.31-.66,.74-.83,1.3s-.26,1.23-.26,2.01Z"/><path d="M198.1,137.82h-4.56l-4.7-9.06h-.08c.03,.28,.06,.61,.08,.99s.04,.78,.06,1.18,.03,.76,.03,1.09v5.8h-3.08v-12.86h4.54l4.68,8.94h.05c-.02-.28-.04-.61-.05-.98-.02-.37-.03-.75-.05-1.13-.01-.38-.02-.72-.02-1.01v-5.81h3.1v12.86Z"/><path d="M208.52,137.82h-7.64v-12.86h7.64v2.79h-4.16v2.02h3.85v2.79h-3.85v2.43h4.16v2.83Z"/><path d="M219.18,133.92c0,.7-.18,1.36-.53,1.98s-.9,1.13-1.64,1.52c-.74,.39-1.7,.58-2.87,.58-.59,0-1.1-.03-1.54-.08-.44-.05-.85-.14-1.24-.26-.38-.12-.78-.28-1.19-.47v-3.1c.7,.35,1.4,.62,2.11,.8,.71,.18,1.35,.28,1.93,.28,.35,0,.63-.04,.85-.12,.22-.08,.38-.19,.49-.34,.11-.14,.16-.31,.16-.5,0-.22-.08-.41-.23-.57s-.4-.32-.74-.49c-.34-.17-.79-.38-1.35-.63-.47-.22-.9-.45-1.29-.69-.38-.23-.71-.5-.99-.81-.27-.3-.48-.66-.63-1.06-.15-.4-.22-.88-.22-1.43,0-.83,.2-1.52,.61-2.08,.41-.56,.98-.98,1.71-1.26,.73-.28,1.57-.42,2.53-.42,.84,0,1.59,.09,2.26,.28,.67,.19,1.27,.4,1.81,.64l-1.06,2.68c-.55-.25-1.09-.45-1.63-.6-.53-.15-1.03-.22-1.49-.22-.3,0-.54,.04-.73,.11-.19,.07-.33,.17-.42,.29s-.14,.26-.14,.42c0,.2,.08,.38,.23,.54,.16,.16,.42,.33,.78,.51,.37,.19,.87,.42,1.5,.72,.63,.28,1.16,.58,1.6,.91,.44,.33,.78,.72,1.01,1.17,.23,.45,.35,1.02,.35,1.68Z"/></g><path class="cls-5" d="M92.69,143.48h-2.5v-23h2.5v23Zm-5.5,0h-3v-23h3v23Zm-6,0h-3v-23h3v23Zm-6,0h-3v-23h3v23Zm-6,0h-3v-23h3v23Z"/><g><path class="cls-1" d="M79.16,171.26c0,.84-.07,1.59-.2,2.26s-.35,1.23-.64,1.69-.68,.82-1.17,1.06c-.48,.24-1.08,.37-1.78,.37-.88,0-1.59-.21-2.15-.64-.56-.43-.97-1.04-1.24-1.84-.26-.8-.4-1.76-.4-2.89s.12-2.1,.36-2.91c.24-.81,.64-1.42,1.19-1.85,.55-.43,1.3-.65,2.23-.65,.88,0,1.59,.21,2.15,.64,.56,.43,.97,1.04,1.24,1.85,.27,.81,.4,1.78,.4,2.92Zm-4.75,0c0,.68,.02,1.26,.08,1.72,.05,.46,.15,.81,.29,1.04,.14,.23,.34,.35,.61,.35s.46-.12,.6-.35,.23-.58,.29-1.04,.08-1.04,.08-1.72-.03-1.27-.08-1.74-.15-.81-.29-1.05-.34-.35-.6-.35-.46,.12-.61,.35c-.14,.24-.24,.59-.29,1.05-.05,.46-.08,1.04-.08,1.74Z"/><path class="cls-1" d="M86.43,176.48h-2.88v-5.71c0-.26,0-.54,.01-.85,0-.31,.02-.59,.03-.84-.12,.15-.24,.27-.35,.38-.11,.11-.21,.2-.31,.29l-1.19,.98-1.47-1.81,3.6-2.93h2.55v10.48Z"/></g></g><g id="_"><g><path d="M28.67,372.86c-6,0-10.88-4.88-10.88-10.88s4.88-10.88,10.88-10.88,10.88,4.88,10.88,10.88-4.88,10.88-10.88,10.88Z"/><path d="M28.67,352.1c5.46,0,9.88,4.42,9.88,9.88s-4.42,9.88-9.88,9.88-9.88-4.42-9.88-9.88,4.42-9.88,9.88-9.88m0-2c-6.55,0-11.88,5.33-11.88,11.88s5.33,11.88,11.88,11.88,11.88-5.33,11.88-11.88-5.33-11.88-11.88-11.88h0Z"/></g><text class="cls-2" transform="translate(20.94 365.89)"><tspan x="0" y="0">01</tspan></text></g><g id="_-2"><g><path d="M74.67,440.86c-6,0-10.88-4.88-10.88-10.88s4.88-10.88,10.88-10.88,10.88,4.88,10.88,10.88-4.88,10.88-10.88,10.88Z"/><path d="M74.67,420.1c5.46,0,9.88,4.42,9.88,9.88s-4.42,9.88-9.88,9.88-9.88-4.42-9.88-9.88,4.42-9.88,9.88-9.88m0-2c-6.55,0-11.88,5.33-11.88,11.88s5.33,11.88,11.88,11.88,11.88-5.33,11.88-11.88-5.33-11.88-11.88-11.88h0Z"/></g><text class="cls-2" transform="translate(66.94 433.89)"><tspan x="0" y="0">02</tspan></text></g><g id="_-3"><g><path d="M66.67,608.86c-6,0-10.88-4.88-10.88-10.88s4.88-10.88,10.88-10.88,10.88,4.88,10.88,10.88-4.88,10.88-10.88,10.88Z"/><path d="M66.67,588.1c5.46,0,9.88,4.42,9.88,9.88s-4.42,9.88-9.88,9.88-9.88-4.42-9.88-9.88,4.42-9.88,9.88-9.88m0-2c-6.55,0-11.88,5.33-11.88,11.88s5.33,11.88,11.88,11.88,11.88-5.33,11.88-11.88-5.33-11.88-11.88-11.88h0Z"/></g><text class="cls-2" transform="translate(58.94 601.89)"><tspan x="0" y="0">03</tspan></text></g><g id="_-4"><g><path d="M706.67,804.86c-6,0-10.88-4.88-10.88-10.88s4.88-10.88,10.88-10.88,10.88,4.88,10.88,10.88-4.88,10.88-10.88,10.88Z"/><path d="M706.67,784.1c5.46,0,9.88,4.42,9.88,9.88s-4.42,9.88-9.88,9.88-9.88-4.42-9.88-9.88,4.42-9.88,9.88-9.88m0-2c-6.55,0-11.88,5.33-11.88,11.88s5.33,11.88,11.88,11.88,11.88-5.33,11.88-11.88-5.33-11.88-11.88-11.88h0Z"/></g><text class="cls-2" transform="translate(698.94 797.89)"><tspan x="0" y="0">04</tspan></text></g><g id="_-5"><g><path d="M698.67,644.86c-6,0-10.88-4.88-10.88-10.88s4.88-10.88,10.88-10.88,10.88,4.88,10.88,10.88-4.88,10.88-10.88,10.88Z"/><path d="M698.67,624.1c5.46,0,9.88,4.42,9.88,9.88s-4.42,9.88-9.88,9.88-9.88-4.42-9.88-9.88,4.42-9.88,9.88-9.88m0-2c-6.55,0-11.88,5.33-11.88,11.88s5.33,11.88,11.88,11.88,11.88-5.33,11.88-11.88-5.33-11.88-11.88-11.88h0Z"/></g><text class="cls-2" transform="translate(690.94 637.89)"><tspan x="0" y="0">05</tspan></text></g><g id="_-6"><g><path d="M413.67,398.86c-6,0-10.88-4.88-10.88-10.88s4.88-10.88,10.88-10.88,10.88,4.88,10.88,10.88-4.88,10.88-10.88,10.88Z"/><path d="M413.67,378.1c5.46,0,9.88,4.42,9.88,9.88s-4.42,9.88-9.88,9.88-9.88-4.42-9.88-9.88,4.42-9.88,9.88-9.88m0-2c-6.55,0-11.88,5.33-11.88,11.88s5.33,11.88,11.88,11.88,11.88-5.33,11.88-11.88-5.33-11.88-11.88-11.88h0Z"/></g><text class="cls-2" transform="translate(405.94 391.89)"><tspan x="0" y="0">06</tspan></text></g><g id="_-7"><g><path d="M489.67,315.86c-6,0-10.88-4.88-10.88-10.88s4.88-10.88,10.88-10.88,10.88,4.88,10.88,10.88-4.88,10.88-10.88,10.88Z"/><path d="M489.67,295.1c5.46,0,9.88,4.42,9.88,9.88s-4.42,9.88-9.88,9.88-9.88-4.42-9.88-9.88,4.42-9.88,9.88-9.88m0-2c-6.55,0-11.88,5.33-11.88,11.88s5.33,11.88,11.88,11.88,11.88-5.33,11.88-11.88-5.33-11.88-11.88-11.88h0Z"/></g><text class="cls-2" transform="translate(481.94 308.89)"><tspan x="0" y="0">07</tspan></text></g><g id="_-8"><g><path d="M587.67,295.86c-6,0-10.88-4.88-10.88-10.88s4.88-10.88,10.88-10.88,10.88,4.88,10.88,10.88-4.88,10.88-10.88,10.88Z"/><path d="M587.67,275.1c5.46,0,9.88,4.42,9.88,9.88s-4.42,9.88-9.88,9.88-9.88-4.42-9.88-9.88,4.42-9.88,9.88-9.88m0-2c-6.55,0-11.88,5.33-11.88,11.88s5.33,11.88,11.88,11.88,11.88-5.33,11.88-11.88-5.33-11.88-11.88-11.88h0Z"/></g><text class="cls-2" transform="translate(579.94 288.89)"><tspan x="0" y="0">08</tspan></text></g><g id="_-9"><g><path d="M586.67,408.86c-6,0-10.88-4.88-10.88-10.88s4.88-10.88,10.88-10.88,10.88,4.88,10.88,10.88-4.88,10.88-10.88,10.88Z"/><path d="M586.67,388.1c5.46,0,9.88,4.42,9.88,9.88s-4.42,9.88-9.88,9.88-9.88-4.42-9.88-9.88,4.42-9.88,9.88-9.88m0-2c-6.55,0-11.88,5.33-11.88,11.88s5.33,11.88,11.88,11.88,11.88-5.33,11.88-11.88-5.33-11.88-11.88-11.88h0Z"/></g><text class="cls-2" transform="translate(578.94 401.89)"><tspan x="0" y="0">09</tspan></text></g><g id="_-10"><g><path d="M788.67,321.86c-6,0-10.88-4.88-10.88-10.88s4.88-10.88,10.88-10.88,10.88,4.88,10.88,10.88-4.88,10.88-10.88,10.88Z"/><path d="M788.67,301.1c5.46,0,9.88,4.42,9.88,9.88s-4.42,9.88-9.88,9.88-9.88-4.42-9.88-9.88,4.42-9.88,9.88-9.88m0-2c-6.55,0-11.88,5.33-11.88,11.88s5.33,11.88,11.88,11.88,11.88-5.33,11.88-11.88-5.33-11.88-11.88-11.88h0Z"/></g><text class="cls-2" transform="translate(780.94 314.89)"><tspan x="0" y="0">10</tspan></text></g><g id="_-11"><g><path d="M749.67,473.86c-6,0-10.88-4.88-10.88-10.88s4.88-10.88,10.88-10.88,10.88,4.88,10.88,10.88-4.88,10.88-10.88,10.88Z"/><path d="M749.67,453.1c5.46,0,9.88,4.42,9.88,9.88s-4.42,9.88-9.88,9.88-9.88-4.42-9.88-9.88,4.42-9.88,9.88-9.88m0-2c-6.55,0-11.88,5.33-11.88,11.88s5.33,11.88,11.88,11.88,11.88-5.33,11.88-11.88-5.33-11.88-11.88-11.88h0Z"/></g><text class="cls-2" transform="translate(741.94 466.89)"><tspan x="0" y="0">11</tspan></text></g><g id="_-12"><g><path d="M907.67,628.86c-6,0-10.88-4.88-10.88-10.88s4.88-10.88,10.88-10.88,10.88,4.88,10.88,10.88-4.88,10.88-10.88,10.88Z"/><path d="M907.67,608.1c5.46,0,9.88,4.42,9.88,9.88s-4.42,9.88-9.88,9.88-9.88-4.42-9.88-9.88,4.42-9.88,9.88-9.88m0-2c-6.55,0-11.88,5.33-11.88,11.88s5.33,11.88,11.88,11.88,11.88-5.33,11.88-11.88-5.33-11.88-11.88-11.88h0Z"/></g><text class="cls-2" transform="translate(899.94 621.89)"><tspan x="0" y="0">12</tspan></text></g><g id="_-13"><g><path d="M973.67,501.86c-6,0-10.88-4.88-10.88-10.88s4.88-10.88,10.88-10.88,10.88,4.88,10.88,10.88-4.88,10.88-10.88,10.88Z"/><path d="M973.67,481.1c5.46,0,9.88,4.42,9.88,9.88s-4.42,9.88-9.88,9.88-9.88-4.42-9.88-9.88,4.42-9.88,9.88-9.88m0-2c-6.55,0-11.88,5.33-11.88,11.88s5.33,11.88,11.88,11.88,11.88-5.33,11.88-11.88-5.33-11.88-11.88-11.88h0Z"/></g><text class="cls-2" transform="translate(965.94 494.89)"><tspan x="0" y="0">13</tspan></text></g><g id="_-14"><g><path d="M879.67,272.86c-6,0-10.88-4.88-10.88-10.88s4.88-10.88,10.88-10.88,10.88,4.88,10.88,10.88-4.88,10.88-10.88,10.88Z"/><path d="M879.67,252.1c5.46,0,9.88,4.42,9.88,9.88s-4.42,9.88-9.88,9.88-9.88-4.42-9.88-9.88,4.42-9.88,9.88-9.88m0-2c-6.55,0-11.88,5.33-11.88,11.88s5.33,11.88,11.88,11.88,11.88-5.33,11.88-11.88-5.33-11.88-11.88-11.88h0Z"/></g><text class="cls-2" transform="translate(871.94 265.89)"><tspan x="0" y="0">14</tspan></text></g><g id="_-15"><g><path d="M562.67,192.86c-6,0-10.88-4.88-10.88-10.88s4.88-10.88,10.88-10.88,10.88,4.88,10.88,10.88-4.88,10.88-10.88,10.88Z"/><path d="M562.67,172.1c5.46,0,9.88,4.42,9.88,9.88s-4.42,9.88-9.88,9.88-9.88-4.42-9.88-9.88,4.42-9.88,9.88-9.88m0-2c-6.55,0-11.88,5.33-11.88,11.88s5.33,11.88,11.88,11.88,11.88-5.33,11.88-11.88-5.33-11.88-11.88-11.88h0Z"/></g><text class="cls-2" transform="translate(554.94 185.89)"><tspan x="0" y="0">15</tspan></text></g></svg>