<?xml version="1.0" encoding="UTF-8"?><svg id="JEDDAH" xmlns="http://www.w3.org/2000/svg" viewBox="0 0 1000 1000"><defs><style>.cls-1{stroke-width:4px;}.cls-1,.cls-2{fill:none;}.cls-1,.cls-2,.cls-3{stroke:#000;stroke-miterlimit:10;}.cls-4,.cls-5{fill:#fff;}.cls-5{font-family:OpenSans-ExtraBold, 'Open Sans';font-size:12.76px;font-weight:700;}.cls-6{fill:#fae44a;}.cls-7{fill:#db4a25;}.cls-8,.cls-3{fill:#1bce20;}.cls-2,.cls-3{stroke-width:2px;}.cls-9{fill:#75e5fd;}</style></defs><g id="Jeddah_Detailed"><path id="Yellow" class="cls-6" d="m969.11,150.57c-3.35-13.79-16.03-19.5-29.42-17.03-8.19,1.52-14.93,5.93-21.64,10.55-10.69,7.38-21.46,14.64-32.37,21.69-21.04,13.59-42.48,26.55-63.2,40.6-14.81,10.05-29.04,20.94-43.38,31.67l13.37,17.41c8.36-6.4,15.63-11.86,21.71-16.34,1.31-1.26,2.78-2.42,4.26-3.45,5.28-3.67,10.55-7.36,15.86-10.99.47-.32.71-.48.71-.48,4.56-3.11,9.14-6.17,13.78-9.15,21.06-13.53,42.32-26.74,63.43-40.19,4.38-2.79,8.67-5.72,13.08-8.74,0,0,11.85-9.42,15.28-9.77,3.42-.35,6.54.12,7.98,4.88,1.4,4.64-4.63,19.41-4.98,20.23,0,.03-.01.04-.01.04-6.92,26.06-15.75,51.41-27.63,75.7-10.46,21.37-25.06,39.32-43.77,53.9-11.12,8.67-22.34,17.26-33.88,25.36-14.24,9.99-29.55,17.9-46.62,22.19-8.96,2.26-17.94,1.89-26.94,1.47-7.32-.35-14.63-1.11-21.93-1.88-6.98-.74-13.94-1.61-20.91-2.41-4.04-.46-8.08-.9-12.13-1.29-.45-.04-.9-.08-1.35-.11-2.62-.13-5.11-.15-7.46-.09l.05-.06s-8.99-1.57-22.61,3.67c-.02,0-.05,0-.07.02-2,.66-3.74,1.35-5.23,2.02-.27.22-.55.43-.82.65-10.89,5.4-23.94,15.09-37.42,32.4l-.02.02c-.07.1-.15.2-.23.3h-.01c-.42.52-1.26,1.74-1.98,3.67-6.8,31.66-5.8,21.38-36.04,28.47-2.59.6-5.4,1.26-8.45,1.99-9.93,2.36-20.46,6.72-30.74,11.99l8.14,17.27c1.71-.68,3.42-1.4,5.13-2.13.2-.08.41-.16.61-.25.27-.11.55-.23.82-.34.3-.12.6-.24.9-.37.24-.1.49-.2.74-.3,5.74-2.39,11.5-4.72,17.36-6.76,2.43-.85,4.95-1.48,7.5-2,.03-.01.06-.02.08-.02,1.34-.28,2.69-.52,4.05-.76h.03c1.98-.35,3.95-.66,5.92-.99,4.62-.79,9.33-1.1,14-1.58.31-.03.61-.07.91-.1.01,0,.02,0,.03,0,11.21-2.34,23.16-6.82,27.5-15.83.24-.58.47-1.15.71-1.71.01-.02.01-.03.02-.05,6.17-17.57,4.86-25.39,17.01-32.46,12.16-7.09,20.74-19.7,45.95-13.9.01,0,.02,0,.03.01,26.21,3.12,51.61,6.26,77.31,4.14,3.47-.96,10.16-2.85,15.84-4.72.18-.1.37-.19.56-.25,1.99-.65,3.96-1.35,5.9-2.1.16-.06.31-.13.46-.19.07-.03.15-.06.23-.08,8.16-3.22,15.93-7.28,23.48-11.77,17.04-10.13,32.79-22.09,48.11-34.6,15.42-12.6,28.92-26.95,39.51-43.91.63-1.01,1.26-2,1.9-3,0,0,0-.02.03-.05.56-1.08,9.73-18.67,19.11-40.27.02-.03.03-.05.04-.08,9.76-24.34,17.19-49.42,22.27-75.24.92-4.65.66-9.88-.46-14.51Z"/><path id="Blue" class="cls-9" d="m565.46,456.77c-.14.07-.28.13-.42.18-.18.09-.36.16-.54.23-.11.04-.22.09-.32.13-.09.04-.19.08-.28.12-.17.08-.35.15-.52.22-.08.04-.15.07-.23.1-.23.1-.35.15-.35.15,0,0-.03.01-.09.04-.03.01-.07.03-.1.04-1.26.48-8.32,3.33-17.45,9.3-6.38,3.28-11.72,7.7-16.36,12.86-.73.82-1.45,1.65-2.15,2.5-5.6,6.8-11.11,13.67-16.53,20.6-.01.02-.02.04-.04.06-2.34,2.97-4.65,5.96-6.95,8.95-4.63,6.02-9.94,11.29-15.73,16.14-.82.69-1.62,1.42-2.66,2.34.02.02.05.03.07.05-16.46,12.72-33.24,19.54-36.84,20.94-.05.02-.11.04-.16.06-.09.04-.18.07-.27.1-.08.03-.16.06-.24.09-.03.01-.04.01-.04.01h-.01c-1.85.65-3.71,1.26-5.58,1.87-7.84,2.55-15.55,5.48-23.29,8.34-.54.2-1.09.4-1.63.6-1.03.37-1.97.98-3.08,1.66-9.82,5.03-12.26,8.44-12.26,8.44-2.49,2.52-4.95,4.97-7.35,7.34-.13.13-.26.25-.39.38-2.74,2.64-5.44,5.23-8.12,7.84-.46.45-.92.9-1.38,1.35-7.07,6.92-14.02,13.99-21.29,20.7-3.2,2.96-6.72,5.48-10.39,7.78-.03.02-.04.03-.04.03-4.44,2.78-9.1,5.25-13.68,7.81-.82.46-1.64.9-2.48,1.36.07.09.14.18.22.26-4.79,2.45-9.33,4.45-13.48,6.07,0-.04.01-.07.01-.11-.55.25-1.1.5-1.65.74-13.39,5.04-22.4,6.1-22.4,6.1,0,0-12.09,2.28-23.21-.37-.39-.09-.77-.19-1.14-.28-.29-.08-.58-.16-.86-.26-.73-.21-1.45-.44-2.16-.71-.09-.06-.17-.12-.26-.18,0-.01-.02-.01-.03-.02-8.72-3.7-12.52-10.88-12.75-11.33-.01-.01-.01-.02-.01-.02,0,0,0-.01-.01-.02-8.47-11.17-18.64-8.04-20.27-7.45-.06.03-.13.06-.19.08-.01,0-.02.01-.03.01-3.15,1.42-6.8,2.99-11.07,4.01-13.7,3.27-27.35-1.08-27.35-1.08-5.72-.25-12.58-.31-19.78-.11h-.05c-1.06,0-2.17.01-3.29.02-4.27.05-8.52.28-12.76.83-.46.04-.93.08-1.39.12-12.54,1.08-24.45,8.08-31.85,13.4-.02.01-.03.03-.05.04-.33.24-.66.47-.97.7-.56.39-1.12.81-1.67,1.26-.31.24-.61.47-.89.69-.14.12-.28.23-.42.34-.55.44-1.05.85-1.48,1.21-.11.09-.21.19-.32.27-.33.29-.65.57-.97.84-.08.08-.17.15-.25.22-.11.1-.21.19-.32.28-.22.2-.34.31-.34.31-1.21,1.07-2.4,2.14-3.6,3.21-7.63,6.8-13.96,14.77-20.25,22.77-7.86,10-17.73,17.32-29.55,21.99-11.78,4.66-23.24,4.23-33.96-2.94-14.43-9.66-21.46-32.2-8.26-49.85,4.21-5.61,9.69-9.47,15.96-12.23,14.13-6.22,28.26-12.43,42.41-18.59l4.12,21.93c-10.36,4.54-20.7,9.1-31.05,13.67-1.68.73-3.37,1.48-5.05,2.22-.52.23-1.04.46-1.55.71-2.28,1.07-4.47,2.37-6.33,4.55-3.85,3.4-6.76,7.69-5.27,12.31,1.95,6.01,7.18,8.08,11.48,8.73-.01,0-.01.02-.02.02,2.41.61,4.49.68,6.38.1.03-.01.05-.01.05-.01,8.63-2.68,16.07-7.21,21.86-14.31,5-6.12,10.02-12.24,15.3-18.13,5.12-5.71,10.63-10.96,16.4-15.93.39-.34.8-.66,1.23-.95,8.14-5.58,25.62-16.01,47.77-20.37.43-.09.87-.16,1.31-.21,12.53-1.41,25.04-.99,37.6.25,6.33.63,12.76.96,19.1-.59,6.92-1.7,13.91-3.13,20.81-4.9,12.84-3.3,22.86.88,30.75,11.15,1.83,2.38,3.77,4.7,5.74,6.97,2.75,3.16,6.29,4.6,10.46,4.81,8.23.4,16.18-.82,23.64-4.31,8.17-3.83,16.26-7.83,24.25-12.01,5.45-2.85,10.54-6.28,15.46-10.74t.02-.02c4.68-2.91,13.85-9.74,22.68-22.62,0,0,.01,0,.01,0,6.46-5.97,12.55-11.74,18.91-17.22,5.81-5,12.53-8.59,20.07-11.82,1.51-.64,3.1-1.02,4.73-1.12,13.94-.83,50.75-6.15,67.46-38.45.38-.73.81-1.44,1.31-2.1,6.12-8.01,12.11-15.86,18.11-23.69.73-.96,1.57-1.81,2.52-2.54,11.75-9.11,31.07-23.09,51.4-33.53l8.2,17.23Z"/><path id="Red" class="cls-7" d="m790.76,256.36c-6.21,4.73-12.46,9.49-18.9,14.41-.2.15-.4.31-.59.47l-6.06,5.17s.01.02.02.03c-1.52,1.29-3.04,2.57-4.55,3.86-23.45,19.89-46.83,39.73-70.2,59.56l-.03.03c-19.31,16.38-38.61,32.76-57.94,49.16,0,0,0,.01.01.02.05.21.59,2.3.38,5.48v.03c-6.9,32.28-5.37,21.88-35.55,28.94-2.6.61-5.42,1.27-8.47,1.99-9.97,2.38-20.54,6.76-30.86,12.04l-.06.03c-20.99,10.76-40.92,25.28-52.63,34.41-.9.7-1.9,1.28-2.95,1.75-5.51,2.43-10.72,5.16-15.92,7.91-1.58.84-2.31,1.97-2.32,4.03-.02,3.32-.24,6.65-.49,10.25-.15,2.05-.73,4.06-1.75,5.84-16.06,28.12-48.38,33.84-62.72,34.97-1.39.11-2.8,0-4.16-.32-4.71-1.09-8.85-1.29-12.97-1.34-6.05-.08-14.6,6.81-18.9,9.5-5.22,3.26-8.32,7.97-9.51,14.03-.01.03-.01.07-.02.1-1.32,6.59-4.72,13.57-9.63,18.15-5.42,5.06-12.42,11.02-15.42,13.54-.97.81-2.04,1.49-3.19,2.01-9.43,4.28-18.97,8.22-29.37,9.59-13.09,1.73-24.81-.92-34.01-11-2.54-2.78-5.59-5.13-8-8-4.19-4.99-8.72-6.27-14.83-4.33-14.09,4.5-28.52,6.54-43.38,5.69-12.41-.7-24.28,2.34-35.82,6.58-7.23,2.66-14.32,5.71-21.46,8.62-.36.14-.7.34-1.09.59h-.01c-16.47,3.9-30.09,10.87-38.85,16.23-.59.36-1.2.68-1.84.95-3.48,1.48-6.97,2.95-10.44,4.47-5.19,2.27-10.38,4.55-15.56,6.83-.59.26-1.18.52-1.77.78l-3.71-22.12c.45-.19.91-.39,1.36-.59,11.54-5.05,23.09-10.07,34.65-15.05,15.19-6.55,30.45-12.97,45.83-19.06,0,0,.02-.01.07-.03,7.29-2.87,14.92-4.88,22.42-7.24,1.76-.55,3.57-.96,5.44-1.46-.02-.03-.04-.05-.06-.08,4.93-1.02,9.98-1.7,14.65-1.7h.11c1.24.06,2.49.11,3.73.17h.01s20.98,4.25,46.52-5.85h.01c1.63-.35,3.28-.7,4.96-1.06,0-.02-.01-.03-.01-.05,4.4-.29,11.63.79,20.26,7.92.97.86,1.93,1.72,2.9,2.59.01,0,.02.01.03.02,0,0,0,0,.03.04.79.95,15.18,18.03,29.32,13.65.02-.01.03-.01.05-.02,7.46-1.79,14.33-4.64,21.15-8.14.73-.36,1.1-.56,1.1-.56,0,0,1.56-.56,3.66-2.3.87-.72,1.82-1.63,2.81-2.79,0-.01.01-.02.02-.03,2.67-3.74,5.36-9.81,5.79-10.79.02-.05.03-.08.04-.1.52-1.58.98-3.32,1.36-5.22,2.94-14.54,20.91-25.76,27-29.18,1.27-.71,2.02-1.09,2.02-1.09,1.38-.73,2.79-1.43,4.22-2.12h.01c4.8-1.97,13.62-4.42,25.97-3.19,3.66,1.01,7.66,1.71,11.53,2.09h.02s24.01,6.23,35.43-16.2c.46-.85.87-1.71,1.21-2.6.01-.03.02-.05.03-.08.39-1,.71-2.03.94-3.1.35-1.62.51-3.33.44-5.12-.08-2.21-.13-4.41.02-6.61h0c-.18-2.04,2.47-10.5,3.71-12.36,2-3,12.83-9.02,13.56-9.42h.01c6.49-3.54,12.89-6.99,19.17-10.63,17.59-10.19,35.04-20.62,52.65-30.78,5.67-3.28,11.65-6.01,17.72-9.11,0,0,11.62-3.99,28.74-4.03l-.03-.05s.47.03,1.21.03c1.63-.04,3.03-.17,4.23-.37,3.89-.73,8.07-2.82,5.74-8.64l.07-.03c-.24-1.19-2.59-14.16,7.8-23.4.32-.27.64-.54.96-.81.02-.02.04-.03.06-.05.64-.55,1.28-1.09,1.92-1.63,39.34-33.37,78.59-66.65,118-100.09.11-.09,5.86-5.34,14.2-12.24.11-.54.48-.85,1.08-.89,1.61-1.32,3.3-2.69,5.06-4.09v-.03c.38-.29.77-.6,1.16-.9,1.87-1.48,3.8-2.98,5.78-4.49,2.51-1.95,5.14-3.97,7.81-5.94,1.63-1.21,3.27-2.43,4.9-3.65l12.96,17.6Z"/><g id="Outside_Path"><path class="cls-2" d="m940.54,273.44c.05-.06.1-.11.14-.17-.04.02-.09.04-.13.06,0,.04-.01.07-.01.11Z"/><path class="cls-2" d="m969.11,150.57c-3.35-13.79-16.03-19.5-29.42-17.03-8.19,1.52-14.93,5.93-21.64,10.55-10.69,7.38-21.46,14.64-32.37,21.69-21.04,13.59-42.48,26.55-63.2,40.6-14.81,10.05-29.04,20.94-43.38,31.67l13.37,17.41c8.36-6.4,15.63-11.86,21.71-16.34,1.31-1.26,2.78-2.42,4.26-3.45,5.28-3.67,10.55-7.36,15.86-10.99.47-.32.71-.48.71-.48,4.56-3.11,9.14-6.17,13.78-9.15,21.06-13.53,42.32-26.74,63.43-40.19,4.38-2.79,8.67-5.72,13.08-8.74,0,0,11.85-9.42,15.28-9.77,3.42-.35,6.54.12,7.98,4.88,1.4,4.64-4.63,19.41-4.98,20.23,0,.03-.01.04-.01.04-6.92,26.06-15.75,51.41-27.63,75.7-10.46,21.37-25.06,39.32-43.77,53.9-11.12,8.67-22.34,17.26-33.88,25.36-14.24,9.99-29.55,17.9-46.62,22.19-8.96,2.26-17.94,1.89-26.94,1.47-7.32-.35-14.63-1.11-21.93-1.88-6.98-.74-13.94-1.61-20.91-2.41-4.04-.46-8.08-.9-12.13-1.29-.45-.04-.9-.08-1.35-.11-2.62-.13-5.11-.15-7.46-.09l.05-.06s-8.99-1.57-22.61,3.67c-.02,0-.05,0-.07.02-2,.66-3.74,1.35-5.23,2.02-.27.22-.55.43-.82.65-10.89,5.4-23.94,15.09-37.42,32.4l-.02.02c-.07.1-.15.2-.23.3h-.01c-.42.52-1.26,1.74-1.98,3.67-6.8,31.66-5.8,21.38-36.04,28.47-2.59.6-5.4,1.26-8.45,1.99-9.93,2.36-20.46,6.72-30.74,11.99l.02.04-.12.06-.02-.04c-1.26.65-2.52,1.31-3.77,1.98h0c-18.93,10.18-36.6,23.01-47.62,31.55-.95.73-1.79,1.58-2.52,2.54-6,7.83-11.99,15.68-18.11,23.69-.5.66-.93,1.37-1.31,2.1-16.71,32.3-53.52,37.62-67.46,38.45-1.63.1-3.22.48-4.73,1.12-7.54,3.23-14.26,6.82-20.07,11.82-6.36,5.48-12.45,11.25-18.91,17.22,0,0-.01,0-.01,0-8.83,12.88-18,19.71-22.68,22.62t-.02.02c-4.92,4.46-10.01,7.89-15.46,10.74-7.99,4.18-16.08,8.18-24.25,12.01-7.46,3.49-15.41,4.71-23.64,4.31-4.17-.21-7.71-1.65-10.46-4.81-1.97-2.27-3.91-4.59-5.74-6.97-7.89-10.27-17.91-14.45-30.75-11.15-6.9,1.77-13.89,3.2-20.81,4.9-6.34,1.55-12.77,1.22-19.1.59-12.56-1.24-25.07-1.66-37.6-.25-.44.05-.88.12-1.31.21-22.15,4.36-39.63,14.79-47.77,20.37-.43.29-.84.61-1.23.95-5.77,4.97-11.28,10.22-16.4,15.93-5.28,5.89-10.3,12.01-15.3,18.13-5.79,7.1-13.23,11.63-21.86,14.31,0,0-.02,0-.05.01-1.89.58-3.97.51-6.38-.1.01,0,.01-.01.02-.02-4.3-.65-9.53-2.72-11.48-8.73-1.49-4.62,1.42-8.91,5.27-12.31,1.86-2.18,4.05-3.48,6.33-4.55.51-.25,1.03-.48,1.55-.71,1.68-.74,3.37-1.49,5.05-2.22,9.76-4.31,19.51-8.61,29.28-12.89h0c.59-.26,1.18-.52,1.77-.78,5.18-2.28,10.37-4.56,15.56-6.83,3.47-1.52,6.96-2.99,10.44-4.47.65-.27,1.26-.6,1.86-.96,8.76-5.36,22.37-12.32,38.83-16.22h.01c.39-.25.73-.45,1.09-.59,7.14-2.91,14.23-5.96,21.46-8.62,11.54-4.24,23.41-7.28,35.82-6.58,14.86.85,29.29-1.19,43.38-5.69,6.11-1.94,10.97-1.03,15.16,3.96,2.41,2.87,5.28,5.36,7.82,8.14,9.2,10.08,20.77,12.96,33.86,11.23,10.4-1.37,19.94-5.31,29.37-9.59,1.15-.52,2.22-1.2,3.19-2.01,3-2.52,10-8.48,15.42-13.54,4.91-4.58,8.31-11.56,9.63-18.15,0-.03,0-.07.02-.1,1.19-6.06,4.29-10.77,9.51-14.03,4.3-2.69,12.85-9.58,18.9-9.5,4.12.05,8.26.25,12.97,1.34,1.36.32,2.77.43,4.16.32,14.34-1.13,46.66-6.85,62.72-34.97,1.02-1.78,1.6-3.79,1.75-5.84.25-3.6.47-6.93.49-10.25,0-2.06.74-3.19,2.32-4.03,5.2-2.75,10.41-5.48,15.92-7.91,1.05-.47,2.05-1.05,2.95-1.75,11.71-9.13,31.64-23.65,52.63-34.41l.06-.03c10.32-5.28,20.89-9.66,30.86-12.04,3.05-.72,5.87-1.38,8.47-1.99,30.18-7.06,28.65,3.34,35.55-28.94v-.03c.21-3.18-.33-5.27-.38-5.48-.01-.01-.01-.02-.01-.02,19.33-16.4,38.63-32.78,57.94-49.16l.03-.03c23.37-19.83,46.75-39.67,70.2-59.56,1.51-1.29,3.03-2.57,4.55-3.86-.01-.01-.01-.02-.02-.03l6.06-5.17.45-.36c6.49-4.96,12.79-9.75,19.04-14.52l-12.96-17.6c-1.63,1.22-3.27,2.44-4.9,3.65-2.67,1.97-5.3,3.99-7.81,5.94-1.98,1.51-3.91,3.01-5.78,4.49-.39.3-.78.61-1.16.9v.03c-1.76,1.4-3.45,2.77-5.06,4.09-.6.04-.97.35-1.08.89-8.34,6.9-14.09,12.15-14.2,12.24-39.41,33.44-78.66,66.72-118,100.09-.64.54-1.28,1.08-1.92,1.63-.02.02-.04.03-.06.05-.32.27-.64.54-.96.81-10.39,9.24-8.04,22.21-7.8,23.4l-.07.03c2.33,5.82-1.85,7.91-5.74,8.64-1.2.2-2.6.33-4.23.37-.74,0-1.21-.03-1.21-.03l.03.05c-17.12.04-28.74,4.03-28.74,4.03-6.07,3.1-12.05,5.83-17.72,9.11-17.61,10.16-35.06,20.59-52.65,30.78-6.28,3.64-12.68,7.09-19.17,10.63h-.01c-.65.36-7.73,3.59-10.68,6.41-.56.54-1.15,1.04-1.74,1.55-1.27,1.1-3.63,4.36-4.85,13.81h0c-.15,2.21-.1,4.41-.02,6.62.07,1.79-.09,3.5-.44,5.12-.23,1.07-.55,2.1-.94,3.1-.01.03-.02.05-.03.08-.34.89-.75,1.75-1.21,2.6-11.42,22.43-35.43,16.2-35.43,16.2h-.02c-3.87-.38-7.87-1.08-11.53-2.09-12.35-1.23-21.17,1.22-25.97,3.19h-.01c-1.43.69-2.84,1.39-4.22,2.12,0,0-.75.38-2.02,1.09-6.09,3.42-24.06,14.64-27,29.18-.38,1.9-.84,3.64-1.36,5.22-.01.02-.02.05-.04.1-.43.98-3.12,7.05-5.79,10.79-.01.01-.02.02-.02.03-.99,1.16-1.94,2.07-2.81,2.79-2.1,1.74-3.66,2.3-3.66,2.3,0,0-.37.2-1.1.56-6.82,3.5-13.69,6.35-21.15,8.14-.02.01-.03.01-.05.02-14.14,4.38-28.53-12.7-29.32-13.65-.02-.03-.03-.04-.03-.04-.01-.01-.02-.02-.03-.02-.97-.87-1.93-1.73-2.9-2.59-8.63-7.13-15.86-8.21-20.26-7.92,0,.02.01.03.01.05-1.68.36-3.33.71-4.96,1.06h-.01c-25.54,10.1-46.52,5.85-46.52,5.85h-.01c-1.24-.06-2.49-.11-3.73-.17h-.11c-4.67,0-9.72.68-14.65,1.7.02.03.04.05.06.08-1.87.5-3.68.91-5.44,1.46-7.5,2.36-15.13,4.37-22.42,7.24-.05.02-.07.03-.07.03-15.38,6.09-30.64,12.51-45.83,19.06-11.56,4.98-23.11,10-34.65,15.05-.45.2-.91.4-1.36.59h0c-13.7,5.97-27.37,11.98-41.05,18-6.27,2.76-11.75,6.62-15.96,12.23-13.2,17.65-6.17,40.19,8.26,49.85,10.72,7.17,22.18,7.6,33.96,2.94,11.82-4.67,21.69-11.99,29.55-21.99,6.29-8,12.62-15.97,20.25-22.77,1.2-1.07,2.39-2.14,3.6-3.21,0,0,.12-.11.34-.31.11-.09.21-.18.32-.28.08-.07.17-.14.25-.22.32-.27.64-.55.97-.84.11-.08.21-.18.32-.27.43-.36.93-.77,1.48-1.21.14-.11.28-.22.42-.34.28-.22.58-.45.89-.69.55-.45,1.11-.87,1.67-1.26.31-.23.64-.46.97-.7.02-.01.03-.03.05-.04,7.4-5.32,19.31-12.32,31.85-13.4.46-.04.93-.08,1.39-.12,4.24-.55,8.49-.78,12.76-.83,1.12,0,2.23-.02,3.29-.02h.05c7.2-.2,14.06-.14,19.78.11,0,0,13.65,4.35,27.35,1.08,4.27-1.02,7.92-2.59,11.07-4.01.01,0,.02-.01.03-.01.06-.02.13-.05.19-.08,1.63-.59,11.8-3.72,20.27,7.45.01.01.01.02.01.02,0,0,0,.01.01.02.23.45,4.03,7.63,12.75,11.33.01.01.02.01.03.02.09.06.17.12.26.18.71.27,1.43.5,2.16.71.28.1.57.18.86.26.37.09.75.19,1.14.28,11.12,2.65,23.21.37,23.21.37,0,0,9.01-1.06,22.4-6.1.55-.24,1.1-.49,1.65-.74,0,.04-.01.07-.01.11,4.15-1.62,8.69-3.62,13.48-6.07-.08-.08-.15-.17-.22-.26.84-.46,1.66-.9,2.48-1.36,4.58-2.56,9.24-5.03,13.68-7.81,0,0,.01-.01.04-.03,3.67-2.3,7.19-4.82,10.39-7.78,7.27-6.71,14.22-13.78,21.29-20.7.46-.45.92-.9,1.38-1.35,2.68-2.61,5.38-5.2,8.12-7.84.13-.13.26-.25.39-.38,2.4-2.37,4.86-4.82,7.35-7.34,0,0,2.44-3.41,12.26-8.44,1.11-.68,2.05-1.29,3.08-1.66.54-.2,1.09-.4,1.63-.6,7.74-2.86,15.45-5.79,23.29-8.34,1.87-.61,3.73-1.22,5.58-1.87h.01s.01,0,.04-.01c.08-.03.16-.06.24-.09.09-.03.18-.06.27-.1.05-.02.11-.04.16-.06,3.6-1.4,20.38-8.22,36.84-20.94-.02-.02-.05-.03-.07-.05,1.04-.92,1.84-1.65,2.66-2.34,5.79-4.85,11.1-10.12,15.73-16.14,2.3-2.99,4.61-5.98,6.95-8.95.02-.02.03-.04.04-.06,5.42-6.93,10.93-13.8,16.53-20.6.7-.85,1.42-1.68,2.15-2.5,4.64-5.16,9.98-9.58,16.36-12.86,4.85-3.17,9.11-5.46,12.23-6.98l12.33-5.11-.07-.15c.33-.14.67-.28,1-.42.2-.08.41-.16.61-.25.27-.11.55-.23.82-.34.3-.12.6-.24.9-.37.24-.1.49-.2.74-.3,5.74-2.39,11.5-4.72,17.36-6.76,2.43-.85,4.95-1.48,7.5-2,.03-.01.06-.02.08-.02,1.34-.28,2.69-.52,4.05-.76h.03c1.98-.35,3.95-.66,5.92-.99,4.62-.79,9.33-1.1,14-1.58.31-.03.61-.07.91-.1.01,0,.02,0,.03,0,11.21-2.34,23.16-6.82,27.5-15.83.24-.58.47-1.16.71-1.72l.02-.04c6.17-17.57,4.86-25.39,17.01-32.46,12.16-7.09,20.74-19.7,45.95-13.9.01,0,.02,0,.03.01,22.97,2.73,45.32,5.48,67.8,4.69,5.97-.21,11.88-1.17,17.6-2.87,2.54-.75,5.24-1.58,7.75-2.41.18-.1.37-.19.56-.25,1.99-.65,3.96-1.35,5.9-2.1.16-.06.31-.13.46-.19.07-.03.15-.06.23-.08,8.16-3.22,15.93-7.28,23.48-11.77,17.04-10.13,32.79-22.09,48.11-34.6,15.42-12.6,28.92-26.95,39.51-43.91.63-1.01,1.26-2,1.9-3,0,0,0-.02.03-.05.56-1.08,9.73-18.67,19.11-40.27.02-.03.03-.05.04-.08,9.76-24.34,17.19-49.42,22.27-75.24.92-4.65.66-9.88-.46-14.51Z"/></g><path id="Inside_Path" class="cls-1" d="m779.92,250.9s-38.92,31.1-97.92,83.1l-57.26,47.35s-6.74,3.65-5.74,16.65c3,16-14,16-14,16,0,0-35.01-1.95-84.35,35.41-1.48,1.12-2.99,2.19-4.56,3.18-6.6,4.19-24.97,15.57-37.09,20.41-7.66,3.06-7,16-7,16,0,0,6.03,21.09-32.21,36.08-5.45,2.14-14.6,2.97-20.3,1.61-21.33-5.09-41.87,1.96-50.41,16.8-17.44,30.31-7.09,34.12-48.09,46.81,0,0-21.11,9.3-47.34-20.38-1.99-2.25-4.9-3.48-7.89-3.31s-7.07,1.11-12.83,3.69c-14.94,6.7-52.94,3.7-52.94,3.7,0,0-6-2-53,19s-66.96,28.1-66.96,28.1l-40.04,19.03s-16,9.87-7,29.87,31,12,31,12c0,0,16-6,25-19s33.04-33.76,33.04-33.76c0,0,16.96-15.24,44.96-16.24,11.94-.43,19.88-.49,25.06-.42,3.96.05,7.92.39,11.85.92,5.53.75,14.47,3.31,30.09-4.5,12-6,23-1,29,7s11,21.49,47,10.24,49.92-28.37,49.92-28.37c0,0,26.65-30.17,49.87-43.52,0,0,7.48-5.37,32.35-10.86,19.23-4.25,36.15-18.96,42.83-25.42,1.85-1.79,3.47-3.79,4.85-5.96,5.34-8.38,21.29-32.54,31.62-39.12-.43,0,23.57-20,59.22-33,0,0,15.71-3.81,40.35-9,19-4,22.59-19.63,22.59-25.23,0-.75-.08-1.49-.16-2.24-.24-2.19,2.57-11.53,28.57-29.53,19-12,36-11,72-5s51,0,78-10,82-63,82-63c0,0,20.08-23,36.54-67s17.46-62,17.46-62c0,0,4.57-29-20.22-22,0,0-15.07,7.64-51.2,33.17-1.72,1.21-3.48,2.36-5.28,3.44-11.79,7.08-58.86,35.69-76.3,51.38l-25.08,17.9Z"/><g id="DRS-5"><circle class="cls-3" cx="611" cy="432" r="8"/><circle class="cls-3" cx="295" cy="631" r="8"/><circle class="cls-3" cx="925" cy="153" r="8"/><path class="cls-8" d="m427.38,574.52l-3.12-8.44,1.72-.63,3.08,8.46-1.67.61Zm4.45-1.61l-2.99-8.49c1.06-.37,2.02-.7,2.89-1l2.86,8.53c-.83.28-1.75.59-2.76.95Zm5.5-1.83l-2.65-8.6c1.21-.37,2.2-.65,3.04-.88l2.31,8.7c-.74.2-1.62.45-2.69.78Zm5.42-1.43l-1.98-8.78c.84-.19,1.56-.36,2.51-.66l2.7,8.59c-1.28.4-2.25.63-3.23.85Zm6.3-1.93l-3.22-8.4c.76-.29,1.63-.64,2.66-1.07l3.45,8.31c-1.11.46-2.06.84-2.88,1.16Zm5.69-2.34l-3.55-8.27c.83-.35,1.73-.75,2.71-1.18l3.62,8.24c-1.01.44-1.93.84-2.78,1.21Zm5.54-2.43l-3.67-8.22,2.72-1.22,3.69,8.21-2.74,1.23Zm5.48-2.46l-3.71-8.2,2.72-1.23,3.73,8.19-2.74,1.24Zm5.53-2.53l-3.87-8.12c.85-.41,1.7-.83,2.53-1.27l4.18,7.97c-.93.49-1.88.96-2.83,1.42Zm5.6-2.93l-4.45-7.82c.82-.47,1.64-.95,2.44-1.45l4.73,7.66c-.89.55-1.8,1.09-2.72,1.61Zm5.37-3.31l-4.98-7.5c.79-.53,1.58-1.07,2.35-1.62l5.22,7.33c-.85.61-1.71,1.2-2.59,1.78Zm5.12-3.64l-5.45-7.17c.76-.58,1.51-1.17,2.26-1.77l5.65,7c-.81.65-1.63,1.3-2.46,1.93Zm4.86-3.93l-5.85-6.84c.73-.62,1.45-1.26,2.16-1.9l6.03,6.68c-.77.69-1.55,1.38-2.34,2.05Zm4.62-4.16l-6.2-6.53c.7-.66,1.39-1.33,2.07-2.01l6.34,6.39c-.73.73-1.47,1.45-2.22,2.16Zm4.39-4.36l-6.48-6.25c.67-.7,1.34-1.4,1.99-2.11l6.6,6.12c-.7.75-1.4,1.5-2.12,2.24Zm4.19-4.51l-6.71-6c.65-.73,1.29-1.46,1.93-2.2l6.81,5.88c-.67.77-1.35,1.54-2.03,2.31Zm4.02-4.65l-6.9-5.78c.63-.75,1.26-1.51,1.88-2.27l6.97,5.69c-.64.79-1.29,1.57-1.95,2.36Zm3.86-4.73l-7.03-5.62c.62-.77,1.23-1.55,1.83-2.32l7.09,5.55c-.62.8-1.25,1.59-1.89,2.39Zm3.75-4.78l-7.12-5.5c.61-.79,1.21-1.58,1.81-2.36l7.16,5.46c-.61.8-1.22,1.6-1.84,2.4Zm3.67-4.81l-7.18-5.43,1.8-2.39,7.19,5.42-1.81,2.4Zm3.62-4.79l-7.18-5.43,1.82-2.4,7.16,5.45-1.81,2.38Zm3.61-4.74l-7.13-5.49c.62-.81,1.25-1.61,1.87-2.4l7.07,5.56c-.6.77-1.21,1.54-1.82,2.33Zm3.65-4.63l-7-5.66c.65-.81,1.3-1.6,1.95-2.38l6.9,5.78c-.62.74-1.24,1.49-1.86,2.26Zm3.74-4.46l-6.77-5.93c.7-.79,1.39-1.57,2.09-2.32l6.6,6.12c-.64.69-1.28,1.41-1.92,2.14Zm3.89-4.19l-6.38-6.35c.35-.35.71-.7,1.06-1.05.41-.39.82-.78,1.23-1.16l6.12,6.59c-.37.34-.73.69-1.1,1.04-.31.3-.62.61-.93.92Zm4.13-3.84l-5.87-6.82c.8-.69,1.61-1.36,2.43-2.02l5.63,7.02c-.74.59-1.47,1.2-2.19,1.82Zm4.44-3.56l-5.39-7.2c.84-.63,1.69-1.25,2.55-1.85l5.16,7.37c-.78.54-1.55,1.1-2.31,1.68Zm4.69-3.28l-4.94-7.52c.88-.58,1.76-1.14,2.65-1.68l4.71,7.67c-.81.5-1.62,1.01-2.42,1.54Zm4.89-3.01l-4.49-7.8c.91-.52,1.82-1.03,2.72-1.52l4.29,7.91c-.84.45-1.68.92-2.52,1.41Zm5.07-2.75l-4.08-8.02c.93-.47,1.86-.93,2.79-1.38l3.88,8.12c-.86.41-1.73.84-2.6,1.28Zm5.22-2.49l-3.68-8.21c.96-.43,1.91-.84,2.85-1.24l3.49,8.29c-.88.37-1.76.76-2.66,1.16Zm5.35-2.25l-3.31-8.37c.98-.39,1.94-.76,2.89-1.11l3.13,8.44c-.89.33-1.8.68-2.71,1.04Zm5.45-2.02l-2.95-8.5c1-.35,1.98-.68,2.94-.98l2.77,8.56c-.9.29-1.82.6-2.76.92Zm5.54-1.79l-2.59-8.62c1.03-.31,2.03-.6,2.98-.86l2.41,8.67c-.89.25-1.83.52-2.79.81Zm5.6-1.56l-2.22-8.72c1.09-.28,2.1-.52,3.02-.73l2.02,8.77c-.86.2-1.8.43-2.82.69Zm5.64-1.3l-1.79-8.82c1.98-.4,3.14-.58,3.19-.59l1.34,8.9c-.06,0-1.05.16-2.74.51Zm2.74-.51l-.67-4.45.67,4.45s0,0,0,0h0Z"/><path class="cls-8" d="m775.6,397.18v-9c.97,0,1.95,0,2.95-.02l.1,9c-1.03.01-2.04.02-3.05.02Zm-3.05-.02c-1.03-.01-2.05-.03-3.04-.05l.18-9c.97.02,1.96.03,2.96.05l-.1,9Zm9.16-.06l-.22-9c.97-.02,1.95-.05,2.94-.09l.34,8.99c-1.02.04-2.04.07-3.06.1Zm-15.25-.07c-1.04-.03-2.05-.06-3.04-.1l.34-8.99c.96.04,1.95.07,2.96.1l-.26,9Zm21.37-.17l-.47-8.99c.97-.05,1.95-.11,2.92-.18l.63,8.98c-1.02.07-2.05.13-3.07.19Zm-27.44-.06c-1.06-.05-2.08-.1-3.03-.15l.46-8.99c.93.05,1.92.1,2.97.14l-.4,8.99Zm-6.04-.31l-2.99-.17.48-8.99,3.01.17-.5,8.99Zm39.62-.06l-.79-8.96c.97-.09,1.93-.18,2.89-.29l.98,8.95c-1.02.11-2.05.21-3.08.31Zm6.17-.68l-1.21-8.92c.91-.12,1.84-.27,2.76-.44l1.62,8.85c-1.06.19-2.12.36-3.16.5Zm6.29-1.14l-1.99-8.78c.92-.21,1.83-.44,2.74-.68l2.34,8.69c-1.03.28-2.05.53-3.08.77Zm6.13-1.65l-2.66-8.6c.91-.28,1.81-.58,2.71-.89l2.95,8.5c-1,.35-2,.67-3,.98Zm5.96-2.06l-3.22-8.4c.89-.34,1.78-.7,2.67-1.07l3.46,8.31c-.97.4-1.94.79-2.91,1.16Zm5.78-2.4l-3.68-8.21c.88-.39,1.75-.8,2.63-1.22l3.88,8.12c-.94.45-1.88.89-2.82,1.31Zm5.61-2.68l-4.06-8.03c.86-.44,1.72-.88,2.58-1.34l4.23,7.94c-.91.49-1.83.96-2.75,1.43Zm5.46-2.9l-4.38-7.86c.85-.47,1.7-.96,2.54-1.44l4.51,7.79c-.89.51-1.78,1.02-2.68,1.52Zm5.32-3.08l-4.63-7.72c.84-.5,1.68-1.01,2.51-1.53l4.73,7.65c-.87.54-1.74,1.07-2.61,1.59Zm5.2-3.21l-4.83-7.6c.83-.53,1.66-1.06,2.48-1.6l4.9,7.55c-.85.55-1.7,1.1-2.56,1.65Zm5.1-3.31l-4.97-7.5c.83-.55,1.65-1.1,2.46-1.65l5.03,7.46c-.84.56-1.68,1.13-2.52,1.69Zm5.03-3.39l-5.07-7.43c.82-.56,1.64-1.12,2.46-1.69l5.11,7.41c-.83.57-1.66,1.14-2.49,1.71Zm4.97-3.42l-5.13-7.39,2.45-1.7,5.17,7.37-2.48,1.73Zm4.95-3.48l-5.21-7.34c.79-.56,1.6-1.14,2.41-1.73l5.28,7.29c-.83.6-1.66,1.19-2.47,1.77Zm4.92-3.55l-5.32-7.26c.79-.58,1.58-1.17,2.39-1.76l5.38,7.22c-.82.61-1.63,1.21-2.44,1.8Zm4.87-3.62l-5.43-7.18c.78-.59,1.57-1.19,2.36-1.8l5.47,7.14c-.81.62-1.62,1.23-2.41,1.84Zm4.81-3.69l-5.52-7.11c.77-.6,1.55-1.21,2.34-1.83l5.57,7.07c-.8.63-1.6,1.25-2.39,1.87Zm4.76-3.75l-5.62-7.03c.77-.61,1.54-1.23,2.31-1.86l5.67,6.99c-.79.64-1.58,1.27-2.36,1.9Zm4.7-3.81l-5.71-6.96c.76-.62,1.52-1.25,2.29-1.89l5.76,6.92c-.78.65-1.56,1.3-2.34,1.93Zm4.66-3.88l-5.8-6.88c.75-.63,1.51-1.27,2.27-1.92l5.85,6.84c-.77.66-1.54,1.31-2.31,1.96Zm4.61-3.93l-5.89-6.81c.74-.64,1.49-1.29,2.24-1.95l5.93,6.77c-.77.67-1.53,1.33-2.29,1.99Zm4.56-3.99l-5.98-6.73c.73-.65,1.47-1.31,2.21-1.98l6.02,6.69c-.76.68-1.51,1.35-2.26,2.02Zm4.5-4.05l-6.06-6.66c.73-.66,1.46-1.33,2.19-2.01l6.1,6.61c-.75.69-1.49,1.37-2.23,2.05Zm4.46-4.11l-6.16-6.57c.71-.66,1.4-1.33,2.09-2.01l6.3,6.43c-.74.72-1.48,1.44-2.24,2.15Zm4.42-4.33l-6.43-6.3c.68-.69,1.35-1.39,2.01-2.1l6.56,6.16c-.71.75-1.42,1.49-2.14,2.23Zm4.23-4.5l-6.68-6.03c.65-.72,1.29-1.45,1.93-2.18l6.79,5.9c-.67.78-1.36,1.54-2.04,2.31Zm4.04-4.65l-6.9-5.78c.62-.75,1.24-1.5,1.85-2.25l7,5.65c-.64.8-1.29,1.59-1.95,2.37Zm3.86-4.78l-7.1-5.53c.6-.77,1.19-1.54,1.78-2.32l7.19,5.42c-.61.82-1.24,1.63-1.87,2.44Zm3.69-4.9l-7.28-5.29c.57-.79,1.14-1.58,1.7-2.38l7.36,5.18c-.59.83-1.18,1.66-1.78,2.49Zm3.53-5.01l-7.44-5.07c.55-.81,1.1-1.62,1.64-2.44l7.51,4.96c-.56.85-1.13,1.7-1.71,2.54Zm3.38-5.11l-7.58-4.86c.53-.83,1.05-1.65,1.57-2.48l7.65,4.75c-.54.87-1.08,1.73-1.63,2.59Zm3.23-5.21l-7.71-4.64c.51-.84,1.01-1.69,1.5-2.53l7.77,4.54c-.51.88-1.03,1.76-1.56,2.63Zm3.09-5.28l-7.83-4.44c.49-.86.97-1.72,1.44-2.57l7.88,4.35c-.49.89-.99,1.78-1.49,2.67Zm2.95-5.35l-7.94-4.25c.47-.87.93-1.74,1.38-2.61l7.98,4.16c-.47.9-.94,1.8-1.42,2.7Zm2.82-5.42l-8.03-4.07c.45-.88.89-1.76,1.32-2.64l8.07,3.98c-.45.91-.9,1.82-1.36,2.73Zm2.69-5.48l-8.12-3.89c.43-.89.85-1.78,1.26-2.67l8.16,3.8c-.43.92-.86,1.84-1.3,2.76Zm2.58-5.53l-8.2-3.71c.41-.91.81-1.81,1.2-2.7l8.24,3.62c-.41.92-.82,1.85-1.24,2.78Zm2.45-5.58l-8.28-3.54c.39-.92.77-1.83,1.15-2.73l8.31,3.45c-.39.93-.78,1.86-1.18,2.81Zm2.34-5.63l-8.35-3.37c.37-.93.74-1.84,1.09-2.75l8.38,3.29c-.37.93-.74,1.88-1.13,2.83Zm2.23-5.67l-8.41-3.2c.36-.94.7-1.86,1.04-2.77l8.44,3.13c-.35.93-.7,1.88-1.07,2.85Zm2.12-5.71l-8.47-3.04c.34-.95.67-1.88.99-2.79l8.5,2.96c-.33.94-.67,1.9-1.02,2.87Zm2.01-5.76l-8.53-2.86c.32-.97.64-1.9.93-2.82l8.56,2.79c-.3.93-.62,1.9-.96,2.89Zm1.89-5.79l-8.59-2.7c.31-.98.6-1.93.87-2.83l8.61,2.61c-.28.93-.58,1.9-.9,2.92Zm1.77-5.85l-8.64-2.51c.3-1.03.57-1.98.81-2.84l8.67,2.4c-.25.89-.53,1.88-.84,2.95Zm1.64-5.92l-8.71-2.28c.46-1.77.69-2.76.7-2.8l8.77,2.01s-.25,1.08-.77,3.07Z"/><path class="cls-8" d="m630.07,358.48l-6.2-6.53s.77-.73,2.23-2.1l6.15,6.57c-1.43,1.34-2.18,2.06-2.19,2.06Zm4.38-4.11l-6.13-6.58,2.21-2.05,6.13,6.59-2.2,2.05Zm4.4-4.08l-6.11-6.61,2.22-2.04,6.1,6.62-2.21,2.03Zm4.41-4.06l-6.09-6.63,2.22-2.03,6.08,6.64-2.21,2.03Zm4.42-4.05l-6.06-6.65,2.23-2.03,6.05,6.66-2.22,2.02Zm4.44-4.03l-6.04-6.67,2.23-2.02,6.03,6.68-2.22,2.01Zm4.45-4.02l-6.03-6.69,2.24-2.02,6.01,6.7-2.23,2Zm4.46-4l-6.01-6.7,2.24-2.01,5.99,6.71-2.23,2Zm4.47-3.99l-5.99-6.72,2.25-2,5.98,6.73-2.24,1.99Zm4.48-3.98l-5.97-6.74,2.26-1.99,5.96,6.75-2.24,1.98Zm4.49-3.97l-5.95-6.75,2.26-1.99,5.94,6.76-2.25,1.98Zm4.5-3.95l-5.93-6.77,2.27-1.98,5.92,6.78-2.25,1.97Zm4.51-3.94l-5.91-6.79,2.27-1.98,5.9,6.8-2.26,1.96Zm4.52-3.93l-5.89-6.8,2.28-1.97,5.88,6.81-2.27,1.96Zm4.53-3.91l-5.87-6.82,2.28-1.96,5.86,6.83-2.27,1.95Zm4.55-3.9l-5.85-6.84,2.29-1.95,5.84,6.84-2.28,1.95Zm4.56-3.89l-5.83-6.86,2.29-1.95,5.82,6.87-2.28,1.94Zm4.57-3.87l-5.81-6.87,2.3-1.94,5.8,6.88-2.29,1.93Zm4.58-3.86l-5.79-6.89,2.3-1.93,5.78,6.9-2.3,1.93Zm4.59-3.85l-5.77-6.91,2.31-1.93,5.75,6.92-2.3,1.92Zm4.6-3.83l-5.74-6.93,2.32-1.92,5.73,6.94-2.31,1.91Zm4.62-3.81l-5.72-6.95,2.33-1.91,5.71,6.96-2.31,1.9Zm4.63-3.8l-5.7-6.97,2.33-1.9,5.68,6.98-2.32,1.89Zm4.64-3.78l-5.67-6.99,2.34-1.89,5.66,7-2.33,1.88Zm4.66-3.76l-5.65-7.01,2.35-1.89,5.63,7.02-2.33,1.87Zm4.67-3.75l-5.62-7.03,2.35-1.88,5.61,7.04-2.34,1.87Zm4.68-3.73l-5.59-7.05,2.36-1.87,5.58,7.06-2.35,1.86Zm4.69-3.7l-5.56-7.07,2.36-1.85,5.55,7.08-2.35,1.84Zm4.7-3.68l-5.54-7.09,2.38-1.85,5.52,7.11-2.36,1.83Zm4.72-3.67l-5.5-7.12,2.38-1.84,5.49,7.13-2.37,1.83Zm4.75-3.65l-5.47-7.15,2.4-1.83,5.46,7.16-2.38,1.82Zm4.77-3.63l-5.44-7.17,2.41-1.82,5.42,7.18-2.4,1.81Zm4.78-3.61l-5.4-7.2,2.41-1.8,5.38,7.21-2.4,1.79Zm4.79-3.58l-5.37-7.23,2.42-1.79,5.35,7.24-2.4,1.78Zm4.81-3.55l-5.33-7.25,2.43-1.78,5.3,7.27-2.41,1.76Zm4.83-3.52l-5.28-7.29,2.44-1.77,5.26,7.3-2.42,1.75Zm4.85-3.49l-5.24-7.32c.82-.59,1.64-1.17,2.46-1.75l5.21,7.33c-.81.58-1.62,1.15-2.43,1.73Zm4.87-3.46l-5.19-7.35,2.46-1.74,5.17,7.36-2.44,1.72Zm4.89-3.43l-5.14-7.38,2.48-1.72,5.12,7.4-2.45,1.7Zm4.91-3.4l-5.1-7.42c.83-.57,1.66-1.14,2.49-1.7l5.07,7.44c-.82.56-1.64,1.12-2.46,1.68Zm4.93-3.36l-5.04-7.46c.84-.56,1.67-1.13,2.51-1.68l5.01,7.48c-.83.55-1.65,1.11-2.48,1.67Zm4.96-3.32l-4.98-7.5c.84-.56,1.68-1.11,2.52-1.67l4.94,7.52c-.83.54-1.66,1.09-2.49,1.64Zm4.98-3.28l-4.91-7.54c.85-.55,1.69-1.1,2.53-1.64l4.88,7.56c-.83.54-1.67,1.08-2.5,1.62Zm5.01-3.23l-4.84-7.59c.85-.54,1.7-1.08,2.55-1.62l4.8,7.61c-.84.53-1.68,1.06-2.52,1.6Zm5.04-3.18l-4.77-7.63c.86-.54,1.72-1.07,2.57-1.6l4.72,7.66c-.84.52-1.68,1.04-2.53,1.57Zm5.07-3.12l-4.68-7.69c.87-.53,1.73-1.05,2.59-1.57l4.64,7.71c-.85.51-1.7,1.02-2.55,1.54Zm5.1-3.07l-4.59-7.74c.87-.52,1.74-1.03,2.61-1.54l4.54,7.77c-.85.5-1.71,1-2.56,1.51Zm5.13-3l-4.49-7.8c.88-.51,1.76-1.01,2.63-1.5l4.44,7.83c-.86.49-1.72.98-2.58,1.47Zm5.17-2.93l-4.38-7.86c.89-.5,1.78-.98,2.66-1.47l4.32,7.9c-.86.47-1.73.95-2.6,1.43Zm5.2-2.84l-4.25-7.93c.9-.48,1.79-.96,2.68-1.42l4.19,7.97c-.87.46-1.74.92-2.62,1.39Zm5.25-2.76l-4.12-8,1.08-.55,4.08,8.02-1.04.53Z"/><rect class="cls-4" x="779.01" y="233.61" width="12.98" height="25.79" transform="translate(13.07 531.32) rotate(-37.66)"/></g><g id="Start_Line"><rect x="791.15" y="233.21" width="6.11" height="50.36" transform="translate(7.62 539.11) rotate(-37.66)"/><polygon points="797.51 283.29 798.02 279.35 785.95 277.8 787.5 265.72 783.56 265.22 781.5 281.23 797.51 283.29"/><polygon points="784.73 293.23 785.23 289.29 773.16 287.74 774.71 275.66 770.77 275.15 768.71 291.17 784.73 293.23"/><polygon points="771.94 303.17 772.45 299.23 760.37 297.67 761.93 285.6 757.99 285.09 755.92 301.11 771.94 303.17"/></g><g id="Turn_Numbers"><g id="Layer_46"><g id="_1"><circle cx="602" cy="376" r="11"/><text class="cls-5" transform="translate(594.38 380.35)"><tspan x="0" y="0">01</tspan></text></g><g id="_2"><circle cx="598" cy="397" r="11"/><text class="cls-5" transform="translate(590.38 401.35)"><tspan x="0" y="0">02</tspan></text></g><g id="_3"><circle cx="570" cy="400" r="11"/><text class="cls-5" transform="translate(562.38 404.35)"><tspan x="0" y="0">03</tspan></text></g><g id="_4"><circle cx="454" cy="471" r="11"/><text class="cls-5" transform="translate(446.38 475.35)"><tspan x="0" y="0">04</tspan></text></g><g id="_5"><circle cx="442" cy="505" r="11"/><text class="cls-5" transform="translate(434.38 509.35)"><tspan x="0" y="0">05</tspan></text></g><g id="_6"><circle cx="404" cy="505" r="11"/><text class="cls-5" transform="translate(396.38 509.35)"><tspan x="0" y="0">06</tspan></text></g><g id="_7"><circle cx="348" cy="535" r="11"/><text class="cls-5" transform="translate(340.38 539.35)"><tspan x="0" y="0">07</tspan></text></g><g id="_8"><circle cx="338" cy="560" r="11"/><text class="cls-5" transform="translate(330.38 564.35)"><tspan x="0" y="0">08</tspan></text></g><g id="_9"><circle cx="310" cy="571" r="11"/><text class="cls-5" transform="translate(302.38 575.35)"><tspan x="0" y="0">09</tspan></text></g><g id="_10"><circle cx="272" cy="546" r="11"/><text class="cls-5" transform="translate(264.38 550.35)"><tspan x="0" y="0">10</tspan></text></g><g id="_11"><circle cx="235" cy="553" r="11"/><text class="cls-5" transform="translate(227.38 557.35)"><tspan x="0" y="0">11</tspan></text></g><g id="_12"><circle cx="200" cy="553" r="11"/><text class="cls-5" transform="translate(192.38 557.35)"><tspan x="0" y="0">12</tspan></text></g><g id="_13"><circle cx="51" cy="661" r="11"/><text class="cls-5" transform="translate(43.38 665.35)"><tspan x="0" y="0">13</tspan></text></g><g id="_13-2"><circle cx="151.43" cy="636.92" r="11"/><text class="cls-5" transform="translate(143.81 641.27)"><tspan x="0" y="0">14</tspan></text></g><g id="_13-3"><circle cx="218" cy="635" r="11"/><text class="cls-5" transform="translate(210.38 639.35)"><tspan x="0" y="0">15</tspan></text></g><g id="_13-4"><circle cx="246" cy="630" r="11"/><text class="cls-5" transform="translate(238.38 634.35)"><tspan x="0" y="0">16</tspan></text></g><g id="_13-5"><circle cx="268" cy="648" r="11"/><text class="cls-5" transform="translate(260.38 652.35)"><tspan x="0" y="0">17</tspan></text></g><g id="_13-6"><circle cx="332" cy="641" r="11"/><text class="cls-5" transform="translate(324.38 645.35)"><tspan x="0" y="0">18</tspan></text></g><g id="_13-7"><circle cx="411" cy="578" r="11"/><text class="cls-5" transform="translate(403.38 582.35)"><tspan x="0" y="0">19</tspan></text></g><g id="_13-8"><circle cx="475" cy="525" r="11"/><text class="cls-5" transform="translate(467.38 529.35)"><tspan x="0" y="0">20</tspan></text></g><g id="_13-9"><circle cx="530" cy="466" r="11"/><text class="cls-5" transform="translate(522.38 470.35)"><tspan x="0" y="0">21</tspan></text></g><g id="_13-10"><circle cx="644" cy="445" r="11"/><text class="cls-5" transform="translate(636.38 449.35)"><tspan x="0" y="0">22</tspan></text></g><g id="_13-11"><circle cx="669" cy="404" r="11"/><text class="cls-5" transform="translate(661.38 408.35)"><tspan x="0" y="0">23</tspan></text></g><g id="_13-12"><circle cx="703" cy="386" r="11"/><text class="cls-5" transform="translate(695.38 390.35)"><tspan x="0" y="0">24</tspan></text></g><g id="_13-13"><circle cx="790" cy="349" r="11"/><text class="cls-5" transform="translate(782.38 353.35)"><tspan x="0" y="0">25</tspan></text></g><g id="_13-14"><circle cx="894" cy="274" r="11"/><text class="cls-5" transform="translate(886.38 278.35)"><tspan x="0" y="0">26</tspan></text></g><g id="_13-15"><path d="m948,167c0,6.08-2.92,11-9,11s-11-4.92-11-11,8.92-11,15-11,5,4.92,5,11Z"/><text class="cls-5" transform="translate(931.38 171.35)"><tspan x="0" y="0">27</tspan></text></g></g><g id="Layer_50"><g id="Legend"><circle cx="71" cy="245" r="13"/><path d="m95.5,244.17v-2.36h8.94v2.36h-8.94Zm0,4.02v-2.38h8.94v2.38h-8.94Z"/><path d="m116.99,251.34h-3.47v-10.02h-3.14v-2.84h9.75v2.84h-3.13v10.02Z"/><path d="m132.9,238.48v7.74c0,1.08-.21,2.02-.62,2.81-.41.79-1.03,1.41-1.85,1.84-.82.43-1.85.65-3.09.65-1.77,0-3.12-.45-4.06-1.36-.93-.91-1.4-2.19-1.4-3.85v-7.82h3.49v7.55c0,.91.17,1.57.51,1.98.34.41.84.62,1.5.62.47,0,.86-.09,1.16-.27s.52-.46.66-.85c.14-.39.21-.89.21-1.5v-7.53h3.47Z"/><path d="m139.81,238.48c1.17,0,2.14.14,2.91.43.77.28,1.36.71,1.75,1.27.39.56.58,1.26.58,2.1,0,.52-.09,1-.26,1.43s-.43.81-.75,1.15c-.33.34-.71.63-1.17.88l3.75,5.6h-3.94l-2.73-4.68h-.88v4.68h-3.47v-12.86h4.21Zm-.05,2.63h-.69v2.94h.65c.53,0,.97-.12,1.31-.35.34-.23.51-.65.51-1.26,0-.42-.14-.74-.42-.98s-.74-.35-1.36-.35Z"/><path d="m160.04,251.34h-4.56l-4.7-9.06h-.08c.03.28.06.61.08.99s.04.78.06,1.18.03.76.03,1.09v5.8h-3.08v-12.86h4.54l4.68,8.94h.05c-.02-.28-.04-.61-.05-.98-.02-.37-.03-.75-.05-1.13-.01-.38-.02-.72-.02-1.01v-5.81h3.1v12.86Z"/><path d="m179.74,251.34h-4.56l-4.7-9.06h-.08c.03.28.06.61.08.99s.04.78.06,1.18.03.76.03,1.09v5.8h-3.08v-12.86h4.54l4.68,8.94h.05c-.02-.28-.04-.61-.05-.98-.02-.37-.03-.75-.05-1.13-.01-.38-.02-.72-.02-1.01v-5.81h3.1v12.86Z"/><path d="m193.45,238.48v7.74c0,1.08-.21,2.02-.62,2.81-.41.79-1.03,1.41-1.85,1.84-.82.43-1.85.65-3.09.65-1.77,0-3.12-.45-4.06-1.36-.93-.91-1.4-2.19-1.4-3.85v-7.82h3.49v7.55c0,.91.17,1.57.51,1.98.34.41.84.62,1.5.62.47,0,.86-.09,1.16-.27s.52-.46.66-.85c.14-.39.21-.89.21-1.5v-7.53h3.47Z"/><path d="m201.76,251.34l-2.63-9.26h-.08c.02.24.05.57.07.98.03.41.05.85.08,1.33s.04.93.04,1.37v5.59h-3.08v-12.86h4.63l2.68,9.13h.07l2.63-9.13h4.64v12.86h-3.19v-5.64c0-.4,0-.84.02-1.31s.03-.91.05-1.32c.02-.41.04-.74.06-.98h-.08l-2.59,9.25h-3.31Z"/><path d="m213.57,238.48h4.49c1.86,0,3.18.28,3.98.83.79.55,1.19,1.34,1.19,2.38,0,.56-.1,1.04-.3,1.43-.2.39-.46.7-.77.93-.31.23-.62.38-.95.47v.09c.35.09.7.23,1.05.44s.64.5.87.91c.23.4.35.95.35,1.63,0,.78-.2,1.45-.59,2.01-.4.56-.96,1-1.69,1.3-.73.3-1.6.45-2.61.45h-5.01v-12.86Zm3.47,4.93h1.05c.58,0,.98-.12,1.21-.36.23-.24.35-.53.35-.87s-.13-.62-.4-.8c-.27-.19-.68-.28-1.24-.28h-.98v2.3Zm0,2.54v2.7h1.22c.6,0,1.03-.13,1.27-.39.24-.26.36-.59.36-.98,0-.23-.05-.44-.15-.65-.1-.2-.28-.37-.52-.49s-.59-.19-1.02-.19h-1.15Z"/><path d="m233.35,251.34h-7.64v-12.86h7.64v2.79h-4.16v2.02h3.85v2.79h-3.85v2.43h4.16v2.83Z"/><path d="m239.81,238.48c1.17,0,2.14.14,2.91.43.77.28,1.36.71,1.75,1.27.39.56.58,1.26.58,2.1,0,.52-.09,1-.26,1.43s-.43.81-.75,1.15c-.33.34-.71.63-1.17.88l3.75,5.6h-3.94l-2.73-4.68h-.88v4.68h-3.47v-12.86h4.21Zm-.05,2.63h-.69v2.94h.65c.53,0,.97-.12,1.31-.35.34-.23.51-.65.51-1.26,0-.42-.14-.74-.42-.98s-.74-.35-1.36-.35Z"/><path d="m256.2,247.44c0,.7-.18,1.36-.53,1.98s-.9,1.13-1.64,1.52c-.74.39-1.7.58-2.87.58-.59,0-1.1-.03-1.54-.08-.44-.05-.85-.14-1.24-.26-.38-.12-.78-.28-1.19-.47v-3.1c.7.35,1.4.62,2.11.8.71.18,1.35.28,1.93.28.35,0,.63-.04.85-.12.22-.08.38-.19.49-.34.11-.14.16-.31.16-.5,0-.22-.08-.41-.23-.57s-.4-.32-.74-.49c-.34-.17-.79-.38-1.35-.63-.47-.22-.9-.45-1.29-.69-.38-.23-.71-.5-.99-.81-.27-.3-.48-.66-.63-1.06-.15-.4-.22-.88-.22-1.43,0-.83.2-1.52.61-2.08.41-.56.98-.98,1.71-1.26.73-.28,1.57-.42,2.53-.42.84,0,1.59.09,2.26.28.67.19,1.27.4,1.81.64l-1.06,2.68c-.55-.25-1.09-.45-1.63-.6-.53-.15-1.03-.22-1.49-.22-.3,0-.54.04-.73.11-.19.07-.33.17-.42.29s-.14.26-.14.42c0,.2.08.38.23.54.16.16.42.33.78.51.37.19.87.42,1.5.72.63.28,1.16.58,1.6.91.44.33.78.72,1.01,1.17.23.45.35,1.02.35,1.68Z"/><circle class="cls-8" cx="71" cy="165" r="13"/><path d="m71,179c-7.72,0-14-6.28-14-14s6.28-14,14-14,14,6.28,14,14-6.28,14-14,14Zm0-26c-6.62,0-12,5.38-12,12s5.38,12,12,12,12-5.38,12-12-5.38-12-12-12Z"/><path d="m95.5,164.17v-2.36h8.94v2.36h-8.94Zm0,4.02v-2.38h8.94v2.38h-8.94Z"/><path d="m122.24,164.64c0,1.5-.28,2.74-.84,3.73-.56.99-1.34,1.73-2.35,2.23-1.01.5-2.2.74-3.57.74h-4.16v-12.86h4.45c1.38,0,2.56.24,3.52.71s1.69,1.17,2.2,2.08c.5.92.75,2.04.75,3.36Zm-3.61.12c0-.78-.1-1.43-.31-1.94s-.52-.9-.94-1.15c-.42-.25-.94-.38-1.57-.38h-1.01v7.2h.77c1.06,0,1.83-.31,2.32-.92.49-.61.74-1.55.74-2.81Z"/><path d="m128.76,158.48c1.17,0,2.14.14,2.91.43.77.28,1.36.71,1.75,1.27.39.56.58,1.26.58,2.1,0,.52-.09,1-.26,1.43s-.43.81-.75,1.15c-.33.34-.71.63-1.17.88l3.75,5.6h-3.94l-2.73-4.68h-.88v4.68h-3.47v-12.86h4.21Zm-.05,2.63h-.69v2.94h.65c.53,0,.97-.12,1.31-.35.34-.23.51-.65.51-1.26,0-.42-.14-.74-.42-.98s-.74-.35-1.36-.35Z"/><path d="m145.14,167.44c0,.7-.18,1.36-.53,1.98s-.9,1.13-1.64,1.52c-.74.39-1.7.58-2.87.58-.59,0-1.1-.03-1.54-.08-.44-.05-.85-.14-1.24-.26-.38-.12-.78-.28-1.19-.47v-3.1c.7.35,1.4.62,2.11.8.71.18,1.35.28,1.93.28.35,0,.63-.04.85-.12.22-.08.38-.19.49-.34.11-.14.16-.31.16-.5,0-.22-.08-.41-.23-.57s-.4-.32-.74-.49c-.34-.17-.79-.38-1.35-.63-.47-.22-.9-.45-1.29-.69-.38-.23-.71-.5-.99-.81-.27-.3-.48-.66-.63-1.06-.15-.4-.22-.88-.22-1.43,0-.83.2-1.52.61-2.08.41-.56.98-.98,1.71-1.26.73-.28,1.57-.42,2.53-.42.84,0,1.59.09,2.26.28.67.19,1.27.4,1.81.64l-1.06,2.68c-.55-.25-1.09-.45-1.63-.6-.53-.15-1.03-.22-1.49-.22-.3,0-.54.04-.73.11-.19.07-.33.17-.42.29s-.14.26-.14.42c0,.2.08.38.23.54.16.16.42.33.78.51.37.19.87.42,1.5.72.63.28,1.16.58,1.6.91.44.33.78.72,1.01,1.17.23.45.35,1.02.35,1.68Z"/><path d="m162.73,164.64c0,1.5-.28,2.74-.84,3.73-.56.99-1.34,1.73-2.35,2.23-1.01.5-2.2.74-3.57.74h-4.16v-12.86h4.45c1.38,0,2.56.24,3.52.71s1.69,1.17,2.2,2.08c.5.92.75,2.04.75,3.36Zm-3.61.12c0-.78-.1-1.43-.31-1.94s-.52-.9-.94-1.15c-.42-.25-.94-.38-1.57-.38h-1.01v7.2h.77c1.06,0,1.83-.31,2.32-.92.49-.61.74-1.55.74-2.81Z"/><path d="m172.67,171.34h-7.64v-12.86h7.64v2.79h-4.16v2.02h3.85v2.79h-3.85v2.43h4.16v2.83Z"/><path d="m180.59,171.34h-3.47v-10.02h-3.14v-2.84h9.75v2.84h-3.13v10.02Z"/><path d="m193.2,171.34h-7.64v-12.86h7.64v2.79h-4.16v2.02h3.85v2.79h-3.85v2.43h4.16v2.83Z"/><path d="m201.18,161.15c-.41,0-.78.09-1.1.26s-.6.42-.83.75c-.23.33-.4.73-.52,1.2-.12.47-.18,1.01-.18,1.61,0,.81.1,1.49.31,2.04.21.55.52.97.94,1.25.42.28.95.42,1.58.42.58,0,1.13-.08,1.66-.24.53-.16,1.07-.35,1.61-.57v2.94c-.57.25-1.15.43-1.75.55-.59.11-1.23.17-1.9.17-1.4,0-2.54-.28-3.43-.83-.89-.55-1.54-1.32-1.96-2.31-.42-.99-.63-2.13-.63-3.43,0-.97.14-1.86.41-2.67.27-.81.67-1.51,1.2-2.11.53-.6,1.18-1.06,1.96-1.38.78-.33,1.67-.49,2.67-.49.62,0,1.28.07,1.97.22.69.14,1.36.37,2.02.69l-1.06,2.74c-.47-.22-.94-.41-1.42-.56-.48-.15-.99-.23-1.53-.23Z"/><path d="m212.82,171.34h-3.47v-10.02h-3.14v-2.84h9.75v2.84h-3.13v10.02Z"/><path d="m217.79,171.34v-12.86h3.49v12.86h-3.49Z"/><path d="m236.09,164.89c0,.99-.12,1.89-.36,2.7-.24.81-.61,1.51-1.11,2.1-.5.59-1.15,1.04-1.94,1.35-.79.31-1.74.47-2.84.47s-2.01-.16-2.8-.47c-.79-.31-1.44-.76-1.95-1.35-.51-.58-.89-1.28-1.13-2.1-.25-.81-.37-1.72-.37-2.73,0-1.34.22-2.5.66-3.49.44-.99,1.13-1.75,2.05-2.3s2.11-.81,3.55-.81,2.66.27,3.58.82,1.59,1.31,2.02,2.3c.43.99.64,2.15.64,3.49Zm-8.85,0c0,.77.09,1.44.26,2s.46.99.84,1.28c.38.3.88.45,1.5.45s1.15-.15,1.53-.45c.38-.3.65-.73.82-1.28s.25-1.22.25-2c0-1.16-.19-2.08-.58-2.75s-1.05-1.01-2-1.01c-.63,0-1.13.15-1.52.46-.38.31-.66.74-.83,1.3s-.26,1.23-.26,2.01Z"/><path d="m250.66,171.34h-4.56l-4.7-9.06h-.08c.03.28.06.61.08.99s.04.78.06,1.18.03.76.03,1.09v5.8h-3.08v-12.86h4.54l4.68,8.94h.05c-.02-.28-.04-.61-.05-.98-.02-.37-.03-.75-.05-1.13-.01-.38-.02-.72-.02-1.01v-5.81h3.1v12.86Z"/><path d="m267.28,171.34h-10.02v-2.15l5.57-7.91h-5.44v-2.81h9.75v2.14l-5.57,7.92h5.71v2.81Z"/><path d="m281.16,164.89c0,.99-.12,1.89-.36,2.7-.24.81-.61,1.51-1.11,2.1-.5.59-1.15,1.04-1.94,1.35-.79.31-1.74.47-2.84.47s-2.01-.16-2.8-.47c-.79-.31-1.44-.76-1.95-1.35-.51-.58-.89-1.28-1.13-2.1-.25-.81-.37-1.72-.37-2.73,0-1.34.22-2.5.66-3.49.44-.99,1.13-1.75,2.05-2.3s2.11-.81,3.55-.81,2.66.27,3.58.82,1.59,1.31,2.02,2.3c.43.99.64,2.15.64,3.49Zm-8.85,0c0,.77.09,1.44.26,2s.46.99.84,1.28c.38.3.88.45,1.5.45s1.15-.15,1.53-.45c.38-.3.65-.73.82-1.28s.25-1.22.25-2c0-1.16-.19-2.08-.58-2.75s-1.05-1.01-2-1.01c-.63,0-1.13.15-1.52.46-.38.31-.66.74-.83,1.3s-.26,1.23-.26,2.01Z"/><path d="m295.72,171.34h-4.56l-4.7-9.06h-.08c.03.28.06.61.08.99s.04.78.06,1.18.03.76.03,1.09v5.8h-3.08v-12.86h4.54l4.68,8.94h.05c-.02-.28-.04-.61-.05-.98-.02-.37-.03-.75-.05-1.13-.01-.38-.02-.72-.02-1.01v-5.81h3.1v12.86Z"/><path d="m306.14,171.34h-7.64v-12.86h7.64v2.79h-4.16v2.02h3.85v2.79h-3.85v2.43h4.16v2.83Z"/><path d="m95.5,203.17v-2.36h8.94v2.36h-8.94Zm0,4.02v-2.38h8.94v2.38h-8.94Z"/><path d="m122.24,203.64c0,1.5-.28,2.74-.84,3.73-.56.99-1.34,1.73-2.35,2.23-1.01.5-2.2.74-3.57.74h-4.16v-12.86h4.45c1.38,0,2.56.24,3.52.71s1.69,1.17,2.2,2.08c.5.92.75,2.04.75,3.36Zm-3.61.12c0-.78-.1-1.43-.31-1.94s-.52-.9-.94-1.15c-.42-.25-.94-.38-1.57-.38h-1.01v7.2h.77c1.06,0,1.83-.31,2.32-.92.49-.61.74-1.55.74-2.81Z"/><path d="m128.76,197.48c1.17,0,2.14.14,2.91.43.77.28,1.36.71,1.75,1.27.39.56.58,1.26.58,2.1,0,.52-.09,1-.26,1.43s-.43.81-.75,1.15c-.33.34-.71.63-1.17.88l3.75,5.6h-3.94l-2.73-4.68h-.88v4.68h-3.47v-12.86h4.21Zm-.05,2.63h-.69v2.94h.65c.53,0,.97-.12,1.31-.35.34-.23.51-.65.51-1.26,0-.42-.14-.74-.42-.98s-.74-.35-1.36-.35Z"/><path d="m145.14,206.44c0,.7-.18,1.36-.53,1.98s-.9,1.13-1.64,1.52c-.74.39-1.7.58-2.87.58-.59,0-1.1-.03-1.54-.08-.44-.05-.85-.14-1.24-.26-.38-.12-.78-.28-1.19-.47v-3.1c.7.35,1.4.62,2.11.8.71.18,1.35.28,1.93.28.35,0,.63-.04.85-.12.22-.08.38-.19.49-.34.11-.14.16-.31.16-.5,0-.22-.08-.41-.23-.57s-.4-.32-.74-.49c-.34-.17-.79-.38-1.35-.63-.47-.22-.9-.45-1.29-.69-.38-.23-.71-.5-.99-.81-.27-.3-.48-.66-.63-1.06-.15-.4-.22-.88-.22-1.43,0-.83.2-1.52.61-2.08.41-.56.98-.98,1.71-1.26.73-.28,1.57-.42,2.53-.42.84,0,1.59.09,2.26.28.67.19,1.27.4,1.81.64l-1.06,2.68c-.55-.25-1.09-.45-1.63-.6-.53-.15-1.03-.22-1.49-.22-.3,0-.54.04-.73.11-.19.07-.33.17-.42.29s-.14.26-.14.42c0,.2.08.38.23.54.16.16.42.33.78.51.37.19.87.42,1.5.72.63.28,1.16.58,1.6.91.44.33.78.72,1.01,1.17.23.45.35,1.02.35,1.68Z"/><path d="m160.98,210.34h-10.02v-2.15l5.57-7.91h-5.44v-2.81h9.75v2.14l-5.57,7.92h5.71v2.81Z"/><path d="m174.85,203.89c0,.99-.12,1.89-.36,2.7-.24.81-.61,1.51-1.11,2.1-.5.59-1.15,1.04-1.94,1.35-.79.31-1.74.47-2.84.47s-2.01-.16-2.8-.47c-.79-.31-1.44-.76-1.95-1.35-.51-.58-.89-1.28-1.13-2.1-.25-.81-.37-1.72-.37-2.73,0-1.34.22-2.5.66-3.49.44-.99,1.13-1.75,2.05-2.3s2.11-.81,3.55-.81,2.66.27,3.58.82,1.59,1.31,2.02,2.3c.43.99.64,2.15.64,3.49Zm-8.85,0c0,.77.09,1.44.26,2s.46.99.84,1.28c.38.3.88.45,1.5.45s1.15-.15,1.53-.45c.38-.3.65-.73.82-1.28s.25-1.22.25-2c0-1.16-.19-2.08-.58-2.75s-1.05-1.01-2-1.01c-.63,0-1.13.15-1.52.46-.38.31-.66.74-.83,1.3s-.26,1.23-.26,2.01Z"/><path d="m189.42,210.34h-4.56l-4.7-9.06h-.08c.03.28.06.61.08.99s.04.78.06,1.18.03.76.03,1.09v5.8h-3.08v-12.86h4.54l4.68,8.94h.05c-.02-.28-.04-.61-.05-.98-.02-.37-.03-.75-.05-1.13-.01-.38-.02-.72-.02-1.01v-5.81h3.1v12.86Z"/><path d="m199.83,210.34h-7.64v-12.86h7.64v2.79h-4.16v2.02h3.85v2.79h-3.85v2.43h4.16v2.83Z"/><path d="m210.5,206.44c0,.7-.18,1.36-.53,1.98s-.9,1.13-1.64,1.52c-.74.39-1.7.58-2.87.58-.59,0-1.1-.03-1.54-.08-.44-.05-.85-.14-1.24-.26-.38-.12-.78-.28-1.19-.47v-3.1c.7.35,1.4.62,2.11.8.71.18,1.35.28,1.93.28.35,0,.63-.04.85-.12.22-.08.38-.19.49-.34.11-.14.16-.31.16-.5,0-.22-.08-.41-.23-.57s-.4-.32-.74-.49c-.34-.17-.79-.38-1.35-.63-.47-.22-.9-.45-1.29-.69-.38-.23-.71-.5-.99-.81-.27-.3-.48-.66-.63-1.06-.15-.4-.22-.88-.22-1.43,0-.83.2-1.52.61-2.08.41-.56.98-.98,1.71-1.26.73-.28,1.57-.42,2.53-.42.84,0,1.59.09,2.26.28.67.19,1.27.4,1.81.64l-1.06,2.68c-.55-.25-1.09-.45-1.63-.6-.53-.15-1.03-.22-1.49-.22-.3,0-.54.04-.73.11-.19.07-.33.17-.42.29s-.14.26-.14.42c0,.2.08.38.23.54.16.16.42.33.78.51.37.19.87.42,1.5.72.63.28,1.16.58,1.6.91.44.33.78.72,1.01,1.17.23.45.35,1.02.35,1.68Z"/><path class="cls-8" d="m84,216h-2.5v-23h2.5v23Zm-5.5,0h-3v-23h3v23Zm-6,0h-3v-23h3v23Zm-6,0h-3v-23h3v23Zm-6,0h-3v-23h3v23Z"/><path class="cls-4" d="m70.48,243.78c0,.84-.07,1.59-.2,2.26s-.35,1.23-.64,1.69-.68.82-1.17,1.06c-.48.24-1.08.37-1.78.37-.88,0-1.59-.21-2.15-.64-.56-.43-.97-1.04-1.24-1.84-.26-.8-.4-1.76-.4-2.89s.12-2.1.36-2.91c.24-.81.64-1.42,1.19-1.85.55-.43,1.3-.65,2.23-.65.88,0,1.59.21,2.15.64.56.43.97,1.04,1.24,1.85.27.81.4,1.78.4,2.92Zm-4.75,0c0,.68.02,1.26.08,1.72.05.46.15.81.29,1.04.14.23.34.35.61.35s.46-.12.6-.35.23-.58.29-1.04.08-1.04.08-1.72-.03-1.27-.08-1.74-.15-.81-.29-1.05-.34-.35-.6-.35-.46.12-.61.35c-.14.24-.24.59-.29,1.05-.05.46-.08,1.04-.08,1.74Z"/><path class="cls-4" d="m77.75,249.01h-2.88v-5.71c0-.26,0-.54.01-.85,0-.31.02-.59.03-.84-.12.15-.24.27-.35.38-.11.11-.21.2-.31.29l-1.19.98-1.47-1.81,3.6-2.93h2.55v10.48Z"/></g></g></g></g></svg>