<?xml version="1.0" encoding="UTF-8"?>
<svg id="Detailed" xmlns="http://www.w3.org/2000/svg" viewBox="0 0 963 752.71">
  <defs>
    <style>
      .cls-1, .cls-2, .cls-3, .cls-4, .cls-5, .cls-6 {
        stroke-width: 0px;
      }

      .cls-2, .cls-7 {
        fill: #fff;
      }

      .cls-7 {
        font-family: OpenSans-Extrabold, 'Open Sans';
        font-size: 12.58px;
        font-weight: 700;
      }

      .cls-3 {
        fill: #1bce20;
      }

      .cls-4 {
        fill: #fae44a;
      }

      .cls-5 {
        fill: #75e5fd;
      }

      .cls-6 {
        fill: #db4a25;
      }

      .cls-8 {
        fill: none;
        stroke: #1bce20;
        stroke-dasharray: 0 3;
        stroke-miterlimit: 10;
        stroke-width: 9px;
      }
    </style>
  </defs>
  <path class="cls-6" d="m908.23,265l-1.19.91-9.39,7.22-3.16,2.43-8.87,6.82-1.2.91c-18.67-26.33-40.62-56.3-42.26-58.55l-31.31-40.79c-1.48-.86-3.14-1.65-4.55-2.18-.12,1.12-.2,2.61-.15,4.55.73,25.97,3.07,38.54,3.96,42.48,6.51,10.61,17.39,27.5,22.26,32.97,5.97,6.72,8.77,16.18,7.89,26.63-1.04,12.22-7.07,24.12-15.73,31.05l-.58.46c-10.84,8.7-27.24,21.83-68.79,21.83-36.31,0-216.18,3.44-219.19,3.5l-178.46,3.88c-5.5.13-10.71-1.92-14.67-5.75-3.96-3.83-6.18-8.97-6.25-14.47l-.67-54.09,1.5-.04,11.12-.33,4-.11,11.88-.35,1.5-.04.55,44.97,168.9-3.67c7.46-.14,183.07-3.5,219.79-3.5,31.02,0,41.12-8.1,50.04-15.24l.59-.47c4.24-3.4,5.53-12.22,4.11-14.39-8.61-9.67-24.75-36.13-26.56-39.12l-.88-1.44-.53-1.6c-.79-2.35-4.75-15.95-5.76-52.32-.57-20.48,7.72-29.27,14.78-33.04,16.23-8.67,35.24,3.8,38.89,6.39l1.84,1.31,34.58,45.05c1.27,1.74,23.01,31.4,41.97,58.13Z"/>
  <path class="cls-5" d="m365.92,273.94l-30,.87-.26-21.45c-.04-1.54-1.13-28.26-29.67-45.23-22.45-13.35-42.98-13.91-53.22-13.05-.8.06-1.56.37-2.04.8-1.31,4.95-4.5,9.27-8.9,11.98-4.74,2.91-10.54,3.74-15.91,2.26l-35.12-9.66-.33-.14c-.54-.17-1.2-.31-1.82-.38-.11.91-.17,2.28-.03,4.23l.04.59v.58l-1,146.22c-.1,4.38-.8,26.83-5.57,38.75-4.04,10.09-11.55,28.88-37.97,42.72-3.73,1.95-6.85,3.61-9.59,5.08-13.06,6.96-18.46,9.85-38.44,16.8-15.01,5.22-32.47,16.92-39.28,21.71-2.77,1.95-5.07,4.4-6.83,7.28-4.01,6.55-11.16,20.11-14.02,37.31-1.82,10.92-3.32,20.28-4.44,27.8-.1.65.2,1.29.75,1.61,2.48,1.45,4.81,2.75,6.91,3.86,13.49,7.14,61.5,35.11,63.53,36.3l.58.34.55.39c.08.06,1.21.85,3.31,2.29l-16.03,25.38c-1.96-1.34-3.33-2.29-4.07-2.81-5.5-3.2-49.71-28.91-61.91-35.37-2.46-1.31-5.15-2.81-7.99-4.47-11.22-6.55-17.22-19.09-15.3-31.95,1.15-7.69,2.67-17.21,4.51-28.31,3.52-21.09,11.75-37.76,18.03-48.03,3.91-6.39,9.01-11.83,15.16-16.15,9.74-6.86,28.76-19.28,46.68-25.52,17.78-6.18,21.91-8.38,34.18-14.93,2.8-1.49,5.99-3.19,9.79-5.19,16.6-8.69,20.72-19,24.03-27.28,1.83-4.57,3.2-18.14,3.43-28.14l1-145.35c-1.06-17.18,5.62-25.96,11.45-30.32,11.59-8.66,26.08-4.75,29.98-3.46l25.78,7.09c5.5-7.81,14.49-12.98,24.41-13.81,13.81-1.15,41.41-.46,71.05,17.17,42.84,25.47,44.29,67.14,44.33,70.7l.26,20.89Z"/>
  <path class="cls-4" d="m943.15,370.84l-1.99,148.1c-.01,1.2-1,128.09-1,147.8,0,18.02-9.06,28.3-15.6,33.38-.6,12.88-6.23,20.33-11,24.38-9.36,7.94-20.73,7.73-25.28,7.25l-128.12.99h-249.95c-2.51.02-23.77.17-51.03.17-43.2,0-101.48-.38-124.23-2.22-39.15-3.17-92.72-27.26-94.98-28.29-76.55-35.26-132.73-72.21-148.85-83.22l.8-1.27,6.03-9.54,2.13-3.38,6.27-9.92.8-1.27c13.88,9.46,70.08,46.66,145.23,81.29,1.61.72,51.45,22.98,84.99,25.7,35.92,2.91,171.32,1.96,172.68,1.95h250.05l130.6-1.01.8.18c.86.07,2.04-.06,2.58-.28.16-.36.53-1.46.53-3.78-.01-8.43,4.15-16.32,11.12-21.11,2.98-2.05,4.43-5.32,4.43-10,0-19.83.99-146.84,1-148.12l2.02-150.1.15-1c.04-.32,4.83-34.73-9.65-56.46-2.36-3.55-5.2-7.69-8.34-12.21l1.19-.9,8.93-6.77,3.19-2.42,9.42-7.15,1.19-.9c3.53,5.07,6.73,9.73,9.38,13.71,19.39,29.08,15.44,69.08,14.51,76.42Z"/>
  <g id="Start_Line" data-name="Start Line">
    <polygon class="cls-1" points="915.88 243.98 913.76 259.98 917.69 260.52 919.31 248.45 931.37 250.05 931.9 246.11 915.88 243.98"/>
    <polygon class="cls-1" points="906.09 231.09 903.96 247.09 907.9 247.61 909.5 235.55 921.57 237.16 922.09 233.21 906.09 231.09"/>
    <polygon class="cls-1" points="896.29 218.2 894.16 234.2 898.1 234.72 899.71 222.65 911.77 224.27 912.3 220.32 896.29 218.2"/>
    <g>
      <polygon class="cls-1" points="931.29 263.28 931.38 263.39 926.73 266.96 925.76 267.68 913.97 276.71 903.52 284.71 903.38 284.81 903.2 284.95 903.1 284.82 900.11 287.1 890.6 294.35 890.28 294.59 890.25 294.55 890.17 294.61 886.51 289.82 886.46 289.75 886.83 289.47 896.56 282.05 899.74 279.63 910.34 271.54 914.89 268.07 915.61 267.52 920.51 263.77 936.54 251.5 936.57 251.55 936.64 251.49 940.36 256.35 931.29 263.28"/>
      <polygon class="cls-1" points="931.29 263.28 931.38 263.39 926.73 266.96 925.76 267.68 913.97 276.71 903.52 284.71 903.2 284.95 903.1 284.82 890.6 294.35 890.28 294.59 890.25 294.55 890.17 294.61 886.51 289.82 886.46 289.75 886.83 289.47 910.34 271.54 914.89 268.07 915.61 267.52 920.51 263.77 936.54 251.5 936.57 251.55 936.64 251.49 940.36 256.35 931.29 263.28"/>
    </g>
  </g>
  <g id="_1" data-name="1">
    <g>
      <path class="cls-1" d="m825.12,155.08c-6,0-10.88-4.88-10.88-10.88s4.88-10.88,10.88-10.88,10.88,4.88,10.88,10.88-4.88,10.88-10.88,10.88Z"/>
      <path class="cls-1" d="m825.12,134.33c5.46,0,9.88,4.42,9.88,9.88s-4.42,9.88-9.88,9.88-9.88-4.42-9.88-9.88,4.42-9.88,9.88-9.88m0-2c-6.55,0-11.88,5.33-11.88,11.88s5.33,11.88,11.88,11.88,11.88-5.33,11.88-11.88-5.33-11.88-11.88-11.88h0Z"/>
    </g>
    <text class="cls-7" transform="translate(817.38 148.11)"><tspan x="0" y="0">01</tspan></text>
  </g>
  <g id="_1-2" data-name="1">
    <g>
      <path class="cls-1" d="m767.12,187.08c-6,0-10.88-4.88-10.88-10.88s4.88-10.88,10.88-10.88,10.88,4.88,10.88,10.88-4.88,10.88-10.88,10.88Z"/>
      <path class="cls-1" d="m767.12,166.33c5.46,0,9.88,4.42,9.88,9.88s-4.42,9.88-9.88,9.88-9.88-4.42-9.88-9.88,4.42-9.88,9.88-9.88m0-2c-6.55,0-11.88,5.33-11.88,11.88s5.33,11.88,11.88,11.88,11.88-5.33,11.88-11.88-5.33-11.88-11.88-11.88h0Z"/>
    </g>
    <text class="cls-7" transform="translate(759.38 180.11)"><tspan x="0" y="0">02</tspan></text>
  </g>
  <g id="_1-3" data-name="1">
    <g>
      <path class="cls-1" d="m800.12,297.08c-6,0-10.88-4.88-10.88-10.88s4.88-10.88,10.88-10.88,10.88,4.88,10.88,10.88-4.88,10.88-10.88,10.88Z"/>
      <path class="cls-1" d="m800.12,276.33c5.46,0,9.88,4.42,9.88,9.88s-4.42,9.88-9.88,9.88-9.88-4.42-9.88-9.88,4.42-9.88,9.88-9.88m0-2c-6.55,0-11.88,5.33-11.88,11.88s5.33,11.88,11.88,11.88,11.88-5.33,11.88-11.88-5.33-11.88-11.88-11.88h0Z"/>
    </g>
    <text class="cls-7" transform="translate(792.38 290.11)"><tspan x="0" y="0">03</tspan></text>
  </g>
  <g id="_1-4" data-name="1">
    <g>
      <path class="cls-1" d="m764.12,313.08c-6,0-10.88-4.88-10.88-10.88s4.88-10.88,10.88-10.88,10.88,4.88,10.88,10.88-4.88,10.88-10.88,10.88Z"/>
      <path class="cls-1" d="m764.12,292.33c5.46,0,9.88,4.42,9.88,9.88s-4.42,9.88-9.88,9.88-9.88-4.42-9.88-9.88,4.42-9.88,9.88-9.88m0-2c-6.55,0-11.88,5.33-11.88,11.88s5.33,11.88,11.88,11.88,11.88-5.33,11.88-11.88-5.33-11.88-11.88-11.88h0Z"/>
    </g>
    <text class="cls-7" transform="translate(756.38 306.11)"><tspan x="0" y="0">04</tspan></text>
  </g>
  <g id="_1-5" data-name="1">
    <g>
      <path class="cls-1" d="m378.12,318.08c-6,0-10.88-4.88-10.88-10.88s4.88-10.88,10.88-10.88,10.88,4.88,10.88,10.88-4.88,10.88-10.88,10.88Z"/>
      <path class="cls-1" d="m378.12,297.33c5.46,0,9.88,4.42,9.88,9.88s-4.42,9.88-9.88,9.88-9.88-4.42-9.88-9.88,4.42-9.88,9.88-9.88m0-2c-6.55,0-11.88,5.33-11.88,11.88s5.33,11.88,11.88,11.88,11.88-5.33,11.88-11.88-5.33-11.88-11.88-11.88h0Z"/>
    </g>
    <text class="cls-7" transform="translate(370.38 311.11)"><tspan x="0" y="0">05</tspan></text>
  </g>
  <g id="_1-6" data-name="1">
    <g>
      <path class="cls-1" d="m333.12,188.08c-6,0-10.88-4.88-10.88-10.88s4.88-10.88,10.88-10.88,10.88,4.88,10.88,10.88-4.88,10.88-10.88,10.88Z"/>
      <path class="cls-1" d="m333.12,167.33c5.46,0,9.88,4.42,9.88,9.88s-4.42,9.88-9.88,9.88-9.88-4.42-9.88-9.88,4.42-9.88,9.88-9.88m0-2c-6.55,0-11.88,5.33-11.88,11.88s5.33,11.88,11.88,11.88,11.88-5.33,11.88-11.88-5.33-11.88-11.88-11.88h0Z"/>
    </g>
    <text class="cls-7" transform="translate(325.38 181.11)"><tspan x="0" y="0">06</tspan></text>
  </g>
  <g id="_1-7" data-name="1">
    <g>
      <path class="cls-1" d="m228.12,173.08c-6,0-10.88-4.88-10.88-10.88s4.88-10.88,10.88-10.88,10.88,4.88,10.88,10.88-4.88,10.88-10.88,10.88Z"/>
      <path class="cls-1" d="m228.12,152.33c5.46,0,9.88,4.42,9.88,9.88s-4.42,9.88-9.88,9.88-9.88-4.42-9.88-9.88,4.42-9.88,9.88-9.88m0-2c-6.55,0-11.88,5.33-11.88,11.88s5.33,11.88,11.88,11.88,11.88-5.33,11.88-11.88-5.33-11.88-11.88-11.88h0Z"/>
    </g>
    <text class="cls-7" transform="translate(220.38 166.11)"><tspan x="0" y="0">07</tspan></text>
  </g>
  <g id="_1-8" data-name="1">
    <g>
      <path class="cls-1" d="m241.12,230.08c-6,0-10.88-4.88-10.88-10.88s4.88-10.88,10.88-10.88,10.88,4.88,10.88,10.88-4.88,10.88-10.88,10.88Z"/>
      <path class="cls-1" d="m241.12,209.33c5.46,0,9.88,4.42,9.88,9.88s-4.42,9.88-9.88,9.88-9.88-4.42-9.88-9.88,4.42-9.88,9.88-9.88m0-2c-6.55,0-11.88,5.33-11.88,11.88s5.33,11.88,11.88,11.88,11.88-5.33,11.88-11.88-5.33-11.88-11.88-11.88h0Z"/>
    </g>
    <text class="cls-7" transform="translate(233.38 223.11)"><tspan x="0" y="0">08</tspan></text>
  </g>
  <g id="_1-9" data-name="1">
    <g>
      <path class="cls-1" d="m163.12,177.08c-6,0-10.88-4.88-10.88-10.88s4.88-10.88,10.88-10.88,10.88,4.88,10.88,10.88-4.88,10.88-10.88,10.88Z"/>
      <path class="cls-1" d="m163.12,156.33c5.46,0,9.88,4.42,9.88,9.88s-4.42,9.88-9.88,9.88-9.88-4.42-9.88-9.88,4.42-9.88,9.88-9.88m0-2c-6.55,0-11.88,5.33-11.88,11.88s5.33,11.88,11.88,11.88,11.88-5.33,11.88-11.88-5.33-11.88-11.88-11.88h0Z"/>
    </g>
    <text class="cls-7" transform="translate(155.38 170.11)"><tspan x="0" y="0">09</tspan></text>
  </g>
  <g id="_1-10" data-name="1">
    <g>
      <path class="cls-1" d="m179.12,428.08c-6,0-10.88-4.88-10.88-10.88s4.88-10.88,10.88-10.88,10.88,4.88,10.88,10.88-4.88,10.88-10.88,10.88Z"/>
      <path class="cls-1" d="m179.12,407.33c5.46,0,9.88,4.42,9.88,9.88s-4.42,9.88-9.88,9.88-9.88-4.42-9.88-9.88,4.42-9.88,9.88-9.88m0-2c-6.55,0-11.88,5.33-11.88,11.88s5.33,11.88,11.88,11.88,11.88-5.33,11.88-11.88-5.33-11.88-11.88-11.88h0Z"/>
    </g>
    <text class="cls-7" transform="translate(171.38 421.11)"><tspan x="0" y="0">10</tspan></text>
  </g>
  <g id="_1-11" data-name="1">
    <g>
      <path class="cls-1" d="m23.12,461.08c-6,0-10.88-4.88-10.88-10.88s4.88-10.88,10.88-10.88,10.88,4.88,10.88,10.88-4.88,10.88-10.88,10.88Z"/>
      <path class="cls-1" d="m23.12,440.33c5.46,0,9.88,4.42,9.88,9.88s-4.42,9.88-9.88,9.88-9.88-4.42-9.88-9.88,4.42-9.88,9.88-9.88m0-2c-6.55,0-11.88,5.33-11.88,11.88s5.33,11.88,11.88,11.88,11.88-5.33,11.88-11.88-5.33-11.88-11.88-11.88h0Z"/>
    </g>
    <text class="cls-7" transform="translate(15.38 454.11)"><tspan x="0" y="0">11</tspan></text>
  </g>
  <g id="_1-12" data-name="1">
    <g>
      <path class="cls-1" d="m43.12,554.08c-6,0-10.88-4.88-10.88-10.88s4.88-10.88,10.88-10.88,10.88,4.88,10.88,10.88-4.88,10.88-10.88,10.88Z"/>
      <path class="cls-1" d="m43.12,533.33c5.46,0,9.88,4.42,9.88,9.88s-4.42,9.88-9.88,9.88-9.88-4.42-9.88-9.88,4.42-9.88,9.88-9.88m0-2c-6.55,0-11.88,5.33-11.88,11.88s5.33,11.88,11.88,11.88,11.88-5.33,11.88-11.88-5.33-11.88-11.88-11.88h0Z"/>
    </g>
    <text class="cls-7" transform="translate(35.38 547.11)"><tspan x="0" y="0">12</tspan></text>
  </g>
  <g id="_1-13" data-name="1">
    <g>
      <path class="cls-1" d="m302.12,692.08c-6,0-10.88-4.88-10.88-10.88s4.88-10.88,10.88-10.88,10.88,4.88,10.88,10.88-4.88,10.88-10.88,10.88Z"/>
      <path class="cls-1" d="m302.12,671.33c5.46,0,9.88,4.42,9.88,9.88s-4.42,9.88-9.88,9.88-9.88-4.42-9.88-9.88,4.42-9.88,9.88-9.88m0-2c-6.55,0-11.88,5.33-11.88,11.88s5.33,11.88,11.88,11.88,11.88-5.33,11.88-11.88-5.33-11.88-11.88-11.88h0Z"/>
    </g>
    <text class="cls-7" transform="translate(294.38 685.11)"><tspan x="0" y="0">13</tspan></text>
  </g>
  <g id="_1-14" data-name="1">
    <g>
      <path class="cls-1" d="m921.12,743.08c-6,0-10.88-4.88-10.88-10.88s4.88-10.88,10.88-10.88,10.88,4.88,10.88,10.88-4.88,10.88-10.88,10.88Z"/>
      <path class="cls-1" d="m921.12,722.33c5.46,0,9.88,4.42,9.88,9.88s-4.42,9.88-9.88,9.88-9.88-4.42-9.88-9.88,4.42-9.88,9.88-9.88m0-2c-6.55,0-11.88,5.33-11.88,11.88s5.33,11.88,11.88,11.88,11.88-5.33,11.88-11.88-5.33-11.88-11.88-11.88h0Z"/>
    </g>
    <text class="cls-7" transform="translate(913.38 736.11)"><tspan x="0" y="0">14</tspan></text>
  </g>
  <g id="_1-15" data-name="1">
    <g>
      <path class="cls-1" d="m885.12,691.08c-6,0-10.88-4.88-10.88-10.88s4.88-10.88,10.88-10.88,10.88,4.88,10.88,10.88-4.88,10.88-10.88,10.88Z"/>
      <path class="cls-1" d="m885.12,670.33c5.46,0,9.88,4.42,9.88,9.88s-4.42,9.88-9.88,9.88-9.88-4.42-9.88-9.88,4.42-9.88,9.88-9.88m0-2c-6.55,0-11.88,5.33-11.88,11.88s5.33,11.88,11.88,11.88,11.88-5.33,11.88-11.88-5.33-11.88-11.88-11.88h0Z"/>
    </g>
    <text class="cls-7" transform="translate(877.38 684.11)"><tspan x="0" y="0">15</tspan></text>
  </g>
  <g id="_1-16" data-name="1">
    <g>
      <path class="cls-1" d="m949.12,682.08c-6,0-10.88-4.88-10.88-10.88s4.88-10.88,10.88-10.88,10.88,4.88,10.88,10.88-4.88,10.88-10.88,10.88Z"/>
      <path class="cls-1" d="m949.12,661.33c5.46,0,9.88,4.42,9.88,9.88s-4.42,9.88-9.88,9.88-9.88-4.42-9.88-9.88,4.42-9.88,9.88-9.88m0-2c-6.55,0-11.88,5.33-11.88,11.88s5.33,11.88,11.88,11.88,11.88-5.33,11.88-11.88-5.33-11.88-11.88-11.88h0Z"/>
    </g>
    <text class="cls-7" transform="translate(941.38 675.11)"><tspan x="0" y="0">16</tspan></text>
  </g>
  <g id="_1-17" data-name="1">
    <g>
      <path class="cls-1" d="m951.12,334.08c-6,0-10.88-4.88-10.88-10.88s4.88-10.88,10.88-10.88,10.88,4.88,10.88,10.88-4.88,10.88-10.88,10.88Z"/>
      <path class="cls-1" d="m951.12,313.33c5.46,0,9.88,4.42,9.88,9.88s-4.42,9.88-9.88,9.88-9.88-4.42-9.88-9.88,4.42-9.88,9.88-9.88m0-2c-6.55,0-11.88,5.33-11.88,11.88s5.33,11.88,11.88,11.88,11.88-5.33,11.88-11.88-5.33-11.88-11.88-11.88h0Z"/>
    </g>
    <text class="cls-7" transform="translate(943.38 327.11)"><tspan x="0" y="0">17</tspan></text>
  </g>
  <path class="cls-1" d="m929.89,293.59c-2.54-3.81-5.7-8.44-9.42-13.79l-1.21.91-1.19.9c1.79,2.57,3.44,4.97,4.96,7.19,1.61,2.36,3.07,4.51,4.36,6.45,19.05,28.58,15.23,67.82,14.27,75.4v.09s-2,148.19-2,148.19c-.01,1.23-1,128.22-1,147.81,0,16.97-8.17,26.87-15.02,32.2l-.55.42-.03.69c-.58,12.41-6.01,19.52-10.47,23.31-8.94,7.58-19.87,7.35-24.15,6.9h-.09s-128.19.98-128.19.98h-249.96c-.22,0-22.16.17-51.02.17-44.12,0-101.47-.38-124.11-2.21-39.38-3.19-93.93-27.92-94.47-28.16-76.85-35.4-133.2-72.55-148.63-83.1-.02,0-.03-.02-.05-.03-1.93-1.32-3.28-2.25-4.01-2.77l-.11-.07c-8.26-4.8-50.07-29.1-61.96-35.39-2.52-1.35-5.2-2.85-7.93-4.44-10.69-6.24-16.41-18.19-14.58-30.44,1.12-7.49,2.64-17.01,4.51-28.28,3.48-20.85,11.62-37.34,17.83-47.5,3.81-6.22,8.77-11.51,14.74-15.7,9.66-6.8,28.51-19.13,46.31-25.33,17.92-6.23,22.07-8.45,34.4-15.03l.5-.27c2.68-1.42,5.71-3.03,9.28-4.91,17.09-8.95,21.32-19.54,24.72-28.05,1.91-4.77,3.3-18.32,3.54-28.69l1-145.35v-.1c-1.02-16.52,5.34-24.91,10.85-29.03,5.35-4,11.37-5.17,16.59-5.17s10.04,1.28,12.09,1.96l26.8,7.37.61-.87c5.26-7.47,13.97-12.39,23.3-13.17,13.65-1.14,40.9-.45,70.16,16.96,41.9,24.91,43.55,64.94,43.6,69.43l.26,20.91.57,46.46,170.41-3.7,2.1-.04c42.85-.81,185.19-3.46,217.66-3.46s41.85-8.26,50.97-15.57l.6-.47c4.67-3.75,6.34-13.46,4.43-16.38l-.14-.18c-8.77-9.85-25.68-37.72-26.4-38.9l-.79-1.29-.48-1.45c-.77-2.29-4.67-15.59-5.68-51.88-.55-19.72,7.3-28.11,13.99-31.68,15.44-8.25,33.79,3.8,37.31,6.29l1.66,1.18,34.42,44.85.16.21c5.6,7.66,24.79,33.9,41.83,57.94l1.19-.91,1.19-.91c-17.04-24.03-36.19-50.25-41.79-57.89l-34.76-45.29-.14-.18-2.02-1.44c-3.78-2.68-23.46-15.58-40.47-6.49-7.43,3.96-16.16,13.15-15.57,34.4,1.02,36.72,5.04,50.39,5.84,52.75l.53,1.6,1.02,1.75c.72,1.18,17.65,29.09,26.63,39.23.78,1.49-.06,9.3-3.83,12.33l-.62.48c-8.72,6.99-18.61,14.9-49.08,14.9-32.5,0-174.86,2.65-217.71,3.46l-2.11.04-167.39,3.64-.79-64.35c-.05-4.65-1.76-46.22-45.06-71.97-29.99-17.83-57.95-18.54-71.94-17.37-9.85.82-19.07,5.87-24.89,13.58l-24.71-6.79c-4.3-1.43-19.26-5.35-31.35,3.68-6.1,4.56-13.14,13.74-12.05,31.56l-1,145.28c-.23,9.89-1.62,23.35-3.32,27.61-3.22,8.06-7.23,18.08-23.34,26.51-3.57,1.88-6.61,3.5-9.28,4.92l-.52.28c-12.16,6.49-16.26,8.68-33.96,14.83-18.15,6.32-37.27,18.82-47.05,25.71-6.31,4.43-11.55,10.02-15.58,16.6-6.35,10.38-14.67,27.24-18.23,48.57-1.87,11.29-3.39,20.82-4.51,28.33-2.02,13.47,4.28,26.61,16.02,33.47,2.78,1.62,5.48,3.13,8.05,4.5,11.81,6.25,53.42,30.43,61.8,35.3.76.53,2.11,1.47,4.03,2.79,15.49,10.58,72.01,47.85,149.08,83.34.55.26,55.58,25.2,95.48,28.43,22.73,1.83,80.17,2.22,124.35,2.22,28.87,0,50.82-.17,51.03-.17h249.96l128.04-.99c4.72.48,16.56.68,26.32-7.61,4.83-4.1,10.7-11.7,11.49-24.76,7.26-5.83,15.64-16.4,15.64-34.14,0-19.58.99-146.56,1-147.78l1.99-148.02c.33-2.63.97-8.75.97-16.84,0-16.39-2.62-40.85-15.73-60.51Zm-749.2,96.18c-3.97,9.91-11.35,28.36-37.26,41.93-3.74,1.95-6.87,3.62-9.6,5.09l-.13.07c-12.94,6.89-18.3,9.74-38.1,16.63-15.2,5.29-32.79,17.08-39.65,21.9-2.94,2.07-5.38,4.67-7.25,7.73-4.06,6.64-11.32,20.38-14.22,37.84-1.87,11.21-3.36,20.57-4.44,27.82-.2,1.27.38,2.5,1.47,3.14,2.49,1.45,4.84,2.76,6.97,3.88,13.81,7.32,63,36,63.47,36.27l.53.31.46.33c.11.08,1.27.9,3.36,2.33.02,0,.03.02.05.03,15.37,10.47,71.02,47.11,145.42,81.39,2.11.94,52.03,23.11,85.48,25.83,35.82,2.9,171.45,1.96,172.8,1.95h250.06l130.43-1.01.63.14.21.04c.94.07,2.4-.04,3.27-.39l.56-.23.24-.55c.25-.55.66-1.86.66-4.39-.01-7.93,3.9-15.36,10.47-19.87,3.42-2.36,5.08-6.03,5.08-11.24,0-18.28.83-126.19,1-147.63l2.02-150.47.14-.95c.48-3.63,4.32-36.14-9.89-57.46-2.24-3.36-4.99-7.38-8.4-12.28l-1.19.9-1.2.91c3.36,4.84,6.08,8.82,8.29,12.13,13.84,20.76,9.6,54,9.42,55.41l-.17,1.1-2.02,150.21v.48c-.17,21.44-1,129.36-1,147.65,0,4.21-1.2,6.99-3.78,8.76-7.38,5.08-11.78,13.43-11.77,22.35,0,1.21-.11,2.02-.21,2.52-.35.05-.78.07-1.18.05l-.86-.19-130.76,1.01h-250.06c-1.37,0-136.86.95-172.55-1.95-32.95-2.67-82.41-24.64-84.48-25.56-74.25-34.22-129.77-70.78-145.01-81.17-2.03-1.39-3.15-2.17-3.29-2.27l-.55-.39-.69-.41c-.47-.28-49.73-29-63.59-36.34-2.09-1.1-4.4-2.39-6.88-3.92,1.08-7.24,2.57-16.58,4.44-27.77,2.82-16.96,9.87-30.32,13.82-36.78,1.65-2.7,3.81-5,6.41-6.83,6.76-4.75,24.07-16.36,38.91-21.52,20.03-6.97,25.44-9.85,38.53-16.83l.13-.07c2.73-1.47,5.85-3.12,9.58-5.07,26.89-14.09,34.54-33.2,38.66-43.49,4.7-11.75,5.54-33.03,5.68-39.3l1-146.23-.04-1.28c-.07-.9-.09-1.66-.08-2.29l35.48,9.8c5.77,1.58,11.99.7,17.1-2.43,4.58-2.83,7.91-7.19,9.41-12.34.23-.11.53-.2.87-.22,10.05-.85,30.22-.3,52.32,12.84,27.91,16.59,28.91,42.87,28.94,43.96l.93,75.54c.08,5.9,2.46,11.42,6.71,15.53,4.26,4.12,9.87,6.3,15.74,6.17l178.46-3.88c1.77-.03,182.65-3.5,219.16-3.5,42.12,0,58.73-13.34,69.72-22.16l.59-.46c8.97-7.18,15.21-19.48,16.29-32.09.91-10.87-2.02-20.73-8.27-27.76-4.4-4.94-14.44-20.28-21.97-32.54-.97-4.39-3.16-16.84-3.87-41.95-.02-.81-.02-1.58,0-2.31.74.35,1.49.73,2.19,1.13l31.11,40.53.19.25c5.73,7.83,25.29,34.62,42.09,58.33l1.19-.92,1.2-.91c-16.8-23.69-36.34-50.45-42.06-58.27l-31.52-41.07-.18-.24-.26-.15c-1.52-.88-3.26-1.72-4.77-2.28l-1.82-.68-.2,1.92c-.15,1.4-.2,3-.16,4.75.73,25.85,3.04,38.52,4,42.77l.05.24.13.21c5.87,9.57,17.19,27.32,22.42,33.19,5.69,6.4,8.36,15.46,7.51,25.5-1,11.83-6.81,23.33-15.16,30.01l-.59.46c-10.67,8.56-26.79,21.5-67.85,21.5-36.54,0-217.45,3.47-219.22,3.5l-178.47,3.88c-5.11.12-9.91-1.77-13.59-5.33-3.67-3.55-5.72-8.31-5.79-13.41l-.67-54.11-.26-21.45c-.03-1.18-1.09-29.05-30.4-46.48-22.83-13.57-43.7-14.13-54.1-13.26-1.12.09-2.19.52-2.93,1.18l-.34.3-.11.44c-1.21,4.56-4.21,8.6-8.23,11.08-4.4,2.7-9.76,3.46-14.73,2.09l-35.03-9.63-.37-.15c-.64-.2-1.39-.36-2.1-.44l-1.48-.17-.18,1.48c-.15,1.25-.16,2.77-.04,4.51l.04.54-1,146.72c-.1,4.35-.83,26.65-5.47,38.24Z"/>
  <path class="cls-1" d="m917.45,301.65c-2.49-3.74-5.49-8.12-8.8-12.89l-3.19,2.42c3.26,4.7,6.21,9.01,8.66,12.69,17.35,26.02,11.74,65.2,11.68,65.59l-.02.14-2,149.14c-.01,1.28-1,128.24-1,148.02,0,11.4-5.48,17.55-10.07,20.71-3.43,2.36-5.48,6.25-5.48,10.39,0,6.23-1.68,10.83-5.02,13.67-5.24,4.47-13.03,3.27-13.1,3.25l-.17-.02-129.16,1h-250.01c-1.37.01-137.34.96-173.83-2-36.22-2.93-88.81-26.59-89.32-26.82-74.91-34.51-131.24-71.55-146.54-81.95-2.63-1.79-4.05-2.8-4.14-2.86l-.15-.1c-.5-.29-49.82-29.02-63.07-36.04-2.26-1.2-4.75-2.58-7.38-4.12-5.18-3.02-7.95-8.82-7.06-14.76,1.13-7.59,2.64-17.02,4.47-28.02,3.07-18.4,10.27-32.97,15.76-41.96,2.7-4.4,6.21-8.14,10.44-11.12,9.02-6.34,26.52-17.81,42.49-23.36,19.02-6.62,23.8-9.17,36.59-15.99,2.77-1.48,5.92-3.16,9.68-5.13,22.16-11.61,28.27-26.9,31.93-36.03,4.09-10.22,4.62-33.23,4.64-34.23l1-146v-.15c-.57-7.97.98-13.39,4.61-16.11,2.17-1.63,4.86-2.13,7.35-2.13,3.9,0,7.29,1.23,7.34,1.25l34.41,9.47c1.91.53,3.97.23,5.66-.8,1.68-1.04,2.83-2.68,3.22-4.61.23-1.1.4-1.5.45-1.6,2.37-4.74,7.35-7.98,12.99-8.45,11.79-.99,35.38-.37,60.95,14.84,35.52,21.12,36.02,55.93,36.02,56.3l.26,21.16.67,54.31c.03,2.01.84,3.89,2.28,5.29,1.45,1.4,3.36,2.15,5.36,2.1l178.47-3.88c1.82-.04,182.9-3.5,219.46-3.5s50.67-10.97,60.67-18.97l.58-.47c5.97-4.78,10.15-13.21,10.89-22.01.59-6.86-1.06-12.85-4.64-16.88-7.43-8.36-23.07-33.9-24.66-36.5-.5-1.69-3.93-14.52-4.84-47.23-.26-9.46,1.69-15.37,5.8-17.57,6.23-3.33,16.89,2.39,20.8,5.09l32.79,42.72c.31.43,22.98,31.36,42.32,58.62l3.16-2.43c-19.33-27.28-41.95-58.13-42.28-58.59l-33-43-.19-.24-.24-.17c-.63-.45-15.4-10.79-25.24-5.53-5.56,2.97-8.23,10.11-7.92,21.21,1,35.89,4.94,48.08,5.1,48.58l.19.41c.7,1.15,17.19,28.25,25.22,37.29,2.84,3.19,4.14,8.13,3.65,13.88-.65,7.63-4.34,15.17-9.41,19.23l-.58.46c-9.53,7.64-22.59,18.1-58.17,18.1s-217.71,3.46-219.54,3.5l-178.47,3.88c-.96-.03-1.82-.33-2.5-.98-.67-.65-1.05-1.52-1.06-2.46l-.67-54.37-.26-21.07c0-.37-.43-37.4-37.98-59.72-26.52-15.77-51.06-16.41-63.32-15.39-7.03.59-13.25,4.67-16.24,10.65-.3.6-.55,1.44-.79,2.6-.17.83-.66,1.54-1.4,1.99-.74.46-1.66.59-2.5.35l-34.16-9.39c-1.15-.41-11.31-3.84-18.38,1.44-4.79,3.58-6.89,10.15-6.23,19.53l-1,145.89c0,.24-.54,23.26-4.36,32.8-3.67,9.18-9.22,23.05-30.07,33.98-3.77,1.97-6.93,3.66-9.7,5.14-12.59,6.71-17.3,9.22-36.03,15.74-16.42,5.71-34.28,17.41-43.47,23.87-4.68,3.29-8.57,7.44-11.55,12.3-5.68,9.29-13.12,24.36-16.29,43.39-1.84,11.03-3.35,20.48-4.48,28.09-1.13,7.57,2.4,14.95,8.99,18.8,2.69,1.57,5.22,2.98,7.53,4.21,12.94,6.85,60.65,34.63,62.85,35.91.35.24,1.79,1.26,4.25,2.93,15.61,10.6,72.05,47.68,147.01,82.21.53.24,53.74,24.18,90.66,27.17,22.24,1.8,81.08,2.16,124.24,2.16,27.99,0,49.39-.15,49.92-.15h250.02l128.84-1c1.4.2,9.9,1.13,16.14-4.16,4.28-3.64,6.46-9.27,6.45-16.74,0-2.83,1.4-5.48,3.75-7.09,5.38-3.7,11.8-10.87,11.8-24.01,0-19.77.99-146.71,1-147.98l2-148.86c.44-3.04,5.53-41.47-12.33-68.27Z"/>
  <line class="cls-8" x1="402.88" y1="748.21" x2="866.6" y2="748.21"/>
  <line class="cls-8" x1="376.34" y1="361.04" x2="789.84" y2="354.04"/>
  <g>
    <circle class="cls-3" cx="790.84" cy="207.54" r="10"/>
    <path class="cls-1" d="m790.84,218.54c-6.07,0-11-4.93-11-11s4.93-11,11-11,11,4.93,11,11-4.93,11-11,11Zm0-20c-4.96,0-9,4.04-9,9s4.04,9,9,9,9-4.04,9-9-4.04-9-9-9Z"/>
  </g>
  <g>
    <circle class="cls-3" cx="258.84" cy="693.54" r="10"/>
    <path class="cls-1" d="m258.84,704.54c-6.07,0-11-4.93-11-11s4.93-11,11-11,11,4.93,11,11-4.93,11-11,11Zm0-20c-4.96,0-9,4.04-9,9s4.04,9,9,9,9-4.04,9-9-4.04-9-9-9Z"/>
  </g>
  <g id="Legend">
    <circle class="cls-1" cx="70.74" cy="94" r="13"/>
    <g>
      <path class="cls-1" d="m95.25,93.17v-2.36h8.94v2.36h-8.94Zm0,4.02v-2.38h8.94v2.38h-8.94Z"/>
      <path class="cls-1" d="m116.74,100.34h-3.47v-10.02h-3.14v-2.84h9.75v2.84h-3.13v10.02Z"/>
      <path class="cls-1" d="m132.64,87.48v7.74c0,1.08-.21,2.02-.62,2.81-.41.79-1.03,1.41-1.85,1.84-.82.43-1.85.65-3.09.65-1.77,0-3.12-.45-4.06-1.36-.93-.91-1.4-2.19-1.4-3.85v-7.82h3.49v7.55c0,.91.17,1.57.51,1.98.34.41.84.62,1.5.62.47,0,.86-.09,1.16-.27s.52-.46.66-.85c.14-.39.21-.89.21-1.5v-7.53h3.47Z"/>
      <path class="cls-1" d="m139.55,87.48c1.17,0,2.14.14,2.91.43.77.28,1.36.71,1.75,1.27.39.56.58,1.26.58,2.1,0,.52-.09,1-.26,1.43s-.43.81-.75,1.15c-.33.34-.71.63-1.17.88l3.75,5.6h-3.94l-2.73-4.68h-.88v4.68h-3.47v-12.86h4.21Zm-.05,2.63h-.69v2.94h.65c.53,0,.97-.12,1.31-.35.34-.23.51-.65.51-1.26,0-.42-.14-.74-.42-.98s-.74-.35-1.36-.35Z"/>
      <path class="cls-1" d="m159.78,100.34h-4.56l-4.7-9.06h-.08c.03.28.06.61.08.99s.04.78.06,1.18.03.76.03,1.09v5.8h-3.08v-12.86h4.54l4.68,8.94h.05c-.02-.28-.04-.61-.05-.98-.02-.37-.03-.75-.05-1.13-.01-.38-.02-.72-.02-1.01v-5.81h3.1v12.86Z"/>
      <path class="cls-1" d="m179.48,100.34h-4.56l-4.7-9.06h-.08c.03.28.06.61.08.99s.04.78.06,1.18.03.76.03,1.09v5.8h-3.08v-12.86h4.54l4.68,8.94h.05c-.02-.28-.04-.61-.05-.98-.02-.37-.03-.75-.05-1.13-.01-.38-.02-.72-.02-1.01v-5.81h3.1v12.86Z"/>
      <path class="cls-1" d="m193.2,87.48v7.74c0,1.08-.21,2.02-.62,2.81-.41.79-1.03,1.41-1.85,1.84-.82.43-1.85.65-3.09.65-1.77,0-3.12-.45-4.06-1.36-.93-.91-1.4-2.19-1.4-3.85v-7.82h3.49v7.55c0,.91.17,1.57.51,1.98.34.41.84.62,1.5.62.47,0,.86-.09,1.16-.27s.52-.46.66-.85c.14-.39.21-.89.21-1.5v-7.53h3.47Z"/>
      <path class="cls-1" d="m201.5,100.34l-2.63-9.26h-.08c.02.24.05.57.07.98.03.41.05.85.08,1.33s.04.93.04,1.37v5.59h-3.08v-12.86h4.63l2.68,9.13h.07l2.63-9.13h4.64v12.86h-3.19v-5.64c0-.4,0-.84.02-1.31s.03-.91.05-1.32c.02-.41.04-.74.06-.98h-.08l-2.59,9.25h-3.31Z"/>
      <path class="cls-1" d="m213.31,87.48h4.49c1.86,0,3.18.28,3.98.83.79.55,1.19,1.34,1.19,2.38,0,.56-.1,1.04-.3,1.43-.2.39-.46.7-.77.93-.31.23-.62.38-.95.47v.09c.35.09.7.23,1.05.44s.64.5.87.91c.23.4.35.95.35,1.63,0,.78-.2,1.45-.59,2.01-.4.56-.96,1-1.69,1.3-.73.3-1.6.45-2.61.45h-5.01v-12.86Zm3.47,4.93h1.05c.58,0,.98-.12,1.21-.36.23-.24.35-.53.35-.87s-.13-.62-.4-.8c-.27-.19-.68-.28-1.24-.28h-.98v2.3Zm0,2.54v2.7h1.22c.6,0,1.03-.13,1.27-.39.24-.26.36-.59.36-.98,0-.23-.05-.44-.15-.65-.1-.2-.28-.37-.52-.49s-.59-.19-1.02-.19h-1.15Z"/>
      <path class="cls-1" d="m233.09,100.34h-7.64v-12.86h7.64v2.79h-4.16v2.02h3.85v2.79h-3.85v2.43h4.16v2.83Z"/>
      <path class="cls-1" d="m239.55,87.48c1.17,0,2.14.14,2.91.43.77.28,1.36.71,1.75,1.27.39.56.58,1.26.58,2.1,0,.52-.09,1-.26,1.43s-.43.81-.75,1.15c-.33.34-.71.63-1.17.88l3.75,5.6h-3.94l-2.73-4.68h-.88v4.68h-3.47v-12.86h4.21Zm-.05,2.63h-.69v2.94h.65c.53,0,.97-.12,1.31-.35.34-.23.51-.65.51-1.26,0-.42-.14-.74-.42-.98s-.74-.35-1.36-.35Z"/>
      <path class="cls-1" d="m255.94,96.44c0,.7-.18,1.36-.53,1.98s-.9,1.13-1.64,1.52c-.74.39-1.7.58-2.87.58-.59,0-1.1-.03-1.54-.08-.44-.05-.85-.14-1.24-.26-.38-.12-.78-.28-1.19-.47v-3.1c.7.35,1.4.62,2.11.8.71.18,1.35.28,1.93.28.35,0,.63-.04.85-.12.22-.08.38-.19.49-.34.11-.14.16-.31.16-.5,0-.22-.08-.41-.23-.57s-.4-.32-.74-.49c-.34-.17-.79-.38-1.35-.63-.47-.22-.9-.45-1.29-.69-.38-.23-.71-.5-.99-.81-.27-.3-.48-.66-.63-1.06-.15-.4-.22-.88-.22-1.43,0-.83.2-1.52.61-2.08.41-.56.98-.98,1.71-1.26.73-.28,1.57-.42,2.53-.42.84,0,1.59.09,2.26.28.67.19,1.27.4,1.81.64l-1.06,2.68c-.55-.25-1.09-.45-1.63-.6-.53-.15-1.03-.22-1.49-.22-.3,0-.54.04-.73.11-.19.07-.33.17-.42.29s-.14.26-.14.42c0,.2.08.38.23.54.16.16.42.33.78.51.37.19.87.42,1.5.72.63.28,1.16.58,1.6.91.44.33.78.72,1.01,1.17.23.45.35,1.02.35,1.68Z"/>
    </g>
    <g>
      <circle class="cls-3" cx="70.74" cy="14" r="13"/>
      <path class="cls-1" d="m70.74,28c-7.72,0-14-6.28-14-14S63.02,0,70.74,0s14,6.28,14,14-6.28,14-14,14Zm0-26c-6.62,0-12,5.38-12,12s5.38,12,12,12,12-5.38,12-12-5.38-12-12-12Z"/>
    </g>
    <g>
      <path class="cls-1" d="m95.25,13.17v-2.36h8.94v2.36h-8.94Zm0,4.02v-2.38h8.94v2.38h-8.94Z"/>
      <path class="cls-1" d="m121.98,13.64c0,1.5-.28,2.74-.84,3.73-.56.99-1.34,1.73-2.35,2.23-1.01.5-2.2.74-3.57.74h-4.16V7.48h4.45c1.38,0,2.56.24,3.52.71s1.69,1.17,2.2,2.08c.5.92.75,2.04.75,3.36Zm-3.61.12c0-.78-.1-1.43-.31-1.94s-.52-.9-.94-1.15c-.42-.25-.94-.38-1.57-.38h-1.01v7.2h.77c1.06,0,1.83-.31,2.32-.92.49-.61.74-1.55.74-2.81Z"/>
      <path class="cls-1" d="m128.5,7.48c1.17,0,2.14.14,2.91.43.77.28,1.36.71,1.75,1.27.39.56.58,1.26.58,2.1,0,.52-.09,1-.26,1.43s-.43.81-.75,1.15c-.33.34-.71.63-1.17.88l3.75,5.6h-3.94l-2.73-4.68h-.88v4.68h-3.47V7.48h4.21Zm-.05,2.63h-.69v2.94h.65c.53,0,.97-.12,1.31-.35.34-.23.51-.65.51-1.26,0-.42-.14-.74-.42-.98s-.74-.35-1.36-.35Z"/>
      <path class="cls-1" d="m144.89,16.44c0,.7-.18,1.36-.53,1.98s-.9,1.13-1.64,1.52c-.74.39-1.7.58-2.87.58-.59,0-1.1-.03-1.54-.08-.44-.05-.85-.14-1.24-.26-.38-.12-.78-.28-1.19-.47v-3.1c.7.35,1.4.62,2.11.8.71.18,1.35.28,1.93.28.35,0,.63-.04.85-.12.22-.08.38-.19.49-.34.11-.14.16-.31.16-.5,0-.22-.08-.41-.23-.57s-.4-.32-.74-.49c-.34-.17-.79-.38-1.35-.63-.47-.22-.9-.45-1.29-.69-.38-.23-.71-.5-.99-.81-.27-.3-.48-.66-.63-1.06-.15-.4-.22-.88-.22-1.43,0-.83.2-1.52.61-2.08.41-.56.98-.98,1.71-1.26.73-.28,1.57-.42,2.53-.42.84,0,1.59.09,2.26.28.67.19,1.27.4,1.81.64l-1.06,2.68c-.55-.25-1.09-.45-1.63-.6-.53-.15-1.03-.22-1.49-.22-.3,0-.54.04-.73.11-.19.07-.33.17-.42.29s-.14.26-.14.42c0,.2.08.38.23.54.16.16.42.33.78.51.37.19.87.42,1.5.72.63.28,1.16.58,1.6.91.44.33.78.72,1.01,1.17.23.45.35,1.02.35,1.68Z"/>
      <path class="cls-1" d="m162.47,13.64c0,1.5-.28,2.74-.84,3.73-.56.99-1.34,1.73-2.35,2.23-1.01.5-2.2.74-3.57.74h-4.16V7.48h4.45c1.38,0,2.56.24,3.52.71s1.69,1.17,2.2,2.08c.5.92.75,2.04.75,3.36Zm-3.61.12c0-.78-.1-1.43-.31-1.94s-.52-.9-.94-1.15c-.42-.25-.94-.38-1.57-.38h-1.01v7.2h.77c1.06,0,1.83-.31,2.32-.92.49-.61.74-1.55.74-2.81Z"/>
      <path class="cls-1" d="m172.41,20.34h-7.64V7.48h7.64v2.79h-4.16v2.02h3.85v2.79h-3.85v2.43h4.16v2.83Z"/>
      <path class="cls-1" d="m180.34,20.34h-3.47v-10.02h-3.14v-2.84h9.75v2.84h-3.13v10.02Z"/>
      <path class="cls-1" d="m192.94,20.34h-7.64V7.48h7.64v2.79h-4.16v2.02h3.85v2.79h-3.85v2.43h4.16v2.83Z"/>
      <path class="cls-1" d="m200.92,10.15c-.41,0-.78.09-1.1.26s-.6.42-.83.75c-.23.33-.4.73-.52,1.2-.12.47-.18,1.01-.18,1.61,0,.81.1,1.49.31,2.04.21.55.52.97.94,1.25.42.28.95.42,1.58.42.58,0,1.13-.08,1.66-.24.53-.16,1.07-.35,1.61-.57v2.94c-.57.25-1.15.43-1.75.55-.59.11-1.23.17-1.9.17-1.4,0-2.54-.28-3.43-.83-.89-.55-1.54-1.32-1.96-2.31-.42-.99-.63-2.13-.63-3.43,0-.97.14-1.86.41-2.67.27-.81.67-1.51,1.2-2.11.53-.6,1.18-1.06,1.96-1.38.78-.33,1.67-.49,2.67-.49.62,0,1.28.07,1.97.22.69.14,1.36.37,2.02.69l-1.06,2.74c-.47-.22-.94-.41-1.42-.56-.48-.15-.99-.23-1.53-.23Z"/>
      <path class="cls-1" d="m212.56,20.34h-3.47v-10.02h-3.14v-2.84h9.75v2.84h-3.13v10.02Z"/>
      <path class="cls-1" d="m217.53,20.34V7.48h3.49v12.86h-3.49Z"/>
      <path class="cls-1" d="m235.83,13.89c0,.99-.12,1.89-.36,2.7-.24.81-.61,1.51-1.11,2.1-.5.59-1.15,1.04-1.94,1.35-.79.31-1.74.47-2.84.47s-2.01-.16-2.8-.47c-.79-.31-1.44-.76-1.95-1.35-.51-.58-.89-1.28-1.13-2.1-.25-.81-.37-1.72-.37-2.73,0-1.34.22-2.5.66-3.49.44-.99,1.13-1.75,2.05-2.3s2.11-.81,3.55-.81,2.66.27,3.58.82,1.59,1.31,2.02,2.3c.43.99.64,2.15.64,3.49Zm-8.85,0c0,.77.09,1.44.26,2s.46.99.84,1.28c.38.3.88.45,1.5.45s1.15-.15,1.53-.45c.38-.3.65-.73.82-1.28s.25-1.22.25-2c0-1.16-.19-2.08-.58-2.75s-1.05-1.01-2-1.01c-.63,0-1.13.15-1.52.46-.38.31-.66.74-.83,1.3s-.26,1.23-.26,2.01Z"/>
      <path class="cls-1" d="m250.4,20.34h-4.56l-4.7-9.06h-.08c.03.28.06.61.08.99s.04.78.06,1.18.03.76.03,1.09v5.8h-3.08V7.48h4.54l4.68,8.94h.05c-.02-.28-.04-.61-.05-.98-.02-.37-.03-.75-.05-1.13-.01-.38-.02-.72-.02-1.01v-5.81h3.1v12.86Z"/>
      <path class="cls-1" d="m267.03,20.34h-10.02v-2.15l5.57-7.91h-5.44v-2.81h9.75v2.14l-5.57,7.92h5.71v2.81Z"/>
      <path class="cls-1" d="m280.9,13.89c0,.99-.12,1.89-.36,2.7-.24.81-.61,1.51-1.11,2.1-.5.59-1.15,1.04-1.94,1.35-.79.31-1.74.47-2.84.47s-2.01-.16-2.8-.47c-.79-.31-1.44-.76-1.95-1.35-.51-.58-.89-1.28-1.13-2.1-.25-.81-.37-1.72-.37-2.73,0-1.34.22-2.5.66-3.49.44-.99,1.13-1.75,2.05-2.3s2.11-.81,3.55-.81,2.66.27,3.58.82,1.59,1.31,2.02,2.3c.43.99.64,2.15.64,3.49Zm-8.85,0c0,.77.09,1.44.26,2s.46.99.84,1.28c.38.3.88.45,1.5.45s1.15-.15,1.53-.45c.38-.3.65-.73.82-1.28s.25-1.22.25-2c0-1.16-.19-2.08-.58-2.75s-1.05-1.01-2-1.01c-.63,0-1.13.15-1.52.46-.38.31-.66.74-.83,1.3s-.26,1.23-.26,2.01Z"/>
      <path class="cls-1" d="m295.47,20.34h-4.56l-4.7-9.06h-.08c.03.28.06.61.08.99s.04.78.06,1.18.03.76.03,1.09v5.8h-3.08V7.48h4.54l4.68,8.94h.05c-.02-.28-.04-.61-.05-.98-.02-.37-.03-.75-.05-1.13-.01-.38-.02-.72-.02-1.01v-5.81h3.1v12.86Z"/>
      <path class="cls-1" d="m305.88,20.34h-7.64V7.48h7.64v2.79h-4.16v2.02h3.85v2.79h-3.85v2.43h4.16v2.83Z"/>
    </g>
    <g>
      <path class="cls-1" d="m95.25,52.17v-2.36h8.94v2.36h-8.94Zm0,4.02v-2.38h8.94v2.38h-8.94Z"/>
      <path class="cls-1" d="m121.98,52.64c0,1.5-.28,2.74-.84,3.73-.56.99-1.34,1.73-2.35,2.23-1.01.5-2.2.74-3.57.74h-4.16v-12.86h4.45c1.38,0,2.56.24,3.52.71s1.69,1.17,2.2,2.08c.5.92.75,2.04.75,3.36Zm-3.61.12c0-.78-.1-1.43-.31-1.94s-.52-.9-.94-1.15c-.42-.25-.94-.38-1.57-.38h-1.01v7.2h.77c1.06,0,1.83-.31,2.32-.92.49-.61.74-1.55.74-2.81Z"/>
      <path class="cls-1" d="m128.5,46.48c1.17,0,2.14.14,2.91.43.77.28,1.36.71,1.75,1.27.39.56.58,1.26.58,2.1,0,.52-.09,1-.26,1.43s-.43.81-.75,1.15c-.33.34-.71.63-1.17.88l3.75,5.6h-3.94l-2.73-4.68h-.88v4.68h-3.47v-12.86h4.21Zm-.05,2.63h-.69v2.94h.65c.53,0,.97-.12,1.31-.35.34-.23.51-.65.51-1.26,0-.42-.14-.74-.42-.98s-.74-.35-1.36-.35Z"/>
      <path class="cls-1" d="m144.89,55.44c0,.7-.18,1.36-.53,1.98s-.9,1.13-1.64,1.52c-.74.39-1.7.58-2.87.58-.59,0-1.1-.03-1.54-.08-.44-.05-.85-.14-1.24-.26-.38-.12-.78-.28-1.19-.47v-3.1c.7.35,1.4.62,2.11.8.71.18,1.35.28,1.93.28.35,0,.63-.04.85-.12.22-.08.38-.19.49-.34.11-.14.16-.31.16-.5,0-.22-.08-.41-.23-.57s-.4-.32-.74-.49c-.34-.17-.79-.38-1.35-.63-.47-.22-.9-.45-1.29-.69-.38-.23-.71-.5-.99-.81-.27-.3-.48-.66-.63-1.06-.15-.4-.22-.88-.22-1.43,0-.83.2-1.52.61-2.08.41-.56.98-.98,1.71-1.26.73-.28,1.57-.42,2.53-.42.84,0,1.59.09,2.26.28.67.19,1.27.4,1.81.64l-1.06,2.68c-.55-.25-1.09-.45-1.63-.6-.53-.15-1.03-.22-1.49-.22-.3,0-.54.04-.73.11-.19.07-.33.17-.42.29s-.14.26-.14.42c0,.2.08.38.23.54.16.16.42.33.78.51.37.19.87.42,1.5.72.63.28,1.16.58,1.6.91.44.33.78.72,1.01,1.17.23.45.35,1.02.35,1.68Z"/>
      <path class="cls-1" d="m160.72,59.34h-10.02v-2.15l5.57-7.91h-5.44v-2.81h9.75v2.14l-5.57,7.92h5.71v2.81Z"/>
      <path class="cls-1" d="m174.59,52.89c0,.99-.12,1.89-.36,2.7-.24.81-.61,1.51-1.11,2.1-.5.59-1.15,1.04-1.94,1.35-.79.31-1.74.47-2.84.47s-2.01-.16-2.8-.47c-.79-.31-1.44-.76-1.95-1.35-.51-.58-.89-1.28-1.13-2.1-.25-.81-.37-1.72-.37-2.73,0-1.34.22-2.5.66-3.49.44-.99,1.13-1.75,2.05-2.3s2.11-.81,3.55-.81,2.66.27,3.58.82,1.59,1.31,2.02,2.3c.43.99.64,2.15.64,3.49Zm-8.85,0c0,.77.09,1.44.26,2s.46.99.84,1.28c.38.3.88.45,1.5.45s1.15-.15,1.53-.45c.38-.3.65-.73.82-1.28s.25-1.22.25-2c0-1.16-.19-2.08-.58-2.75s-1.05-1.01-2-1.01c-.63,0-1.13.15-1.52.46-.38.31-.66.74-.83,1.3s-.26,1.23-.26,2.01Z"/>
      <path class="cls-1" d="m189.16,59.34h-4.56l-4.7-9.06h-.08c.03.28.06.61.08.99s.04.78.06,1.18.03.76.03,1.09v5.8h-3.08v-12.86h4.54l4.68,8.94h.05c-.02-.28-.04-.61-.05-.98-.02-.37-.03-.75-.05-1.13-.01-.38-.02-.72-.02-1.01v-5.81h3.1v12.86Z"/>
      <path class="cls-1" d="m199.58,59.34h-7.64v-12.86h7.64v2.79h-4.16v2.02h3.85v2.79h-3.85v2.43h4.16v2.83Z"/>
      <path class="cls-1" d="m210.24,55.44c0,.7-.18,1.36-.53,1.98s-.9,1.13-1.64,1.52c-.74.39-1.7.58-2.87.58-.59,0-1.1-.03-1.54-.08-.44-.05-.85-.14-1.24-.26-.38-.12-.78-.28-1.19-.47v-3.1c.7.35,1.4.62,2.11.8.71.18,1.35.28,1.93.28.35,0,.63-.04.85-.12.22-.08.38-.19.49-.34.11-.14.16-.31.16-.5,0-.22-.08-.41-.23-.57s-.4-.32-.74-.49c-.34-.17-.79-.38-1.35-.63-.47-.22-.9-.45-1.29-.69-.38-.23-.71-.5-.99-.81-.27-.3-.48-.66-.63-1.06-.15-.4-.22-.88-.22-1.43,0-.83.2-1.52.61-2.08.41-.56.98-.98,1.71-1.26.73-.28,1.57-.42,2.53-.42.84,0,1.59.09,2.26.28.67.19,1.27.4,1.81.64l-1.06,2.68c-.55-.25-1.09-.45-1.63-.6-.53-.15-1.03-.22-1.49-.22-.3,0-.54.04-.73.11-.19.07-.33.17-.42.29s-.14.26-.14.42c0,.2.08.38.23.54.16.16.42.33.78.51.37.19.87.42,1.5.72.63.28,1.16.58,1.6.91.44.33.78.72,1.01,1.17.23.45.35,1.02.35,1.68Z"/>
    </g>
    <path class="cls-3" d="m83.74,65h-2.5v-23h2.5v23Zm-5.5,0h-3v-23h3v23Zm-6,0h-3v-23h3v23Zm-6,0h-3v-23h3v23Zm-6,0h-3v-23h3v23Z"/>
    <g>
      <path class="cls-2" d="m70.22,92.78c0,.84-.07,1.59-.2,2.26s-.35,1.23-.64,1.69-.68.82-1.17,1.06c-.48.24-1.08.37-1.78.37-.88,0-1.59-.21-2.15-.64-.56-.43-.97-1.04-1.24-1.84-.26-.8-.4-1.76-.4-2.89s.12-2.1.36-2.91c.24-.81.64-1.42,1.19-1.85.55-.43,1.3-.65,2.23-.65.88,0,1.59.21,2.15.64.56.43.97,1.04,1.24,1.85.27.81.4,1.78.4,2.92Zm-4.75,0c0,.68.02,1.26.08,1.72.05.46.15.81.29,1.04.14.23.34.35.61.35s.46-.12.6-.35.23-.58.29-1.04.08-1.04.08-1.72-.03-1.27-.08-1.74-.15-.81-.29-1.05-.34-.35-.6-.35-.46.12-.61.35c-.14.24-.24.59-.29,1.05-.05.46-.08,1.04-.08,1.74Z"/>
      <path class="cls-2" d="m77.49,98.01h-2.88v-5.71c0-.26,0-.54.01-.85,0-.31.02-.59.03-.84-.12.15-.24.27-.35.38-.11.11-.21.2-.31.29l-1.19.98-1.47-1.81,3.6-2.93h2.55v10.48Z"/>
    </g>
  </g>
</svg>