<?xml version="1.0" encoding="UTF-8"?>
<svg id="Simplified" xmlns="http://www.w3.org/2000/svg" viewBox="0 0 945.62 603.11">
  <defs>
    <style>
      .cls-1, .cls-2, .cls-3, .cls-4, .cls-5 {
        stroke-width: 0px;
      }

      .cls-2 {
        fill: #1bce20;
      }

      .cls-3 {
        fill: #fae44a;
      }

      .cls-4 {
        fill: #75e5fd;
      }

      .cls-5 {
        fill: #db4a25;
      }

      .cls-6 {
        fill: none;
        stroke: #1bce20;
        stroke-dasharray: 0 3;
        stroke-miterlimit: 10;
        stroke-width: 9px;
      }
    </style>
  </defs>
  <path class="cls-5" d="m909.47,117.15l-10.61,8.08-3.18,2.42-10.1,7.68c-18.9-26.71-41.74-57.9-43.42-60.19l-31.31-40.79c-1.48-.86-3.14-1.65-4.55-2.18-.12,1.12-.2,2.61-.15,4.55.73,25.97,3.07,38.54,3.96,42.48,6.51,10.61,17.39,27.5,22.26,32.97,5.97,6.72,8.77,16.18,7.89,26.63-1.04,12.22-7.07,24.12-15.73,31.05l-.58.46c-10.84,8.7-27.24,21.83-68.79,21.83-36.31,0-216.18,3.44-219.19,3.5l-178.46,3.88c-5.5.13-10.71-1.92-14.67-5.75-3.96-3.83-6.18-8.97-6.25-14.47l-.67-54.09,3-.09,9.62-.28,4-.11,10.38-.3,3-.09.55,44.97,168.9-3.67c7.46-.14,183.07-3.5,219.79-3.5,31.02,0,41.12-8.1,50.04-15.24l.59-.47c4.24-3.4,5.53-12.22,4.11-14.39-8.61-9.67-24.75-36.13-26.56-39.12l-.88-1.44-.53-1.6c-.79-2.35-4.75-15.95-5.76-52.32-.57-20.48,7.72-29.27,14.78-33.04,16.23-8.67,35.24,3.8,38.89,6.39l1.84,1.31,34.58,45.05c1.3,1.78,23.97,32.71,43.21,59.88Z"/>
  <path class="cls-4" d="m365.92,124.34l-30,.87-.26-21.45c-.04-1.54-1.13-28.26-29.67-45.23-22.45-13.35-42.98-13.91-53.22-13.05-.8.06-1.56.37-2.04.8-1.31,4.95-4.5,9.27-8.9,11.98-4.74,2.91-10.54,3.74-15.91,2.26l-35.12-9.66-.33-.14c-.54-.17-1.2-.31-1.82-.38-.11.91-.17,2.28-.03,4.23l.04.59v.58l-1,146.22c-.1,4.38-.8,26.83-5.57,38.75-4.04,10.09-11.55,28.88-37.97,42.72-3.73,1.95-6.85,3.61-9.59,5.08-13.06,6.96-18.46,9.85-38.44,16.8-15.01,5.22-32.47,16.92-39.28,21.71-2.77,1.95-5.07,4.4-6.83,7.28-4.01,6.55-11.16,20.11-14.02,37.31-1.82,10.92-3.32,20.28-4.44,27.8-.1.65.2,1.29.75,1.61,2.48,1.45,4.81,2.75,6.91,3.86,13.49,7.14,61.5,35.11,63.53,36.3l.58.34.55.39c.08.06,1.21.85,3.31,2.29l-16.03,25.38c-1.96-1.34-3.33-2.29-4.07-2.81-5.5-3.2-49.71-28.91-61.91-35.37-2.46-1.31-5.15-2.81-7.99-4.47-11.22-6.55-17.22-19.09-15.3-31.95,1.15-7.69,2.67-17.21,4.51-28.31,3.52-21.09,11.75-37.76,18.03-48.03,3.91-6.39,9.01-11.83,15.16-16.15,9.74-6.86,28.76-19.28,46.68-25.52,17.78-6.18,21.91-8.38,34.18-14.93,2.8-1.49,5.99-3.19,9.79-5.19,16.6-8.69,20.72-19,24.03-27.28,1.83-4.57,3.2-18.14,3.43-28.14l1-145.35c-1.06-17.18,5.62-25.96,11.45-30.32,11.59-8.66,26.08-4.75,29.98-3.46l25.78,7.09c5.5-7.81,14.49-12.98,24.41-13.81,13.81-1.15,41.41-.46,71.05,17.17,42.84,25.47,44.29,67.14,44.33,70.7l.26,20.89Z"/>
  <path class="cls-3" d="m943.15,221.24l-1.99,148.1c-.01,1.2-1,128.09-1,147.8,0,18.02-9.06,28.3-15.6,33.38-.6,12.88-6.23,20.33-11,24.38-9.36,7.94-20.73,7.73-25.28,7.25l-128.12.99h-249.95c-2.51.02-23.77.17-51.03.17-43.2,0-101.48-.38-124.23-2.22-39.15-3.17-92.72-27.26-94.98-28.29-76.55-35.26-132.73-72.21-148.85-83.22l1.6-2.53,5.23-8.28,2.13-3.38,5.47-8.65,1.6-2.54c13.88,9.46,70.08,46.66,145.23,81.29,1.61.72,51.45,22.98,84.99,25.7,35.92,2.91,171.32,1.96,172.68,1.95h250.05l130.6-1.01.8.18c.86.07,2.04-.06,2.58-.28.16-.36.53-1.46.53-3.78-.01-8.43,4.15-16.32,11.12-21.11,2.98-2.05,4.43-5.32,4.43-10,0-19.83.99-146.84,1-148.12l2.02-150.1.15-1c.04-.32,4.83-34.73-9.65-56.46-2.55-3.83-5.66-8.36-9.1-13.3l10.09-7.72,3.18-2.43,10.58-8.1c3.86,5.53,7.35,10.62,10.21,14.91,19.39,29.08,15.44,69.08,14.51,76.42Z"/>
  <g>
    <path class="cls-1" d="m929.89,143.99c-2.54-3.81-5.7-8.44-9.42-13.79l-1.21.91-1.19.9c1.79,2.57,3.44,4.97,4.96,7.19,1.61,2.36,3.07,4.51,4.36,6.45,19.05,28.58,15.23,67.82,14.27,75.4v.09s-2,148.19-2,148.19c-.01,1.23-1,128.22-1,147.81,0,16.97-8.17,26.87-15.02,32.2l-.55.42-.03.69c-.58,12.41-6.01,19.52-10.47,23.31-8.94,7.58-19.87,7.35-24.15,6.9h-.09s-128.19.98-128.19.98h-249.96c-.22,0-22.16.17-51.02.17-44.12,0-101.47-.38-124.11-2.21-39.38-3.19-93.93-27.92-94.47-28.16-76.85-35.4-133.2-72.55-148.63-83.1-.02,0-.03-.02-.05-.03-1.93-1.32-3.28-2.25-4.01-2.77l-.11-.07c-8.26-4.8-50.07-29.1-61.96-35.39-2.52-1.35-5.2-2.85-7.93-4.44-10.69-6.24-16.41-18.19-14.58-30.44,1.12-7.49,2.64-17.01,4.51-28.28,3.48-20.85,11.62-37.34,17.83-47.5,3.81-6.22,8.77-11.51,14.74-15.7,9.66-6.8,28.51-19.13,46.31-25.33,17.92-6.23,22.07-8.45,34.4-15.03l.5-.27c2.68-1.42,5.71-3.03,9.28-4.91,17.09-8.95,21.32-19.54,24.72-28.05,1.91-4.77,3.3-18.32,3.54-28.69l1-145.35v-.1c-1.02-16.52,5.34-24.91,10.85-29.03,5.35-4,11.37-5.17,16.59-5.17s10.04,1.28,12.09,1.96l26.8,7.37.61-.87c5.26-7.47,13.97-12.39,23.3-13.17,13.65-1.14,40.9-.45,70.16,16.96,41.9,24.91,43.55,64.94,43.6,69.43l.26,20.91.57,46.46,170.41-3.7,2.1-.04c42.85-.81,185.19-3.46,217.66-3.46s41.85-8.26,50.97-15.57l.6-.47c4.67-3.75,6.34-13.46,4.43-16.38l-.14-.18c-8.77-9.85-25.68-37.72-26.4-38.9l-.79-1.29-.48-1.45c-.77-2.29-4.67-15.59-5.68-51.88-.55-19.72,7.3-28.11,13.99-31.68,15.44-8.25,33.79,3.8,37.31,6.29l1.66,1.18,34.42,44.85.16.21c5.6,7.66,24.79,33.9,41.83,57.94l1.19-.91,1.19-.91c-17.04-24.03-36.19-50.25-41.79-57.89l-34.76-45.29-.14-.18-2.02-1.44c-3.78-2.68-23.46-15.58-40.47-6.49-7.43,3.96-16.16,13.15-15.57,34.4,1.02,36.72,5.04,50.39,5.84,52.75l.53,1.6,1.02,1.75c.72,1.18,17.65,29.09,26.63,39.23.78,1.49-.06,9.3-3.83,12.33l-.62.48c-8.72,6.99-18.61,14.9-49.08,14.9-32.5,0-174.86,2.65-217.71,3.46l-2.11.04-167.39,3.64-.79-64.35c-.05-4.65-1.76-46.22-45.06-71.97-29.99-17.83-57.95-18.54-71.94-17.37-9.85.82-19.07,5.87-24.89,13.58l-24.71-6.79c-4.3-1.43-19.26-5.35-31.35,3.68-6.1,4.56-13.14,13.74-12.05,31.56l-1,145.28c-.23,9.89-1.62,23.35-3.32,27.61-3.22,8.06-7.23,18.08-23.34,26.51-3.57,1.88-6.61,3.5-9.28,4.92l-.52.28c-12.16,6.49-16.26,8.68-33.96,14.83-18.15,6.32-37.27,18.82-47.05,25.71-6.31,4.43-11.55,10.02-15.58,16.6-6.35,10.38-14.67,27.24-18.23,48.57-1.87,11.29-3.39,20.82-4.51,28.33-2.02,13.47,4.28,26.61,16.02,33.47,2.78,1.62,5.48,3.13,8.05,4.5,11.81,6.25,53.42,30.43,61.8,35.3.76.53,2.11,1.47,4.03,2.79,15.49,10.58,72.01,47.85,149.08,83.34.55.26,55.58,25.2,95.48,28.43,22.73,1.83,80.17,2.22,124.35,2.22,28.87,0,50.82-.17,51.03-.17h249.96l128.04-.99c4.72.48,16.56.68,26.32-7.61,4.83-4.1,10.7-11.7,11.49-24.76,7.26-5.83,15.64-16.4,15.64-34.14,0-19.58.99-146.56,1-147.78l1.99-148.02c.33-2.63.97-8.75.97-16.84,0-16.39-2.62-40.85-15.73-60.51ZM180.69,240.17c-3.97,9.91-11.35,28.36-37.26,41.93-3.74,1.95-6.87,3.62-9.6,5.09l-.13.07c-12.94,6.89-18.3,9.74-38.1,16.63-15.2,5.29-32.79,17.08-39.65,21.9-2.94,2.07-5.38,4.67-7.25,7.73-4.06,6.64-11.32,20.38-14.22,37.84-1.87,11.21-3.36,20.57-4.44,27.82-.2,1.27.38,2.5,1.47,3.14,2.49,1.45,4.84,2.76,6.97,3.88,13.81,7.32,63,36,63.47,36.27l.53.31.46.33c.11.08,1.27.9,3.36,2.33.02,0,.03.02.05.03,15.37,10.47,71.02,47.11,145.42,81.39,2.11.94,52.03,23.11,85.48,25.83,35.82,2.9,171.45,1.96,172.8,1.95h250.06l130.43-1.01.63.14.21.04c.94.07,2.4-.04,3.27-.39l.56-.23.24-.55c.25-.55.66-1.86.66-4.39-.01-7.93,3.9-15.36,10.47-19.87,3.42-2.36,5.08-6.03,5.08-11.24,0-18.28.83-126.19,1-147.63l2.02-150.47.14-.95c.48-3.63,4.32-36.14-9.89-57.46-2.24-3.36-4.99-7.38-8.4-12.28l-1.19.9-1.2.91c3.36,4.84,6.08,8.82,8.29,12.13,13.84,20.76,9.6,54,9.42,55.41l-.17,1.1-2.02,150.21v.48c-.17,21.44-1,129.36-1,147.65,0,4.21-1.2,6.99-3.78,8.76-7.38,5.08-11.78,13.43-11.77,22.35,0,1.21-.11,2.02-.21,2.52-.35.05-.78.07-1.18.05l-.86-.19-130.76,1.01h-250.06c-1.37,0-136.86.95-172.55-1.95-32.95-2.67-82.41-24.64-84.48-25.56-74.25-34.22-129.77-70.78-145.01-81.17-2.03-1.39-3.15-2.17-3.29-2.27l-.55-.39-.69-.41c-.47-.28-49.73-29-63.59-36.34-2.09-1.1-4.4-2.39-6.88-3.92,1.08-7.24,2.57-16.58,4.44-27.77,2.82-16.96,9.87-30.32,13.82-36.78,1.65-2.7,3.81-5,6.41-6.83,6.76-4.75,24.07-16.36,38.91-21.52,20.03-6.97,25.44-9.85,38.53-16.83l.13-.07c2.73-1.47,5.85-3.12,9.58-5.07,26.89-14.09,34.54-33.2,38.66-43.49,4.7-11.75,5.54-33.03,5.68-39.3l1-146.23-.04-1.28c-.07-.9-.09-1.66-.08-2.29l35.48,9.8c5.77,1.58,11.99.7,17.1-2.43,4.58-2.83,7.91-7.19,9.41-12.34.23-.11.53-.2.87-.22,10.05-.85,30.22-.3,52.32,12.84,27.91,16.59,28.91,42.87,28.94,43.96l.93,75.54c.08,5.9,2.46,11.42,6.71,15.53,4.26,4.12,9.87,6.3,15.74,6.17l178.46-3.88c1.77-.03,182.65-3.5,219.16-3.5,42.12,0,58.73-13.34,69.72-22.16l.59-.46c8.97-7.18,15.21-19.48,16.29-32.09.91-10.87-2.02-20.73-8.27-27.76-4.4-4.94-14.44-20.28-21.97-32.54-.97-4.39-3.16-16.84-3.87-41.95-.02-.81-.02-1.58,0-2.31.74.35,1.49.73,2.19,1.13l31.11,40.53.19.25c5.73,7.83,25.29,34.62,42.09,58.33l1.19-.92,1.2-.91c-16.8-23.69-36.34-50.45-42.06-58.27l-31.52-41.07-.18-.24-.26-.15c-1.52-.88-3.26-1.72-4.77-2.28l-1.82-.68-.2,1.92c-.15,1.4-.2,3-.16,4.75.73,25.85,3.04,38.52,4,42.77l.05.24.13.21c5.87,9.57,17.19,27.32,22.42,33.19,5.69,6.4,8.36,15.46,7.51,25.5-1,11.83-6.81,23.33-15.16,30.01l-.59.46c-10.67,8.56-26.79,21.5-67.85,21.5-36.54,0-217.45,3.47-219.22,3.5l-178.47,3.88c-5.11.12-9.91-1.77-13.59-5.33-3.67-3.55-5.72-8.31-5.79-13.41l-.67-54.11-.26-21.45c-.03-1.18-1.09-29.05-30.4-46.48-22.83-13.57-43.7-14.13-54.1-13.26-1.12.09-2.19.52-2.93,1.18l-.34.3-.11.44c-1.21,4.56-4.21,8.6-8.23,11.08-4.4,2.7-9.76,3.46-14.73,2.09l-35.03-9.63-.37-.15c-.64-.2-1.39-.36-2.1-.44l-1.48-.17-.18,1.48c-.15,1.25-.16,2.77-.04,4.51l.04.54-1,146.72c-.1,4.35-.83,26.65-5.47,38.24Z"/>
    <path class="cls-1" d="m917.45,152.05c-2.36-3.54-5.17-7.65-8.27-12.13-.44-.63-.88-1.26-1.33-1.91l-3.18,2.43c.44.64.88,1.27,1.31,1.9,3.05,4.4,5.82,8.45,8.14,11.93,17.35,26.02,11.74,65.2,11.68,65.59l-.02.14-2,149.14c-.01,1.28-1,128.24-1,148.02,0,11.4-5.48,17.55-10.07,20.71-3.43,2.36-5.48,6.25-5.48,10.39,0,6.23-1.68,10.83-5.02,13.67-5.24,4.47-13.03,3.27-13.1,3.25l-.17-.02-129.16,1h-250.01c-1.37.01-137.34.96-173.83-2-36.22-2.93-88.81-26.59-89.32-26.82-74.91-34.51-131.24-71.55-146.54-81.95-2.63-1.79-4.05-2.8-4.14-2.86l-.15-.1c-.5-.29-49.82-29.02-63.07-36.04-2.26-1.2-4.75-2.58-7.38-4.12-5.18-3.02-7.95-8.82-7.06-14.76,1.13-7.59,2.64-17.02,4.47-28.02,3.07-18.4,10.27-32.97,15.76-41.96,2.7-4.4,6.21-8.14,10.44-11.12,9.02-6.34,26.52-17.81,42.49-23.36,19.02-6.62,23.8-9.17,36.59-15.99,2.77-1.48,5.92-3.16,9.68-5.13,22.16-11.61,28.27-26.9,31.93-36.03,4.09-10.22,4.62-33.23,4.64-34.23l1-146v-.15c-.57-7.97.98-13.39,4.61-16.11,2.17-1.63,4.86-2.13,7.35-2.13,3.9,0,7.29,1.23,7.34,1.25l34.41,9.47c1.91.53,3.97.23,5.66-.8,1.68-1.04,2.83-2.68,3.22-4.61.23-1.1.4-1.5.45-1.6,2.37-4.74,7.35-7.98,12.99-8.45,11.79-.99,35.38-.37,60.95,14.84,35.52,21.12,36.02,55.93,36.02,56.3l.26,21.16.67,54.31c.03,2.01.84,3.89,2.28,5.29,1.45,1.4,3.36,2.15,5.36,2.1l178.47-3.88c1.82-.04,182.9-3.5,219.46-3.5s50.67-10.97,60.67-18.97l.58-.47c5.97-4.78,10.15-13.21,10.89-22.01.59-6.86-1.06-12.85-4.64-16.88-7.43-8.36-23.07-33.9-24.66-36.5-.5-1.69-3.93-14.52-4.84-47.23-.26-9.46,1.69-15.37,5.8-17.57,6.23-3.33,16.89,2.39,20.8,5.09l32.79,42.72c.31.43,22.86,31.19,42.16,58.4.45.64.9,1.28,1.35,1.91l3.18-2.42c-.45-.64-.9-1.28-1.36-1.92-19.3-27.22-41.8-57.91-42.13-58.37l-33-43-.19-.24-.24-.17c-.63-.45-15.4-10.79-25.24-5.53-5.56,2.97-8.23,10.11-7.92,21.21,1,35.89,4.94,48.08,5.1,48.58l.19.41c.7,1.15,17.19,28.25,25.22,37.29,2.84,3.19,4.14,8.13,3.65,13.88-.65,7.63-4.34,15.17-9.41,19.23l-.58.46c-9.53,7.64-22.59,18.1-58.17,18.1s-217.71,3.46-219.54,3.5l-178.47,3.88c-.96-.03-1.82-.33-2.5-.98-.67-.65-1.05-1.52-1.06-2.46l-.67-54.37-.26-21.07c0-.37-.43-37.4-37.98-59.72-26.52-15.77-51.06-16.41-63.32-15.39-7.03.59-13.25,4.67-16.24,10.65-.3.6-.55,1.44-.79,2.6-.17.83-.66,1.54-1.4,1.99-.74.46-1.66.59-2.5.35l-34.16-9.39c-1.15-.41-11.31-3.84-18.38,1.44-4.79,3.58-6.89,10.15-6.23,19.53l-1,145.89c0,.24-.54,23.26-4.36,32.8-3.67,9.18-9.22,23.05-30.07,33.98-3.77,1.97-6.93,3.66-9.7,5.14-12.59,6.71-17.3,9.22-36.03,15.74-16.42,5.71-34.28,17.41-43.47,23.87-4.68,3.29-8.57,7.44-11.55,12.3-5.68,9.29-13.12,24.36-16.29,43.39-1.84,11.03-3.35,20.48-4.48,28.09-1.13,7.57,2.4,14.95,8.99,18.8,2.69,1.57,5.22,2.98,7.53,4.21,12.94,6.85,60.65,34.63,62.85,35.91.35.24,1.79,1.26,4.25,2.93,15.61,10.6,72.05,47.68,147.01,82.21.53.24,53.74,24.18,90.66,27.17,22.24,1.8,81.08,2.16,124.24,2.16,27.99,0,49.39-.15,49.92-.15h250.02l128.84-1c1.4.2,9.9,1.13,16.14-4.16,4.28-3.64,6.46-9.27,6.45-16.74,0-2.83,1.4-5.48,3.75-7.09,5.38-3.7,11.8-10.87,11.8-24.01,0-19.77.99-146.71,1-147.98l2-148.86c.44-3.04,5.53-41.47-12.33-68.27Z"/>
  </g>
  <line class="cls-6" x1="402.88" y1="598.61" x2="866.6" y2="598.61"/>
  <line class="cls-6" x1="376.34" y1="211.44" x2="789.84" y2="204.44"/>
  <g>
    <circle class="cls-2" cx="790.84" cy="57.94" r="10"/>
    <path class="cls-1" d="m790.84,68.94c-6.07,0-11-4.93-11-11s4.93-11,11-11,11,4.93,11,11-4.93,11-11,11Zm0-20c-4.96,0-9,4.04-9,9s4.04,9,9,9,9-4.04,9-9-4.04-9-9-9Z"/>
  </g>
  <g>
    <circle class="cls-2" cx="258.84" cy="543.94" r="10"/>
    <path class="cls-1" d="m258.84,554.94c-6.07,0-11-4.93-11-11s4.93-11,11-11,11,4.93,11,11-4.93,11-11,11Zm0-20c-4.96,0-9,4.04-9,9s4.04,9,9,9,9-4.04,9-9-4.04-9-9-9Z"/>
  </g>
  <g id="Start_Line" data-name="Start Line">
    <polygon class="cls-1" points="914.88 95.38 912.76 111.38 916.69 111.91 918.31 99.84 930.37 101.44 930.9 97.51 914.88 95.38"/>
    <polygon class="cls-1" points="905.09 82.48 902.96 98.49 906.9 99.01 908.5 86.94 920.57 88.55 921.09 84.61 905.09 82.48"/>
    <polygon class="cls-1" points="895.29 69.59 893.16 85.6 897.1 86.12 898.71 74.05 910.77 75.66 911.3 71.72 895.29 69.59"/>
    <g>
      <polygon class="cls-1" points="930.29 114.68 930.38 114.79 925.73 118.36 924.76 119.08 912.97 128.11 902.52 136.11 902.38 136.21 902.2 136.35 902.1 136.22 899.11 138.5 889.6 145.75 889.28 145.99 889.25 145.95 889.17 146.01 885.51 141.22 885.46 141.15 885.83 140.87 895.56 133.45 898.74 131.03 909.34 122.94 913.89 119.47 914.61 118.92 919.51 115.17 935.54 102.9 935.57 102.95 935.64 102.89 939.36 107.75 930.29 114.68"/>
      <polygon class="cls-1" points="930.29 114.68 930.38 114.79 925.73 118.36 924.76 119.08 912.97 128.11 902.52 136.11 902.2 136.35 902.1 136.22 889.6 145.75 889.28 145.99 889.25 145.95 889.17 146.01 885.51 141.22 885.46 141.15 885.83 140.87 909.34 122.94 913.89 119.47 914.61 118.92 919.51 115.17 935.54 102.9 935.57 102.95 935.64 102.89 939.36 107.75 930.29 114.68"/>
    </g>
  </g>
</svg>