<?xml version="1.0" encoding="UTF-8"?><svg id="Lusail_Detailed" xmlns="http://www.w3.org/2000/svg" viewBox="0 0 1000 1000"><defs><style>.cls-1,.cls-2{fill:#fff;}.cls-3{fill:#fae44a;}.cls-4{fill:#db4a25;}.cls-5{fill:#1bce20;}.cls-6{fill:#75e5fd;}.cls-2{font-family:OpenSans-Regular, 'Open Sans';font-size:12.58px;font-variation-settings:'wght' 400, 'wdth' 100;}.cls-7{fill:#231f20;}</style></defs><path class="cls-6" d="M197.6,355.02c-12.85-35.42-27.1-74.65-27.34-75.31l-.2-.68c-.04-.16-4.34-18.02-16.51-22.73-5.91-2.3-12.57-.08-20.99,2.73-2.43,.81-4.94,1.64-7.59,2.42-11.78,3.46-44.08,14.58-44.41,14.7l-.44,.14c-.75,.28-4.1,1.79-5.52,7.46-2.05,8.2,.47,17.89,3.71,28.79,3.53,11.9,32.63,97.11,32.93,97.96,17.64,52.31,38.86,110.98,43.46,116.71,4.03,4.81,20.52,14.63,30.04,19.73,3.75,1.82,62.97,30.62,82.78,45.52,11.21,8.43,23.51,25.9,21.33,47.41l-.21,2.14c-1.29,13.25-2.77,28.27-22.91,42.4-10.18,7.13-38.22,22.73-58.7,34.12l-2,1.11c-.36,.2-.95,.53-1.77,.97-43.88,24.11-49.71,30.14-50.43,31.11-5.12,6.82-7.97,13.27-6.38,24.32,1.83,12.64,12.65,14.77,27.72,16.41l1.67,.18c10.64,1.18,212.22,.37,288.99-.04h1.84v.65l-.02,36.65v.38H174.84c-1.77,.08-15.19,.51-29.63-4.01-20.97-6.57-33.86-20.3-37.28-39.67-7.08-40.12,16.43-65.71,29.84-73.64,3.3-1.95,13.11-7.42,25.53-14.33,27-15.05,72.18-40.21,77.74-44.64,7.3-5.83,7.99-12.02,7.68-17.31l-.05-.91c-.33-6.63-1.31-13.44-9.12-17.42-2.01-1.02-8.88-4.46-17.59-8.81-17.44-8.71-43.79-21.88-56.63-28.47-12.26-6.29-39.04-22.21-43.58-31.29-3.05-6.1-12-29.41-12.38-30.4l-.06-.14L40.45,324.1l-.06-.23c-.95-3.62-9.09-35.77-2.95-52.4,6.67-18.11,11.58-23.7,26.32-29.93,14.07-5.95,58.8-20.72,60.7-21.35l.25-.08c1.07-.3,26.33-7.22,42.01-.2,.59,.26,1.19,.52,1.79,.79,11.42,5.02,28.69,12.61,39.28,45.4,5.09,15.76,16.21,47.49,26.11,75.45"/><path class="cls-4" d="M692.08,226.43c.24-.61,.4-1.05,.44-1.15,3.6-9.3,7.92-19.77,19.58-31.43,9.48-9.49,21.92-14.5,35.94-14.5,28.33,0,77.29,.06,86.83,.49,12.25,.56,22.94,2.09,35.29,7.79,14.31,6.61,21.38,20.85,26.53,31.25,1.36,2.74,2.64,5.33,3.85,7.37,.81,1.35,2.11,3.53,3.77,6.28,16.02,26.67,31.22,52.31,33.96,59.35l.79,2.03c3.7,9.42,8.77,22.34,7.96,33.38-.95,13.08-3.32,19.38-6.82,25.3-7.15,12.08-106.38,131.26-118.38,145.66-.47,.68-4.09,6.22-3.49,12.93,.63,6.97,3.9,11.96,7.78,17.31,.88,1.2,132.42,195.5,137.71,204.35,7.14,11.93,13.65,39.59,7.22,54.08-11.82,26.63-31.72,41.15-57.57,41.99-42.96,1.38-427.66,1.44-431.54,1.44h-1.67v-38.18l431.17-1.55c1.01-.06,13.99-.98,21.3-12.99,3.76-6.16,2.92-15.01-2.31-24.26-4.98-8.8-94.32-140.63-140.87-209.11l-.23-.37c-.36-.63-8.82-15.53-8.28-32.26,.52-16.35,1.73-22.89,8.68-34.65,3.38-5.72,27.14-34.5,63.03-77.76,22.82-27.52,48.69-58.72,50.87-62.37,4.37-7.43,4.37-10.23,4.37-13.2v-.27c0-2.21,.02-6.34-6.45-18.42-7.58-14.15-31.59-56.61-37.3-66.12-.86-1.44-1.65-2.77-2.39-4.01-3.75-6.31-6.23-10.48-8.21-12.06-4.68-3.75-9.14-4.17-18.97-4.27-1.98-.02-4.77-.06-8.14-.1-17.81-.2-72.01-.85-76.75-.23-4.73,.62-8.16,1.89-12.76,6.85-5.26,5.68-6.73,9.48-9.18,16.17,0,0-.16,.42-.47,1.18l-35.3-15.95Z"/><path class="cls-3" d="M233.95,341.69c9.91,27.99,18.6,52.15,18.77,52.63l.05,.14c.5,1.24,2.03,2.97,6.63,1.76,1.15-2.34,3.41-10.29,5.59-37.23,.14-1.73,.24-2.98,.31-3.6,.49-4.44,17.44-156.12,17.44-156.12l.03-.21c.08-.51,1.98-12.81,10.29-25.36,7.77-11.74,22.76-25.95,50.04-27.02,26.29-1.03,44.39,10.72,50.06,22.07,.45,.91,.91,1.76,1.37,2.62,3.38,6.29,7.19,13.42,10.36,37.98,3.71,28.78,15.5,51.41,39.42,75.65,1.99,2.01,5.53,5.09,9.63,8.67,17.87,15.59,34.18,30.61,37.34,42.87,4.57,17.73,5.01,33.43,1.32,48.02-.96,3.8-4.32,12.36-8.58,23.19-6.28,16-14.88,37.93-15.93,45.77-1.77,13.4-.61,25.44,2.84,29.28,.74,.83,1.48,1.15,2.62,1.12,49.86-1.13,68.62-11.74,84.92-23.46,29.63-21.3,38.19-31.85,45.07-40.33,.95-1.17,1.86-2.3,2.8-3.42,12.72-15.24,16.69-22.56,23.99-38.15,5.08-10.83,29.58-71.98,45.8-112.43,6.94-17.3,12.41-30.96,13.87-34.46,.71-1.71,1.39-3.46,2.1-5.31l35.27,16.11c-.22,.6-.58,1.56-1.08,2.85-8.3,21.6-53.13,134.53-59.31,146.42-1.23,2.35-2.41,4.8-3.68,7.41-5.36,11.05-11.44,23.58-24.27,37.66-2.11,2.32-4.16,4.62-6.22,6.94-13.15,14.82-26.75,30.13-61.1,53.85-18.72,12.93-50.19,25.31-86.67,25.31-5.86,0-11.84-.32-17.92-1-13-1.48-23.02-7.04-29.76-16.54-14.46-20.4-7.81-51.76-7.74-52.08,4.04-17.64,10.72-36.49,15.6-50.26,2.74-7.71,5.09-14.37,6.11-18.3,.48-1.9,1.14-3.93,1.82-6.07,2.16-6.71,4.84-15.08,3.78-24.06-.75-6.44-5.75-13.57-12.7-18.17-12.67-8.36-49.78-40.44-69.16-87.86-5.09-12.45-8-29.11-10.12-41.28-.94-5.35-1.75-9.97-2.44-12.5-2.54-9.15-5.45-9.43-18.79-9.27h-.46c-12.08,.14-19.37,.23-22.47,18.8-3.8,22.77-19.39,170.76-20.12,177.73-.1,3.95-1.67,41.18-26.2,48.98-6.67,2.12-13.12,3.15-19.17,3.15-18.03,0-32.44-9.12-38.28-25.44-2.56-7.15-10.62-29.41-19.35-53.48l36.27-13.56Z"/><path class="cls-7" d="M346.31,148.62c23.74,0,40,10.9,45.06,21.03,.45,.9,.91,1.76,1.35,2.59l.04,.08c3.28,6.12,7.01,13.05,10.14,37.29,3.77,29.26,15.73,52.23,39.99,76.81,2.01,2.03,5.51,5.09,9.57,8.63l.17,.14c17.62,15.37,33.69,30.14,36.72,41.86,4.49,17.4,4.92,32.78,1.32,47.03-.94,3.7-4.44,12.62-8.5,22.95-6.32,16.1-14.97,38.15-16.05,46.24-1.56,11.78-1.14,25.9,3.33,30.87,1.09,1.22,2.35,1.79,3.97,1.79,.06,0,.13,0,.18,0,50.43-1.14,69.48-11.93,86.05-23.83,29.84-21.45,38.49-32.12,45.45-40.7,.94-1.16,1.85-2.28,2.78-3.4,12.89-15.44,16.89-22.85,24.26-38.58,5.06-10.78,29.33-71.33,45.39-111.39l.46-1.15c6.96-17.37,12.4-30.93,13.86-34.43,.71-1.69,1.37-3.41,2.07-5.24l.05-.13c3.62-9.37,7.73-20,19.55-31.8,9.09-9.1,21.03-13.91,34.53-13.91,34.66,0,77.84,.08,86.74,.49,12.02,.55,22.5,2.05,34.54,7.61,13.68,6.31,20.55,20.19,25.57,30.33l.11,.22c1.34,2.69,2.6,5.24,3.82,7.29l.68,1.14c.79,1.32,1.84,3.07,3.09,5.14,15.98,26.6,31.14,52.17,33.81,59.05l.79,2.03c3.63,9.24,8.6,21.89,7.82,32.5-.93,12.69-3.19,18.75-6.55,24.43-7.06,11.93-106.84,131.78-118.19,145.4l-.06,.07-.05,.07c-.46,.67-4.5,6.77-3.84,14.24,.67,7.47,4.09,12.71,8.15,18.3,.99,1.4,132.38,195.45,137.61,204.21,7,11.7,13.07,38.8,7.11,52.24-11.48,25.88-30.78,39.99-55.8,40.8-42.25,1.36-417.85,1.43-431.15,1.44v-34.19l429.17-1.55h.11c1.53-.09,15.14-1.23,22.89-13.95,4.15-6.8,3.32-16.38-2.27-26.29-5.07-8.96-94.39-140.75-140.94-209.22l-.19-.3c-.58-1.03-8.5-15.4-7.99-31.16,.51-15.96,1.67-22.31,8.4-33.7,3.31-5.62,28.14-35.66,62.84-77.5l.05-.06c28.54-34.41,48.9-59.04,51-62.57,4.65-7.9,4.65-11.11,4.65-14.21v-.26c.01-2.39,.03-6.83-6.69-19.38-7.62-14.22-31.65-56.72-37.35-66.2l-1.38-2.31-1.01-1.7c-4-6.73-6.42-10.79-8.68-12.6-5.14-4.13-10.11-4.6-20.21-4.71-1.09-.01-2.43-.03-3.97-.05l-4.16-.05-2.12-.02c-13.28-.15-40.91-.47-58.65-.47-12.67,0-15.35,.16-16.26,.28-5.07,.66-8.98,2.1-13.97,7.47-5.66,6.1-7.2,10.31-9.76,17.29l-.3,.81c-3.91,10.65-53.81,136.58-60.29,149.04-1.21,2.32-2.37,4.72-3.6,7.25l-.1,.22c-5.3,10.93-11.31,23.32-23.94,37.17-1.79,1.96-3.55,3.94-5.26,5.85l-.98,1.1c-13.06,14.72-26.57,29.94-60.74,53.54-8.48,5.85-39.71,24.96-85.53,24.96-5.9,0-11.86-.33-17.7-.99-12.41-1.41-21.95-6.7-28.35-15.71-13.82-19.5-7.49-50.17-7.42-50.48,4.03-17.6,10.68-36.35,15.53-50.03,2.98-8.37,5.16-14.6,6.16-18.48,.44-1.73,1.04-3.61,1.67-5.59l.11-.36c2.22-6.89,4.98-15.47,3.86-24.9-.82-6.99-6.15-14.69-13.59-19.61-12.52-8.26-49.22-39.99-68.41-86.94-5.01-12.25-7.89-28.78-10-40.87-.94-5.39-1.75-10.04-2.48-12.69-2.59-9.35-6.17-10.76-17.14-10.76-1.11,0-2.31,.01-3.58,.03h-.49c-12.22,.15-21.04,.25-24.41,20.47-3.73,22.34-18.47,162-20.14,177.85v.16c-.11,4.05-1.64,39.75-24.82,47.13-6.38,2.03-12.62,3.06-18.56,3.06-17.65,0-30.91-8.79-36.39-24.11-3.7-10.34-19.39-53.62-45.38-125.17l-1.38-3.81-.17-.58c-.31-1.25-4.99-19.14-17.72-24.07-1.89-.73-3.88-1.09-6.1-1.09-4.88,0-10.14,1.75-16.24,3.79-2.49,.83-4.94,1.64-7.52,2.4-11.75,3.46-43.02,14.22-44.46,14.72l-.41,.13-.06,.02-.06,.02c-1.18,.44-5.14,2.37-6.76,8.85-2.17,8.69,.41,18.66,3.74,29.85,3.5,11.8,32.7,97.3,32.95,98.04,14.67,43.5,38.44,110.64,43.82,117.35,4.76,5.68,23.72,16.51,30.63,20.21l.03,.02,.03,.02c6.42,3.12,63.28,30.89,82.45,45.32,10.79,8.11,22.64,24.92,20.54,45.61l-.21,2.14c-1.25,12.82-2.67,27.35-22.07,40.96-10.08,7.06-38.04,22.62-58.46,33.98l-.06,.03-2.01,1.12c-.35,.2-.94,.52-1.74,.96-43.13,23.7-49.99,30.23-51.07,31.66-5.28,7.02-8.44,14.1-6.76,25.81,2.03,14.03,14.02,16.43,29.48,18.11l1.67,.18c3.74,.41,30.52,.62,79.59,.62,83.47,0,196.03-.58,209.47-.65l-.02,33.68H174.76c-.38,.02-1.2,.05-2.38,.05-5.19,0-15.55-.52-26.57-3.97-20.21-6.33-32.62-19.51-35.91-38.11-6.89-39.03,15.89-63.88,28.89-71.57,3.26-1.93,13.04-7.38,25.49-14.31l.92-.51c36.16-20.16,71.91-40.18,77.1-44.31,8.08-6.44,8.75-13.54,8.43-18.98l-.05-.9c-.34-6.9-1.44-14.63-10.21-19.1-1.93-.98-8.34-4.19-16.47-8.25l-1.14-.57c-15.18-7.58-43.43-21.69-56.61-28.46-14.91-7.65-38.8-22.61-42.7-30.41-2.81-5.63-11.2-27.33-12.31-30.25l-.04-.1L42.36,323.52l-.04-.16c-.93-3.56-8.91-35.21-3.01-51.2,6.5-17.65,10.97-22.76,25.23-28.78,13.96-5.9,58.65-20.66,60.51-21.28l.22-.07c.75-.21,11.94-3.25,23.79-3.25,6.79,0,12.46,.99,16.85,2.96l.77,.34,1.03,.45c11.09,4.87,27.86,12.24,38.18,44.19,10.24,31.71,44.61,127.32,44.94,128.23l.05,.14,.02,.06,.02,.06c.41,1.03,1.8,3.42,5.67,3.42,1,0,2.11-.16,3.32-.48l.88-.23,.4-.82c2.13-4.36,4.13-17.48,5.78-37.96,.14-1.78,.24-2.97,.3-3.53,.49-4.39,17.27-154.6,17.43-156.07l.02-.18c.08-.5,1.95-12.42,9.98-24.55,7.51-11.35,22.02-25.09,48.45-26.12,1.05-.04,2.1-.06,3.13-.06m0-2c-1.06,0-2.13,.02-3.21,.06-27.28,1.07-42.27,15.28-50.04,27.02-8.31,12.55-10.22,24.85-10.29,25.36l-.03,.21s-16.95,151.68-17.44,156.12c-.07,.62-.17,1.87-.31,3.6-2.17,26.94-4.44,34.89-5.58,37.23-1.1,.29-2.03,.41-2.81,.41-2.46,0-3.44-1.22-3.82-2.17l-.05-.14c-.35-.96-34.74-96.65-44.93-128.21-10.59-32.8-27.86-40.39-39.28-45.4-.61-.27-1.21-.53-1.79-.79-5.24-2.34-11.54-3.13-17.66-3.13-12.19,0-23.64,3.13-24.35,3.33l-.25,.08c-1.9,.63-46.63,15.4-60.7,21.35-14.74,6.23-19.66,11.83-26.32,29.93-6.13,16.63,2.01,48.78,2.95,52.4l.06,.23,68.87,195.11,.06,.14c.38,.99,9.33,24.31,12.38,30.4,4.54,9.08,31.32,25,43.58,31.29,12.84,6.59,39.19,19.75,56.63,28.47,8.71,4.35,15.59,7.78,17.59,8.81,7.8,3.98,8.79,10.79,9.12,17.42l.05,.91c.31,5.3-.38,11.49-7.68,17.31-5.56,4.43-50.74,29.59-77.74,44.64-12.42,6.92-22.23,12.39-25.53,14.33-13.42,7.93-36.92,33.52-29.84,73.64,3.42,19.38,16.31,33.1,37.28,39.67,11.48,3.6,22.31,4.06,27.16,4.06,1.25,0,2.11-.03,2.47-.05H466.66v-37.69h-1.83c-47.17,.26-141.46,.66-209.63,.66-42.77,0-75.26-.16-79.37-.61l-1.67-.18c-15.08-1.64-25.89-3.77-27.72-16.41-1.59-11.04,1.25-17.5,6.38-24.32,.72-.96,6.55-6.99,50.43-31.11,.81-.44,1.41-.77,1.77-.97l2-1.11c20.48-11.39,48.52-26.99,58.7-34.12,20.14-14.13,21.62-29.15,22.91-42.4l.21-2.14c2.18-21.51-10.12-38.98-21.33-47.41-19.81-14.9-79.03-43.7-82.78-45.52-9.52-5.09-26.01-14.91-30.04-19.73-4.59-5.73-25.81-64.4-43.46-116.71-.3-.86-29.4-86.06-32.93-97.96-3.24-10.9-5.76-20.59-3.71-28.79,1.42-5.66,4.77-7.18,5.52-7.46l.44-.14c.33-.12,32.63-11.24,44.41-14.7,2.65-.78,5.16-1.61,7.59-2.42,5.97-1.99,11.05-3.68,15.61-3.68,1.87,0,3.66,.29,5.38,.95,12.17,4.71,16.48,22.56,16.51,22.73l.2,.68c.41,1.12,40.46,111.33,46.78,129.02,5.84,16.32,20.25,25.44,38.28,25.44,6.05,0,12.5-1.03,19.17-3.15,24.53-7.8,26.1-45.03,26.2-48.98,.73-6.96,16.32-154.95,20.12-177.73,3.1-18.57,10.39-18.66,22.47-18.8h.46c1.29-.02,2.48-.03,3.58-.03,10.32,0,12.92,1.03,15.21,9.3,.69,2.53,1.5,7.15,2.44,12.5,2.12,12.17,5.03,28.83,10.12,41.28,19.38,47.42,56.49,79.49,69.16,87.86,6.95,4.6,11.95,11.73,12.7,18.17,1.06,8.98-1.62,17.34-3.78,24.06-.69,2.14-1.34,4.17-1.82,6.07-1.01,3.93-3.37,10.59-6.11,18.3-4.88,13.76-11.56,32.61-15.6,50.26-.08,.32-6.72,31.68,7.74,52.08,6.74,9.5,16.76,15.07,29.76,16.54,6.09,.69,12.07,1,17.92,1,36.48,0,67.95-12.39,86.67-25.31,34.35-23.72,47.95-39.04,61.1-53.85,2.06-2.31,4.11-4.62,6.22-6.94,12.83-14.07,18.91-26.6,24.27-37.66,1.26-2.6,2.45-5.05,3.68-7.41,6.55-12.6,56.49-138.63,60.39-149.27l.3-.81c2.56-6.97,3.96-10.81,9.35-16.62,4.6-4.96,8.04-6.23,12.76-6.85,1.47-.19,7.64-.26,16.01-.26,18.73,0,48.44,.35,60.75,.49,3.38,.04,6.16,.08,8.14,.1,9.83,.11,14.3,.52,18.97,4.27,1.98,1.58,4.46,5.75,8.21,12.06,.74,1.24,1.53,2.58,2.39,4.01,5.71,9.51,29.72,51.97,37.3,66.12,6.47,12.09,6.46,16.21,6.45,18.42v.27c0,2.96,0,5.77-4.37,13.2-2.18,3.66-28.05,34.85-50.87,62.37-35.88,43.25-59.65,72.04-63.03,77.76-6.95,11.76-8.16,18.3-8.68,34.65-.54,16.73,7.92,31.63,8.28,32.26l.23,.37c46.55,68.48,135.89,200.31,140.87,209.11,5.23,9.25,6.07,18.1,2.31,24.26-7.31,12.01-20.29,12.94-21.3,12.99l-431.16,1.55v38.18h1.66c3.88,0,388.58-.06,431.54-1.44,25.85-.84,45.75-15.36,57.57-41.99,6.42-14.49-.09-42.14-7.22-54.08-5.29-8.85-136.83-203.15-137.71-204.35-3.89-5.35-7.16-10.34-7.78-17.31-.6-6.7,3.02-12.24,3.49-12.93,12-14.4,111.23-133.59,118.38-145.66,3.5-5.92,5.86-12.22,6.82-25.3,.81-11.03-4.25-23.95-7.96-33.38l-.79-2.03c-2.74-7.04-17.94-32.68-33.96-59.35-1.66-2.75-2.96-4.93-3.77-6.28-1.21-2.04-2.49-4.63-3.85-7.37-5.15-10.4-12.21-24.65-26.53-31.25-12.35-5.7-23.03-7.23-35.29-7.79-9.54-.43-58.5-.49-86.83-.49-14.03,0-26.46,5.01-35.94,14.5-12.12,12.11-16.3,22.94-20,32.5-.71,1.85-1.39,3.61-2.1,5.31-1.46,3.49-6.94,17.15-13.87,34.46-16.21,40.46-40.72,101.6-45.8,112.43-7.3,15.59-11.27,22.91-23.99,38.15-.94,1.13-1.85,2.26-2.8,3.42-6.88,8.48-15.43,19.03-45.07,40.33-16.3,11.72-35.06,22.33-84.92,23.46-.05,0-.09,0-.14,0-1.07,0-1.77-.33-2.48-1.12-3.44-3.84-4.61-15.88-2.84-29.28,1.04-7.84,9.65-29.77,15.93-45.77,4.25-10.83,7.61-19.39,8.58-23.19,3.68-14.58,3.25-30.29-1.32-48.02-3.16-12.26-19.47-27.28-37.34-42.87-4.1-3.58-7.64-6.67-9.63-8.67-23.92-24.24-35.71-46.87-39.42-75.65-3.17-24.56-6.98-31.69-10.36-37.98-.46-.87-.92-1.72-1.37-2.62-5.44-10.89-22.29-22.13-46.85-22.13h0Z"/><g id="Start_Line"><polygon points="470.53 766.94 470.53 786.4 470.53 792.36 470.53 793.24 470.52 829.89 470.52 830.35 476.42 830.35 476.42 829.97 476.42 793.3 476.42 792.14 476.43 786.48 476.43 766.94 470.53 766.94"/><polygon points="452.66 778.35 463.67 789.36 466.38 786.66 458.08 778.34 466.39 770.04 463.68 767.33 452.66 778.35"/><polygon points="437.04 778.29 448.05 789.31 450.76 786.59 442.45 778.29 450.77 769.99 448.05 767.28 437.04 778.29"/><polygon points="421.42 778.24 432.43 789.25 435.14 786.54 426.84 778.23 435.14 769.94 432.43 767.22 421.42 778.24"/></g><polygon points="476.44 766.94 476.43 786.48 476.43 793.3 476.42 829.97 476.42 830.35 476.14 830.35 470.52 830.34 470.52 830.26 470.51 829.89 470.53 793.23 470.53 766.94 476.44 766.94"/><path d="M420.83,814.28c-2.19-.03-215.24-3.14-250.78-2.28-16.17,.41-28.26-4.37-35.91-14.17-9.97-12.77-9.67-31.29-6.07-44.37,6.14-22.25,24.13-30.52,43.18-39.28,6.57-3.02,13.37-6.15,19.72-9.91,6.27-3.71,13.34-7.68,20.82-11.88,22.43-12.57,50.34-28.22,52.26-35.89,10.42-41.7-14.77-53.21-15.85-53.68l-.15-.08-104-56c-6.88-4.15-11.16-15.82-11.94-18.11L61.14,325.74c-.97-2.18-14.09-32.25-6-52.48,7.67-19.16,34.2-27.29,70.86-36.69,.26-.07,.51-.12,.77-.18,.31-.06,.61-.12,.9-.22,28.21-9.54,49.35,1.85,61.13,32.95,12.4,32.72,41.66,110.17,45.61,122.79,4.88,15.63,6.9,22.1,23.59,22.1,13.95,0,18.04-10.45,19.01-19.22,.98-8.84,17.06-140.44,18-148.03,.66-5.28,1.09-10.83,1.55-16.7,2.29-29.31,4.89-62.53,38.22-66.04,41.43-4.36,46.65,16.49,49.15,26.5,.72,2.89,1.18,6.06,1.72,9.73,1.7,11.72,4.28,29.44,19.14,59.88,8.7,17.81,37.56,44.68,54.81,60.73,3.3,3.07,6.14,5.72,8.46,7.93,10.05,9.63,13.04,23.98,8.89,42.64-.57,2.56-2.78,9.38-5.84,18.83-6.52,20.11-16.38,50.5-19.14,67.07-4.05,24.27,.31,32.7,9.19,39.04,5.96,4.26,25.73,5.81,56.45-.33,35.15-7.03,99.46-54.99,116.63-86.98,21.62-40.3,63.49-144.5,70.86-167.66,6.83-21.48,14.53-36.64,29.88-40.82,6.4-1.74,99.39-11.12,128.92,3.64,10.24,5.12,48.37,74.6,52.83,82.78,23.41,37.7,8.52,58.35,7.87,59.21-1.06,1.28-100.18,121.24-113.01,138.01-16.77,21.93-5.67,42.72-4.88,44.13,2.21,3.39,91.54,140.37,122.92,184.5,.97,1.37,2.08,2.88,3.27,4.52,10.41,14.27,27.83,38.16,24.06,56.05-8.34,39.61-42.93,38.69-45,38.59l-418.95,2-.02-4,419.07-2h.07c1.35,.09,33.08,1.75,40.91-35.41,3.4-16.15-13.36-39.14-23.38-52.87-1.2-1.65-2.32-3.18-3.3-4.55-31.66-44.52-122.14-183.29-123.05-184.68l-.06-.1c-.14-.24-13.5-24.2,5.15-48.59,12.77-16.7,110.45-134.92,113-138.01,.6-.86,13.4-20.12-8.11-54.72l-.06-.1c-16.76-30.73-44.21-77.71-51.14-81.17-28.03-14.01-120.01-5.01-126.08-3.36-13.61,3.71-20.68,17.95-27.12,38.18-7.4,23.26-49.43,127.88-71.14,168.34-17.57,32.74-83.39,81.82-119.37,89.02-28.47,5.7-51.29,5.57-59.55-.33-11.71-8.36-14.64-20-10.81-42.96,2.81-16.86,12.72-47.42,19.28-67.65,2.91-8.98,5.21-16.08,5.74-18.46,3.82-17.21,1.21-30.29-7.76-38.89-2.29-2.2-5.13-4.84-8.41-7.89-17.45-16.24-46.65-43.42-55.67-61.91-15.14-31-17.77-49.09-19.5-61.06-.52-3.57-.97-6.65-1.64-9.33-3.33-13.3-9.81-27.18-44.85-23.5-30.03,3.16-32.38,33.26-34.65,62.37-.46,5.92-.9,11.52-1.57,16.89-.95,7.58-17.01,139.14-18,147.97-1.63,14.69-9.8,22.78-22.99,22.78-19.63,0-22.39-8.85-27.41-24.9-3.91-12.52-33.14-89.89-45.53-122.57-11.05-29.15-29.92-39.43-56.11-30.57-.47,.16-.94,.26-1.35,.35-.2,.04-.41,.09-.61,.14-41.08,10.53-61.76,18.35-68.14,34.31-7.59,18.97,5.83,49.13,5.97,49.43l.06,.16,71,203c2.12,6.17,6.07,13.49,10.15,15.95l103.85,55.92c.92,.41,7.81,3.73,13.41,12.19,5.35,8.09,10.51,22.65,4.65,46.09-2.17,8.69-22.86,20.85-54.18,38.41-7.46,4.18-14.51,8.14-20.74,11.83-6.53,3.87-13.43,7.04-20.09,10.1-18.18,8.36-35.35,16.25-41,36.71-3.35,12.14-3.7,29.24,5.36,40.84,6.83,8.74,17.81,12.98,32.66,12.63,35.62-.87,248.74,2.25,250.89,2.28l31.47-.25,.03,4-31.52,.25Z"/><g><circle class="cls-5" cx="928" cy="714" r="10"/><path d="M928,725c-6.07,0-11-4.93-11-11s4.93-11,11-11,11,4.93,11,11-4.93,11-11,11Zm0-20c-4.96,0-9,4.04-9,9s4.04,9,9,9,9-4.04,9-9-4.04-9-9-9Z"/></g><path class="cls-5" d="M174.51,850l-.02-9h3.1l.02,8.99h-3.1Zm6.12,0l-.02-9h3.02l.02,8.99h-3.01Zm6.03,0l-.02-9h3.01v9h-3Zm6.02,0l-.02-9h3.01v9h-2.99Zm6.01,0l-.02-9h3.01v9h-2.99Zm6.01,0l-.02-9h3.01v9h-2.99Zm6.01,0l-.02-9h3.01v9h-2.99Zm6.01,0l-.02-9h3.01v9h-2.99Zm6.01,0l-.02-9h3.01v9h-2.99Zm6.01,0l-.02-9h3.01v9h-2.99Zm6.01,0l-.02-9h3.01v9h-2.99Zm6,0l-.02-9h3.01v9h-2.99Zm6,0l-.02-9h3.01v9h-2.99Zm6,0l-.02-9h3.01v9h-2.99Zm6,0l-.02-9h3.01v9h-2.99Zm6,0l-.02-9h3.01v9h-2.99Zm6,0l-.02-9h3.01v9h-2.99Zm6,0l-.02-9h3.01v9h-2.99Zm6,0l-.02-9h3.01v9h-2.99Zm6,0l-.02-9h3.01v9h-2.99Zm6,0l-.02-9h3.01v9h-2.99Zm6,0l-.02-9h3.01v9h-2.99Zm6,0l-.02-9h3.01v9h-2.99Zm6,0l-.02-9h3.01v9h-2.99Zm6,0l-.02-9h3.01v9h-2.99Zm6,0l-.02-9h3.01v9h-2.99Zm6,0l-.02-9h3.01v9h-2.99Zm6,0l-.02-9h3.01v9h-2.99Zm6,0l-.02-9h3.01v9h-2.99Zm6,0l-.02-9h3.01v9h-2.99Zm6,0l-.02-9h3.01v9h-2.99Zm6,0l-.02-9h3.01v9h-2.99Zm6,0l-.02-9h3.01v9h-2.99Zm6,0l-.02-9h3.01v9h-2.99Zm6,0l-.02-9h3.01v9h-2.99Zm6,0l-.02-9h3.01v9h-2.99Zm6,0l-.02-9h3.01v9h-2.99Zm6,0l-.02-9h3.01v9h-2.99Zm6,0l-.02-9h3.01v9h-2.99Zm6,0l-.02-9h3.01v9h-2.99Zm6,0l-.02-9h3.01v9h-2.99Zm6,0l-.02-9h3.01v9h-2.99Zm6,0l-.02-9h3.01v9h-2.99Zm6,0l-.02-9h3.01v9h-2.99Zm6,0l-.02-9h3.01v9h-2.99Zm6,0l-.02-9h3.01v9h-2.99Zm6,0l-.02-9h3.01v9h-2.99Zm6,0l-.02-9h2.99v9h-2.97Zm5.98,0l-.02-9h3v9h-2.98Zm5.99,0l-.02-9h3v9h-2.98Zm5.99,0l-.02-9h3v9h-2.99Zm6,0l-.02-9h3.01v9h-2.99Zm6.01,0l-.02-9h3.01v9h-2.99Zm6.02,0l-.02-9h3.02v9h-3Zm6.03,0l-.02-9h3.01v9h-2.99Zm6,0l-.02-9h3.01v9h-2.99Zm6,0l-.02-9h3.01v9h-2.99Zm6,0l-.02-9h3.01v9h-2.99Zm6,0l-.02-9h3.01v9h-2.99Zm6,0l-.02-9h3.01v9h-2.99Zm6,0l-.02-9h3.01v9h-2.99Zm6,0l-.02-9h3v9h-2.98Zm6,0l-.02-9h3v9h-2.98Zm6,0l-.02-9h3v9h-2.98Zm6,0l-.02-9h3v9h-2.98Zm6,0l-.02-9h3v9h-2.98Zm6,0l-.02-9h3v9h-2.98Zm6,0l-.02-9h3v9h-2.98Zm6,0l-.02-9h3v9h-2.98Zm6,0l-.02-9h3v9h-2.98Zm6,0l-.02-9h3v9h-2.98Zm6,0l-.02-9h3v9h-2.98Zm6.01,0l-.02-9h3v9h-2.98Zm6,0l-.02-9h3v9h-2.98Zm6,0l-.02-9h3v9h-2.98Zm6,0l-.02-9h3v9h-2.98Zm6.01,0l-.02-4.5v-4.5h3v9h-2.98Zm6,0l-.02-4.5v-4.5h3v9h-2.98Zm6,0l-.02-4.5v-4.5h3v9h-2.98Zm6,0l-.02-4.5v-4.5h3v9h-2.98Zm6.01,0l-.02-4.5v-4.5h3v9h-2.97Zm6,0l-.02-4.5v-4.5h3v9h-2.97Zm6,0l-.02-4.5v-4.5h3v9h-2.97Zm5.98,0v-9h2.99l.02,9h-3.01Zm6,0v-9h2.99l.02,9h-3.01Zm6,0v-9h2.99l.02,9h-3.01Zm6,0v-9h2.99l.02,9h-3.01Zm6,0v-9h2.99l.02,9h-3.01Zm6,0v-9h2.99l.02,9h-3.01Zm6,0v-9h2.99l.02,9h-3.01Zm6,0v-9h2.99l.02,9h-3.01Zm6,0v-9h2.99l.02,9h-3.01Zm6,0v-9h2.99l.02,9h-3.01Zm6,0v-9h2.99l.02,9h-3.01Zm6,0v-9h2.99l.02,9h-3.01Zm6,0v-9h2.99l.02,9h-3.01Zm6,0v-9h2.99l.02,9h-3.01Zm6,0v-9h2.99l.02,9h-3.01Zm6,0v-9h2.99l.02,9h-3.01Zm6,0v-9h2.99l.02,9h-3.01Zm6.01,0v-9h2.99v9h-2.99Zm6.01,0v-9h2.99v9h-2.99Zm6.01,0v-9h2.99v9h-2.99Zm6.01,0v-9h2.99v9h-2.99Zm6.01,0v-9h3v9h-3Zm6.08,0l-.07-4.5,.06-4.5h2.94v9h-2.93Zm6.03,0l-.09-4.5,.08-4.5h2.92v9h-2.91Zm5.92,0v-9h3v9h-3Zm6.49,0h-.48v-9h.48v9Z"/><g id="_"><g><path d="M97.31,793.83c-6,0-10.88-4.88-10.88-10.88s4.88-10.88,10.88-10.88,10.88,4.88,10.88,10.88-4.88,10.88-10.88,10.88Z"/><path d="M97.31,773.08c5.46,0,9.88,4.42,9.88,9.88s-4.42,9.88-9.88,9.88-9.88-4.42-9.88-9.88,4.42-9.88,9.88-9.88m0-2c-6.55,0-11.88,5.33-11.88,11.88s5.33,11.88,11.88,11.88,11.88-5.33,11.88-11.88-5.33-11.88-11.88-11.88h0Z"/></g><text class="cls-2" transform="translate(89.57 786.86)"><tspan x="0" y="0">01</tspan></text></g><g id="_-2"><g><path d="M299.31,651.83c-6,0-10.88-4.88-10.88-10.88s4.88-10.88,10.88-10.88,10.88,4.88,10.88,10.88-4.88,10.88-10.88,10.88Z"/><path d="M299.31,631.08c5.46,0,9.88,4.42,9.88,9.88s-4.42,9.88-9.88,9.88-9.88-4.42-9.88-9.88,4.42-9.88,9.88-9.88m0-2c-6.55,0-11.88,5.33-11.88,11.88s5.33,11.88,11.88,11.88,11.88-5.33,11.88-11.88-5.33-11.88-11.88-11.88h0Z"/></g><text class="cls-2" transform="translate(291.57 644.86)"><tspan x="0" y="0">02</tspan></text></g><g id="_-3"><g><path d="M122.31,575.83c-6,0-10.88-4.88-10.88-10.88s4.88-10.88,10.88-10.88,10.88,4.88,10.88,10.88-4.88,10.88-10.88,10.88Z"/><path d="M122.31,555.08c5.46,0,9.88,4.42,9.88,9.88s-4.42,9.88-9.88,9.88-9.88-4.42-9.88-9.88,4.42-9.88,9.88-9.88m0-2c-6.55,0-11.88,5.33-11.88,11.88s5.33,11.88,11.88,11.88,11.88-5.33,11.88-11.88-5.33-11.88-11.88-11.88h0Z"/></g><text class="cls-2" transform="translate(114.57 568.86)"><tspan x="0" y="0">03</tspan></text></g><g id="_-4"><g><path d="M26.31,284.83c-6,0-10.88-4.88-10.88-10.88s4.88-10.88,10.88-10.88,10.88,4.88,10.88,10.88-4.88,10.88-10.88,10.88Z"/><path d="M26.31,264.08c5.46,0,9.88,4.42,9.88,9.88s-4.42,9.88-9.88,9.88-9.88-4.42-9.88-9.88,4.42-9.88,9.88-9.88m0-2c-6.55,0-11.88,5.33-11.88,11.88s5.33,11.88,11.88,11.88,11.88-5.33,11.88-11.88-5.33-11.88-11.88-11.88h0Z"/></g><text class="cls-2" transform="translate(18.57 277.86)"><tspan x="0" y="0">04</tspan></text></g><g id="_-5"><g><path d="M172.31,222.83c-6,0-10.88-4.88-10.88-10.88s4.88-10.88,10.88-10.88,10.88,4.88,10.88,10.88-4.88,10.88-10.88,10.88Z"/><path d="M172.31,202.08c5.46,0,9.88,4.42,9.88,9.88s-4.42,9.88-9.88,9.88-9.88-4.42-9.88-9.88,4.42-9.88,9.88-9.88m0-2c-6.55,0-11.88,5.33-11.88,11.88s5.33,11.88,11.88,11.88,11.88-5.33,11.88-11.88-5.33-11.88-11.88-11.88h0Z"/></g><text class="cls-2" transform="translate(164.57 215.86)"><tspan x="0" y="0">05</tspan></text></g><g id="_-6"><g><path d="M262.31,454.83c-6,0-10.88-4.88-10.88-10.88s4.88-10.88,10.88-10.88,10.88,4.88,10.88,10.88-4.88,10.88-10.88,10.88Z"/><path d="M262.31,434.08c5.46,0,9.88,4.42,9.88,9.88s-4.42,9.88-9.88,9.88-9.88-4.42-9.88-9.88,4.42-9.88,9.88-9.88m0-2c-6.55,0-11.88,5.33-11.88,11.88s5.33,11.88,11.88,11.88,11.88-5.33,11.88-11.88-5.33-11.88-11.88-11.88h0Z"/></g><text class="cls-2" transform="translate(254.57 447.86)"><tspan x="0" y="0">06</tspan></text></g><g id="_-7"><g><path d="M347.31,146.83c-6,0-10.88-4.88-10.88-10.88s4.88-10.88,10.88-10.88,10.88,4.88,10.88,10.88-4.88,10.88-10.88,10.88Z"/><path d="M347.31,126.08c5.46,0,9.88,4.42,9.88,9.88s-4.42,9.88-9.88,9.88-9.88-4.42-9.88-9.88,4.42-9.88,9.88-9.88m0-2c-6.55,0-11.88,5.33-11.88,11.88s5.33,11.88,11.88,11.88,11.88-5.33,11.88-11.88-5.33-11.88-11.88-11.88h0Z"/></g><text class="cls-2" transform="translate(339.57 139.86)"><tspan x="0" y="0">07</tspan></text></g><g id="_-8"><g><path d="M386.31,301.83c-6,0-10.88-4.88-10.88-10.88s4.88-10.88,10.88-10.88,10.88,4.88,10.88,10.88-4.88,10.88-10.88,10.88Z"/><path d="M386.31,281.08c5.46,0,9.88,4.42,9.88,9.88s-4.42,9.88-9.88,9.88-9.88-4.42-9.88-9.88,4.42-9.88,9.88-9.88m0-2c-6.55,0-11.88,5.33-11.88,11.88s5.33,11.88,11.88,11.88,11.88-5.33,11.88-11.88-5.33-11.88-11.88-11.88h0Z"/></g><text class="cls-2" transform="translate(378.57 294.86)"><tspan x="0" y="0">08</tspan></text></g><g id="_-9"><g><path d="M503.31,351.83c-6,0-10.88-4.88-10.88-10.88s4.88-10.88,10.88-10.88,10.88,4.88,10.88,10.88-4.88,10.88-10.88,10.88Z"/><path d="M503.31,331.08c5.46,0,9.88,4.42,9.88,9.88s-4.42,9.88-9.88,9.88-9.88-4.42-9.88-9.88,4.42-9.88,9.88-9.88m0-2c-6.55,0-11.88,5.33-11.88,11.88s5.33,11.88,11.88,11.88,11.88-5.33,11.88-11.88-5.33-11.88-11.88-11.88h0Z"/></g><text class="cls-2" transform="translate(495.57 344.86)"><tspan x="0" y="0">09</tspan></text></g><g id="_-10"><g><path d="M443.31,535.83c-6,0-10.88-4.88-10.88-10.88s4.88-10.88,10.88-10.88,10.88,4.88,10.88,10.88-4.88,10.88-10.88,10.88Z"/><path d="M443.31,515.08c5.46,0,9.88,4.42,9.88,9.88s-4.42,9.88-9.88,9.88-9.88-4.42-9.88-9.88,4.42-9.88,9.88-9.88m0-2c-6.55,0-11.88,5.33-11.88,11.88s5.33,11.88,11.88,11.88,11.88-5.33,11.88-11.88-5.33-11.88-11.88-11.88h0Z"/></g><text class="cls-2" transform="translate(435.57 528.86)"><tspan x="0" y="0">10</tspan></text></g><g id="_-11"><g><path d="M592.31,505.83c-6,0-10.88-4.88-10.88-10.88s4.88-10.88,10.88-10.88,10.88,4.88,10.88,10.88-4.88,10.88-10.88,10.88Z"/><path d="M592.31,485.08c5.46,0,9.88,4.42,9.88,9.88s-4.42,9.88-9.88,9.88-9.88-4.42-9.88-9.88,4.42-9.88,9.88-9.88m0-2c-6.55,0-11.88,5.33-11.88,11.88s5.33,11.88,11.88,11.88,11.88-5.33,11.88-11.88-5.33-11.88-11.88-11.88h0Z"/></g><text class="cls-2" transform="translate(584.57 498.86)"><tspan x="0" y="0">11</tspan></text></g><g id="_-12"><g><path d="M716.31,188.83c-6,0-10.88-4.88-10.88-10.88s4.88-10.88,10.88-10.88,10.88,4.88,10.88,10.88-4.88,10.88-10.88,10.88Z"/><path d="M716.31,168.08c5.46,0,9.88,4.42,9.88,9.88s-4.42,9.88-9.88,9.88-9.88-4.42-9.88-9.88,4.42-9.88,9.88-9.88m0-2c-6.55,0-11.88,5.33-11.88,11.88s5.33,11.88,11.88,11.88,11.88-5.33,11.88-11.88-5.33-11.88-11.88-11.88h0Z"/></g><text class="cls-2" transform="translate(708.57 181.86)"><tspan x="0" y="0">12</tspan></text></g><g id="_-13"><g><path d="M870.31,187.83c-6,0-10.88-4.88-10.88-10.88s4.88-10.88,10.88-10.88,10.88,4.88,10.88,10.88-4.88,10.88-10.88,10.88Z"/><path d="M870.31,167.08c5.46,0,9.88,4.42,9.88,9.88s-4.42,9.88-9.88,9.88-9.88-4.42-9.88-9.88,4.42-9.88,9.88-9.88m0-2c-6.55,0-11.88,5.33-11.88,11.88s5.33,11.88,11.88,11.88,11.88-5.33,11.88-11.88-5.33-11.88-11.88-11.88h0Z"/></g><text class="cls-2" transform="translate(862.57 180.86)"><tspan x="0" y="0">13</tspan></text></g><g id="_-14"><g><path d="M957.31,338.83c-6,0-10.88-4.88-10.88-10.88s4.88-10.88,10.88-10.88,10.88,4.88,10.88,10.88-4.88,10.88-10.88,10.88Z"/><path d="M957.31,318.08c5.46,0,9.88,4.42,9.88,9.88s-4.42,9.88-9.88,9.88-9.88-4.42-9.88-9.88,4.42-9.88,9.88-9.88m0-2c-6.55,0-11.88,5.33-11.88,11.88s5.33,11.88,11.88,11.88,11.88-5.33,11.88-11.88-5.33-11.88-11.88-11.88h0Z"/></g><text class="cls-2" transform="translate(949.57 331.86)"><tspan x="0" y="0">14</tspan></text></g><g id="_-15"><g><path d="M771.31,524.83c-6,0-10.88-4.88-10.88-10.88s4.88-10.88,10.88-10.88,10.88,4.88,10.88,10.88-4.88,10.88-10.88,10.88Z"/><path d="M771.31,504.08c5.46,0,9.88,4.42,9.88,9.88s-4.42,9.88-9.88,9.88-9.88-4.42-9.88-9.88,4.42-9.88,9.88-9.88m0-2c-6.55,0-11.88,5.33-11.88,11.88s5.33,11.88,11.88,11.88,11.88-5.33,11.88-11.88-5.33-11.88-11.88-11.88h0Z"/></g><text class="cls-2" transform="translate(763.57 517.86)"><tspan x="0" y="0">15</tspan></text></g><g id="Legend"><circle cx="53.81" cy="133.39" r="13"/><g><path d="M78.32,132.57v-2.36h8.94v2.36h-8.94Zm0,4.02v-2.38h8.94v2.38h-8.94Z"/><path d="M99.81,139.74h-3.47v-10.02h-3.14v-2.84h9.75v2.84h-3.13v10.02Z"/><path d="M115.71,126.88v7.74c0,1.08-.21,2.02-.62,2.81-.41,.79-1.03,1.41-1.85,1.84-.82,.43-1.85,.65-3.09,.65-1.77,0-3.12-.45-4.06-1.36-.93-.91-1.4-2.19-1.4-3.85v-7.82h3.49v7.55c0,.91,.17,1.57,.51,1.98,.34,.41,.84,.62,1.5,.62,.47,0,.86-.09,1.16-.27s.52-.46,.66-.85c.14-.39,.21-.89,.21-1.5v-7.53h3.47Z"/><path d="M122.63,126.88c1.17,0,2.14,.14,2.91,.43,.77,.28,1.36,.71,1.75,1.27,.39,.56,.58,1.26,.58,2.1,0,.52-.09,1-.26,1.43s-.43,.81-.75,1.15c-.33,.34-.71,.63-1.17,.88l3.75,5.6h-3.94l-2.73-4.68h-.88v4.68h-3.47v-12.86h4.21Zm-.05,2.63h-.69v2.94h.65c.53,0,.97-.12,1.31-.35,.34-.23,.51-.65,.51-1.26,0-.42-.14-.74-.42-.98s-.74-.35-1.36-.35Z"/><path d="M142.85,139.74h-4.56l-4.7-9.06h-.08c.03,.28,.06,.61,.08,.99s.04,.78,.06,1.18,.03,.76,.03,1.09v5.8h-3.08v-12.86h4.54l4.68,8.94h.05c-.02-.28-.04-.61-.05-.98-.02-.37-.03-.75-.05-1.13-.01-.38-.02-.72-.02-1.01v-5.81h3.1v12.86Z"/><path d="M162.55,139.74h-4.56l-4.7-9.06h-.08c.03,.28,.06,.61,.08,.99s.04,.78,.06,1.18,.03,.76,.03,1.09v5.8h-3.08v-12.86h4.54l4.68,8.94h.05c-.02-.28-.04-.61-.05-.98-.02-.37-.03-.75-.05-1.13-.01-.38-.02-.72-.02-1.01v-5.81h3.1v12.86Z"/><path d="M176.27,126.88v7.74c0,1.08-.21,2.02-.62,2.81-.41,.79-1.03,1.41-1.85,1.84-.82,.43-1.85,.65-3.09,.65-1.77,0-3.12-.45-4.06-1.36-.93-.91-1.4-2.19-1.4-3.85v-7.82h3.49v7.55c0,.91,.17,1.57,.51,1.98,.34,.41,.84,.62,1.5,.62,.47,0,.86-.09,1.16-.27s.52-.46,.66-.85c.14-.39,.21-.89,.21-1.5v-7.53h3.47Z"/><path d="M184.57,139.74l-2.63-9.26h-.08c.02,.24,.05,.57,.07,.98,.03,.41,.05,.85,.08,1.33s.04,.93,.04,1.37v5.59h-3.08v-12.86h4.63l2.68,9.13h.07l2.63-9.13h4.64v12.86h-3.19v-5.64c0-.4,0-.84,.02-1.31s.03-.91,.05-1.32c.02-.41,.04-.74,.06-.98h-.08l-2.59,9.25h-3.31Z"/><path d="M196.39,126.88h4.49c1.86,0,3.18,.28,3.98,.83,.79,.55,1.19,1.34,1.19,2.38,0,.56-.1,1.04-.3,1.43-.2,.39-.46,.7-.77,.93-.31,.23-.62,.38-.95,.47v.09c.35,.09,.7,.23,1.05,.44s.64,.5,.87,.91c.23,.4,.35,.95,.35,1.63,0,.78-.2,1.45-.59,2.01-.4,.56-.96,1-1.69,1.3-.73,.3-1.6,.45-2.61,.45h-5.01v-12.86Zm3.47,4.93h1.05c.58,0,.98-.12,1.21-.36,.23-.24,.35-.53,.35-.87s-.13-.62-.4-.8c-.27-.19-.68-.28-1.24-.28h-.98v2.3Zm0,2.54v2.7h1.22c.6,0,1.03-.13,1.27-.39,.24-.26,.36-.59,.36-.98,0-.23-.05-.44-.15-.65-.1-.2-.28-.37-.52-.49s-.59-.19-1.02-.19h-1.15Z"/><path d="M216.16,139.74h-7.64v-12.86h7.64v2.79h-4.16v2.02h3.85v2.79h-3.85v2.43h4.16v2.83Z"/><path d="M222.63,126.88c1.17,0,2.14,.14,2.91,.43,.77,.28,1.36,.71,1.75,1.27,.39,.56,.58,1.26,.58,2.1,0,.52-.09,1-.26,1.43s-.43,.81-.75,1.15c-.33,.34-.71,.63-1.17,.88l3.75,5.6h-3.94l-2.73-4.68h-.88v4.68h-3.47v-12.86h4.21Zm-.05,2.63h-.69v2.94h.65c.53,0,.97-.12,1.31-.35,.34-.23,.51-.65,.51-1.26,0-.42-.14-.74-.42-.98s-.74-.35-1.36-.35Z"/><path d="M239.02,135.83c0,.7-.18,1.36-.53,1.98s-.9,1.13-1.64,1.52c-.74,.39-1.7,.58-2.87,.58-.59,0-1.1-.03-1.54-.08-.44-.05-.85-.14-1.24-.26-.38-.12-.78-.28-1.19-.47v-3.1c.7,.35,1.4,.62,2.11,.8,.71,.18,1.35,.28,1.93,.28,.35,0,.63-.04,.85-.12,.22-.08,.38-.19,.49-.34,.11-.14,.16-.31,.16-.5,0-.22-.08-.41-.23-.57s-.4-.32-.74-.49c-.34-.17-.79-.38-1.35-.63-.47-.22-.9-.45-1.29-.69-.38-.23-.71-.5-.99-.81-.27-.3-.48-.66-.63-1.06-.15-.4-.22-.88-.22-1.43,0-.83,.2-1.52,.61-2.08,.41-.56,.98-.98,1.71-1.26,.73-.28,1.57-.42,2.53-.42,.84,0,1.59,.09,2.26,.28,.67,.19,1.27,.4,1.81,.64l-1.06,2.68c-.55-.25-1.09-.45-1.63-.6-.53-.15-1.03-.22-1.49-.22-.3,0-.54,.04-.73,.11-.19,.07-.33,.17-.42,.29s-.14,.26-.14,.42c0,.2,.08,.38,.23,.54,.16,.16,.42,.33,.78,.51,.37,.19,.87,.42,1.5,.72,.63,.28,1.16,.58,1.6,.91,.44,.33,.78,.72,1.01,1.17,.23,.45,.35,1.02,.35,1.68Z"/></g><g><circle class="cls-5" cx="53.81" cy="53.39" r="13"/><path d="M53.81,67.39c-7.72,0-14-6.28-14-14s6.28-14,14-14,14,6.28,14,14-6.28,14-14,14Zm0-26c-6.62,0-12,5.38-12,12s5.38,12,12,12,12-5.38,12-12-5.38-12-12-12Z"/></g><g><path d="M78.32,52.57v-2.36h8.94v2.36h-8.94Zm0,4.02v-2.38h8.94v2.38h-8.94Z"/><path d="M105.05,53.03c0,1.5-.28,2.74-.84,3.73-.56,.99-1.34,1.73-2.35,2.23-1.01,.5-2.2,.74-3.57,.74h-4.16v-12.86h4.45c1.38,0,2.56,.24,3.52,.71s1.69,1.17,2.2,2.08c.5,.92,.75,2.04,.75,3.36Zm-3.61,.12c0-.78-.1-1.43-.31-1.94s-.52-.9-.94-1.15c-.42-.25-.94-.38-1.57-.38h-1.01v7.2h.77c1.06,0,1.83-.31,2.32-.92,.49-.61,.74-1.55,.74-2.81Z"/><path d="M111.57,46.88c1.17,0,2.14,.14,2.91,.43,.77,.28,1.36,.71,1.75,1.27,.39,.56,.58,1.26,.58,2.1,0,.52-.09,1-.26,1.43s-.43,.81-.75,1.15c-.33,.34-.71,.63-1.17,.88l3.75,5.6h-3.94l-2.73-4.68h-.88v4.68h-3.47v-12.86h4.21Zm-.05,2.63h-.69v2.94h.65c.53,0,.97-.12,1.31-.35,.34-.23,.51-.65,.51-1.26,0-.42-.14-.74-.42-.98s-.74-.35-1.36-.35Z"/><path d="M127.96,55.83c0,.7-.18,1.36-.53,1.98s-.9,1.13-1.64,1.52c-.74,.39-1.7,.58-2.87,.58-.59,0-1.1-.03-1.54-.08-.44-.05-.85-.14-1.24-.26-.38-.12-.78-.28-1.19-.47v-3.1c.7,.35,1.4,.62,2.11,.8,.71,.18,1.35,.28,1.93,.28,.35,0,.63-.04,.85-.12,.22-.08,.38-.19,.49-.34,.11-.14,.16-.31,.16-.5,0-.22-.08-.41-.23-.57s-.4-.32-.74-.49c-.34-.17-.79-.38-1.35-.63-.47-.22-.9-.45-1.29-.69-.38-.23-.71-.5-.99-.81-.27-.3-.48-.66-.63-1.06-.15-.4-.22-.88-.22-1.43,0-.83,.2-1.52,.61-2.08,.41-.56,.98-.98,1.71-1.26,.73-.28,1.57-.42,2.53-.42,.84,0,1.59,.09,2.26,.28,.67,.19,1.27,.4,1.81,.64l-1.06,2.68c-.55-.25-1.09-.45-1.63-.6-.53-.15-1.03-.22-1.49-.22-.3,0-.54,.04-.73,.11-.19,.07-.33,.17-.42,.29s-.14,.26-.14,.42c0,.2,.08,.38,.23,.54,.16,.16,.42,.33,.78,.51,.37,.19,.87,.42,1.5,.72,.63,.28,1.16,.58,1.6,.91,.44,.33,.78,.72,1.01,1.17,.23,.45,.35,1.02,.35,1.68Z"/><path d="M145.54,53.03c0,1.5-.28,2.74-.84,3.73-.56,.99-1.34,1.73-2.35,2.23-1.01,.5-2.2,.74-3.57,.74h-4.16v-12.86h4.45c1.38,0,2.56,.24,3.52,.71s1.69,1.17,2.2,2.08c.5,.92,.75,2.04,.75,3.36Zm-3.61,.12c0-.78-.1-1.43-.31-1.94s-.52-.9-.94-1.15c-.42-.25-.94-.38-1.57-.38h-1.01v7.2h.77c1.06,0,1.83-.31,2.32-.92,.49-.61,.74-1.55,.74-2.81Z"/><path d="M155.48,59.74h-7.64v-12.86h7.64v2.79h-4.16v2.02h3.85v2.79h-3.85v2.43h4.16v2.83Z"/><path d="M163.41,59.74h-3.47v-10.02h-3.14v-2.84h9.75v2.84h-3.13v10.02Z"/><path d="M176.01,59.74h-7.64v-12.86h7.64v2.79h-4.16v2.02h3.85v2.79h-3.85v2.43h4.16v2.83Z"/><path d="M183.99,49.54c-.41,0-.78,.09-1.1,.26s-.6,.42-.83,.75c-.23,.33-.4,.73-.52,1.2-.12,.47-.18,1.01-.18,1.61,0,.81,.1,1.49,.31,2.04,.21,.55,.52,.97,.94,1.25,.42,.28,.95,.42,1.58,.42,.58,0,1.13-.08,1.66-.24,.53-.16,1.07-.35,1.61-.57v2.94c-.57,.25-1.15,.43-1.75,.55-.59,.11-1.23,.17-1.9,.17-1.4,0-2.54-.28-3.43-.83-.89-.55-1.54-1.32-1.96-2.31-.42-.99-.63-2.13-.63-3.43,0-.97,.14-1.86,.41-2.67,.27-.81,.67-1.51,1.2-2.11,.53-.6,1.18-1.06,1.96-1.38,.78-.33,1.67-.49,2.67-.49,.62,0,1.28,.07,1.97,.22,.69,.14,1.36,.37,2.02,.69l-1.06,2.74c-.47-.22-.94-.41-1.42-.56-.48-.15-.99-.23-1.53-.23Z"/><path d="M195.63,59.74h-3.47v-10.02h-3.14v-2.84h9.75v2.84h-3.13v10.02Z"/><path d="M200.6,59.74v-12.86h3.49v12.86h-3.49Z"/><path d="M218.91,53.29c0,.99-.12,1.89-.36,2.7-.24,.81-.61,1.51-1.11,2.1-.5,.59-1.15,1.04-1.94,1.35-.79,.31-1.74,.47-2.84,.47s-2.01-.16-2.8-.47c-.79-.31-1.44-.76-1.95-1.35-.51-.58-.89-1.28-1.13-2.1-.25-.81-.37-1.72-.37-2.73,0-1.34,.22-2.5,.66-3.49,.44-.99,1.13-1.75,2.05-2.3s2.11-.81,3.55-.81,2.66,.27,3.58,.82,1.59,1.31,2.02,2.3c.43,.99,.64,2.15,.64,3.49Zm-8.85,0c0,.77,.09,1.44,.26,2s.46,.99,.84,1.28c.38,.3,.88,.45,1.5,.45s1.15-.15,1.53-.45c.38-.3,.65-.73,.82-1.28s.25-1.22,.25-2c0-1.16-.19-2.08-.58-2.75s-1.05-1.01-2-1.01c-.63,0-1.13,.15-1.52,.46-.38,.31-.66,.74-.83,1.3s-.26,1.23-.26,2.01Z"/><path d="M233.47,59.74h-4.56l-4.7-9.06h-.08c.03,.28,.06,.61,.08,.99s.04,.78,.06,1.18,.03,.76,.03,1.09v5.8h-3.08v-12.86h4.54l4.68,8.94h.05c-.02-.28-.04-.61-.05-.98-.02-.37-.03-.75-.05-1.13-.01-.38-.02-.72-.02-1.01v-5.81h3.1v12.86Z"/><path d="M250.1,59.74h-10.02v-2.15l5.57-7.91h-5.44v-2.81h9.75v2.14l-5.57,7.92h5.71v2.81Z"/><path d="M263.97,53.29c0,.99-.12,1.89-.36,2.7-.24,.81-.61,1.51-1.11,2.1-.5,.59-1.15,1.04-1.94,1.35-.79,.31-1.74,.47-2.84,.47s-2.01-.16-2.8-.47c-.79-.31-1.44-.76-1.95-1.35-.51-.58-.89-1.28-1.13-2.1-.25-.81-.37-1.72-.37-2.73,0-1.34,.22-2.5,.66-3.49,.44-.99,1.13-1.75,2.05-2.3s2.11-.81,3.55-.81,2.66,.27,3.58,.82,1.59,1.31,2.02,2.3c.43,.99,.64,2.15,.64,3.49Zm-8.85,0c0,.77,.09,1.44,.26,2s.46,.99,.84,1.28c.38,.3,.88,.45,1.5,.45s1.15-.15,1.53-.45c.38-.3,.65-.73,.82-1.28s.25-1.22,.25-2c0-1.16-.19-2.08-.58-2.75s-1.05-1.01-2-1.01c-.63,0-1.13,.15-1.52,.46-.38,.31-.66,.74-.83,1.3s-.26,1.23-.26,2.01Z"/><path d="M278.54,59.74h-4.56l-4.7-9.06h-.08c.03,.28,.06,.61,.08,.99s.04,.78,.06,1.18,.03,.76,.03,1.09v5.8h-3.08v-12.86h4.54l4.68,8.94h.05c-.02-.28-.04-.61-.05-.98-.02-.37-.03-.75-.05-1.13-.01-.38-.02-.72-.02-1.01v-5.81h3.1v12.86Z"/><path d="M288.95,59.74h-7.64v-12.86h7.64v2.79h-4.16v2.02h3.85v2.79h-3.85v2.43h4.16v2.83Z"/></g><g><path d="M78.32,91.57v-2.36h8.94v2.36h-8.94Zm0,4.02v-2.38h8.94v2.38h-8.94Z"/><path d="M105.05,92.03c0,1.5-.28,2.74-.84,3.73-.56,.99-1.34,1.73-2.35,2.23-1.01,.5-2.2,.74-3.57,.74h-4.16v-12.86h4.45c1.38,0,2.56,.24,3.52,.71s1.69,1.17,2.2,2.08c.5,.92,.75,2.04,.75,3.36Zm-3.61,.12c0-.78-.1-1.43-.31-1.94s-.52-.9-.94-1.15c-.42-.25-.94-.38-1.57-.38h-1.01v7.2h.77c1.06,0,1.83-.31,2.32-.92,.49-.61,.74-1.55,.74-2.81Z"/><path d="M111.57,85.88c1.17,0,2.14,.14,2.91,.43,.77,.28,1.36,.71,1.75,1.27,.39,.56,.58,1.26,.58,2.1,0,.52-.09,1-.26,1.43s-.43,.81-.75,1.15c-.33,.34-.71,.63-1.17,.88l3.75,5.6h-3.94l-2.73-4.68h-.88v4.68h-3.47v-12.86h4.21Zm-.05,2.63h-.69v2.94h.65c.53,0,.97-.12,1.31-.35,.34-.23,.51-.65,.51-1.26,0-.42-.14-.74-.42-.98s-.74-.35-1.36-.35Z"/><path d="M127.96,94.83c0,.7-.18,1.36-.53,1.98s-.9,1.13-1.64,1.52c-.74,.39-1.7,.58-2.87,.58-.59,0-1.1-.03-1.54-.08-.44-.05-.85-.14-1.24-.26-.38-.12-.78-.28-1.19-.47v-3.1c.7,.35,1.4,.62,2.11,.8,.71,.18,1.35,.28,1.93,.28,.35,0,.63-.04,.85-.12,.22-.08,.38-.19,.49-.34,.11-.14,.16-.31,.16-.5,0-.22-.08-.41-.23-.57s-.4-.32-.74-.49c-.34-.17-.79-.38-1.35-.63-.47-.22-.9-.45-1.29-.69-.38-.23-.71-.5-.99-.81-.27-.3-.48-.66-.63-1.06-.15-.4-.22-.88-.22-1.43,0-.83,.2-1.52,.61-2.08,.41-.56,.98-.98,1.71-1.26,.73-.28,1.57-.42,2.53-.42,.84,0,1.59,.09,2.26,.28,.67,.19,1.27,.4,1.81,.64l-1.06,2.68c-.55-.25-1.09-.45-1.63-.6-.53-.15-1.03-.22-1.49-.22-.3,0-.54,.04-.73,.11-.19,.07-.33,.17-.42,.29s-.14,.26-.14,.42c0,.2,.08,.38,.23,.54,.16,.16,.42,.33,.78,.51,.37,.19,.87,.42,1.5,.72,.63,.28,1.16,.58,1.6,.91,.44,.33,.78,.72,1.01,1.17,.23,.45,.35,1.02,.35,1.68Z"/><path d="M143.79,98.74h-10.02v-2.15l5.57-7.91h-5.44v-2.81h9.75v2.14l-5.57,7.92h5.71v2.81Z"/><path d="M157.66,92.29c0,.99-.12,1.89-.36,2.7-.24,.81-.61,1.51-1.11,2.1-.5,.59-1.15,1.04-1.94,1.35-.79,.31-1.74,.47-2.84,.47s-2.01-.16-2.8-.47c-.79-.31-1.44-.76-1.95-1.35-.51-.58-.89-1.28-1.13-2.1-.25-.81-.37-1.72-.37-2.73,0-1.34,.22-2.5,.66-3.49,.44-.99,1.13-1.75,2.05-2.3s2.11-.81,3.55-.81,2.66,.27,3.58,.82,1.59,1.31,2.02,2.3c.43,.99,.64,2.15,.64,3.49Zm-8.85,0c0,.77,.09,1.44,.26,2s.46,.99,.84,1.28c.38,.3,.88,.45,1.5,.45s1.15-.15,1.53-.45c.38-.3,.65-.73,.82-1.28s.25-1.22,.25-2c0-1.16-.19-2.08-.58-2.75s-1.05-1.01-2-1.01c-.63,0-1.13,.15-1.52,.46-.38,.31-.66,.74-.83,1.3s-.26,1.23-.26,2.01Z"/><path d="M172.23,98.74h-4.56l-4.7-9.06h-.08c.03,.28,.06,.61,.08,.99s.04,.78,.06,1.18,.03,.76,.03,1.09v5.8h-3.08v-12.86h4.54l4.68,8.94h.05c-.02-.28-.04-.61-.05-.98-.02-.37-.03-.75-.05-1.13-.01-.38-.02-.72-.02-1.01v-5.81h3.1v12.86Z"/><path d="M182.65,98.74h-7.64v-12.86h7.64v2.79h-4.16v2.02h3.85v2.79h-3.85v2.43h4.16v2.83Z"/><path d="M193.31,94.83c0,.7-.18,1.36-.53,1.98s-.9,1.13-1.64,1.52c-.74,.39-1.7,.58-2.87,.58-.59,0-1.1-.03-1.54-.08-.44-.05-.85-.14-1.24-.26-.38-.12-.78-.28-1.19-.47v-3.1c.7,.35,1.4,.62,2.11,.8,.71,.18,1.35,.28,1.93,.28,.35,0,.63-.04,.85-.12,.22-.08,.38-.19,.49-.34,.11-.14,.16-.31,.16-.5,0-.22-.08-.41-.23-.57s-.4-.32-.74-.49c-.34-.17-.79-.38-1.35-.63-.47-.22-.9-.45-1.29-.69-.38-.23-.71-.5-.99-.81-.27-.3-.48-.66-.63-1.06-.15-.4-.22-.88-.22-1.43,0-.83,.2-1.52,.61-2.08,.41-.56,.98-.98,1.71-1.26,.73-.28,1.57-.42,2.53-.42,.84,0,1.59,.09,2.26,.28,.67,.19,1.27,.4,1.81,.64l-1.06,2.68c-.55-.25-1.09-.45-1.63-.6-.53-.15-1.03-.22-1.49-.22-.3,0-.54,.04-.73,.11-.19,.07-.33,.17-.42,.29s-.14,.26-.14,.42c0,.2,.08,.38,.23,.54,.16,.16,.42,.33,.78,.51,.37,.19,.87,.42,1.5,.72,.63,.28,1.16,.58,1.6,.91,.44,.33,.78,.72,1.01,1.17,.23,.45,.35,1.02,.35,1.68Z"/></g><path class="cls-5" d="M66.81,104.39h-2.5v-23h2.5v23Zm-5.5,0h-3v-23h3v23Zm-6,0h-3v-23h3v23Zm-6,0h-3v-23h3v23Zm-6,0h-3v-23h3v23Z"/><g><path class="cls-1" d="M53.29,132.17c0,.84-.07,1.59-.2,2.26s-.35,1.23-.64,1.69-.68,.82-1.17,1.06c-.48,.24-1.08,.37-1.78,.37-.88,0-1.59-.21-2.15-.64-.56-.43-.97-1.04-1.24-1.84-.26-.8-.4-1.76-.4-2.89s.12-2.1,.36-2.91c.24-.81,.64-1.42,1.19-1.85,.55-.43,1.3-.65,2.23-.65,.88,0,1.59,.21,2.15,.64,.56,.43,.97,1.04,1.24,1.85,.27,.81,.4,1.78,.4,2.92Zm-4.75,0c0,.68,.02,1.26,.08,1.72,.05,.46,.15,.81,.29,1.04,.14,.23,.34,.35,.61,.35s.46-.12,.6-.35,.23-.58,.29-1.04,.08-1.04,.08-1.72-.03-1.27-.08-1.74-.15-.81-.29-1.05-.34-.35-.6-.35-.46,.12-.61,.35c-.14,.24-.24,.59-.29,1.05-.05,.46-.08,1.04-.08,1.74Z"/><path class="cls-1" d="M60.56,137.4h-2.88v-5.71c0-.26,0-.54,.01-.85,0-.31,.02-.59,.03-.84-.12,.15-.24,.27-.35,.38-.11,.11-.21,.2-.31,.29l-1.19,.98-1.47-1.81,3.6-2.93h2.55v10.48Z"/></g></g></svg>