<?xml version="1.0" encoding="utf-8"?>
<!-- Generator: Adobe Illustrator 26.3.1, SVG Export Plug-In . SVG Version: 6.00 Build 0)  -->
<svg version="1.1" id="Marina_Bay_Detailed" xmlns="http://www.w3.org/2000/svg" xmlns:xlink="http://www.w3.org/1999/xlink"
	 x="0px" y="0px" viewBox="0 0 1000 1000" style="enable-background:new 0 0 1000 1000;" xml:space="preserve">
<style type="text/css">
	.st0{fill:#DB4A25;}
	.st1{fill:#FAE44A;}
	.st2{fill:#75E5FD;}
	.st3{fill:#1BCE20;}
	.st4{fill:#FFFFFF;}
	.st5{font-family:'OpenSans';}
	.st6{font-size:12.58px;}
</style>
<path class="st0" d="M426.1,395.3l65,38.7l0.1,0l0.1,0c49.5,29.1,69.7,32.5,80.6,32.5c0.7,0,1.5,0,2.2,0
	c21.3,1.4,154.9,10.1,211.8,12.9c9.8,0.5,18.6,0.7,26.1,0.7c20.5,0,51.5,0,61.7-26.8c2.8-7.2,3-15,1.1-22.2
	c-0.5-4-1.5-13.7-3.3-34.6c-3.4-39.8-29.9-99.7-33-106.4l-0.8-1.7l-0.2-0.3c-0.9-2.6-5.5-17-0.6-45.8c19.4,21,40.4,23.6,49.8,23.6
	c2.2,0,4.2-0.1,6.1-0.3l6.2,37.1c1.8,13,24,176.5,32.9,240.3h0.1l0.1,0h0.1l0.3,0h0l1.6-0.2l1-0.1l31.4-3.8h0.1
	c-9.2-65.5-33.1-241.3-33.1-241.3l-7-42c0,0,3.8-26.8-22.7-26.8c-3.8,0-8.2,0.6-13.3,1.8c0,0-1.4,0.4-3.9,0.4
	c-6.5,0-20.1-2.9-32.7-24.1c-2.2-3.7-5.2-6.8-8.9-8.9c-3.9-2.3-9.3-4.6-14.9-4.6c-9.6,0-20.1,6.8-25.7,32.3c-12,55,2,79,2,79
	s27,60,30,95s4,40,4,40s6.4,5.7-28.6,5.7c-6.6,0-14.6-0.2-24.4-0.7c-62-3-214-13-214-13s-0.5,0.2-1.6,0.2c-4.6,0-20.2-2.5-62.9-27.7
	l-65.5-39.1L426.1,395.3L426.1,395.3z M967.8,548.9h0.2l0.1,0c-0.3-1.9-0.6-3.9-0.9-6.2l-0.2,0l-31.4,3.8l-1,0.1l-1.5,0.2l-0.3,0
	l-0.2,0h0"/>
<path class="st1" d="M279,522c4.1-10.5,7.6-19.2,9.7-25.1c1.8-5.1,6.6-8.2,11.6-8.2c2.4,0,4.8,0.7,6.9,2.2
	c9,6.1,23.2,16.7,45.2,34.6c45,36.6,61.9,51.2,96.1,51.2c2.2,0,4.5-0.1,6.9-0.2l9-0.8c0,0,0.1,0,0.1,0c0.9,0,1.6,0.8,1.4,1.7
	c-2.3,10.4-10.7,60.4,39.5,63.1l112,6h0.2c2.1,0,17.2-0.9,22.8-26l6.5-29.7c0.3-1.3,1.4-2.2,2.7-2.2c0.1,0,0.1,0,0.2,0l61,4.7
	c0.9,0.1,1.6,0.8,1.6,1.7c0,8.5,2.8,48.8,52,51.4c55,3,153,8,153,8s0.6,0.2,1.8,0.2c4.1,0,15-2.4,28.2-24.2
	c17-28,27.4-34.5,21.7-73.2c-0.2-1.3-0.4-2.7-0.6-4.4h-0.1l-0.2,0h-0.2l-31.3,3.8l-1.3,0.2l-1.2,0.2h-0.1l-0.1,0l-0.3,0
	c0.3,2,0.5,3.8,0.8,5.3c1.5,9.9,1.6,16.7,0.4,20.8c-1,3.6-3.8,7.9-8.9,15.7c-2.5,3.9-5.4,8.3-8.5,13.5c-1.9,3.2-3.6,5.4-4.8,6.9
	c-22.8-1.2-100.2-5.1-146.4-7.7c-12.8-0.7-15.3-5-16.3-6.5c-2.1-3.4-2.6-8.1-2.6-10.1c-0.1-19-15-35-33.9-36.4l-61-4.7
	c-1-0.1-1.9-0.1-2.9-0.1c-17.6,0-33.1,12.5-36.8,29.7l-6,27.5l-99.4-5.3c-4.5-0.2-6.4-1.1-6.9-1.3c-1.3-2.2-2.1-10.2-0.4-18.6
	c2.1-10.4,0.3-21.4-6-30c-6.9-9.5-17.8-15-29.4-15c-1.1,0-2.2,0-3.2,0.2h0l-8.3,0.8c-1.6,0.1-3.1,0.1-4.5,0.1
	c-19.3,0-27.5-5.5-70-40.1l-4-3.3c-19.3-15.7-35.3-27.9-47.5-36.3c-7.9-5.4-17.2-8.3-26.8-8.3c-3.3,0-6.5,0.3-9.6,1l-8.7,2.7
	c-12,5-21.7,15-26.3,27.7c-1.9,5.4-4.9,13.4-9.3,24.7"/>
<path class="st2" d="M247,510c-2.6,6.7-6.8,15.6-10.4,24.6c-14.5,35.5-27.6,108.7-41,186.8c-1.5,8.5-2.9,16.9-4.2,24.4
	c-15.3-19.2-36.5-36.3-56-51.4c-0.9-0.8-3.8-5.2-5.8-15c-1.6-8.3-1.7-15.7-1.7-16.6l0.4-11.5c0.3-8.7-5.2-16.5-13.5-19.1l-11.4-3.6
	l-13.4-4.2c-13.8-7-16.7-12.9-23.2-26.2l-0.4-0.9c0-0.3,0.1-0.6,0.1-0.9c5.4-7,12.1-17.8,22.1-35.7c8.4-15,15.8-29.3,17.3-32.1
	L180,395.1c2.4-3.5,6.4-7.6,9.1-9.3c14.7,8.8,40.2,35.7,58.4,58.6c6.9,8.7,17.2,13.6,28.2,13.6c2.1,0,4.2-0.2,6.3-0.5l8.7-2.7
	c8-3.7,14.5-10.2,18.1-18.6l4.1-9.6c5.2-8,22.7-34.7,44.8-66.6c0.8-1.1,1.5-2.1,2.1-3c1.5,0.9,3.1,1.8,4.6,2.7l23,12.7l38.5,23
	l17.3-30.4L405,342l-23.5-13c-6.1-3.4-11.9-7.3-17.6-11.3c-1.5-1-3.4-1.9-6-1.9c-6.1,0-15.6,4.9-28.9,24.1c-27,39-47,70-47,70
	l-5.3,12.3c-0.2,0.4-0.6,0.6-1,0.6c-0.3,0-0.6-0.1-0.8-0.4c-6.9-8.6-43.8-54.1-70.9-68.6c-5.1-2.7-10-3.9-14.7-3.9
	c-22.8,0-39.3,26.9-39.3,26.9L75,512c0,0-27.8,53.9-38.1,65.2c-2.2,2.4-4,5.1-5.2,8.1c-2.6,6.8-2.8,15.2,3.2,27.4
	C43,629,50,644,77,657l16,5c0,0-1,43,21,60s48,38,59,59c5.8,11,16.7,17.7,26.7,17.7c9,0,17.3-5.4,20.5-17.7
	c6.7-26,28.2-182.9,48.7-233.2c4.1-10.1,7.6-18.8,10.5-26.2L247,510L247,510z"/>
<path d="M197.8,778.3c-0.7,0-1.4-0.2-2-0.7c-4.9-4-16.2-17-17.2-18.2l-27.9-26.9c-1.7-1.4-27.8-23.4-33.3-31.3
	c-4.7-6.8-5.9-23.9-6.8-36.4c-0.2-3-0.4-5.6-0.6-7.6c-0.8-8.2-0.8-8.4-20.8-14.7l-1.8-0.6c-0.9-0.3-1.8-0.5-2.7-0.8
	c-7.2-2-16.3-4.5-28.4-24.1c-12.6-20.3-9-27.7-8-29.1c5.3-9.4,111.6-198.4,116-205l0.4-0.6c4.1-6.1,11.6-17.4,26.4-16.3
	c9.5,0.7,30.9,22.5,55.9,48.8c7.1,7.5,13.2,13.9,17.3,17.8c5.9,5.5,11.1,7.8,15.5,6.7c5.5-1.4,10.3-8.1,14.3-19.8
	c0.4-1.2,6.7-10.6,26.6-40.4c8.5-12.8,17.4-26,22.6-34c2.1-3.3,9.6-13.7,16.5-10.7c7.1,3,29.4,17.5,30.3,18.2l43.9,26
	c0.4,0.2,30.4,19.5,51,31c67,37.3,85.3,37.8,85.9,37.8h0.2c2.5,0.1,246.5,14.5,260.7,13c21.6-2.3,24.9-10.4,25.2-18.1
	c0-1.7-2.4-21.5-4.3-37.4c-1.4-11.7-2.8-22.7-3.2-26.8c-0.8-7.7-20.2-57.6-30.4-82.9l-0.1-0.2c-0.2-0.6-4.1-15.5-3.1-35.6
	c1.4-28.8,8.3-38.6,11.2-42.9l0.1-0.2c0.7-1,1.7-1.6,2.9-1.6c0.1,0,0.2,0,0.3,0c4.6,0,11.8,7.2,13.9,9.4l0.2,0.2
	c0.1,0.1,6.9,9.7,18.4,16.4c16.8,9.8,28.9,6.3,35.4,4.5c3.1-0.9,5.1-1.4,6.7-0.4c3.5,2.3,4.6,12.3,4.9,15.4l24.4,146.2l15.3,123.9
	l-4,0.5l-15.3-123.8L906,260.1c-0.5-5.7-1.8-11.3-3-12.4l0,0c-0.6,0-2.2,0.4-3.5,0.8c-7.1,2-20.3,5.8-38.6-4.9
	c-11.7-6.8-18.6-16.2-19.5-17.5c-3.7-3.9-9.3-8.3-10.8-8.1l-0.1,0.1c-2.7,3.9-9.1,13.2-10.5,40.8c-0.9,18.5,2.6,32.9,2.9,34.3
	c1.8,4.4,29.6,73.9,30.6,83.9c0.4,4,1.8,15.1,3.2,26.7c2.7,21.9,4.4,36.3,4.3,38c-0.6,13.1-9.5,19.9-28.8,21.9
	c-14.4,1.5-250-12.3-261.2-13c0,0,0,0-0.1,0c-2.3,0-21.5-1.3-87.9-38.2c-20.6-11.5-50.8-30.9-51.1-31.1l-43.9-26
	c-0.3-0.2-23-15-29.8-17.9c-2.4-1-7.4,2.9-11.5,9.3c-5.3,8.1-14.1,21.3-22.7,34.1c-11.8,17.6-25.1,37.5-26.1,39.6
	c-4.4,13.3-10,20.6-17,22.4c-5.8,1.5-12.3-1.1-19.2-7.6c-4.2-3.9-10.3-10.4-17.5-17.9c-17.8-18.7-44.6-46.9-53.3-47.5
	c-12.5-1-18.7,8.4-22.8,14.5l-0.4,0.6C163.2,391.7,52.8,588,51.7,590l-0.2,0.3c-0.3,0.7-2.9,6.8,8.1,24.7
	c11.3,18.2,19.1,20.4,26.1,22.3c1,0.3,1.9,0.5,2.8,0.8l1.8,0.6c19.9,6.3,22.4,7.1,23.5,18.1c0.2,2.1,0.4,4.7,0.6,7.7
	c0.8,11.3,2,28.5,6.1,34.4c5.3,7.6,32.4,30.4,32.6,30.6l0.1,0.1l28.1,27.1c0.1,0.1,11.3,13.1,16.3,17.4c2.3-2.2,6.5-15.1,9.2-26.5
	c0.5-3.1,16.2-98.5,23-130c12.4-57.4,18.7-72.9,27.4-94.3c1.2-2.9,2.4-5.8,3.7-9c4-9.9,11-26.5,14-33.1c2.6-5.8,7.9-10.1,14.5-11.9
	c9.5-2.5,20.6,0.3,31.4,8.1c12.1,8.6,89.3,68.4,90.1,69c0.2,0.2,18,14.5,54.6,10.6c6-0.6,10.8,0.9,14.2,4.5
	c5.2,5.5,5.8,14.6,4.8,20.7c-1.7,10.3-1.1,31.1,8,34.9c8.2,3.4,85.3,7.5,114.3,8.8l0.2,0c0.5,0.1,13.2,1.4,16.8-17.4
	c4.1-21.6,9.8-41.4,23.2-39.6c10.8,1.4,63.9,5.3,66.1,5.4c1.9,0,20.2,0.8,21.7,27.1c1.2,22.2,14.9,25.8,28,26.5
	c10.5,0.5,149,7,149,7c0.5,0,11,0.6,19.2-14c5.5-9.7,18.3-31.2,19.9-33.8c0.3-1.3,1.6-8.1-0.1-21l4-0.5c2,15.2,0,22.5-0.1,22.8
	l-0.1,0.2l-0.1,0.2c-0.1,0.2-14.2,23.7-20,34c-9.5,16.9-22.4,16.1-22.9,16l0,0c0,0-138.4-6.5-148.9-7c-8.3-0.4-30.2-1.4-31.9-30.2
	c-1.3-23.5-17-23.3-17.7-23.3h-0.2c-2.2-0.2-55.4-4-66.4-5.5c-8.1-1.1-13.7,9.8-18.8,36.4c-4.1,21.5-19.5,20.8-21.1,20.6
	c-4.8-0.2-105.1-4.8-115.6-9.2c-11.9-4.9-12.1-28.6-10.4-39.2c0.9-5.6,0.1-13.2-3.8-17.3c-2.5-2.7-6.2-3.8-10.9-3.3
	c-38.4,4-56.7-10.8-57.5-11.5c-0.7-0.6-77.9-60.3-89.9-68.9c-9.8-7-19.8-9.7-28.1-7.5c-5.5,1.5-9.8,5-11.9,9.7
	c-3,6.6-10,23.1-14,32.9c-1.3,3.2-2.5,6.2-3.7,9c-8.7,21.2-14.9,36.6-27.2,93.6c-6.9,31.8-22.8,128.9-23,129.9l0,0.1
	c-2,8.3-7.1,27.9-12.1,29.7C198.4,778.2,198,778.2,197.8,778.3L197.8,778.3z M297.9,420.6L297.9,420.6z M903.1,247.8L903.1,247.8z"
	/>
<path d="M830.2,195.2c5.3,0,10.5,2.4,13.9,4.3c3.3,1.9,6.1,4.8,8.2,8.2c13,21.8,27.2,25.1,34.5,25.1c2.5,0,4-0.4,4.4-0.5
	c4.7-1.1,9-1.7,12.8-1.7c7.1,0,12.5,2,16,6.1c6.2,7.1,4.7,18.3,4.7,18.4l0,0.3l0,0.3l7,42c0.4,3,23.5,173.2,32.8,239.3l-29.5,3.6
	l-1,0.1l-0.3,0c-8.6-61.6-28.7-208.9-32.6-238l0-0.3v-0.1l-6.2-37.1l-0.3-1.9l-1.9,0.2c-1.9,0.2-3.9,0.3-5.8,0.3
	c-8.1,0-29.1-2.2-48.3-23l-2.8-3l-0.7,4c-5,29.3-0.3,44.2,0.7,46.8l0,0.1l0.1,0.1l0.2,0.3l0.7,1.6c3,6.7,29.4,66.3,32.8,105.7
	c1.8,21.4,2.9,30.9,3.3,34.7l0,0.1l0,0.1c1.9,7,1.5,14.3-1,21c-9.7,25.5-39.9,25.5-59.8,25.5c-7.5,0-16.2-0.2-26-0.7
	c-55.6-2.7-186.1-11.2-211.7-12.9H574c-0.6,0-1.2,0-2.1,0c-10.7,0-30.6-3.3-79.6-32.2l-0.1,0l-0.1-0.1l-103.5-61.7l0,0l0,0l-23-12.7
	c-1.6-0.9-3.1-1.8-4.6-2.6l-1.5-0.9l-1.1,1.4c-0.6,0.8-1.2,1.7-2.2,3c-22.2,32.1-39.9,59.1-44.8,66.7l-0.1,0.1l-0.1,0.2l-4.1,9.6
	c-3.4,7.8-9.4,14-17.1,17.6l-4,1.8l-4.3,0.7c-1.9,0.3-3.9,0.5-6,0.5c-10.5,0-20.2-4.7-26.7-12.9c-17.4-21.9-43.3-49.8-58.9-59.1
	l-1.1-0.6l-1,0.7c-3,1.9-7.1,6.2-9.6,9.9l-0.1,0.1l-0.1,0.1l-74.1,133.5v0l0,0c-2,3.9-9.2,17.7-17.3,32.1
	c-9.7,17.4-16.5,28.3-21.9,35.5l-0.4,0.5l0,0.6c0,0.1,0,0.3,0,0.4c0,0.2,0,0.3,0,0.5l0,0.5l0.2,0.5l0.4,0.9
	c6.7,13.6,9.7,19.8,24.1,27.1l0.2,0.1l0.2,0l13.4,4.2l11.4,3.6c7.4,2.3,12.4,9.3,12.1,17.1l-0.4,11.5v0.1c0,1.4,0.1,8.7,1.7,17
	c2,10,5,14.9,6.4,16.1l0.1,0l0.1,0c18.8,14.5,40.2,31.7,55.7,51.1l2.8,3.5l0.8-4.4c1.1-6.2,2.2-12.9,3.4-20l0.8-4.4
	c13.3-78.1,26.4-151.1,40.9-186.4c10.1-24.9,16-40.7,19.2-49.5c4.2-11.9,13.4-21.6,25.1-26.5l4.1-1.7l4.3-0.9c3-0.6,6.1-0.9,9.2-0.9
	c9.2,0,18,2.8,25.6,8c12.1,8.4,28.1,20.5,47.4,36.2l4,3.3c42.9,34.9,51.3,40.5,71.2,40.5c1.4,0,2.9,0,4.6-0.1h0.1l8.2-0.8h0.1
	c1-0.1,2-0.2,3.1-0.2c11.1,0,21.2,5.2,27.8,14.2c5.7,7.8,7.7,18.1,5.6,28.4c-1.8,8.8-1.1,17.2,0.6,20l0.3,0.5l0.5,0.3
	c0.7,0.4,3,1.3,7.8,1.6l99.4,5.3l1.7,0.1l0.4-1.7l6-27.5c3.6-16.3,18.2-28.1,34.9-28.1c0.9,0,1.8,0,2.7,0.1l61,4.7
	c17.9,1.4,32,16.5,32,34.4c0,2.3,0.6,7.3,2.9,11.1c1.1,1.8,4,6.8,17.9,7.5c45.6,2.5,122.9,6.5,146.4,7.7l1,0l0.6-0.8
	c1.6-1.9,3.3-4.3,5-7.1c3.1-5.1,6-9.5,8.5-13.3l0-0.1c5.2-8,8-12.4,9.1-16.3c1.3-4.4,1.2-11.5-0.3-21.6l0-0.2
	c-0.1-0.9-0.3-2-0.5-3.1l1-0.1l29.8-3.6c0.1,0.9,0.2,1.7,0.4,2.5c4.6,31.5-1.4,40.8-13.5,59.3c-2.4,3.7-5.1,7.8-8,12.5
	c-12.7,21-22.8,23.2-26.5,23.2c-0.8,0-1.2-0.1-1.2-0.1l0,0l-0.2-0.1h-0.2c-1-0.1-98.6-5-153-8c-20.1-1.1-34.5-8.7-42.8-22.6
	c-6.5-10.9-7.3-22.4-7.3-26.9c0-1.9-1.5-3.5-3.4-3.7l-61-4.7H650c-0.1,0-0.2,0-0.2,0c-2.2,0-4.1,1.5-4.6,3.7l-6.5,29.7
	c-5.3,23.8-19.2,24.4-20.8,24.4h-0.2l-112-6c-14.2-0.8-24.8-5.5-31.4-14.2c-11.9-15.7-7.8-39.5-6.2-46.5c0.2-1,0-2.1-0.7-2.9
	c-0.6-0.8-1.6-1.3-2.6-1.3c-0.1,0-0.1,0-0.2,0h-0.1l-9,0.8c-2.5,0.1-4.7,0.2-6.8,0.2c-16,0-28-3.2-41.7-10.9
	c-13.5-7.6-28.4-19.8-49.1-36.6l-4.1-3.3c-18.7-15.1-33.9-26.8-45.4-34.7c-2.4-1.6-5.2-2.5-8.1-2.5c-6,0-11.5,3.8-13.5,9.5
	c-3.2,9-9.2,25.2-19.7,50.8c-14.3,35.1-29.2,122.3-39,179.9c-4.4,25.5-7.8,45.7-9.8,53.5c-2.7,10.3-9.4,16.2-18.6,16.2
	c-9.7,0-19.8-6.7-25-16.6c-11.1-21.1-36.6-41.9-59.6-59.7c-20.9-16.2-20.2-58-20.2-58.4l0-1.5l-1.4-0.5l-15.9-5
	c-25.8-12.5-32.6-26.3-40.5-42.4l-0.4-0.9c-5-10.1-6-18.3-3.2-25.8c1-2.5,2.5-5,4.8-7.5c10.3-11.3,37-63,38.3-65.7l75-134.9
	c0.7-1.1,16.6-25.9,37.6-25.9c4.6,0,9.3,1.2,13.8,3.6c26.7,14.2,63.2,59.2,70.3,68.1c0.6,0.7,1.5,1.1,2.4,1.1c1.2,0,2.3-0.7,2.8-1.9
	l5.2-12.2c1.5-2.3,21.1-32.6,46.9-69.8c13.3-19.2,22.2-23.3,27.2-23.3c1.8,0,3.4,0.5,4.9,1.5c5.6,3.9,11.5,7.9,17.7,11.4l23.5,13
	l104,62c42.8,25.2,59,27.9,63.9,27.9c0.8,0,1.4-0.1,1.8-0.1c7.7,0.5,153.7,10.1,213.7,13c9.3,0.5,17.5,0.7,24.5,0.7
	c25.5,0,29.9-3,30.9-5.5c0.4-1.1,0.2-2.2-0.4-3c-0.3-1.8-1.4-10-3.9-39.3c-3-34.9-29.1-93.2-30.2-95.6l0-0.1l0-0.1
	c-0.1-0.2-13.4-24.2-1.8-77.6C810.9,205.5,818.9,195.2,830.2,195.2 M965.5,544.9c0.1,0.8,0.2,1.5,0.3,2.2l-29.6,3.6l-1.2,0.1
	c-0.1-0.7-0.2-1.4-0.3-2.2h0.1l1-0.1L965.5,544.9 M830.2,193.2c-9.6,0-20.1,6.8-25.7,32.3c-12,55,2,79,2,79s27,60,30,95s4,40,4,40
	s1.5,1.3-0.8,2.6c-2.5,1.5-9.5,3-27.8,3c-6.6,0-14.6-0.2-24.4-0.7c-62-3-214-13-214-13s-0.5,0.2-1.6,0.2c-4.6,0-20.2-2.5-62.9-27.7
	l-104-62l-23.5-13c-6.1-3.4-11.9-7.3-17.6-11.3c-1.5-1-3.4-1.9-6-1.9c-6.1,0-15.6,4.9-28.9,24.1c-27,39-47,70-47,70l-5.3,12.3
	c-0.2,0.4-0.6,0.6-1,0.6c-0.3,0-0.6-0.1-0.8-0.4c-6.9-8.6-43.8-54.1-70.9-68.6c-5.1-2.7-10-3.9-14.7-3.9h0
	c-22.8,0-39.3,26.9-39.3,26.9L75,512c0,0-27.8,53.9-38.1,65.2c-2.2,2.4-4,5.1-5.2,8.1c-2.6,6.8-2.8,15.2,3.2,27.4
	C43,629,50,644,77,657l16,5c0,0-1,43,21,60s48,38,59,59c5.8,11,16.7,17.7,26.7,17.7c9,0,17.3-5.4,20.5-17.7
	C227,755,248.5,598,269,547.8c10-24.6,16.1-40.8,19.7-50.9c1.8-5.1,6.6-8.2,11.6-8.2c2.4,0,4.8,0.7,6.9,2.2
	c9,6.1,23.2,16.7,45.2,34.6c45,36.6,61.9,51.2,96.1,51.2c2.2,0,4.5-0.1,6.9-0.2l9-0.8c0,0,0.1,0,0.1,0c0.9,0,1.6,0.8,1.4,1.7
	c-2.3,10.4-10.7,60.4,39.5,63.1c56,3,112,6,112,6h0.2c2.1,0,17.2-0.9,22.8-26l6.5-29.7c0.3-1.3,1.4-2.2,2.7-2.2c0.1,0,0.1,0,0.2,0
	l61,4.7c0.9,0.1,1.6,0.8,1.6,1.7c0,8.5,2.8,48.8,52,51.4c55,3,153,8,153,8s0.6,0.2,1.8,0.2c4.1,0,15-2.4,28.2-24.2
	c17-28,27.4-34.5,21.7-73.2c-0.2-1.3-0.4-2.7-0.6-4.4h-0.1l-0.2,0h-0.2l-31.3,3.8l-1.3,0.2l-1.2,0.2h-0.1l-0.1,0l-0.3,0
	c0.3,2,0.5,3.8,0.8,5.3c1.5,9.9,1.6,16.7,0.4,20.8c-1,3.6-3.8,7.9-8.9,15.7c-2.5,3.9-5.4,8.3-8.5,13.5c-1.9,3.2-3.6,5.4-4.8,6.9
	c-22.8-1.2-100.2-5.1-146.4-7.7c-12.8-0.7-15.3-5-16.3-6.5c-2.1-3.4-2.6-8.1-2.6-10.1c-0.1-19-15-35-33.9-36.4l-61-4.7
	c-1-0.1-1.9-0.1-2.9-0.1c-17.6,0-33.1,12.5-36.8,29.7l-6,27.5l-99.4-5.3c-4.5-0.2-6.4-1.1-6.9-1.3c-1.3-2.2-2.1-10.2-0.4-18.6
	c2.1-10.4,0.3-21.4-6-30c-6.9-9.5-17.8-15-29.4-15c-1.1,0-2.2,0-3.2,0.2h0l-8.3,0.8c-1.6,0.1-3.1,0.1-4.5,0.1
	c-19.3,0-27.5-5.5-70-40.1l-4-3.3c-19.3-15.7-35.3-27.9-47.5-36.3c-7.9-5.4-17.2-8.3-26.8-8.3c-3.3,0-6.5,0.3-9.6,1
	c8-3.7,14.5-10.2,18.1-18.6l4.1-9.6c5.2-8,22.7-34.7,44.8-66.6c0.8-1.1,1.5-2.1,2.1-3c1.5,0.9,3.1,1.8,4.6,2.7l23,12.7L491.1,434
	l0.1,0l0.1,0c49.5,29.1,69.7,32.5,80.6,32.5c0.7,0,1.5,0,2.2,0c21.3,1.4,154.9,10.1,211.8,12.9c9.8,0.5,18.6,0.7,26.1,0.7
	c20.5,0,51.5,0,61.7-26.8c2.8-7.2,3-15,1.1-22.2c-0.5-4-1.5-13.7-3.3-34.6c-3.4-39.8-29.9-99.7-33-106.4l-0.8-1.7l-0.2-0.3
	c-0.9-2.6-5.5-17-0.6-45.8c19.4,21,40.4,23.6,49.8,23.6c2.2,0,4.2-0.1,6.1-0.3l6.2,37.1c1.8,13,24,176.5,32.9,240.3h0.1l0.1,0h0.1
	l0.3,0h0l1.6-0.2l1-0.1l31.4-3.8h0.1c-9.2-65.5-33.1-241.3-33.1-241.3l-7-42c0,0,3.8-26.8-22.7-26.8c-3.8,0-8.2,0.6-13.3,1.8
	c0,0-1.4,0.4-3.9,0.4c-6.5,0-20.1-2.9-32.7-24.1c-2.2-3.7-5.2-6.8-8.9-8.9C841.1,195.5,835.8,193.2,830.2,193.2L830.2,193.2
	L830.2,193.2z M191.4,745.8c-15.3-19.2-36.5-36.3-56-51.4c-0.9-0.8-3.8-5.2-5.8-15c-1.6-8.3-1.7-15.7-1.7-16.6l0.4-11.5
	c0.3-8.7-5.2-16.5-13.5-19.1l-11.4-3.6l-13.4-4.2c-13.8-7-16.7-12.9-23.2-26.2l-0.4-0.9c0-0.3,0.1-0.6,0.1-0.9
	c5.4-7,12.1-17.8,22.1-35.7c8.4-15,15.8-29.3,17.3-32.1L180,395.1c2.4-3.5,6.4-7.6,9.1-9.3c14.7,8.8,40.2,35.7,58.4,58.6
	c6.9,8.7,17.2,13.6,28.2,13.6c2.1,0,4.2-0.2,6.3-0.5c-12,5-21.7,15-26.3,27.7c-3.1,8.8-9,24.5-19.2,49.4
	c-14.5,35.5-27.6,108.7-41,186.8C194.2,730,192.7,738.3,191.4,745.8L191.4,745.8L191.4,745.8z M967.1,542.8l-0.2,0l-31.4,3.8l-1,0.1
	l-1.5,0.2l-0.3,0l-0.2,0h0c0.3,2.2,0.6,4.3,0.9,6.2h0l0.4,0l0.2,0l1.2-0.1l1.3-0.2l31.4-3.8h0.2l0.1,0
	C967.7,547,967.4,545,967.1,542.8L967.1,542.8L967.1,542.8z"/>
<g id="Start_Line">
	<polygon points="913.3,531.1 925.5,540.4 923.2,543.4 914,536.4 907,545.7 904,543.4 	"/>
	<polygon points="904.8,530.4 901.8,528.1 908.3,519.6 911.1,515.9 923.4,525.1 921.1,528.2 911.8,521.2 910.8,522.5 	"/>
	<polygon points="902.7,515.1 899.7,512.8 901,511 909,500.6 921.2,509.9 918.9,512.9 909.7,505.9 903.5,514 	"/>
</g>
<path d="M968,548.9L968,548.9l-0.1,0h-0.1l-31.4,3.8l-1.3,0.2l-1.2,0.1l-0.2,0l-0.4,0h-0.1l-1.9,0.2l-2.9,0.4l-22.7,2.8l-0.5-4
	l-0.3-2.1l22.7-2.8l3.1-0.4l1.7-0.2h0l0.2,0l0.3,0l1.5-0.2l1-0.1l31.4-3.8l0.2,0C967.5,545,967.7,547,968,548.9L968,548.9z"/>
<path class="st3" d="M243.1,758.3l-8.9-1.2c0.1-0.9,0.2-1.9,0.4-3l8.9,1.3C243.3,756.4,243.2,757.4,243.1,758.3L243.1,758.3z
	 M243.9,752.4L235,751c0.1-0.9,0.3-1.9,0.4-3l8.9,1.4C244.2,750.5,244,751.5,243.9,752.4L243.9,752.4z M244.8,746.5l-8.9-1.4
	c0.1-1,0.3-2,0.5-3l8.9,1.4C245.1,744.5,245,745.5,244.8,746.5z M245.8,740.6l-8.9-1.4l0.5-3l8.9,1.5L245.8,740.6L245.8,740.6z
	 M246.7,734.6l-8.9-1.5l0.5-3l8.9,1.5L246.7,734.6L246.7,734.6z M247.7,728.7l-8.9-1.5l0.5-3l8.9,1.5L247.7,728.7L247.7,728.7z
	 M248.7,722.8l-8.9-1.5l0.5-3l8.9,1.5L248.7,722.8L248.7,722.8z M249.7,716.9l-8.9-1.5l0.5-3l8.9,1.5L249.7,716.9z M250.7,711
	l-8.9-1.5l0.5-3l8.9,1.5L250.7,711L250.7,711z M251.7,705.1l-8.9-1.5l0.5-3l8.9,1.5L251.7,705.1L251.7,705.1z M252.7,699.2l-8.9-1.5
	l0.5-3l8.9,1.6L252.7,699.2L252.7,699.2z M253.8,693.3l-8.9-1.6l0.5-3l8.9,1.6L253.8,693.3L253.8,693.3z M254.8,687.4l-8.9-1.6
	l0.5-3l8.9,1.6L254.8,687.4z M255.9,681.5l-8.9-1.6l0.5-3l8.9,1.6L255.9,681.5L255.9,681.5z M257,675.6l-8.9-1.6l0.5-3l8.9,1.6
	L257,675.6L257,675.6z M258,669.7l-8.9-1.6l0.5-3l8.8,1.6L258,669.7L258,669.7z M259.1,663.8l-8.9-1.6l0.6-3l8.8,1.6L259.1,663.8
	L259.1,663.8z M260.2,657.8l-8.9-1.7l0.6-3l8.8,1.7L260.2,657.8L260.2,657.8z M261.3,651.9l-8.8-1.7l0.6-3l8.8,1.7L261.3,651.9z
	 M262.5,646.1l-8.8-1.7l0.6-3l8.8,1.7L262.5,646.1L262.5,646.1z M263.6,640.2l-8.8-1.7l0.6-3l8.8,1.7L263.6,640.2L263.6,640.2z
	 M264.7,634.3l-8.8-1.7l0.6-3l8.8,1.7L264.7,634.3L264.7,634.3z M265.9,628.4l-8.8-1.7l0.6-3l8.8,1.8L265.9,628.4z M267.1,622.5
	l-8.8-1.8l0.6-3l8.8,1.8L267.1,622.5z M268.2,616.7l-8.8-1.8l0.6-3l8.8,1.8L268.2,616.7z M269.4,610.8l-8.8-1.9c0.2-1,0.4-2,0.6-3
	l8.8,1.9C269.9,608.9,269.6,609.9,269.4,610.8L269.4,610.8z M270.7,605l-8.8-2c0.2-1,0.5-2,0.7-3l8.8,2
	C271.2,603.1,270.9,604.1,270.7,605L270.7,605z M272.1,599.2l-8.8-2.1c0.2-1,0.5-2,0.7-2.9l8.7,2.1
	C272.5,597.3,272.3,598.3,272.1,599.2L272.1,599.2z M273.5,593.4l-8.7-2.2c0.2-1,0.5-2,0.7-2.9l8.7,2.2
	C274,591.5,273.7,592.5,273.5,593.4L273.5,593.4z M275,587.7l-8.7-2.3c0.3-1,0.5-2,0.8-2.9l8.7,2.3
	C275.5,585.7,275.2,586.7,275,587.7z M276.5,581.9l-8.7-2.4c0.3-1,0.5-2,0.8-2.9l8.7,2.4C277.1,580,276.8,580.9,276.5,581.9
	L276.5,581.9z M278.1,576.2l-8.6-2.5c0.3-1,0.6-2,0.8-2.9l8.6,2.5C278.7,574.3,278.4,575.2,278.1,576.2L278.1,576.2z M279.8,570.5
	l-8.6-2.6c0.3-1,0.6-2,0.9-2.9l8.6,2.7C280.4,568.6,280.1,569.5,279.8,570.5L279.8,570.5z M281.6,564.8l-8.6-2.8c0.3-1,0.6-2,1-2.9
	l8.5,2.9C282.2,562.9,281.9,563.9,281.6,564.8L281.6,564.8z M283.4,559.3l-8.5-3.1c0.4-1.1,0.8-2.1,1.1-3l8.3,3.5
	C284.1,557.5,283.8,558.3,283.4,559.3L283.4,559.3z M285.6,554l-8.3-3.5c0.4-0.9,0.8-1.8,1.2-2.8l8.3,3.5
	C286.4,552.1,286,553,285.6,554L285.6,554z M288,548.4l-8.3-3.4c0.4-0.9,0.8-1.9,1.1-2.8l8.3,3.4C288.7,546.5,288.4,547.4,288,548.4
	L288,548.4z M290.3,542.8l-8.4-3.4c0.4-1,0.8-1.9,1.1-2.8l8.4,3.3C291,540.9,290.6,541.8,290.3,542.8L290.3,542.8z M292.5,537.2
	l-8.4-3.3c0.4-1,0.7-1.9,1.1-2.8l8.4,3.2C293.3,535.2,292.9,536.2,292.5,537.2L292.5,537.2z M294.7,531.5l-8.4-3.2
	c0.4-1,0.7-1.9,1-2.8l8.4,3.1C295.4,529.5,295.1,530.5,294.7,531.5z M296.8,525.8l-8.5-3c0.6-1.8,1-2.7,1-2.7l8.5,2.8
	C297.8,522.9,297.5,523.9,296.8,525.8L296.8,525.8z"/>
<path class="st3" d="M804.7,495c-0.9,0-2,0-3.1-0.1l0.3-9c1.1,0,2,0.1,3,0.1L804.7,495L804.7,495z M798.6,494.8c-1,0-2-0.1-3-0.1
	l0.4-9c1,0,2,0.1,3,0.1L798.6,494.8L798.6,494.8z M792.5,494.5l-3-0.1l0.4-9l3,0.1L792.5,494.5L792.5,494.5z M786.5,494.3l-3-0.1
	l0.5-9l3,0.1L786.5,494.3L786.5,494.3z M780.5,494l-3-0.2l0.5-9l3,0.2L780.5,494L780.5,494z M774.5,493.6l-3-0.2l0.5-9l3,0.2
	L774.5,493.6z M768.5,493.3l-3-0.2l0.5-9l3,0.2L768.5,493.3z M762.5,493l-3-0.2l0.5-9l3,0.2L762.5,493z M756.5,492.6l-3-0.2l0.5-9
	l3,0.2L756.5,492.6z M750.5,492.3l-3-0.2l0.5-9l3,0.2L750.5,492.3L750.5,492.3z M744.5,491.9l-3-0.2l0.5-9l3,0.2L744.5,491.9
	L744.5,491.9z M738.5,491.5l-3-0.2l0.5-9l3,0.2L738.5,491.5z M732.5,491.2l-3-0.2l0.5-9l3,0.2L732.5,491.2L732.5,491.2z
	 M726.5,490.8l-3-0.2l0.5-9l3,0.2L726.5,490.8L726.5,490.8z M720.5,490.5l-3-0.2l0.5-9l3,0.2L720.5,490.5L720.5,490.5z M714.5,490.1
	l-3-0.2l0.5-9l3,0.2L714.5,490.1L714.5,490.1z M708.5,489.7l-3-0.2l0.5-9l3,0.2L708.5,489.7z M702.6,489.3l-3-0.2l0.5-9l3,0.2
	L702.6,489.3z M696.6,489l-3-0.2l0.5-9l3,0.2L696.6,489z M690.6,488.6l-3-0.2l0.5-9l3,0.2L690.6,488.6z M684.6,488.2l-3-0.2l0.5-9
	l3,0.2L684.6,488.2z M678.6,487.9l-3-0.2l0.5-9l3,0.2L678.6,487.9z M672.6,487.5l-3-0.2l0.5-9l3,0.2L672.6,487.5L672.6,487.5z
	 M666.6,487.2l-3-0.2l0.5-9l3,0.2L666.6,487.2z M660.6,486.8l-3-0.2l0.5-9l3,0.2L660.6,486.8L660.6,486.8z M654.6,486.4l-3-0.2
	l0.5-9l3,0.2L654.6,486.4L654.6,486.4z M648.6,486.1l-3-0.2l0.5-9l3,0.2L648.6,486.1z M642.6,485.7l-3-0.2l0.5-9l3,0.2L642.6,485.7
	L642.6,485.7z M636.7,485.4l-3-0.2l0.5-9l3,0.2L636.7,485.4z M630.7,485.1l-3-0.2l0.5-9l3,0.2L630.7,485.1z M624.7,484.7l-3-0.2
	l0.5-9l3,0.2L624.7,484.7L624.7,484.7z M618.7,484.4l-3-0.2l0.5-9l3,0.2L618.7,484.4z M612.7,484.1l-3-0.2l0.5-9l3,0.2L612.7,484.1z
	 M606.7,483.8l-3-0.1l0.5-9l3,0.1L606.7,483.8z M600.7,483.5l-3-0.1l0.4-9l3,0.1L600.7,483.5z M594.7,483.2l-3-0.1l0.4-9l3,0.1
	L594.7,483.2z M588.7,482.9l-3-0.1l0.4-9l3,0.1L588.7,482.9z M582.7,482.6l-3-0.1l0.4-9l3,0.1L582.7,482.6L582.7,482.6z
	 M576.8,482.4l-3-0.1l0.3-9l3,0.1L576.8,482.4L576.8,482.4z M570.8,482.2l-3-0.1l0.3-9l3,0.1L570.8,482.2L570.8,482.2z M564.7,482
	c-1.1,0-2.2-0.2-3.4-0.3l1.2-8.9c0.9,0.1,1.8,0.2,2.6,0.2L564.7,482L564.7,482z M558.1,481.1c-1-0.2-2-0.4-3.1-0.7l2.1-8.7
	c1,0.2,1.9,0.4,2.7,0.6L558.1,481.1L558.1,481.1z M551.9,479.6c-1-0.3-2-0.6-3-0.9l2.7-8.6c0.9,0.3,1.9,0.6,2.8,0.8L551.9,479.6z
	 M546,477.7c-1-0.3-1.9-0.7-2.9-1l3-8.5c0.9,0.3,1.8,0.7,2.8,1L546,477.7z M540.2,475.7c-0.9-0.4-1.9-0.7-2.9-1.1l3.3-8.4
	c0.9,0.4,1.8,0.7,2.7,1.1L540.2,475.7L540.2,475.7z M534.5,473.4c-0.9-0.4-1.9-0.8-2.8-1.2l3.5-8.3c0.9,0.4,1.8,0.8,2.7,1.1
	L534.5,473.4L534.5,473.4z M528.9,471c-0.9-0.4-1.8-0.8-2.8-1.2l3.7-8.2c0.9,0.4,1.8,0.8,2.7,1.2L528.9,471L528.9,471z M523.3,468.6
	c-0.9-0.4-1.8-0.8-2.8-1.3l3.8-8.2c0.9,0.4,1.8,0.8,2.7,1.2L523.3,468.6z M517.8,466c-0.9-0.4-1.8-0.9-2.7-1.3l3.9-8.1
	c0.9,0.4,1.8,0.9,2.7,1.3L517.8,466L517.8,466z M512.3,463.4c-0.9-0.4-1.8-0.9-2.7-1.3l4-8.1c0.9,0.4,1.8,0.9,2.7,1.3L512.3,463.4
	L512.3,463.4z M506.9,460.7c-0.9-0.5-1.8-0.9-2.7-1.4l4.1-8c0.9,0.5,1.8,0.9,2.7,1.3L506.9,460.7L506.9,460.7z M501.5,458
	c-0.9-0.5-1.8-0.9-2.7-1.4l4.1-8c0.9,0.5,1.8,0.9,2.6,1.4L501.5,458L501.5,458z M496.2,455.2c-0.9-0.5-1.8-0.9-2.7-1.4l4.2-8
	l2.6,1.4L496.2,455.2L496.2,455.2z M490.8,452.4l-2.7-1.4l4.2-7.9l2.6,1.4L490.8,452.4L490.8,452.4z M485.5,449.5
	c-0.9-0.5-1.8-1-2.6-1.4l4.3-7.9c0.9,0.5,1.8,1,2.6,1.4L485.5,449.5L485.5,449.5z M480.2,446.6l-2.6-1.5l4.4-7.9l2.6,1.4
	L480.2,446.6z M474.9,443.7l-2.6-1.5l4.4-7.9l2.6,1.5L474.9,443.7z M469.7,440.8l-2.6-1.5l4.4-7.8l2.6,1.5L469.7,440.8L469.7,440.8z
	 M464.4,437.8l-2.6-1.5l4.5-7.8l2.6,1.5L464.4,437.8L464.4,437.8z M459.2,434.8l-2.6-1.5l4.5-7.8l2.6,1.5L459.2,434.8z M454,431.8
	l-2.6-1.5l4.5-7.8l2.6,1.5L454,431.8L454,431.8z M448.8,428.8l-2.6-1.5l4.5-7.8l2.6,1.5L448.8,428.8L448.8,428.8z M443.6,425.8
	l-2.6-1.5l4.6-7.8l2.6,1.5L443.6,425.8L443.6,425.8z M438.4,422.7l-2.6-1.5l4.6-7.7l2.6,1.5L438.4,422.7L438.4,422.7z M433.2,419.6
	l-2.6-1.5l4.6-7.7l2.6,1.5L433.2,419.6L433.2,419.6z M428.1,416.5l-2.6-1.5l4.6-7.7l2.6,1.5L428.1,416.5L428.1,416.5z M422.9,413.4
	l-2.6-1.5l4.7-7.7l2.6,1.5L422.9,413.4L422.9,413.4z M417.8,410.3l-2.6-1.6l4.7-7.7l2.6,1.5L417.8,410.3L417.8,410.3z M412.6,407.2
	l-2.6-1.6l4.7-7.7l2.6,1.6L412.6,407.2L412.6,407.2z M407.5,404.1l-2.6-1.6l4.7-7.7l2.6,1.6L407.5,404.1z M402.4,400.9l-2.6-1.6
	l4.7-7.7l2.6,1.6L402.4,400.9L402.4,400.9z M397.3,397.8l-2.6-1.6l4.7-7.7l2.5,1.6L397.3,397.8z M392.1,394.6l-2.5-1.6l4.7-7.6
	l2.5,1.6L392.1,394.6z M387,391.4l-2.5-1.6l4.8-7.6l2.5,1.6L387,391.4L387,391.4z M381.9,388.3l-2.5-1.6l4.8-7.6l2.5,1.6
	L381.9,388.3L381.9,388.3z M376.8,385.1l-2.5-1.6l4.8-7.6l2.5,1.6L376.8,385.1z M371.7,381.9l-2.5-1.6l4.7-7.6l2.6,1.6L371.7,381.9
	L371.7,381.9z"/>
<g>
	<circle class="st3" cx="821.2" cy="294" r="10"/>
	<path d="M821.2,305c-6.1,0-11-4.9-11-11s4.9-11,11-11s11,4.9,11,11S827.3,305,821.2,305z M821.2,285c-5,0-9,4-9,9s4,9,9,9s9-4,9-9
		S826.2,285,821.2,285z"/>
</g>
<g>
	<circle class="st3" cx="152" cy="731" r="10"/>
	<path d="M152,742c-6.1,0-11-4.9-11-11s4.9-11,11-11s11,4.9,11,11S158.1,742,152,742z M152,722c-5,0-9,4-9,9s4,9,9,9s9-4,9-9
		S157,722,152,722z"/>
</g>
<g>
	<circle class="st3" cx="786" cy="630" r="10"/>
	<path d="M786,641c-6.1,0-11-4.9-11-11s4.9-11,11-11s11,4.9,11,11S792.1,641,786,641z M786,621c-5,0-9,4-9,9s4,9,9,9s9-4,9-9
		S791,621,786,621z"/>
</g>
<g id="Legend">
	<circle cx="87.9" cy="226.9" r="13"/>
	<g>
		<path d="M112.4,226.1v-2.4h8.9v2.4H112.4z M112.4,230.1v-2.4h8.9v2.4H112.4z"/>
		<path d="M133.9,233.2h-3.5v-10h-3.1v-2.8h9.8v2.8h-3.1L133.9,233.2L133.9,233.2z"/>
		<path d="M149.8,220.4v7.7c0,1.1-0.2,2-0.6,2.8c-0.4,0.8-1,1.4-1.9,1.8s-1.9,0.6-3.1,0.6c-1.8,0-3.1-0.4-4.1-1.4
			c-0.9-0.9-1.4-2.2-1.4-3.9v-7.8h3.5v7.6c0,0.9,0.2,1.6,0.5,2c0.3,0.4,0.8,0.6,1.5,0.6c0.5,0,0.9-0.1,1.2-0.3s0.5-0.5,0.7-0.9
			s0.2-0.9,0.2-1.5v-7.5L149.8,220.4L149.8,220.4z"/>
		<path d="M156.7,220.4c1.2,0,2.1,0.1,2.9,0.4c0.8,0.3,1.4,0.7,1.8,1.3s0.6,1.3,0.6,2.1c0,0.5-0.1,1-0.3,1.4s-0.4,0.8-0.8,1.1
			c-0.3,0.3-0.7,0.6-1.2,0.9l3.8,5.6h-3.9l-2.7-4.7h-0.9v4.7h-3.5v-12.9H156.7L156.7,220.4z M156.6,223h-0.7v2.9h0.6
			c0.5,0,1-0.1,1.3-0.4c0.3-0.2,0.5-0.6,0.5-1.3c0-0.4-0.1-0.7-0.4-1S157.2,223,156.6,223L156.6,223z"/>
		<path d="M176.9,233.2h-4.6l-4.7-9.1h-0.1c0,0.3,0.1,0.6,0.1,1s0,0.8,0.1,1.2s0,0.8,0,1.1v5.8h-3.1v-12.9h4.5l4.7,8.9h0.1
			c0-0.3,0-0.6-0.1-1c0-0.4,0-0.8-0.1-1.1c0-0.4,0-0.7,0-1v-5.8h3.1L176.9,233.2L176.9,233.2z"/>
		<path d="M196.6,233.2H192l-4.7-9.1h-0.1c0,0.3,0.1,0.6,0.1,1s0,0.8,0.1,1.2s0,0.8,0,1.1v5.8h-3.1v-12.9h4.5l4.7,8.9h0.1
			c0-0.3,0-0.6-0.1-1c0-0.4,0-0.8-0.1-1.1c0-0.4,0-0.7,0-1v-5.8h3.1L196.6,233.2L196.6,233.2z"/>
		<path d="M210.3,220.4v7.7c0,1.1-0.2,2-0.6,2.8c-0.4,0.8-1,1.4-1.9,1.8s-1.9,0.6-3.1,0.6c-1.8,0-3.1-0.4-4.1-1.4
			c-0.9-0.9-1.4-2.2-1.4-3.9v-7.8h3.5v7.6c0,0.9,0.2,1.6,0.5,2c0.3,0.4,0.8,0.6,1.5,0.6c0.5,0,0.9-0.1,1.2-0.3s0.5-0.5,0.7-0.9
			s0.2-0.9,0.2-1.5v-7.5L210.3,220.4L210.3,220.4z"/>
		<path d="M218.6,233.2L216,224h-0.1c0,0.2,0.1,0.6,0.1,1c0,0.4,0.1,0.9,0.1,1.3s0,0.9,0,1.4v5.6H213v-12.9h4.6l2.7,9.1h0.1l2.6-9.1
			h4.6v12.9h-3.2v-5.6c0-0.4,0-0.8,0-1.3s0-0.9,0.1-1.3s0-0.7,0.1-1h-0.1l-2.6,9.2L218.6,233.2L218.6,233.2z"/>
		<path d="M230.4,220.4h4.5c1.9,0,3.2,0.3,4,0.8c0.8,0.6,1.2,1.3,1.2,2.4c0,0.6-0.1,1-0.3,1.4s-0.5,0.7-0.8,0.9s-0.6,0.4-0.9,0.5
			v0.1c0.4,0.1,0.7,0.2,1.1,0.4s0.6,0.5,0.9,0.9c0.2,0.4,0.4,0.9,0.4,1.6c0,0.8-0.2,1.4-0.6,2c-0.4,0.6-1,1-1.7,1.3
			s-1.6,0.4-2.6,0.4h-5L230.4,220.4L230.4,220.4z M233.9,225.3h1.1c0.6,0,1-0.1,1.2-0.4c0.2-0.2,0.4-0.5,0.4-0.9s-0.1-0.6-0.4-0.8
			c-0.3-0.2-0.7-0.3-1.2-0.3h-1L233.9,225.3L233.9,225.3z M233.9,227.8v2.7h1.2c0.6,0,1-0.1,1.3-0.4s0.4-0.6,0.4-1
			c0-0.2-0.1-0.4-0.1-0.6c-0.1-0.2-0.3-0.4-0.5-0.5s-0.6-0.2-1-0.2H233.9L233.9,227.8z"/>
		<path d="M250.2,233.2h-7.6v-12.9h7.6v2.8H246v2h3.9v2.8H246v2.4h4.2V233.2L250.2,233.2z"/>
		<path d="M256.7,220.4c1.2,0,2.1,0.1,2.9,0.4c0.8,0.3,1.4,0.7,1.8,1.3s0.6,1.3,0.6,2.1c0,0.5-0.1,1-0.3,1.4s-0.4,0.8-0.8,1.1
			c-0.3,0.3-0.7,0.6-1.2,0.9l3.8,5.6h-3.9l-2.7-4.7h-0.9v4.7h-3.5v-12.9H256.7L256.7,220.4z M256.6,223h-0.7v2.9h0.6
			c0.5,0,1-0.1,1.3-0.4c0.3-0.2,0.5-0.6,0.5-1.3c0-0.4-0.1-0.7-0.4-1S257.2,223,256.6,223z"/>
		<path d="M273.1,229.3c0,0.7-0.2,1.4-0.5,2s-0.9,1.1-1.6,1.5c-0.7,0.4-1.7,0.6-2.9,0.6c-0.6,0-1.1,0-1.5-0.1s-0.9-0.1-1.2-0.3
			c-0.4-0.1-0.8-0.3-1.2-0.5v-3.1c0.7,0.4,1.4,0.6,2.1,0.8c0.7,0.2,1.4,0.3,1.9,0.3c0.4,0,0.6,0,0.9-0.1s0.4-0.2,0.5-0.3
			c0.1-0.1,0.2-0.3,0.2-0.5c0-0.2-0.1-0.4-0.2-0.6s-0.4-0.3-0.7-0.5s-0.8-0.4-1.4-0.6c-0.5-0.2-0.9-0.4-1.3-0.7
			c-0.4-0.2-0.7-0.5-1-0.8c-0.3-0.3-0.5-0.7-0.6-1.1s-0.2-0.9-0.2-1.4c0-0.8,0.2-1.5,0.6-2.1c0.4-0.6,1-1,1.7-1.3
			c0.7-0.3,1.6-0.4,2.5-0.4c0.8,0,1.6,0.1,2.3,0.3s1.3,0.4,1.8,0.6l-1.1,2.7c-0.5-0.2-1.1-0.4-1.6-0.6c-0.5-0.1-1-0.2-1.5-0.2
			c-0.3,0-0.5,0-0.7,0.1s-0.3,0.2-0.4,0.3s-0.1,0.3-0.1,0.4c0,0.2,0.1,0.4,0.2,0.5c0.2,0.2,0.4,0.3,0.8,0.5c0.4,0.2,0.9,0.4,1.5,0.7
			c0.6,0.3,1.2,0.6,1.6,0.9s0.8,0.7,1,1.2S273.1,228.6,273.1,229.3L273.1,229.3z"/>
	</g>
	<g>
		<circle class="st3" cx="87.9" cy="146.9" r="13"/>
		<path d="M87.9,160.9c-7.7,0-14-6.3-14-14s6.3-14,14-14s14,6.3,14,14S95.6,160.9,87.9,160.9z M87.9,134.9c-6.6,0-12,5.4-12,12
			s5.4,12,12,12s12-5.4,12-12S94.5,134.9,87.9,134.9z"/>
	</g>
	<g>
		<path d="M112.4,146.1v-2.4h8.9v2.4H112.4z M112.4,150.1v-2.4h8.9v2.4H112.4z"/>
		<path d="M139.1,146.5c0,1.5-0.3,2.7-0.8,3.7c-0.6,1-1.3,1.7-2.4,2.2c-1,0.5-2.2,0.7-3.6,0.7h-4.2v-12.9h4.4c1.4,0,2.6,0.2,3.5,0.7
			s1.7,1.2,2.2,2.1C138.8,144.1,139.1,145.2,139.1,146.5L139.1,146.5z M135.5,146.6c0-0.8-0.1-1.4-0.3-1.9s-0.5-0.9-0.9-1.1
			s-0.9-0.4-1.6-0.4h-1v7.2h0.8c1.1,0,1.8-0.3,2.3-0.9S135.5,147.9,135.5,146.6L135.5,146.6z"/>
		<path d="M145.6,140.4c1.2,0,2.1,0.1,2.9,0.4c0.8,0.3,1.4,0.7,1.8,1.3s0.6,1.3,0.6,2.1c0,0.5-0.1,1-0.3,1.4s-0.4,0.8-0.8,1.1
			c-0.3,0.3-0.7,0.6-1.2,0.9l3.8,5.6h-3.9l-2.7-4.7h-0.9v4.7h-3.5v-12.9H145.6L145.6,140.4z M145.6,143h-0.7v2.9h0.6
			c0.5,0,1-0.1,1.3-0.4c0.3-0.2,0.5-0.6,0.5-1.3c0-0.4-0.1-0.7-0.4-1S146.2,143,145.6,143L145.6,143z"/>
		<path d="M162,149.3c0,0.7-0.2,1.4-0.5,2s-0.9,1.1-1.6,1.5s-1.7,0.6-2.9,0.6c-0.6,0-1.1,0-1.5-0.1c-0.4-0.1-0.9-0.1-1.2-0.3
			c-0.4-0.1-0.8-0.3-1.2-0.5v-3.1c0.7,0.4,1.4,0.6,2.1,0.8c0.7,0.2,1.4,0.3,1.9,0.3c0.4,0,0.6,0,0.9-0.1s0.4-0.2,0.5-0.3
			c0.1-0.1,0.2-0.3,0.2-0.5c0-0.2-0.1-0.4-0.2-0.6s-0.4-0.3-0.7-0.5c-0.3-0.2-0.8-0.4-1.4-0.6c-0.5-0.2-0.9-0.4-1.3-0.7
			c-0.4-0.2-0.7-0.5-1-0.8c-0.3-0.3-0.5-0.7-0.6-1.1c-0.1-0.4-0.2-0.9-0.2-1.4c0-0.8,0.2-1.5,0.6-2.1s1-1,1.7-1.3
			c0.7-0.3,1.6-0.4,2.5-0.4c0.8,0,1.6,0.1,2.3,0.3s1.3,0.4,1.8,0.6l-1.1,2.7c-0.6-0.2-1.1-0.4-1.6-0.6c-0.5-0.1-1-0.2-1.5-0.2
			c-0.3,0-0.5,0-0.7,0.1s-0.3,0.2-0.4,0.3s-0.1,0.3-0.1,0.4c0,0.2,0.1,0.4,0.2,0.5c0.2,0.2,0.4,0.3,0.8,0.5c0.4,0.2,0.9,0.4,1.5,0.7
			c0.6,0.3,1.2,0.6,1.6,0.9s0.8,0.7,1,1.2S162,148.6,162,149.3L162,149.3z"/>
		<path d="M179.6,146.5c0,1.5-0.3,2.7-0.8,3.7c-0.6,1-1.3,1.7-2.4,2.2c-1,0.5-2.2,0.7-3.6,0.7h-4.2v-12.9h4.4c1.4,0,2.6,0.2,3.5,0.7
			s1.7,1.2,2.2,2.1C179.3,144.1,179.6,145.2,179.6,146.5L179.6,146.5z M176,146.6c0-0.8-0.1-1.4-0.3-1.9s-0.5-0.9-0.9-1.1
			s-0.9-0.4-1.6-0.4h-1v7.2h0.8c1.1,0,1.8-0.3,2.3-0.9S176,147.9,176,146.6L176,146.6z"/>
		<path d="M189.5,153.2h-7.6v-12.9h7.6v2.8h-4.2v2h3.9v2.8h-3.9v2.4h4.2V153.2L189.5,153.2z"/>
		<path d="M197.4,153.2H194v-10h-3.1v-2.8h9.8v2.8h-3.1L197.4,153.2L197.4,153.2z"/>
		<path d="M210.1,153.2h-7.6v-12.9h7.6v2.8h-4.2v2h3.9v2.8h-3.9v2.4h4.2V153.2L210.1,153.2z"/>
		<path d="M218,143c-0.4,0-0.8,0.1-1.1,0.3s-0.6,0.4-0.8,0.8s-0.4,0.7-0.5,1.2c-0.1,0.5-0.2,1-0.2,1.6c0,0.8,0.1,1.5,0.3,2
			c0.2,0.6,0.5,1,0.9,1.2s0.9,0.4,1.6,0.4c0.6,0,1.1-0.1,1.7-0.2s1.1-0.4,1.6-0.6v2.9c-0.6,0.2-1.1,0.4-1.8,0.6
			c-0.6,0.1-1.2,0.2-1.9,0.2c-1.4,0-2.5-0.3-3.4-0.8s-1.5-1.3-2-2.3c-0.4-1-0.6-2.1-0.6-3.4c0-1,0.1-1.9,0.4-2.7s0.7-1.5,1.2-2.1
			s1.2-1.1,2-1.4c0.8-0.3,1.7-0.5,2.7-0.5c0.6,0,1.3,0.1,2,0.2c0.7,0.1,1.4,0.4,2,0.7l-1.1,2.7c-0.5-0.2-0.9-0.4-1.4-0.6
			S218.6,143,218,143L218,143z"/>
		<path d="M229.7,153.2h-3.5v-10h-3.1v-2.8h9.8v2.8h-3.1L229.7,153.2L229.7,153.2z"/>
		<path d="M234.6,153.2v-12.9h3.5v12.9H234.6z"/>
		<path d="M252.9,146.8c0,1-0.1,1.9-0.4,2.7s-0.6,1.5-1.1,2.1c-0.5,0.6-1.1,1-1.9,1.4c-0.8,0.3-1.7,0.5-2.8,0.5s-2-0.2-2.8-0.5
			c-0.8-0.3-1.4-0.8-1.9-1.4c-0.5-0.6-0.9-1.3-1.1-2.1c-0.2-0.8-0.4-1.7-0.4-2.7c0-1.3,0.2-2.5,0.7-3.5s1.1-1.8,2.1-2.3
			s2.1-0.8,3.6-0.8s2.7,0.3,3.6,0.8s1.6,1.3,2,2.3C252.7,144.3,253,145.4,252.9,146.8L252.9,146.8z M244.1,146.8
			c0,0.8,0.1,1.4,0.3,2s0.5,1,0.8,1.3c0.4,0.3,0.9,0.4,1.5,0.4s1.1-0.1,1.5-0.4s0.6-0.7,0.8-1.3s0.2-1.2,0.2-2
			c0-1.2-0.2-2.1-0.6-2.8s-1.1-1-2-1c-0.6,0-1.1,0.1-1.5,0.5c-0.4,0.3-0.7,0.7-0.8,1.3S244.1,146,244.1,146.8L244.1,146.8z"/>
		<path d="M267.5,153.2H263l-4.7-9.1h-0.1c0,0.3,0.1,0.6,0.1,1s0,0.8,0.1,1.2s0,0.8,0,1.1v5.8h-3.1v-12.9h4.5l4.7,8.9h0
			c0-0.3,0-0.6,0-1c0-0.4,0-0.8,0-1.1c0-0.4,0-0.7,0-1v-5.8h3.1V153.2L267.5,153.2z"/>
		<path d="M284.1,153.2h-10v-2.1l5.6-7.9h-5.4v-2.8h9.8v2.1l-5.6,7.9h5.7V153.2z"/>
		<path d="M298,146.8c0,1-0.1,1.9-0.4,2.7s-0.6,1.5-1.1,2.1c-0.5,0.6-1.1,1-1.9,1.4c-0.8,0.3-1.7,0.5-2.8,0.5s-2-0.2-2.8-0.5
			c-0.8-0.3-1.4-0.8-2-1.4c-0.5-0.6-0.9-1.3-1.1-2.1c-0.2-0.8-0.4-1.7-0.4-2.7c0-1.3,0.2-2.5,0.7-3.5s1.1-1.8,2-2.3s2.1-0.8,3.5-0.8
			s2.7,0.3,3.6,0.8s1.6,1.3,2,2.3S298,145.4,298,146.8L298,146.8z M289.2,146.8c0,0.8,0.1,1.4,0.3,2s0.5,1,0.8,1.3
			c0.4,0.3,0.9,0.4,1.5,0.4s1.1-0.1,1.5-0.4s0.6-0.7,0.8-1.3s0.2-1.2,0.2-2c0-1.2-0.2-2.1-0.6-2.8s-1-1-2-1c-0.6,0-1.1,0.1-1.5,0.5
			c-0.4,0.3-0.7,0.7-0.8,1.3S289.2,146,289.2,146.8L289.2,146.8z"/>
		<path d="M312.6,153.2H308l-4.7-9.1h-0.1c0,0.3,0.1,0.6,0.1,1s0,0.8,0.1,1.2s0,0.8,0,1.1v5.8h-3.1v-12.9h4.5l4.7,8.9h0
			c0-0.3,0-0.6,0-1c0-0.4,0-0.8,0-1.1c0-0.4,0-0.7,0-1v-5.8h3.1L312.6,153.2L312.6,153.2z"/>
		<path d="M323,153.2h-7.6v-12.9h7.6v2.8h-4.2v2h3.9v2.8h-3.9v2.4h4.2V153.2L323,153.2z"/>
	</g>
	<g>
		<path d="M112.4,185.1v-2.4h8.9v2.4H112.4z M112.4,189.1v-2.4h8.9v2.4H112.4z"/>
		<path d="M139.1,185.5c0,1.5-0.3,2.7-0.8,3.7c-0.6,1-1.3,1.7-2.4,2.2c-1,0.5-2.2,0.7-3.6,0.7h-4.2v-12.9h4.4c1.4,0,2.6,0.2,3.5,0.7
			s1.7,1.2,2.2,2.1C138.8,183.1,139.1,184.2,139.1,185.5L139.1,185.5z M135.5,185.6c0-0.8-0.1-1.4-0.3-1.9s-0.5-0.9-0.9-1.1
			s-0.9-0.4-1.6-0.4h-1v7.2h0.8c1.1,0,1.8-0.3,2.3-0.9S135.5,186.9,135.5,185.6L135.5,185.6z"/>
		<path d="M145.6,179.4c1.2,0,2.1,0.1,2.9,0.4c0.8,0.3,1.4,0.7,1.8,1.3s0.6,1.3,0.6,2.1c0,0.5-0.1,1-0.3,1.4s-0.4,0.8-0.8,1.1
			c-0.3,0.3-0.7,0.6-1.2,0.9l3.8,5.6h-3.9l-2.7-4.7h-0.9v4.7h-3.5v-12.9H145.6L145.6,179.4z M145.6,182h-0.7v2.9h0.6
			c0.5,0,1-0.1,1.3-0.4c0.3-0.2,0.5-0.6,0.5-1.3c0-0.4-0.1-0.7-0.4-1S146.2,182,145.6,182L145.6,182z"/>
		<path d="M162,188.3c0,0.7-0.2,1.4-0.5,2s-0.9,1.1-1.6,1.5s-1.7,0.6-2.9,0.6c-0.6,0-1.1,0-1.5-0.1c-0.4-0.1-0.9-0.1-1.2-0.3
			c-0.4-0.1-0.8-0.3-1.2-0.5v-3.1c0.7,0.4,1.4,0.6,2.1,0.8c0.7,0.2,1.4,0.3,1.9,0.3c0.4,0,0.6,0,0.9-0.1s0.4-0.2,0.5-0.3
			c0.1-0.1,0.2-0.3,0.2-0.5c0-0.2-0.1-0.4-0.2-0.6s-0.4-0.3-0.7-0.5c-0.3-0.2-0.8-0.4-1.4-0.6c-0.5-0.2-0.9-0.4-1.3-0.7
			c-0.4-0.2-0.7-0.5-1-0.8c-0.3-0.3-0.5-0.7-0.6-1.1c-0.1-0.4-0.2-0.9-0.2-1.4c0-0.8,0.2-1.5,0.6-2.1s1-1,1.7-1.3
			c0.7-0.3,1.6-0.4,2.5-0.4c0.8,0,1.6,0.1,2.3,0.3s1.3,0.4,1.8,0.6l-1.1,2.7c-0.6-0.2-1.1-0.4-1.6-0.6c-0.5-0.1-1-0.2-1.5-0.2
			c-0.3,0-0.5,0-0.7,0.1s-0.3,0.2-0.4,0.3s-0.1,0.3-0.1,0.4c0,0.2,0.1,0.4,0.2,0.5c0.2,0.2,0.4,0.3,0.8,0.5c0.4,0.2,0.9,0.4,1.5,0.7
			c0.6,0.3,1.2,0.6,1.6,0.9s0.8,0.7,1,1.2S162,187.6,162,188.3L162,188.3z"/>
		<path d="M177.8,192.2h-10v-2.1l5.6-7.9h-5.4v-2.8h9.8v2.1l-5.6,7.9h5.7V192.2z"/>
		<path d="M191.7,185.8c0,1-0.1,1.9-0.4,2.7s-0.6,1.5-1.1,2.1c-0.5,0.6-1.1,1-1.9,1.4c-0.8,0.3-1.7,0.5-2.8,0.5s-2-0.2-2.8-0.5
			c-0.8-0.3-1.4-0.8-1.9-1.4c-0.5-0.6-0.9-1.3-1.1-2.1c-0.2-0.8-0.4-1.7-0.4-2.7c0-1.3,0.2-2.5,0.7-3.5s1.1-1.8,2.1-2.3
			s2.1-0.8,3.6-0.8s2.7,0.3,3.6,0.8s1.6,1.3,2,2.3C191.5,183.3,191.7,184.4,191.7,185.8L191.7,185.8z M182.9,185.8
			c0,0.8,0.1,1.4,0.3,2s0.5,1,0.8,1.3c0.4,0.3,0.9,0.4,1.5,0.4s1.1-0.1,1.5-0.4s0.6-0.7,0.8-1.3s0.2-1.2,0.2-2
			c0-1.2-0.2-2.1-0.6-2.8s-1.1-1-2-1c-0.6,0-1.1,0.1-1.5,0.5c-0.4,0.3-0.7,0.7-0.8,1.3S182.9,185,182.9,185.8L182.9,185.8z"/>
		<path d="M206.3,192.2h-4.6l-4.7-9.1h-0.1c0,0.3,0.1,0.6,0.1,1s0,0.8,0.1,1.2s0,0.8,0,1.1v5.8H194v-12.9h4.5l4.7,8.9h0.1
			c0-0.3,0-0.6-0.1-1c0-0.4,0-0.8-0.1-1.1c0-0.4,0-0.7,0-1v-5.8h3.1L206.3,192.2L206.3,192.2z"/>
		<path d="M216.7,192.2h-7.6v-12.9h7.6v2.8h-4.2v2h3.9v2.8h-3.9v2.4h4.2V192.2L216.7,192.2z"/>
		<path d="M227.4,188.3c0,0.7-0.2,1.4-0.5,2s-0.9,1.1-1.6,1.5s-1.7,0.6-2.9,0.6c-0.6,0-1.1,0-1.5-0.1c-0.4-0.1-0.9-0.1-1.2-0.3
			c-0.4-0.1-0.8-0.3-1.2-0.5v-3.1c0.7,0.4,1.4,0.6,2.1,0.8c0.7,0.2,1.4,0.3,1.9,0.3c0.4,0,0.6,0,0.9-0.1s0.4-0.2,0.5-0.3
			c0.1-0.1,0.2-0.3,0.2-0.5c0-0.2-0.1-0.4-0.2-0.6s-0.4-0.3-0.7-0.5c-0.3-0.2-0.8-0.4-1.4-0.6c-0.5-0.2-0.9-0.4-1.3-0.7
			c-0.4-0.2-0.7-0.5-1-0.8c-0.3-0.3-0.5-0.7-0.6-1.1c-0.1-0.4-0.2-0.9-0.2-1.4c0-0.8,0.2-1.5,0.6-2.1s1-1,1.7-1.3
			c0.7-0.3,1.6-0.4,2.5-0.4c0.8,0,1.6,0.1,2.3,0.3s1.3,0.4,1.8,0.6l-1.1,2.7c-0.6-0.2-1.1-0.4-1.6-0.6c-0.5-0.1-1-0.2-1.5-0.2
			c-0.3,0-0.5,0-0.7,0.1s-0.3,0.2-0.4,0.3s-0.1,0.3-0.1,0.4c0,0.2,0.1,0.4,0.2,0.5c0.2,0.2,0.4,0.3,0.8,0.5c0.4,0.2,0.9,0.4,1.5,0.7
			c0.6,0.3,1.2,0.6,1.6,0.9s0.8,0.7,1,1.2S227.4,187.6,227.4,188.3L227.4,188.3z"/>
	</g>
	<path class="st3" d="M100.9,197.9h-2.5v-23h2.5V197.9z M95.4,197.9h-3v-23h3V197.9z M89.4,197.9h-3v-23h3V197.9z M83.4,197.9h-3
		v-23h3V197.9z M77.4,197.9h-3v-23h3V197.9z"/>
	<g>
		<path class="st4" d="M87.3,225.7c0,0.8-0.1,1.6-0.2,2.3s-0.3,1.2-0.6,1.7s-0.7,0.8-1.2,1.1c-0.5,0.2-1.1,0.4-1.8,0.4
			c-0.9,0-1.6-0.2-2.2-0.6c-0.6-0.4-1-1-1.2-1.8c-0.3-0.8-0.4-1.8-0.4-2.9s0.1-2.1,0.4-2.9s0.6-1.4,1.2-1.9c0.6-0.4,1.3-0.6,2.2-0.6
			c0.9,0,1.6,0.2,2.2,0.6c0.6,0.4,1,1,1.2,1.9C87.2,223.6,87.3,224.5,87.3,225.7L87.3,225.7z M82.6,225.7c0,0.7,0,1.3,0.1,1.7
			c0.1,0.5,0.2,0.8,0.3,1s0.3,0.4,0.6,0.4s0.5-0.1,0.6-0.4s0.2-0.6,0.3-1s0.1-1,0.1-1.7s0-1.3-0.1-1.7s-0.2-0.8-0.3-1.1
			s-0.3-0.4-0.6-0.4s-0.5,0.1-0.6,0.4c-0.1,0.2-0.2,0.6-0.3,1.1S82.6,225,82.6,225.7z"/>
		<path class="st4" d="M94.6,230.9h-2.9v-5.7c0-0.3,0-0.5,0-0.9c0-0.3,0-0.6,0-0.8c-0.1,0.1-0.2,0.3-0.3,0.4s-0.2,0.2-0.3,0.3
			l-1.2,1l-1.5-1.8l3.6-2.9h2.6L94.6,230.9L94.6,230.9z"/>
	</g>
</g>
<g id="_">
	<g>
		<path d="M925.7,675c-6,0-10.9-4.9-10.9-10.9s4.9-10.9,10.9-10.9s10.9,4.9,10.9,10.9S931.7,675,925.7,675z"/>
		<path d="M925.7,654.3c5.5,0,9.9,4.4,9.9,9.9s-4.4,9.9-9.9,9.9s-9.9-4.4-9.9-9.9S920.2,654.3,925.7,654.3 M925.7,652.3
			c-6.5,0-11.9,5.3-11.9,11.9s5.3,11.9,11.9,11.9s11.9-5.3,11.9-11.9S932.3,652.3,925.7,652.3L925.7,652.3z"/>
	</g>
	<text transform="matrix(1 0 0 1 918.79 668.08)" class="st4 st5 st6">22</text>
</g>
<g id="_-2">
	<g>
		<path d="M979.7,603c-6,0-10.9-4.9-10.9-10.9s4.9-10.9,10.9-10.9s10.9,4.9,10.9,10.9S985.7,603,979.7,603z"/>
		<path d="M979.7,582.3c5.5,0,9.9,4.4,9.9,9.9s-4.4,9.9-9.9,9.9s-9.9-4.4-9.9-9.9S974.2,582.3,979.7,582.3 M979.7,580.3
			c-6.5,0-11.9,5.3-11.9,11.9s5.3,11.9,11.9,11.9s11.9-5.3,11.9-11.9S986.3,580.3,979.7,580.3L979.7,580.3z"/>
	</g>
	<text transform="matrix(1 0 0 1 972.79 596.08)" class="st4 st5 st6">23</text>
</g>
<g id="_-3">
	<g>
		<path d="M725.7,655c-6,0-10.9-4.9-10.9-10.9s4.9-10.9,10.9-10.9s10.9,4.9,10.9,10.9S731.7,655,725.7,655z"/>
		<path d="M725.7,634.3c5.5,0,9.9,4.4,9.9,9.9s-4.4,9.9-9.9,9.9s-9.9-4.4-9.9-9.9S720.2,634.3,725.7,634.3 M725.7,632.3
			c-6.5,0-11.9,5.3-11.9,11.9s5.3,11.9,11.9,11.9s11.9-5.3,11.9-11.9S732.3,632.3,725.7,632.3L725.7,632.3z"/>
	</g>
	<text transform="matrix(1 0 0 1 718.79 648.08)" class="st4 st5 st6">21</text>
</g>
<g id="_-4">
	<g>
		<path d="M745.7,575c-6,0-10.9-4.9-10.9-10.9s4.9-10.9,10.9-10.9s10.9,4.9,10.9,10.9S751.7,575,745.7,575z"/>
		<path d="M745.7,554.3c5.5,0,9.9,4.4,9.9,9.9s-4.4,9.9-9.9,9.9s-9.9-4.4-9.9-9.9S740.2,554.3,745.7,554.3 M745.7,552.3
			c-6.5,0-11.9,5.3-11.9,11.9s5.3,11.9,11.9,11.9s11.9-5.3,11.9-11.9S752.3,552.3,745.7,552.3L745.7,552.3z"/>
	</g>
	<text transform="matrix(1 0 0 1 738.79 568.08)" class="st4 st5 st6">20</text>
</g>
<g id="_-5">
	<g>
		<path d="M619.7,565c-6,0-10.9-4.9-10.9-10.9s4.9-10.9,10.9-10.9s10.9,4.9,10.9,10.9S625.7,565,619.7,565z"/>
		<path d="M619.7,544.3c5.5,0,9.9,4.4,9.9,9.9s-4.4,9.9-9.9,9.9s-9.9-4.4-9.9-9.9S614.2,544.3,619.7,544.3 M619.7,542.3
			c-6.5,0-11.9,5.3-11.9,11.9s5.3,11.9,11.9,11.9s11.9-5.3,11.9-11.9S626.3,542.3,619.7,542.3L619.7,542.3z"/>
	</g>
	<text transform="matrix(1 0 0 1 612.79 558.08)" class="st4 st5 st6">19</text>
</g>
<g id="_-6">
	<g>
		<path d="M625.7,666c-6,0-10.9-4.9-10.9-10.9s4.9-10.9,10.9-10.9s10.9,4.9,10.9,10.9S631.7,666,625.7,666z"/>
		<path d="M625.7,645.3c5.5,0,9.9,4.4,9.9,9.9s-4.4,9.9-9.9,9.9s-9.9-4.4-9.9-9.9S620.2,645.3,625.7,645.3 M625.7,643.3
			c-6.5,0-11.9,5.3-11.9,11.9s5.3,11.9,11.9,11.9s11.9-5.3,11.9-11.9S632.3,643.3,625.7,643.3L625.7,643.3z"/>
	</g>
	<text transform="matrix(1 0 0 1 618.79 659.08)" class="st4 st5 st6">18</text>
</g>
<g id="_-7">
	<g>
		<path d="M472.7,651c-6,0-10.9-4.9-10.9-10.9s4.9-10.9,10.9-10.9s10.9,4.9,10.9,10.9S478.7,651,472.7,651z"/>
		<path d="M472.7,630.3c5.5,0,9.9,4.4,9.9,9.9s-4.4,9.9-9.9,9.9s-9.9-4.4-9.9-9.9S467.2,630.3,472.7,630.3 M472.7,628.3
			c-6.5,0-11.9,5.3-11.9,11.9s5.3,11.9,11.9,11.9s11.9-5.3,11.9-11.9S479.3,628.3,472.7,628.3L472.7,628.3z"/>
	</g>
	<text transform="matrix(1 0 0 1 465.79 644.08)" class="st4 st5 st6">17</text>
</g>
<g id="_-8">
	<g>
		<path d="M501.7,560c-6,0-10.9-4.9-10.9-10.9s4.9-10.9,10.9-10.9s10.9,4.9,10.9,10.9S507.7,560,501.7,560L501.7,560z"/>
		<path d="M501.7,539.3c5.5,0,9.9,4.4,9.9,9.9s-4.4,9.9-9.9,9.9s-9.9-4.4-9.9-9.9S496.2,539.3,501.7,539.3 M501.7,537.3
			c-6.5,0-11.9,5.3-11.9,11.9s5.3,11.9,11.9,11.9s11.9-5.3,11.9-11.9S508.3,537.3,501.7,537.3L501.7,537.3L501.7,537.3z"/>
	</g>
	<text transform="matrix(1 0 0 1 494.79 553.08)" class="st4 st5 st6">16</text>
</g>
<g id="_-9">
	<g>
		<path d="M409.7,590c-6,0-10.9-4.9-10.9-10.9s4.9-10.9,10.9-10.9s10.9,4.9,10.9,10.9S415.7,590,409.7,590z"/>
		<path d="M409.7,569.3c5.5,0,9.9,4.4,9.9,9.9s-4.4,9.9-9.9,9.9s-9.9-4.4-9.9-9.9S404.2,569.3,409.7,569.3 M409.7,567.3
			c-6.5,0-11.9,5.3-11.9,11.9s5.3,11.9,11.9,11.9s11.9-5.3,11.9-11.9S416.3,567.3,409.7,567.3L409.7,567.3z"/>
	</g>
	<text transform="matrix(1 0 0 1 402.79 583.08)" class="st4 st5 st6">15</text>
</g>
<g id="_-10">
	<g>
		<path d="M299.7,510c-6,0-10.9-4.9-10.9-10.9s4.9-10.9,10.9-10.9s10.9,4.9,10.9,10.9S305.7,510,299.7,510z"/>
		<path d="M299.7,489.3c5.5,0,9.9,4.4,9.9,9.9s-4.4,9.9-9.9,9.9s-9.9-4.4-9.9-9.9S294.2,489.3,299.7,489.3 M299.7,487.3
			c-6.5,0-11.9,5.3-11.9,11.9s5.3,11.9,11.9,11.9s11.9-5.3,11.9-11.9S306.3,487.3,299.7,487.3L299.7,487.3z"/>
	</g>
	<text transform="matrix(1 0 0 1 292.79 503.08)" class="st4 st5 st6">14</text>
</g>
<g id="_-11">
	<g>
		<path d="M197.7,820c-6,0-10.9-4.9-10.9-10.9s4.9-10.9,10.9-10.9s10.9,4.9,10.9,10.9S203.7,820,197.7,820z"/>
		<path d="M197.7,799.3c5.5,0,9.9,4.4,9.9,9.9s-4.4,9.9-9.9,9.9s-9.9-4.4-9.9-9.9S192.2,799.3,197.7,799.3 M197.7,797.3
			c-6.6,0-11.9,5.3-11.9,11.9s5.3,11.9,11.9,11.9s11.9-5.3,11.9-11.9S204.3,797.3,197.7,797.3L197.7,797.3z"/>
	</g>
	<text transform="matrix(1 0 0 1 190.79 813.08)" class="st4 st5 st6">13</text>
</g>
<g id="_-12">
	<g>
		<path d="M96.7,729c-6,0-10.9-4.9-10.9-10.9s4.9-10.9,10.9-10.9s10.9,4.9,10.9,10.9S102.7,729,96.7,729z"/>
		<path d="M96.7,708.3c5.5,0,9.9,4.4,9.9,9.9s-4.4,9.9-9.9,9.9s-9.9-4.4-9.9-9.9S91.2,708.3,96.7,708.3 M96.7,706.3
			c-6.6,0-11.9,5.3-11.9,11.9S90.2,730,96.7,730s11.9-5.3,11.9-11.9S103.3,706.3,96.7,706.3L96.7,706.3z"/>
	</g>
	<text transform="matrix(1 0 0 1 89.79 722.08)" class="st4 st5 st6">12</text>
</g>
<g id="_-13">
	<g>
		<path d="M132.7,644c-6,0-10.9-4.9-10.9-10.9s4.9-10.9,10.9-10.9s10.9,4.9,10.9,10.9S138.7,644,132.7,644z"/>
		<path d="M132.7,623.3c5.5,0,9.9,4.4,9.9,9.9s-4.4,9.9-9.9,9.9s-9.9-4.4-9.9-9.9S127.3,623.3,132.7,623.3 M132.7,621.3
			c-6.6,0-11.9,5.3-11.9,11.9s5.3,11.9,11.9,11.9c6.6,0,11.9-5.3,11.9-11.9S139.3,621.3,132.7,621.3L132.7,621.3z"/>
	</g>
	<text transform="matrix(1 0 0 1 125.79 637.08)" class="st4 st5 st6">11</text>
</g>
<g id="_-14">
	<g>
		<path d="M19.7,606c-6,0-10.9-4.9-10.9-10.9s4.9-10.9,10.9-10.9s10.9,4.9,10.9,10.9S25.7,606,19.7,606z"/>
		<path d="M19.7,585.3c5.5,0,9.9,4.4,9.9,9.9s-4.4,9.9-9.9,9.9s-9.9-4.4-9.9-9.9S14.2,585.3,19.7,585.3 M19.7,583.3
			c-6.6,0-11.9,5.3-11.9,11.9S13.2,607,19.7,607s11.9-5.3,11.9-11.9S26.3,583.3,19.7,583.3L19.7,583.3z"/>
	</g>
	<text transform="matrix(1 0 0 1 12.79 599.08)" class="st4 st5 st6">10</text>
</g>
<g id="_-15">
	<g>
		<path d="M184.7,351c-6,0-10.9-4.9-10.9-10.9s4.9-10.9,10.9-10.9s10.9,4.9,10.9,10.9S190.7,351,184.7,351z"/>
		<path d="M184.7,330.3c5.5,0,9.9,4.4,9.9,9.9s-4.4,9.9-9.9,9.9s-9.9-4.4-9.9-9.9S179.2,330.3,184.7,330.3 M184.7,328.3
			c-6.6,0-11.9,5.3-11.9,11.9s5.3,11.9,11.9,11.9s11.9-5.3,11.9-11.9S191.3,328.3,184.7,328.3L184.7,328.3z"/>
	</g>
	<text transform="matrix(1 0 0 1 177.79 344.08)" class="st4 st5 st6">09</text>
</g>
<g id="_-16">
	<g>
		<path d="M273.7,414c-6,0-10.9-4.9-10.9-10.9s4.9-10.9,10.9-10.9s10.9,4.9,10.9,10.9S279.7,414,273.7,414z"/>
		<path d="M273.7,393.3c5.5,0,9.9,4.4,9.9,9.9s-4.4,9.9-9.9,9.9s-9.9-4.4-9.9-9.9S268.2,393.3,273.7,393.3 M273.7,391.3
			c-6.5,0-11.9,5.3-11.9,11.9s5.3,11.9,11.9,11.9s11.9-5.3,11.9-11.9S280.3,391.3,273.7,391.3L273.7,391.3z"/>
	</g>
	<text transform="matrix(1 0 0 1 266.79 407.08)" class="st4 st5 st6">08</text>
</g>
<g id="_-17">
	<g>
		<path d="M554.7,427c-6,0-10.9-4.9-10.9-10.9s4.9-10.9,10.9-10.9s10.9,4.9,10.9,10.9S560.7,427,554.7,427z"/>
		<path d="M554.7,406.3c5.5,0,9.9,4.4,9.9,9.9s-4.4,9.9-9.9,9.9s-9.9-4.4-9.9-9.9S549.2,406.3,554.7,406.3 M554.7,404.3
			c-6.5,0-11.9,5.3-11.9,11.9s5.3,11.9,11.9,11.9s11.9-5.3,11.9-11.9S561.3,404.3,554.7,404.3L554.7,404.3z"/>
	</g>
	<text transform="matrix(1 0 0 1 547.79 420.08)" class="st4 st5 st6">06</text>
</g>
<g id="_-18">
	<g>
		<path d="M349.7,318c-6,0-10.9-4.9-10.9-10.9s4.9-10.9,10.9-10.9s10.9,4.9,10.9,10.9S355.7,318,349.7,318z"/>
		<path d="M349.7,297.3c5.5,0,9.9,4.4,9.9,9.9s-4.4,9.9-9.9,9.9s-9.9-4.4-9.9-9.9S344.2,297.3,349.7,297.3 M349.7,295.3
			c-6.5,0-11.9,5.3-11.9,11.9s5.3,11.9,11.9,11.9s11.9-5.3,11.9-11.9S356.3,295.3,349.7,295.3L349.7,295.3z"/>
	</g>
	<text transform="matrix(1 0 0 1 342.79 311.08)" class="st4 st5 st6">07</text>
</g>
<g id="_-19">
	<g>
		<path d="M819.7,445c-6,0-10.9-4.9-10.9-10.9s4.9-10.9,10.9-10.9s10.9,4.9,10.9,10.9S825.7,445,819.7,445z"/>
		<path d="M819.7,424.3c5.5,0,9.9,4.4,9.9,9.9s-4.4,9.9-9.9,9.9s-9.9-4.4-9.9-9.9S814.2,424.3,819.7,424.3 M819.7,422.3
			c-6.5,0-11.9,5.3-11.9,11.9s5.3,11.9,11.9,11.9s11.9-5.3,11.9-11.9S826.3,422.3,819.7,422.3L819.7,422.3z"/>
	</g>
	<text transform="matrix(1 0 0 1 812.79 438.08)" class="st4 st5 st6">05</text>
</g>
<g id="_-20">
	<g>
		<path d="M845.7,289c-6,0-10.9-4.9-10.9-10.9s4.9-10.9,10.9-10.9s10.9,4.9,10.9,10.9S851.7,289,845.7,289z"/>
		<path d="M845.7,268.3c5.5,0,9.9,4.4,9.9,9.9s-4.4,9.9-9.9,9.9s-9.9-4.4-9.9-9.9S840.2,268.3,845.7,268.3 M845.7,266.3
			c-6.5,0-11.9,5.3-11.9,11.9s5.3,11.9,11.9,11.9s11.9-5.3,11.9-11.9S852.3,266.3,845.7,266.3L845.7,266.3z"/>
	</g>
	<text transform="matrix(1 0 0 1 838.79 282.08)" class="st4 st5 st6">04</text>
</g>
<g id="_-21">
	<g>
		<path d="M821.7,195.1c-6,0-10.9-4.9-10.9-10.9s4.9-10.9,10.9-10.9s10.9,4.9,10.9,10.9S827.7,195.1,821.7,195.1z"/>
		<path d="M821.7,174.3c5.5,0,9.9,4.4,9.9,9.9s-4.4,9.9-9.9,9.9s-9.9-4.4-9.9-9.9S816.2,174.3,821.7,174.3 M821.7,172.3
			c-6.5,0-11.9,5.3-11.9,11.9s5.3,11.9,11.9,11.9s11.9-5.3,11.9-11.9S828.3,172.3,821.7,172.3L821.7,172.3z"/>
	</g>
	<text transform="matrix(1 0 0 1 814.79 188.08)" class="st4 st5 st6">03</text>
</g>
<g id="_-22">
	<g>
		<path d="M877.7,229.1c-6,0-10.9-4.9-10.9-10.9s4.9-10.9,10.9-10.9s10.9,4.9,10.9,10.9S883.7,229.1,877.7,229.1z"/>
		<path d="M877.7,208.3c5.5,0,9.9,4.4,9.9,9.9s-4.4,9.9-9.9,9.9s-9.9-4.4-9.9-9.9S872.2,208.3,877.7,208.3 M877.7,206.3
			c-6.5,0-11.9,5.3-11.9,11.9s5.3,11.9,11.9,11.9s11.9-5.3,11.9-11.9S884.3,206.3,877.7,206.3L877.7,206.3z"/>
	</g>
	<text transform="matrix(1 0 0 1 870.79 222.08)" class="st4 st5 st6">02</text>
</g>
<g id="_-23">
	<g>
		<path d="M934.7,251.1c-6,0-10.9-4.9-10.9-10.9s4.9-10.9,10.9-10.9s10.9,4.9,10.9,10.9S940.7,251.1,934.7,251.1z"/>
		<path d="M934.7,230.3c5.5,0,9.9,4.4,9.9,9.9s-4.4,9.9-9.9,9.9s-9.9-4.4-9.9-9.9S929.2,230.3,934.7,230.3 M934.7,228.3
			c-6.5,0-11.9,5.3-11.9,11.9s5.3,11.9,11.9,11.9s11.9-5.3,11.9-11.9S941.3,228.3,934.7,228.3L934.7,228.3z"/>
	</g>
	<text transform="matrix(1 0 0 1 927.79 244.08)" class="st4 st5 st6">01</text>
</g>
<g>
	<path class="st3" d="M910.3,494.2l-0.4-3l8.9-1.2l0.4,3L910.3,494.2z M909.5,488.2l-0.4-3l8.9-1.2l0.4,3L909.5,488.2z M908.7,482.3
		l-0.4-3l8.9-1.2l0.4,3L908.7,482.3z M907.9,476.3l-0.4-3l8.9-1.2l0.4,3L907.9,476.3z M907.1,470.3l-0.4-3l8.9-1.2l0.4,3
		L907.1,470.3z M906.3,464.4l-0.4-3l8.9-1.2l0.4,3L906.3,464.4z M905.5,458.4l-0.4-3l8.9-1.2l0.4,3L905.5,458.4z M904.6,452.5
		l-0.4-3l8.9-1.2l0.4,3L904.6,452.5z M903.8,446.5l-0.4-3l8.9-1.2l0.4,3L903.8,446.5z M903,440.6l-0.4-3l8.9-1.2l0.4,3L903,440.6z
		 M902.2,434.6l-0.4-3l8.9-1.2l0.4,3L902.2,434.6z M901.4,428.7l-0.4-3l8.9-1.2l0.4,3L901.4,428.7z M900.6,422.7l-0.4-3l8.9-1.2
		l0.4,3L900.6,422.7z M899.8,416.8l-0.4-3l8.9-1.2l0.4,3L899.8,416.8z M899,410.8l-0.4-3l8.9-1.2l0.4,3L899,410.8z M898.2,404.9
		l-0.4-3l8.9-1.2l0.4,3L898.2,404.9z M897.4,398.9l-0.4-3l8.9-1.2l0.4,3L897.4,398.9z M896.5,393l-0.4-3l8.9-1.2l0.4,3L896.5,393z
		 M895.7,387l-0.4-3l8.9-1.2l0.4,3L895.7,387z M894.9,381.1l-0.4-3l8.9-1.2l0.4,3L894.9,381.1z M894.1,375.1l-0.4-3l8.9-1.2l0.4,3
		L894.1,375.1z M893.3,369.2l-0.4-3l8.9-1.2l0.4,3L893.3,369.2z M892.5,363.2l-0.4-3l8.9-1.2l0.4,3L892.5,363.2z M891.7,357.3
		l-0.4-3l8.9-1.2l0.4,3L891.7,357.3z M890.8,351.3l-0.4-3l8.9-1.2l0.4,3L890.8,351.3z M890,345.4l-0.4-3l8.9-1.2l0.4,3L890,345.4z
		 M889.2,339.4l-0.4-3l8.9-1.2l0.4,3L889.2,339.4z M888.4,333.5l-0.4-3l8.9-1.2l0.4,3L888.4,333.5z M887.6,327.5l-0.4-3l8.9-1.2
		l0.4,3L887.6,327.5z M886.7,321.6l-0.4-3l8.9-1.2l0.4,3L886.7,321.6z M885.9,315.6l-0.4-3l8.9-1.2l0.4,3L885.9,315.6z M885.1,309.7
		l-0.4-3l8.9-1.3l0.4,3L885.1,309.7z M884.2,303.7l-0.4-3l8.9-1.3l0.4,3L884.2,303.7z M883.4,297.8l-0.4-3l8.9-1.3l0.4,3
		L883.4,297.8z M882.6,291.8l-0.4-3l8.9-1.3l0.4,3L882.6,291.8z M881.7,285.9l-0.4-3l8.9-1.3l0.4,3L881.7,285.9z M880.9,279.9
		l-0.4-3l8.9-1.3l0.4,3L880.9,279.9z M880,274l-0.3-2.2l8.9-1.3l0.3,2.2L880,274z"/>
</g>
</svg>
