<?xml version="1.0" encoding="utf-8"?>
<!-- Generator: Adobe Illustrator 26.3.1, SVG Export Plug-In . SVG Version: 6.00 Build 0)  -->
<svg version="1.1" id="Marina_Bay_Simple" xmlns="http://www.w3.org/2000/svg" xmlns:xlink="http://www.w3.org/1999/xlink" x="0px"
	 y="0px" viewBox="0 0 1000 1000" style="enable-background:new 0 0 1000 1000;" xml:space="preserve">
<style type="text/css">
	.st0{fill:#DB4A25;}
	.st1{fill:#FAE44A;}
	.st2{fill:#75E5FD;}
	.st3{fill:#1BCE20;}
</style>
<path class="st0" d="M428.1,395.3l65,38.7l0.1,0l0.1,0c49.5,29.1,69.7,32.5,80.6,32.5c0.7,0,1.5,0,2.2,0
	c21.3,1.4,154.9,10.1,211.8,12.9c9.8,0.5,18.6,0.7,26.1,0.7c20.5,0,51.5,0,61.7-26.8c2.8-7.2,3-15,1.1-22.2
	c-0.5-4-1.5-13.7-3.3-34.6c-3.4-39.8-29.9-99.7-33-106.4l-0.8-1.7l-0.2-0.3c-0.9-2.6-5.5-17-0.6-45.8c19.4,21,40.4,23.6,49.8,23.6
	c2.2,0,4.2-0.1,6.1-0.3l6.2,37.1c1.8,13,24,176.5,32.9,240.3h0.1l0.1,0h0.1l0.3,0h0l1.6-0.2l1-0.1l31.4-3.8h0.1
	c-9.2-65.5-33.1-241.3-33.1-241.3l-7-42c0,0,3.8-26.8-22.7-26.8c-3.8,0-8.2,0.6-13.3,1.8c0,0-1.4,0.4-3.9,0.4
	c-6.5,0-20.1-2.9-32.7-24.1c-2.2-3.7-5.2-6.8-8.9-8.9c-3.9-2.3-9.3-4.6-14.9-4.6c-9.6,0-20.1,6.8-25.7,32.3c-12,55,2,79,2,79
	s27,60,30,95s4,40,4,40s6.4,5.7-28.6,5.7c-6.6,0-14.6-0.2-24.4-0.7c-62-3-214-13-214-13s-0.5,0.2-1.6,0.2c-4.6,0-20.2-2.5-62.9-27.7
	l-65.5-39.1L428.1,395.3L428.1,395.3z M969.8,548.9h0.2l0.1,0c-0.3-1.9-0.6-3.9-0.9-6.2l-0.2,0l-31.4,3.8l-1,0.1l-1.5,0.2l-0.3,0
	l-0.2,0h0"/>
<path class="st1" d="M281,522c4.1-10.5,7.6-19.2,9.7-25.1c1.8-5.1,6.6-8.2,11.6-8.2c2.4,0,4.8,0.7,6.9,2.2
	c9,6.1,23.2,16.7,45.2,34.6c45,36.6,61.9,51.2,96.1,51.2c2.2,0,4.5-0.1,6.9-0.2l9-0.8c0,0,0.1,0,0.1,0c0.9,0,1.6,0.8,1.4,1.7
	c-2.3,10.4-10.7,60.4,39.5,63.1l112,6h0.2c2.1,0,17.2-0.9,22.8-26l6.5-29.7c0.3-1.3,1.4-2.2,2.7-2.2c0.1,0,0.1,0,0.2,0l61,4.7
	c0.9,0.1,1.6,0.8,1.6,1.7c0,8.5,2.8,48.8,52,51.4c55,3,153,8,153,8s0.6,0.2,1.8,0.2c4.1,0,15-2.4,28.2-24.2
	c17-28,27.4-34.5,21.7-73.2c-0.2-1.3-0.4-2.7-0.6-4.4h-0.1l-0.2,0h-0.2l-31.3,3.8l-1.3,0.2l-1.2,0.2h-0.1l-0.1,0l-0.3,0
	c0.3,2,0.5,3.8,0.8,5.3c1.5,9.9,1.6,16.7,0.4,20.8c-1,3.6-3.8,7.9-8.9,15.7c-2.5,3.9-5.4,8.3-8.5,13.5c-1.9,3.2-3.6,5.4-4.8,6.9
	c-22.8-1.2-100.2-5.1-146.4-7.7c-12.8-0.7-15.3-5-16.3-6.5c-2.1-3.4-2.6-8.1-2.6-10.1c-0.1-19-15-35-33.9-36.4l-61-4.7
	c-1-0.1-1.9-0.1-2.9-0.1c-17.6,0-33.1,12.5-36.8,29.7l-6,27.5l-99.4-5.3c-4.5-0.2-6.4-1.1-6.9-1.3c-1.3-2.2-2.1-10.2-0.4-18.6
	c2.1-10.4,0.3-21.4-6-30c-6.9-9.5-17.8-15-29.4-15c-1.1,0-2.2,0-3.2,0.2h0l-8.3,0.8c-1.6,0.1-3.1,0.1-4.5,0.1
	c-19.3,0-27.5-5.5-70-40.1l-4-3.3c-19.3-15.7-35.3-27.9-47.5-36.3c-7.9-5.4-17.2-8.3-26.8-8.3c-3.3,0-6.5,0.3-9.6,1l-8.7,2.7
	c-12,5-21.7,15-26.3,27.7c-1.9,5.4-4.9,13.4-9.3,24.7"/>
<path class="st2" d="M249,510c-2.6,6.7-6.8,15.6-10.4,24.6c-14.5,35.5-27.6,108.7-41,186.8c-1.5,8.5-2.9,16.9-4.2,24.4
	c-15.3-19.2-36.5-36.3-56-51.4c-0.9-0.8-3.8-5.2-5.8-15c-1.6-8.3-1.7-15.7-1.7-16.6l0.4-11.5c0.3-8.7-5.2-16.5-13.5-19.1l-11.4-3.6
	l-13.4-4.2c-13.8-7-16.7-12.9-23.2-26.2l-0.4-0.9c0-0.3,0.1-0.6,0.1-0.9c5.4-7,12.1-17.8,22.1-35.7c8.4-15,15.8-29.3,17.3-32.1
	L182,395.1c2.4-3.5,6.4-7.6,9.1-9.3c14.7,8.8,40.2,35.7,58.4,58.6c6.9,8.7,17.2,13.6,28.2,13.6c2.1,0,4.2-0.2,6.3-0.5l8.7-2.7
	c8-3.7,14.5-10.2,18.1-18.6l4.1-9.6c5.2-8,22.7-34.7,44.8-66.6c0.8-1.1,1.5-2.1,2.1-3c1.5,0.9,3.1,1.8,4.6,2.7l23,12.7l38.5,23
	l17.3-30.4L407,342l-23.5-13c-6.1-3.4-11.9-7.3-17.6-11.3c-1.5-1-3.4-1.9-6-1.9c-6.1,0-15.6,4.9-28.9,24.1c-27,39-47,70-47,70
	l-5.3,12.3c-0.2,0.4-0.6,0.6-1,0.6c-0.3,0-0.6-0.1-0.8-0.4c-6.9-8.6-43.8-54.1-70.9-68.6c-5.1-2.7-10-3.9-14.7-3.9
	c-22.8,0-39.3,26.9-39.3,26.9L77,512c0,0-27.8,53.9-38.1,65.2c-2.2,2.4-4,5.1-5.2,8.1c-2.6,6.8-2.8,15.2,3.2,27.4
	C45,629,52,644,79,657l16,5c0,0-1,43,21,60s48,38,59,59c5.8,11,16.7,17.7,26.7,17.7c9,0,17.3-5.4,20.5-17.7
	c6.7-26,28.2-182.9,48.7-233.2c4.1-10.1,7.6-18.8,10.5-26.2L249,510L249,510z"/>
<path d="M199.8,778.3c-0.7,0-1.4-0.2-2-0.7c-4.9-4-16.2-17-17.2-18.2l-27.9-26.9c-1.7-1.4-27.8-23.4-33.3-31.3
	c-4.7-6.8-5.9-23.9-6.8-36.4c-0.2-3-0.4-5.6-0.6-7.6c-0.8-8.2-0.8-8.4-20.8-14.7l-1.8-0.6c-0.9-0.3-1.8-0.5-2.7-0.8
	c-7.2-2-16.3-4.5-28.4-24.1c-12.6-20.3-9-27.7-8-29.1c5.3-9.4,111.6-198.4,116-205l0.4-0.6c4.1-6.1,11.6-17.4,26.4-16.3
	c9.5,0.7,30.9,22.5,55.9,48.8c7.1,7.5,13.2,13.9,17.3,17.8c5.9,5.5,11.1,7.8,15.5,6.7c5.5-1.4,10.3-8.1,14.3-19.8
	c0.4-1.2,6.7-10.6,26.6-40.4c8.5-12.8,17.4-26,22.6-34c2.1-3.3,9.6-13.7,16.5-10.7c7.1,3,29.4,17.5,30.3,18.2l43.9,26
	c0.4,0.2,30.4,19.5,51,31c67,37.3,85.3,37.8,85.9,37.8h0.2c2.5,0.1,246.5,14.5,260.7,13c21.6-2.3,24.9-10.4,25.2-18.1
	c0-1.7-2.4-21.5-4.3-37.4c-1.4-11.7-2.8-22.7-3.2-26.8c-0.8-7.7-20.2-57.6-30.4-82.9l-0.1-0.2c-0.2-0.6-4.1-15.5-3.1-35.6
	c1.4-28.8,8.3-38.6,11.2-42.9l0.1-0.2c0.7-1,1.7-1.6,2.9-1.6c0.1,0,0.2,0,0.3,0c4.6,0,11.8,7.2,13.9,9.4l0.2,0.2
	c0.1,0.1,6.9,9.7,18.4,16.4c16.8,9.8,28.9,6.3,35.4,4.5c3-0.9,5.1-1.4,6.7-0.4c3.5,2.3,4.6,12.3,4.9,15.4l24.4,146.2l15.3,123.9
	l-4,0.5l-15.3-123.8L908,260.1c-0.5-5.7-1.8-11.3-3-12.4l0,0c-0.6,0-2.2,0.4-3.5,0.8c-7.1,2-20.3,5.8-38.6-4.9
	c-11.7-6.8-18.6-16.2-19.5-17.5c-3.7-3.9-9.3-8.3-10.8-8.1l-0.1,0.1c-2.7,3.9-9.1,13.2-10.5,40.8c-0.9,18.5,2.6,32.9,2.9,34.3
	c1.8,4.4,29.6,73.9,30.6,83.9c0.4,4,1.8,15.1,3.2,26.7c2.7,21.9,4.4,36.3,4.3,38c-0.6,13.1-9.5,19.9-28.8,21.9
	c-14.4,1.5-250-12.3-261.2-13c0,0,0,0-0.1,0c-2.3,0-21.5-1.3-87.9-38.2c-20.6-11.5-50.8-30.9-51.1-31.1l-43.9-26
	c-0.3-0.2-23-15-29.8-17.9c-2.4-1-7.4,2.9-11.5,9.3c-5.3,8.1-14.1,21.3-22.7,34.1c-11.8,17.6-25.1,37.5-26.1,39.6
	c-4.4,13.3-10,20.6-17,22.4c-5.8,1.5-12.3-1.1-19.2-7.6c-4.2-3.9-10.3-10.4-17.5-17.9c-17.8-18.7-44.6-46.9-53.3-47.5
	c-12.5-1-18.7,8.4-22.8,14.5l-0.4,0.6C165.2,391.7,54.8,588,53.7,590l-0.2,0.3c-0.3,0.7-2.9,6.8,8.1,24.7
	c11.3,18.2,19.1,20.4,26.1,22.3c1,0.3,1.9,0.5,2.8,0.8l1.8,0.6c19.9,6.3,22.4,7.1,23.5,18.1c0.2,2.1,0.4,4.7,0.6,7.7
	c0.8,11.3,2,28.5,6.1,34.4c5.3,7.6,32.4,30.4,32.6,30.6l0.1,0.1l28.1,27.1c0.1,0.1,11.3,13.1,16.3,17.4c2.3-2.2,6.5-15.1,9.2-26.5
	c0.5-3.1,16.2-98.5,23-130c12.4-57.4,18.7-72.9,27.4-94.3c1.2-2.9,2.4-5.8,3.7-9c4-9.9,11-26.5,14-33.1c2.6-5.8,7.9-10.1,14.5-11.9
	c9.5-2.5,20.6,0.3,31.4,8.1c12.1,8.6,89.3,68.4,90.1,69c0.2,0.2,18,14.5,54.6,10.6c6-0.6,10.8,0.9,14.2,4.5
	c5.2,5.5,5.8,14.6,4.8,20.7c-1.7,10.3-1.1,31.1,8,34.9c8.2,3.4,85.3,7.5,114.3,8.8l0.2,0c0.5,0.1,13.2,1.4,16.8-17.4
	c4.1-21.6,9.8-41.4,23.2-39.6c10.8,1.4,63.9,5.3,66.1,5.4c1.9,0,20.2,0.8,21.7,27.1c1.2,22.2,14.9,25.8,28,26.5
	c10.5,0.5,149,7,149,7c0.5,0,11,0.6,19.2-14c5.5-9.7,18.3-31.2,19.9-33.8c0.3-1.3,1.6-8.1-0.1-21l4-0.5c2,15.2,0,22.5-0.1,22.8
	l-0.1,0.2l-0.1,0.2c-0.1,0.2-14.2,23.7-20,34c-9.5,16.9-22.4,16.1-22.9,16l0,0c0,0-138.4-6.5-148.9-7c-8.3-0.4-30.2-1.4-31.9-30.2
	c-1.3-23.5-17-23.3-17.7-23.3h-0.2c-2.2-0.2-55.4-4-66.4-5.5c-8.1-1.1-13.7,9.8-18.8,36.4c-4.1,21.5-19.5,20.8-21.1,20.6
	c-4.8-0.2-105.1-4.8-115.6-9.2c-11.9-4.9-12.1-28.6-10.4-39.2c0.9-5.6,0.1-13.2-3.8-17.3c-2.5-2.7-6.2-3.8-10.9-3.3
	c-38.4,4-56.7-10.8-57.5-11.5c-0.7-0.6-77.9-60.3-89.9-68.9c-9.8-7-19.8-9.7-28.1-7.5c-5.5,1.5-9.8,5-11.9,9.7
	c-3,6.6-10,23.1-14,32.9c-1.3,3.2-2.5,6.2-3.7,9c-8.7,21.2-14.9,36.6-27.2,93.6c-6.9,31.8-22.8,128.9-23,129.9l0,0.1
	c-2,8.3-7.1,27.9-12.1,29.7C200.4,778.2,200,778.2,199.8,778.3L199.8,778.3z M299.9,420.6L299.9,420.6z M905.1,247.8L905.1,247.8z"
	/>
<path d="M832.2,195.2c5.3,0,10.5,2.4,13.9,4.3c3.3,1.9,6.1,4.8,8.2,8.2c13,21.8,27.2,25.1,34.5,25.1c2.5,0,4-0.4,4.4-0.5
	c4.7-1.1,9-1.7,12.8-1.7c7.1,0,12.5,2,16,6.1c6.2,7.1,4.7,18.3,4.7,18.4l0,0.3l0,0.3l7,42c0.4,3,23.5,173.2,32.8,239.3l-29.5,3.6
	l-1,0.1l-0.3,0c-8.6-61.6-28.7-208.9-32.6-238l0-0.3v-0.1l-6.2-37.1l-0.3-1.9l-1.9,0.2c-1.9,0.2-3.9,0.3-5.8,0.3
	c-8.1,0-29.1-2.2-48.3-23l-2.8-3l-0.7,4c-5,29.3-0.3,44.2,0.7,46.8l0,0.1l0.1,0.1l0.2,0.3l0.7,1.6c3,6.7,29.4,66.3,32.8,105.7
	c1.8,21.4,2.9,30.9,3.3,34.7l0,0.1l0,0.1c1.9,7,1.5,14.3-1,21c-9.7,25.5-39.9,25.5-59.8,25.5c-7.5,0-16.2-0.2-26-0.7
	c-55.6-2.7-186.1-11.2-211.7-12.9H576c-0.6,0-1.2,0-2.1,0c-10.7,0-30.6-3.3-79.6-32.2l-0.1,0l-0.1-0.1l-103.5-61.7l0,0l0,0l-23-12.7
	c-1.6-0.9-3.1-1.8-4.6-2.6l-1.5-0.9l-1.1,1.4c-0.6,0.8-1.2,1.7-2.2,3c-22.2,32.1-39.9,59.1-44.8,66.7l-0.1,0.1l-0.1,0.2l-4.1,9.6
	c-3.4,7.8-9.4,14-17.1,17.6l-4,1.8l-4.3,0.7c-1.9,0.3-3.9,0.5-6,0.5c-10.5,0-20.2-4.7-26.7-12.9c-17.4-21.9-43.3-49.8-58.9-59.1
	l-1.1-0.6l-1,0.7c-3,1.9-7.1,6.2-9.6,9.9l-0.1,0.1l-0.1,0.1l-74.1,133.5v0l0,0c-2,3.9-9.2,17.7-17.3,32.1
	c-9.7,17.4-16.5,28.3-21.9,35.5l-0.4,0.5l0,0.6c0,0.1,0,0.3,0,0.4c0,0.2,0,0.3,0,0.5l0,0.5l0.2,0.5l0.4,0.9
	c6.7,13.6,9.7,19.8,24.1,27.1l0.2,0.1l0.2,0l13.4,4.2l11.4,3.6c7.4,2.3,12.4,9.3,12.1,17.1l-0.4,11.5v0.1c0,1.4,0.1,8.7,1.7,17
	c2,10,5.1,14.9,6.4,16.1l0.1,0l0.1,0c18.8,14.5,40.2,31.7,55.7,51.1l2.8,3.5l0.8-4.4c1.1-6.2,2.2-12.9,3.4-20l0.8-4.4
	c13.3-78.1,26.4-151.1,40.8-186.4c10.1-24.9,16-40.7,19.2-49.5c4.2-11.9,13.4-21.6,25.1-26.5l4.1-1.7l4.3-0.9c3-0.6,6.1-0.9,9.2-0.9
	c9.2,0,18,2.8,25.6,8c12.1,8.4,28.1,20.5,47.4,36.2l4,3.3c42.9,34.9,51.3,40.5,71.2,40.5c1.4,0,2.9,0,4.6-0.1h0.1l8.2-0.8h0.1
	c1-0.1,2-0.2,3.1-0.2c11.1,0,21.2,5.2,27.8,14.2c5.7,7.8,7.7,18.1,5.6,28.4c-1.8,8.8-1.1,17.2,0.6,20l0.3,0.5l0.5,0.3
	c0.7,0.4,3,1.3,7.8,1.6l99.4,5.3l1.7,0.1l0.4-1.7l6-27.5c3.6-16.3,18.2-28.1,34.9-28.1c0.9,0,1.8,0,2.7,0.1l61,4.7
	c17.9,1.4,32,16.5,32,34.4c0,2.3,0.6,7.3,2.9,11.1c1.1,1.8,4,6.8,17.9,7.5c45.6,2.5,122.9,6.5,146.4,7.7l1,0l0.6-0.8
	c1.6-1.9,3.3-4.3,5-7.1c3.1-5.1,6-9.5,8.5-13.3l0-0.1c5.2-8,8-12.4,9.1-16.3c1.3-4.4,1.2-11.5-0.3-21.6l0-0.2
	c-0.1-0.9-0.3-2-0.5-3.1l1-0.1l29.8-3.6c0.1,0.9,0.2,1.7,0.4,2.5c4.6,31.5-1.4,40.8-13.5,59.3c-2.4,3.7-5.1,7.8-8,12.5
	c-12.7,21-22.8,23.2-26.5,23.2c-0.8,0-1.2-0.1-1.2-0.1l0,0l-0.2-0.1h-0.2c-1-0.1-98.6-5-153-8c-20.1-1.1-34.5-8.7-42.8-22.6
	c-6.5-10.9-7.3-22.4-7.3-26.9c0-1.9-1.5-3.5-3.4-3.7l-61-4.7H652c-0.1,0-0.2,0-0.2,0c-2.2,0-4.1,1.5-4.6,3.7l-6.5,29.7
	c-5.3,23.8-19.2,24.4-20.8,24.4h-0.2l-112-6c-14.2-0.8-24.8-5.5-31.4-14.2c-11.9-15.7-7.8-39.5-6.2-46.5c0.2-1,0-2.1-0.7-2.9
	c-0.6-0.8-1.6-1.3-2.6-1.3c-0.1,0-0.1,0-0.2,0h-0.1l-9,0.8c-2.5,0.1-4.7,0.2-6.8,0.2c-16,0-28-3.2-41.7-10.9
	c-13.5-7.6-28.4-19.8-49.1-36.6l-4.1-3.3c-18.7-15.1-33.9-26.8-45.4-34.7c-2.4-1.6-5.2-2.5-8.1-2.5c-6,0-11.5,3.8-13.5,9.5
	c-3.2,9-9.2,25.2-19.7,50.8c-14.3,35.1-29.2,122.3-39,179.9c-4.4,25.5-7.8,45.7-9.8,53.5c-2.7,10.3-9.4,16.2-18.6,16.2
	c-9.7,0-19.8-6.7-25-16.6c-11.1-21.1-36.6-41.9-59.6-59.7c-20.9-16.2-20.2-58-20.2-58.4l0-1.5l-1.4-0.5l-15.9-5
	c-25.8-12.5-32.6-26.3-40.5-42.4l-0.4-0.9c-5-10.1-6-18.3-3.2-25.8c1-2.5,2.5-5,4.8-7.5c10.3-11.3,37-63,38.3-65.7l75-134.9
	c0.7-1.1,16.6-25.9,37.6-25.9c4.6,0,9.3,1.2,13.8,3.6c26.7,14.2,63.2,59.2,70.3,68.1c0.6,0.7,1.5,1.1,2.4,1.1c1.2,0,2.3-0.7,2.8-1.9
	l5.2-12.2c1.5-2.3,21.1-32.6,46.9-69.8c13.3-19.2,22.2-23.3,27.2-23.3c1.8,0,3.4,0.5,4.9,1.5c5.6,3.9,11.5,7.9,17.7,11.4l23.5,13
	l104,62c42.8,25.2,59,27.9,63.9,27.9c0.8,0,1.4-0.1,1.8-0.1c7.7,0.5,153.7,10.1,213.7,13c9.3,0.5,17.5,0.7,24.5,0.7
	c25.5,0,29.9-3,30.9-5.5c0.4-1.1,0.2-2.2-0.4-3c-0.3-1.8-1.4-10-3.9-39.3c-3-34.9-29.1-93.2-30.2-95.6l0-0.1l0-0.1
	c-0.1-0.2-13.4-24.2-1.8-77.6C812.9,205.5,820.9,195.2,832.2,195.2 M967.5,544.9c0.1,0.8,0.2,1.5,0.3,2.2l-29.6,3.6l-1.2,0.1
	c-0.1-0.7-0.2-1.4-0.3-2.2h0.1l1-0.1L967.5,544.9 M832.2,193.2c-9.6,0-20.1,6.8-25.7,32.3c-12,55,2,79,2,79s27,60,30,95s4,40,4,40
	s1.5,1.3-0.8,2.6c-2.5,1.5-9.5,3-27.8,3c-6.6,0-14.6-0.2-24.4-0.7c-62-3-214-13-214-13s-0.5,0.2-1.6,0.2c-4.6,0-20.2-2.5-62.9-27.7
	l-104-62l-23.5-13c-6.1-3.4-11.9-7.3-17.6-11.3c-1.5-1-3.4-1.9-6-1.9c-6.1,0-15.6,4.9-28.9,24.1c-27,39-47,70-47,70l-5.3,12.3
	c-0.2,0.4-0.6,0.6-1,0.6c-0.3,0-0.6-0.1-0.8-0.4c-6.9-8.6-43.8-54.1-70.9-68.6c-5.1-2.7-10-3.9-14.7-3.9h0
	c-22.8,0-39.3,26.9-39.3,26.9L77,512c0,0-27.8,53.9-38.1,65.2c-2.2,2.4-4,5.1-5.2,8.1c-2.6,6.8-2.8,15.2,3.2,27.4
	C45,629,52,644,79,657l16,5c0,0-1,43,21,60s48,38,59,59c5.8,11,16.7,17.7,26.7,17.7c9,0,17.3-5.4,20.5-17.7
	C229,755,250.5,598,271,547.8c10-24.6,16.1-40.8,19.7-50.9c1.8-5.1,6.6-8.2,11.6-8.2c2.4,0,4.8,0.7,6.9,2.2
	c9,6.1,23.2,16.7,45.2,34.6c45,36.6,61.9,51.2,96.1,51.2c2.2,0,4.5-0.1,6.9-0.2l9-0.8c0,0,0.1,0,0.1,0c0.9,0,1.6,0.8,1.4,1.7
	c-2.3,10.4-10.7,60.4,39.5,63.1c56,3,112,6,112,6h0.2c2.1,0,17.2-0.9,22.8-26l6.5-29.7c0.3-1.3,1.4-2.2,2.7-2.2c0.1,0,0.1,0,0.2,0
	l61,4.7c0.9,0.1,1.6,0.8,1.6,1.7c0,8.5,2.8,48.8,52,51.4c55,3,153,8,153,8s0.6,0.2,1.8,0.2c4.1,0,15-2.4,28.2-24.2
	c17-28,27.4-34.5,21.7-73.2c-0.2-1.3-0.4-2.7-0.6-4.4h-0.1l-0.2,0h-0.2l-31.3,3.8l-1.3,0.2l-1.2,0.2h-0.1l-0.1,0l-0.3,0
	c0.3,2,0.5,3.8,0.8,5.3c1.5,9.9,1.6,16.7,0.4,20.8c-1,3.6-3.8,7.9-8.9,15.7c-2.5,3.9-5.4,8.3-8.5,13.5c-1.9,3.2-3.6,5.4-4.8,6.9
	c-22.8-1.2-100.2-5.1-146.4-7.7c-12.8-0.7-15.3-5-16.3-6.5c-2.1-3.4-2.6-8.1-2.6-10.1c-0.1-19-15-35-33.9-36.4l-61-4.7
	c-1-0.1-1.9-0.1-2.9-0.1c-17.6,0-33.1,12.5-36.8,29.7l-6,27.5l-99.4-5.3c-4.5-0.2-6.4-1.1-6.9-1.3c-1.3-2.2-2.1-10.2-0.4-18.6
	c2.1-10.4,0.3-21.4-6-30c-6.9-9.5-17.8-15-29.4-15c-1.1,0-2.2,0-3.2,0.2h0l-8.3,0.8c-1.6,0.1-3.1,0.1-4.5,0.1
	c-19.3,0-27.5-5.5-70-40.1l-4-3.3c-19.3-15.7-35.3-27.9-47.5-36.3c-7.9-5.4-17.2-8.3-26.8-8.3c-3.3,0-6.5,0.3-9.6,1
	c8-3.7,14.5-10.2,18.1-18.6l4.1-9.6c5.2-8,22.7-34.7,44.8-66.6c0.8-1.1,1.5-2.1,2.1-3c1.5,0.9,3.1,1.8,4.6,2.7l23,12.7L493.1,434
	l0.1,0l0.1,0c49.5,29.1,69.7,32.5,80.6,32.5c0.7,0,1.5,0,2.2,0c21.3,1.4,154.9,10.1,211.8,12.9c9.8,0.5,18.6,0.7,26.1,0.7
	c20.5,0,51.5,0,61.7-26.8c2.8-7.2,3-15,1.1-22.2c-0.5-4-1.5-13.7-3.3-34.6c-3.4-39.8-29.9-99.7-33-106.4l-0.8-1.7l-0.2-0.3
	c-0.9-2.6-5.5-17-0.6-45.8c19.4,21,40.4,23.6,49.8,23.6c2.2,0,4.2-0.1,6.1-0.3l6.2,37.1c1.8,13,24,176.5,32.9,240.3h0.1l0.1,0h0.1
	l0.3,0h0l1.6-0.2l1-0.1l31.4-3.8h0.1c-9.2-65.5-33.1-241.3-33.1-241.3l-7-42c0,0,3.8-26.8-22.7-26.8c-3.8,0-8.2,0.6-13.3,1.8
	c0,0-1.4,0.4-3.9,0.4c-6.5,0-20.1-2.9-32.7-24.1c-2.2-3.7-5.2-6.8-8.9-8.9C843.1,195.5,837.8,193.2,832.2,193.2L832.2,193.2
	L832.2,193.2z M193.4,745.8c-15.3-19.2-36.5-36.3-56-51.4c-0.9-0.8-3.8-5.2-5.8-15c-1.6-8.3-1.7-15.7-1.7-16.6l0.4-11.5
	c0.3-8.7-5.2-16.5-13.5-19.1l-11.4-3.6l-13.4-4.2c-13.8-7-16.7-12.9-23.2-26.2l-0.4-0.9c0-0.3,0.1-0.6,0.1-0.9
	c5.4-7,12.1-17.8,22.1-35.7c8.4-15,15.8-29.3,17.3-32.1L182,395.1c2.4-3.5,6.4-7.6,9.1-9.3c14.7,8.8,40.2,35.7,58.4,58.6
	c6.9,8.7,17.2,13.6,28.2,13.6c2.1,0,4.2-0.2,6.3-0.5c-12,5-21.7,15-26.3,27.7c-3.1,8.8-9,24.5-19.2,49.4
	c-14.5,35.5-27.6,108.7-41,186.8C196.2,730,194.7,738.3,193.4,745.8L193.4,745.8z M969.1,542.8l-0.2,0l-31.4,3.8l-1,0.1l-1.5,0.2
	l-0.3,0l-0.2,0h0c0.3,2.2,0.6,4.3,0.9,6.2h0l0.4,0l0.2,0l1.2-0.1l1.3-0.2l31.4-3.8h0.2l0.1,0C969.7,547,969.4,545,969.1,542.8
	L969.1,542.8L969.1,542.8z"/>
<g id="Start_Line">
	<polygon points="915.3,531.1 927.5,540.4 925.2,543.4 916,536.4 909,545.7 906,543.4 	"/>
	<polygon points="906.8,530.4 903.8,528.1 910.3,519.6 913.1,515.9 925.4,525.1 923.1,528.2 913.8,521.2 912.8,522.5 	"/>
	<polygon points="904.7,515.1 901.7,512.8 903,511 911,500.6 923.2,509.9 920.9,512.9 911.7,505.9 905.5,514 	"/>
</g>
<path d="M970,548.9L970,548.9l-0.1,0h-0.1l-31.4,3.8l-1.3,0.2l-1.2,0.1l-0.2,0l-0.4,0h-0.1l-1.9,0.2l-2.9,0.4l-22.7,2.8l-0.5-4
	l-0.3-2.1l22.7-2.8l3.1-0.4l1.7-0.2h0l0.2,0l0.3,0l1.5-0.2l1-0.1l31.4-3.8l0.2,0C969.5,545,969.7,547,970,548.9L970,548.9z"/>
<path class="st3" d="M245.1,758.3l-8.9-1.2c0.1-0.9,0.2-1.9,0.4-3l8.9,1.3C245.3,756.4,245.2,757.4,245.1,758.3L245.1,758.3z
	 M245.9,752.4L237,751c0.1-0.9,0.3-1.9,0.4-3l8.9,1.4C246.2,750.5,246,751.5,245.9,752.4L245.9,752.4z M246.8,746.5l-8.9-1.4
	c0.1-1,0.3-2,0.5-3l8.9,1.4C247.1,744.5,247,745.5,246.8,746.5z M247.8,740.6l-8.9-1.4l0.5-3l8.9,1.5L247.8,740.6L247.8,740.6z
	 M248.7,734.6l-8.9-1.5l0.5-3l8.9,1.5L248.7,734.6L248.7,734.6z M249.7,728.7l-8.9-1.5l0.5-3l8.9,1.5L249.7,728.7L249.7,728.7z
	 M250.7,722.8l-8.9-1.5l0.5-3l8.9,1.5L250.7,722.8L250.7,722.8z M251.7,716.9l-8.9-1.5l0.5-3l8.9,1.5L251.7,716.9z M252.7,711
	l-8.9-1.5l0.5-3l8.9,1.5L252.7,711L252.7,711z M253.7,705.1l-8.9-1.5l0.5-3l8.9,1.5L253.7,705.1L253.7,705.1z M254.7,699.2l-8.9-1.5
	l0.5-3l8.9,1.6L254.7,699.2L254.7,699.2z M255.8,693.3l-8.9-1.6l0.5-3l8.9,1.6L255.8,693.3L255.8,693.3z M256.8,687.4l-8.9-1.6
	l0.5-3l8.9,1.6L256.8,687.4z M257.9,681.5l-8.9-1.6l0.5-3l8.9,1.6L257.9,681.5L257.9,681.5z M259,675.6l-8.9-1.6l0.5-3l8.9,1.6
	L259,675.6L259,675.6z M260,669.7l-8.9-1.6l0.5-3l8.8,1.6L260,669.7L260,669.7z M261.1,663.8l-8.9-1.6l0.6-3l8.8,1.6L261.1,663.8
	L261.1,663.8z M262.2,657.8l-8.9-1.7l0.6-3l8.8,1.7L262.2,657.8L262.2,657.8z M263.3,651.9l-8.8-1.7l0.6-3l8.8,1.7L263.3,651.9z
	 M264.5,646.1l-8.8-1.7l0.6-3l8.8,1.7L264.5,646.1L264.5,646.1z M265.6,640.2l-8.8-1.7l0.6-3l8.8,1.7L265.6,640.2L265.6,640.2z
	 M266.7,634.3l-8.8-1.7l0.6-3l8.8,1.7L266.7,634.3L266.7,634.3z M267.9,628.4l-8.8-1.7l0.6-3l8.8,1.8L267.9,628.4z M269.1,622.5
	l-8.8-1.8l0.6-3l8.8,1.8L269.1,622.5z M270.2,616.7l-8.8-1.8l0.6-3l8.8,1.8L270.2,616.7z M271.4,610.8l-8.8-1.9c0.2-1,0.4-2,0.6-3
	l8.8,1.9C271.9,608.9,271.6,609.9,271.4,610.8L271.4,610.8z M272.7,605l-8.8-2c0.2-1,0.5-2,0.7-3l8.8,2
	C273.2,603.1,272.9,604.1,272.7,605L272.7,605z M274.1,599.2l-8.8-2.1c0.2-1,0.5-2,0.7-2.9l8.7,2.1
	C274.5,597.3,274.3,598.3,274.1,599.2L274.1,599.2z M275.5,593.4l-8.7-2.2c0.2-1,0.5-2,0.7-2.9l8.7,2.2
	C276,591.5,275.7,592.5,275.5,593.4L275.5,593.4z M277,587.7l-8.7-2.3c0.3-1,0.5-2,0.8-2.9l8.7,2.3
	C277.5,585.7,277.2,586.7,277,587.7z M278.5,581.9l-8.7-2.4c0.3-1,0.5-2,0.8-2.9l8.7,2.4C279.1,580,278.8,580.9,278.5,581.9
	L278.5,581.9z M280.1,576.2l-8.6-2.5c0.3-1,0.6-2,0.8-2.9l8.6,2.5C280.7,574.3,280.4,575.2,280.1,576.2L280.1,576.2z M281.8,570.5
	l-8.6-2.6c0.3-1,0.6-2,0.9-2.9l8.6,2.7C282.4,568.6,282.1,569.5,281.8,570.5L281.8,570.5z M283.6,564.8l-8.6-2.8c0.3-1,0.6-2,1-2.9
	l8.5,2.9C284.2,562.9,283.9,563.9,283.6,564.8L283.6,564.8z M285.4,559.3l-8.5-3.1c0.4-1.1,0.8-2.1,1.1-3l8.3,3.5
	C286.1,557.5,285.8,558.3,285.4,559.3L285.4,559.3z M287.6,554l-8.3-3.5c0.4-0.9,0.8-1.8,1.2-2.8l8.3,3.5
	C288.4,552.1,288,553,287.6,554L287.6,554z M290,548.4l-8.3-3.4c0.4-0.9,0.8-1.9,1.1-2.8l8.3,3.4C290.7,546.5,290.4,547.4,290,548.4
	L290,548.4z M292.3,542.8l-8.4-3.4c0.4-1,0.8-1.9,1.1-2.8l8.4,3.3C293,540.9,292.6,541.8,292.3,542.8L292.3,542.8z M294.5,537.2
	l-8.4-3.3c0.4-1,0.7-1.9,1.1-2.8l8.4,3.2C295.3,535.2,294.9,536.2,294.5,537.2L294.5,537.2z M296.7,531.5l-8.4-3.2
	c0.4-1,0.7-1.9,1-2.8l8.4,3.1C297.4,529.5,297.1,530.5,296.7,531.5z M298.8,525.8l-8.5-3c0.6-1.8,1-2.7,1-2.7l8.5,2.8
	C299.8,522.9,299.5,523.9,298.8,525.8L298.8,525.8z"/>
<path class="st3" d="M806.7,495c-0.9,0-2,0-3.1-0.1l0.3-9c1.1,0,2,0.1,3,0.1L806.7,495L806.7,495z M800.6,494.8c-1,0-2-0.1-3-0.1
	l0.4-9c1,0,2,0.1,3,0.1L800.6,494.8L800.6,494.8z M794.5,494.5l-3-0.1l0.4-9l3,0.1L794.5,494.5L794.5,494.5z M788.5,494.3l-3-0.1
	l0.5-9l3,0.1L788.5,494.3L788.5,494.3z M782.5,494l-3-0.2l0.5-9l3,0.2L782.5,494L782.5,494z M776.5,493.6l-3-0.2l0.5-9l3,0.2
	L776.5,493.6z M770.5,493.3l-3-0.2l0.5-9l3,0.2L770.5,493.3z M764.5,493l-3-0.2l0.5-9l3,0.2L764.5,493z M758.5,492.6l-3-0.2l0.5-9
	l3,0.2L758.5,492.6z M752.5,492.3l-3-0.2l0.5-9l3,0.2L752.5,492.3L752.5,492.3z M746.5,491.9l-3-0.2l0.5-9l3,0.2L746.5,491.9
	L746.5,491.9z M740.5,491.5l-3-0.2l0.5-9l3,0.2L740.5,491.5z M734.5,491.2l-3-0.2l0.5-9l3,0.2L734.5,491.2L734.5,491.2z
	 M728.5,490.8l-3-0.2l0.5-9l3,0.2L728.5,490.8L728.5,490.8z M722.5,490.5l-3-0.2l0.5-9l3,0.2L722.5,490.5L722.5,490.5z M716.5,490.1
	l-3-0.2l0.5-9l3,0.2L716.5,490.1L716.5,490.1z M710.5,489.7l-3-0.2l0.5-9l3,0.2L710.5,489.7z M704.6,489.3l-3-0.2l0.5-9l3,0.2
	L704.6,489.3z M698.6,489l-3-0.2l0.5-9l3,0.2L698.6,489z M692.6,488.6l-3-0.2l0.5-9l3,0.2L692.6,488.6z M686.6,488.2l-3-0.2l0.5-9
	l3,0.2L686.6,488.2z M680.6,487.9l-3-0.2l0.5-9l3,0.2L680.6,487.9z M674.6,487.5l-3-0.2l0.5-9l3,0.2L674.6,487.5L674.6,487.5z
	 M668.6,487.2l-3-0.2l0.5-9l3,0.2L668.6,487.2z M662.6,486.8l-3-0.2l0.5-9l3,0.2L662.6,486.8L662.6,486.8z M656.6,486.4l-3-0.2
	l0.5-9l3,0.2L656.6,486.4L656.6,486.4z M650.6,486.1l-3-0.2l0.5-9l3,0.2L650.6,486.1z M644.6,485.7l-3-0.2l0.5-9l3,0.2L644.6,485.7
	L644.6,485.7z M638.7,485.4l-3-0.2l0.5-9l3,0.2L638.7,485.4z M632.7,485.1l-3-0.2l0.5-9l3,0.2L632.7,485.1z M626.7,484.7l-3-0.2
	l0.5-9l3,0.2L626.7,484.7L626.7,484.7z M620.7,484.4l-3-0.2l0.5-9l3,0.2L620.7,484.4z M614.7,484.1l-3-0.2l0.5-9l3,0.2L614.7,484.1z
	 M608.7,483.8l-3-0.1l0.5-9l3,0.1L608.7,483.8z M602.7,483.5l-3-0.1l0.4-9l3,0.1L602.7,483.5z M596.7,483.2l-3-0.1l0.4-9l3,0.1
	L596.7,483.2z M590.7,482.9l-3-0.1l0.4-9l3,0.1L590.7,482.9z M584.7,482.6l-3-0.1l0.4-9l3,0.1L584.7,482.6L584.7,482.6z
	 M578.8,482.4l-3-0.1l0.3-9l3,0.1L578.8,482.4L578.8,482.4z M572.8,482.2l-3-0.1l0.3-9l3,0.1L572.8,482.2L572.8,482.2z M566.7,482
	c-1.1,0-2.2-0.2-3.4-0.3l1.2-8.9c0.9,0.1,1.8,0.2,2.6,0.2L566.7,482L566.7,482z M560.1,481.1c-1-0.2-2-0.4-3.1-0.7l2.1-8.7
	c1,0.2,1.9,0.4,2.7,0.6L560.1,481.1L560.1,481.1z M553.9,479.6c-1-0.3-2-0.6-3-0.9l2.7-8.6c0.9,0.3,1.9,0.6,2.8,0.8L553.9,479.6z
	 M548,477.7c-1-0.3-1.9-0.7-2.9-1l3-8.5c0.9,0.3,1.8,0.7,2.8,1L548,477.7z M542.2,475.7c-0.9-0.4-1.9-0.7-2.9-1.1l3.3-8.4
	c0.9,0.4,1.8,0.7,2.7,1.1L542.2,475.7L542.2,475.7z M536.5,473.4c-0.9-0.4-1.9-0.8-2.8-1.2l3.5-8.3c0.9,0.4,1.8,0.8,2.7,1.1
	L536.5,473.4L536.5,473.4z M530.9,471c-0.9-0.4-1.8-0.8-2.8-1.2l3.7-8.2c0.9,0.4,1.8,0.8,2.7,1.2L530.9,471L530.9,471z M525.3,468.6
	c-0.9-0.4-1.8-0.8-2.8-1.3l3.8-8.2c0.9,0.4,1.8,0.8,2.7,1.2L525.3,468.6z M519.8,466c-0.9-0.4-1.8-0.9-2.7-1.3l3.9-8.1
	c0.9,0.4,1.8,0.9,2.7,1.3L519.8,466L519.8,466z M514.3,463.4c-0.9-0.4-1.8-0.9-2.7-1.3l4-8.1c0.9,0.4,1.8,0.9,2.7,1.3L514.3,463.4
	L514.3,463.4z M508.9,460.7c-0.9-0.5-1.8-0.9-2.7-1.4l4.1-8c0.9,0.5,1.8,0.9,2.7,1.3L508.9,460.7L508.9,460.7z M503.5,458
	c-0.9-0.5-1.8-0.9-2.7-1.4l4.1-8c0.9,0.5,1.8,0.9,2.6,1.4L503.5,458L503.5,458z M498.2,455.2c-0.9-0.5-1.8-0.9-2.7-1.4l4.2-8
	l2.6,1.4L498.2,455.2L498.2,455.2z M492.8,452.4l-2.7-1.4l4.2-7.9l2.6,1.4L492.8,452.4L492.8,452.4z M487.5,449.5
	c-0.9-0.5-1.8-1-2.6-1.4l4.3-7.9c0.9,0.5,1.8,1,2.6,1.4L487.5,449.5L487.5,449.5z M482.2,446.6l-2.6-1.5l4.4-7.9l2.6,1.4
	L482.2,446.6z M476.9,443.7l-2.6-1.5l4.4-7.9l2.6,1.5L476.9,443.7z M471.7,440.8l-2.6-1.5l4.4-7.8l2.6,1.5L471.7,440.8L471.7,440.8z
	 M466.4,437.8l-2.6-1.5l4.5-7.8l2.6,1.5L466.4,437.8L466.4,437.8z M461.2,434.8l-2.6-1.5l4.5-7.8l2.6,1.5L461.2,434.8z M456,431.8
	l-2.6-1.5l4.5-7.8l2.6,1.5L456,431.8L456,431.8z M450.8,428.8l-2.6-1.5l4.5-7.8l2.6,1.5L450.8,428.8L450.8,428.8z M445.6,425.8
	l-2.6-1.5l4.6-7.8l2.6,1.5L445.6,425.8L445.6,425.8z M440.4,422.7l-2.6-1.5l4.6-7.7l2.6,1.5L440.4,422.7L440.4,422.7z M435.2,419.6
	l-2.6-1.5l4.6-7.7l2.6,1.5L435.2,419.6L435.2,419.6z M430.1,416.5l-2.6-1.5l4.6-7.7l2.6,1.5L430.1,416.5L430.1,416.5z M424.9,413.4
	l-2.6-1.5l4.7-7.7l2.6,1.5L424.9,413.4L424.9,413.4z M419.8,410.3l-2.6-1.6l4.7-7.7l2.6,1.5L419.8,410.3L419.8,410.3z M414.6,407.2
	l-2.6-1.6l4.7-7.7l2.6,1.6L414.6,407.2L414.6,407.2z M409.5,404.1l-2.6-1.6l4.7-7.7l2.6,1.6L409.5,404.1z M404.4,400.9l-2.6-1.6
	l4.7-7.7l2.6,1.6L404.4,400.9L404.4,400.9z M399.3,397.8l-2.6-1.6l4.7-7.7l2.5,1.6L399.3,397.8z M394.1,394.6l-2.5-1.6l4.7-7.6
	l2.5,1.6L394.1,394.6z M389,391.4l-2.5-1.6l4.8-7.6l2.5,1.6L389,391.4L389,391.4z M383.9,388.3l-2.5-1.6l4.8-7.6l2.5,1.6
	L383.9,388.3L383.9,388.3z M378.8,385.1l-2.5-1.6l4.8-7.6l2.5,1.6L378.8,385.1z M373.7,381.9l-2.5-1.6l4.7-7.6l2.6,1.6L373.7,381.9
	L373.7,381.9z"/>
<g>
	<circle class="st3" cx="823.2" cy="294" r="10"/>
	<path d="M823.2,305c-6.1,0-11-4.9-11-11s4.9-11,11-11s11,4.9,11,11S829.3,305,823.2,305z M823.2,285c-5,0-9,4-9,9s4,9,9,9s9-4,9-9
		S828.2,285,823.2,285z"/>
</g>
<g>
	<circle class="st3" cx="154" cy="731" r="10"/>
	<path d="M154,742c-6.1,0-11-4.9-11-11s4.9-11,11-11s11,4.9,11,11S160.1,742,154,742z M154,722c-5,0-9,4-9,9s4,9,9,9s9-4,9-9
		S159,722,154,722z"/>
</g>
<g>
	<circle class="st3" cx="788" cy="630" r="10"/>
	<path d="M788,641c-6.1,0-11-4.9-11-11s4.9-11,11-11s11,4.9,11,11S794.1,641,788,641z M788,621c-5,0-9,4-9,9s4,9,9,9s9-4,9-9
		S793,621,788,621z"/>
</g>
<g>
	<path class="st3" d="M912.5,495.5l-0.4-3l8.9-1.2l0.4,3L912.5,495.5z M911.7,489.5l-0.4-3l8.9-1.2l0.4,3L911.7,489.5z M910.9,483.5
		l-0.4-3l8.9-1.2l0.4,3L910.9,483.5z M910.1,477.6l-0.4-3l8.9-1.2l0.4,3L910.1,477.6z M909.3,471.6l-0.4-3l8.9-1.2l0.4,3
		L909.3,471.6z M908.5,465.7l-0.4-3l8.9-1.2l0.4,3L908.5,465.7z M907.7,459.7l-0.4-3l8.9-1.2l0.4,3L907.7,459.7z M906.9,453.8
		l-0.4-3l8.9-1.2l0.4,3L906.9,453.8z M906.1,447.8l-0.4-3l8.9-1.2l0.4,3L906.1,447.8z M905.2,441.9l-0.4-3l8.9-1.2l0.4,3
		L905.2,441.9z M904.4,435.9l-0.4-3l8.9-1.2l0.4,3L904.4,435.9z M903.6,430l-0.4-3l8.9-1.2l0.4,3L903.6,430z M902.8,424l-0.4-3
		l8.9-1.2l0.4,3L902.8,424z M902,418.1l-0.4-3l8.9-1.2l0.4,3L902,418.1z M901.2,412.1l-0.4-3l8.9-1.2l0.4,3L901.2,412.1z
		 M900.4,406.2l-0.4-3l8.9-1.2l0.4,3L900.4,406.2z M899.6,400.2l-0.4-3l8.9-1.2l0.4,3L899.6,400.2z M898.8,394.3l-0.4-3l8.9-1.2
		l0.4,3L898.8,394.3z M897.9,388.3l-0.4-3l8.9-1.2l0.4,3L897.9,388.3z M897.1,382.4l-0.4-3l8.9-1.2l0.4,3L897.1,382.4z M896.3,376.4
		l-0.4-3l8.9-1.2l0.4,3L896.3,376.4z M895.5,370.5l-0.4-3l8.9-1.2l0.4,3L895.5,370.5z M894.7,364.5l-0.4-3l8.9-1.2l0.4,3
		L894.7,364.5z M893.9,358.6l-0.4-3l8.9-1.2l0.4,3L893.9,358.6z M893.1,352.6l-0.4-3l8.9-1.2l0.4,3L893.1,352.6z M892.2,346.7
		l-0.4-3l8.9-1.2l0.4,3L892.2,346.7z M891.4,340.7l-0.4-3l8.9-1.2l0.4,3L891.4,340.7z M890.6,334.8l-0.4-3l8.9-1.2l0.4,3
		L890.6,334.8z M889.8,328.8l-0.4-3l8.9-1.2l0.4,3L889.8,328.8z M888.9,322.9l-0.4-3l8.9-1.2l0.4,3L888.9,322.9z M888.1,316.9
		l-0.4-3l8.9-1.2l0.4,3L888.1,316.9z M887.3,311l-0.4-3l8.9-1.3l0.4,3L887.3,311z M886.5,305l-0.4-3l8.9-1.3l0.4,3L886.5,305z
		 M885.6,299.1l-0.4-3l8.9-1.3l0.4,3L885.6,299.1z M884.8,293.1l-0.4-3l8.9-1.3l0.4,3L884.8,293.1z M883.9,287.2l-0.4-3l8.9-1.3
		l0.4,3L883.9,287.2z M883.1,281.2l-0.4-3l8.9-1.3l0.4,3L883.1,281.2z M882.2,275.3l-0.3-2.2l8.9-1.3l0.3,2.2L882.2,275.3z"/>
</g>
</svg>
