<?xml version="1.0" encoding="UTF-8"?><svg id="Miami_Simple" xmlns="http://www.w3.org/2000/svg" viewBox="0 0 1000 1000"><defs><style>.cls-1{fill:#fff;}.cls-2{fill:#fae44a;}.cls-3{fill:#db4a25;}.cls-4{fill:#1bce20;}.cls-5{fill:#75e5fd;}</style></defs><path d="m993.25,406.85c-1.69-4.47-4.29-8.45-7.75-11.84,2.05-8.63,3.15-17.05,3.55-20.52,3.26-11.83,2.56-22.2-2.1-30.82-4.69-8.65-12.62-13.38-18.45-14.91l-1.42-.39-31.54-2.58-.77-.05c-9.77-.29-24.36-.81-43.25-1.49-72.12-2.64-187.84-7.26-188.98-7.3-2.11-.08-281.91-10.38-373.14-14.11-91.4-3.74-169.39-4.68-172.25-4.71-17.27-1.47-27.14,5.24-32.38,11.12-11.36,12.75-9.22,30.19-8.68,33.55l.37,2.3.96,2.1c2,4.43,14.34,27.6,60.75,49.4,48.04,22.56,97.38-8.71,107.11-15.46,4.33-2.16,25.72-12.02,53.87-11.3,30.25.78,66.29,25.27,67.88,26.36l.82.54,41.49,23.04,14.07-28.06.68-1.35-39.91-22.17c-7.69-5.21-46.88-30.53-84.24-31.49-40.25-1.07-69.16,14.83-70.37,15.51l-.75.42-.86.61c-.41.3-41.82,29.48-76.58,13.17-29.12-13.68-40.54-27-43.79-31.52.1-1.86.5-2.94.66-3.14.35-.28,2.31-.99,6.65-.57l.65.06,2.21.03c25.85.37,94.19,1.56,170.38,4.68,91.39,3.74,371.85,14.06,373.22,14.11.85.03,116.18,4.63,188.78,7.3,15.3.55,32.41,1.16,43.29,1.49l25.61,2.12c-.03.97-.22,2.53-.87,4.8l-.55,1.53-.23,2.13c-.44,4.38-2.38,18.53-5.46,25.82-1.85,4.34-1.83,9.31.03,13.63,1.87,4.34,5.46,7.69,9.83,9.16.56.2,1.27.65,1.62.95-.03.67-.3,2.72-2.34,6.53-3.01,5.59-6.49,10.35-10.34,14.18l-2.08.34v1.3s-.03.03-.05.05c-.91.9-7.13,5.32-40,3.87l-.29-.03-.25.04c-1.6.16-24.01,2.72-34.59,19.18-6.26,9.73-6.9,22.11-1.89,36.81.3.82,7.54,20.34,39.38,32.9.15.07.26.17.32.33.05.12.05.24,0,.36-.81,1.86-3.89,6.01-15.4,12.82-20.87,12.33-41.25,17.4-42.1,17.61l-3.57.83.24.53c-48.85,19.18-117.31,42.54-117.82,42.7l-.63.2-.78.32c-27.27,11.44-104.51,41.13-134.06,41.13-10.76,0-21.17.87-31.31,1.71-27.6,2.31-56.13,4.69-98.73-10.25-37.89-13.29-51.96-19.16-57.08-21.55-.51-.62-1.2-.94-1.75-1.1-21.34-6.19-36.97-9.54-58.36-9.54h-.11c-6.38.01-12.45.1-18.55.27-12.2.34-24.69.83-37.92,1.35-49.99,1.94-106.64,4.14-135.07-2.56-.34-.08-.68-.16-1.01-.24l-.71-.16-11.63,31.02v.02s1.8.5,1.8.5c.05.01.1.03.15.04l.15.04c.53.14,1.06.29,1.6.42,32.86,8.44,90.3,6.2,145.92,4.05,3.72-.15,7.39-.31,11-.48,9.25-.41,17.98-.79,26.56-.87,41.05-.37,48.7,1.17,55.46,2.53.8.16,1.59.32,2.42.48l66.87,27.17c26.71,9.37,51.27,13.74,77.3,13.74,12.28,0,23.37-.93,34.1-1.83l.48-.04c9.78-.81,19.02-1.58,28.42-1.58,39.68,0,127.87-35.95,145.39-43.26,8.06-2.52,75.96-23.89,123.36-44.94l1.2-.44c8.13-3.07,49.22-18.92,59.91-29.62,1.48-1.48,2.93-2.83,4.33-4.14l.25-.23c8.96-8.36,16.04-14.96,13.26-36.23l-.03-.18c-.13-.58-3.44-14.23-23.78-20.36-15.15-4.56-21.07-15.96-21.81-17.49-.17-.75-.65-3.59,1.12-5.96,2.19-2.97,7.22-4.53,14.54-4.53h2.71c22.85.03,46.51.05,58.33-15.89l1.2-1.62-.11-.08c4.47-5.15,8.5-11.04,11.99-17.53,8.44-15.68,6.96-27.57,4.23-34.79Zm-20.65,51.29l-1.5,1.64.37.28c-11.08,12.74-32.82,12.74-53.89,12.71h-2.67c-8.77-.01-14.75,2.06-17.77,6.13-2.98,4.02-1.96,8.64-1.72,9.53l.1.31c.27.59,6.73,14.53,24.38,19.83,17.38,5.23,20.75,16.36,21.01,17.34,2.48,19.14-3.3,24.53-12.05,32.68l-.24.23c-1.42,1.33-2.9,2.7-4.43,4.23-9.92,9.94-50.3,25.59-57.79,28.44l-.07-.12-1.68.75c-47.38,21.09-115.74,42.59-123.38,44.97l-.17.06c-10.54,4.4-104.13,42.99-143.94,42.99-9.56,0-18.88.77-28.75,1.6l-.49.04c-10.64.89-21.65,1.81-33.76,1.81-25.57,0-49.71-4.3-75.89-13.48l-66.96-27.22-.39-.11c-.88-.16-1.72-.33-2.56-.5-6.26-1.26-13.28-2.67-44.88-2.67-3.49,0-7.29.02-11.41.06-8.65.08-17.41.47-26.69.88-3.61.16-7.27.32-11.02.47-54.97,2.13-111.77,4.34-144.15-3.78l8.87-23.63c29.45,6.36,85.16,4.19,134.43,2.27,13.21-.51,25.69-1,37.87-1.34,6.07-.17,12.1-.26,18.45-.27h.1c20.85,0,36.17,3.28,57.07,9.33l.21.47.7.25c4.84,2.31,18.76,8.2,57.89,21.92,43.4,15.22,72.37,12.8,100.45,10.45,9.99-.83,20.31-1.69,30.91-1.69,30.21,0,108.13-29.91,135.62-41.44l.52-.23.53-.16c.43-.13,70.92-24.18,120.04-43.57l1.45-.57c3.66-.95,22.94-6.3,42.6-17.91,9.51-5.63,15.25-10.56,17.03-14.67.49-1.12.5-2.36.02-3.49-.47-1.15-1.37-2.04-2.54-2.5-30.17-11.91-36.81-29.78-37.07-30.51-4.59-13.46-4.09-24.68,1.47-33.33,9.39-14.61,30.06-17.18,31.58-17.35,30.01,1.33,39.94-2,43.01-5.04.24-.23.43-.46.58-.68l.62-.1.45-.43c4.33-4.18,8.2-9.43,11.52-15.6,2.74-5.1,3.15-8.46,2.61-9.91-.61-1.57-3.01-2.85-4.1-3.24-3.33-1.12-6.05-3.66-7.47-6.97-1.43-3.32-1.44-7.14-.02-10.48,3.29-7.78,5.27-22.12,5.76-26.97l.17-1.64.41-1.13.04-.12c1.53-5.26.99-7.78.79-8.43l-.41-1.29-28.67-2.37h-.1c-10.87-.33-28-.95-43.32-1.5-72.59-2.66-187.9-7.27-188.78-7.3-1.38-.05-281.82-10.37-373.2-14.11-76.24-3.12-144.62-4.31-170.48-4.68l-1.53-.02-1.02-.05c-4.84-.47-8.47.2-9.94,1.83-1.47,1.62-1.74,4.73-1.76,6.44v.63s.35.53.35.53c3.62,5.28,15.34,19.11,45.76,33.4,8.3,3.9,16.86,5.41,25.17,5.41,28.56,0,54.08-17.97,55.46-18.96l.57-.42.64-.36c1.18-.65,29.18-16,68.32-15,36.37.94,74.82,25.86,82.16,30.85l38.77,21.54-11.31,22.17-39.47-21.91-.77-.51c-3.9-2.68-39.07-26.21-69.97-27.01-29.37-.8-51.71,9.69-55.89,11.79l-.24.15c-9.13,6.35-57,36.92-103.25,15.2-45.13-21.2-56.91-43.23-58.81-47.44l-.74-1.6-.28-1.77c-.49-3.05-2.44-18.86,7.72-30.26,4.64-5.21,13.45-11.13,29.13-9.79h.15c.78.02,79.59.93,172.2,4.71,91.23,3.74,371.05,14.04,373.15,14.12,1.13.04,116.86,4.66,188.99,7.3,18.9.68,33.49,1.19,43.18,1.48l31.82,2.6,1.08.29c5.05,1.33,11.89,5.43,15.97,12.96,4.17,7.71,4.75,17.13,1.72,27.99l-.06.31c-.39,3.43-1.54,12.38-3.75,21.31l-.29,1.15.88.8c1.71,1.57,3.2,3.29,4.47,5.15,1.26,1.85,2.3,3.85,3.11,5.97,2.43,6.44,3.71,17.13-4.01,31.49-3.72,6.91-8.06,13.09-12.9,18.39Z"/><path d="m607.29,469.89l-132.46-73.57-.25.5-14.5,28.94,131.22,72.87c-1.33.52-2.67.99-3.93,1.36l-1.25.29-1.59.76c-27.18,13.08-32.11,47.75-28.06,73.64-2.16,10.96-13.15,18.41-32.66,22.14-16.03,3.06-32.26,2.3-36.85,1.99l-5.38-.03h-.12c-36.25,1.93-100.49-37.05-122.18-52.21l-.32-.22c-38.66-25.72-62.38-35.82-63.4-36.25l-1.23-.5-1.76-.4c-8.39-1.66-51.32-8.82-73.62,12.59-12.26,11.78-21.78,14.58-23.23,14.95-8.35,1.13-13.77,1.29-16.12.47-1.23-.42-2.84-2.04-6.53-5.93-5.26-5.54-12.46-13.13-25.57-22.47-42.46-30.29-101.03,1.63-103.5,3.01l-.5.28c-1.39.89-13.95,9.05-24.43,22.71-15.51,20.21-18.86,42.8-9.42,63.59,19.37,42.68,62.33,35.24,80.7,32.06l.23-.04c2.38-.42,4.64-.81,5.87-.91,16.6-1.44,36.11,5.82,41.69,8.07l.43.17c.15.07.31.13.43.17,1.83.72,3.82,1.4,5.93,2.03.59.18,1.19.35,1.8.52.05.01.1.03.15.04l.15.04,1.6.43h0s11.87-31.13,11.87-31.13l-2.22-.52c-.34-.08-.68-.16-1.01-.24-2.32-.58-4.4-1.21-6.19-1.88l-.79-.42-.81-.21c-9.28-3.73-33.03-12.04-55.67-10.11-2.64.23-5.61.75-8.74,1.3-20.47,3.55-38.09,4.99-46.46-13.47-2.61-5.75-4.92-14.95,5.13-28.36,5.97-7.96,13.48-13.52,15.81-15.14,5.1-2.61,45.33-22.15,69.8-4.69,10.57,7.52,16.28,13.54,20.91,18.41,12.78,13.49,21.38,18.99,50.23,15.01l.32-.05c1.91-.31,19.31-3.6,39.9-23.38,6.87-6.6,27.83-7.54,44.25-4.65,5.8,2.64,25.97,12.35,56.54,32.68,8.5,5.92,84.56,57.84,137.72,57.84,1.6,0,3.19-.05,4.74-.15,5.76.44,25.36,1.48,45.65-2.4,47.53-9.08,57.35-37.2,58.97-53.16l.26-2.6-.47-2.45c-.06-.32-5.4-31.47,8.74-39.63,11.88-3.65,31.75-12.41,33.29-30.46,1.08-12.47-6.72-22.99-23.11-31.23Zm19.13,30.89c-1.4,16.41-21.92,24.37-30.68,27.03l-.4.17c-16.83,9.39-11.16,42.52-10.91,43.95l.37,1.91-.2,2.03c-1.51,14.84-10.76,41.03-55.74,49.62-19.97,3.82-39.29,2.75-44.73,2.33h-.14s-.14,0-.14,0c-1.51.1-3.07.15-4.63.15-52.83,0-132.08-54.79-135.46-57.15-31.28-20.79-51.83-30.6-57.38-33.11l-.22-.11-.25-.04c-14.26-2.55-38.81-3.15-47.97,5.65-19.72,18.94-35.98,22.03-37.73,22.32l-.28.04c-27.24,3.76-34.46-.8-46.81-13.84-4.7-4.96-10.56-11.13-21.45-18.88-26.6-18.98-69.29,1.99-74.07,4.45l-.22.13c-2.33,1.61-10.41,7.54-16.84,16.11-11.32,15.11-8.6,25.73-5.57,32.41,9.53,21.02,30.31,19.31,50.78,15.76,3.05-.54,5.93-1.04,8.4-1.25,21.88-1.88,45.02,6.28,53.95,9.87l.72.21.5.27.23.1c1.69.63,3.54,1.22,5.6,1.76l-8.96,23.48c-2.04-.6-3.98-1.26-5.78-1.97-.11-.04-.21-.08-.32-.12l-.44-.19c-5.28-2.13-22.54-8.54-38.76-8.54-1.61,0-3.2.06-4.77.19-1.41.12-3.75.53-6.23.96l-.25.04c-17.43,3.02-58.26,10.1-76.35-29.77-8.79-19.39-5.61-40.52,8.96-59.5,9.85-12.85,21.57-20.6,23.37-21.76l.32-.17c2.38-1.33,58.81-32.1,99.24-3.25,12.79,9.11,19.84,16.54,25.01,21.98,4.15,4.39,5.92,6.2,8.11,6.95,3.03,1.05,8.77.95,18.07-.31l.2-.04c1.91-.47,12.1-3.43,25.15-15.97,20.87-20.05,62.03-13.15,70.04-11.57l1.23.27,1.04.42c.98.41,24.37,10.37,62.68,35.86l.27.19c21.48,15.01,84.2,53,121.96,52.99.9,0,1.8-.02,2.67-.06l5.15.03c4.79.31,21.37,1.08,37.8-2.06,21.5-4.11,33.58-12.75,35.91-25.69l.06-.33-.06-.34c-3.92-24.56.47-57.56,25.8-69.74l1.18-.57.88-.2.12-.04c2.68-.79,5.71-1.97,8.32-3.23l3.51-1.7-3.43-1.86c-.61-.33-1.27-.68-1.97-1.03l-.51-.26-130.77-72.62,11.32-22.19,130.5,72.47c14.85,7.47,21.92,16.68,21,27.36Z"/><g id="Start_Line"><polygon class="cls-1" points="479.01 382.09 476.13 387.55 475.7 388.36 462.65 413.13 462.42 413.55 457.02 410.7 457.2 410.34 470.27 385.57 470.83 384.5 473.56 379.31 479.01 382.09"/><polygon points="484.42 372.24 475.01 390.09 472.13 395.55 471.7 396.36 458.65 421.13 458.42 421.55 453.02 418.7 453.2 418.34 466.27 393.57 466.83 392.5 469.56 387.31 479.01 369.39 484.42 372.24"/><polygon points="495.29 391.36 479.87 396.12 478.69 392.33 490.32 388.73 486.72 377.1 490.52 375.92 495.29 391.36"/><polygon points="509.64 398.86 494.22 403.64 493.05 399.83 504.68 396.24 501.07 384.61 504.87 383.43 509.64 398.86"/><polygon points="523.99 406.37 508.57 411.14 507.39 407.35 519.02 403.74 515.42 392.12 519.22 390.94 523.99 406.37"/></g><path class="cls-2" d="m891.56,325.83l-.54,12.71-.17,4-.53,12.41c-71.99-2.64-187.32-7.24-188.77-7.3-2.77-.09-282.17-10.38-373.22-14.11-90.36-3.7-169.19-4.65-171.93-4.7h-.56l-.65-.06c-4.88-.47-7.51.35-8.27,1.19-.83.91-1.21,3.13-1.24,5.12,3.24,4.72,14.64,18.48,44.96,32.72,36.1,16.94,78.18-13.05,78.6-13.35l.67-.49.75-.42c1.2-.67,29.74-16.28,69.34-15.26,37.58.97,77.53,27.32,83.24,31.2l40.3,22.38-5.64,11.06-1.82,3.56-5.67,11.12-41.35-22.96-.82-.54c-.37-.25-37.31-25.87-68.93-26.69-29.03-.77-51.15,9.67-54.94,11.58-7.69,5.35-57.55,37.77-105.24,15.37-45.61-21.42-57.71-43.84-59.78-48.41l-.85-1.86-.32-2.03c-.52-3.22-2.57-19.82,8.2-31.91,4.96-5.57,14.32-11.86,30.79-10.45,8.04.09,84.72,1.13,172.26,4.71,91,3.72,370.34,14.01,373.15,14.11,1.49.06,117.12,4.67,188.98,7.3Z"/><path class="cls-5" d="m987.37,440.28c-4.17,7.75-8.71,13.9-13.18,18.79l.26.19c-11.23,15.14-34.37,15.11-56.77,15.09h-2.66c-8.1-.01-13.54,1.79-16.16,5.33-2.5,3.36-1.53,7.33-1.4,7.82.42.93,6.57,13.76,23.13,18.74,19.16,5.77,22.28,18.35,22.4,18.88,2.65,20.26-3.77,26.24-12.65,34.52-1.49,1.39-3.03,2.82-4.62,4.41-11.02,11.03-57.3,28.44-59.26,29.18l-.87.32v-.02c-47.22,21.01-115.53,42.53-123.61,45.05-13.13,5.48-104.67,43.14-144.71,43.14-9.58,0-18.96.79-28.9,1.62-10.66.89-21.84,1.83-34.1,1.83-21.31,0-45.88-2.83-76.64-13.62l-66.96-27.22c-8.15-1.49-12.15-3.49-58.47-3.08-12,.11-24.44.83-37.62,1.35-56.43,2.19-114.63,4.45-146.91-4.4l10.26-27.34c28.67,6.76,85.17,4.57,135.61,2.61,13.25-.52,25.77-1.01,37.9-1.35,6.77-.19,12.92-.26,18.5-.27,20.58-.01,35.58,2.99,57.9,9.46.84.25.93.74.96.75,4.68,2.24,18.44,8.08,57.77,21.87,43,15.08,71.76,12.68,99.56,10.36,10.05-.84,20.44-1.71,31.14-1.71,29.9,0,107.47-29.8,134.84-41.28l.61-.26.63-.2c.91-.28,71.85-24.55,119.9-43.52l-.1-.22,1.2-.28c.2-.05,21.05-5.07,42.66-17.84,11.4-6.74,15.11-11.19,16.22-13.74.27-.62.27-1.31.01-1.93-.27-.65-.78-1.15-1.43-1.41-30.95-12.22-37.95-30.93-38.23-31.72-4.8-14.08-4.23-25.87,1.68-35.06,10.16-15.8,32.22-18.18,33.16-18.27h.07s.07,0,.07,0c32.03,1.42,39.73-2.64,41.56-4.45.64-.64.64-1.06.64-1.07l1.03-.17c3.55-3.43,7.48-8.28,11.15-15.1,2.7-5.03,2.72-7.66,2.5-8.25-.25-.65-1.79-1.68-2.87-2.06-3.88-1.31-7.02-4.25-8.66-8.07-1.65-3.82-1.66-8.22-.03-12.06,3.18-7.52,5.13-21.6,5.61-26.4l.2-1.88.49-1.36c1.25-4.28,1.02-6.57.8-7.27l-27.33-2.26c-10.13-.31-25.38-.85-43.33-1.5-.69-.03-1.39-.05-2.09-.08v-29.16c1.12.04,2.23.08,3.33.12,17.99.65,33.23,1.19,43.26,1.49l.69.05,31.33,2.56,1.24.34c5.48,1.44,12.83,5.83,17.22,13.94,4.43,8.19,5.06,18.1,1.89,29.48-.4,3.51-1.56,12.53-3.8,21.56,3.15,2.88,6.16,6.75,8.1,11.89,2.58,6.83,3.96,18.12-4.12,33.14Z"/><path class="cls-3" d="m628.52,500.53c-1.48,17.37-21.96,25.7-32.09,28.78-15.68,8.74-9.98,41.49-9.92,41.83l.42,2.19-.23,2.32c-1.56,15.34-11.08,42.55-57.35,51.39-20.36,3.89-40.19,2.75-45.26,2.36-1.56.1-3.15.15-4.76.15-53.22,0-131.46-53.92-136.57-57.48-31.48-20.93-52.05-30.68-57.09-32.96-14.77-2.64-38-2.78-46.23,5.13-20.19,19.39-36.99,22.55-38.84,22.85l-.28.04c-28.03,3.87-35.93-1.13-48.5-14.4-4.65-4.9-10.44-11.01-21.2-18.67-25.63-18.29-67.12,2.1-71.99,4.6-1.89,1.31-9.98,7.13-16.38,15.66-10.68,14.26-8.17,24.17-5.35,30.39,8.95,19.74,28.11,18.17,48.62,14.61,3.25-.57,6.06-1.06,8.57-1.27,22.2-1.9,45.42,6.21,54.87,10.01l.71.19.7.37c2.23.84,4.76,1.58,7.56,2.24l-4.59,12.05-1.42,3.71-4.4,11.54c-2.75-.75-5.32-1.59-7.68-2.52-.14-.05-.27-.1-.39-.15l-.44-.18c-5.97-2.41-25.61-9.68-42.62-8.21-1.35.11-3.74.53-6.27.97-17.89,3.1-59.8,10.38-78.54-30.91-9.11-20.09-5.85-41.95,9.19-61.55,10.83-14.11,23.83-22.18,23.95-22.26l.36-.2c2.43-1.35,59.95-32.68,101.37-3.13,12.97,9.24,20.09,16.75,25.3,22.24,4.08,4.31,5.65,5.86,7.32,6.43,2.7.94,8.31.8,17.14-.4,1.31-.32,11.37-3.11,24.24-15.47,21.59-20.74,63.63-13.7,71.84-12.08l1.4.3,1.23.5c1.02.43,24.48,10.4,63.05,36.06l.27.19c22.06,15.42,86.64,54.49,123.44,52.57l5.26.03c4.92.33,21.12,1.08,37.36-2.02,20.61-3.94,32.14-12.03,34.31-24.08-3.42-21.39-1.34-58.28,26.9-71.86l1.39-.67,1.09-.25c2.66-.79,5.56-1.93,8.02-3.12-.59-.32-1.23-.66-1.94-1.01l-.56-.29-132.46-73.56,5.71-11.2,1.82-3.56,5.61-10.99,132.24,73.44c15.65,7.87,23.09,17.73,22.09,29.31Z"/><path d="m981.32,410.31c-1.39-3.08-4.15-3.76-6.36-4.31-1.8-.44-2.93-.76-3.51-1.78-.75-1.3-1.13-4.57,1.29-12.71,4.91-16.49,5.23-27.47,4.98-32.55-.05-1.12.04-2.26.13-3.48v-.12c.11-1.3-.19-3.31-2.15-5.46-5.86-6.44-22.74-9.94-50.17-10.4-7.69-.13-19.61-.47-34.51-.96-97.97-3.21-324.8-12.93-327.43-13.04l-158-6c-2.03-.09-203.12-8.96-241.08-7-2.47-.16-31.86-1.58-33.5,14.8-1.58,15.76,10.56,28.1,11.1,28.64,1.16,1.12,28.78,27.47,60.96,34.51,3.33.73,6.79,1.06,10.34,1.06,30.72,0,67.52-24.53,70.13-26.3,1.63-.88,30-15.77,64.42-11.37.28.04,28.38,3.54,61.44,27.1l.1.07,46.58,25.48,1.82-3.56-46.27-25.31c-33.92-24.14-62.03-27.62-63.19-27.75-36.55-4.67-65.69,11.2-66.91,11.88l-.15.1c-.47.31-46.67,31.44-77.45,24.7-31.06-6.8-58.77-33.22-59.01-33.46-.12-.12-11.31-11.54-9.93-25.39,1.07-10.71,21.57-11.72,29.38-11.2h.24c37.46-1.98,238.77,6.91,240.81,7l157.99,6c2.63.11,229.39,9.83,327.44,13.04,14.95.49,26.9.83,34.62.96,34.46.58,44.41,5.95,47.28,9.09,1.05,1.16,1.15,2.04,1.12,2.47v.12c-.11,1.28-.21,2.6-.14,3.97.23,4.83-.08,15.3-4.82,31.22-2.37,7.95-2.65,12.83-.94,15.84,1.47,2.55,4,3.18,6.03,3.68,1.97.48,3.11.82,3.68,2.07,1.53,3.38.55,7.57-.54,10.5-1.04,2.77-1.79,5.58-2.46,8.2-7.93,31.37-54.67,28.99-56.95,28.85-2.17-.35-29.06-4.08-34.19,21.6-4.5,22.52,23.04,36.44,31.59,40.17,2.09.91,3.94,2.09,5.49,3.51,4.72,4.32,6.59,8.58,5.72,13.04-2.87,14.77-34.07,26.53-34.42,26.66-.82.32-82.13,32.51-168.19,64.16-57.77,24.14-109.31,36.96-149.05,37.07-4.34.01-8.82.26-13.68.76-43.62,4.53-84.89-2.13-122.65-19.79-10.21-4.77-34.11-15.95-59.06-19.67-15.91-2.37-31.99-2.94-43.78-2.94-10.79,0-17.98.48-18.13.49-1.35.1-126.92,9.53-164.04-1.66-2.28-.68-4.22-1.44-5.78-2.29-29.87-17.11-65.96-10.85-80.08-7.36-4.41,1.08-9.02,1.09-13.33.01-12.61-3.14-33.36-12.86-30.66-42.59,3.82-41.99,54.9-53.11,55.42-53.22l.29-.08c.42-.16,42.2-15.03,76.32,22.32,30.71,33.6,69.15,3.35,80.21-6.72,4.06-3.7,7.62-5.77,10.89-6.35,6.54-1.14,17.53-2.26,32.73-1.14,26.09,1.94,74.44,39.21,74.92,39.59l.1.07c73.62,50.74,122.51,53.41,124.58,53.5,2.49.08,61.49,1.62,84.5-21.2,6.2-6.15,9.24-13.55,9.05-22.02-1.9-53.18,19.15-57.92,19.34-57.96l.21-.05c15.38-4.44,23.13-9.93,23.72-16.77.83-9.63-13.36-16.95-15.32-17.91l-45.99-26.99-85.88-46.98-1.82,3.56,85.73,46.89,46,27,.13.08c3.84,1.87,13.68,8.04,13.17,14.01-.29,3.39-4.14,8.43-20.76,13.24-2.14.45-24.51,6.47-22.53,62,.17,7.3-2.48,13.71-7.86,19.05-21.79,21.62-80.97,20.07-81.54,20.05-.49-.02-49.87-2.78-122.42-52.77-2.59-2-49.92-38.37-77.03-40.37-15.61-1.16-26.95,0-33.72,1.19-4.04.7-8.26,3.1-12.9,7.33-13.27,12.1-47.12,37-74.55,6.97-18.8-20.56-39.7-25.84-53.93-26.64-14.65-.83-25.19,2.71-26.6,3.21-1.57.34-14.21,3.25-27.48,11.22-18.56,11.13-29.27,26.88-30.96,45.53-2.97,32.7,19.82,43.38,33.67,46.84,4.94,1.23,10.22,1.22,15.25-.02,13.66-3.37,48.52-9.44,77.18,6.97,1.71.93,3.83,1.76,6.31,2.51,38.15,11.53,160.26,2.36,165.75,1.94.3-.02,31-2.06,61.04,2.42,24.36,3.63,47.89,14.63,57.94,19.33,30.65,14.33,63.55,21.55,98.12,21.55,8.77,0,17.66-.47,26.64-1.4,4.73-.49,9.08-.73,13.29-.74,40.25-.11,92.32-13.04,150.49-37.34,86.03-31.65,167.39-63.85,168.16-64.15,1.37-.51,33.61-12.67,36.92-29.63,1.14-5.86-1.2-11.5-6.95-16.76-1.88-1.72-4.1-3.14-6.59-4.23-7.86-3.43-33.19-16.13-29.27-35.72,4.55-22.74,28.65-18.61,29.68-18.42l.21.03c.53.03,13.11.9,26.95-2.47,18.7-4.55,30.55-14.71,34.26-29.39.64-2.51,1.36-5.19,2.32-7.78,1.36-3.63,2.53-8.93.44-13.55Z"/><path class="cls-4" d="m660.3,306.42l-.74-.03.36-8.99.74.03-.36,8.99Zm-3.72-.14l-3-.12.35-8.99,2.99.12-.34,8.99Zm-5.98-.23l-3-.12.35-8.99,2.99.12-.34,8.99Zm-6-.23l-2.99-.11.34-8.99,3,.12-.35,8.99Zm-6-.23l-2.99-.11.34-8.99,3,.12-.35,8.99Zm-6-.23l-2.99-.12.34-8.99,3,.12-.35,8.99Zm-5.99-.23l-3-.11.34-8.99,3,.11-.34,8.99Zm-6-.23l-3-.11.34-8.99,3,.11-.34,8.99Zm-6-.23l-3-.11.34-8.99,3,.11-.34,8.99Zm-5.99-.23l-3-.11.34-8.99,2.99.11-.33,8.99Zm-6-.23l-3-.11.34-8.99,2.99.11-.33,8.99Zm-6-.23l-3-.11.34-8.99,2.99.11-.33,8.99Zm-6-.23l-3-.11.33-8.99,3,.11-.33,8.99Zm-6-.22l-2.99-.11.33-8.99,3,.11-.34,8.99Zm-6-.23l-2.99-.11.33-8.99,3,.11-.34,8.99Zm-5.99-.22l-3-.11.33-8.99,3,.11-.33,8.99Zm-6-.22l-3-.11.33-8.99,3,.11-.33,8.99Zm-6-.22l-3-.11.33-8.99,3,.11-.33,8.99Zm-5.99-.22l-3-.11.33-8.99,2.99.11-.32,8.99Zm-6-.22l-3-.11.33-8.99,2.99.11-.32,8.99Zm-6-.22l-3-.11.33-8.99,2.99.11-.32,8.99Zm-6-.22l-3-.11.33-8.99,3,.11-.32,8.99Zm-6-.22l-2.99-.11.33-8.99,3,.11-.33,8.99Zm-5.99-.22l-3-.11.33-8.99,3,.11-.33,8.99Zm-5.99-.22l-3-.11.33-8.99,3,.11-.32,8.99Zm-6-.22l-3-.11.33-8.99,3,.11-.32,8.99Zm-6-.22l-3-.11.33-8.99,3,.11-.32,8.99Zm-5.99-.22l-3-.11.33-8.99,2.99.11-.32,8.99Zm-6-.22l-3-.11.33-8.99,2.99.11-.32,8.99Zm-6-.21l-3-.11.33-8.99,2.99.11-.32,8.99Zm-6-.21l-3-.11.32-8.99,3,.11-.32,8.99Zm-6-.21l-3-.11.32-8.99,3,.11-.32,8.99Zm-6-.21l-3-.11.32-8.99,3,.11-.32,8.99Zm-5.99-.21l-3-.11.32-8.99,3,.11-.32,8.99Zm-6-.21l-3-.11.32-8.99,3,.11-.32,8.99Zm-5.99-.21l-3-.1.32-8.99,2.99.1-.31,8.99Zm-6-.21l-3-.1.32-8.99,2.99.1-.31,8.99Zm-6-.21l-3-.1.32-8.99,2.99.1-.31,8.99Zm-6-.21l-3-.1.31-8.99,3,.1-.31,8.99Zm-6-.21l-3-.1.31-8.99,3,.1-.31,8.99Zm-6-.21l-2.99-.1.31-8.99,3,.1-.32,8.99Zm-5.99-.21l-3-.1.31-8.99,3,.1-.31,8.99Zm-6-.21l-3-.1.31-8.99,3,.1-.31,8.99Zm-6-.21l-3-.1.31-8.99,3,.1-.31,8.99Zm-5.99-.21l-3-.1.31-8.99,2.99.1-.3,8.99Zm-6-.2l-3-.1.31-8.99,2.99.1-.3,9Zm-6-.21l-3-.1.3-8.99,3,.1-.3,8.99Zm-6-.2l-3-.1.3-8.99,3,.1-.31,8.99Zm-6-.2l-3-.1.3-8.99,3,.1-.31,8.99Zm-5.99-.2l-3-.1.3-8.99,3,.1-.3,8.99Zm-6-.2l-3-.1.3-8.99,3,.1-.3,9Zm-5.99-.2l-3-.1.3-8.99,2.99.1-.29,9Zm-6-.2l-3-.1.3-8.99,2.99.1-.29,9Zm-6-.2l-3-.1.29-9,3,.1-.29,9Zm-6-.2l-3-.1.29-9,3,.1-.3,9Zm-6-.2l-2.99-.1.29-9,3.01.1-.31,8.99Zm-5.99-.2l-3-.1.29-9,3,.1-.3,8.99Zm-6-.19l-3-.1.29-9,3,.1-.3,9Zm-5.99-.19l-3-.1.29-9,3,.1-.29,9Zm-6-.19l-3-.1.29-9,3,.1-.29,9Zm-6-.19l-3-.1.28-9,3,.1-.29,9Zm-6-.19l-2.99-.1.28-9,3.01.1-.3,9Zm-5.99-.19l-3-.09.28-9,3,.09-.29,9Zm-6-.19l-3-.09.28-9,3,.09-.29,9Zm-5.99-.19l-3-.09.28-9,3,.09-.28,9Zm-6-.19l-3-.09.28-9,3,.09-.28,9Zm-6-.19l-3-.09.27-9,3,.09-.28,9Zm-6-.19l-3-.09.28-9,3,.09-.28,9Zm-6-.18l-3-.09.28-9,3,.09-.28,9Zm-6-.18l-3-.09.28-9,3,.09-.28,9Zm-5.99-.18l-3-.09.28-9,3,.09-.27,9Zm-6-.18l-3-.09.27-9,3,.09-.27,9Zm-6-.18l-3-.09.27-9,3,.09-.27,9Zm-6-.18l-3-.09.27-9,3,.09-.27,9Zm-5.99-.18l-3-.09.27-9,3,.09-.26,9Zm-6-.18l-3-.09.26-9,3,.09-.26,9Zm-6-.17l-3-.09.26-9,3,.09-.27,9Zm-6-.17l-3-.09.26-9,3,.09-.27,9Zm-6-.17l-3-.08.25-9,3,.08-.26,9Zm-6-.17l-3-.08.25-9,3,.08-.26,9Zm-6-.17l-3-.08.25-9,3,.08-.25,9Zm-6-.17l-3-.08.25-9,3,.08-.25,9Zm-6-.16l-3-.08.24-9,3,.08-.25,9Zm-6-.16l-3.01-.08.23-9,3.01.08-.24,9Z"/><path class="cls-4" d="m568.43,505.95l-1.58-.84,1.92-3.57,1.81.46-2.15,3.95Zm-4.23-2.27l-2.66-1.43,4.27-7.92,2.65,1.42-4.26,7.93Zm10.75-.58l-6.17-1.55,2.34-4.36,1.25.67c3.19,1.71,2.78,4.45,2.58,5.25Zm-16.06-2.28l-2.64-1.43,4.28-7.92,2.65,1.43-4.28,7.92Zm-5.29-2.86l-2.65-1.43,4.29-7.91,2.64,1.43-4.28,7.92Zm-5.29-2.87l-2.64-1.43,4.29-7.91,2.64,1.43-4.29,7.91Zm-5.28-2.87l-2.65-1.44,4.3-7.91,2.63,1.43-4.29,7.91Zm-5.29-2.88l-2.64-1.44,4.31-7.9,2.64,1.44-4.31,7.9Zm-5.28-2.88l-2.64-1.44,4.32-7.9,2.63,1.44-4.31,7.9Zm-5.28-2.88l-2.63-1.44,4.32-7.89,2.63,1.44-4.32,7.89Zm-5.27-2.89l-2.63-1.45,4.33-7.89,2.63,1.45-4.33,7.89Zm-5.27-2.9l-2.63-1.45,4.34-7.88,2.64,1.45-4.35,7.88Zm-5.26-2.9l-2.63-1.45,4.35-7.88,2.62,1.45-4.34,7.88Zm-5.26-2.91l-2.63-1.46,4.36-7.87,2.63,1.46-4.36,7.87Zm-5.26-2.91l-2.63-1.46,4.38-7.87,2.62,1.46-4.37,7.87Zm-5.25-2.92l-2.62-1.46,4.38-7.86,2.62,1.46-4.38,7.86Zm-5.25-2.93l-2.63-1.47,4.4-7.85,2.62,1.47-4.39,7.85Zm-5.25-2.94l-2.62-1.47,4.41-7.85,2.61,1.47-4.41,7.85Zm-5.23-2.94l-2.62-1.48,4.43-7.84,2.61,1.47-4.42,7.84Zm-5.24-2.96l-2.62-1.49,4.45-7.82,2.61,1.48-4.44,7.83Zm-5.24-2.97l-2.61-1.49,4.46-7.81,2.61,1.49-4.47,7.81Zm-5.22-2.98l-2.61-1.5,4.49-7.8,2.6,1.49-4.48,7.81Zm-5.22-3l-2.6-1.51,4.51-7.79,2.59,1.5-4.51,7.79Zm-5.21-3.02l-2.6-1.52,4.55-7.77,2.58,1.51-4.53,7.78Zm-5.2-3.04l-2.59-1.53,4.58-7.75,2.58,1.52-4.57,7.75Zm-5.19-3.07l-2.59-1.55,4.63-7.72,2.57,1.54-4.61,7.73Zm-5.18-3.11l-2.58-1.57,4.69-7.68,2.55,1.55-4.67,7.7Zm-5.16-3.15c-.88-.54-1.74-1.08-2.58-1.6l4.78-7.63c.82.51,1.66,1.04,2.53,1.57l-4.73,7.66Zm-5.11-3.19l-2.54-1.57,4.73-7.66,2.56,1.59-4.75,7.64Zm-5.08-3.14c-.86-.52-1.7-1.04-2.54-1.55l4.67-7.7c.85.52,1.71,1.04,2.58,1.57l-4.7,7.68Zm-5.1-3.09c-.86-.52-1.71-1.03-2.56-1.53l4.6-7.73c.86.51,1.72,1.02,2.59,1.55l-4.63,7.71Zm-5.12-3.05c-.87-.51-1.72-1.01-2.57-1.5l4.53-7.78c.86.5,1.73,1.01,2.61,1.53l-4.57,7.75Zm-5.14-3c-.87-.5-1.73-1-2.59-1.48l4.45-7.82c.86.49,1.74.99,2.62,1.5l-4.49,7.8Zm-5.18-2.95c-.88-.49-1.74-.98-2.59-1.45l4.37-7.87c.87.48,1.75.97,2.64,1.48l-4.42,7.84Zm-5.2-2.88c-.88-.48-1.75-.96-2.61-1.42l4.28-7.92c.87.47,1.76.95,2.66,1.45l-4.32,7.89Zm-5.23-2.82c-.89-.47-1.76-.93-2.63-1.38l4.17-7.98c.88.46,1.77.93,2.68,1.41l-4.22,7.95Zm-5.26-2.75c-.9-.46-1.78-.91-2.64-1.34l4.05-8.04c.88.45,1.79.9,2.7,1.37l-4.11,8.01Zm-5.29-2.66c-.9-.45-1.79-.88-2.66-1.3l3.91-8.11c.89.43,1.8.88,2.73,1.33l-3.98,8.07Zm-5.33-2.57c-.91-.43-1.8-.84-2.68-1.25l3.75-8.18c.9.41,1.82.84,2.76,1.28l-3.84,8.14Zm-5.37-2.46c-.92-.41-1.82-.8-2.69-1.18l3.56-8.27c.91.39,1.84.8,2.8,1.23l-3.67,8.22Zm-5.4-2.32c-.94-.39-1.84-.76-2.72-1.1l3.33-8.36c.92.36,1.86.75,2.84,1.15l-3.45,8.31Zm-5.44-2.16c-.95-.36-1.86-.69-2.73-1l3.03-8.48c.92.33,1.89.68,2.89,1.07l-3.19,8.42Zm-5.48-1.95c-.97-.32-1.88-.61-2.74-.87l2.62-8.61c.93.28,1.92.6,2.97.95l-2.85,8.54Zm-5.48-1.66c-1.01-.27-1.91-.49-2.72-.67l1.96-8.78c.97.22,2.01.48,3.1.77l-2.34,8.69Zm-5.38-1.19c-1.49-.24-2.18-.24-2.19-.24l-.25-9h.25c.52,0,1.68.04,3.6.35l-1.41,8.89Z"/><path class="cls-4" d="m536.69,703h-.26c-.95,0-1.87,0-2.76,0l.05-9c.88,0,1.78,0,2.71,0h.26v9Zm3.03,0l-.05-9c.97,0,1.96-.01,2.98-.03l.09,9c-1.03.01-2.04.02-3.02.03Zm-9.08-.02c-1.06-.01-2.07-.03-3.02-.04l.15-9c.94.02,1.94.03,2.98.04l-.1,9Zm15.13-.05l-.14-9c.97-.02,1.96-.03,2.97-.06l.2,9c-1.03.02-2.04.04-3.03.06Zm-21.18-.06c-1.1-.03-2.12-.05-3.03-.08l.27-9c.9.03,1.89.05,2.97.08l-.21,9Zm27.23-.08l-.24-9c.98-.03,1.97-.06,2.98-.09l.29,9c-1.02.03-2.03.06-3.02.09Zm-33.3-.11c-2.01-.08-3.08-.14-3.08-.14l.52-8.98s1.04.06,2.92.13l-.35,8.99Zm39.35-.08l-.33-8.99c.98-.04,1.97-.07,2.97-.12l.38,8.99c-1.02.04-2.03.08-3.02.12Zm6.05-.25l-.43-8.99c.98-.05,1.97-.1,2.98-.15l.47,8.99c-1.02.05-2.02.1-3.02.15Zm6.04-.32l-.51-8.98c.98-.06,1.97-.12,2.97-.18l.57,8.98c-1.02.06-2.02.12-3.02.18Zm6.04-.38l-.61-8.98c.98-.07,1.97-.14,2.97-.21l.66,8.98c-1.01.07-2.02.15-3.02.21Zm6.03-.45l-.71-8.97c.98-.08,1.97-.16,2.96-.24l.76,8.97c-1.01.08-2.02.17-3.02.25Zm6.03-.51l-.81-8.96c.98-.09,1.97-.18,2.96-.28l.87,8.96c-1.01.1-2.01.19-3.01.28Zm6.03-.58l-.92-8.95c.98-.1,1.97-.2,2.96-.31l.96,8.95c-1.01.11-2.01.21-3.01.32Zm6.02-.65l-1.02-8.94c.98-.11,1.96-.23,2.95-.35l1.09,8.93c-1.01.12-2.01.24-3.01.35Zm6.02-.73l-1.14-8.93c.98-.12,1.96-.25,2.95-.38l1.19,8.92c-1,.13-2,.26-3,.39Zm6-.8l-1.25-8.91c.98-.14,1.96-.28,2.94-.42l1.31,8.9c-1,.15-2,.29-3,.43Zm6-.88l-1.37-8.9c.97-.15,1.95-.3,2.93-.46l1.44,8.88c-1,.16-2,.32-3,.47Zm5.99-.96l-1.49-8.88c.97-.16,1.94-.33,2.91-.5l1.56,8.86c-.99.17-1.99.35-2.98.51Zm5.96-1.05l-1.62-8.85c.97-.18,1.94-.36,2.91-.54l1.7,8.84c-.99.19-1.99.38-2.98.56Zm5.95-1.14l-1.76-8.83c.97-.19,1.93-.39,2.9-.59l1.84,8.81c-.99.21-1.98.41-2.97.61Zm5.94-1.24l-1.91-8.79c.96-.21,1.93-.42,2.89-.64l1.99,8.78c-.99.22-1.98.44-2.97.66Zm5.93-1.34l-2.06-8.76c.96-.23,1.92-.46,2.88-.69l2.14,8.74c-.99.24-1.97.48-2.96.71Zm5.91-1.45l-2.22-8.72c.96-.24,1.91-.49,2.86-.74l2.31,8.7c-.98.26-1.97.52-2.95.77Zm5.9-1.56l-2.39-8.68c.95-.26,1.9-.53,2.85-.8l2.48,8.65c-.98.28-1.96.56-2.94.83Zm5.87-1.69l-2.57-8.62c.95-.28,1.89-.57,2.83-.86l2.67,8.59c-.97.3-1.95.6-2.93.89Zm5.85-1.82l-2.77-8.56c.94-.3,1.87-.61,2.8-.92l2.87,8.53c-.96.32-1.93.64-2.9.96Zm5.8-1.95l-2.98-8.49c.93-.33,1.85-.66,2.78-.99l3.08,8.46c-.96.35-1.92.69-2.88,1.03Zm5.74-2.09l-3.18-8.42,2.8-1.06,3.19,8.42-2.81,1.07Zm5.61-2.13l-3.17-8.42,2.82-1.06,3.16,8.43-2.81,1.06Zm5.61-2.11l-3.15-8.43,2.81-1.05,3.15,8.43-2.81,1.05Zm5.62-2.1l-3.14-8.44,2.82-1.05,3.13,8.44-2.81,1.04Zm5.63-2.09l-3.13-8.44,2.82-1.04,3.12,8.44-2.81,1.04Zm5.62-2.08l-3.11-8.45,2.81-1.04,3.12,8.44-2.82,1.04Zm5.63-2.08l-3.11-8.45,2.82-1.04,3.1,8.45-2.81,1.03Zm5.63-2.07l-3.1-8.45,2.82-1.03,3.09,8.45-2.82,1.03Zm5.63-2.06l-3.1-8.45,2.82-1.03,3.09,8.45-2.82,1.03Zm5.63-2.06l-3.09-8.46,2.82-1.03,3.09,8.46-2.82,1.03Zm5.64-2.06l-3.09-8.46,2.82-1.03,3.09,8.45-2.82,1.03Zm5.64-2.06l-3.08-8.46,2.82-1.03,3.09,8.45-2.83,1.03Zm5.64-2.06l-3.08-8.46,2.82-1.03,3.09,8.45-2.83,1.03Zm5.64-2.06l-3.08-8.46,2.82-1.03,3.09,8.45-2.82,1.03Zm5.64-2.06l-3.08-8.46,2.82-1.03,3.09,8.45-2.82,1.03Zm5.64-2.06l-3.08-8.46,2.81-1.02,3.08,8.46-2.81,1.02Zm5.62-2.05l-3.08-8.46,2.81-1.03,3.09,8.45-2.82,1.03Zm5.64-2.06l-3.09-8.45,2.82-1.03,3.09,8.45-2.82,1.03Zm5.64-2.06l-3.09-8.45,2.83-1.04,3.09,8.45-2.82,1.03Zm5.65-2.07l-3.09-8.45,2.82-1.03,3.09,8.45-2.82,1.03Zm5.64-2.07l-3.1-8.45,2.82-1.03,3.1,8.45-2.82,1.04Zm5.64-2.07l-3.11-8.45,2.81-1.04,3.11,8.44-2.82,1.04Zm5.64-2.07l-3.11-8.45,2.82-1.04,3.11,8.44-2.82,1.04Zm5.63-2.08l-3.12-8.44,2.81-1.04,3.12,8.44-2.82,1.04Zm5.63-2.08l-3.13-8.44,2.81-1.04,3.13,8.44-2.82,1.05Zm5.63-2.09l-3.14-8.44,2.82-1.05,3.13,8.44-2.81,1.04Zm5.63-2.09l-3.14-8.43,2.81-1.05,3.15,8.43-2.82,1.05Zm5.63-2.1l-3.16-8.43,2.81-1.05,3.16,8.43-2.81,1.05Zm5.62-2.11l-3.17-8.42,2.8-1.06,3.18,8.42-2.82,1.06Zm5.63-2.12l-3.18-8.42,2.81-1.06,3.19,8.42-2.81,1.06Zm5.62-2.13l-3.2-8.41,2.8-1.07,3.21,8.41-2.81,1.07Zm5.62-2.14l-3.22-8.4,2.8-1.07,3.22,8.4-2.81,1.08Zm5.61-2.16l-3.24-8.4,2.79-1.08,3.26,8.39-2.81,1.09Zm5.61-2.17l-3.26-8.39,2.79-1.09,3.28,8.38-2.81,1.09Zm5.61-2.19l-3.29-8.38,2.79-1.1,3.31,8.37-2.8,1.1Zm5.6-2.21l-3.33-8.36,2.78-1.11,3.34,8.36-2.8,1.12Zm5.59-2.24l-3.36-8.35,2.78-1.12,3.38,8.34-2.79,1.13Zm5.59-2.27l-3.42-8.33c.94-.38,1.86-.76,2.76-1.14l3.44,8.31c-.92.38-1.84.76-2.79,1.15Zm5.58-2.31l-3.48-8.3c.93-.39,1.85-.78,2.75-1.16l3.52,8.28c-.91.39-1.84.78-2.79,1.18Zm5.57-2.37l-3.56-8.27c.93-.4,1.84-.8,2.73-1.19l3.62,8.24c-.9.4-1.83.8-2.78,1.21Zm5.56-2.44l-3.67-8.22c.93-.42,1.83-.82,2.69-1.22l3.76,8.18c-.89.41-1.82.83-2.78,1.26Zm5.55-2.55l-3.85-8.13c.93-.44,1.81-.87,2.64-1.28l3.98,8.07c-.88.43-1.8.88-2.77,1.34Zm5.55-2.75l-4.18-7.97c.91-.48,1.74-.93,2.49-1.36l4.48,7.81c-.84.48-1.77.99-2.79,1.52Zm5.64-3.29l-5.07-7.43c.52-.36.83-.61,1.01-.76l5.89,6.81c-.52.45-1.11.9-1.82,1.38Z"/></svg>