<?xml version="1.0" encoding="UTF-8"?><svg xmlns="http://www.w3.org/2000/svg" viewBox="0 0 1000 1000"><defs><style>.cls-1,.cls-2{fill:#fff;}.cls-3{fill:#fae44a;}.cls-2{font-family:OpenSans-ExtraBold, 'Open Sans';font-size:13.33px;font-weight:700;}.cls-4{fill:#db4a25;}.cls-5{fill:#1bce20;}.cls-6{fill:#75e5fd;}</style></defs><g id="Miami_Simple"><path d="m969.89,413.42c-1.61-4.26-4.08-8.04-7.38-11.27,1.95-8.22,3-16.23,3.38-19.53,3.1-11.26,2.44-21.13-2-29.34-4.46-8.23-12.01-12.74-17.56-14.19l-1.35-.37-30.03-2.46-.73-.05c-9.3-.28-23.19-.77-41.17-1.42-68.66-2.51-178.82-6.91-179.91-6.95-2.01-.08-268.37-9.88-355.22-13.43-87.01-3.56-161.26-4.46-163.98-4.48-16.44-1.4-25.84,4.99-30.82,10.59-10.81,12.14-8.78,28.74-8.26,31.94l.35,2.19.91,2c1.9,4.22,13.65,26.27,57.83,47.03,45.73,21.48,92.7-8.29,101.97-14.72,4.12-2.06,24.48-11.44,51.28-10.76,28.8.74,63.11,24.06,64.62,25.09l.78.51,39.5,21.93,13.39-26.71.65-1.29-37.99-21.11c-7.32-4.96-44.63-29.06-80.19-29.98-38.32-1.02-65.84,14.12-66.99,14.77l-.71.4-.82.58c-.39.29-39.81,28.06-72.9,12.54-27.72-13.02-38.59-25.7-41.69-30.01.1-1.77.48-2.8.63-2.99.33-.27,2.2-.94,6.33-.54l.62.06,2.1.03c24.61.35,89.67,1.48,162.2,4.46,87,3.56,353.99,13.38,355.3,13.43.81.03,110.6,4.41,179.72,6.95,14.57.52,30.85,1.1,41.21,1.42l24.38,2.02c-.03.92-.21,2.41-.83,4.57l-.52,1.46-.22,2.03c-.42,4.17-2.27,17.64-5.2,24.58-1.76,4.13-1.74,8.86.03,12.98,1.78,4.13,5.2,7.32,9.36,8.72.53.19,1.21.62,1.54.9-.03.64-.29,2.59-2.23,6.22-2.87,5.32-6.18,9.85-9.84,13.5l-1.98.32v1.24s-.03.03-.05.05c-.87.86-6.79,5.06-38.08,3.68l-.28-.03-.24.04c-1.52.15-22.86,2.59-32.93,18.26-5.96,9.26-6.57,21.05-1.8,35.04.29.78,7.18,19.36,37.49,31.32.14.07.25.16.3.31.05.11.05.23,0,.34-.77,1.77-3.7,5.72-14.66,12.2-19.87,11.74-39.27,16.56-40.08,16.76l-3.4.79.23.5c-46.5,18.26-111.68,40.5-112.16,40.65l-.6.19-.74.3c-25.96,10.89-99.49,39.15-127.62,39.15-10.24,0-20.15.83-29.81,1.63-26.27,2.2-53.43,4.46-93.99-9.76-36.07-12.65-49.47-18.24-54.34-20.52-.49-.59-1.14-.89-1.67-1.05-20.32-5.89-35.19-9.08-55.56-9.08h-.1c-6.07,0-11.85.1-17.66.26-11.61.32-23.5.79-36.1,1.29-47.59,1.85-101.52,3.94-128.58-2.44-.32-.08-.65-.15-.96-.23l-.68-.15-11.07,29.53v.02s1.71.48,1.71.48c.05,0,.1.03.14.04l.14.04c.5.13,1.01.28,1.52.4,31.28,8.03,85.96,5.9,138.91,3.86,3.54-.14,7.04-.3,10.47-.46,8.81-.39,17.12-.75,25.28-.83,39.08-.35,46.36,1.11,52.8,2.41.76.15,1.51.3,2.3.46l63.66,25.87c25.43,8.92,48.81,13.08,73.59,13.08,11.69,0,22.25-.89,32.46-1.74l.46-.04c9.31-.77,18.11-1.5,27.06-1.5,37.77,0,121.73-34.22,138.41-41.18,7.67-2.4,72.31-22.74,117.44-42.78l1.14-.42c7.74-2.92,46.86-18.01,57.03-28.2,1.41-1.41,2.79-2.69,4.12-3.94l.24-.22c8.53-7.96,15.27-14.24,12.62-34.49l-.03-.17c-.12-.55-3.27-13.55-22.64-19.38-14.42-4.34-20.06-15.19-20.76-16.65-.16-.71-.62-3.42,1.07-5.67,2.09-2.83,6.87-4.31,13.84-4.31h2.58c21.75.03,44.28.05,55.53-15.13l1.14-1.54-.1-.08c4.26-4.9,8.09-10.51,11.41-16.69,8.03-14.93,6.63-26.25,4.03-33.12Zm-19.66,48.83l-1.43,1.56.35.27c-10.55,12.13-31.24,12.13-51.3,12.1h-2.54c-8.35,0-14.04,1.96-16.92,5.84-2.84,3.83-1.87,8.23-1.64,9.07l.1.3c.26.56,6.41,13.83,23.21,18.88,16.55,4.98,19.75,15.57,20,16.51,2.36,18.22-3.14,23.35-11.47,31.11l-.23.22c-1.35,1.27-2.76,2.57-4.22,4.03-9.44,9.46-47.88,24.36-55.01,27.07l-.07-.11-1.6.71c-45.1,20.08-110.18,40.54-117.46,42.81l-.16.06c-10.03,4.19-99.13,40.93-137.03,40.93-9.1,0-17.97.73-27.37,1.52l-.47.04c-10.13.85-20.61,1.72-32.14,1.72-24.34,0-47.32-4.09-72.25-12.83l-63.74-25.91-.37-.1c-.84-.15-1.64-.31-2.44-.48-5.96-1.2-12.64-2.54-42.72-2.54-3.32,0-6.94.02-10.86.06-8.23.08-16.57.45-25.41.84-3.44.15-6.92.3-10.49.45-52.33,2.03-106.4,4.13-137.23-3.6l8.44-22.5c28.04,6.05,81.07,3.99,127.97,2.16,12.58-.49,24.46-.95,36.05-1.28,5.78-.16,11.52-.25,17.56-.26h.1c19.85,0,34.43,3.12,54.33,8.88l.2.45.67.24c4.61,2.2,17.86,7.81,55.11,20.87,41.32,14.49,68.89,12.19,95.63,9.95,9.51-.79,19.33-1.61,29.43-1.61,28.76,0,102.94-28.47,129.11-39.45l.5-.22.5-.15c.41-.12,67.51-23.02,114.28-41.48l1.38-.54c3.48-.9,21.84-6,40.55-17.05,9.05-5.36,14.52-10.05,16.21-13.97.47-1.07.48-2.25.02-3.32-.45-1.09-1.3-1.94-2.42-2.38-28.72-11.34-35.04-28.35-35.29-29.04-4.37-12.81-3.89-23.49,1.4-31.73,8.94-13.91,28.62-16.36,30.06-16.52,28.57,1.27,38.02-1.9,40.94-4.8.23-.22.41-.44.55-.65l.59-.1.43-.41c4.12-3.98,7.81-8.98,10.97-14.85,2.61-4.85,3-8.05,2.48-9.43-.58-1.49-2.87-2.71-3.9-3.08-3.17-1.07-5.76-3.48-7.11-6.64-1.36-3.16-1.37-6.8-.02-9.98,3.13-7.41,5.02-21.06,5.48-25.67l.16-1.56.39-1.08.04-.11c1.46-5.01.94-7.41.75-8.03l-.39-1.23-27.29-2.26h-.1c-10.35-.31-26.66-.9-41.24-1.43-69.1-2.53-178.88-6.92-179.71-6.95-1.31-.05-268.29-9.87-355.28-13.43-72.58-2.97-137.68-4.1-162.29-4.46l-1.46-.02-.97-.05c-4.61-.45-8.06.19-9.46,1.74-1.4,1.54-1.66,4.5-1.68,6.13v.6s.33.5.33.5c3.45,5.03,14.6,18.19,43.56,31.8,7.9,3.71,16.05,5.15,23.96,5.15,27.19,0,51.48-17.11,52.8-18.05l.54-.4.61-.34c1.12-.62,27.78-15.23,65.04-14.28,34.62.89,71.23,24.62,78.21,29.37l36.91,20.51-10.77,21.11-37.57-20.86-.73-.49c-3.71-2.55-37.19-24.95-66.61-25.71-27.96-.76-49.23,9.22-53.21,11.22l-.23.14c-8.69,6.04-54.26,35.15-98.29,14.47-42.96-20.18-54.18-41.15-55.99-45.16l-.7-1.52-.27-1.69c-.47-2.9-2.32-17.95,7.35-28.81,4.42-4.96,12.8-10.6,27.73-9.32h.14c.74.02,75.77.89,163.93,4.48,86.85,3.56,353.23,13.37,355.23,13.44,1.08.04,111.25,4.44,179.91,6.95,17.99.65,31.88,1.13,41.11,1.41l30.29,2.48,1.03.28c4.81,1.27,11.32,5.17,15.2,12.34,3.97,7.34,4.52,16.31,1.64,26.65l-.06.29c-.37,3.27-1.47,11.79-3.57,20.29l-.28,1.09.84.76c1.63,1.49,3.05,3.13,4.26,4.9,1.2,1.76,2.19,3.67,2.96,5.68,2.31,6.13,3.53,16.31-3.82,29.98-3.54,6.58-7.67,12.46-12.28,17.51Z"/><path d="m602.47,473.44l-126.1-70.04-.24.48-13.8,27.55,124.92,69.37c-1.27.5-2.54.94-3.74,1.29l-1.19.28-1.51.72c-25.87,12.45-30.57,45.46-26.71,70.1-2.06,10.43-12.52,17.53-31.09,21.08-15.26,2.91-30.71,2.19-35.08,1.89l-5.12-.03h-.11c-34.51,1.84-95.66-35.27-116.31-49.7l-.3-.21c-36.8-24.49-59.38-34.1-60.36-34.51l-1.17-.48-1.68-.38c-7.99-1.58-48.86-8.4-70.08,11.99-11.67,11.21-20.73,13.88-22.11,14.23-7.95,1.08-13.11,1.23-15.35.45-1.17-.4-2.7-1.94-6.22-5.65-5.01-5.27-11.86-12.5-24.34-21.39-40.42-28.84-96.18,1.55-98.53,2.87l-.48.27c-1.32.85-13.28,8.62-23.26,21.62-14.77,19.24-17.95,40.74-8.97,60.54,18.44,40.63,59.34,33.55,76.82,30.52l.22-.04c2.27-.4,4.42-.77,5.59-.87,15.8-1.37,34.38,5.54,39.69,7.68l.41.16c.14.07.29.12.41.16,1.74.69,3.64,1.33,5.65,1.93.56.17,1.13.33,1.71.5.05,0,.1.03.14.04l.14.04,1.52.41h0s11.3-29.64,11.3-29.64l-2.11-.5c-.32-.08-.65-.15-.96-.23-2.21-.55-4.19-1.15-5.89-1.79l-.75-.4-.77-.2c-8.83-3.55-31.44-11.46-53-9.62-2.51.22-5.34.71-8.32,1.24-19.49,3.38-36.26,4.75-44.23-12.82-2.48-5.47-4.68-14.23,4.88-27,5.68-7.58,12.83-12.87,15.05-14.41,4.85-2.48,43.15-21.09,66.45-4.46,10.06,7.16,15.5,12.89,19.91,17.53,12.17,12.84,20.35,18.08,47.82,14.29l.3-.05c1.82-.3,18.38-3.43,37.98-22.26,6.54-6.28,26.49-7.18,42.13-4.43,5.52,2.51,24.72,11.76,53.82,31.11,8.09,5.64,80.5,55.06,131.11,55.06,1.52,0,3.04-.05,4.51-.14,5.48.42,24.14,1.41,43.46-2.28,45.25-8.64,54.6-35.41,56.14-50.61l.25-2.48-.45-2.33c-.06-.3-5.14-29.96,8.32-37.73,11.31-3.47,30.23-11.81,31.69-29,1.03-11.87-6.4-21.89-22-29.73Zm18.21,29.41c-1.33,15.62-20.87,23.2-29.21,25.73l-.38.16c-16.02,8.94-10.62,40.48-10.39,41.84l.35,1.82-.19,1.93c-1.44,14.13-10.24,39.06-53.06,47.24-19.01,3.64-37.4,2.62-42.58,2.22h-.13s-.13,0-.13,0c-1.44.1-2.92.14-4.41.14-50.29,0-125.74-52.16-128.96-54.41-29.78-19.79-49.34-29.13-54.62-31.52l-.21-.1-.24-.04c-13.58-2.43-36.95-3-45.67,5.38-18.77,18.03-34.25,20.97-35.92,21.25l-.27.04c-25.93,3.58-32.81-.76-44.56-13.18-4.47-4.72-10.05-10.6-20.42-17.97-25.32-18.07-65.96,1.89-70.51,4.24l-.21.12c-2.22,1.53-9.91,7.18-16.03,15.34-10.78,14.38-8.19,24.49-5.3,30.85,9.07,20.01,28.85,18.38,48.34,15,2.9-.51,5.65-.99,8-1.19,20.83-1.79,42.86,5.98,51.36,9.4l.69.2.48.26.22.1c1.61.6,3.37,1.16,5.33,1.68l-8.53,22.35c-1.94-.57-3.79-1.2-5.5-1.88-.1-.04-.2-.08-.3-.11l-.42-.18c-5.03-2.03-21.46-8.13-36.9-8.13-1.53,0-3.05.06-4.54.18-1.34.11-3.57.5-5.93.91l-.24.04c-16.59,2.87-55.46,9.62-72.68-28.34-8.37-18.46-5.34-38.57,8.53-56.64,9.38-12.23,20.53-19.61,22.25-20.72l.3-.16c2.27-1.27,55.99-30.56,94.47-3.09,12.18,8.67,18.89,15.75,23.81,20.92,3.95,4.18,5.64,5.9,7.72,6.62,2.88,1,8.35.9,17.2-.3l.19-.04c1.82-.45,11.52-3.27,23.94-15.2,19.87-19.09,59.05-12.52,66.68-11.01l1.17.26.99.4c.93.39,23.2,9.87,59.67,34.14l.26.18c20.45,14.29,80.16,50.45,116.1,50.45.86,0,1.71-.02,2.54-.06l4.9.03c4.56.3,20.34,1.03,35.98-1.96,20.47-3.91,31.97-12.14,34.19-24.46l.06-.31-.06-.32c-3.73-23.38.45-54.8,24.56-66.39l1.12-.54.84-.19.11-.04c2.55-.75,5.44-1.88,7.92-3.07l3.34-1.62-3.27-1.77c-.58-.31-1.21-.65-1.88-.98l-.49-.25-124.49-69.13,10.78-21.12,124.23,68.99c14.14,7.11,20.87,15.88,19.99,26.05Z"/><g id="Start_Line"><polygon class="cls-1" points="480.35 389.86 477.61 395.05 477.2 395.82 464.77 419.4 464.56 419.8 459.41 417.08 459.59 416.75 472.03 393.17 472.56 392.15 475.16 387.21 480.35 389.86"/><polygon points="485.5 380.48 476.54 397.47 473.8 402.67 473.39 403.44 460.96 427.02 460.75 427.41 455.6 424.7 455.78 424.36 468.22 400.78 468.75 399.76 471.36 394.83 480.35 377.77 485.5 380.48"/><polygon points="495.85 398.67 481.17 403.21 480.04 399.6 491.12 396.17 487.69 385.1 491.3 383.98 495.85 398.67"/><polygon points="509.51 405.81 494.83 410.36 493.71 406.74 504.78 403.32 501.35 392.25 504.97 391.13 509.51 405.81"/><polygon points="523.17 412.96 508.49 417.5 507.37 413.89 518.44 410.46 515.01 399.4 518.63 398.27 523.17 412.96"/></g><path class="cls-3" d="m873.09,336.29l-.51,12.1-.16,3.81-.5,11.81c-68.53-2.51-178.32-6.89-179.71-6.95-2.64-.09-268.62-9.88-355.3-13.43-86.02-3.52-161.07-4.43-163.67-4.47h-.53l-.62-.06c-4.65-.45-7.15.33-7.87,1.13-.79.87-1.15,2.98-1.18,4.87,3.08,4.49,13.94,17.59,42.8,31.15,34.37,16.13,74.43-12.42,74.83-12.71l.64-.47.71-.4c1.14-.64,28.31-15.5,66.01-14.53,35.78.92,73.81,26.01,79.24,29.7l38.36,21.31-5.37,10.53-1.73,3.39-5.4,10.59-39.36-21.86-.78-.51c-.35-.24-35.52-24.63-65.62-25.41-27.64-.73-48.69,9.21-52.3,11.02-7.32,5.09-54.79,35.96-100.19,14.63-43.42-20.39-54.94-41.73-56.91-46.09l-.81-1.77-.3-1.93c-.5-3.07-2.45-18.87,7.81-30.38,4.72-5.3,13.63-11.29,29.31-9.95,7.65.09,80.65,1.08,163.99,4.48,86.63,3.54,352.56,13.34,355.23,13.43,1.42.06,111.5,4.45,179.91,6.95Z"/><path class="cls-6" d="m964.3,445.25c-3.97,7.38-8.29,13.23-12.55,17.89l.25.18c-10.69,14.41-32.72,14.38-54.04,14.37h-2.53c-7.71,0-12.89,1.7-15.38,5.07-2.38,3.2-1.46,6.98-1.33,7.44.4.89,6.25,13.1,22.02,17.84,18.24,5.49,21.21,17.47,21.32,17.97,2.52,19.29-3.59,24.98-12.04,32.86-1.42,1.32-2.88,2.68-4.4,4.2-10.49,10.5-54.55,27.07-56.41,27.78l-.83.3v-.02c-44.95,20-109.98,40.49-117.67,42.89-12.5,5.22-99.64,41.07-137.76,41.07-9.12,0-18.05.75-27.51,1.54-10.15.85-20.79,1.74-32.46,1.74-20.29,0-43.68-2.69-72.96-12.97l-63.74-25.91c-7.76-1.42-11.57-3.32-55.66-2.93-11.42.1-23.27.79-35.81,1.29-53.72,2.08-109.13,4.24-139.86-4.19l9.77-26.03c27.29,6.44,81.08,4.35,129.1,2.48,12.61-.5,24.53-.96,36.08-1.29,6.44-.18,12.3-.25,17.61-.26,19.59,0,33.87,2.85,55.12,9.01.8.24.89.7.91.71,4.46,2.13,17.55,7.69,55,20.82,40.94,14.36,68.31,12.07,94.78,9.86,9.57-.8,19.46-1.63,29.64-1.63,28.46,0,102.31-28.37,128.36-39.3l.58-.25.6-.19c.87-.27,68.4-23.37,114.14-41.43l-.1-.21,1.14-.27c.19-.05,20.04-4.83,40.61-16.98,10.85-6.42,14.38-10.65,15.44-13.08.26-.59.26-1.25,0-1.84-.26-.62-.74-1.09-1.36-1.34-29.46-11.63-36.13-29.44-36.39-30.2-4.57-13.4-4.03-24.63,1.6-33.38,9.67-15.04,30.67-17.31,31.57-17.39h.07s.07,0,.07,0c30.49,1.35,37.82-2.51,39.56-4.24.61-.61.61-1.01.61-1.02l.98-.16c3.38-3.27,7.12-7.88,10.61-14.37,2.57-4.79,2.59-7.29,2.38-7.85-.24-.62-1.7-1.6-2.73-1.96-3.69-1.25-6.68-4.05-8.24-7.68-1.57-3.64-1.58-7.83-.03-11.48,3.03-7.16,4.88-20.56,5.34-25.13l.19-1.79.47-1.29c1.19-4.07.97-6.25.76-6.92l-26.02-2.15c-9.64-.29-24.16-.81-41.25-1.43-.66-.03-1.32-.05-1.99-.08v-27.76c1.07.04,2.12.08,3.17.11,17.13.62,31.63,1.13,41.18,1.42l.66.05,29.83,2.44,1.18.32c5.22,1.37,12.21,5.55,16.39,13.27,4.22,7.8,4.82,17.23,1.8,28.06-.38,3.34-1.49,11.93-3.62,20.52,3,2.74,5.86,6.43,7.71,11.32,2.46,6.5,3.77,17.25-3.92,31.55Z"/><path class="cls-4" d="m622.68,502.6c-1.41,16.54-20.91,24.47-30.55,27.4-14.93,8.32-9.5,39.5-9.44,39.82l.4,2.08-.22,2.21c-1.48,14.6-10.55,40.51-54.6,48.92-19.38,3.7-38.26,2.62-43.09,2.25-1.49.1-3,.14-4.53.14-50.66,0-125.15-51.33-130.01-54.72-29.97-19.92-49.55-29.21-54.35-31.38-14.06-2.51-36.18-2.65-44.01,4.88-19.22,18.46-35.21,21.47-36.97,21.75l-.27.04c-26.68,3.68-34.2-1.08-46.17-13.71-4.43-4.66-9.94-10.48-20.18-17.77-24.4-17.41-63.9,2-68.53,4.38-1.8,1.25-9.5,6.79-15.59,14.91-10.17,13.58-7.78,23.01-5.09,28.93,8.52,18.79,26.76,17.3,46.29,13.91,3.09-.54,5.77-1.01,8.16-1.21,21.13-1.81,43.24,5.91,52.24,9.53l.68.18.67.35c2.12.8,4.53,1.5,7.2,2.13l-4.37,11.47-1.35,3.53-4.19,10.99c-2.62-.71-5.06-1.51-7.31-2.4-.13-.05-.26-.1-.37-.14l-.42-.17c-5.68-2.29-24.38-9.22-40.57-7.82-1.29.1-3.56.5-5.97.92-17.03,2.95-56.93,9.88-74.77-29.43-8.67-19.13-5.57-39.94,8.75-58.59,10.31-13.43,22.69-21.11,22.8-21.19l.34-.19c2.31-1.29,57.07-31.11,96.5-2.98,12.35,8.8,19.13,15.95,24.09,21.17,3.88,4.1,5.38,5.58,6.97,6.12,2.57.89,7.91.76,16.32-.38,1.25-.3,10.82-2.96,23.08-14.73,20.55-19.74,60.57-13.04,68.39-11.5l1.33.29,1.17.48c.97.41,23.3,9.9,60.02,34.33l.26.18c21,14.68,82.48,51.87,117.51,50.05l5.01.03c4.68.31,20.11,1.03,35.57-1.92,19.62-3.75,30.6-11.45,32.66-22.92-3.26-20.36-1.28-55.48,25.61-68.41l1.32-.64,1.04-.24c2.53-.75,5.29-1.84,7.63-2.97-.56-.3-1.17-.63-1.85-.96l-.53-.28-126.1-70.03,5.44-10.66,1.73-3.39,5.34-10.46,125.89,69.91c14.9,7.49,21.98,16.88,21.03,27.9Z"/><path d="m958.54,416.72c-1.32-2.93-3.95-3.58-6.05-4.1-1.71-.42-2.79-.72-3.34-1.69-.71-1.24-1.08-4.35,1.23-12.1,4.67-15.7,4.98-26.15,4.74-30.99-.05-1.07.04-2.15.12-3.31v-.11c.1-1.24-.18-3.15-2.05-5.2-5.58-6.13-21.65-9.46-47.76-9.9-7.32-.12-18.67-.45-32.85-.91-93.27-3.06-309.2-12.31-311.71-12.41l-150.41-5.71c-1.93-.09-193.37-8.53-229.5-6.66-2.35-.15-30.33-1.5-31.89,14.09-1.5,15,10.05,26.75,10.57,27.26,1.1,1.07,27.4,26.15,58.03,32.85,3.17.69,6.46,1.01,9.84,1.01,29.24,0,64.28-23.35,66.76-25.04,1.55-.84,28.56-15.01,61.33-10.82.27.04,27.02,3.37,58.49,25.8l.1.07,44.34,24.26,1.73-3.39-44.05-24.09c-32.29-22.98-59.05-26.29-60.16-26.42-34.79-4.45-62.54,10.66-63.7,11.31l-.14.1c-.45.29-44.43,29.93-73.73,23.51-29.57-6.47-55.95-31.62-56.18-31.85-.11-.11-10.77-10.99-9.45-24.17,1.02-10.2,20.53-11.16,27.97-10.66h.23c35.66-1.88,227.3,6.58,229.25,6.66l150.4,5.71c2.5.1,218.37,9.36,311.72,12.41,14.23.47,25.61.79,32.96.91,32.81.55,42.28,5.66,45.01,8.65,1,1.1,1.09,1.94,1.07,2.35v.11c-.1,1.22-.2,2.48-.13,3.78.22,4.6-.08,14.57-4.59,29.72-2.26,7.57-2.52,12.21-.89,15.08,1.4,2.43,3.81,3.03,5.74,3.5,1.88.46,2.96.78,3.5,1.97,1.46,3.22.52,7.21-.51,10-.99,2.64-1.7,5.31-2.34,7.81-7.55,29.86-52.04,27.6-54.22,27.46-2.07-.33-27.66-3.88-32.55,20.56-4.28,21.44,21.93,34.69,30.07,38.24,1.99.87,3.75,1.99,5.23,3.34,4.49,4.11,6.27,8.17,5.45,12.41-2.73,14.06-32.43,25.26-32.77,25.38-.78.3-78.19,30.95-160.11,61.08-55,22.98-104.06,35.19-141.89,35.29-4.13,0-8.4.25-13.02.72-41.53,4.31-80.81-2.03-116.76-18.84-9.72-4.54-32.47-15.18-56.22-18.73-15.15-2.26-30.45-2.8-41.68-2.8-10.27,0-17.12.46-17.26.47-1.29.1-120.83,9.07-156.16-1.58-2.17-.65-4.02-1.37-5.5-2.18-28.44-16.29-62.79-10.33-76.23-7.01-4.2,1.03-8.59,1.04-12.69,0-12-2.99-31.76-12.24-29.19-40.54,3.64-39.97,52.26-50.56,52.76-50.66l.28-.08c.4-.15,40.17-14.31,72.66,21.25,29.24,31.99,65.83,3.19,76.36-6.4,3.87-3.52,7.25-5.49,10.37-6.05,6.23-1.09,16.69-2.15,31.16-1.09,24.84,1.85,70.87,37.33,71.32,37.69l.1.07c70.08,48.3,116.63,50.85,118.6,50.93,2.37.08,58.54,1.54,80.44-20.18,5.9-5.85,8.8-12.9,8.62-20.96-1.81-50.63,18.23-55.14,18.41-55.18l.2-.05c14.64-4.23,22.02-9.45,22.58-15.96.79-9.17-12.72-16.14-14.58-17.05l-43.78-25.69-81.76-44.72-1.73,3.39,81.61,44.64,43.79,25.7.12.08c3.66,1.78,13.02,7.65,12.54,13.34-.28,3.23-3.94,8.03-19.76,12.6-2.04.43-23.33,6.16-21.45,59.02.16,6.95-2.36,13.05-7.48,18.14-20.74,20.58-77.08,19.11-77.62,19.09-.47-.02-47.48-2.65-116.54-50.24-2.47-1.9-47.52-36.53-73.33-38.43-14.86-1.1-25.66,0-32.1,1.13-3.85.67-7.86,2.95-12.28,6.98-12.63,11.52-44.86,35.22-70.97,6.64-17.9-19.57-37.79-24.6-51.34-25.36-13.95-.79-23.98,2.58-25.32,3.06-1.49.32-13.53,3.09-26.16,10.68-17.67,10.6-27.86,25.59-29.47,43.34-2.83,31.13,18.87,41.3,32.05,44.59,4.7,1.17,9.73,1.16,14.52-.02,13-3.21,46.19-8.99,73.47,6.64,1.63.89,3.65,1.68,6.01,2.39,36.32,10.98,152.56,2.25,157.79,1.85.29-.02,29.51-1.96,58.11,2.3,23.19,3.46,45.59,13.93,55.16,18.4,29.18,13.64,60.5,20.51,93.41,20.51,8.35,0,16.81-.45,25.36-1.33,4.5-.47,8.64-.69,12.65-.7,38.32-.1,87.89-12.41,143.26-35.55,81.9-30.13,159.35-60.78,160.09-61.07,1.3-.49,32-12.06,35.15-28.21,1.09-5.58-1.14-10.95-6.62-15.96-1.79-1.64-3.9-2.99-6.27-4.03-7.48-3.27-31.6-15.36-27.86-34,4.33-21.65,27.27-17.72,28.25-17.54l.2.03c.5.03,12.48.86,25.66-2.35,17.8-4.33,29.08-14,32.61-27.98.61-2.39,1.29-4.94,2.21-7.41,1.29-3.46,2.41-8.5.42-12.9Z"/><path class="cls-5" d="m652.93,317.82l-.7-.03.34-8.56.7.03-.34,8.56Zm-3.55-.14l-2.85-.11.34-8.56,2.84.11-.33,8.56Zm-5.69-.22l-2.86-.11.33-8.56,2.85.11-.33,8.56Zm-5.71-.22l-2.85-.11.33-8.56,2.86.11-.33,8.56Zm-5.71-.22l-2.85-.11.33-8.56,2.86.11-.33,8.56Zm-5.71-.22l-2.85-.11.33-8.56,2.86.11-.33,8.56Zm-5.7-.22l-2.86-.11.33-8.56,2.85.11-.33,8.56Zm-5.71-.22l-2.86-.11.33-8.56,2.85.11-.33,8.56Zm-5.71-.22l-2.85-.11.33-8.56,2.85.11-.33,8.56Zm-5.7-.22l-2.86-.11.33-8.56,2.85.11-.32,8.56Zm-5.71-.22l-2.86-.11.33-8.56,2.85.11-.32,8.56Zm-5.71-.21l-2.86-.11.33-8.56,2.85.11-.32,8.56Zm-5.71-.22l-2.85-.11.32-8.56,2.85.11-.32,8.56Zm-5.71-.21l-2.85-.11.32-8.56,2.86.11-.33,8.56Zm-5.71-.21l-2.85-.11.32-8.56,2.86.11-.33,8.56Zm-5.7-.21l-2.85-.11.32-8.56,2.85.11-.32,8.56Zm-5.71-.21l-2.85-.11.32-8.56,2.85.11-.32,8.56Zm-5.71-.21l-2.85-.11.32-8.56,2.85.11-.32,8.56Zm-5.7-.21l-2.86-.11.32-8.56,2.85.11-.31,8.56Zm-5.71-.21l-2.86-.11.32-8.56,2.85.11-.31,8.56Zm-5.71-.21l-2.86-.11.32-8.56,2.85.11-.31,8.56Zm-5.71-.21l-2.86-.1.31-8.56,2.85.1-.31,8.56Zm-5.71-.21l-2.85-.1.31-8.56,2.86.1-.32,8.56Zm-5.71-.21l-2.85-.1.31-8.56,2.86.1-.32,8.56Zm-5.71-.21l-2.86-.1.31-8.56,2.85.1-.31,8.56Zm-5.71-.21l-2.86-.1.31-8.56,2.85.1-.31,8.56Zm-5.71-.21l-2.86-.1.31-8.56,2.85.1-.31,8.56Zm-5.71-.21l-2.86-.1.31-8.56,2.85.1-.3,8.56Zm-5.71-.21l-2.86-.1.31-8.56,2.85.1-.3,8.56Zm-5.71-.2l-2.86-.1.31-8.56,2.85.1-.3,8.56Zm-5.71-.2l-2.85-.1.3-8.56,2.85.1-.3,8.56Zm-5.71-.2l-2.85-.1.3-8.56,2.86.1-.31,8.56Zm-5.71-.2l-2.85-.1.3-8.56,2.86.1-.31,8.56Zm-5.71-.2l-2.85-.1.3-8.56,2.85.1-.3,8.56Zm-5.71-.2l-2.85-.1.3-8.56,2.85.1-.3,8.56Zm-5.7-.2l-2.86-.1.3-8.56,2.85.1-.29,8.56Zm-5.71-.2l-2.86-.1.3-8.56,2.85.1-.29,8.56Zm-5.71-.2l-2.86-.1.3-8.56,2.85.1-.29,8.56Zm-5.71-.2l-2.86-.1.29-8.56,2.85.1-.29,8.56Zm-5.71-.2l-2.85-.1.29-8.56,2.86.1-.3,8.56Zm-5.71-.2l-2.85-.1.29-8.56,2.86.1-.3,8.56Zm-5.7-.2l-2.86-.1.29-8.56,2.85.1-.29,8.56Zm-5.71-.2l-2.86-.1.29-8.56,2.85.1-.29,8.56Zm-5.71-.2l-2.86-.1.29-8.56,2.85.1-.29,8.56Zm-5.7-.2l-2.86-.1.29-8.56,2.85.1-.28,8.56Zm-5.71-.19l-2.86-.1.29-8.56,2.85.1-.28,8.56Zm-5.71-.2l-2.86-.1.29-8.56,2.85.1-.28,8.56Zm-5.71-.19l-2.85-.1.29-8.56,2.86.1-.29,8.56Zm-5.71-.19l-2.85-.1.29-8.56,2.86.1-.29,8.56Zm-5.7-.19l-2.86-.09.28-8.56,2.85.09-.28,8.56Zm-5.71-.19l-2.86-.1.28-8.56,2.85.09-.28,8.56Zm-5.71-.19l-2.86-.09.28-8.56,2.85.09-.28,8.56Zm-5.71-.19l-2.86-.09.29-8.56,2.85.09-.28,8.56Zm-5.71-.19l-2.86-.09.28-8.56,2.85.09-.28,8.56Zm-5.71-.19l-2.85-.09.28-8.56,2.86.09-.28,8.56Zm-5.71-.19l-2.85-.09.28-8.56,2.86.09-.29,8.56Zm-5.71-.19l-2.85-.09.28-8.56,2.86.09-.28,8.56Zm-5.71-.18l-2.85-.09.28-8.56,2.86.09-.28,8.56Zm-5.71-.19l-2.86-.09.28-8.56,2.85.09-.28,8.56Zm-5.71-.18l-2.86-.09.28-8.56,2.85.09-.28,8.56Zm-5.71-.18l-2.85-.09.27-8.56,2.86.09-.28,8.56Zm-5.71-.18l-2.85-.09.27-8.56,2.86.09-.28,8.56Zm-5.71-.18l-2.85-.09.27-8.56,2.86.09-.28,8.56Zm-5.71-.18l-2.85-.09.27-8.56,2.86.09-.28,8.56Zm-5.71-.18l-2.86-.09.27-8.56,2.85.09-.27,8.56Zm-5.71-.18l-2.86-.09.27-8.56,2.85.09-.27,8.56Zm-5.71-.18l-2.85-.09.26-8.56,2.86.09-.27,8.56Zm-5.71-.18l-2.85-.09.26-8.56,2.86.09-.27,8.56Zm-5.71-.18l-2.85-.09.26-8.56,2.86.09-.27,8.56Zm-5.71-.17l-2.85-.09.26-8.56,2.86.09-.27,8.56Zm-5.71-.17l-2.86-.09.26-8.56,2.85.09-.26,8.56Zm-5.71-.17l-2.85-.09.25-8.56,2.86.09-.26,8.56Zm-5.71-.17l-2.85-.09.25-8.56,2.86.09-.26,8.56Zm-5.71-.17l-2.85-.08.25-8.56,2.86.08-.26,8.56Zm-5.71-.17l-2.86-.08.25-8.56,2.85.08-.25,8.56Zm-5.71-.17l-2.85-.08.25-8.56,2.86.08-.25,8.56Zm-5.71-.16l-2.85-.08.25-8.56,2.86.08-.25,8.56Zm-5.71-.17l-2.85-.08.25-8.56,2.86.08-.25,8.56Zm-5.71-.17l-2.85-.08.24-8.56,2.86.08-.25,8.56Zm-5.71-.16l-2.86-.08.24-8.56,2.86.08-.24,8.56Zm-5.71-.16l-2.86-.08.23-8.56,2.86.08-.23,8.56Zm-5.71-.16l-2.86-.08.24-8.56,2.86.08-.24,8.56Zm-5.71-.16l-2.86-.08.23-8.56,2.86.08-.24,8.56Zm-5.71-.16l-2.86-.08.22-8.56,2.87.08-.23,8.56Z"/><path class="cls-5" d="m565.48,507.77l-1.5-.8,1.82-3.4,1.72.44-2.05,3.76Zm-4.03-2.16l-2.53-1.36,4.06-7.54,2.52,1.36-4.05,7.55Zm10.23-.56l-5.88-1.48,2.23-4.15,1.19.64c3.04,1.63,2.65,4.23,2.46,5Zm-15.29-2.17l-2.52-1.36,4.07-7.54,2.52,1.36-4.07,7.54Zm-5.04-2.72l-2.52-1.36,4.08-7.53,2.51,1.36-4.07,7.54Zm-5.04-2.73l-2.52-1.36,4.09-7.53,2.51,1.36-4.08,7.53Zm-5.03-2.73l-2.52-1.37,4.1-7.53,2.51,1.36-4.08,7.53Zm-5.04-2.74l-2.51-1.37,4.1-7.52,2.51,1.37-4.1,7.52Zm-5.02-2.74l-2.51-1.37,4.11-7.52,2.51,1.37-4.11,7.52Zm-5.02-2.75l-2.51-1.37,4.12-7.51,2.51,1.37-4.12,7.52Zm-5.02-2.75l-2.51-1.38,4.12-7.51,2.51,1.38-4.13,7.51Zm-5.02-2.76l-2.5-1.38,4.13-7.51,2.51,1.38-4.14,7.5Zm-5.01-2.76l-2.51-1.38,4.14-7.5,2.5,1.38-4.14,7.5Zm-5.01-2.77l-2.5-1.39,4.15-7.49,2.5,1.39-4.15,7.49Zm-5.01-2.77l-2.5-1.39,4.16-7.49,2.5,1.39-4.16,7.49Zm-5-2.78l-2.5-1.39,4.17-7.48,2.5,1.39-4.17,7.48Zm-5-2.79l-2.5-1.4,4.19-7.47,2.5,1.4-4.18,7.48Zm-5-2.8l-2.49-1.4,4.2-7.47,2.49,1.4-4.19,7.47Zm-4.98-2.8l-2.49-1.41,4.22-7.46,2.49,1.4-4.21,7.46Zm-4.98-2.82l-2.49-1.41,4.24-7.45,2.48,1.41-4.22,7.45Zm-4.99-2.83l-2.48-1.42,4.25-7.44,2.48,1.42-4.25,7.44Zm-4.97-2.84l-2.48-1.43,4.27-7.43,2.47,1.42-4.26,7.43Zm-4.97-2.86l-2.48-1.43,4.3-7.41,2.47,1.43-4.29,7.42Zm-4.96-2.88l-2.48-1.45,4.33-7.39,2.46,1.44-4.31,7.4Zm-4.95-2.9l-2.47-1.46,4.36-7.37,2.46,1.45-4.35,7.38Zm-4.94-2.93l-2.47-1.47,4.41-7.35,2.44,1.46-4.39,7.36Zm-4.93-2.96l-2.46-1.49,4.47-7.31,2.43,1.48-4.44,7.33Zm-4.91-3c-.84-.52-1.66-1.03-2.45-1.53l4.55-7.26c.78.49,1.58.99,2.41,1.5l-4.5,7.29Zm-4.86-3.03l-2.42-1.5,4.5-7.29,2.44,1.51-4.52,7.28Zm-4.84-2.99c-.81-.5-1.62-.99-2.42-1.48l4.44-7.33c.81.49,1.63.99,2.45,1.49l-4.47,7.31Zm-4.85-2.94c-.82-.49-1.63-.98-2.44-1.46l4.38-7.36c.81.48,1.64.98,2.47,1.47l-4.41,7.34Zm-4.88-2.9c-.82-.49-1.64-.96-2.45-1.43l4.31-7.4c.82.48,1.65.96,2.48,1.45l-4.35,7.38Zm-4.89-2.85c-.83-.48-1.65-.95-2.46-1.41l4.24-7.44c.82.47,1.65.94,2.49,1.43l-4.27,7.43Zm-4.93-2.81c-.83-.47-1.66-.93-2.47-1.38l4.16-7.49c.83.46,1.67.93,2.51,1.4l-4.2,7.47Zm-4.95-2.75c-.84-.46-1.67-.91-2.49-1.35l4.07-7.54c.83.45,1.67.91,2.53,1.38l-4.11,7.52Zm-4.98-2.69c-.85-.45-1.68-.89-2.5-1.32l3.97-7.59c.84.44,1.69.89,2.55,1.34l-4.02,7.57Zm-5.01-2.62c-.85-.44-1.69-.86-2.52-1.28l3.86-7.65c.84.42,1.7.86,2.57,1.31l-3.91,7.62Zm-5.04-2.54c-.86-.42-1.7-.84-2.53-1.23l3.72-7.72c.85.41,1.72.83,2.6,1.27l-3.79,7.68Zm-5.07-2.45c-.87-.41-1.72-.8-2.55-1.19l3.57-7.79c.86.39,1.73.8,2.63,1.22l-3.65,7.75Zm-5.11-2.34c-.88-.39-1.73-.77-2.56-1.12l3.39-7.87c.87.37,1.75.76,2.67,1.17l-3.49,7.83Zm-5.14-2.21c-.89-.37-1.75-.72-2.59-1.05l3.17-7.96c.87.35,1.77.71,2.7,1.1l-3.28,7.91Zm-5.18-2.06c-.9-.34-1.77-.66-2.6-.96l2.88-8.07c.88.31,1.8.65,2.75,1.01l-3.03,8.01Zm-5.21-1.86c-.92-.31-1.79-.58-2.61-.83l2.49-8.2c.89.27,1.83.57,2.83.9l-2.71,8.13Zm-5.21-1.58c-.96-.26-1.82-.47-2.59-.64l1.87-8.36c.93.21,1.92.45,2.95.73l-2.23,8.27Zm-5.13-1.14c-1.42-.22-2.07-.23-2.08-.23l-.24-8.56h.24c.49,0,1.6.04,3.42.33l-1.34,8.46Z"/><path class="cls-5" d="m535.26,695.35h-.25c-.9,0-1.78,0-2.63,0l.05-8.57c.83,0,1.7,0,2.58,0h.25v8.57Zm2.88,0l-.05-8.57c.92,0,1.87-.01,2.84-.02l.09,8.57c-.98.01-1.94.02-2.88.02Zm-8.64-.02c-1.01-.01-1.97-.03-2.88-.04l.14-8.57c.9.01,1.84.03,2.83.04l-.09,8.57Zm14.4-.04l-.14-8.57c.93-.01,1.87-.03,2.83-.05l.19,8.57c-.98.02-1.94.04-2.88.05Zm-20.17-.05c-1.05-.03-2.01-.05-2.89-.08l.26-8.56c.85.03,1.8.05,2.83.08l-.2,8.57Zm25.93-.07l-.23-8.56c.93-.03,1.88-.05,2.83-.08l.27,8.56c-.97.03-1.93.06-2.88.08Zm-31.7-.11c-1.91-.07-2.93-.13-2.93-.13l.49-8.55s.99.06,2.78.13l-.33,8.56Zm37.46-.08l-.31-8.56c.93-.03,1.88-.07,2.83-.11l.36,8.56c-.97.04-1.93.08-2.88.11Zm5.76-.24l-.41-8.56c.94-.04,1.88-.09,2.83-.14l.45,8.56c-.97.05-1.93.1-2.87.14Zm5.75-.3l-.49-8.55c.93-.05,1.88-.11,2.83-.17l.54,8.55c-.97.06-1.93.12-2.88.17Zm5.75-.36l-.58-8.55c.93-.06,1.88-.13,2.83-.2l.63,8.55c-.97.07-1.92.14-2.87.2Zm5.74-.42l-.67-8.54c.94-.07,1.88-.15,2.82-.23l.72,8.54c-.96.08-1.92.16-2.87.24Zm5.74-.49l-.77-8.53c.94-.08,1.88-.17,2.82-.26l.82,8.53c-.96.09-1.92.18-2.87.27Zm5.74-.55l-.87-8.52c.94-.1,1.88-.19,2.82-.3l.91,8.52c-.96.1-1.91.2-2.86.3Zm5.73-.62l-.97-8.51c.93-.11,1.87-.22,2.81-.33l1.03,8.5c-.96.12-1.92.23-2.87.34Zm5.73-.69l-1.08-8.5c.93-.12,1.87-.24,2.81-.37l1.13,8.49c-.95.13-1.91.25-2.86.37Zm5.72-.76l-1.19-8.48c.93-.13,1.87-.26,2.8-.4l1.24,8.48c-.95.14-1.9.28-2.86.41Zm5.71-.84l-1.3-8.47c.93-.14,1.86-.29,2.79-.44l1.37,8.46c-.95.15-1.91.3-2.86.45Zm5.7-.92l-1.42-8.45c.92-.16,1.85-.31,2.77-.48l1.48,8.44c-.95.17-1.89.33-2.84.49Zm5.67-1l-1.55-8.43c.92-.17,1.84-.34,2.77-.52l1.62,8.41c-.95.18-1.89.36-2.84.53Zm5.67-1.08l-1.68-8.4c.92-.18,1.84-.37,2.76-.56l1.75,8.39c-.94.2-1.89.39-2.83.58Zm5.66-1.18l-1.82-8.37c.92-.2,1.83-.4,2.75-.61l1.89,8.36c-.94.21-1.88.42-2.83.63Zm5.65-1.27l-1.97-8.34c.91-.22,1.83-.44,2.74-.66l2.04,8.32c-.94.23-1.88.45-2.82.68Zm5.63-1.38l-2.11-8.3c.91-.23,1.82-.47,2.73-.71l2.2,8.28c-.94.25-1.87.49-2.81.73Zm5.61-1.49l-2.28-8.26c.91-.25,1.81-.5,2.71-.76l2.36,8.23c-.93.27-1.86.53-2.8.79Zm5.59-1.6l-2.45-8.21c.9-.27,1.8-.54,2.69-.82l2.55,8.18c-.93.29-1.86.57-2.79.85Zm5.57-1.73l-2.64-8.15c.89-.29,1.78-.58,2.67-.88l2.73,8.12c-.92.31-1.84.61-2.76.91Zm5.52-1.86l-2.83-8.09c.88-.31,1.77-.62,2.64-.94l2.94,8.05c-.91.33-1.83.66-2.75.98Zm5.47-1.99l-3.03-8.02,2.67-1.01,3.03,8.01-2.68,1.02Zm5.34-2.02l-3.02-8.02,2.68-1.01,3.01,8.02-2.67,1Zm5.34-2.01l-3-8.02,2.68-1,3,8.03-2.68,1Zm5.35-2l-2.99-8.03,2.68-1,2.98,8.03-2.68.99Zm5.36-1.99l-2.98-8.03,2.68-.99,2.97,8.04-2.68.99Zm5.35-1.98l-2.96-8.04,2.68-.99,2.97,8.04-2.69.99Zm5.36-1.98l-2.96-8.04,2.69-.99,2.95,8.04-2.68.98Zm5.36-1.97l-2.95-8.04,2.69-.98,2.95,8.05-2.68.98Zm5.36-1.97l-2.95-8.05,2.68-.98,2.95,8.05-2.68.98Zm5.36-1.96l-2.94-8.05,2.68-.98,2.94,8.05-2.68.98Zm5.37-1.96l-2.94-8.05,2.68-.98,2.94,8.05-2.69.98Zm5.37-1.96l-2.93-8.05,2.68-.98,2.94,8.05-2.69.98Zm5.37-1.96l-2.93-8.05,2.68-.98,2.94,8.05-2.69.98Zm5.37-1.96l-2.93-8.05,2.68-.98,2.94,8.05-2.69.98Zm5.37-1.96l-2.93-8.05,2.68-.98,2.94,8.05-2.69.98Zm5.37-1.96l-2.94-8.05,2.67-.98,2.93,8.05-2.67.98Zm5.35-1.95l-2.93-8.05,2.68-.98,2.94,8.05-2.68.98Zm5.37-1.96l-2.94-8.05,2.69-.98,2.94,8.05-2.68.98Zm5.37-1.96l-2.95-8.05,2.69-.99,2.94,8.05-2.69.98Zm5.38-1.97l-2.94-8.05,2.68-.98,2.94,8.05-2.68.98Zm5.37-1.97l-2.95-8.04,2.68-.98,2.95,8.04-2.68.99Zm5.37-1.97l-2.96-8.04,2.68-.99,2.96,8.04-2.69.99Zm5.37-1.97l-2.96-8.04,2.68-.99,2.96,8.04-2.68.99Zm5.36-1.98l-2.97-8.04,2.68-.99,2.97,8.03-2.68.99Zm5.36-1.98l-2.98-8.03,2.68-.99,2.98,8.03-2.68,1Zm5.36-1.99l-2.99-8.03,2.68-1,2.98,8.03-2.68.99Zm5.36-1.99l-2.99-8.03,2.67-1,3,8.02-2.68,1Zm5.36-2l-3.01-8.02,2.68-1,3,8.02-2.67,1Zm5.35-2.01l-3.01-8.02,2.67-1,3.03,8.01-2.68,1.01Zm5.36-2.02l-3.03-8.01,2.67-1.01,3.03,8.01-2.67,1.01Zm5.35-2.03l-3.04-8.01,2.67-1.02,3.05,8.01-2.68,1.02Zm5.35-2.04l-3.07-8,2.67-1.02,3.07,8-2.67,1.02Zm5.34-2.05l-3.08-8,2.66-1.03,3.1,7.99-2.68,1.03Zm5.34-2.07l-3.1-7.99,2.65-1.03,3.12,7.98-2.67,1.04Zm5.34-2.09l-3.13-7.97,2.65-1.04,3.15,7.97-2.67,1.05Zm5.33-2.11l-3.17-7.96,2.65-1.06,3.18,7.96-2.66,1.06Zm5.33-2.13l-3.2-7.95,2.64-1.07,3.22,7.94-2.66,1.07Zm5.32-2.16l-3.25-7.93c.89-.37,1.77-.73,2.63-1.08l3.28,7.92c-.87.36-1.76.73-2.66,1.1Zm5.31-2.2l-3.31-7.9c.89-.37,1.76-.74,2.62-1.1l3.35,7.89c-.87.37-1.75.74-2.65,1.12Zm5.3-2.25l-3.39-7.87c.89-.38,1.75-.76,2.59-1.13l3.44,7.85c-.86.38-1.74.76-2.65,1.15Zm5.29-2.32l-3.5-7.82c.88-.4,1.74-.78,2.56-1.16l3.58,7.78c-.85.39-1.73.79-2.65,1.2Zm5.29-2.43l-3.67-7.74c.88-.42,1.72-.82,2.52-1.22l3.79,7.68c-.83.41-1.71.84-2.64,1.27Zm5.28-2.62l-3.98-7.59c.86-.45,1.66-.88,2.37-1.29l4.26,7.43c-.8.46-1.69.94-2.66,1.45Zm5.37-3.13l-4.83-7.08c.49-.34.79-.58.96-.72l5.6,6.48c-.49.42-1.06.85-1.73,1.31Z"/></g><g id="Baku_City_Azerbaijan_Detailed"><g id="Legend"><circle cx="73.47" cy="218.59" r="13"/><path d="m97.98,217.76v-2.36h8.94v2.36h-8.94Zm0,4.02v-2.38h8.94v2.38h-8.94Z"/><path d="m119.47,224.93h-3.47v-10.02h-3.14v-2.84h9.75v2.84h-3.13v10.02Z"/><path d="m135.37,212.07v7.74c0,1.08-.21,2.02-.62,2.81-.41.79-1.03,1.41-1.85,1.84-.82.43-1.85.65-3.09.65-1.77,0-3.12-.45-4.06-1.36-.93-.91-1.4-2.19-1.4-3.85v-7.82h3.49v7.55c0,.91.17,1.57.51,1.98.34.41.84.62,1.5.62.47,0,.86-.09,1.16-.27s.52-.46.66-.85c.14-.39.21-.89.21-1.5v-7.53h3.47Z"/><path d="m142.29,212.07c1.17,0,2.14.14,2.91.43.77.28,1.36.71,1.75,1.27.39.56.58,1.26.58,2.1,0,.52-.09,1-.26,1.43s-.43.81-.75,1.15c-.33.34-.71.63-1.17.88l3.75,5.6h-3.94l-2.73-4.68h-.88v4.68h-3.47v-12.86h4.21Zm-.05,2.63h-.69v2.94h.65c.53,0,.97-.12,1.31-.35.34-.23.51-.65.51-1.26,0-.42-.14-.74-.42-.98s-.74-.35-1.36-.35Z"/><path d="m162.51,224.93h-4.56l-4.7-9.06h-.08c.03.28.06.61.08.99s.04.78.06,1.18.03.76.03,1.09v5.8h-3.08v-12.86h4.54l4.68,8.94h.05c-.02-.28-.04-.61-.05-.98-.02-.37-.03-.75-.05-1.13-.01-.38-.02-.72-.02-1.01v-5.81h3.1v12.86Z"/><path d="m182.21,224.93h-4.56l-4.7-9.06h-.08c.03.28.06.61.08.99s.04.78.06,1.18.03.76.03,1.09v5.8h-3.08v-12.86h4.54l4.68,8.94h.05c-.02-.28-.04-.61-.05-.98-.02-.37-.03-.75-.05-1.13-.01-.38-.02-.72-.02-1.01v-5.81h3.1v12.86Z"/><path d="m195.93,212.07v7.74c0,1.08-.21,2.02-.62,2.81-.41.79-1.03,1.41-1.85,1.84-.82.43-1.85.65-3.09.65-1.77,0-3.12-.45-4.06-1.36-.93-.91-1.4-2.19-1.4-3.85v-7.82h3.49v7.55c0,.91.17,1.57.51,1.98.34.41.84.62,1.5.62.47,0,.86-.09,1.16-.27s.52-.46.66-.85c.14-.39.21-.89.21-1.5v-7.53h3.47Z"/><path d="m204.23,224.93l-2.63-9.26h-.08c.02.24.05.57.07.98.03.41.05.85.08,1.33s.04.93.04,1.37v5.59h-3.08v-12.86h4.63l2.68,9.13h.07l2.63-9.13h4.64v12.86h-3.19v-5.64c0-.4,0-.84.02-1.31s.03-.91.05-1.32c.02-.41.04-.74.06-.98h-.08l-2.59,9.25h-3.31Z"/><path d="m216.05,212.07h4.49c1.86,0,3.18.28,3.98.83.79.55,1.19,1.34,1.19,2.38,0,.56-.1,1.04-.3,1.43-.2.39-.46.7-.77.93-.31.23-.62.38-.95.47v.09c.35.09.7.23,1.05.44s.64.5.87.91c.23.4.35.95.35,1.63,0,.78-.2,1.45-.59,2.01-.4.56-.96,1-1.69,1.3-.73.3-1.6.45-2.61.45h-5.01v-12.86Zm3.47,4.93h1.05c.58,0,.98-.12,1.21-.36.23-.24.35-.53.35-.87s-.13-.62-.4-.8c-.27-.19-.68-.28-1.24-.28h-.98v2.3Zm0,2.54v2.7h1.22c.6,0,1.03-.13,1.27-.39.24-.26.36-.59.36-.98,0-.23-.05-.44-.15-.65-.1-.2-.28-.37-.52-.49s-.59-.19-1.02-.19h-1.15Z"/><path d="m235.82,224.93h-7.64v-12.86h7.64v2.79h-4.16v2.02h3.85v2.79h-3.85v2.43h4.16v2.83Z"/><path d="m242.29,212.07c1.17,0,2.14.14,2.91.43.77.28,1.36.71,1.75,1.27.39.56.58,1.26.58,2.1,0,.52-.09,1-.26,1.43s-.43.81-.75,1.15c-.33.34-.71.63-1.17.88l3.75,5.6h-3.94l-2.73-4.68h-.88v4.68h-3.47v-12.86h4.21Zm-.05,2.63h-.69v2.94h.65c.53,0,.97-.12,1.31-.35.34-.23.51-.65.51-1.26,0-.42-.14-.74-.42-.98s-.74-.35-1.36-.35Z"/><path d="m258.68,221.02c0,.7-.18,1.36-.53,1.98s-.9,1.13-1.64,1.52c-.74.39-1.7.58-2.87.58-.59,0-1.1-.03-1.54-.08-.44-.05-.85-.14-1.24-.26-.38-.12-.78-.28-1.19-.47v-3.1c.7.35,1.4.62,2.11.8.71.18,1.35.28,1.93.28.35,0,.63-.04.85-.12.22-.08.38-.19.49-.34.11-.14.16-.31.16-.5,0-.22-.08-.41-.23-.57s-.4-.32-.74-.49c-.34-.17-.79-.38-1.35-.63-.47-.22-.9-.45-1.29-.69-.38-.23-.71-.5-.99-.81-.27-.3-.48-.66-.63-1.06-.15-.4-.22-.88-.22-1.43,0-.83.2-1.52.61-2.08.41-.56.98-.98,1.71-1.26.73-.28,1.57-.42,2.53-.42.84,0,1.59.09,2.26.28.67.19,1.27.4,1.81.64l-1.06,2.68c-.55-.25-1.09-.45-1.63-.6-.53-.15-1.03-.22-1.49-.22-.3,0-.54.04-.73.11-.19.07-.33.17-.42.29s-.14.26-.14.42c0,.2.08.38.23.54.16.16.42.33.78.51.37.19.87.42,1.5.72.63.28,1.16.58,1.6.91.44.33.78.72,1.01,1.17.23.45.35,1.02.35,1.68Z"/><circle class="cls-5" cx="73.47" cy="138.59" r="13"/><path d="m73.47,152.59c-7.72,0-14-6.28-14-14s6.28-14,14-14,14,6.28,14,14-6.28,14-14,14Zm0-26c-6.62,0-12,5.38-12,12s5.38,12,12,12,12-5.38,12-12-5.38-12-12-12Z"/><path d="m97.98,137.76v-2.36h8.94v2.36h-8.94Zm0,4.02v-2.38h8.94v2.38h-8.94Z"/><path d="m124.71,138.23c0,1.5-.28,2.74-.84,3.73-.56.99-1.34,1.73-2.35,2.23-1.01.5-2.2.74-3.57.74h-4.16v-12.86h4.45c1.38,0,2.56.24,3.52.71s1.69,1.17,2.2,2.08c.5.92.75,2.04.75,3.36Zm-3.61.12c0-.78-.1-1.43-.31-1.94s-.52-.9-.94-1.15c-.42-.25-.94-.38-1.57-.38h-1.01v7.2h.77c1.06,0,1.83-.31,2.32-.92.49-.61.74-1.55.74-2.81Z"/><path d="m131.23,132.07c1.17,0,2.14.14,2.91.43.77.28,1.36.71,1.75,1.27.39.56.58,1.26.58,2.1,0,.52-.09,1-.26,1.43s-.43.81-.75,1.15c-.33.34-.71.63-1.17.88l3.75,5.6h-3.94l-2.73-4.68h-.88v4.68h-3.47v-12.86h4.21Zm-.05,2.63h-.69v2.94h.65c.53,0,.97-.12,1.31-.35.34-.23.51-.65.51-1.26,0-.42-.14-.74-.42-.98s-.74-.35-1.36-.35Z"/><path d="m147.62,141.02c0,.7-.18,1.36-.53,1.98s-.9,1.13-1.64,1.52c-.74.39-1.7.58-2.87.58-.59,0-1.1-.03-1.54-.08-.44-.05-.85-.14-1.24-.26-.38-.12-.78-.28-1.19-.47v-3.1c.7.35,1.4.62,2.11.8.71.18,1.35.28,1.93.28.35,0,.63-.04.85-.12.22-.08.38-.19.49-.34.11-.14.16-.31.16-.5,0-.22-.08-.41-.23-.57s-.4-.32-.74-.49c-.34-.17-.79-.38-1.35-.63-.47-.22-.9-.45-1.29-.69-.38-.23-.71-.5-.99-.81-.27-.3-.48-.66-.63-1.06-.15-.4-.22-.88-.22-1.43,0-.83.2-1.52.61-2.08.41-.56.98-.98,1.71-1.26.73-.28,1.57-.42,2.53-.42.84,0,1.59.09,2.26.28.67.19,1.27.4,1.81.64l-1.06,2.68c-.55-.25-1.09-.45-1.63-.6-.53-.15-1.03-.22-1.49-.22-.3,0-.54.04-.73.11-.19.07-.33.17-.42.29s-.14.26-.14.42c0,.2.08.38.23.54.16.16.42.33.78.51.37.19.87.42,1.5.72.63.28,1.16.58,1.6.91.44.33.78.72,1.01,1.17.23.45.35,1.02.35,1.68Z"/><path d="m165.2,138.23c0,1.5-.28,2.74-.84,3.73-.56.99-1.34,1.73-2.35,2.23-1.01.5-2.2.74-3.57.74h-4.16v-12.86h4.45c1.38,0,2.56.24,3.52.71s1.69,1.17,2.2,2.08c.5.92.75,2.04.75,3.36Zm-3.61.12c0-.78-.1-1.43-.31-1.94s-.52-.9-.94-1.15c-.42-.25-.94-.38-1.57-.38h-1.01v7.2h.77c1.06,0,1.83-.31,2.32-.92.49-.61.74-1.55.74-2.81Z"/><path d="m175.14,144.93h-7.64v-12.86h7.64v2.79h-4.16v2.02h3.85v2.79h-3.85v2.43h4.16v2.83Z"/><path d="m183.07,144.93h-3.47v-10.02h-3.14v-2.84h9.75v2.84h-3.13v10.02Z"/><path d="m195.67,144.93h-7.64v-12.86h7.64v2.79h-4.16v2.02h3.85v2.79h-3.85v2.43h4.16v2.83Z"/><path d="m203.65,134.73c-.41,0-.78.09-1.1.26s-.6.42-.83.75c-.23.33-.4.73-.52,1.2-.12.47-.18,1.01-.18,1.61,0,.81.1,1.49.31,2.04.21.55.52.97.94,1.25.42.28.95.42,1.58.42.58,0,1.13-.08,1.66-.24.53-.16,1.07-.35,1.61-.57v2.94c-.57.25-1.15.43-1.75.55-.59.11-1.23.17-1.9.17-1.4,0-2.54-.28-3.43-.83-.89-.55-1.54-1.32-1.96-2.31-.42-.99-.63-2.13-.63-3.43,0-.97.14-1.86.41-2.67.27-.81.67-1.51,1.2-2.11.53-.6,1.18-1.06,1.96-1.38.78-.33,1.67-.49,2.67-.49.62,0,1.28.07,1.97.22.69.14,1.36.37,2.02.69l-1.06,2.74c-.47-.22-.94-.41-1.42-.56-.48-.15-.99-.23-1.53-.23Z"/><path d="m215.29,144.93h-3.47v-10.02h-3.14v-2.84h9.75v2.84h-3.13v10.02Z"/><path d="m220.26,144.93v-12.86h3.49v12.86h-3.49Z"/><path d="m238.57,138.48c0,.99-.12,1.89-.36,2.7-.24.81-.61,1.51-1.11,2.1-.5.59-1.15,1.04-1.94,1.35-.79.31-1.74.47-2.84.47s-2.01-.16-2.8-.47c-.79-.31-1.44-.76-1.95-1.35-.51-.58-.89-1.28-1.13-2.1-.25-.81-.37-1.72-.37-2.73,0-1.34.22-2.5.66-3.49.44-.99,1.13-1.75,2.05-2.3s2.11-.81,3.55-.81,2.66.27,3.58.82,1.59,1.31,2.02,2.3c.43.99.64,2.15.64,3.49Zm-8.85,0c0,.77.09,1.44.26,2s.46.99.84,1.28c.38.3.88.45,1.5.45s1.15-.15,1.53-.45c.38-.3.65-.73.82-1.28s.25-1.22.25-2c0-1.16-.19-2.08-.58-2.75s-1.05-1.01-2-1.01c-.63,0-1.13.15-1.52.46-.38.31-.66.74-.83,1.3s-.26,1.23-.26,2.01Z"/><path d="m253.13,144.93h-4.56l-4.7-9.06h-.08c.03.28.06.61.08.99s.04.78.06,1.18.03.76.03,1.09v5.8h-3.08v-12.86h4.54l4.68,8.94h.05c-.02-.28-.04-.61-.05-.98-.02-.37-.03-.75-.05-1.13-.01-.38-.02-.72-.02-1.01v-5.81h3.1v12.86Z"/><path d="m269.76,144.93h-10.02v-2.15l5.57-7.91h-5.44v-2.81h9.75v2.14l-5.57,7.92h5.71v2.81Z"/><path d="m283.63,138.48c0,.99-.12,1.89-.36,2.7-.24.81-.61,1.51-1.11,2.1-.5.59-1.15,1.04-1.94,1.35-.79.31-1.74.47-2.84.47s-2.01-.16-2.8-.47c-.79-.31-1.44-.76-1.95-1.35-.51-.58-.89-1.28-1.13-2.1-.25-.81-.37-1.72-.37-2.73,0-1.34.22-2.5.66-3.49.44-.99,1.13-1.75,2.05-2.3s2.11-.81,3.55-.81,2.66.27,3.58.82,1.59,1.31,2.02,2.3c.43.99.64,2.15.64,3.49Zm-8.85,0c0,.77.09,1.44.26,2s.46.99.84,1.28c.38.3.88.45,1.5.45s1.15-.15,1.53-.45c.38-.3.65-.73.82-1.28s.25-1.22.25-2c0-1.16-.19-2.08-.58-2.75s-1.05-1.01-2-1.01c-.63,0-1.13.15-1.52.46-.38.31-.66.74-.83,1.3s-.26,1.23-.26,2.01Z"/><path d="m298.2,144.93h-4.56l-4.7-9.06h-.08c.03.28.06.61.08.99s.04.78.06,1.18.03.76.03,1.09v5.8h-3.08v-12.86h4.54l4.68,8.94h.05c-.02-.28-.04-.61-.05-.98-.02-.37-.03-.75-.05-1.13-.01-.38-.02-.72-.02-1.01v-5.81h3.1v12.86Z"/><path d="m308.61,144.93h-7.64v-12.86h7.64v2.79h-4.16v2.02h3.85v2.79h-3.85v2.43h4.16v2.83Z"/><path d="m97.98,176.76v-2.36h8.94v2.36h-8.94Zm0,4.02v-2.38h8.94v2.38h-8.94Z"/><path d="m124.71,177.23c0,1.5-.28,2.74-.84,3.73-.56.99-1.34,1.73-2.35,2.23-1.01.5-2.2.74-3.57.74h-4.16v-12.86h4.45c1.38,0,2.56.24,3.52.71s1.69,1.17,2.2,2.08c.5.92.75,2.04.75,3.36Zm-3.61.12c0-.78-.1-1.43-.31-1.94s-.52-.9-.94-1.15c-.42-.25-.94-.38-1.57-.38h-1.01v7.2h.77c1.06,0,1.83-.31,2.32-.92.49-.61.74-1.55.74-2.81Z"/><path d="m131.23,171.07c1.17,0,2.14.14,2.91.43.77.28,1.36.71,1.75,1.27.39.56.58,1.26.58,2.1,0,.52-.09,1-.26,1.43s-.43.81-.75,1.15c-.33.34-.71.63-1.17.88l3.75,5.6h-3.94l-2.73-4.68h-.88v4.68h-3.47v-12.86h4.21Zm-.05,2.63h-.69v2.94h.65c.53,0,.97-.12,1.31-.35.34-.23.51-.65.51-1.26,0-.42-.14-.74-.42-.98s-.74-.35-1.36-.35Z"/><path d="m147.62,180.02c0,.7-.18,1.36-.53,1.98s-.9,1.13-1.64,1.52c-.74.39-1.7.58-2.87.58-.59,0-1.1-.03-1.54-.08-.44-.05-.85-.14-1.24-.26-.38-.12-.78-.28-1.19-.47v-3.1c.7.35,1.4.62,2.11.8.71.18,1.35.28,1.93.28.35,0,.63-.04.85-.12.22-.08.38-.19.49-.34.11-.14.16-.31.16-.5,0-.22-.08-.41-.23-.57s-.4-.32-.74-.49c-.34-.17-.79-.38-1.35-.63-.47-.22-.9-.45-1.29-.69-.38-.23-.71-.5-.99-.81-.27-.3-.48-.66-.63-1.06-.15-.4-.22-.88-.22-1.43,0-.83.2-1.52.61-2.08.41-.56.98-.98,1.71-1.26.73-.28,1.57-.42,2.53-.42.84,0,1.59.09,2.26.28.67.19,1.27.4,1.81.64l-1.06,2.68c-.55-.25-1.09-.45-1.63-.6-.53-.15-1.03-.22-1.49-.22-.3,0-.54.04-.73.11-.19.07-.33.17-.42.29s-.14.26-.14.42c0,.2.08.38.23.54.16.16.42.33.78.51.37.19.87.42,1.5.72.63.28,1.16.58,1.6.91.44.33.78.72,1.01,1.17.23.45.35,1.02.35,1.68Z"/><path d="m163.45,183.93h-10.02v-2.15l5.57-7.91h-5.44v-2.81h9.75v2.14l-5.57,7.92h5.71v2.81Z"/><path d="m177.33,177.48c0,.99-.12,1.89-.36,2.7-.24.81-.61,1.51-1.11,2.1-.5.59-1.15,1.04-1.94,1.35-.79.31-1.74.47-2.84.47s-2.01-.16-2.8-.47c-.79-.31-1.44-.76-1.95-1.35-.51-.58-.89-1.28-1.13-2.1-.25-.81-.37-1.72-.37-2.73,0-1.34.22-2.5.66-3.49.44-.99,1.13-1.75,2.05-2.3s2.11-.81,3.55-.81,2.66.27,3.58.82,1.59,1.31,2.02,2.3c.43.99.64,2.15.64,3.49Zm-8.85,0c0,.77.09,1.44.26,2s.46.99.84,1.28c.38.3.88.45,1.5.45s1.15-.15,1.53-.45c.38-.3.65-.73.82-1.28s.25-1.22.25-2c0-1.16-.19-2.08-.58-2.75s-1.05-1.01-2-1.01c-.63,0-1.13.15-1.52.46-.38.31-.66.74-.83,1.3s-.26,1.23-.26,2.01Z"/><path d="m191.89,183.93h-4.56l-4.7-9.06h-.08c.03.28.06.61.08.99s.04.78.06,1.18.03.76.03,1.09v5.8h-3.08v-12.86h4.54l4.68,8.94h.05c-.02-.28-.04-.61-.05-.98-.02-.37-.03-.75-.05-1.13-.01-.38-.02-.72-.02-1.01v-5.81h3.1v12.86Z"/><path d="m202.31,183.93h-7.64v-12.86h7.64v2.79h-4.16v2.02h3.85v2.79h-3.85v2.43h4.16v2.83Z"/><path d="m212.97,180.02c0,.7-.18,1.36-.53,1.98s-.9,1.13-1.64,1.52c-.74.39-1.7.58-2.87.58-.59,0-1.1-.03-1.54-.08-.44-.05-.85-.14-1.24-.26-.38-.12-.78-.28-1.19-.47v-3.1c.7.35,1.4.62,2.11.8.71.18,1.35.28,1.93.28.35,0,.63-.04.85-.12.22-.08.38-.19.49-.34.11-.14.16-.31.16-.5,0-.22-.08-.41-.23-.57s-.4-.32-.74-.49c-.34-.17-.79-.38-1.35-.63-.47-.22-.9-.45-1.29-.69-.38-.23-.71-.5-.99-.81-.27-.3-.48-.66-.63-1.06-.15-.4-.22-.88-.22-1.43,0-.83.2-1.52.61-2.08.41-.56.98-.98,1.71-1.26.73-.28,1.57-.42,2.53-.42.84,0,1.59.09,2.26.28.67.19,1.27.4,1.81.64l-1.06,2.68c-.55-.25-1.09-.45-1.63-.6-.53-.15-1.03-.22-1.49-.22-.3,0-.54.04-.73.11-.19.07-.33.17-.42.29s-.14.26-.14.42c0,.2.08.38.23.54.16.16.42.33.78.51.37.19.87.42,1.5.72.63.28,1.16.58,1.6.91.44.33.78.72,1.01,1.17.23.45.35,1.02.35,1.68Z"/><path class="cls-5" d="m86.47,189.59h-2.5v-23h2.5v23Zm-5.5,0h-3v-23h3v23Zm-6,0h-3v-23h3v23Zm-6,0h-3v-23h3v23Zm-6,0h-3v-23h3v23Z"/><path class="cls-1" d="m72.95,217.36c0,.84-.07,1.59-.2,2.26s-.35,1.23-.64,1.69-.68.82-1.17,1.06c-.48.24-1.08.37-1.78.37-.88,0-1.59-.21-2.15-.64-.56-.43-.97-1.04-1.24-1.84-.26-.8-.4-1.76-.4-2.89s.12-2.1.36-2.91c.24-.81.64-1.42,1.19-1.85.55-.43,1.3-.65,2.23-.65.88,0,1.59.21,2.15.64.56.43.97,1.04,1.24,1.85.27.81.4,1.78.4,2.92Zm-4.75,0c0,.68.02,1.26.08,1.72.05.46.15.81.29,1.04.14.23.34.35.61.35s.46-.12.6-.35.23-.58.29-1.04.08-1.04.08-1.72-.03-1.27-.08-1.74-.15-.81-.29-1.05-.34-.35-.6-.35-.46.12-.61.35c-.14.24-.24.59-.29,1.05-.05.46-.08,1.04-.08,1.74Z"/><path class="cls-1" d="m80.22,222.59h-2.88v-5.71c0-.26,0-.54.01-.85,0-.31.02-.59.03-.84-.12.15-.24.27-.35.38-.11.11-.21.2-.31.29l-1.19.98-1.47-1.81,3.6-2.93h2.55v10.48Z"/></g><g id="_1"><path d="m634.4,515.07c-6.33,0-11.47-5.15-11.47-11.47s5.15-11.47,11.47-11.47,11.47,5.15,11.47,11.47-5.15,11.47-11.47,11.47Z"/><path d="m634.4,493.13c5.78,0,10.47,4.69,10.47,10.47s-4.69,10.47-10.47,10.47-10.47-4.69-10.47-10.47,4.69-10.47,10.47-10.47m0-2c-6.88,0-12.47,5.59-12.47,12.47s5.59,12.47,12.47,12.47,12.47-5.59,12.47-12.47-5.59-12.47-12.47-12.47h0Z"/><text class="cls-2" transform="translate(626.2 507.74)"><tspan x="0" y="0">01</tspan></text></g><g id="_1-2"><circle cx="543.96" cy="539.77" r="11.47"/><path d="m543.96,529.3c5.78,0,10.47,4.69,10.47,10.47s-4.69,10.47-10.47,10.47-10.47-4.69-10.47-10.47,4.69-10.47,10.47-10.47m0-2c-6.88,0-12.47,5.59-12.47,12.47s5.59,12.47,12.47,12.47,12.47-5.59,12.47-12.47-5.59-12.47-12.47-12.47h0Z"/><text class="cls-2" transform="translate(535.76 543.92)"><tspan x="0" y="0">02</tspan></text></g><g id="_1-3"><circle cx="588.71" cy="599.75" r="11.47"/><path d="m588.71,589.28c5.78,0,10.47,4.69,10.47,10.47s-4.69,10.47-10.47,10.47-10.47-4.69-10.47-10.47,4.69-10.47,10.47-10.47m0-2c-6.88,0-12.47,5.59-12.47,12.47s5.59,12.47,12.47,12.47,12.47-5.59,12.47-12.47-5.59-12.47-12.47-12.47h0Z"/><text class="cls-2" transform="translate(580.51 603.89)"><tspan x="0" y="0">03</tspan></text></g><g id="_1-4"><path d="m286.93,509.36c-6.33,0-11.47-5.15-11.47-11.47s5.15-11.47,11.47-11.47,11.47,5.15,11.47,11.47-5.15,11.47-11.47,11.47Z"/><path d="m286.93,487.42c5.78,0,10.47,4.69,10.47,10.47s-4.69,10.47-10.47,10.47-10.47-4.69-10.47-10.47,4.69-10.47,10.47-10.47m0-2c-6.88,0-12.47,5.59-12.47,12.47s5.59,12.47,12.47,12.47,12.47-5.59,12.47-12.47-5.59-12.47-12.47-12.47h0Z"/><text class="cls-2" transform="translate(278.73 502.03)"><tspan x="0" y="0">04</tspan></text></g><g id="_1-5"><circle cx="201.25" cy="579.76" r="11.47"/><path d="m201.25,569.29c5.78,0,10.47,4.69,10.47,10.47s-4.69,10.47-10.47,10.47-10.47-4.69-10.47-10.47,4.69-10.47,10.47-10.47m0-2c-6.88,0-12.47,5.59-12.47,12.47s5.59,12.47,12.47,12.47,12.47-5.59,12.47-12.47-5.59-12.47-12.47-12.47h0Z"/><text class="cls-2" transform="translate(193.05 583.9)"><tspan x="0" y="0">05</tspan></text></g><g id="_1-6"><circle cx="138.42" cy="488.37" r="11.47"/><path d="m138.42,477.9c5.78,0,10.47,4.69,10.47,10.47s-4.69,10.47-10.47,10.47-10.47-4.69-10.47-10.47,4.69-10.47,10.47-10.47m0-2c-6.88,0-12.47,5.59-12.47,12.47s5.59,12.47,12.47,12.47,12.47-5.59,12.47-12.47-5.59-12.47-12.47-12.47h0Z"/><text class="cls-2" transform="translate(130.22 492.51)"><tspan x="0" y="0">06</tspan></text></g><g id="_1-7"><path d="m18.47,597.89c-6.33,0-11.47-5.15-11.47-11.47s5.15-11.47,11.47-11.47,11.47,5.15,11.47,11.47-5.15,11.47-11.47,11.47Z"/><path d="m18.47,575.95c5.78,0,10.47,4.69,10.47,10.47s-4.69,10.47-10.47,10.47-10.47-4.69-10.47-10.47,4.69-10.47,10.47-10.47m0-2c-6.88,0-12.47,5.59-12.47,12.47s5.59,12.47,12.47,12.47,12.47-5.59,12.47-12.47-5.59-12.47-12.47-12.47h0Z"/><text class="cls-2" transform="translate(10.27 590.56)"><tspan x="0" y="0">07</tspan></text></g><g id="_1-8"><path d="m76.54,651.2c-6.33,0-11.47-5.15-11.47-11.47s5.15-11.47,11.47-11.47,11.47,5.15,11.47,11.47-5.15,11.47-11.47,11.47Z"/><path d="m76.54,629.26c5.78,0,10.47,4.69,10.47,10.47s-4.69,10.47-10.47,10.47-10.47-4.69-10.47-10.47,4.69-10.47,10.47-10.47m0-2c-6.88,0-12.47,5.59-12.47,12.47s5.59,12.47,12.47,12.47,12.47-5.59,12.47-12.47-5.59-12.47-12.47-12.47h0Z"/><text class="cls-2" transform="translate(68.34 643.88)"><tspan x="0" y="0">08</tspan></text></g><g id="_1-9"><circle cx="398.31" cy="654.96" r="11.47"/><path d="m398.31,644.49c5.78,0,10.47,4.69,10.47,10.47s-4.69,10.47-10.47,10.47-10.47-4.69-10.47-10.47,4.69-10.47,10.47-10.47m0-2c-6.88,0-12.47,5.59-12.47,12.47s5.59,12.47,12.47,12.47,12.47-5.59,12.47-12.47-5.59-12.47-12.47-12.47h0Z"/><text class="cls-2" transform="translate(390.11 659.11)"><tspan x="0" y="0">09</tspan></text></g><g id="_1-10"><circle cx="598.23" cy="634.97" r="11.47"/><path d="m598.23,624.5c5.78,0,10.47,4.69,10.47,10.47s-4.69,10.47-10.47,10.47-10.47-4.69-10.47-10.47,4.69-10.47,10.47-10.47m0-2c-6.88,0-12.47,5.59-12.47,12.47s5.59,12.47,12.47,12.47,12.47-5.59,12.47-12.47-5.59-12.47-12.47-12.47h0Z"/><text class="cls-2" transform="translate(590.03 639.12)"><tspan x="0" y="0">10</tspan></text></g><g id="_1-11"><circle cx="933.32" cy="535.97" r="11.47"/><path d="m933.32,525.49c5.78,0,10.47,4.69,10.47,10.47s-4.69,10.47-10.47,10.47-10.47-4.69-10.47-10.47,4.69-10.47,10.47-10.47m0-2c-6.88,0-12.47,5.59-12.47,12.47s5.59,12.47,12.47,12.47,12.47-5.59,12.47-12.47-5.59-12.47-12.47-12.47h0Z"/><text class="cls-2" transform="translate(925.12 540.11)"><tspan x="0" y="0">11</tspan></text></g><g id="_1-12"><circle cx="840.98" cy="484.56" r="11.47"/><path d="m840.98,474.09c5.78,0,10.47,4.69,10.47,10.47s-4.69,10.47-10.47,10.47-10.47-4.69-10.47-10.47,4.69-10.47,10.47-10.47m0-2c-6.88,0-12.47,5.59-12.47,12.47s5.59,12.47,12.47,12.47,12.47-5.59,12.47-12.47-5.59-12.47-12.47-12.47h0Z"/><text class="cls-2" transform="translate(832.78 488.7)"><tspan x="0" y="0">12</tspan></text></g><g id="_1-13"><path d="m939.04,497.94c-6.33,0-11.47-5.15-11.47-11.47s5.15-11.47,11.47-11.47,11.47,5.15,11.47,11.47-5.15,11.47-11.47,11.47Z"/><path d="m939.04,475.99c5.78,0,10.47,4.69,10.47,10.47s-4.69,10.47-10.47,10.47-10.47-4.69-10.47-10.47,4.69-10.47,10.47-10.47m0-2c-6.88,0-12.47,5.59-12.47,12.47s5.59,12.47,12.47,12.47,12.47-5.59,12.47-12.47-5.59-12.47-12.47-12.47h0Z"/><text class="cls-2" transform="translate(930.83 490.61)"><tspan x="0" y="0">13</tspan></text></g><g id="_1-14"><path d="m981.88,424.63c-6.33,0-11.47-5.15-11.47-11.47s5.15-11.47,11.47-11.47,11.47,5.15,11.47,11.47-5.15,11.47-11.47,11.47Z"/><path d="m981.88,402.69c5.78,0,10.47,4.69,10.47,10.47s-4.69,10.47-10.47,10.47-10.47-4.69-10.47-10.47,4.69-10.47,10.47-10.47m0-2c-6.88,0-12.47,5.59-12.47,12.47s5.59,12.47,12.47,12.47,12.47-5.59,12.47-12.47-5.59-12.47-12.47-12.47h0Z"/><text class="cls-2" transform="translate(973.67 417.3)"><tspan x="0" y="0">14</tspan></text></g><g id="_1-15"><circle cx="917.14" cy="405.54" r="11.47"/><path d="m917.14,395.07c5.78,0,10.47,4.69,10.47,10.47s-4.69,10.47-10.47,10.47-10.47-4.69-10.47-10.47,4.69-10.47,10.47-10.47m0-2c-6.88,0-12.47,5.59-12.47,12.47s5.59,12.47,12.47,12.47,12.47-5.59,12.47-12.47-5.59-12.47-12.47-12.47h0Z"/><text class="cls-2" transform="translate(908.94 409.69)"><tspan x="0" y="0">15</tspan></text></g><g id="_1-16"><circle cx="974.26" cy="346.52" r="11.47"/><path d="m974.26,336.05c5.78,0,10.47,4.69,10.47,10.47s-4.69,10.47-10.47,10.47-10.47-4.69-10.47-10.47,4.69-10.47,10.47-10.47m0-2c-6.88,0-12.47,5.59-12.47,12.47s5.59,12.47,12.47,12.47,12.47-5.59,12.47-12.47-5.59-12.47-12.47-12.47h0Z"/><text class="cls-2" transform="translate(966.06 350.67)"><tspan x="0" y="0">16</tspan></text></g><g id="_1-17"><circle cx="124.14" cy="336.05" r="11.47"/><path d="m124.14,325.58c5.78,0,10.47,4.69,10.47,10.47s-4.69,10.47-10.47,10.47-10.47-4.69-10.47-10.47,4.69-10.47,10.47-10.47m0-2c-6.88,0-12.47,5.59-12.47,12.47s5.59,12.47,12.47,12.47,12.47-5.59,12.47-12.47-5.59-12.47-12.47-12.47h0Z"/><text class="cls-2" transform="translate(115.94 340.19)"><tspan x="0" y="0">17</tspan></text></g><g id="_1-18"><path d="m231.71,433.2c-6.33,0-11.47-5.15-11.47-11.47s5.15-11.47,11.47-11.47,11.47,5.15,11.47,11.47-5.15,11.47-11.47,11.47Z"/><path d="m231.72,411.26c5.78,0,10.47,4.69,10.47,10.47s-4.69,10.47-10.47,10.47-10.47-4.69-10.47-10.47,4.69-10.47,10.47-10.47m0-2c-6.88,0-12.47,5.59-12.47,12.47s5.59,12.47,12.47,12.47,12.47-5.59,12.47-12.47-5.59-12.47-12.47-12.47h0Z"/><text class="cls-2" transform="translate(223.51 425.87)"><tspan x="0" y="0">18</tspan></text></g><g id="_1-19"><circle cx="334.53" cy="390.31" r="11.47"/><path d="m334.53,379.84c5.78,0,10.47,4.69,10.47,10.47s-4.69,10.47-10.47,10.47-10.47-4.69-10.47-10.47,4.69-10.47,10.47-10.47m0-2c-6.88,0-12.47,5.59-12.47,12.47s5.59,12.47,12.47,12.47,12.47-5.59,12.47-12.47-5.59-12.47-12.47-12.47h0Z"/><text class="cls-2" transform="translate(326.33 394.46)"><tspan x="0" y="0">19</tspan></text></g></g></svg>