<?xml version="1.0" encoding="UTF-8"?><svg id="Monaco_Detailed" xmlns="http://www.w3.org/2000/svg" viewBox="0 0 1000 1000"><defs><style>.cls-1,.cls-2{fill:#fff;}.cls-3{fill:#fae44a;}.cls-4{fill:#db4a25;}.cls-5,.cls-6{fill:#1bce20;}.cls-7{fill:#75e5fd;}.cls-6{stroke:#000;stroke-miterlimit:10;stroke-width:2px;}.cls-2{font-family:OpenSans-ExtraBold, 'Open Sans';font-size:13.33px;}</style></defs><g id="Legend"><circle cx="60.04" cy="214.7" r="13"/><g><path d="M84.54,213.87v-2.36h8.94v2.36h-8.94Zm0,4.02v-2.38h8.94v2.38h-8.94Z"/><path d="M106.03,221.04h-3.47v-10.02h-3.14v-2.84h9.75v2.84h-3.13v10.02Z"/><path d="M121.94,208.18v7.74c0,1.08-.21,2.02-.62,2.81-.41,.79-1.03,1.41-1.85,1.84-.82,.43-1.85,.65-3.09,.65-1.77,0-3.12-.45-4.06-1.36-.93-.91-1.4-2.19-1.4-3.85v-7.82h3.49v7.55c0,.91,.17,1.57,.51,1.98,.34,.41,.84,.62,1.5,.62,.47,0,.86-.09,1.16-.27s.52-.46,.66-.85c.14-.39,.21-.89,.21-1.5v-7.53h3.47Z"/><path d="M128.85,208.18c1.17,0,2.14,.14,2.91,.43,.77,.28,1.36,.71,1.75,1.27,.39,.56,.58,1.26,.58,2.1,0,.52-.09,1-.26,1.43s-.43,.81-.75,1.15c-.33,.34-.71,.63-1.17,.88l3.75,5.6h-3.94l-2.73-4.68h-.88v4.68h-3.47v-12.86h4.21Zm-.05,2.63h-.69v2.94h.65c.53,0,.97-.12,1.31-.35,.34-.23,.51-.65,.51-1.26,0-.42-.14-.74-.42-.98s-.74-.35-1.36-.35Z"/><path d="M149.08,221.04h-4.56l-4.7-9.06h-.08c.03,.28,.06,.61,.08,.99s.04,.78,.06,1.18,.03,.76,.03,1.09v5.8h-3.08v-12.86h4.54l4.68,8.94h.05c-.02-.28-.04-.61-.05-.98-.02-.37-.03-.75-.05-1.13-.01-.38-.02-.72-.02-1.01v-5.81h3.1v12.86Z"/><path d="M168.78,221.04h-4.56l-4.7-9.06h-.08c.03,.28,.06,.61,.08,.99s.04,.78,.06,1.18,.03,.76,.03,1.09v5.8h-3.08v-12.86h4.54l4.68,8.94h.05c-.02-.28-.04-.61-.05-.98-.02-.37-.03-.75-.05-1.13-.01-.38-.02-.72-.02-1.01v-5.81h3.1v12.86Z"/><path d="M182.49,208.18v7.74c0,1.08-.21,2.02-.62,2.81-.41,.79-1.03,1.41-1.85,1.84-.82,.43-1.85,.65-3.09,.65-1.77,0-3.12-.45-4.06-1.36-.93-.91-1.4-2.19-1.4-3.85v-7.82h3.49v7.55c0,.91,.17,1.57,.51,1.98,.34,.41,.84,.62,1.5,.62,.47,0,.86-.09,1.16-.27s.52-.46,.66-.85c.14-.39,.21-.89,.21-1.5v-7.53h3.47Z"/><path d="M190.8,221.04l-2.63-9.26h-.08c.02,.24,.05,.57,.07,.98,.03,.41,.05,.85,.08,1.33s.04,.93,.04,1.37v5.59h-3.08v-12.86h4.63l2.68,9.13h.07l2.63-9.13h4.64v12.86h-3.19v-5.64c0-.4,0-.84,.02-1.31s.03-.91,.05-1.32c.02-.41,.04-.74,.06-.98h-.08l-2.59,9.25h-3.31Z"/><path d="M202.61,208.18h4.49c1.86,0,3.18,.28,3.98,.83,.79,.55,1.19,1.34,1.19,2.38,0,.56-.1,1.04-.3,1.43-.2,.39-.46,.7-.77,.93-.31,.23-.62,.38-.95,.47v.09c.35,.09,.7,.23,1.05,.44s.64,.5,.87,.91c.23,.4,.35,.95,.35,1.63,0,.78-.2,1.45-.59,2.01-.4,.56-.96,1-1.69,1.3-.73,.3-1.6,.45-2.61,.45h-5.01v-12.86Zm3.47,4.93h1.05c.58,0,.98-.12,1.21-.36,.23-.24,.35-.53,.35-.87s-.13-.62-.4-.8c-.27-.19-.68-.28-1.24-.28h-.98v2.3Zm0,2.54v2.7h1.22c.6,0,1.03-.13,1.27-.39,.24-.26,.36-.59,.36-.98,0-.23-.05-.44-.15-.65-.1-.2-.28-.37-.52-.49s-.59-.19-1.02-.19h-1.15Z"/><path d="M222.39,221.04h-7.64v-12.86h7.64v2.79h-4.16v2.02h3.85v2.79h-3.85v2.43h4.16v2.83Z"/><path d="M228.85,208.18c1.17,0,2.14,.14,2.91,.43,.77,.28,1.36,.71,1.75,1.27,.39,.56,.58,1.26,.58,2.1,0,.52-.09,1-.26,1.43s-.43,.81-.75,1.15c-.33,.34-.71,.63-1.17,.88l3.75,5.6h-3.94l-2.73-4.68h-.88v4.68h-3.47v-12.86h4.21Zm-.05,2.63h-.69v2.94h.65c.53,0,.97-.12,1.31-.35,.34-.23,.51-.65,.51-1.26,0-.42-.14-.74-.42-.98s-.74-.35-1.36-.35Z"/><path d="M245.24,217.13c0,.7-.18,1.36-.53,1.98s-.9,1.13-1.64,1.52c-.74,.39-1.7,.58-2.87,.58-.59,0-1.1-.03-1.54-.08-.44-.05-.85-.14-1.24-.26-.38-.12-.78-.28-1.19-.47v-3.1c.7,.35,1.4,.62,2.11,.8,.71,.18,1.35,.28,1.93,.28,.35,0,.63-.04,.85-.12,.22-.08,.38-.19,.49-.34,.11-.14,.16-.31,.16-.5,0-.22-.08-.41-.23-.57s-.4-.32-.74-.49c-.34-.17-.79-.38-1.35-.63-.47-.22-.9-.45-1.29-.69-.38-.23-.71-.5-.99-.81-.27-.3-.48-.66-.63-1.06-.15-.4-.22-.88-.22-1.43,0-.83,.2-1.52,.61-2.08,.41-.56,.98-.98,1.71-1.26,.73-.28,1.57-.42,2.53-.42,.84,0,1.59,.09,2.26,.28,.67,.19,1.27,.4,1.81,.64l-1.06,2.68c-.55-.25-1.09-.45-1.63-.6-.53-.15-1.03-.22-1.49-.22-.3,0-.54,.04-.73,.11-.19,.07-.33,.17-.42,.29s-.14,.26-.14,.42c0,.2,.08,.38,.23,.54,.16,.16,.42,.33,.78,.51,.37,.19,.87,.42,1.5,.72,.63,.28,1.16,.58,1.6,.91,.44,.33,.78,.72,1.01,1.17,.23,.45,.35,1.02,.35,1.68Z"/></g><g><circle class="cls-5" cx="60.04" cy="134.7" r="13"/><path d="M60.04,148.7c-7.72,0-14-6.28-14-14s6.28-14,14-14,14,6.28,14,14-6.28,14-14,14Zm0-26c-6.62,0-12,5.38-12,12s5.38,12,12,12,12-5.38,12-12-5.38-12-12-12Z"/></g><g><path d="M84.54,133.87v-2.36h8.94v2.36h-8.94Zm0,4.02v-2.38h8.94v2.38h-8.94Z"/><path d="M111.28,134.33c0,1.5-.28,2.74-.84,3.73-.56,.99-1.34,1.73-2.35,2.23-1.01,.5-2.2,.74-3.57,.74h-4.16v-12.86h4.45c1.38,0,2.56,.24,3.52,.71s1.69,1.17,2.2,2.08c.5,.92,.75,2.04,.75,3.36Zm-3.61,.12c0-.78-.1-1.43-.31-1.94s-.52-.9-.94-1.15c-.42-.25-.94-.38-1.57-.38h-1.01v7.2h.77c1.06,0,1.83-.31,2.32-.92,.49-.61,.74-1.55,.74-2.81Z"/><path d="M117.8,128.18c1.17,0,2.14,.14,2.91,.43,.77,.28,1.36,.71,1.75,1.27,.39,.56,.58,1.26,.58,2.1,0,.52-.09,1-.26,1.43s-.43,.81-.75,1.15c-.33,.34-.71,.63-1.17,.88l3.75,5.6h-3.94l-2.73-4.68h-.88v4.68h-3.47v-12.86h4.21Zm-.05,2.63h-.69v2.94h.65c.53,0,.97-.12,1.31-.35,.34-.23,.51-.65,.51-1.26,0-.42-.14-.74-.42-.98s-.74-.35-1.36-.35Z"/><path d="M134.18,137.13c0,.7-.18,1.36-.53,1.98s-.9,1.13-1.64,1.52c-.74,.39-1.7,.58-2.87,.58-.59,0-1.1-.03-1.54-.08-.44-.05-.85-.14-1.24-.26-.38-.12-.78-.28-1.19-.47v-3.1c.7,.35,1.4,.62,2.11,.8,.71,.18,1.35,.28,1.93,.28,.35,0,.63-.04,.85-.12,.22-.08,.38-.19,.49-.34,.11-.14,.16-.31,.16-.5,0-.22-.08-.41-.23-.57s-.4-.32-.74-.49c-.34-.17-.79-.38-1.35-.63-.47-.22-.9-.45-1.29-.69-.38-.23-.71-.5-.99-.81-.27-.3-.48-.66-.63-1.06-.15-.4-.22-.88-.22-1.43,0-.83,.2-1.52,.61-2.08,.41-.56,.98-.98,1.71-1.26,.73-.28,1.57-.42,2.53-.42,.84,0,1.59,.09,2.26,.28,.67,.19,1.27,.4,1.81,.64l-1.06,2.68c-.55-.25-1.09-.45-1.63-.6-.53-.15-1.03-.22-1.49-.22-.3,0-.54,.04-.73,.11-.19,.07-.33,.17-.42,.29s-.14,.26-.14,.42c0,.2,.08,.38,.23,.54,.16,.16,.42,.33,.78,.51,.37,.19,.87,.42,1.5,.72,.63,.28,1.16,.58,1.6,.91,.44,.33,.78,.72,1.01,1.17,.23,.45,.35,1.02,.35,1.68Z"/><path d="M151.77,134.33c0,1.5-.28,2.74-.84,3.73-.56,.99-1.34,1.73-2.35,2.23-1.01,.5-2.2,.74-3.57,.74h-4.16v-12.86h4.45c1.38,0,2.56,.24,3.52,.71s1.69,1.17,2.2,2.08c.5,.92,.75,2.04,.75,3.36Zm-3.61,.12c0-.78-.1-1.43-.31-1.94s-.52-.9-.94-1.15c-.42-.25-.94-.38-1.57-.38h-1.01v7.2h.77c1.06,0,1.83-.31,2.32-.92,.49-.61,.74-1.55,.74-2.81Z"/><path d="M161.71,141.04h-7.64v-12.86h7.64v2.79h-4.16v2.02h3.85v2.79h-3.85v2.43h4.16v2.83Z"/><path d="M169.63,141.04h-3.47v-10.02h-3.14v-2.84h9.75v2.84h-3.13v10.02Z"/><path d="M182.24,141.04h-7.64v-12.86h7.64v2.79h-4.16v2.02h3.85v2.79h-3.85v2.43h4.16v2.83Z"/><path d="M190.22,130.84c-.41,0-.78,.09-1.1,.26s-.6,.42-.83,.75c-.23,.33-.4,.73-.52,1.2-.12,.47-.18,1.01-.18,1.61,0,.81,.1,1.49,.31,2.04,.21,.55,.52,.97,.94,1.25,.42,.28,.95,.42,1.58,.42,.58,0,1.13-.08,1.66-.24,.53-.16,1.07-.35,1.61-.57v2.94c-.57,.25-1.15,.43-1.75,.55-.59,.11-1.23,.17-1.9,.17-1.4,0-2.54-.28-3.43-.83-.89-.55-1.54-1.32-1.96-2.31-.42-.99-.63-2.13-.63-3.43,0-.97,.14-1.86,.41-2.67,.27-.81,.67-1.51,1.2-2.11,.53-.6,1.18-1.06,1.96-1.38,.78-.33,1.67-.49,2.67-.49,.62,0,1.28,.07,1.97,.22,.69,.14,1.36,.37,2.02,.69l-1.06,2.74c-.47-.22-.94-.41-1.42-.56-.48-.15-.99-.23-1.53-.23Z"/><path d="M201.86,141.04h-3.47v-10.02h-3.14v-2.84h9.75v2.84h-3.13v10.02Z"/><path d="M206.83,141.04v-12.86h3.49v12.86h-3.49Z"/><path d="M225.13,134.59c0,.99-.12,1.89-.36,2.7-.24,.81-.61,1.51-1.11,2.1-.5,.59-1.15,1.04-1.94,1.35-.79,.31-1.74,.47-2.84,.47s-2.01-.16-2.8-.47c-.79-.31-1.44-.76-1.95-1.35-.51-.58-.89-1.28-1.13-2.1-.25-.81-.37-1.72-.37-2.73,0-1.34,.22-2.5,.66-3.49,.44-.99,1.13-1.75,2.05-2.3s2.11-.81,3.55-.81,2.66,.27,3.58,.82,1.59,1.31,2.02,2.3c.43,.99,.64,2.15,.64,3.49Zm-8.85,0c0,.77,.09,1.44,.26,2s.46,.99,.84,1.28c.38,.3,.88,.45,1.5,.45s1.15-.15,1.53-.45c.38-.3,.65-.73,.82-1.28s.25-1.22,.25-2c0-1.16-.19-2.08-.58-2.75s-1.05-1.01-2-1.01c-.63,0-1.13,.15-1.52,.46-.38,.31-.66,.74-.83,1.3s-.26,1.23-.26,2.01Z"/><path d="M239.7,141.04h-4.56l-4.7-9.06h-.08c.03,.28,.06,.61,.08,.99s.04,.78,.06,1.18,.03,.76,.03,1.09v5.8h-3.08v-12.86h4.54l4.68,8.94h.05c-.02-.28-.04-.61-.05-.98-.02-.37-.03-.75-.05-1.13-.01-.38-.02-.72-.02-1.01v-5.81h3.1v12.86Z"/><path d="M256.32,141.04h-10.02v-2.15l5.57-7.91h-5.44v-2.81h9.75v2.14l-5.57,7.92h5.71v2.81Z"/><path d="M270.2,134.59c0,.99-.12,1.89-.36,2.7-.24,.81-.61,1.51-1.11,2.1-.5,.59-1.15,1.04-1.94,1.35-.79,.31-1.74,.47-2.84,.47s-2.01-.16-2.8-.47c-.79-.31-1.44-.76-1.95-1.35-.51-.58-.89-1.28-1.13-2.1-.25-.81-.37-1.72-.37-2.73,0-1.34,.22-2.5,.66-3.49,.44-.99,1.13-1.75,2.05-2.3s2.11-.81,3.55-.81,2.66,.27,3.58,.82,1.59,1.31,2.02,2.3c.43,.99,.64,2.15,.64,3.49Zm-8.85,0c0,.77,.09,1.44,.26,2s.46,.99,.84,1.28c.38,.3,.88,.45,1.5,.45s1.15-.15,1.53-.45c.38-.3,.65-.73,.82-1.28s.25-1.22,.25-2c0-1.16-.19-2.08-.58-2.75s-1.05-1.01-2-1.01c-.63,0-1.13,.15-1.52,.46-.38,.31-.66,.74-.83,1.3s-.26,1.23-.26,2.01Z"/><path d="M284.76,141.04h-4.56l-4.7-9.06h-.08c.03,.28,.06,.61,.08,.99s.04,.78,.06,1.18,.03,.76,.03,1.09v5.8h-3.08v-12.86h4.54l4.68,8.94h.05c-.02-.28-.04-.61-.05-.98-.02-.37-.03-.75-.05-1.13-.01-.38-.02-.72-.02-1.01v-5.81h3.1v12.86Z"/><path d="M295.18,141.04h-7.64v-12.86h7.64v2.79h-4.16v2.02h3.85v2.79h-3.85v2.43h4.16v2.83Z"/></g><g><path d="M84.54,172.87v-2.36h8.94v2.36h-8.94Zm0,4.02v-2.38h8.94v2.38h-8.94Z"/><path d="M111.28,173.33c0,1.5-.28,2.74-.84,3.73-.56,.99-1.34,1.73-2.35,2.23-1.01,.5-2.2,.74-3.57,.74h-4.16v-12.86h4.45c1.38,0,2.56,.24,3.52,.71s1.69,1.17,2.2,2.08c.5,.92,.75,2.04,.75,3.36Zm-3.61,.12c0-.78-.1-1.43-.31-1.94s-.52-.9-.94-1.15c-.42-.25-.94-.38-1.57-.38h-1.01v7.2h.77c1.06,0,1.83-.31,2.32-.92,.49-.61,.74-1.55,.74-2.81Z"/><path d="M117.8,167.18c1.17,0,2.14,.14,2.91,.43,.77,.28,1.36,.71,1.75,1.27,.39,.56,.58,1.26,.58,2.1,0,.52-.09,1-.26,1.43s-.43,.81-.75,1.15c-.33,.34-.71,.63-1.17,.88l3.75,5.6h-3.94l-2.73-4.68h-.88v4.68h-3.47v-12.86h4.21Zm-.05,2.63h-.69v2.94h.65c.53,0,.97-.12,1.31-.35,.34-.23,.51-.65,.51-1.26,0-.42-.14-.74-.42-.98s-.74-.35-1.36-.35Z"/><path d="M134.18,176.13c0,.7-.18,1.36-.53,1.98s-.9,1.13-1.64,1.52c-.74,.39-1.7,.58-2.87,.58-.59,0-1.1-.03-1.54-.08-.44-.05-.85-.14-1.24-.26-.38-.12-.78-.28-1.19-.47v-3.1c.7,.35,1.4,.62,2.11,.8,.71,.18,1.35,.28,1.93,.28,.35,0,.63-.04,.85-.12,.22-.08,.38-.19,.49-.34,.11-.14,.16-.31,.16-.5,0-.22-.08-.41-.23-.57s-.4-.32-.74-.49c-.34-.17-.79-.38-1.35-.63-.47-.22-.9-.45-1.29-.69-.38-.23-.71-.5-.99-.81-.27-.3-.48-.66-.63-1.06-.15-.4-.22-.88-.22-1.43,0-.83,.2-1.52,.61-2.08,.41-.56,.98-.98,1.71-1.26,.73-.28,1.57-.42,2.53-.42,.84,0,1.59,.09,2.26,.28,.67,.19,1.27,.4,1.81,.64l-1.06,2.68c-.55-.25-1.09-.45-1.63-.6-.53-.15-1.03-.22-1.49-.22-.3,0-.54,.04-.73,.11-.19,.07-.33,.17-.42,.29s-.14,.26-.14,.42c0,.2,.08,.38,.23,.54,.16,.16,.42,.33,.78,.51,.37,.19,.87,.42,1.5,.72,.63,.28,1.16,.58,1.6,.91,.44,.33,.78,.72,1.01,1.17,.23,.45,.35,1.02,.35,1.68Z"/><path d="M150.02,180.04h-10.02v-2.15l5.57-7.91h-5.44v-2.81h9.75v2.14l-5.57,7.92h5.71v2.81Z"/><path d="M163.89,173.59c0,.99-.12,1.89-.36,2.7-.24,.81-.61,1.51-1.11,2.1-.5,.59-1.15,1.04-1.94,1.35-.79,.31-1.74,.47-2.84,.47s-2.01-.16-2.8-.47c-.79-.31-1.44-.76-1.95-1.35-.51-.58-.89-1.28-1.13-2.1-.25-.81-.37-1.72-.37-2.73,0-1.34,.22-2.5,.66-3.49,.44-.99,1.13-1.75,2.05-2.3s2.11-.81,3.55-.81,2.66,.27,3.58,.82,1.59,1.31,2.02,2.3c.43,.99,.64,2.15,.64,3.49Zm-8.85,0c0,.77,.09,1.44,.26,2s.46,.99,.84,1.28c.38,.3,.88,.45,1.5,.45s1.15-.15,1.53-.45c.38-.3,.65-.73,.82-1.28s.25-1.22,.25-2c0-1.16-.19-2.08-.58-2.75s-1.05-1.01-2-1.01c-.63,0-1.13,.15-1.52,.46-.38,.31-.66,.74-.83,1.3s-.26,1.23-.26,2.01Z"/><path d="M178.46,180.04h-4.56l-4.7-9.06h-.08c.03,.28,.06,.61,.08,.99s.04,.78,.06,1.18,.03,.76,.03,1.09v5.8h-3.08v-12.86h4.54l4.68,8.94h.05c-.02-.28-.04-.61-.05-.98-.02-.37-.03-.75-.05-1.13-.01-.38-.02-.72-.02-1.01v-5.81h3.1v12.86Z"/><path d="M188.87,180.04h-7.64v-12.86h7.64v2.79h-4.16v2.02h3.85v2.79h-3.85v2.43h4.16v2.83Z"/><path d="M199.53,176.13c0,.7-.18,1.36-.53,1.98s-.9,1.13-1.64,1.52c-.74,.39-1.7,.58-2.87,.58-.59,0-1.1-.03-1.54-.08-.44-.05-.85-.14-1.24-.26-.38-.12-.78-.28-1.19-.47v-3.1c.7,.35,1.4,.62,2.11,.8,.71,.18,1.35,.28,1.93,.28,.35,0,.63-.04,.85-.12,.22-.08,.38-.19,.49-.34,.11-.14,.16-.31,.16-.5,0-.22-.08-.41-.23-.57s-.4-.32-.74-.49c-.34-.17-.79-.38-1.35-.63-.47-.22-.9-.45-1.29-.69-.38-.23-.71-.5-.99-.81-.27-.3-.48-.66-.63-1.06-.15-.4-.22-.88-.22-1.43,0-.83,.2-1.52,.61-2.08,.41-.56,.98-.98,1.71-1.26,.73-.28,1.57-.42,2.53-.42,.84,0,1.59,.09,2.26,.28,.67,.19,1.27,.4,1.81,.64l-1.06,2.68c-.55-.25-1.09-.45-1.63-.6-.53-.15-1.03-.22-1.49-.22-.3,0-.54,.04-.73,.11-.19,.07-.33,.17-.42,.29s-.14,.26-.14,.42c0,.2,.08,.38,.23,.54,.16,.16,.42,.33,.78,.51,.37,.19,.87,.42,1.5,.72,.63,.28,1.16,.58,1.6,.91,.44,.33,.78,.72,1.01,1.17,.23,.45,.35,1.02,.35,1.68Z"/></g><path class="cls-5" d="M73.04,185.7h-2.5v-23h2.5v23Zm-5.5,0h-3v-23h3v23Zm-6,0h-3v-23h3v23Zm-6,0h-3v-23h3v23Zm-6,0h-3v-23h3v23Z"/><g><path class="cls-1" d="M59.52,213.47c0,.84-.07,1.59-.2,2.26s-.35,1.23-.64,1.69-.68,.82-1.17,1.06c-.48,.24-1.08,.37-1.78,.37-.88,0-1.59-.21-2.15-.64-.56-.43-.97-1.04-1.24-1.84-.26-.8-.4-1.76-.4-2.89s.12-2.1,.36-2.91c.24-.81,.64-1.42,1.19-1.85,.55-.43,1.3-.65,2.23-.65,.88,0,1.59,.21,2.15,.64,.56,.43,.97,1.04,1.24,1.85,.27,.81,.4,1.78,.4,2.92Zm-4.75,0c0,.68,.02,1.26,.08,1.72,.05,.46,.15,.81,.29,1.04,.14,.23,.34,.35,.61,.35s.46-.12,.6-.35,.23-.58,.29-1.04,.08-1.04,.08-1.72-.03-1.27-.08-1.74-.15-.81-.29-1.05-.34-.35-.6-.35-.46,.12-.61,.35c-.14,.24-.24,.59-.29,1.05-.05,.46-.08,1.04-.08,1.74Z"/><path class="cls-1" d="M66.79,218.7h-2.88v-5.71c0-.26,0-.54,.01-.85,0-.31,.02-.59,.03-.84-.12,.15-.24,.27-.35,.38-.11,.11-.21,.2-.31,.29l-1.19,.98-1.47-1.81,3.6-2.93h2.55v10.48Z"/></g></g><path d="M983.3,476.98c1.69,6.69,3.36,15.44-.85,25.78-4,9.82-12.62,18.98-27.93,29.72-9.54,6.67-18.51,14.59-28,22.97-19.42,17.16-41.42,36.61-78.17,55.32-49.98,25.47-78.07,28.21-85.49,28.44h-.18c-7.63,.79-47.84,3.86-85.47-12.17l-.22-.08c-34.71-12.15-70.8-25-80.69-28.55l-.48-.16c-.68-.23-1.36-.52-2.15-.89-4.79-2.35-21.74-10.75-39.5-20.54-34.94-19.27-44.62-28.32-48.83-33.45l-.27-.28c-1.87-1.82-3.76-3.59-5.46-5.09l-.58-.5c-.65-.56-1.58-.65-2.33-.21-3.09,1.85-6.29,3.35-9.49,4.47-4.26,1.5-8.47,2.29-12.53,2.37-10.28,.22-19.69-4.03-26.56-11.97l-.16-.17c-9.08-8.76-13.88-18.78-14.68-30.61l-.06-.91-.73-.55-72.83-55.47-44.84-34.86c-.71-.57-1.32-1.1-1.85-1.64l-.69-.58-.5-.32c-2.69-1.75-7.42-2.9-14.73,1.56-4.23,2.57-9.09,5.84-14.46,9.7-16.53,11.9-33.15,26.11-34.99,27.69l-.35,.3-.18,.41c-1.26,2.93-3.36,9.81-3.38,23.28-.01,1.22-.09,2.21-.23,3.14-.81,5.52-5.08,25.35-25.89,47.62l-.07,.08-30.67,41.2-.18,.27c-6.29,10.41-19.64,21.24-38.15,20.25l-1.38-.08-.56,1.26c-6.63,14.93-15.29,36.31-18.88,53.4l-.05,.35c-.18,2.03-.54,12.34,7.5,30.44,7.14,16.05,4.39,28.12,.83,35.43-7.69,15.72-24.5,21-29.47,22.25-1.7,.42-3.45,.63-5.22,.63h-.41c-6.79-.14-31.13-2.98-61.04-33.38l-.29-.26c-7.97-6.28-33.18-28.51-26.65-53.65,1.14-4.33,3.52-8.15,6.89-11.05,3.7-3.17,6.42-6.28,7.73-8.13,.23-.32,.36-.71,.37-1.09,.02-1.05,.13-2.16,.33-3.28,1.51-8.2,10.42-51.5,38.26-101.42,14.23-25.51,27.91-47.52,36.89-61.51l1.63,1.16s.05-.07,.07-.11l11.17,8.05,2.85,2.84,.39,.39,13.26,8.54s-.03,.05-.05,.07c-9.93,15.6-21.02,33.44-34.76,58.09-23.24,41.69-31.82,78.15-33.9,88.33l-.05,.23v.22c.23,9.2-4.5,18.85-14.07,28.69l-1.1,1.14,.85,1.34c2.77,4.3,7.78,9.52,12.76,13.32,.82,.63,1.65,1.37,2.4,2.13,16.19,16.7,28.48,21.53,34.37,22.92l.68,.16,.63-.29c.93-.43,1.72-.89,2.27-1.31,.5-.38,.79-.97,.79-1.59,0-.11-.01-.23-.03-.34v-.09c-.21-1.08-.63-2.36-1.27-3.81-13.51-30.4-10.6-48.94-9.89-52.34,5.79-27.98,22.2-63.46,27.1-73.66,3.57-7.48,11.25-12.31,19.55-12.31,2.69,0,5.34,.5,7.86,1.49,2.98,1.15,6.39,2.01,9.1-2.25l.07-.11c.45-.78,.89-1.44,1.33-2.02l31.79-42.71c.49-.67,1.05-1.33,1.64-1.96,12.75-13.44,16.12-24.69,16.85-27.82l.06-.42c.3-27.7,7.71-40.5,12.11-45.66,.61-.76,1.39-1.54,2.27-2.3,3.42-2.96,21.26-18.25,39.66-31.48,6.13-4.42,11.71-8.16,16.59-11.13,32.16-19.58,56.1,.92,59.06,3.65l44.31,34.48,72.35,55.11c6.06,4.6,15.21,11.55,15.14,22.69l-.02,1.62c-.09,5.71,.05,7.2,4.14,11.02,.15,.13,.31,.29,.49,.47l.29,.29c.59,.5,1.39,.62,2.1,.3,.92-.4,1.96-.97,2.93-1.61,.95-.61,1.81-1.26,2.45-1.86l.26-.28c3.32-4.04,8.26-6.58,13.57-6.98,6.63-.49,14.85,.78,35.81,21.55,.63,.61,1.26,1.32,1.9,2.15l.1,.12c6.49,7.55,44.18,28.72,75.37,43.98l.26,.11c20.5,7.31,51.12,18.18,80.74,28.55l.09,.03c.49,.19,.87,.34,1.23,.48,30.75,13.26,64.84,10.04,68.62,9.63,.71-.08,1.42-.12,2.18-.13,.07,0,5.96-.13,17.94-3.38,10.59-2.87,28.27-8.87,52.38-21.16,32.68-16.65,52.02-33.73,70.73-50.26,10.19-9.02,19.82-17.54,31.11-25.44,10.67-7.47,13.95-11.64,14.86-13.09l.41-.65-.12-.75c-.15-.85-.48-2.22-1.01-4.2l-.25-.95-.9-.38c-3.71-1.57-15.22-5.64-41.94-9.49-.86-.12-2.29-.38-4.1-.71-3.95-.72-14.13-2.57-16.79-2.19-4.12,9.15-2.03,27.77-1.12,35.81,.18,1.56,.31,2.79,.37,3.57v.21c.14,1.16,1.04,11.84-6.06,18.57-5.71,5.42-15.12,7.01-27.97,4.73-8.13-1.44-13.48-4.93-16.35-10.69-7.34-14.79,4.52-40.13,8.33-47.54,1.17-2.29,1.89-4.75,2.15-7.31,3.29-32.78,9.89-41.57,12.57-43.83l5.19-4.35-6.72,.83c-7.46,.93-18.08,2.26-30.06,3.77-28.13,3.55-65.83,8.36-85.63,11.2-11.04,1.57-17.9,4.62-20.99,9.33-2.86,4.34-4.01,11.77-3.6,23.37,.57,16.42,2.1,60.01-43.9,76.43-6.67,2.4-13.68,3.61-20.83,3.61-24.53,0-45.08-14.25-53.86-20.34l-.64-.43c-.93-.65-1.79-1.23-2.26-1.53-3.96-2.47-6.75-5.44-9.7-8.59-6.37-6.79-15.96-17.02-47.83-29.71l-.15-.05c-42.66-14.27-59.43-26.08-64.69-30.54l-.32-.24c-37.29-25-65.24-43.43-80.83-53.3-28.64-18.14-56.53-40.05-83.5-61.24l-.28-.21c-1.02-.81-1.95-1.69-2.81-2.64-5.96-6.71-9.94-8.19-11.37-8.52l-1.16-.26-.78,.88c-13.42,15.12-28.78,22.2-52.03,32.91l-3.47,1.6c-20.51,9.47-39.26,30.46-60.97,54.77-1.68,1.9-3.35,3.76-5.04,5.65l-1.12,1.24c-9.97,11.12-18.3,21.44-25.46,31.56l-12.87-9.19-3.26-2.33-13.15-9.39,.04-.06c7.85-11.09,17.23-22.73,27.88-34.61,2.07-2.3,4.09-4.55,6.13-6.84,24.37-27.3,45.42-50.88,72.74-63.5l3.47-1.6c22.7-10.44,33.06-15.21,41.85-26.07,1.09-1.37,2.39-2.61,3.83-3.69,10.85-8.11,35.83-14.63,60.63,12.4l.23,.21c24.64,19.36,52.55,41.3,79.73,58.52,27.51,17.43,82.09,54.14,82.6,54.48,.91,.61,1.69,1.22,2.46,1.92l.07,.06c1.27,1.06,13.66,10.8,53.29,24.02,.44,.15,.79,.28,1.09,.4,39.76,15.75,53.77,30.71,61.3,38.74,1.07,1.14,2.08,2.21,2.65,2.73l.27,.21c.86,.54,1.77,1.17,2.79,1.87l1.17,.8c9.13,6.33,26.11,18.1,42.07,12.41,16.25-5.81,20.92-15.46,20.02-41.28-.41-11.59,0-28.63,8.22-42.61,8.63-14.66,24.53-23.74,47.27-26.99,19.84-2.84,57.54-7.66,85.67-11.21,21.12-2.67,37.39-4.69,38.6-4.83l1.03-.09c2.15-.14,13.21-.51,25.17,5.74,3.06,1.59,5.97,3.51,8.64,5.7l.19,.18c7.02,7.51,2.2,26.28-10.97,42.75l-2.63,3.29,4.2-.04c5.02-.02,48.74-.07,68.65,5.22,18.37,5.86,27.19,13.14,29.59,24.34,.15,.7,.32,1.42,.5,2.12"/><path class="cls-5" d="M143.12,389.8l-7.26-5.32s.66-.9,1.86-2.48l7.16,5.45c-1.13,1.48-1.75,2.33-1.77,2.35Zm3.58-4.7l-7.11-5.52c.57-.73,1.2-1.53,1.88-2.4l7.06,5.58c-.67,.84-1.28,1.62-1.83,2.34Zm3.69-4.66l-7.02-5.64c.61-.76,1.25-1.55,1.92-2.36l6.97,5.69c-.65,.8-1.28,1.57-1.87,2.31Zm3.76-4.6l-6.93-5.75c.63-.76,1.28-1.54,1.95-2.33l6.88,5.8c-.65,.78-1.29,1.54-1.91,2.28Zm3.83-4.54l-6.84-5.85c.65-.76,1.31-1.53,1.99-2.31l6.78,5.92c-.66,.76-1.31,1.5-1.94,2.24Zm3.9-4.47l-6.73-5.97c.67-.75,1.34-1.51,2.03-2.27l6.68,6.03c-.67,.74-1.33,1.48-1.98,2.21Zm3.97-4.39l-6.62-6.1c.69-.74,1.38-1.49,2.08-2.23l6.55,6.17c-.68,.72-1.35,1.44-2.01,2.16Zm4.05-4.3l-6.49-6.24c.7-.73,1.41-1.46,2.13-2.19l6.41,6.32c-.69,.7-1.38,1.41-2.06,2.11Zm4.14-4.2l-6.33-6.4c.73-.72,1.46-1.44,2.2-2.15l6.24,6.49c-.71,.68-1.41,1.37-2.11,2.06Zm4.24-4.07l-6.13-6.58c.75-.7,1.51-1.4,2.27-2.08l6.02,6.69c-.72,.65-1.44,1.31-2.16,1.98Zm4.35-3.91l-5.9-6.8c.79-.68,1.58-1.35,2.37-2.01l5.74,6.93c-.74,.61-1.48,1.24-2.21,1.88Zm4.47-3.7l-5.58-7.06c.83-.65,1.66-1.29,2.48-1.91l5.37,7.22c-.76,.57-1.52,1.15-2.28,1.75Zm4.6-3.42l-5.14-7.39c.89-.62,1.77-1.2,2.64-1.76l4.85,7.58c-.78,.5-1.56,1.02-2.35,1.57Zm4.74-3.02l-4.49-7.8c.97-.56,1.94-1.08,2.87-1.55l4.03,8.05c-.78,.39-1.59,.83-2.41,1.3Zm5.04-2.56l-3.87-8.12c.92-.44,1.83-.87,2.73-1.29l3.84,8.14c-.89,.42-1.78,.84-2.69,1.28Zm5.4-2.55l-3.81-8.15,2.73-1.27,3.79,8.16-2.71,1.26Zm5.42-2.52l-3.77-8.17,2.73-1.26,3.76,8.18-2.72,1.25Zm5.44-2.5l-3.75-8.18,2.73-1.25,3.75,8.18-2.73,1.25Zm5.46-2.51l-3.77-8.17,2.71-1.25,3.79,8.16-2.74,1.27Zm5.47-2.55l-3.84-8.14c.92-.43,1.81-.86,2.67-1.27l3.91,8.11c-.89,.43-1.8,.86-2.74,1.31Zm5.49-2.65l-4-8.06c.9-.45,1.77-.89,2.61-1.32l4.14,7.99c-.88,.46-1.8,.92-2.74,1.39Zm5.49-2.86l-4.34-7.88c.86-.47,1.69-.94,2.47-1.41l4.61,7.73c-.87,.52-1.78,1.04-2.74,1.57Zm5.47-3.28l-4.99-7.49c.79-.53,1.52-1.05,2.18-1.56l5.51,7.12c-.82,.64-1.73,1.29-2.7,1.93Z"/><path class="cls-5" d="M27.18,603.11l-8.96-.86c.1-1.03,.21-2.06,.34-3.09l8.94,1.08c-.12,.96-.22,1.92-.31,2.87Zm.69-5.74l-8.91-1.29c.15-1.02,.31-2.04,.47-3.06l8.88,1.47c-.16,.96-.31,1.92-.45,2.87Zm.95-5.73l-8.85-1.65c.19-1.01,.39-2.02,.6-3.03l8.81,1.82c-.2,.96-.39,1.91-.56,2.86Zm1.18-5.71l-8.78-1.98c.23-1,.46-2,.7-3l8.74,2.14c-.23,.95-.46,1.9-.67,2.84Zm1.39-5.68l-8.71-2.28c.26-.99,.52-1.97,.8-2.96l8.67,2.41c-.26,.95-.52,1.89-.76,2.83Zm1.57-5.65l-8.63-2.54c.29-.98,.58-1.95,.88-2.93l8.6,2.65c-.29,.94-.57,1.88-.85,2.81Zm1.73-5.62l-8.56-2.77c.31-.97,.63-1.94,.96-2.9l8.53,2.88c-.31,.93-.62,1.86-.92,2.8Zm1.88-5.58l-8.49-2.98c.34-.96,.68-1.92,1.03-2.88l8.46,3.08c-.34,.93-.67,1.85-.99,2.78Zm2.02-5.55l-8.42-3.17c.36-.95,.72-1.9,1.09-2.85l8.39,3.26c-.36,.92-.71,1.84-1.06,2.76Zm2.14-5.51l-8.35-3.35c.38-.94,.76-1.88,1.15-2.82l8.32,3.43c-.38,.91-.75,1.83-1.11,2.74Zm2.26-5.48l-8.29-3.5c.4-.94,.8-1.87,1.2-2.8l8.26,3.58c-.39,.91-.78,1.82-1.17,2.73Zm2.36-5.44l-8.23-3.65c.41-.93,.83-1.85,1.25-2.77l8.19,3.72c-.41,.9-.81,1.8-1.21,2.7Zm2.45-5.39l-8.16-3.79c.43-.92,.85-1.83,1.29-2.74l8.13,3.85c-.42,.89-.84,1.78-1.26,2.68Zm2.53-5.35l-8.1-3.92c.44-.91,.88-1.82,1.33-2.73l8.08,3.97c-.44,.89-.87,1.78-1.3,2.67Zm2.62-5.33l-8.05-4.03c.45-.91,.91-1.81,1.37-2.71l8.02,4.09c-.45,.88-.9,1.76-1.34,2.65Zm2.7-5.29l-7.99-4.15c.47-.9,.93-1.79,1.4-2.69l7.96,4.2c-.46,.87-.92,1.75-1.38,2.64Zm2.77-5.26l-7.93-4.25c.48-.89,.96-1.78,1.44-2.67l7.91,4.3c-.47,.87-.94,1.74-1.41,2.62Zm2.84-5.22l-7.88-4.35c.49-.89,.98-1.77,1.47-2.65l7.85,4.39c-.48,.86-.96,1.73-1.45,2.6Zm2.91-5.2l-7.83-4.44c.5-.88,1-1.76,1.5-2.63l7.8,4.48c-.49,.85-.98,1.72-1.47,2.58Zm2.96-5.16l-7.78-4.53c.51-.88,1.02-1.75,1.53-2.61l7.75,4.57c-.5,.85-1,1.71-1.51,2.57Zm3.03-5.13l-7.73-4.62c.52-.87,1.04-1.74,1.56-2.59l7.7,4.66c-.51,.84-1.02,1.69-1.53,2.55Zm3.08-5.1l-7.68-4.7c.53-.87,1.06-1.73,1.59-2.58l7.65,4.74c-.52,.83-1.04,1.68-1.56,2.54Zm3.14-5.07l-7.63-4.78c.54-.87,1.08-1.72,1.61-2.56l7.6,4.82c-.52,.83-1.05,1.67-1.59,2.52Zm3.19-5.03l-7.58-4.86c.55-.86,1.1-1.71,1.64-2.54l7.55,4.89c-.53,.82-1.07,1.66-1.62,2.51Zm3.24-5l-7.53-4.93c.57-.86,1.12-1.71,1.67-2.53l7.5,4.97c-.54,.81-1.08,1.64-1.64,2.49Zm3.29-4.97l-7.47-5.01c.58-.86,1.14-1.7,1.69-2.51l7.45,5.05c-.54,.8-1.1,1.62-1.67,2.47Zm3.35-4.93l-7.42-5.1c.6-.87,1.17-1.7,1.72-2.49l7.39,5.14c-.54,.78-1.11,1.6-1.7,2.45Zm3.4-4.89l-7.35-5.19c.64-.9,1.22-1.73,1.76-2.48l7.32,5.23c-.52,.73-1.1,1.55-1.73,2.43Zm3.47-4.85l-7.28-5.29c1.19-1.63,1.84-2.5,1.84-2.5l7.19,5.42s-.64,.84-1.75,2.38Z"/><path class="cls-4" d="M824.1,422.37c-28.99,3.65-65.97,8.38-85.66,11.2-11.65,1.66-18.97,5.01-22.38,10.21-3.11,4.72-4.35,12.52-3.93,24.54,.56,16.01,2.06,58.54-42.57,74.48-6.47,2.32-13.26,3.49-20.16,3.49h-.03c-23.86,0-44.05-13.99-52.69-19.98l-.67-.45c-.93-.65-1.81-1.25-2.3-1.56-3.75-2.34-6.45-5.22-9.32-8.28-6.47-6.9-16.25-17.34-48.59-30.21l-.21-.07c-42.47-14.2-58.95-25.85-64.07-30.2l-.41-.31c-16.84-11.29-58.41-39.11-80.92-53.36-28.47-18.03-56.36-39.93-83.33-61.12l-.3-.23c-.92-.73-1.78-1.54-2.55-2.39-6.08-6.86-10.38-8.67-12.41-9.13l-2.31-.53-1.57,1.78c-13.14,14.8-28.35,21.81-51.37,32.42l-3.46,1.59c-20.91,9.65-39.79,30.8-61.68,55.31-2,2.26-4.04,4.53-6.11,6.84-9.28,10.35-17.99,20.98-25.63,31.77l-25.95-18.69c8.27-11.68,17.83-23.38,27.74-34.43,2.07-2.3,4.09-4.56,6.13-6.85,24.23-27.14,45.15-50.57,72.09-63.01l3.47-1.6c22.99-10.58,33.48-15.41,42.56-26.63,1.01-1.26,2.18-2.38,3.48-3.35,10.31-7.71,34.12-13.83,57.96,12.15l.22,.24,.26,.2c24.68,19.4,52.65,41.38,79.88,58.63,26.9,17.04,80.3,52.93,82.55,54.45,.81,.54,1.52,1.09,2.23,1.74l.13,.11c1.31,1.09,13.93,11.04,53.95,24.39,.38,.13,.7,.24,.97,.35,39.34,15.59,53.16,30.33,60.59,38.26,1.15,1.22,2.15,2.28,2.77,2.84l.25,.23,.28,.18c.99,.63,2.04,1.36,3.25,2.19l.66,.45c9.42,6.53,26.96,18.67,43.87,12.64,17.09-6.11,22.28-16.61,21.35-43.23-.98-27.73,4.24-60.48,53.77-67.55,19.72-2.82,57.03-7.6,85.64-11.21l4.53,31.69Z"/><path class="cls-3" d="M281.42,416.69c-15.68,11.29-31.37,24.57-35.12,27.79l-.71,.6-.36,.86c-1.31,3.04-3.52,10.21-3.54,24.05-.01,1.02-.07,1.95-.21,2.83-.79,5.4-4.96,24.72-25.37,46.56l-.15,.16-30.77,41.34-.21,.32c-6.03,9.98-18.76,20.3-36.37,19.35l-2.76-.15-1.12,2.52c-6.67,15.02-15.39,36.55-19.02,53.86l-.07,.47c-.18,1.98-.64,12.8,7.66,31.48,6.83,15.36,4.23,26.83,.86,33.74-7.32,14.97-23.41,20-28.16,21.19-1.54,.38-3.13,.57-4.73,.57h-.41c-6.57-.14-30.27-2.93-59.66-32.83l-.38-.34c-7.68-6.04-32.24-27.6-26-51.62,1.03-3.94,3.2-7.41,6.25-10.03,3.84-3.29,6.68-6.54,8.06-8.49,.46-.64,.72-1.41,.74-2.2h0c.02-1.02,.13-2.02,.3-2.99,1.49-8.1,10.28-51.02,38.04-100.79,13.08-23.45,26.1-44.7,36.77-61.32,.02-.04,.05-.07,.07-.11l11.17,8.05,3.19,2.3,11.18,8.06,.45,.32c-8.57,13.46-20.32,32.17-34.88,58.28-23.38,41.93-32.02,78.65-34.11,88.9l-.09,.45v.45c.22,8.63-4.32,17.8-13.5,27.25l-2.21,2.28,1.71,2.67c2.88,4.47,8.07,9.9,13.23,13.83,.75,.58,1.5,1.25,2.18,1.94,16.55,17.07,29.25,22.03,35.34,23.47l1.35,.32,1.26-.58c.74-.35,1.8-.9,2.64-1.54,1.01-.76,1.58-1.95,1.58-3.18,0-.21-.02-.42-.05-.63v-.02c-.21-1.24-.68-2.72-1.42-4.4-13.25-29.82-10.46-47.8-9.76-51.12,5.74-27.74,22.07-63.05,26.94-73.21,3.25-6.79,10.22-11.17,17.75-11.17,2.42,0,4.83,.45,7.13,1.35,2.31,.89,7.7,2.98,11.52-3.04l.07-.11c.42-.72,.82-1.34,1.23-1.88l31.8-42.73c.43-.58,.93-1.18,1.49-1.77,13.08-13.79,16.59-25.49,17.35-28.75l.11-.43v-.44c.29-27.04,7.39-39.38,11.63-44.36,.57-.7,1.26-1.4,2.05-2.08,1.03-.89,20.05-17.37,39.53-31.38l8.75,12.33,2.33,3.28,7.43,10.47Z"/><path class="cls-7" d="M980.87,475.57c1.73,6.63,4.1,15.7-.27,26.44-3.85,9.44-12.25,18.33-27.23,28.83-9.63,6.74-18.61,14.67-28.18,23.12-19.33,17.08-41.25,36.44-77.75,55.03-49.58,25.26-77.32,27.99-84.64,28.22l-.27,.02c-7.59,.77-47.33,3.82-84.54-12.03l-.25-.1c-34.69-12.14-70.6-24.93-80.77-28.57l-.49-.17c-.67-.23-1.3-.5-1.95-.81-4.77-2.34-21.7-10.73-39.39-20.48-34.77-19.17-44.22-28.03-48.3-33.02l-.31-.33c-2.11-2.06-4.24-4.04-6.17-5.72h-.01c-1.3-1.14-3.18-1.31-4.67-.43-2.43,1.45-5.55,3.05-9.13,4.3-3.58,1.26-7.62,2.18-11.91,2.26-9.68,.21-18.54-3.8-25.01-11.28l-.24-.26c-8.74-8.42-13.35-18.01-14.11-29.34l-.12-1.83-1.47-1.1-72.82-55.46-44.82-34.85c-.57-.45-1.14-.94-1.67-1.47l-1.27-1.17h-.24c-3.03-1.97-8.56-3.53-16.86,1.53-4.61,2.81-9.6,6.2-14.59,9.79l-18.51-26.08c5.59-4.03,11.21-7.85,16.46-11.04,31.14-18.96,54.2,1.12,56.72,3.47l44.38,34.53,72.37,55.12c5.74,4.36,14.41,10.95,14.35,21.09l-.02,1.6c-.09,6.03,.1,8.15,4.78,12.51,.2,.18,.38,.37,.61,.6h0c1.17,1.17,2.93,1.5,4.44,.83,1.03-.45,2.17-1.08,3.22-1.77,1.06-.68,2.04-1.43,2.77-2.12l.35-.38c2.98-3.65,7.44-5.94,12.21-6.3,6.16-.45,13.88,.79,34.25,20.98,.6,.58,1.16,1.22,1.72,1.95l.15,.18c6.76,7.87,43.97,28.81,76.03,44.5l.42,.18c13.13,4.68,47.29,16.84,80.8,28.57l.12,.04c.39,.15,.77,.3,1.12,.44,31.15,13.43,65.7,10.18,69.58,9.76,.63-.07,1.27-.11,1.99-.12,.06,0,6.06-.09,18.43-3.45,10.66-2.89,28.48-8.93,52.77-21.31,32.89-16.75,52.33-33.92,71.14-50.54,10.16-8.99,19.76-17.48,30.94-25.3,10.57-7.4,14.19-11.74,15.4-13.66l.81-1.29-.24-1.5c-.15-.9-.47-2.26-1.05-4.4l-.5-1.89-1.8-.76c-3.78-1.6-15.47-5.74-42.43-9.63-3.98-.57-21.71-4.37-22.71-2.37-5.58,11.16-1.54,36.16-1.22,40.96l.02,.24c.01,.11,1.22,10.63-5.46,16.96-5.22,4.95-14.05,6.37-26.24,4.21-7.48-1.32-12.35-4.47-14.91-9.61-6.92-13.95,4.62-38.54,8.32-45.74,1.29-2.52,2.08-5.21,2.36-8.02,3.31-32.97,9.92-40.86,11.87-42.5l10.37-8.7-13.44,1.67c-7.46,.93-18.08,2.26-30.06,3.77l-4.53-31.69c21.03-2.65,37.37-4.68,38.58-4.82l.98-.09c1.23-.08,12.27-.64,24.06,5.52,2.94,1.53,5.73,3.37,8.3,5.48,5.47,5.85,2.82,22.76-11.07,40.13l-5.26,6.57,8.41-.07c.48,0,47.48-.33,68.12,5.15,17.49,5.59,25.91,12.42,28.14,22.83,.28,1.29,.62,2.6,.99,3.98l.04,.17"/><path d="M967.37,496.01c-1.03,3.76-3.07,7.17-5.9,9.85-10.42,9.87-39.94,36.64-88.81,71.89-60.79,43.85-120.51,46.36-121.1,46.38h-.1c-.61-.01-61.26-1.4-132.82-35.19-13.61-6.43-25.24-11.82-35.51-16.58-16.83-7.8-29-13.44-37.29-17.83-9-4.75-19.25-10.82-27.08-19.78-9.37-10.71-16.81-16.01-22.75-16.21-2.67-.1-4.99,.89-7.11,3-7.18,7.19-14.42,6.78-19.23,5.18-4.68-1.56-7.92-4.52-8.5-5.09-1.08-.86-9.68-8.21-9.68-20.5,0-7.54-1.23-8.39-12.97-16.53-4.62-3.2-10.95-7.59-19.24-13.88-24.25-18.39-71.26-55.27-85.09-66.14-2.49-1.96-4.94-4.2-7.46-6.85-16.75-17.58-37.73-3.8-45.97,2.95-2.35,1.93-4.61,3.77-6.77,5.54-19.11,15.59-30.85,24.99-36.4,29.42-2.74,2.18-4.74,5.04-5.8,8.28-1.22,3.77-2.8,10.19-3.3,19.32-1.02,18.39-12.9,34.42-13.4,35.09-1.49,2.09-37.33,52.35-51.44,62.43-11.1,7.93-18.36,6.52-21.69,4.96-.27-.12-.59-.07-.83,.12-1.75,1.43-11.1,10.49-22.73,48.87-8.8,29.05-5.88,37.08-.06,53.07,.65,1.79,1.33,3.67,2.04,5.69,4.26,12.17,3.07,23.53-3.19,30.39-3.05,3.34-8.31,6.7-17.11,6.71-3.2,0-6.87-.45-11.07-1.5-24.23-6.06-47.58-36.67-54.16-45.91-1.04-1.46-2.17-2.87-3.36-4.19-6.41-7.15-6.17-15.12,.65-21.32,10.61-9.64,11.4-13.05,14.37-36.77,3.01-24.11,41.59-93.77,43.23-96.72l26.44-42.54,.04-.06,3.16,2.35-.31,.49-25.88,41.78c-.35,.64-39.8,71.86-42.72,95.2-2.96,23.75-3.89,28.56-15.63,39.23-6.58,5.97-3.83,11.83-.37,15.68,1.29,1.44,2.51,2.97,3.63,4.55,6.38,8.95,28.98,38.63,51.87,44.35,10.97,2.74,19.36,1.35,24.26-4.02,5.17-5.67,6.08-15.78,2.37-26.38-.7-2-1.38-3.87-2.02-5.64-5.93-16.3-9.19-25.27,0-55.6,11.66-38.5,21.34-48.63,24.03-50.81,1.42-1.16,3.39-1.41,5.03-.64,2.05,.95,7.88,2.41,17.69-4.6,13.57-9.69,50.16-61.01,50.53-61.53,.15-.19,11.68-15.79,12.63-32.95,.53-9.56,2.2-16.34,3.5-20.34,1.29-3.98,3.75-7.5,7.1-10.17,5.57-4.44,17.35-13.88,36.57-29.57,2.1-1.71,4.28-3.5,6.56-5.36,27.33-22.36,45.05-9.28,51.4-2.61,2.4,2.51,4.7,4.63,7.04,6.47,13.83,10.86,60.82,47.72,85.04,66.1,8.22,6.23,14.5,10.59,19.1,13.77,11.87,8.23,14.69,10.19,14.69,19.82,0,10.83,8.15,17.36,8.23,17.42l.19,.17c.45,.45,11.25,10.91,22.17,0,2.89-2.9,6.28-4.3,10.07-4.18,9.46,.32,19.15,10.18,25.62,17.58,7.4,8.46,17.26,14.29,25.94,18.88,8.2,4.33,20.32,9.95,37.1,17.73,10.27,4.76,21.91,10.16,35.53,16.59,69.83,32.98,129.04,34.76,131.13,34.81,2.02-.09,59.85-3.06,118.85-45.62,48.68-35.11,78.03-61.73,88.39-71.55,2.31-2.18,3.97-4.95,4.8-8,1.78-6.5,3.46-18.41-5.26-25.26-9.77-7.68-34.59-11.57-73.76-11.57-5.21,0-9.01,1.53-11.29,4.53-4.91,6.48-1.82,17.82-1.78,17.93,.21,.66,5.69,18-.85,29.48-2.67,4.68-6.92,7.71-12.64,9.01-4.74,1.08-8.34,.55-10.7-1.57-2.54-2.28-3.45-6.13-2.79-11.77,.5-4.23,2.01-8.38,4.51-12.34,2.25-3.58,6.22-12.54,7.54-32.4,1.24-18.49,6.53-24.57,12.13-31.02,3.57-4.09,7.26-8.33,9.97-16.48,1.22-3.66,1.02-6.31-.61-8.08-4.88-5.31-21.16-2.77-27.02-1.35l-.22,.04-109,14c-.2,.03-17.75,2.1-33.12,12.67-10.33,7.1-10.76,20.98-11.36,40.19-.22,7.13-.48,15.21-1.3,23.8-.37,3.93-1.46,7.58-3.23,10.85-4.69,8.64-16.89,23.65-45.91,27.06-4.25,.5-8.58,0-12.53-1.45-8.55-3.12-25.14-10.61-40.21-25.69-20.44-20.43-31.24-24.52-47.19-29.5-15.96-4.99-51.76-22.37-53.28-23.11l-.15-.09c-120.4-72.24-187.94-131.36-192.1-135.04-1.85-.91-15.87-7.47-22.31,.58-7.11,8.89-27.97,22.08-65.64,41.53-29.46,15.2-81.99,85.91-85.15,90.2l-3.26-2.33c3.64-4.96,55.95-75.63,86.57-91.43,36.65-18.91,57.7-32.15,64.36-40.47,8.93-11.16,26.74-1.92,27.5-1.52l.21,.12,.18,.16c.67,.6,68.29,60.72,191.62,134.73,1.91,.93,37.32,18.06,52.65,22.85,16.52,5.16,27.72,9.4,48.81,30.5,14.54,14.53,30.53,21.75,38.76,24.76,3.37,1.23,7.07,1.65,10.69,1.22,27.23-3.19,38.54-17.03,42.86-24.99,1.52-2.79,2.45-5.93,2.77-9.32,.81-8.47,1.06-16.48,1.28-23.55,.61-19.61,1.1-35.11,13.1-43.36,16.22-11.15,34.15-13.25,34.91-13.34l108.86-13.98c2.86-.69,23.56-5.31,30.79,2.55,2.67,2.9,3.17,6.96,1.47,12.05-2.97,8.91-6.93,13.45-10.75,17.85-5.37,6.18-10.01,11.51-11.15,28.65-1.32,19.71-5.16,29.51-8.16,34.27-2.17,3.45-3.49,7.04-3.91,10.68-.5,4.19,0,6.99,1.48,8.32,1.34,1.2,3.74,1.42,7.15,.65,4.64-1.06,7.93-3.37,10.04-7.09,5.68-9.97,.55-26.18,.5-26.35-.18-.61-3.68-13.45,2.42-21.49,3.08-4.06,7.95-6.12,14.48-6.12,40.66,0,65.59,4.06,76.24,12.43,10.52,8.27,8.68,22,6.64,29.45Z"/><g id="Start_Line"><polygon points="107.26 418.45 110.1 434.34 106.19 435.05 104.05 423.06 92.06 425.2 91.36 421.29 107.26 418.45"/><polygon points="101.28 411.88 100.58 407.97 111.63 405.99 116.47 405.13 119.32 421.03 115.4 421.72 113.26 409.73 111.46 410.05 101.28 411.88"/><polygon points="110.5 398.57 109.8 394.65 112.11 394.24 125.7 391.81 128.52 407.71 124.62 408.41 122.47 396.42 111.94 398.31 110.5 398.57"/></g><polygon class="cls-1" points="130.22 453.74 130.2 453.73 130.23 453.7 130.22 453.74"/><polygon points="102.84 445.66 108.49 449.73 109.65 450.56 134.62 468.01 135.01 468.29 136.32 466.47 138.82 463.01 138.37 462.68 113.4 445.24 112.52 444.61 106.58 440.33 87.14 426.32 85.84 428.13 83.33 431.6 102.84 445.66"/><g id="_1"><g><circle cx="291.42" cy="284.67" r="11.47"/><path d="M291.42,274.2c5.78,0,10.47,4.69,10.47,10.47s-4.69,10.47-10.47,10.47-10.47-4.69-10.47-10.47,4.69-10.47,10.47-10.47m0-2c-6.88,0-12.47,5.59-12.47,12.47s5.59,12.47,12.47,12.47,12.47-5.59,12.47-12.47-5.59-12.47-12.47-12.47h0Z"/></g><text class="cls-2" transform="translate(283.21 288.82)"><tspan x="0" y="0">01</tspan></text></g><g id="_1-2"><g><circle cx="560.42" cy="447.67" r="11.47"/><path d="M560.42,437.2c5.78,0,10.47,4.69,10.47,10.47s-4.69,10.47-10.47,10.47-10.47-4.69-10.47-10.47,4.69-10.47,10.47-10.47m0-2c-6.88,0-12.47,5.59-12.47,12.47s5.59,12.47,12.47,12.47,12.47-5.59,12.47-12.47-5.59-12.47-12.47-12.47h0Z"/></g><text class="cls-2" transform="translate(552.21 451.82)"><tspan x="0" y="0">02</tspan></text></g><g id="_1-3"><g><circle cx="656.42" cy="500.67" r="11.47"/><path d="M656.42,490.2c5.78,0,10.47,4.69,10.47,10.47s-4.69,10.47-10.47,10.47-10.47-4.69-10.47-10.47,4.69-10.47,10.47-10.47m0-2c-6.88,0-12.47,5.59-12.47,12.47s5.59,12.47,12.47,12.47,12.47-5.59,12.47-12.47-5.59-12.47-12.47-12.47h0Z"/></g><text class="cls-2" transform="translate(648.21 504.82)"><tspan x="0" y="0">03</tspan></text></g><g id="_1-4"><g><circle cx="688.42" cy="408.67" r="11.47"/><path d="M688.42,398.2c5.78,0,10.47,4.69,10.47,10.47s-4.69,10.47-10.47,10.47-10.47-4.69-10.47-10.47,4.69-10.47,10.47-10.47m0-2c-6.88,0-12.47,5.59-12.47,12.47s5.59,12.47,12.47,12.47,12.47-5.59,12.47-12.47-5.59-12.47-12.47-12.47h0Z"/></g><text class="cls-2" transform="translate(680.21 412.82)"><tspan x="0" y="0">04</tspan></text></g><g id="_1-5"><g><circle cx="897.42" cy="385.67" r="11.47"/><path d="M897.42,375.2c5.78,0,10.47,4.69,10.47,10.47s-4.69,10.47-10.47,10.47-10.47-4.69-10.47-10.47,4.69-10.47,10.47-10.47m0-2c-6.88,0-12.47,5.59-12.47,12.47s5.59,12.47,12.47,12.47,12.47-5.59,12.47-12.47-5.59-12.47-12.47-12.47h0Z"/></g><text class="cls-2" transform="translate(889.21 389.82)"><tspan x="0" y="0">05</tspan></text></g><g id="_1-6"><g><circle cx="830.42" cy="536.67" r="11.47"/><path d="M830.42,526.2c5.78,0,10.47,4.69,10.47,10.47s-4.69,10.47-10.47,10.47-10.47-4.69-10.47-10.47,4.69-10.47,10.47-10.47m0-2c-6.88,0-12.47,5.59-12.47,12.47s5.59,12.47,12.47,12.47,12.47-5.59,12.47-12.47-5.59-12.47-12.47-12.47h0Z"/></g><text class="cls-2" transform="translate(822.21 540.82)"><tspan x="0" y="0">06</tspan></text></g><g id="_1-7"><g><circle cx="892.42" cy="481.67" r="11.47"/><path d="M892.42,471.2c5.78,0,10.47,4.69,10.47,10.47s-4.69,10.47-10.47,10.47-10.47-4.69-10.47-10.47,4.69-10.47,10.47-10.47m0-2c-6.88,0-12.47,5.59-12.47,12.47s5.59,12.47,12.47,12.47,12.47-5.59,12.47-12.47-5.59-12.47-12.47-12.47h0Z"/></g><text class="cls-2" transform="translate(884.21 485.82)"><tspan x="0" y="0">07</tspan></text></g><g id="_1-8"><g><circle cx="934.42" cy="489.67" r="11.47"/><path d="M934.42,479.2c5.78,0,10.47,4.69,10.47,10.47s-4.69,10.47-10.47,10.47-10.47-4.69-10.47-10.47,4.69-10.47,10.47-10.47m0-2c-6.88,0-12.47,5.59-12.47,12.47s5.59,12.47,12.47,12.47,12.47-5.59,12.47-12.47-5.59-12.47-12.47-12.47h0Z"/></g><text class="cls-2" transform="translate(926.21 493.82)"><tspan x="0" y="0">08</tspan></text></g><g id="_1-9"><g><circle cx="740.42" cy="649.67" r="11.47"/><path d="M740.42,639.2c5.78,0,10.47,4.69,10.47,10.47s-4.69,10.47-10.47,10.47-10.47-4.69-10.47-10.47,4.69-10.47,10.47-10.47m0-2c-6.88,0-12.47,5.59-12.47,12.47s5.59,12.47,12.47,12.47,12.47-5.59,12.47-12.47-5.59-12.47-12.47-12.47h0Z"/></g><text class="cls-2" transform="translate(732.21 653.82)"><tspan x="0" y="0">09</tspan></text></g><g id="_1-10"><g><circle cx="496.42" cy="549.67" r="11.47"/><path d="M496.42,539.2c5.78,0,10.47,4.69,10.47,10.47s-4.69,10.47-10.47,10.47-10.47-4.69-10.47-10.47,4.69-10.47,10.47-10.47m0-2c-6.88,0-12.47,5.59-12.47,12.47s5.59,12.47,12.47,12.47,12.47-5.59,12.47-12.47-5.59-12.47-12.47-12.47h0Z"/></g><text class="cls-2" transform="translate(488.21 553.82)"><tspan x="0" y="0">10</tspan></text></g><g id="_1-11"><g><circle cx="439.89" cy="538.15" r="11.47"/><path d="M439.89,527.67c5.78,0,10.47,4.69,10.47,10.47s-4.69,10.47-10.47,10.47-10.47-4.69-10.47-10.47,4.69-10.47,10.47-10.47m0-2c-6.88,0-12.47,5.59-12.47,12.47s5.59,12.47,12.47,12.47,12.47-5.59,12.47-12.47-5.59-12.47-12.47-12.47h0Z"/></g><text class="cls-2" transform="translate(431.69 542.29)"><tspan x="0" y="0">11</tspan></text></g><g id="_1-12"><g><circle cx="305.89" cy="416.15" r="11.47"/><path d="M305.89,405.67c5.78,0,10.47,4.69,10.47,10.47s-4.69,10.47-10.47,10.47-10.47-4.69-10.47-10.47,4.69-10.47,10.47-10.47m0-2c-6.88,0-12.47,5.59-12.47,12.47s5.59,12.47,12.47,12.47,12.47-5.59,12.47-12.47-5.59-12.47-12.47-12.47h0Z"/></g><text class="cls-2" transform="translate(297.69 420.29)"><tspan x="0" y="0">12</tspan></text></g><g id="_1-13"><g><circle cx="255.89" cy="453.15" r="11.47"/><path d="M255.89,442.67c5.78,0,10.47,4.69,10.47,10.47s-4.69,10.47-10.47,10.47-10.47-4.69-10.47-10.47,4.69-10.47,10.47-10.47m0-2c-6.88,0-12.47,5.59-12.47,12.47s5.59,12.47,12.47,12.47,12.47-5.59,12.47-12.47-5.59-12.47-12.47-12.47h0Z"/></g><text class="cls-2" transform="translate(247.69 457.29)"><tspan x="0" y="0">13</tspan></text></g><g id="_1-14"><g><circle cx="253.89" cy="479.15" r="11.47"/><path d="M253.89,468.67c5.78,0,10.47,4.69,10.47,10.47s-4.69,10.47-10.47,10.47-10.47-4.69-10.47-10.47,4.69-10.47,10.47-10.47m0-2c-6.88,0-12.47,5.59-12.47,12.47s5.59,12.47,12.47,12.47,12.47-5.59,12.47-12.47-5.59-12.47-12.47-12.47h0Z"/></g><text class="cls-2" transform="translate(245.69 483.29)"><tspan x="0" y="0">14</tspan></text></g><g id="_1-15"><g><circle cx="179.89" cy="584.15" r="11.47"/><path d="M179.89,573.67c5.78,0,10.47,4.69,10.47,10.47s-4.69,10.47-10.47,10.47-10.47-4.69-10.47-10.47,4.69-10.47,10.47-10.47m0-2c-6.88,0-12.47,5.59-12.47,12.47s5.59,12.47,12.47,12.47,12.47-5.59,12.47-12.47-5.59-12.47-12.47-12.47h0Z"/></g><text class="cls-2" transform="translate(171.69 588.29)"><tspan x="0" y="0">15</tspan></text></g><g id="_1-16"><g><circle cx="153.89" cy="593.15" r="11.47"/><path d="M153.89,582.67c5.78,0,10.47,4.69,10.47,10.47s-4.69,10.47-10.47,10.47-10.47-4.69-10.47-10.47,4.69-10.47,10.47-10.47m0-2c-6.88,0-12.47,5.59-12.47,12.47s5.59,12.47,12.47,12.47,12.47-5.59,12.47-12.47-5.59-12.47-12.47-12.47h0Z"/></g><text class="cls-2" transform="translate(145.69 597.29)"><tspan x="0" y="0">16</tspan></text></g><g id="_1-17"><g><circle cx="137.89" cy="640.15" r="11.47"/><path d="M137.89,629.67c5.78,0,10.47,4.69,10.47,10.47s-4.69,10.47-10.47,10.47-10.47-4.69-10.47-10.47,4.69-10.47,10.47-10.47m0-2c-6.88,0-12.47,5.59-12.47,12.47s5.59,12.47,12.47,12.47,12.47-5.59,12.47-12.47-5.59-12.47-12.47-12.47h0Z"/></g><text class="cls-2" transform="translate(129.69 644.29)"><tspan x="0" y="0">17</tspan></text></g><g id="_1-18"><g><circle cx="133.89" cy="723.15" r="11.47"/><path d="M133.89,712.67c5.78,0,10.47,4.69,10.47,10.47s-4.69,10.47-10.47,10.47-10.47-4.69-10.47-10.47,4.69-10.47,10.47-10.47m0-2c-6.88,0-12.47,5.59-12.47,12.47s5.59,12.47,12.47,12.47,12.47-5.59,12.47-12.47-5.59-12.47-12.47-12.47h0Z"/></g><text class="cls-2" transform="translate(125.69 727.29)"><tspan x="0" y="0">18</tspan></text></g><g id="_1-19"><g><circle cx="61.89" cy="651.15" r="11.47"/><path d="M61.89,640.67c5.78,0,10.47,4.69,10.47,10.47s-4.69,10.47-10.47,10.47-10.47-4.69-10.47-10.47,4.69-10.47,10.47-10.47m0-2c-6.88,0-12.47,5.59-12.47,12.47s5.59,12.47,12.47,12.47,12.47-5.59,12.47-12.47-5.59-12.47-12.47-12.47h0Z"/></g><text class="cls-2" transform="translate(53.69 655.29)"><tspan x="0" y="0">19</tspan></text></g><circle class="cls-6" cx="111" cy="640" r="10"/></svg>