<?xml version="1.0" encoding="UTF-8"?><svg id="Monza_Simple" xmlns="http://www.w3.org/2000/svg" viewBox="0 0 1000 1000"><defs><style>.cls-1{fill:#fae44a;}.cls-2{fill:#db4a25;}.cls-3{fill:#1bce20;}.cls-4{fill:#75e5fd;}</style></defs><path class="cls-4" d="M107.37,404.06l13.6,88.75c.02,.11,.03,.23,.03,.34,.16,3.4,3.59,60.53,54.99,114.84,26.03,27.51,69.21,34.51,106.39,34.51,23.22,0,44.1-2.73,57.03-4.9,8.01-1.34,15.86-3.49,23.45-6.41l12.38-4.76c1.74-.67,3.73,.16,4.38,1.91,1.65,4.42,7.53,11.65,28.37,11.65h390.87v-31.62c0-1.87-1.51-3.38-3.38-3.38H419.02c-1.96,0-3.5-1.65-3.37-3.61l.91-13.66c.47-7.03-6.51-12.17-13.09-9.64l-37.03,14.24-16.13,6.21c-5.38,2.07-10.95,3.59-16.63,4.55-11.99,2.01-30.66,4.42-51.29,4.42-18.32,0-34.48-1.91-48.02-5.67-14.41-4-25.49-10.02-32.95-17.9-17.72-18.72-30.74-39.87-38.7-62.85-5.53-15.97-6.59-27.44-6.73-29.34,0-.07,0-.13,0-.2l-.02-1.24c0-.15-.01-.31-.04-.46l-.33-2.16-13.41-87.51"/><path class="cls-2" d="M419.64,485.07l24.6,23.66,8.39,8.07c3.07,2.95,7.39,4.2,11.56,3.33l11.4-2.36c5.71-1.18,10.99-1.78,15.7-1.78,11.59,0,16.54,3.62,18.28,5.41,.29,.3,.52,.65,.68,1.03l5.93,13.83c1.25,2.93,4.1,4.84,7.29,4.9l17.37,.33c2.64,.05,265.05,5.02,346.23,6.01,27.21,.33,43.21,2.21,52.16,3.87,2.97,.55,4.77,3.58,3.85,6.46l-.02,.08c-2.74,8.49-9.4,19.02-15.56,27.81-3.2,4.57-7.78,7.97-13.06,9.78-6.03,2.06-15.55,4.49-30.16,6.42-20.79,2.75-41.76,3.16-52.4,3.16-4.3,0-6.88-.07-6.88-.07h-8.54c-.37-.01-1.13,.88-1.46,.99v34h9s2.92,.08,7.88,.08c24.81,0,100.79-2.08,119.12-27.08,21.87-29.82,38.79-59.64,20.34-84.55-.18-.25-.26-.55-.44-.8-1.9-2.65-8.97-14.24-83.4-15.15-77.82-.95-319.55-5.5-344-5.96-1.19-.02-2.27-.66-2.86-1.7-3.23-5.66-16.18-23.84-49.35-23.85-6.28,0-13.27,.65-21.06,2.16-1.09,.21-2.21-.11-3.01-.88l-21.27-20.46M41.15,186.29c-4.45,3.69-7.59,8.72-8.84,14.36-1.85,8.4-1.84,22.11,6.68,42.35m126.55-85.12c-2.49,0-5.17,.2-8.05,.62-31.15,4.58-37.54,6.22-38.39,6.47-.09,.02-.17,.04-.25,.06"/><path class="cls-1" d="M142.19,400.19l-7.59-49.49-2.57-16.73c-1.04-6.77-6.7-11.85-13.53-12.17l-9.33-.42c-1.18-.05-2.24-.72-2.81-1.75-1.74-3.14-3.59-7.39-4.59-10.84l-.24-.95-.51-1.44c-.54-1.55-13.54-38.45-29.76-76.98-3.17-7.53-4.36-12.85-4.75-16.29-.15-1.29,.44-2.55,1.54-3.24,.47-.3,.92-.56,1.32-.78s.83-.34,1.28-.38c16.39-1.54,48.81-8.1,55.39-9.44l2.05-.42,.61-.21c2.27-.48,10.64-2.11,33.9-5.53h.03c1.43-.22,2.84,.54,3.47,1.84,2,4.09,4.1,7.87,6.37,11.46,8.63,13.64,25.86,40.49,44.29,67.03,26.25,37.8,67.67,81.36,69.42,83.19l.52,.55,.55,.53,132.4,127.34,26.32-23.25-134.46-129.32s-41-43-66-79c-18.31-26.37-35.55-53.27-43.46-65.78-2.3-3.63-4.26-7.44-6.01-11.36-2.91-6.53-10.91-18.48-30.48-18.48-2.49,0-5.17,.2-8.05,.62-31.15,4.58-37.54,6.22-38.39,6.47-.09,.02-.17,.04-.25,.06-2.58,.53-39.35,8.01-52.86,8.97-9.48,.68-19.42,7.77-24.85,12.29-4.45,3.69-7.59,8.72-8.84,14.36-1.85,8.4-1.84,22.11,6.68,42.35,15.51,36.84,28.2,72.74,28.96,74.9,.03,.07,.04,.13,.06,.2,.57,2.03,9.91,34.41,29.66,37.66,1.41,.23,2.49,1.4,2.71,2.82l6.95,45.33,34.84-3.71Z"/><path d="M165.55,159.88c18.23,0,25.77,10.84,28.65,17.3,1.95,4.36,3.96,8.16,6.15,11.61,6.79,10.74,24.62,38.65,43.51,65.85,24.8,35.71,65.78,78.81,66.2,79.24l.03,.03,.03,.03,155.73,149.78c1,.97,2.33,1.5,3.73,1.5,.35,0,.7-.03,1.04-.1,7.27-1.41,14.22-2.13,20.67-2.13,32.09,0,44.56,17.49,47.61,22.84,.95,1.66,2.65,2.67,4.56,2.71,27.04,.51,266.39,5.02,344.01,5.96,30.9,.38,53.73,2.63,67.84,6.69,10.74,3.09,13.01,6.29,13.86,7.49l.08,.11s.03,.07,.05,.11c.09,.18,.22,.46,.43,.75,8.06,10.88,9.58,23.51,4.66,38.62-4.89,15-15.38,30.43-25,43.55-17.87,24.37-94.46,26.26-117.51,26.26-4.87,0-7.8-.08-7.83-.08h-8.98v-29.62c0-.76,.63-1.38,1.39-1.38h8.49s2.66,.08,6.93,.08c10.7,0,31.76-.41,52.66-3.18,12.43-1.64,22.71-3.83,30.55-6.51,5.75-1.97,10.61-5.61,14.05-10.52,8.33-11.89,13.51-21.16,15.83-28.34l.02-.06,.02-.06v-.02c.59-1.91,.35-3.97-.68-5.68-1.03-1.72-2.75-2.92-4.73-3.29-8.6-1.59-24.68-3.57-52.5-3.9-80.76-.98-343.58-5.96-346.22-6.01l-17.37-.33c-2.4-.05-4.55-1.49-5.49-3.69l-5.92-13.83c-.26-.61-.63-1.16-1.09-1.63-2.18-2.25-7.65-6.02-19.72-6.02-4.84,0-10.26,.61-16.11,1.82l-11.4,2.36c-.73,.15-1.48,.23-2.22,.23-2.82,0-5.5-1.08-7.55-3.04l-8.39-8.07-157-151-.52-.5-.5-.53c-.42-.44-42.74-44.81-69.22-82.95-18.38-26.47-35.61-53.32-44.24-66.96-2.25-3.55-4.29-7.24-6.26-11.27-.89-1.82-2.77-3-4.79-3-.26,0-.52,.02-.8,.06-23.01,3.38-31.46,5.01-34.02,5.55l-.12,.03-.12,.04-.49,.17-1.92,.39c-9.01,1.84-39.63,7.95-55.18,9.41-.72,.07-1.41,.27-2.04,.61-.44,.24-.92,.52-1.44,.85-1.73,1.09-2.69,3.11-2.46,5.16,.55,4.77,2.2,10.43,4.9,16.84,16.56,39.35,29.59,76.5,29.72,76.87l.48,1.35,.22,.86v.03l.02,.03c.99,3.41,2.86,7.83,4.76,11.26,.92,1.65,2.59,2.69,4.47,2.77l9.33,.42c5.86,.27,10.76,4.68,11.65,10.48l2.57,16.73,21,136.99,.33,2.16c0,.06,.01,.12,.02,.19l.02,1.23c0,.11,0,.21,.01,.32,.16,2.14,1.23,13.65,6.84,29.84,8.06,23.26,21.22,44.65,39.14,63.57,7.71,8.15,19.11,14.35,33.87,18.45,13.72,3.81,30.06,5.74,48.56,5.74,20.74,0,39.52-2.42,51.62-4.45,5.82-.98,11.54-2.55,17.02-4.66l16.13-6.21,37.03-14.24c.9-.35,1.83-.52,2.76-.52,2.1,0,4.13,.89,5.59,2.45,1.45,1.55,2.17,3.58,2.02,5.71l-.91,13.66c-.1,1.48,.43,2.95,1.44,4.03,1.01,1.08,2.45,1.7,3.93,1.7h376.47c.76,0,1.38,.62,1.38,1.38v29.62H408c-19.69,0-25.05-6.49-26.49-10.35-.77-2.05-2.78-3.44-5.02-3.44-.67,0-1.33,.12-1.95,.36l-12.38,4.76c-7.47,2.87-15.22,4.99-23.06,6.3-13.24,2.22-33.83,4.87-56.7,4.87-21.3,0-40.43-2.31-56.84-6.87-20.27-5.63-36.46-14.72-48.1-27.02-51.08-53.97-54.33-111.15-54.45-113.56,0-.19-.03-.37-.06-.55l-20.58-134.24c-.35-2.31-2.11-4.12-4.36-4.49-18.59-3.06-27.68-34.87-28.06-36.23-.03-.12-.06-.21-.1-.32-.54-1.53-13.39-37.93-29.01-75.01-8.48-20.15-8.26-33.5-6.57-41.14,1.13-5.11,4.02-9.82,8.16-13.26,4.98-4.14,12.57-10.82,23.71-11.83,13.48-.96,49.1-8.19,53.12-9.01,.14-.03,.26-.06,.4-.1,.59-.17,6.71-1.79,38.13-6.41,2.73-.4,5.34-.6,7.76-.6m0-2c-2.49,0-5.17,.2-8.05,.62-31.15,4.58-37.54,6.22-38.39,6.47-.08,.02-.17,.04-.25,.06-2.58,.53-39.35,8.01-52.86,8.97-12,1-19.42,7.77-24.85,12.29-4.44,3.69-7.59,8.72-8.84,14.36-1.85,8.4-1.84,22.11,6.68,42.35,15.51,36.84,28.2,72.74,28.96,74.9,.03,.07,.04,.13,.06,.2,.57,2.03,9.91,34.41,29.66,37.66,1.41,.23,2.49,1.4,2.71,2.82l20.58,134.24c.02,.11,.03,.22,.03,.34,.16,3.4,3.59,60.53,54.99,114.84,26.03,27.51,69.21,34.51,106.39,34.51,23.22,0,44.1-2.73,57.03-4.9,8.01-1.34,15.86-3.49,23.45-6.41l12.38-4.76c.4-.16,.82-.23,1.24-.23,1.36,0,2.64,.8,3.14,2.13,1.65,4.42,7.53,11.65,28.37,11.65h390.87v-31.62c0-1.87-1.51-3.38-3.38-3.38H419.02c-1.96,0-3.5-1.65-3.37-3.61l.91-13.66c.39-5.79-4.28-10.29-9.61-10.29-1.14,0-2.32,.21-3.48,.65l-37.03,14.24-16.13,6.21c-5.38,2.07-10.95,3.59-16.63,4.55-11.99,2.01-30.66,4.42-51.29,4.42-18.32,0-34.48-1.91-48.02-5.67-14.41-4-25.49-10.02-32.95-17.9-17.72-18.72-30.74-39.87-38.7-62.85-5.53-15.97-6.59-27.44-6.73-29.34,0-.07,0-.13,0-.2l-.02-1.24c0-.15-.01-.31-.04-.46l-.33-2.16-21-137-2.57-16.73c-1.04-6.77-6.7-11.85-13.53-12.17l-9.33-.42c-1.18-.05-2.24-.72-2.81-1.75-1.74-3.14-3.59-7.39-4.59-10.84l-.24-.95-.51-1.44c-.54-1.55-13.54-38.45-29.76-76.98-3.17-7.53-4.36-12.85-4.75-16.29-.15-1.29,.44-2.55,1.54-3.24,.47-.3,.92-.56,1.32-.78,.4-.21,.82-.34,1.28-.38,16.39-1.54,48.8-8.1,55.39-9.44l2.05-.42,.61-.21c2.27-.48,10.64-2.11,33.9-5.53h.03c.16-.03,.32-.04,.49-.04,1.26,0,2.43,.73,2.99,1.88,2,4.09,4.1,7.87,6.37,11.46,8.63,13.64,25.86,40.49,44.29,67.03,26.25,37.8,67.67,81.36,69.42,83.19l.52,.55,.55,.53,157,151,8.39,8.07c2.43,2.33,5.63,3.6,8.93,3.6,.87,0,1.75-.09,2.63-.27l11.4-2.36c5.71-1.18,10.99-1.78,15.7-1.78,11.59,0,16.54,3.62,18.28,5.41,.29,.3,.52,.65,.68,1.03l5.93,13.83c1.25,2.93,4.1,4.84,7.29,4.9l17.37,.33c2.64,.05,265.05,5.02,346.23,6.01,27.21,.33,43.21,2.21,52.16,3.87,2.97,.55,4.77,3.58,3.85,6.46l-.02,.08c-2.74,8.49-9.4,19.02-15.56,27.81-3.2,4.57-7.78,7.97-13.06,9.78-6.03,2.06-15.55,4.49-30.16,6.42-20.79,2.75-41.76,3.16-52.4,3.16-4.3,0-6.88-.07-6.88-.07h-8.54c-1.87-.01-3.38,1.5-3.38,3.37v31.62h10.92s2.92,.08,7.88,.08c24.81,0,100.79-2.08,119.12-27.08,21.87-29.82,38.79-59.64,20.34-84.55-.18-.25-.26-.55-.44-.8-1.9-2.65-8.97-14.24-83.4-15.15-77.82-.95-319.55-5.5-344-5.96-1.19-.02-2.27-.66-2.86-1.7-3.23-5.66-16.18-23.84-49.35-23.85-6.28,0-13.27,.65-21.06,2.16-.22,.04-.44,.06-.66,.06-.87,0-1.71-.33-2.35-.94l-155.73-149.78s-41-43-66-79c-18.31-26.37-35.55-53.27-43.46-65.78-2.3-3.63-4.26-7.44-6.01-11.36-2.91-6.53-10.91-18.48-30.48-18.48h0Z"/><path class="cls-3" d="M702.5,658h-1.54v-9h1.54v9Zm-4.55,0h-3.01v-9h3.01v9Zm-6.02,0h-3.01v-9h3.01v9Zm-6.02,0h-3.01v-9h3.01v9Zm-6.01,0h-3.01v-9h3.01v9Zm-6.01,0h-3.01v-9h3.01v9Zm-6.01,0h-3v-9h3v9Zm-6.01,0h-3v-9h3v9Zm-6.01,0h-3v-9h3v9Zm-6.01,0h-3v-9h3v9Zm-6.01,0h-3v-9h3v9Zm-6.01,0h-3v-9h3v9Zm-6.01,0h-3v-9h3v9Zm-6.01,0h-3v-9h3v9Zm-6,0h-3v-9h3v9Zm-6.01,0h-3v-9h3v9Zm-6,0h-3v-9h3v9Zm-6,0h-3v-9h3v9Zm-6.01,0h-3v-9h3v9Zm-6,0h-3v-9h3v9Zm-6,0h-3v-9h3v9Zm-6,0h-3v-9h3v9Zm-6,0h-3v-9h3v9Zm-6,0h-3v-9h3v9Zm-6,0h-3v-9h3v9Zm-6,0h-3.01v-9h3.01v9Zm-6.02,0h-3.01v-9h3.01v9Zm-6.01,0h-3v-9h3v9Zm-5.99,0h-3v-9h3v9Zm-6,0h-3v-9h3v9Zm-6,0h-3v-9h3v9Zm-6,0h-3v-9h3v9Zm-6,0h-3v-9h3v9Zm-6.01,0h-3v-9h3v9Zm-6,0h-3v-9h3v9Zm-6,0h-3v-9h3v9Zm-6.01,0h-3v-9h3v9Zm-6,0h-3v-9h3v9Zm-6.01,0h-3v-9h3v9Zm-6.01,0h-3v-9h3v9Zm-6.01,0h-3v-9h3v9Zm-6.01,0h-3v-9h3v9Zm-6.01,0h-3v-9h3v9Zm-6.01,0h-3v-9h3v9Zm-6.01,0h-3v-9h3v9Zm-6.01,0h-3.01v-9h3.01v9Zm-6.01,0h-3.01v-9h3.01v9Zm-6.01,0h-3.01v-9h3.01v9Zm-6.02,0h-3.02v-9h3.02v9Zm-6.04,0h-3.06v-9h3.06v9Z"/><path class="cls-3" d="M460.26,464.62l-.24-.25,6.53-6.19,.18,.19-6.48,6.25Zm-2.29-2.37c-.64-.66-1.33-1.37-2.08-2.13l6.42-6.3c.76,.78,1.47,1.5,2.12,2.17l-6.46,6.27Zm-4.19-4.27l-2.11-2.13,6.38-6.34,2.12,2.14-6.4,6.33Zm-4.23-4.25l-2.12-2.12,6.36-6.36,2.13,2.13-6.38,6.35Zm-4.24-4.24l-2.13-2.12,6.35-6.38,2.13,2.12-6.35,6.37Zm-4.25-4.24l-2.13-2.12,6.34-6.38,2.13,2.12-6.34,6.38Zm-4.26-4.23l-2.13-2.11,6.34-6.39,2.14,2.12-6.34,6.38Zm-4.26-4.22l-2.13-2.11,6.33-6.4,2.14,2.12-6.33,6.39Zm-4.27-4.22l-2.14-2.11,6.32-6.4,2.14,2.11-6.33,6.4Zm-4.27-4.22l-2.14-2.11,6.32-6.41,2.14,2.11-6.32,6.41Zm-4.28-4.22l-2.14-2.11,6.32-6.41,2.14,2.11-6.32,6.41Zm-4.28-4.21l-2.14-2.1,6.31-6.42,2.14,2.11-6.31,6.41Zm-4.28-4.21l-2.14-2.1,6.3-6.42,2.15,2.11-6.31,6.41Zm-4.28-4.21l-2.14-2.1,6.3-6.43,2.15,2.11-6.31,6.42Zm-4.28-4.2l-2.14-2.1,6.3-6.43,2.15,2.1-6.3,6.42Zm-4.29-4.2l-2.14-2.1,6.3-6.43,2.15,2.1-6.3,6.43Zm-4.29-4.2l-2.14-2.1,6.3-6.43,2.15,2.1-6.3,6.43Zm-4.29-4.2l-2.15-2.1,6.29-6.43,2.15,2.1-6.29,6.44Zm-4.29-4.2l-2.16-2.11,6.29-6.43,2.15,2.11-6.29,6.44Zm-4.3-4.21l-2.15-2.1,6.29-6.44,2.15,2.1-6.29,6.44Zm-4.29-4.19l-2.14-2.09,6.29-6.44,2.14,2.09-6.29,6.44Zm-4.29-4.19l-2.15-2.09,6.28-6.44,2.15,2.1-6.29,6.44Zm-4.3-4.19l-2.15-2.09,6.28-6.45,2.15,2.1-6.29,6.44Zm-4.3-4.19l-2.15-2.09,6.28-6.44,2.15,2.1-6.29,6.44Zm-4.3-4.19l-2.15-2.09,6.28-6.45,2.15,2.1-6.29,6.44Zm-4.3-4.19l-2.15-2.09,6.28-6.45,2.15,2.09-6.28,6.45Zm-4.3-4.19l-2.15-2.09,6.28-6.45,2.15,2.09-6.27,6.45Zm-4.31-4.19l-2.15-2.09,6.27-6.46,2.15,2.09-6.27,6.46Zm-4.31-4.19l-2.15-2.09,6.27-6.46,2.16,2.09-6.27,6.46Zm-4.31-4.18l-2.16-2.09,6.27-6.46,2.16,2.09-6.27,6.46Zm-4.31-4.18l-2.16-2.09,6.26-6.46,2.15,2.09-6.26,6.47Zm-4.32-4.18l-2.16-2.09,6.26-6.47,2.16,2.09-6.26,6.47Zm-4.32-4.17l-2.16-2.09,6.25-6.47,2.16,2.09-6.25,6.47Zm-4.32-4.17l-2.16-2.08,6.24-6.49,2.17,2.09-6.25,6.48Zm-4.33-4.17l-2.17-2.08,6.23-6.5,2.18,2.09-6.24,6.49Zm-4.34-4.16l-2.17-2.07,6.19-6.53,2.19,2.09-6.21,6.51Zm-4.37-4.14c-.73-.69-1.47-1.42-2.23-2.18l6.37-6.36c.7,.7,1.39,1.38,2.07,2.02l-6.21,6.52Zm-4.39-4.39c-.7-.72-1.4-1.47-2.12-2.24l6.59-6.13c.68,.73,1.35,1.44,2.01,2.13l-6.49,6.24Zm-4.19-4.5c-.67-.74-1.35-1.5-2.03-2.27l6.74-5.97c.67,.75,1.32,1.49,1.97,2.21l-6.68,6.04Zm-4.04-4.56c-.66-.76-1.32-1.53-1.98-2.31l6.84-5.84c.65,.76,1.29,1.51,1.94,2.25l-6.79,5.9Zm-3.95-4.62c-.65-.77-1.29-1.54-1.95-2.33l6.93-5.74c.64,.77,1.27,1.53,1.9,2.28l-6.89,5.79Zm-3.87-4.67c-.64-.78-1.27-1.56-1.91-2.35l7-5.66c.63,.78,1.25,1.55,1.88,2.31l-6.96,5.7Zm-3.81-4.71c-.63-.78-1.26-1.57-1.89-2.37l7.05-5.59c.62,.78,1.24,1.56,1.86,2.33l-7.02,5.63Zm-3.76-4.74c-.62-.79-1.25-1.59-1.87-2.38l7.1-5.53c.61,.79,1.22,1.57,1.84,2.35l-7.07,5.57Zm-3.72-4.78c-.62-.8-1.23-1.59-1.85-2.39l7.14-5.48c.61,.79,1.22,1.58,1.83,2.37l-7.12,5.51Zm-3.68-4.79c-.61-.8-1.22-1.6-1.82-2.4l7.18-5.43c.6,.79,1.2,1.58,1.8,2.37l-7.15,5.46Zm-3.64-4.81l-1.81-2.41,7.21-5.39,1.8,2.39-7.19,5.41Zm-3.61-4.83l-1.8-2.42,7.23-5.36,1.78,2.4-7.22,5.38Zm-3.59-4.85l-1.79-2.43,7.26-5.32,1.77,2.41-7.25,5.34Zm-3.57-4.87l-1.77-2.44,7.28-5.29,1.76,2.42-7.27,5.3Zm-3.54-4.88l-1.76-2.45,7.31-5.25,1.75,2.43-7.3,5.27Zm-3.52-4.9l-1.75-2.46,7.33-5.22,1.74,2.44-7.32,5.23Zm-3.5-4.91l-1.74-2.46,7.35-5.19,1.73,2.45-7.35,5.2Zm-3.48-4.93l-1.73-2.47,7.38-5.16,1.72,2.46-7.37,5.17Zm-3.46-4.96c-1.12-1.62-1.74-2.51-1.74-2.51l7.42-5.09s.61,.89,1.71,2.47l-7.39,5.13Z"/><path d="M281.34,628.71c-27.06,0-58.36-5.14-81.6-24.16-41.09-33.62-44.75-44.27-55.62-75.9-7.18-20.88-20.53-119.21-21.09-123.38l-7.01-47.08c-.87-9.16-2.94-18.06-4.46-19.24-3.19-.52-5.65-.4-7.83-.28-6.32,.31-9.84-.07-14.58-11.92-1.96-4.89-27.05-70.97-42.03-113.07l-.09-.34c-.03-.2-.81-5.03,.81-10.29,1.53-4.99,5.53-11.29,15.83-13.01l102-17c.42-.08,11.06-1.79,20.06,13.98,11.87,20.78,43.9,74.52,84.81,124.73,17.15,21.04,163.35,159.42,164.82,160.81l27.66,24.69c1.27,.39,7.14,1.84,18.61-.21,13.76-2.46,21.09-1.09,29.1,2.11,9.14,3.66,14.05,10.77,17.64,15.96,2.09,3.03,4.07,5.89,5.62,5.89,15.35,0,179.39,3.96,181.05,4l192.99,4c1.13,.02,27.91,.55,39.54,4.09,11.81,3.59,17.02,11.22,16.42,24.01-.51,10.71-19.18,41-31.72,51.44l-.1,.08c-16.4,12.02-56.93,16.39-80.18,16.39-6.26,0-14.79,.19-21.01,.34-3.86,.09-6.9,.16-8.48,.16v-4c1.52,0,4.55-.08,8.39-.16,6.25-.14,14.8-.34,21.1-.34,27.37,0,63.9-5.46,77.77-15.58,11.71-9.79,29.77-38.77,30.23-48.52,.52-10.96-3.54-16.93-13.58-19.99-11.1-3.38-38.18-3.91-38.45-3.91l-193.01-4c-1.66-.04-165.66-4-180.96-4-3.65,0-5.97-3.36-8.91-7.62-3.48-5.04-7.81-11.32-15.83-14.52-6.33-2.53-12.73-4.42-26.9-1.89-14.38,2.57-20.85,0-21.12-.12l-.31-.13-28.25-25.23c-6.07-5.74-147.91-139.99-165.22-161.23-41.1-50.44-73.27-104.41-85.19-125.27-7.52-13.15-15.59-12.07-15.93-12.02l-102,17c-15.09,2.52-13.63,16.75-13.38,18.54,14.97,42.06,39.96,107.87,41.91,112.74,3.9,9.76,5.61,9.66,10.67,9.42,2.29-.12,5.14-.26,8.81,.35,4.61,.77,6.71,12.77,7.66,22.73l6.99,46.95c.14,1.05,13.86,102.14,20.91,122.64,10.59,30.82,14.16,41.2,54.38,74.1,41.48,33.93,110.22,22.05,130.3,17.6,7.38-1.64,32.48-7.4,45.66-12.89,1.82-.76,4.31-2.22,6.94-3.77,7.31-4.3,11.96-6.79,14.83-5.11,3.14,1.82,1.48,6-.12,10.05-.82,2.08-2.54,6.41-1.66,7.1,8.31,6.46,17.68,6.58,17.78,6.58h373v4H416c-.44,0-10.79-.08-20.23-7.42-3.25-2.53-1.32-7.42,.39-11.73,.62-1.58,1.64-4.13,1.63-5.15h-.06c-1.8,0-7.44,3.31-10.54,5.13-2.76,1.62-5.36,3.15-7.43,4.01-13.49,5.62-38.88,11.45-46.34,13.11-9.4,2.08-29.24,5.75-52.09,5.75Z"/><g id="Start_Line"><polygon points="784.87 656.69 795.57 645.65 798.3 648.27 790.23 656.6 798.56 664.68 795.93 667.39 784.87 656.69"/><polygon points="783.13 664.96 780.5 667.69 772.82 660.25 769.46 656.99 780.16 645.94 782.87 648.58 774.8 656.9 776.05 658.11 783.13 664.96"/><polygon points="767.72 665.26 765.08 667.98 763.47 666.42 754.03 657.28 764.74 646.24 767.45 648.86 759.39 657.2 766.71 664.28 767.72 665.26"/></g><polygon points="809.15 605.08 809.14 636.39 809.14 637.75 809.15 638.92 809.14 638.95 809.14 639.1 809.15 639.57 809.15 640.08 809.14 641.44 809.15 644.39 809.14 667.29 802.94 667.29 802.94 644.46 802.93 641.36 802.94 640.08 802.94 639.59 802.93 639.06 802.93 637.5 802.94 636.47 802.95 605 809.15 604.99 809.15 605.08"/><g><circle class="cls-3" cx="182" cy="188" r="10"/><path d="M182,199c-6.07,0-11-4.93-11-11s4.93-11,11-11,11,4.93,11,11-4.93,11-11,11Zm0-20c-4.96,0-9,4.04-9,9s4.04,9,9,9,9-4.04,9-9-4.04-9-9-9Z"/></g><g><circle class="cls-3" cx="907" cy="531" r="10"/><path d="M907,542c-6.07,0-11-4.93-11-11s4.93-11,11-11,11,4.93,11,11-4.93,11-11,11Zm0-20c-4.96,0-9,4.04-9,9s4.04,9,9,9,9-4.04,9-9-4.04-9-9-9Z"/></g></svg>