<?xml version="1.0" encoding="UTF-8"?><svg id="Red_Bull_Ring_Detailed" xmlns="http://www.w3.org/2000/svg" viewBox="0 0 1000 1000"><defs><style>.cls-1,.cls-2{fill:#fff;}.cls-3{fill:#fae44a;}.cls-4{fill:#db4a25;}.cls-5,.cls-6{fill:#1bce20;}.cls-7{fill:#75e5fd;}.cls-6{stroke:#000;stroke-miterlimit:10;stroke-width:2px;}.cls-2{font-family:OpenSans-ExtraBold, 'Open Sans';font-size:13.18px;}</style></defs><path d="M707.96,659.6l-1.25-1.53-20.25,15.99c-37.81,29.76-91.51,71.55-120.07,93-5.05,3.79-11.91,3.88-17.08,.23-.71-.5-1.43-1.02-2.2-1.58l-1.74-1.25c-8.3-5.93-81.24-50.76-95.77-59.68l-.85-.52-.96-.52c-.83-.45-84.28-45.99-153.33-115.03-65.06-65.07-102.65-84.21-119.33-89.83-4.54-2.09-16.49-6.78-33.05-13.14-4.25-1.63-8.76-3.36-13.45-5.17-19.6-7.52-41.8-16.06-62.41-24.27-1.14-.45-2.06-1.2-2.58-2.09-.44-.77-.92-2,.26-3.77,.43-.66,1.08-1.23,1.87-1.65,15.52-8.38,37.01-17.82,52.7-24.7,5.47-2.4,10.2-4.48,14-6.21,10.44-4.74,38.95-15.08,112.59-31,.81-.18,1.51-.33,2.11-.45,.57-.13,1.05-.23,1.45-.32,4.57-1.03,34.03-6.79,78.79-15.43,4.51-.86,8.48-1.5,12.14-1.95,31.82-3.88,112.31-30.72,155.88-49.97,11.57-5.12,21.76-9.18,30.27-12.08,.16-.05,.3-.06,.34-.05l.12,.05c.25,.09,.41,.42,.34,.76-.5,2.79-1.23,5.78-1.78,7.48-.46,1.42-.81,2.67-1.1,3.88-.31,1.2-7.78,29.59-34.43,56.25-25.47,25.46-67.96,33.61-109.06,41.51l-10.48,2.03c-43.37,8.49-69.17,22.28-78.88,42.14-14.29,25.68-18.34,49-12.06,69.29,4.4,14.24,14.15,26.5,26.76,33.63,32.38,24.94,58.4,44.9,73.27,56.2,.54,.42,1.09,.82,1.6,1.2,21.14,15.77,39.49,23.43,56.13,23.43,.7,0,1.41,0,2.11-.04,1.02,.05,2.21,.09,3.44,.09,8.61,0,21.6-1.52,34.68-8.76,20.9-11.59,29.53-30.39,33.09-44.12,6.53-25.2,12.23-40.7,12.28-40.82l.08-.22c4.43-11.98,15.23-24.45,31.24-36.05,13.3-9.65,25.49-15.17,26.79-15.75l131.49-58.44,.6-.27c.96-.43,97.89-45.19,138.51-60.93,.9-.35,1.75-.52,2.45-.52,13.36,.1,19.22,8.33,20.24,9.94,1.38,2.3,2.95,4.46,4.62,6.4l54.35,63.58,.05,.06c.44,.54,.48,1.31,.11,1.93-1.59,2.6-3.27,5.21-4.99,7.76-11.89,17.62-26.68,33.73-44,47.87l-78.9,64.48-86.91,68.62,6.56,8,4.9,6.05,2.49,3.06,7.07,8.71,.87,1.06,2.34,2.88,.11-.09,1.26,1.53,86.57-68.35,79.2-64.72c20.55-16.79,38.17-36.05,52.36-57.24,3.88-5.81,7.35-11.49,10.27-16.81,4.18-6.84,7.84-24.1-8.22-40.49l-.26-.28-54.56-63.81c-.27-.31-.5-.63-.72-1-2.93-4.87-19.28-29.21-54.53-29.48h-.3c-5.68,0-11.38,1.09-16.96,3.24-42.01,16.27-139.92,61.48-140.88,61.92l-130.95,58.21c-.63,.27-15.73,6.72-33.26,19.18-29.41,20.91-41.7,41.87-46.83,55.76-.07,.17-6.35,17.05-13.59,44.9-5.11,19.71-20.18,22.65-28.71,22.65-1.16,0-2.09-.07-2.6-.11-.64-.06-1.3-.05-2.07,.02-2.43,.27-12.72-.05-34.11-16.3l-.04-.03s0,0-.02,0l-.2-.16h-.02c-24.14-18.37-75.38-57.57-76.37-58.36l-.37-.31c-11.22-9.23-12.11-23.98-2.63-43.82,2.48-5.18,6.32-9.54,11.1-12.6,7.11-4.55,20.27-10.73,42.63-14.33,43.14-6.94,102.21-16.43,140.38-54.61,34.65-34.65,44.18-71.36,45.13-75.36l.06-.22c.04-.14,.07-.28,.12-.42,1.04-3.14,9.84-31.21-1.28-49.44-5.02-8.22-13.29-13.28-24.59-15.04-.79-.12-1.73-.17-2.54-.09-4.62,.34-19.28,2.85-55.48,18.84-43.5,19.23-119.11,43.73-144.44,46.81-4.62,.56-9.49,1.35-14.9,2.4-24.54,4.72-72.83,14.07-79.91,15.64-.7,.16-1.81,.4-3.26,.7-73.5,15.89-106.28,27.12-120.84,33.73-21.26,9.68-53.96,27.29-71.56,36.92l-4.45,2.41,.55,.14c-6.22,4.29-17.85,13.82-21.67,27.25-2.47,8.68-1.24,17.49,3.67,26.23l.23,.33c3.41,3.94,7.88,7.02,13.28,9.13,31.57,12.41,66.34,27.28,89.94,37.56,17.52,7.65,30.78,13.59,33.98,15.07,.54,.26,1.08,.45,1.58,.6,15.83,4.66,52.72,28.53,104.63,80.42,72.44,72.46,160.01,120.56,162.58,121.95,2.33,1.43,86.32,53.06,93.4,58.12,.46,.34,1,.71,1.58,1.14,8.33,6.01,25.65,18.51,38.08,18.51,2.82,0,5.26-.64,7.25-1.92,19.33-12.3,137.56-105.32,142.59-109.27l20.78-16.41-1.25-1.53,.05-.04-3.02-3.72-7.3-8.99-2.49-3.07m250.18-200.58c-2.91,5.3-6.32,10.88-10.13,16.59-13.97,20.86-31.33,39.83-51.59,56.37l-79.17,64.7-85.15,67.23-20.45-25.18,85.3-67.34,78.93-64.5c17.6-14.39,32.66-30.78,44.77-48.72,1.75-2.6,3.47-5.26,5.09-7.92,1.27-2.09,1.07-4.73-.51-6.59l-54.37-63.6c-1.54-1.79-2.96-3.77-4.26-5.91-1.23-1.95-8.15-11.7-23.59-11.82-1.21,0-2.5,.27-3.87,.79-40.75,15.77-137.8,60.59-138.75,61.03l-.47,.21-130.99,58.23-.52,.23c-1.38,.61-13.91,6.3-27.54,16.18-16.65,12.07-27.94,25.17-32.66,37.95l-.05,.15c-.48,1.3-5.97,16.38-12.41,41.2-3.36,12.98-11.49,30.73-31.17,41.65-12.33,6.83-24.62,8.26-32.76,8.26-1.19,0-2.36-.04-3.35-.09h-.18c-.66,.03-1.34,.04-2.02,.04-15.75,0-33.34-7.41-53.79-22.66-.52-.38-1.03-.76-1.55-1.16-14.88-11.32-40.93-31.3-73.36-56.27l-.24-.16c-11.8-6.64-20.93-18.1-25.05-31.43-5.96-19.23-2.01-41.52,11.76-66.24l.05-.09c9.12-18.71,34.02-31.81,76.11-40.05l10.48-2.03c41.68-8,84.78-16.27,111.1-42.59,27.42-27.41,35.15-56.83,35.49-58.12,.26-1.13,.58-2.26,1.01-3.58,.75-2.26,1.5-5.72,1.91-7.99,.42-2.23-.82-4.48-2.89-5.21l-.15-.05c-.93-.31-1.93-.3-2.9,.03-8.64,2.94-18.94,7.04-30.62,12.21-43.33,19.14-123.25,45.82-154.75,49.65-3.76,.46-7.81,1.12-12.41,2.01-44.81,8.64-74.31,14.41-78.88,15.44-.38,.08-.87,.19-1.45,.32-.59,.13-1.29,.28-2.1,.45-74.02,16-102.83,26.46-113.41,31.27-3.78,1.72-8.49,3.79-13.94,6.18-15.76,6.92-37.35,16.39-52.99,24.84-1.36,.72-2.5,1.74-3.3,2.95-1.72,2.6-1.85,5.43-.37,7.95,.96,1.64,2.57,2.98,4.52,3.77,20.63,8.22,42.86,16.76,62.47,24.29,4.69,1.8,9.2,3.53,13.44,5.17,16.6,6.38,28.55,11.05,32.91,13.07l.2,.09c39.38,13.21,95.58,66.58,117.91,88.9,69.45,69.46,153.4,115.27,154.24,115.73l.81,.43,.8,.49c40.11,24.63,89.2,55,95.56,59.54l1.72,1.24c.77,.55,1.51,1.09,2.22,1.59,6.58,4.65,15.32,4.54,21.74-.29,28.59-21.47,82.32-63.28,120.15-93.05l18.85-14.89,20.46,25.19-19.24,15.18c-1.23,.97-123.09,96.84-142.25,109.04-1.36,.87-3.08,1.3-5.14,1.3-11.16,0-28.39-12.44-35.76-17.76-.6-.42-1.14-.82-1.61-1.16-7.24-5.18-90.15-56.12-93.67-58.29l-.1-.06c-.88-.47-88.95-48.52-161.72-121.29-67.6-67.6-100.4-79.69-106.32-81.43-.32-.1-.63-.22-1-.4-3.22-1.48-16.52-7.45-34.08-15.1-23.64-10.31-58.45-25.19-90.08-37.62-4.73-1.86-8.64-4.52-11.61-7.9-4.27-7.71-5.36-15.46-3.21-23.02,4.73-16.66,23.6-27.3,23.79-27.4l3.78-2.14c18.16-9.91,47.74-25.71,67.41-34.67,14.38-6.53,46.89-17.64,120.04-33.46,1.46-.32,2.57-.55,3.27-.71,7.05-1.56,55.28-10.9,79.81-15.62,5.32-1.03,10.11-1.8,14.63-2.34,25.63-3.12,101.81-27.79,145.57-47.13,36.63-16.19,50.73-18.26,54.2-18.52,.13,0,.26,0,.39,0,.43,0,.87,.02,1.24,.08,10.09,1.56,17.42,6.01,21.81,13.18,10.21,16.71,1.89,43.18,.91,46.14-.07,.21-.12,.41-.18,.62l-.08,.27c-.94,3.95-10.22,39.67-44.09,73.56-37.28,37.26-95.62,46.65-138.23,53.5-23.03,3.7-36.71,10.14-44.14,14.9-5.4,3.45-9.72,8.37-12.52,14.22-7.13,14.91-12.27,35.45,3.67,48.57l.35,.29c.62,.51,53.86,41.23,76.72,58.61l.33,.25h0c19.49,14.74,30.52,16.96,35.37,16.96,.43,0,.86-.02,1.26-.07,.44-.04,.83-.07,1.35-.02,.61,.05,1.63,.13,2.94,.13,7.79,0,26.54-2.5,32.54-25.62,7.16-27.62,13.39-44.33,13.46-44.51,17.16-46.45,77.32-72.42,77.95-72.69l131.01-58.23c.98-.45,98.78-45.63,140.67-61.84,5.12-1.99,10.34-2.98,15.54-2.98h.29c33.12,.25,48.42,23,51.16,27.59,.35,.55,.7,1.04,1.1,1.5l54.37,63.61,.6,.65c17.88,18.22,8.11,34.98,7.65,35.77Z"/><g id="Start_Line"><polygon points="729.8 708.31 731.13 693.17 734.85 693.49 733.86 704.91 745.27 705.92 744.94 709.64 729.8 708.31"/><polygon points="733.62 715.74 733.29 719.47 722.77 718.55 718.16 718.14 719.48 703 723.21 703.34 722.21 714.75 723.92 714.9 733.62 715.74"/><polygon points="721.97 725.57 721.64 729.31 719.44 729.11 706.5 727.97 707.84 712.84 711.56 713.16 710.56 724.58 720.59 725.45 721.97 725.57"/></g><polygon points="755.02 701.34 751.89 703.88 750.27 705.2 736.04 687.68 734.11 685.31 733 683.95 731.7 682.35 731.05 681.56 711.34 657.27 711.2 657.09 711.18 657.06 711.01 656.85 714.14 654.32 715.78 652.98 715.95 653.21 715.99 653.26 716.05 653.34 735.77 677.63 736.63 678.68 737.75 680.06 738.92 681.51 740.75 683.76 755.02 701.34"/><path class="cls-7" d="M561.15,326.97c-.08,.24-.14,.47-.21,.72-.95,3.97-10.29,40.15-44.62,74.5-36.39,36.38-91.21,46.32-139.31,54.06-22.37,3.6-35.79,9.75-43.38,14.62-5.11,3.27-9.19,7.94-11.81,13.41-15.48,32.41,.49,43.96,3.5,46.49,.47,.4,52.6,40.27,76.64,58.55,.03,.02,.06,.05,.09,.06l-20.52,30.09c-.53-.39-1.06-.78-1.59-1.19-22.29-16.94-61.71-47.3-73.37-56.28-12.28-6.91-21.66-18.61-25.97-32.56-6.13-19.78-2.11-42.57,11.92-67.78,9.41-19.3,34.85-32.77,77.51-41.12,3.46-.67,6.95-1.34,10.48-2.03,41.4-7.95,84.2-16.17,110.08-42.05,27.65-27.65,34.88-56.88,34.95-57.18,.3-1.27,.65-2.49,1.06-3.75,.64-1.94,1.37-5.13,1.85-7.73,.24-1.25-.43-2.56-1.63-2.98-.03,0-.05-.02-.08-.03-.54-.18-1.12-.16-1.65,.02-6.8,2.31-16.66,6.05-30.45,12.15-43.45,19.2-123.66,45.95-155.32,49.81-3.63,.44-7.65,1.09-12.27,1.98-43.98,8.48-74.19,14.39-78.85,15.44-.76,.16-1.96,.43-3.54,.76-73.85,15.97-102.5,26.37-113.01,31.14-15.04,6.84-45.99,19.71-66.83,30.96-1.04,.55-1.94,1.32-2.58,2.29-.98,1.48-1.66,3.56-.31,5.86,.79,1.35,2.09,2.34,3.54,2.93,25.65,10.22,54.21,21.1,75.89,29.45l-14.81,31.74c-24.98-10.89-59.5-25.61-90.01-37.59-5.47-2.14-9.53-5.14-12.51-8.59-17.78-31.7,21.24-53.3,21.24-53.3,0,0-.03,0-.11-.03,21.7-11.88,51.61-27.83,71.43-36.85,34.31-15.58,114.36-32.23,123.71-34.3,7.25-1.61,57.58-11.35,79.86-15.63,4.9-.95,9.82-1.77,14.76-2.37,26.39-3.21,102.82-28.32,145.01-46.97,36.44-16.1,50.77-18.38,54.83-18.68,.23-.02,.44-.02,.67-.02,.47,0,.96,.03,1.42,.1,41.6,6.47,25.88,57.1,24.29,61.9Z"/><path class="cls-3" d="M719.13,650.85l-.03-.04,86.84-68.57,78.93-64.5c17.45-14.26,32.39-30.51,44.38-48.3,1.79-2.65,3.47-5.27,5.04-7.84,.83-1.35,.7-3.07-.33-4.28l-.02-.02-54.35-63.58c-1.65-1.92-3.13-3.99-4.43-6.14-1.18-1.87-7.58-10.79-21.92-10.9-.97,0-2.05,.23-3.16,.65-40.85,15.82-137.68,60.54-138.63,60.99l-.26,.12-.25,.1-130.98,58.22-.41,.19-.12,.05c-1.07,.47-13.53,6.07-27.19,15.97-16.34,11.84-27.37,24.62-31.94,36.97l-.03,.08-.03,.09c-.04,.1-5.74,15.52-12.36,41.05-3.46,13.36-11.85,31.63-32.13,42.88-12.69,7.03-25.34,8.51-33.72,8.51-1.16,0-2.3-.04-3.44-.09-.69,.03-1.4,.04-2.11,.04-16.17,0-34.16-7.53-54.95-23.04l20.43-30.15s.06,.05,.09,.06c19.7,14.96,30.43,16.75,34.43,16.75,.44,0,.81-.03,1.09-.06,.35-.03,.69-.05,1.03-.05,.22,0,.43,0,.64,.03,.65,.05,1.59,.12,2.79,.12,7.65,0,25.01-2.48,30.63-24.13,7.28-28.07,13.52-44.7,13.52-44.7,17.67-47.82,79.01-73.81,79.01-73.81l130.98-58.22s98.35-45.46,140.79-61.89c5.19-2.01,10.68-3.11,16.25-3.11h.3c34.37,.26,50.32,24.33,52.83,28.52,.28,.44,.57,.86,.92,1.27l54.34,63.57c.18,.2,.37,.4,.54,.59,19.25,19.62,7.97,38.1,7.97,38.1-3.17,5.79-6.65,11.4-10.22,16.74-14.36,21.44-31.99,40.48-51.97,56.81l-79.2,64.72-86.68,68.44-2.34-2.88"/><path class="cls-4" d="M731.01,687.76l-20.81,16.42s-122.95,96.76-142.42,109.15c-1.77,1.13-3.87,1.61-6.2,1.61-12.7,0-31.92-14.58-38.51-19.28-7.27-5.2-93.56-58.22-93.56-58.22,0,0-88.37-47.82-162.17-121.64-68.11-68.1-100.8-79.56-105.46-80.93-.45-.13-.88-.3-1.29-.49-3.09-1.43-16.11-7.27-34.04-15.09l14.81-31.74c16.19,6.23,28.55,11.05,33.03,13.13,14.93,5.01,52.56,23.27,118.67,89.39,68.95,68.95,152.94,114.93,153.78,115.38l.86,.46,.85,.52c26.27,16.13,88.17,54.26,95.66,59.61,.51,.37,1.09,.78,1.74,1.25,.76,.55,1.49,1.08,2.2,1.58,5.85,4.14,13.69,4.04,19.41-.26,29.78-22.35,84.34-64.87,120.11-93.03l20.39-16.1,.09,.12,19.82,24.42,3.02,3.72Z"/><path d="M954.52,458.64c-.42-7.98-4.64-12.21-5.51-13-1.99-2.32-36.34-42.5-60.14-72.96-13.35-17.08-28.2-18.96-38.28-17.54-10.1,1.42-17.39,6.29-18.63,7.16-2.75,1.25-38.2,17.34-115.42,50.3-83.57,35.67-128.1,55.7-175.19,85.13-31.17,19.49-34.45,32.59-39.4,52.43-2.66,10.6-5.96,23.81-14.69,41.27-9.89,19.78-24.72,30.63-44.08,32.25-5.6,.47-10.8,.06-15.08-.62-6.29-1-12.2-3.61-17.28-7.44-11.58-8.72-38.71-28.79-77.8-55.57-21.22-14.54-33.47-30.83-35.44-47.13-.86-7.08,.5-12.93,1.8-16.6,1.04-2.93,1.97-5.89,2.75-8.9,1.09-4.2,3.43-10.69,8.41-17.28,11.18-14.8,30.62-24.51,56.22-28.06,63.78-8.83,108.8-28.61,109.3-28.84,1.35-.66,33.54-16.75,64.13-73.98,11.65-21.78,14.33-37.55,7.99-46.87-6.82-10.02-21.2-8.47-21.81-8.4l-.19,.04c-.94,.2-23.49,5.23-71.55,26.81-28.93,12.99-66.49,24.95-111.62,35.57-1.66,.4-2.91,.69-3.68,.88-2.48,.62-10.85,2.12-22.43,4.22-25.07,4.52-67.03,12.08-109.93,21.47-61.13,13.37-104.45,34.39-107.07,35.68-41.14,14.15-62.61,28.59-63.82,42.91-.85,10.11,8.6,16.21,10.47,17.3,.53,.41,1.27,.76,2.11,1.14,1.89,.87,5.14,2.26,9.66,4.14,13.27,5.51,36.42,14.8,68.8,27.61,80.88,31.97,102.73,53.47,150.6,100.55l6.87,6.75c52.91,51.93,119.26,92.76,119.96,93.18,1.04,.61,104,61.46,131.26,81.91,9.7,7.27,17.98,10.94,24.68,10.94,1.54,0,2.99-.2,4.37-.58,2.98-.84,4.97-2.47,6.23-3.91,1.9-2.18,4.1-4.09,6.44-5.78l19.47-14.03,99.82-77.08,23.82-18.57,.07-.06-2.49-3.07-.08,.07-23.74,18.51-99.77,77.05-22.03,16.19c-1.59,1.17-3.08,2.48-4.34,4.01-.84,1.02-2.29,2.28-4.59,2.91-4.19,1.14-12.01,.38-25.51-9.74-27.44-20.59-130.58-81.53-131.6-82.13-.65-.4-66.64-41-119.22-92.62l-6.86-6.74c-48.27-47.48-70.31-69.14-151.92-101.41-58.93-23.29-74.32-29.86-78.33-31.68l-1.5-.83c-.1-.05-9.43-5.24-8.72-13.67,.73-8.69,11.96-22.6,61.28-39.55l.24-.1c.43-.22,44.03-21.8,106.28-35.42,42.82-9.36,84.74-16.92,109.79-21.44,12.1-2.17,20.08-3.62,22.7-4.27,.75-.19,1.98-.47,3.62-.86,45.38-10.67,83.17-22.73,112.34-35.82,45.99-20.64,68.96-26.14,70.66-26.53,1.16-.11,12.76-.99,18.01,6.7,5.38,7.9,2.54,22.69-8.2,42.79-23.94,44.78-51.27,66.87-62.31,72.25-.44,.2-44.99,19.77-108.18,28.51-18.69,2.59-44.1,9.86-59.01,29.81-5.4,7.23-7.87,14.03-8.99,18.43-.73,2.86-1.61,5.68-2.61,8.45-1.42,3.91-2.91,10.25-1.99,18.26,2.54,22.19,21.61,39.55,37.17,50.2,38.25,26.21,65.3,46.19,77.25,55.17,5.93,4.46,12.84,7.46,20.18,8.57,4.41,.67,9.63,1.04,15.16,.59,14.37-1.17,34.26-8.08,47.44-34.44,8.92-17.84,12.27-31.27,14.98-42.07,4.89-19.58,7.85-31.4,37.66-50.03,46.86-29.29,91.28-49.26,174.66-84.85,80.13-34.2,115.32-50.26,115.67-50.42l.35-.21c.07-.05,7.13-5.16,17.02-6.55,13.19-1.86,24.84,3.54,34.61,16.06,24.46,31.3,59.99,72.79,60.34,73.2l.23,.23c.16,.14,3.94,3.46,4.26,10.46,.31,6.65-2.61,17.98-18.24,34.1-31.18,32.16-129.29,112.68-130.24,113.46l-72.79,56.77-.04,.03,2.49,3.06,.06-.03,72.75-56.74c.99-.81,99.27-81.48,130.62-113.81,13.41-13.83,19.91-26.35,19.34-37.2Z"/><g id="_1"><g><path d="M562.82,839.04c-6.26,0-11.35-5.09-11.35-11.35s5.09-11.35,11.35-11.35,11.35,5.09,11.35,11.35-5.09,11.35-11.35,11.35Z"/><path d="M562.82,817.35c5.72,0,10.35,4.63,10.35,10.35s-4.63,10.35-10.35,10.35-10.35-4.63-10.35-10.35,4.63-10.35,10.35-10.35m0-2c-6.81,0-12.35,5.54-12.35,12.35s5.54,12.35,12.35,12.35,12.35-5.54,12.35-12.35-5.54-12.35-12.35-12.35h0Z"/></g><text class="cls-2" transform="translate(554.72 831.79)"><tspan x="0" y="0">01</tspan></text></g><g id="_1-2"><g><path d="M203.34,512.22c-6.26,0-11.35-5.09-11.35-11.35s5.09-11.35,11.35-11.35,11.35,5.09,11.35,11.35-5.09,11.35-11.35,11.35Z"/><path d="M203.34,490.53c5.72,0,10.35,4.63,10.35,10.35s-4.63,10.35-10.35,10.35-10.35-4.63-10.35-10.35,4.63-10.35,10.35-10.35m0-2c-6.81,0-12.35,5.54-12.35,12.35s5.54,12.35,12.35,12.35,12.35-5.54,12.35-12.35-5.54-12.35-12.35-12.35h0Z"/></g><text class="cls-2" transform="translate(195.24 504.97)"><tspan x="0" y="0">02</tspan></text></g><g id="_1-3"><g><path d="M13.35,490.19c-6.26,0-11.35-5.09-11.35-11.35s5.09-11.35,11.35-11.35,11.35,5.09,11.35,11.35-5.09,11.35-11.35,11.35Z"/><path d="M13.35,468.49c5.72,0,10.35,4.63,10.35,10.35s-4.63,10.35-10.35,10.35-10.35-4.63-10.35-10.35,4.63-10.35,10.35-10.35m0-2c-6.81,0-12.35,5.54-12.35,12.35s5.54,12.35,12.35,12.35,12.35-5.54,12.35-12.35-5.54-12.35-12.35-12.35h0Z"/></g><text class="cls-2" transform="translate(5.24 482.93)"><tspan x="0" y="0">03</tspan></text></g><g id="_1-4"><g><path d="M562.82,274.74c-6.26,0-11.35-5.09-11.35-11.35s5.09-11.35,11.35-11.35,11.35,5.09,11.35,11.35-5.09,11.35-11.35,11.35Z"/><path d="M562.82,253.05c5.72,0,10.35,4.63,10.35,10.35s-4.63,10.35-10.35,10.35-10.35-4.63-10.35-10.35,4.63-10.35,10.35-10.35m0-2c-6.81,0-12.35,5.54-12.35,12.35s5.54,12.35,12.35,12.35,12.35-5.54,12.35-12.35-5.54-12.35-12.35-12.35h0Z"/></g><text class="cls-2" transform="translate(554.72 267.49)"><tspan x="0" y="0">04</tspan></text></g><g id="_1-5"><g><path d="M464.99,391.36c-6.26,0-11.35-5.09-11.35-11.35s5.09-11.35,11.35-11.35,11.35,5.09,11.35,11.35-5.09,11.35-11.35,11.35Z"/><path d="M464.99,369.66c5.72,0,10.35,4.63,10.35,10.35s-4.63,10.35-10.35,10.35-10.35-4.63-10.35-10.35,4.63-10.35,10.35-10.35m0-2c-6.81,0-12.35,5.54-12.35,12.35s5.54,12.35,12.35,12.35,12.35-5.54,12.35-12.35-5.54-12.35-12.35-12.35h0Z"/></g><text class="cls-2" transform="translate(456.88 384.1)"><tspan x="0" y="0">05</tspan></text></g><g id="_1-6"><g><path d="M265.36,517.86c-6.26,0-11.35-5.09-11.35-11.35s5.09-11.35,11.35-11.35,11.35,5.09,11.35,11.35-5.09,11.35-11.35,11.35Z"/><path d="M265.36,496.16c5.72,0,10.35,4.63,10.35,10.35s-4.63,10.35-10.35,10.35-10.35-4.63-10.35-10.35,4.63-10.35,10.35-10.35m0-2c-6.81,0-12.35,5.54-12.35,12.35s5.54,12.35,12.35,12.35,12.35-5.54,12.35-12.35-5.54-12.35-12.35-12.35h0Z"/></g><text class="cls-2" transform="translate(257.25 510.6)"><tspan x="0" y="0">06</tspan></text></g><g id="_1-7"><g><path d="M464.99,663.13c-6.26,0-11.35-5.09-11.35-11.35s5.09-11.35,11.35-11.35,11.35,5.09,11.35,11.35-5.09,11.35-11.35,11.35Z"/><path d="M464.99,641.43c5.72,0,10.35,4.63,10.35,10.35s-4.63,10.35-10.35,10.35-10.35-4.63-10.35-10.35,4.63-10.35,10.35-10.35m0-2c-6.81,0-12.35,5.54-12.35,12.35s5.54,12.35,12.35,12.35,12.35-5.54,12.35-12.35-5.54-12.35-12.35-12.35h0Z"/></g><text class="cls-2" transform="translate(456.88 655.88)"><tspan x="0" y="0">07</tspan></text></g><g id="_1-8"><g><path d="M492.66,513.9c-6.26,0-11.35-5.09-11.35-11.35s5.09-11.35,11.35-11.35,11.35,5.09,11.35,11.35-5.09,11.35-11.35,11.35Z"/><path d="M492.66,492.21c5.72,0,10.35,4.63,10.35,10.35s-4.63,10.35-10.35,10.35-10.35-4.63-10.35-10.35,4.63-10.35,10.35-10.35m0-2c-6.81,0-12.35,5.54-12.35,12.35s5.54,12.35,12.35,12.35,12.35-5.54,12.35-12.35-5.54-12.35-12.35-12.35h0Z"/></g><text class="cls-2" transform="translate(484.55 506.65)"><tspan x="0" y="0">08</tspan></text></g><g id="_1-9"><g><path d="M864.24,339.97c-6.26,0-11.35-5.09-11.35-11.35s5.09-11.35,11.35-11.35,11.35,5.09,11.35,11.35-5.09,11.35-11.35,11.35Z"/><path d="M864.24,318.27c5.72,0,10.35,4.63,10.35,10.35s-4.63,10.35-10.35,10.35-10.35-4.63-10.35-10.35,4.63-10.35,10.35-10.35m0-2c-6.81,0-12.35,5.54-12.35,12.35s5.54,12.35,12.35,12.35,12.35-5.54,12.35-12.35-5.54-12.35-12.35-12.35h0Z"/></g><text class="cls-2" transform="translate(856.14 332.71)"><tspan x="0" y="0">09</tspan></text></g><g id="_1-10"><g><path d="M985.8,469.43c-6.26,0-11.35-5.09-11.35-11.35s5.09-11.35,11.35-11.35,11.35,5.09,11.35,11.35-5.09,11.35-11.35,11.35Z"/><path d="M985.8,447.73c5.72,0,10.35,4.63,10.35,10.35s-4.63,10.35-10.35,10.35-10.35-4.63-10.35-10.35,4.63-10.35,10.35-10.35m0-2c-6.81,0-12.35,5.54-12.35,12.35s5.54,12.35,12.35,12.35,12.35-5.54,12.35-12.35-5.54-12.35-12.35-12.35h0Z"/></g><text class="cls-2" transform="translate(977.7 462.18)"><tspan x="0" y="0">10</tspan></text></g><g id="Legend"><circle cx="82.04" cy="205.7" r="13"/><g><path d="M106.54,204.87v-2.36h8.94v2.36h-8.94Zm0,4.02v-2.38h8.94v2.38h-8.94Z"/><path d="M128.03,212.04h-3.47v-10.02h-3.14v-2.84h9.75v2.84h-3.13v10.02Z"/><path d="M143.94,199.18v7.74c0,1.08-.21,2.02-.62,2.81-.41,.79-1.03,1.41-1.85,1.84-.82,.43-1.85,.65-3.09,.65-1.77,0-3.12-.45-4.06-1.36-.93-.91-1.4-2.19-1.4-3.85v-7.82h3.49v7.55c0,.91,.17,1.57,.51,1.98,.34,.41,.84,.62,1.5,.62,.47,0,.86-.09,1.16-.27s.52-.46,.66-.85c.14-.39,.21-.89,.21-1.5v-7.53h3.47Z"/><path d="M150.85,199.18c1.17,0,2.14,.14,2.91,.43,.77,.28,1.36,.71,1.75,1.27,.39,.56,.58,1.26,.58,2.1,0,.52-.09,1-.26,1.43s-.43,.81-.75,1.15c-.33,.34-.71,.63-1.17,.88l3.75,5.6h-3.94l-2.73-4.68h-.88v4.68h-3.47v-12.86h4.21Zm-.05,2.63h-.69v2.94h.65c.53,0,.97-.12,1.31-.35,.34-.23,.51-.65,.51-1.26,0-.42-.14-.74-.42-.98s-.74-.35-1.36-.35Z"/><path d="M171.08,212.04h-4.56l-4.7-9.06h-.08c.03,.28,.06,.61,.08,.99s.04,.78,.06,1.18,.03,.76,.03,1.09v5.8h-3.08v-12.86h4.54l4.68,8.94h.05c-.02-.28-.04-.61-.05-.98-.02-.37-.03-.75-.05-1.13-.01-.38-.02-.72-.02-1.01v-5.81h3.1v12.86Z"/><path d="M190.78,212.04h-4.56l-4.7-9.06h-.08c.03,.28,.06,.61,.08,.99s.04,.78,.06,1.18,.03,.76,.03,1.09v5.8h-3.08v-12.86h4.54l4.68,8.94h.05c-.02-.28-.04-.61-.05-.98-.02-.37-.03-.75-.05-1.13-.01-.38-.02-.72-.02-1.01v-5.81h3.1v12.86Z"/><path d="M204.49,199.18v7.74c0,1.08-.21,2.02-.62,2.81-.41,.79-1.03,1.41-1.85,1.84-.82,.43-1.85,.65-3.09,.65-1.77,0-3.12-.45-4.06-1.36-.93-.91-1.4-2.19-1.4-3.85v-7.82h3.49v7.55c0,.91,.17,1.57,.51,1.98,.34,.41,.84,.62,1.5,.62,.47,0,.86-.09,1.16-.27s.52-.46,.66-.85c.14-.39,.21-.89,.21-1.5v-7.53h3.47Z"/><path d="M212.8,212.04l-2.63-9.26h-.08c.02,.24,.05,.57,.07,.98,.03,.41,.05,.85,.08,1.33s.04,.93,.04,1.37v5.59h-3.08v-12.86h4.63l2.68,9.13h.07l2.63-9.13h4.64v12.86h-3.19v-5.64c0-.4,0-.84,.02-1.31s.03-.91,.05-1.32c.02-.41,.04-.74,.06-.98h-.08l-2.59,9.25h-3.31Z"/><path d="M224.61,199.18h4.49c1.86,0,3.18,.28,3.98,.83,.79,.55,1.19,1.34,1.19,2.38,0,.56-.1,1.04-.3,1.43-.2,.39-.46,.7-.77,.93-.31,.23-.62,.38-.95,.47v.09c.35,.09,.7,.23,1.05,.44s.64,.5,.87,.91c.23,.4,.35,.95,.35,1.63,0,.78-.2,1.45-.59,2.01-.4,.56-.96,1-1.69,1.3-.73,.3-1.6,.45-2.61,.45h-5.01v-12.86Zm3.47,4.93h1.05c.58,0,.98-.12,1.21-.36,.23-.24,.35-.53,.35-.87s-.13-.62-.4-.8c-.27-.19-.68-.28-1.24-.28h-.98v2.3Zm0,2.54v2.7h1.22c.6,0,1.03-.13,1.27-.39,.24-.26,.36-.59,.36-.98,0-.23-.05-.44-.15-.65-.1-.2-.28-.37-.52-.49s-.59-.19-1.02-.19h-1.15Z"/><path d="M244.39,212.04h-7.64v-12.86h7.64v2.79h-4.16v2.02h3.85v2.79h-3.85v2.43h4.16v2.83Z"/><path d="M250.85,199.18c1.17,0,2.14,.14,2.91,.43,.77,.28,1.36,.71,1.75,1.27,.39,.56,.58,1.26,.58,2.1,0,.52-.09,1-.26,1.43s-.43,.81-.75,1.15c-.33,.34-.71,.63-1.17,.88l3.75,5.6h-3.94l-2.73-4.68h-.88v4.68h-3.47v-12.86h4.21Zm-.05,2.63h-.69v2.94h.65c.53,0,.97-.12,1.31-.35,.34-.23,.51-.65,.51-1.26,0-.42-.14-.74-.42-.98s-.74-.35-1.36-.35Z"/><path d="M267.24,208.13c0,.7-.18,1.36-.53,1.98s-.9,1.13-1.64,1.52c-.74,.39-1.7,.58-2.87,.58-.59,0-1.1-.03-1.54-.08-.44-.05-.85-.14-1.24-.26-.38-.12-.78-.28-1.19-.47v-3.1c.7,.35,1.4,.62,2.11,.8,.71,.18,1.35,.28,1.93,.28,.35,0,.63-.04,.85-.12,.22-.08,.38-.19,.49-.34,.11-.14,.16-.31,.16-.5,0-.22-.08-.41-.23-.57s-.4-.32-.74-.49c-.34-.17-.79-.38-1.35-.63-.47-.22-.9-.45-1.29-.69-.38-.23-.71-.5-.99-.81-.27-.3-.48-.66-.63-1.06-.15-.4-.22-.88-.22-1.43,0-.83,.2-1.52,.61-2.08,.41-.56,.98-.98,1.71-1.26,.73-.28,1.57-.42,2.53-.42,.84,0,1.59,.09,2.26,.28,.67,.19,1.27,.4,1.81,.64l-1.06,2.68c-.55-.25-1.09-.45-1.63-.6-.53-.15-1.03-.22-1.49-.22-.3,0-.54,.04-.73,.11-.19,.07-.33,.17-.42,.29s-.14,.26-.14,.42c0,.2,.08,.38,.23,.54,.16,.16,.42,.33,.78,.51,.37,.19,.87,.42,1.5,.72,.63,.28,1.16,.58,1.6,.91,.44,.33,.78,.72,1.01,1.17,.23,.45,.35,1.02,.35,1.68Z"/></g><g><circle class="cls-5" cx="82.04" cy="125.7" r="13"/><path d="M82.04,139.7c-7.72,0-14-6.28-14-14s6.28-14,14-14,14,6.28,14,14-6.28,14-14,14Zm0-26c-6.62,0-12,5.38-12,12s5.38,12,12,12,12-5.38,12-12-5.38-12-12-12Z"/></g><g><path d="M106.54,124.87v-2.36h8.94v2.36h-8.94Zm0,4.02v-2.38h8.94v2.38h-8.94Z"/><path d="M133.28,125.33c0,1.5-.28,2.74-.84,3.73-.56,.99-1.34,1.73-2.35,2.23-1.01,.5-2.2,.74-3.57,.74h-4.16v-12.86h4.45c1.38,0,2.56,.24,3.52,.71s1.69,1.17,2.2,2.08c.5,.92,.75,2.04,.75,3.36Zm-3.61,.12c0-.78-.1-1.43-.31-1.94s-.52-.9-.94-1.15c-.42-.25-.94-.38-1.57-.38h-1.01v7.2h.77c1.06,0,1.83-.31,2.32-.92,.49-.61,.74-1.55,.74-2.81Z"/><path d="M139.8,119.18c1.17,0,2.14,.14,2.91,.43,.77,.28,1.36,.71,1.75,1.27,.39,.56,.58,1.26,.58,2.1,0,.52-.09,1-.26,1.43s-.43,.81-.75,1.15c-.33,.34-.71,.63-1.17,.88l3.75,5.6h-3.94l-2.73-4.68h-.88v4.68h-3.47v-12.86h4.21Zm-.05,2.63h-.69v2.94h.65c.53,0,.97-.12,1.31-.35,.34-.23,.51-.65,.51-1.26,0-.42-.14-.74-.42-.98s-.74-.35-1.36-.35Z"/><path d="M156.18,128.13c0,.7-.18,1.36-.53,1.98s-.9,1.13-1.64,1.52c-.74,.39-1.7,.58-2.87,.58-.59,0-1.1-.03-1.54-.08-.44-.05-.85-.14-1.24-.26-.38-.12-.78-.28-1.19-.47v-3.1c.7,.35,1.4,.62,2.11,.8,.71,.18,1.35,.28,1.93,.28,.35,0,.63-.04,.85-.12,.22-.08,.38-.19,.49-.34,.11-.14,.16-.31,.16-.5,0-.22-.08-.41-.23-.57s-.4-.32-.74-.49c-.34-.17-.79-.38-1.35-.63-.47-.22-.9-.45-1.29-.69-.38-.23-.71-.5-.99-.81-.27-.3-.48-.66-.63-1.06-.15-.4-.22-.88-.22-1.43,0-.83,.2-1.52,.61-2.08,.41-.56,.98-.98,1.71-1.26,.73-.28,1.57-.42,2.53-.42,.84,0,1.59,.09,2.26,.28,.67,.19,1.27,.4,1.81,.64l-1.06,2.68c-.55-.25-1.09-.45-1.63-.6-.53-.15-1.03-.22-1.49-.22-.3,0-.54,.04-.73,.11-.19,.07-.33,.17-.42,.29s-.14,.26-.14,.42c0,.2,.08,.38,.23,.54,.16,.16,.42,.33,.78,.51,.37,.19,.87,.42,1.5,.72,.63,.28,1.16,.58,1.6,.91,.44,.33,.78,.72,1.01,1.17,.23,.45,.35,1.02,.35,1.68Z"/><path d="M173.77,125.33c0,1.5-.28,2.74-.84,3.73-.56,.99-1.34,1.73-2.35,2.23-1.01,.5-2.2,.74-3.57,.74h-4.16v-12.86h4.45c1.38,0,2.56,.24,3.52,.71s1.69,1.17,2.2,2.08c.5,.92,.75,2.04,.75,3.36Zm-3.61,.12c0-.78-.1-1.43-.31-1.94s-.52-.9-.94-1.15c-.42-.25-.94-.38-1.57-.38h-1.01v7.2h.77c1.06,0,1.83-.31,2.32-.92,.49-.61,.74-1.55,.74-2.81Z"/><path d="M183.71,132.04h-7.64v-12.86h7.64v2.79h-4.16v2.02h3.85v2.79h-3.85v2.43h4.16v2.83Z"/><path d="M191.63,132.04h-3.47v-10.02h-3.14v-2.84h9.75v2.84h-3.13v10.02Z"/><path d="M204.24,132.04h-7.64v-12.86h7.64v2.79h-4.16v2.02h3.85v2.79h-3.85v2.43h4.16v2.83Z"/><path d="M212.22,121.84c-.41,0-.78,.09-1.1,.26s-.6,.42-.83,.75c-.23,.33-.4,.73-.52,1.2-.12,.47-.18,1.01-.18,1.61,0,.81,.1,1.49,.31,2.04,.21,.55,.52,.97,.94,1.25,.42,.28,.95,.42,1.58,.42,.58,0,1.13-.08,1.66-.24,.53-.16,1.07-.35,1.61-.57v2.94c-.57,.25-1.15,.43-1.75,.55-.59,.11-1.23,.17-1.9,.17-1.4,0-2.54-.28-3.43-.83-.89-.55-1.54-1.32-1.96-2.31-.42-.99-.63-2.13-.63-3.43,0-.97,.14-1.86,.41-2.67,.27-.81,.67-1.51,1.2-2.11,.53-.6,1.18-1.06,1.96-1.38,.78-.33,1.67-.49,2.67-.49,.62,0,1.28,.07,1.97,.22,.69,.14,1.36,.37,2.02,.69l-1.06,2.74c-.47-.22-.94-.41-1.42-.56-.48-.15-.99-.23-1.53-.23Z"/><path d="M223.86,132.04h-3.47v-10.02h-3.14v-2.84h9.75v2.84h-3.13v10.02Z"/><path d="M228.83,132.04v-12.86h3.49v12.86h-3.49Z"/><path d="M247.13,125.59c0,.99-.12,1.89-.36,2.7-.24,.81-.61,1.51-1.11,2.1-.5,.59-1.15,1.04-1.94,1.35-.79,.31-1.74,.47-2.84,.47s-2.01-.16-2.8-.47c-.79-.31-1.44-.76-1.95-1.35-.51-.58-.89-1.28-1.13-2.1-.25-.81-.37-1.72-.37-2.73,0-1.34,.22-2.5,.66-3.49,.44-.99,1.13-1.75,2.05-2.3s2.11-.81,3.55-.81,2.66,.27,3.58,.82,1.59,1.31,2.02,2.3c.43,.99,.64,2.15,.64,3.49Zm-8.85,0c0,.77,.09,1.44,.26,2s.46,.99,.84,1.28c.38,.3,.88,.45,1.5,.45s1.15-.15,1.53-.45c.38-.3,.65-.73,.82-1.28s.25-1.22,.25-2c0-1.16-.19-2.08-.58-2.75s-1.05-1.01-2-1.01c-.63,0-1.13,.15-1.52,.46-.38,.31-.66,.74-.83,1.3s-.26,1.23-.26,2.01Z"/><path d="M261.7,132.04h-4.56l-4.7-9.06h-.08c.03,.28,.06,.61,.08,.99s.04,.78,.06,1.18,.03,.76,.03,1.09v5.8h-3.08v-12.86h4.54l4.68,8.94h.05c-.02-.28-.04-.61-.05-.98-.02-.37-.03-.75-.05-1.13-.01-.38-.02-.72-.02-1.01v-5.81h3.1v12.86Z"/><path d="M278.32,132.04h-10.02v-2.15l5.57-7.91h-5.44v-2.81h9.75v2.14l-5.57,7.92h5.71v2.81Z"/><path d="M292.2,125.59c0,.99-.12,1.89-.36,2.7-.24,.81-.61,1.51-1.11,2.1-.5,.59-1.15,1.04-1.94,1.35-.79,.31-1.74,.47-2.84,.47s-2.01-.16-2.8-.47c-.79-.31-1.44-.76-1.95-1.35-.51-.58-.89-1.28-1.13-2.1-.25-.81-.37-1.72-.37-2.73,0-1.34,.22-2.5,.66-3.49,.44-.99,1.13-1.75,2.05-2.3s2.11-.81,3.55-.81,2.66,.27,3.58,.82,1.59,1.31,2.02,2.3c.43,.99,.64,2.15,.64,3.49Zm-8.85,0c0,.77,.09,1.44,.26,2s.46,.99,.84,1.28c.38,.3,.88,.45,1.5,.45s1.15-.15,1.53-.45c.38-.3,.65-.73,.82-1.28s.25-1.22,.25-2c0-1.16-.19-2.08-.58-2.75s-1.05-1.01-2-1.01c-.63,0-1.13,.15-1.52,.46-.38,.31-.66,.74-.83,1.3s-.26,1.23-.26,2.01Z"/><path d="M306.76,132.04h-4.56l-4.7-9.06h-.08c.03,.28,.06,.61,.08,.99s.04,.78,.06,1.18,.03,.76,.03,1.09v5.8h-3.08v-12.86h4.54l4.68,8.94h.05c-.02-.28-.04-.61-.05-.98-.02-.37-.03-.75-.05-1.13-.01-.38-.02-.72-.02-1.01v-5.81h3.1v12.86Z"/><path d="M317.18,132.04h-7.64v-12.86h7.64v2.79h-4.16v2.02h3.85v2.79h-3.85v2.43h4.16v2.83Z"/></g><g><path d="M106.54,163.87v-2.36h8.94v2.36h-8.94Zm0,4.02v-2.38h8.94v2.38h-8.94Z"/><path d="M133.28,164.33c0,1.5-.28,2.74-.84,3.73-.56,.99-1.34,1.73-2.35,2.23-1.01,.5-2.2,.74-3.57,.74h-4.16v-12.86h4.45c1.38,0,2.56,.24,3.52,.71s1.69,1.17,2.2,2.08c.5,.92,.75,2.04,.75,3.36Zm-3.61,.12c0-.78-.1-1.43-.31-1.94s-.52-.9-.94-1.15c-.42-.25-.94-.38-1.57-.38h-1.01v7.2h.77c1.06,0,1.83-.31,2.32-.92,.49-.61,.74-1.55,.74-2.81Z"/><path d="M139.8,158.18c1.17,0,2.14,.14,2.91,.43,.77,.28,1.36,.71,1.75,1.27,.39,.56,.58,1.26,.58,2.1,0,.52-.09,1-.26,1.43s-.43,.81-.75,1.15c-.33,.34-.71,.63-1.17,.88l3.75,5.6h-3.94l-2.73-4.68h-.88v4.68h-3.47v-12.86h4.21Zm-.05,2.63h-.69v2.94h.65c.53,0,.97-.12,1.31-.35,.34-.23,.51-.65,.51-1.26,0-.42-.14-.74-.42-.98s-.74-.35-1.36-.35Z"/><path d="M156.18,167.13c0,.7-.18,1.36-.53,1.98s-.9,1.13-1.64,1.52c-.74,.39-1.7,.58-2.87,.58-.59,0-1.1-.03-1.54-.08-.44-.05-.85-.14-1.24-.26-.38-.12-.78-.28-1.19-.47v-3.1c.7,.35,1.4,.62,2.11,.8,.71,.18,1.35,.28,1.93,.28,.35,0,.63-.04,.85-.12,.22-.08,.38-.19,.49-.34,.11-.14,.16-.31,.16-.5,0-.22-.08-.41-.23-.57s-.4-.32-.74-.49c-.34-.17-.79-.38-1.35-.63-.47-.22-.9-.45-1.29-.69-.38-.23-.71-.5-.99-.81-.27-.3-.48-.66-.63-1.06-.15-.4-.22-.88-.22-1.43,0-.83,.2-1.52,.61-2.08,.41-.56,.98-.98,1.71-1.26,.73-.28,1.57-.42,2.53-.42,.84,0,1.59,.09,2.26,.28,.67,.19,1.27,.4,1.81,.64l-1.06,2.68c-.55-.25-1.09-.45-1.63-.6-.53-.15-1.03-.22-1.49-.22-.3,0-.54,.04-.73,.11-.19,.07-.33,.17-.42,.29s-.14,.26-.14,.42c0,.2,.08,.38,.23,.54,.16,.16,.42,.33,.78,.51,.37,.19,.87,.42,1.5,.72,.63,.28,1.16,.58,1.6,.91,.44,.33,.78,.72,1.01,1.17,.23,.45,.35,1.02,.35,1.68Z"/><path d="M172.02,171.04h-10.02v-2.15l5.57-7.91h-5.44v-2.81h9.75v2.14l-5.57,7.92h5.71v2.81Z"/><path d="M185.89,164.59c0,.99-.12,1.89-.36,2.7-.24,.81-.61,1.51-1.11,2.1-.5,.59-1.15,1.04-1.94,1.35-.79,.31-1.74,.47-2.84,.47s-2.01-.16-2.8-.47c-.79-.31-1.44-.76-1.95-1.35-.51-.58-.89-1.28-1.13-2.1-.25-.81-.37-1.72-.37-2.73,0-1.34,.22-2.5,.66-3.49,.44-.99,1.13-1.75,2.05-2.3s2.11-.81,3.55-.81,2.66,.27,3.58,.82,1.59,1.31,2.02,2.3c.43,.99,.64,2.15,.64,3.49Zm-8.85,0c0,.77,.09,1.44,.26,2s.46,.99,.84,1.28c.38,.3,.88,.45,1.5,.45s1.15-.15,1.53-.45c.38-.3,.65-.73,.82-1.28s.25-1.22,.25-2c0-1.16-.19-2.08-.58-2.75s-1.05-1.01-2-1.01c-.63,0-1.13,.15-1.52,.46-.38,.31-.66,.74-.83,1.3s-.26,1.23-.26,2.01Z"/><path d="M200.46,171.04h-4.56l-4.7-9.06h-.08c.03,.28,.06,.61,.08,.99s.04,.78,.06,1.18,.03,.76,.03,1.09v5.8h-3.08v-12.86h4.54l4.68,8.94h.05c-.02-.28-.04-.61-.05-.98-.02-.37-.03-.75-.05-1.13-.01-.38-.02-.72-.02-1.01v-5.81h3.1v12.86Z"/><path d="M210.87,171.04h-7.64v-12.86h7.64v2.79h-4.16v2.02h3.85v2.79h-3.85v2.43h4.16v2.83Z"/><path d="M221.53,167.13c0,.7-.18,1.36-.53,1.98s-.9,1.13-1.64,1.52c-.74,.39-1.7,.58-2.87,.58-.59,0-1.1-.03-1.54-.08-.44-.05-.85-.14-1.24-.26-.38-.12-.78-.28-1.19-.47v-3.1c.7,.35,1.4,.62,2.11,.8,.71,.18,1.35,.28,1.93,.28,.35,0,.63-.04,.85-.12,.22-.08,.38-.19,.49-.34,.11-.14,.16-.31,.16-.5,0-.22-.08-.41-.23-.57s-.4-.32-.74-.49c-.34-.17-.79-.38-1.35-.63-.47-.22-.9-.45-1.29-.69-.38-.23-.71-.5-.99-.81-.27-.3-.48-.66-.63-1.06-.15-.4-.22-.88-.22-1.43,0-.83,.2-1.52,.61-2.08,.41-.56,.98-.98,1.71-1.26,.73-.28,1.57-.42,2.53-.42,.84,0,1.59,.09,2.26,.28,.67,.19,1.27,.4,1.81,.64l-1.06,2.68c-.55-.25-1.09-.45-1.63-.6-.53-.15-1.03-.22-1.49-.22-.3,0-.54,.04-.73,.11-.19,.07-.33,.17-.42,.29s-.14,.26-.14,.42c0,.2,.08,.38,.23,.54,.16,.16,.42,.33,.78,.51,.37,.19,.87,.42,1.5,.72,.63,.28,1.16,.58,1.6,.91,.44,.33,.78,.72,1.01,1.17,.23,.45,.35,1.02,.35,1.68Z"/></g><path class="cls-5" d="M95.04,176.7h-2.5v-23h2.5v23Zm-5.5,0h-3v-23h3v23Zm-6,0h-3v-23h3v23Zm-6,0h-3v-23h3v23Zm-6,0h-3v-23h3v23Z"/><g><path class="cls-1" d="M81.52,204.47c0,.84-.07,1.59-.2,2.26s-.35,1.23-.64,1.69-.68,.82-1.17,1.06c-.48,.24-1.08,.37-1.78,.37-.88,0-1.59-.21-2.15-.64-.56-.43-.97-1.04-1.24-1.84-.26-.8-.4-1.76-.4-2.89s.12-2.1,.36-2.91c.24-.81,.64-1.42,1.19-1.85,.55-.43,1.3-.65,2.23-.65,.88,0,1.59,.21,2.15,.64,.56,.43,.97,1.04,1.24,1.85,.27,.81,.4,1.78,.4,2.92Zm-4.75,0c0,.68,.02,1.26,.08,1.72,.05,.46,.15,.81,.29,1.04,.14,.23,.34,.35,.61,.35s.46-.12,.6-.35,.23-.58,.29-1.04,.08-1.04,.08-1.72-.03-1.27-.08-1.74-.15-.81-.29-1.05-.34-.35-.6-.35-.46,.12-.61,.35c-.14,.24-.24,.59-.29,1.05-.05,.46-.08,1.04-.08,1.74Z"/><path class="cls-1" d="M88.79,209.7h-2.88v-5.71c0-.26,0-.54,.01-.85,0-.31,.02-.59,.03-.84-.12,.15-.24,.27-.35,.38-.11,.11-.21,.2-.31,.29l-1.19,.98-1.47-1.81,3.6-2.93h2.55v10.48Z"/></g></g><path class="cls-5" d="M34.59,413.25l-4.87-7.57s.91-.59,2.64-1.65l4.71,7.67c-1.6,.98-2.45,1.53-2.48,1.55Zm5.01-3.08l-4.63-7.72c.79-.47,1.66-.99,2.62-1.55l4.56,7.76c-.93,.55-1.78,1.06-2.55,1.52Zm5.12-3.01l-4.51-7.79c.83-.48,1.71-.99,2.64-1.51l4.45,7.82c-.9,.51-1.76,1.01-2.58,1.48Zm5.17-2.94l-4.4-7.85c.85-.48,1.74-.97,2.65-1.47l4.35,7.88c-.9,.49-1.76,.98-2.6,1.44Zm5.21-2.87l-4.3-7.91c.87-.47,1.76-.95,2.67-1.44l4.25,7.94c-.89,.48-1.77,.95-2.62,1.41Zm5.25-2.81l-4.2-7.96c.88-.46,1.77-.93,2.68-1.41l4.16,7.98c-.9,.47-1.77,.93-2.63,1.38Zm5.28-2.75l-4.11-8.01c.89-.45,1.79-.91,2.7-1.37l4.06,8.03c-.9,.45-1.78,.9-2.65,1.35Zm5.31-2.68l-4.01-8.06c.89-.44,1.8-.89,2.71-1.34l3.97,8.08c-.9,.44-1.79,.88-2.67,1.32Zm5.34-2.62l-3.91-8.1c.9-.43,1.81-.87,2.73-1.31l3.87,8.13c-.91,.43-1.8,.86-2.68,1.29Zm5.38-2.56l-3.82-8.15c.91-.42,1.82-.85,2.75-1.28l3.77,8.17c-.91,.42-1.81,.84-2.7,1.25Zm5.4-2.49l-3.72-8.19c.91-.41,1.83-.83,2.76-1.25l3.67,8.22c-.91,.41-1.81,.81-2.71,1.22Zm5.43-2.43l-3.62-8.24c.92-.4,1.84-.81,2.78-1.21l3.57,8.26c-.92,.4-1.82,.79-2.73,1.19Zm5.46-2.36l-3.52-8.28c.92-.39,1.85-.78,2.79-1.18l3.46,8.31c-.92,.38-1.83,.77-2.74,1.15Zm5.49-2.29l-3.41-8.33c.93-.38,1.87-.76,2.81-1.14l3.36,8.35c-.92,.37-1.84,.74-2.75,1.12Zm5.51-2.22l-3.3-8.37c.94-.37,1.88-.74,2.82-1.1l3.25,8.39c-.93,.36-1.85,.72-2.77,1.08Zm5.54-2.14l-3.19-8.42c.94-.36,1.89-.71,2.84-1.06l3.13,8.44c-.93,.35-1.86,.69-2.78,1.04Zm5.57-2.06l-3.07-8.46c.95-.34,1.9-.68,2.85-1.02l3.01,8.48c-.94,.33-1.87,.67-2.8,1Zm5.6-1.98l-2.95-8.5c.95-.33,1.91-.66,2.87-.98l2.88,8.53c-.94,.32-1.88,.64-2.81,.96Zm5.62-1.9l-2.82-8.55c.96-.32,1.92-.63,2.89-.94l2.75,8.57c-.94,.3-1.88,.61-2.82,.92Zm5.65-1.81l-2.68-8.59c.96-.3,1.93-.6,2.9-.89l2.61,8.61c-.95,.29-1.89,.58-2.83,.87Zm5.67-1.72l-2.54-8.63c.97-.29,1.94-.57,2.92-.85l2.47,8.66c-.95,.27-1.9,.55-2.85,.82Zm5.7-1.62l-2.39-8.68c.97-.27,1.95-.53,2.92-.79l2.32,8.7c-.95,.25-1.9,.51-2.85,.77Zm5.71-1.52l-2.24-8.72c.98-.25,1.96-.5,2.95-.74l2.16,8.74c-.96,.24-1.92,.48-2.87,.72Zm5.74-1.42l-2.06-8.76,2.92-.69,2.06,8.76-2.92,.69Zm5.83-1.37l-2.06-8.76,2.92-.69,2.05,8.76-2.92,.68Zm5.84-1.37l-2.05-8.76,2.92-.68,2.05,8.76-2.92,.68Zm5.84-1.37l-2.05-8.76,2.92-.68,2.04,8.77-2.92,.68Zm5.84-1.36l-2.04-8.77,2.92-.68,2.04,8.77-2.92,.68Zm5.84-1.36l-2.03-8.77,2.92-.68,2.03,8.77-2.92,.68Zm5.84-1.35l-2.02-8.77,2.92-.67,2.02,8.77-2.92,.67Zm5.84-1.34l-2.02-8.77,2.93-.67,2.01,8.77-2.92,.67Zm5.84-1.34l-2-8.77,2.93-.67,1.99,8.78-2.92,.66Zm5.84-1.33l-1.99-8.78,2.92-.66,1.98,8.78-2.92,.66Zm5.84-1.32l-1.98-8.78,2.93-.66,1.96,8.78-2.92,.65Zm5.84-1.31l-1.96-8.78,2.93-.65,1.95,8.79-2.92,.65Zm5.84-1.3l-1.94-8.79,2.94-.65,1.93,8.79-2.93,.65Zm5.86-1.29l-1.92-8.79,2.93-.64,1.92,8.79-2.93,.64Zm5.85-1.27l-1.91-8.8,2.93-.63,1.89,8.8-2.92,.63Zm5.84-1.26l-1.89-8.8,2.94-.63,1.88,8.8-2.93,.63Zm5.85-1.25l-1.87-8.8,2.94-.62,1.86,8.8-2.93,.62Zm5.86-1.24l-1.85-8.81,2.94-.62,1.84,8.81-2.93,.61Zm5.86-1.23l-1.84-8.81,2.94-.61,1.83,8.81-2.93,.61Zm5.86-1.22l-1.82-8.81,2.94-.61,1.81,8.82-2.93,.6Zm5.87-1.21l-1.8-8.82,2.94-.6,1.8,8.82-2.93,.6Zm5.87-1.2l-1.79-8.82,2.94-.6,1.78,8.82-2.93,.6Zm5.87-1.19l-1.78-8.82,2.94-.59,1.77,8.82-2.94,.59Zm5.87-1.18l-1.77-8.83,2.94-.59,1.76,8.83-2.94,.59Zm5.88-1.17l-1.76-8.83,2.95-.58,1.75,8.83-2.94,.58Zm5.88-1.17l-1.75-8.83,2.94-.58,1.74,8.83-2.94,.58Zm5.88-1.16l-1.74-8.83,2.94-.58,1.74,8.83-2.94,.58Zm5.88-1.16l-1.73-8.83,2.94-.58,1.73,8.83-2.94,.58Zm5.88-1.15l-1.73-8.83,2.95-.58,1.72,8.83-2.94,.57Zm5.88-1.15l-1.72-8.83,2.94-.57,1.72,8.83-2.95,.57Zm5.94-1.18l-1.82-8.81c.96-.2,1.92-.4,2.9-.61l1.9,8.8c-1,.22-1.99,.43-2.98,.63Zm5.95-1.28l-1.97-8.78c.96-.21,1.92-.44,2.89-.66l2.04,8.77c-.99,.23-1.98,.46-2.96,.68Zm5.92-1.38l-2.11-8.75c.96-.23,1.92-.47,2.88-.71l2.17,8.74c-.99,.24-1.97,.48-2.95,.72Zm5.89-1.46l-2.22-8.72c.96-.24,1.92-.49,2.88-.74l2.28,8.71c-.98,.26-1.96,.51-2.93,.76Zm5.86-1.53l-2.33-8.69c.95-.26,1.91-.52,2.87-.78l2.38,8.68c-.98,.27-1.95,.53-2.92,.79Zm5.84-1.6l-2.42-8.67c.95-.27,1.91-.54,2.86-.81l2.47,8.65c-.97,.28-1.95,.55-2.92,.82Zm5.82-1.66l-2.51-8.64c.95-.28,1.91-.56,2.86-.84l2.55,8.63c-.97,.29-1.94,.57-2.9,.85Zm5.8-1.71l-2.59-8.62c.95-.29,1.9-.57,2.86-.87l2.62,8.61c-.96,.29-1.93,.59-2.89,.88Zm5.78-1.76l-2.66-8.6c.95-.29,1.89-.59,2.84-.89l2.7,8.59c-.96,.3-1.92,.6-2.87,.9Zm5.74-1.8l-2.73-8.58c.95-.3,1.89-.6,2.84-.91l2.76,8.57c-.96,.31-1.92,.62-2.88,.92Zm5.74-1.85l-2.79-8.56,2.84-.93,2.82,8.55-2.87,.94Zm5.74-1.89l-2.85-8.54,2.84-.95,2.88,8.53-2.87,.96Zm5.72-1.93l-2.9-8.52c.94-.32,1.88-.64,2.83-.97l2.93,8.51c-.95,.33-1.9,.65-2.86,.98Zm5.7-1.96l-2.95-8.5,2.82-.98,2.98,8.49-2.85,.99Zm5.69-2l-3-8.48,2.82-1,3.02,8.48-2.84,1.01Zm5.68-2.03l-3.05-8.47,2.81-1.02,3.07,8.46-2.84,1.02Zm5.67-2.05l-3.09-8.45,2.81-1.03,3.11,8.45-2.83,1.04Zm5.65-2.08l-3.13-8.44,2.8-1.04,3.15,8.43-2.82,1.05Zm5.64-2.11l-3.17-8.42,2.8-1.06,3.19,8.42-2.82,1.06Zm5.63-2.13l-3.21-8.41,2.79-1.07,3.23,8.4-2.81,1.08Zm5.62-2.16l-3.24-8.4,2.79-1.08,3.27,8.39-2.81,1.09Zm5.62-2.18l-3.28-8.38,2.79-1.09,3.3,8.37-2.8,1.1Zm5.6-2.21l-3.31-8.37,2.78-1.1,3.34,8.36-2.8,1.11Zm5.6-2.23l-3.35-8.35,2.78-1.12,3.36,8.35-2.79,1.12Zm5.58-2.25l-3.38-8.34,2.77-1.13,3.4,8.33-2.79,1.13Zm5.58-2.27l-3.41-8.33,2.77-1.14,3.43,8.32-2.79,1.14Zm5.57-2.3l-3.45-8.31,2.77-1.15,3.46,8.31-2.78,1.16Zm5.56-2.32l-3.48-8.3,2.76-1.16,3.5,8.29-2.78,1.17Zm5.55-2.34l-3.51-8.29,2.76-1.17,3.53,8.28-2.77,1.18Zm5.55-2.37l-3.55-8.27,2.75-1.18,3.57,8.26-2.77,1.19Zm5.54-2.39l-3.59-8.25,2.75-1.2,3.61,8.24-2.77,1.21Zm5.55-2.43l-3.64-8.23c1.36-.6,2.09-.93,2.09-.93l3.69,8.21s-.74,.33-2.14,.95Z"/><path class="cls-5" d="M503.74,806.04l-2.46-1.68,5.02-7.39,2.47,1.68-5.04,7.38Zm-4.93-3.35l-2.46-1.66,4.99-7.41,2.48,1.68-5.01,7.4Zm-4.93-3.33l-2.47-1.66,4.97-7.43,2.48,1.67-4.98,7.42Zm-4.95-3.31l-2.48-1.65,4.95-7.44,2.49,1.66-4.96,7.43Zm-4.96-3.3l-2.48-1.64,4.93-7.45,2.49,1.65-4.94,7.45Zm-4.96-3.29l-2.48-1.64,4.92-7.46,2.49,1.64-4.93,7.46Zm-4.96-3.27l-2.49-1.63,4.9-7.48,2.49,1.63-4.9,7.48Zm-4.99-3.26l-2.49-1.62,4.87-7.49,2.5,1.63-4.89,7.48Zm-4.98-3.25l-2.5-1.62,4.85-7.51,2.51,1.62-4.86,7.5Zm-5-3.23l-2.5-1.61,4.84-7.52,2.51,1.62-4.85,7.51Zm-5-3.22l-2.51-1.61,4.82-7.53,2.51,1.61-4.82,7.52Zm-5.01-3.21l-2.51-1.6,4.8-7.54,2.52,1.61-4.81,7.53Zm-5.02-3.19l-2.51-1.59,4.78-7.55,2.52,1.6-4.79,7.55Zm-5.03-3.18l-2.52-1.58,4.76-7.57,2.53,1.59-4.77,7.56Zm-5.04-3.16l-2.52-1.58,4.73-7.58,2.53,1.58-4.74,7.58Zm-5.05-3.15l-2.52-1.57,4.71-7.6,2.54,1.58-4.72,7.59Zm-5.05-3.13l-2.53-1.56,4.68-7.61,2.55,1.57-4.7,7.6Zm-5.06-3.12l-2.54-1.55,4.66-7.63,2.55,1.56-4.67,7.62Zm-5.07-3.1l-2.54-1.54,4.63-7.64,2.56,1.55-4.65,7.63Zm-5.08-3.08l-2.54-1.53,4.6-7.66,2.56,1.54-4.62,7.65Zm-5.09-3.06l-2.55-1.52,4.58-7.68,2.57,1.53-4.59,7.67Zm-5.11-3.05l-2.56-1.52,4.55-7.69,2.58,1.53-4.56,7.69Zm-5.13-3.03l-2.57-1.51,4.52-7.71,2.58,1.51-4.53,7.7Zm-5.14-3.01c-.87-.51-1.73-1.02-2.59-1.53l4.58-7.68c.84,.5,1.69,1,2.54,1.5l-4.52,7.71Zm-5.17-3.08c-.86-.52-1.71-1.04-2.57-1.57l4.68-7.61c.84,.52,1.68,1.03,2.52,1.54l-4.63,7.65Zm-5.13-3.15c-.85-.53-1.7-1.06-2.55-1.6l4.78-7.55c.83,.53,1.66,1.05,2.5,1.57l-4.73,7.58Zm-5.08-3.21c-.84-.54-1.68-1.08-2.52-1.63l4.86-7.5c.82,.53,1.65,1.07,2.48,1.6l-4.83,7.52Zm-5.03-3.26c-.84-.55-1.67-1.1-2.5-1.65l4.95-7.44c.82,.54,1.63,1.08,2.46,1.62l-4.91,7.47Zm-5-3.33c-.83-.56-1.66-1.12-2.49-1.69l5.03-7.39c.81,.55,1.63,1.11,2.45,1.66l-4.99,7.41Zm-4.96-3.38c-.83-.57-1.65-1.14-2.47-1.71l5.11-7.34c.81,.56,1.62,1.12,2.43,1.68l-5.07,7.36Zm-4.93-3.43c-.82-.58-1.64-1.16-2.45-1.74l5.18-7.28c.8,.57,1.6,1.14,2.41,1.71l-5.14,7.31Zm-4.89-3.48c-.82-.59-1.63-1.17-2.44-1.76l5.25-7.23c.79,.58,1.59,1.15,2.4,1.73l-5.21,7.26Zm-4.86-3.53c-.81-.59-1.62-1.19-2.42-1.78l5.31-7.19c.79,.58,1.58,1.17,2.38,1.75l-5.28,7.21Zm-4.82-3.57c-.81-.6-1.61-1.2-2.4-1.8l5.38-7.14c.78,.59,1.57,1.18,2.37,1.78l-5.34,7.16Zm-4.79-3.61c-.8-.61-1.6-1.22-2.39-1.82l5.44-7.09c.78,.6,1.56,1.19,2.35,1.79l-5.4,7.12Zm-4.76-3.65c-.8-.62-1.59-1.23-2.37-1.84l5.5-7.05c.77,.6,1.55,1.21,2.34,1.81l-5.46,7.07Zm-4.73-3.69c-.79-.62-1.57-1.24-2.35-1.86l5.55-7c.77,.61,1.54,1.22,2.33,1.84l-5.53,7.02Zm-4.7-3.73c-.79-.63-1.57-1.25-2.34-1.88l5.61-6.96c.76,.61,1.53,1.23,2.31,1.86l-5.58,6.98Zm-4.67-3.76c-.78-.64-1.56-1.27-2.33-1.9l5.67-6.91c.76,.62,1.52,1.24,2.29,1.87l-5.63,6.94Zm-4.64-3.8c-.78-.64-1.55-1.28-2.31-1.91l5.72-6.87c.75,.62,1.51,1.25,2.28,1.89l-5.69,6.89Zm-4.61-3.84c-.78-.65-1.54-1.3-2.29-1.93l5.77-6.83c.74,.63,1.5,1.26,2.27,1.91l-5.74,6.85Zm-4.58-3.87l-2.28-1.95,5.82-6.78,2.26,1.93-5.8,6.8Zm-4.55-3.91l-2.26-1.97,5.88-6.74,2.24,1.95-5.85,6.76Zm-4.52-3.95l-2.25-1.99,5.93-6.69,2.22,1.97-5.91,6.71Zm-4.49-3.98c-.78-.7-1.53-1.37-2.24-2.01l5.99-6.63c.7,.63,1.43,1.29,2.2,1.98l-5.96,6.66Zm-4.46-4.03c-.81-.74-1.55-1.42-2.22-2.04l6.06-6.57c.66,.61,1.39,1.28,2.18,2l-6.02,6.6Zm-4.43-4.09c-1.46-1.36-2.22-2.1-2.22-2.1l-1.54-1.49,.11-1.2-.69,.76-2.21-2.01,6.01-6.61,2.14,1.94-2.93,3.37-1.52,1.68,3.73,.34,2.68-3.58,.24,.55,.18-.19s.75,.72,2.13,2.01l-1.01,1.08,.24,.53-.67-.06-4.65,4.98Zm-8.76-8.04l-2.21-2.01,6.02-6.6,2.2,2-6.01,6.61Zm-4.42-4.02l-2.2-2.01,6.02-6.6,2.2,2.01-6.02,6.6Zm-4.41-4.02l-2.2-2.01,6.03-6.59,2.2,2.01-6.03,6.6Zm-4.4-4.03l-2.2-2.02,6.04-6.59,2.2,2.01-6.03,6.6Zm-4.4-4.03l-2.2-2.01,6.04-6.59,2.2,2.02-6.04,6.59Zm-4.4-4.03l-2.19-2.02,6.04-6.58,2.2,2.02-6.05,6.58Zm-4.39-4.03l-2.19-2.02,6.05-6.58,2.19,2.02-6.05,6.58Zm-4.39-4.04l-2.19-2.02,6.06-6.57,2.19,2.02-6.06,6.57Zm-4.39-4.04l-2.19-2.02,6.07-6.56,2.19,2.02-6.06,6.57Zm-4.39-4.05l-2.19-2.03,6.07-6.56,2.19,2.02-6.07,6.56Zm-4.37-4.05l-2.19-2.03,6.08-6.55,2.18,2.02-6.07,6.56Zm-4.38-4.07l-2.19-2.04,6.09-6.54,2.18,2.03-6.08,6.55Zm-4.37-4.07l-2.18-2.03,6.1-6.53,2.18,2.03-6.09,6.54Zm-4.31-3.99c-.72-.64-1.44-1.28-2.18-1.91l5.84-6.77c.78,.67,1.54,1.34,2.31,2.03l-5.97,6.65Zm-4.39-3.79c-.74-.62-1.49-1.23-2.25-1.84l5.6-6.97c.8,.64,1.59,1.28,2.37,1.94l-5.72,6.87Zm-4.53-3.64c-.77-.59-1.54-1.18-2.31-1.76l5.37-7.14c.81,.61,1.62,1.23,2.42,1.85l-5.48,7.06Zm-4.65-3.5c-.79-.57-1.58-1.14-2.37-1.7l5.16-7.3c.83,.58,1.65,1.18,2.47,1.78l-5.27,7.22Zm-4.77-3.37c-.8-.55-1.61-1.1-2.42-1.64l4.96-7.43c.84,.56,1.68,1.13,2.52,1.71l-5.06,7.36Zm-4.86-3.25c-.82-.53-1.64-1.06-2.47-1.58l4.78-7.55c.85,.54,1.7,1.08,2.55,1.64l-4.87,7.49Zm-4.95-3.13c-.84-.52-1.67-1.02-2.5-1.52l4.61-7.66c.86,.52,1.72,1.04,2.59,1.58l-4.69,7.61Zm-5.02-3.02c-.85-.5-1.7-.99-2.54-1.47l4.44-7.76c.87,.5,1.74,1,2.62,1.52l-4.52,7.71Zm-5.09-2.92c-.86-.48-1.72-.96-2.57-1.42l4.28-7.85c.88,.48,1.76,.96,2.65,1.46l-4.36,7.8Zm-5.16-2.81c-.88-.47-1.74-.92-2.6-1.37l4.12-7.93c.88,.46,1.77,.93,2.68,1.41l-4.21,7.88Zm-5.21-2.71c-.89-.45-1.77-.89-2.62-1.32l3.97-8.01c.88,.44,1.79,.89,2.71,1.36l-4.05,7.97Zm-5.27-2.61c-.91-.44-1.8-.86-2.65-1.27l3.81-8.08c.88,.42,1.79,.85,2.73,1.31l-3.89,8.04Zm-5.31-2.51c-.94-.43-1.84-.84-2.68-1.21l3.65-8.16c.87,.39,1.79,.8,2.76,1.25l-3.73,8.12Zm-5.36-2.4c-1.03-.45-1.93-.83-2.69-1.15l3.45-8.25c.79,.33,1.73,.73,2.8,1.19l-3.56,8.2Zm-5.39-2.24l-.17-.07-2.67-1.14,3.5-8.23,2.67,1.14-.55,1.3-2.77,6.99Zm-5.59-2.37l-2.74-1.17,3.5-8.22,2.74,1.17-3.5,8.22Zm-5.48-2.33l-2.74-1.17,3.5-8.23,2.74,1.17-3.5,8.23Zm-5.48-2.33l-2.74-1.17,3.5-8.23,2.74,1.17-3.5,8.23Zm-5.49-2.33l-2.74-1.17,3.5-8.22,2.74,1.17-3.5,8.22Zm-5.48-2.33l-2.74-1.17,3.5-8.23,2.74,1.17-3.5,8.23Zm-5.48-2.33l-2.74-1.17,3.5-8.23,2.74,1.17-3.5,8.23Zm-5.48-2.33l-2.74-1.17,3.5-8.22,2.74,1.17-3.5,8.22Zm-5.48-2.33l-2.74-1.17,3.5-8.23,2.74,1.17-3.5,8.23Zm-5.48-2.33l-2.74-1.17,3.5-8.23,2.74,1.17-3.5,8.23Zm-5.49-2.33l-2.74-1.17,3.5-8.22,2.74,1.17-3.5,8.22Zm-5.48-2.33l-2.74-1.17,3.5-8.23,2.74,1.17-3.5,8.23Zm-5.48-2.33l-2.74-1.17,3.5-8.23,2.74,1.17-3.5,8.23Zm-5.48-2.33l-2.74-1.17,3.5-8.22,2.74,1.17-3.5,8.22Zm-5.48-2.33l-2.74-1.17,3.5-8.23,2.74,1.17-3.5,8.23Z"/><path class="cls-5" d="M751.95,692.14l-5.29-7.28c.47-.34,1.22-.89,2.36-1.74l5.38,7.21c-1.18,.88-1.96,1.46-2.45,1.81Zm4.86-3.62l-5.42-7.18,2.38-1.8,5.45,7.17-2.4,1.82Zm4.79-3.64l-5.46-7.15,2.37-1.81,5.48,7.14-2.39,1.83Zm4.76-3.65l-5.48-7.14,2.37-1.82,5.5,7.13-2.38,1.83Zm4.75-3.67l-5.5-7.12,2.36-1.83,5.51,7.11-2.38,1.84Zm4.75-3.68l-5.52-7.11,2.36-1.84,5.53,7.1-2.37,1.84Zm4.74-3.69l-5.53-7.1,2.36-1.84,5.54,7.1-2.37,1.84Zm4.73-3.69l-5.54-7.09,2.36-1.85,5.54,7.09-2.36,1.85Zm4.73-3.69l-5.54-7.09,2.36-1.85,5.55,7.08-2.37,1.85Zm4.72-3.7l-5.55-7.08,2.36-1.85,5.55,7.08-2.36,1.85Zm4.72-3.7l-5.55-7.08,2.35-1.85,5.56,7.07-2.36,1.86Zm4.72-3.71l-5.56-7.08,2.36-1.85,5.56,7.07-2.36,1.86Zm4.72-3.71l-5.57-7.07,2.36-1.85,5.57,7.07-2.36,1.86Zm4.72-3.72l-5.57-7.07,2.35-1.86,5.58,7.06-2.36,1.86Zm4.77-3.77l-5.73-6.94,2.44-1.93,5.59,7.06-2.3,1.81Zm4.65-3.68l-5.59-7.05,2.34-1.86,5.61,7.04-2.36,1.87Zm4.71-3.75l-5.62-7.03,2.34-1.87,5.62,7.03-2.34,1.87Zm4.69-3.75l-5.63-7.02,2.33-1.87,5.64,7.01-2.34,1.88Zm4.67-3.76l-5.65-7.01,2.33-1.88,5.65,7-2.33,1.88Zm4.67-3.77l-5.66-7,2.33-1.89,5.67,6.99-2.34,1.89Zm4.67-3.79l-5.67-6.99,2.32-1.89,5.69,6.97-2.34,1.9Zm4.66-3.8l-5.7-6.97,2.32-1.9,5.7,6.96-2.33,1.9Zm4.65-3.81l-5.71-6.96,2.32-1.9,5.71,6.95-2.32,1.91Zm4.65-3.82l-5.73-6.94,2.31-1.91,5.73,6.94-2.32,1.91Zm4.63-3.82l-5.73-6.94,2.31-1.91,5.74,6.93-2.32,1.92Zm4.63-3.84l-5.75-6.92,2.31-1.92,5.75,6.92-2.31,1.92Zm4.62-3.84l-5.76-6.92,2.3-1.92,5.77,6.91-2.31,1.92Zm4.62-3.85l-5.77-6.91,2.3-1.92,5.78,6.9-2.31,1.93Zm4.61-3.86l-5.78-6.9,2.3-1.93,5.79,6.89-2.3,1.93Zm4.6-3.86l-5.79-6.89,2.29-1.93,5.8,6.88-2.3,1.94Zm4.6-3.87l-5.8-6.88,2.29-1.93,5.81,6.87-2.3,1.94Zm4.59-3.88l-5.81-6.87,2.29-1.94,5.82,6.86-2.29,1.94Zm4.58-3.89l-5.82-6.86,2.28-1.94,5.83,6.85-2.29,1.95Zm4.59-3.9l-5.84-6.84,2.28-1.95,5.85,6.84-2.28,1.95Zm4.57-3.9l-5.85-6.84,2.28-1.95,5.86,6.83-2.29,1.96Zm4.56-3.91l-5.86-6.83,2.27-1.95,5.87,6.82-2.29,1.96Zm4.56-3.92l-5.87-6.82,2.27-1.96,5.88,6.82-2.28,1.96Zm4.55-3.93l-5.88-6.81,2.27-1.96,5.9,6.8-2.28,1.97Zm4.56-3.95l-5.91-6.79,2.27-1.97,5.93,6.77-2.29,1.99Z"/><path class="cls-5" d="M582.61,821.84l-5.47-7.15,2.38-1.82,5.47,7.15-2.38,1.82Zm4.77-3.64l-5.47-7.15,2.38-1.82,5.47,7.15-2.38,1.82Zm4.77-3.65l-5.47-7.15,2.38-1.82,5.47,7.15-2.38,1.82Zm4.77-3.65l-5.47-7.15,2.38-1.82,5.47,7.15-2.38,1.82Zm4.77-3.64l-5.47-7.15,2.38-1.82,5.47,7.15-2.38,1.82Zm4.77-3.64l-5.47-7.15,2.38-1.82,5.47,7.15-2.38,1.82Zm4.77-3.65l-5.47-7.15,2.38-1.82,5.47,7.15-2.38,1.82Zm4.77-3.64l-5.47-7.15,2.38-1.82,5.47,7.15-2.38,1.82Zm4.77-3.64l-5.47-7.15,2.38-1.82,5.47,7.15-2.38,1.82Zm4.77-3.65l-5.47-7.15,2.38-1.82,5.47,7.15-2.38,1.82Zm4.77-3.64l-5.47-7.15,2.38-1.82,5.47,7.15-2.38,1.82Zm4.77-3.65l-5.47-7.15,2.38-1.82,5.47,7.15-2.38,1.82Zm4.76-3.64l-5.47-7.15,2.38-1.82,5.47,7.15-2.38,1.82Zm4.77-3.65l-5.47-7.15,2.38-1.82,5.47,7.15-2.38,1.82Zm4.77-3.64l-5.47-7.15,2.38-1.82,5.47,7.15-2.38,1.82Zm4.77-3.65l-5.47-7.15,2.38-1.82,5.47,7.15-2.38,1.82Zm4.77-3.64l-5.47-7.15,2.38-1.82,5.47,7.15-2.38,1.82Zm4.77-3.65l-5.47-7.15,2.38-1.82,5.47,7.15-2.38,1.82Zm4.77-3.64l-5.47-7.15,2.38-1.82,5.47,7.15-2.38,1.82Zm4.77-3.64l-5.47-7.15,2.38-1.82,5.47,7.15-2.38,1.82Zm4.77-3.65l-5.47-7.15,2.38-1.82,5.47,7.15-2.38,1.82Zm4.76-3.64l-5.47-7.15,2.38-1.82,5.47,7.15-2.38,1.82Zm4.77-3.64l-5.47-7.15,2.38-1.82,5.47,7.15-2.38,1.82Zm4.77-3.65l-5.47-7.15,2.38-1.82,5.47,7.15-2.38,1.82Zm4.77-3.64l-5.47-7.15,2.38-1.82,5.47,7.15-2.38,1.82Z"/><circle class="cls-6" cx="65.17" cy="474.35" r="10"/><circle class="cls-6" cx="885.75" cy="375.12" r="10"/><circle class="cls-6" cx="616.17" cy="752.35" r="10"/></svg>