<?xml version="1.0" encoding="UTF-8"?><svg id="Mexico_Simple" xmlns="http://www.w3.org/2000/svg" viewBox="0 0 1000 1000"><defs><style>.cls-1{fill:#fae44a;}.cls-2{fill:#db4a25;}.cls-3{fill:#1bce20;}.cls-4{fill:#75e5fd;}</style></defs><path class="cls-4" d="M811.73,626.21c5.78-12.45,12.06-26.21,18.3-40.22,13.27-29.79,26.37-60.56,35.95-83.03,6.51-15.26,11.2-26.29,13-30.05,21.33-44.79,36.05-80.49,43.5-120.06,1.48-7.9,2.07-24.45,2.27-32.69-3.47-.95-8.13-2.24-11.36-3.17-.46-.14-.99-.26-1.57-.4-3.29-.79-8.8-2.1-13.52-6.18-5.52-4.76-5.34-14.97-5.14-18.14,.52-13.62,.81-29.44,.54-36.18-10.54-1.58-44.84-2.68-78.12-3.73-8.79-.28-17.95-.58-27.29-.89-57.53-1.95-161.45,2.32-162.49,2.36l-141.77,3.8H165.32v-36.39h.15c2.96,0,295.89,.17,320.38,.17,25.95,0,109.51-1.25,140.32-2.96,51.23-2.84,130.99-2,162.91-1.49,3.17,.05,6.64,.1,10.34,.15,31.15,.45,78.22,1.11,100.91,4.37,11.17,1.61,17.72,4.43,22.58,9.76,5,5.47,5.39,14.56,5.61,19.45,.12,2.63-.04,23.45-.12,33.19,2.28,.67,5.51,1.57,9.71,2.62,10.65,2.67,16.35,5.26,20,12.78,5.39,11.16,1.11,45.4-1.92,64.81-6.34,40.58-42.22,119.81-43.76,123.16l-50.26,111.49-18.52,40.99-31.93-13.5Z"/><path class="cls-1" d="M811.73,626.21l31.93,13.52-22.65,50.15c-.27,.65-1.89,4.51-3.79,8.53l.16,.08c.42,.19,10.35,4.79,22.11,11.05,11.27,6,13.09,13.44,13.41,19.25,.55,9.98-5.57,17.44-6.63,18.65-.07,.08-.15,.16-.21,.23l-.57,.49c-.9,.77-8.5,7.75-16.55,15.16-11.31,10.41-25.39,23.37-35.6,32.6-4.7,4.26-13.8,9.69-23.89,9.7-3.77,0-7.68-.77-11.55-2.62-15.68-7.53-16.32-25.21-16.33-25.96v-.16c-.09-58.14-.29-165.54-.45-183.2-2.11-1.01-5.92-2.37-8.4-3.25-3.01-1.07-6.12-2.17-8.7-3.33-.99-.44-1.9-.83-2.75-1.2-5.34-2.33-8.87-3.87-15.02-8.6-4.3-3.31-14.73-11.66-18.86-17.84-1.48-2.23-7.56-9.92-12.43-16.1-5.34-6.77-8.67-11.01-9.83-12.7-.03-.03-1.01-1.31-5.66-4.34-3.77-2.46-7.72-2.57-7.76-2.57-.09,0-86.02-2.02-91.97-2.14-4.98-.12-9.17-.65-17.84-6.52-9.41-6.36-13.41-13.63-17.9-25.66-2.79-7.5-5.73-15.22-8.15-20.06-1.59-3.17-2.75-3.87-6.23-5.61-3.91-1.95-10.71-5.18-24.58-10.52-5.29-2.05-10.36-4.29-15.26-6.46-9.67-4.28-19.67-8.71-32.09-11.89-7.35-1.89-25.24-3.24-44.79-4.16-19.55-.92-40.77-1.42-54.77-1.59-.27,.02-.55,.03-.84,.03-.61,0-1.48,0-2.61-.02-2.27,0-5.57-.04-9.65-.09-4.13-.04-9.07-.09-14.57-.16v-34.04c9.86,0,19.12-.04,27.19-.12,47.19-.47,94.81,2.62,110.77,7.18,10.65,3.04,23.6,8.41,36.12,13.6,4.24,1.76,8.25,3.41,12.04,4.93,2.74,1.1,5.41,2.15,7.99,3.17,12.1,4.77,21.64,8.55,26.44,11.86,2.04,1.42,4.86,3.57,10.31,8.82,3.72,3.58,5.09,6.71,7.36,11.91,.3,.68,.62,1.42,.97,2.22,.35,.78,1.22,2.94,2.86,7.02,2.43,6.02,6.1,15.13,8.43,20.51,.42,.97,1.37,1.61,2.43,1.63,11.88,.23,39.56,.33,61.8,.4,11.79,.04,21.97,.07,26.52,.12,4.55,.05,9.49,.95,20.05,5.31,.07,.03,6.95,2.89,10.03,5.43,11.69,9.67,24.63,27.58,29.64,34.82,4.63,6.68,6.87,9.77,11.4,12.88,15.33,10.54,22.7,12.47,28.62,14.04,2.22,.58,4.32,1.13,6.56,2.03,6.53,2.61,10.67,5.25,15.17,12.4,4,6.35,3.67,13.58,3.45,18.36-.05,1.04-.1,2.11-.07,2.66l.02,.41c0,1.38,.37,138.14,.37,156.78,0,4.47,.05,8.04,.12,10.89l32.73-30.22c-6.95-2.69-15.4-6.14-18.37-8.12l-.4-.27c-4.67-3.1-9.95-6.62-12.53-15.02-3.13-10.17,2.66-22.94,8.06-31.86l25.17-52.44Z"/><path class="cls-2" d="M310.49,428.93c-5.35-.06-11.24-.13-17.43-.2-35.01-.4-78.6-.87-93.51-.88-8.89,0-16.6,.02-24.03-5.12-7.93-5.5-11.48-21.22-12.39-25.92l-11.66-60.24c-.08-.41-.19-.81-.34-1.2l-1.17-3.02c-1.47,2.13-2.98,4.28-4.25,6.04-6.57,9.08-15.15,9.4-22.69,8.52-8.28-.98-46.14-4.68-61.57-4.42-11.28,.2-17.61-1.41-21.82-5.57-5.37-5.31-5.34-12.76-5.28-23.06,.06-10.43,2.47-46.55,31.22-73.42,21.09-19.72,50.25-19.29,52.83-19.21h33.21v36.37h-33.81c-10.58,0-20.49,1.27-34.43,16.91-7.14,8-11.12,23.45-12.85,33.41,6.8,.32,17.4,.85,26.26,1.43,9.89,.63,20.38,1.69,26.02,2.29,1.74-2.95,4.32-7.11,6.86-10.39,.51-.66,1.01-1.4,1.53-2.18,3.88-5.83,8.44-11.04,21.52-10.8,16.72,.32,22.88,12.68,25.51,17.96l.2,.39c3.08,6.18,14.59,55.2,16.44,67.25,1.18,7.74,2.7,15.48,3.68,20.3,16.4,.18,69.47,.74,111.76,.72l.17,34.04Z"/><path d="M724.19,216.42v3c27.78,0,52.55,.33,64.84,.52,3.17,.05,6.65,.1,10.34,.15h.42c30.94,.45,77.71,1.12,100.1,4.33,10.43,1.5,16.45,4.06,20.79,8.81,4.26,4.67,4.63,13.05,4.83,17.56,.06,1.26,.08,8.01-.12,33.04l-.02,2.26,2.17,.64c3,.88,6.31,1.77,9.83,2.65,9.93,2.49,14.89,4.69,18.03,11.18,3.67,7.6,2.88,30.58-2.18,63.04-6.36,40.71-43.15,121.57-43.53,122.39l-50.26,111.49-41.17,91.16-.02,.04-.02,.04c-.42,1.02-1.95,4.62-3.74,8.4l-1.29,2.72,2.72,1.28,.2,.1c1.07,.5,10.74,5.01,21.94,10.96,9.89,5.27,11.53,11.44,11.82,16.77,.49,8.92-5.24,15.76-5.88,16.51l-.04,.05h-.01l-.42,.38c-.88,.75-7.02,6.39-16.64,15.24-10.67,9.81-25.27,23.26-35.58,32.59-4.54,4.11-13,8.92-21.88,8.92-3.58,0-7.03-.78-10.25-2.32-13.86-6.66-14.6-22.24-14.63-23.3v-.12c-.09-61.76-.3-166.11-.45-183.22l-.02-1.87-1.69-.81c-2.13-1.01-5.6-2.27-8.69-3.37-2.95-1.05-6-2.13-8.49-3.24-.86-.38-1.66-.73-2.4-1.05l-.35-.15c-5.31-2.32-8.52-3.72-14.39-8.23-3.26-2.51-14.22-11.17-18.19-17.12-1.5-2.25-7.11-9.38-12.06-15.66l-.51-.64c-4.97-6.3-8.58-10.88-9.7-12.53l-.16-.24-.12-.12c-.63-.71-2.24-2.21-6.22-4.8-4.35-2.84-8.79-3.04-9.34-3.06h0c-.2,0-7.21-.17-17.29-.4-24.61-.58-70.43-1.65-74.67-1.74-4.6-.11-8.22-.58-16.23-6-8.79-5.94-12.41-12.54-16.77-24.22-2.68-7.2-5.75-15.3-8.28-20.36-2.03-4.04-3.89-5.1-7.57-6.95-4.04-2.02-11.02-5.31-24.84-10.64-5.38-2.08-10.56-4.38-15.13-6.41l-.1-.05c-9.75-4.32-19.84-8.78-32.45-12.01-6.67-1.72-21.94-3.15-45.39-4.25-24.35-1.15-48.15-1.51-54.87-1.59h-.25c-.2,.02-.42,.03-.63,.03-.46,0-1.07,0-1.82-.01h-.78c-2.29-.02-5.62-.05-9.64-.09-6.49-.06-14.98-.16-24.52-.27l-7.47-.09c-35.74-.41-78.66-.87-93.54-.88h-.2c-8.65,0-15.49,0-22.12-4.59-5.56-3.85-9.4-14.93-11.15-24.02l-11.66-60.23c-.11-.57-.27-1.14-.49-1.73l-1.17-3.02-2.05-5.27-3.21,4.65c-1.57,2.27-3.03,4.35-4.21,5.99-3.8,5.26-8.5,7.6-15.21,7.6-1.39,0-2.93-.1-4.69-.31-7.67-.91-43.6-4.46-60.33-4.46-.57,0-1.12,0-1.64,.01-.61,.01-1.2,.02-1.78,.02-9.18,0-14.53-1.41-17.87-4.72-4.48-4.42-4.44-10.98-4.38-20.91,.06-10.13,2.41-45.2,30.27-71.25,18.74-17.53,44.6-18.42,49.59-18.42,.52,0,.89,0,1.09,.02h30.32v30.37h-30.82c-10.91,0-21.92,1.37-36.66,17.91-8.4,9.41-12.29,27.53-13.57,34.89l-.58,3.35,3.4,.16c5.75,.27,16.8,.81,26.21,1.42,9.3,.59,19.21,1.57,25.89,2.28l1.92,.2,.98-1.67c1.68-2.85,4.19-6.91,6.64-10.07,.56-.72,1.06-1.46,1.66-2.36,3.57-5.36,7.17-9.47,18.16-9.47,.27,0,.54,0,.81,0,14.92,.29,20.3,11.1,22.88,16.3v.03l.03,.03,.19,.36c2.73,5.54,14.16,53.42,16.15,66.34,.91,5.97,2.16,12.85,3.7,20.45l.48,2.38,2.42,.03c19.65,.22,69.7,.72,109.88,.72,11.34,0,21.2-.04,29.31-.12,3.11-.03,6.28-.05,9.43-.05,43.8,0,86.06,2.99,100.48,7.11,10.43,2.97,23.22,8.27,35.59,13.4l.21,.08c4.23,1.75,8.23,3.41,12.07,4.94,2.74,1.1,5.42,2.16,8.01,3.18,11.43,4.51,21.3,8.4,25.83,11.54,1.95,1.36,4.66,3.43,9.95,8.52,3.29,3.16,4.5,5.93,6.7,10.96,.3,.67,.61,1.4,.98,2.24,.34,.76,1.34,3.23,2.82,6.92l.58,1.44c2.41,5.97,5.71,14.14,7.87,19.13,.88,2.05,2.89,3.4,5.12,3.44,11.68,.23,38.05,.33,61.85,.4h4.14c9.85,.05,18.36,.07,22.36,.12,4.19,.04,8.83,.91,18.93,5.08,2.28,.96,7.15,3.22,9.27,4.97,11.42,9.45,24.15,27.08,29.09,34.22,4.71,6.81,7.2,10.23,12.16,13.65,15.72,10.82,23.37,12.83,29.56,14.47l.11,.03c2.09,.55,4.06,1.06,6.09,1.88,6.06,2.42,9.66,4.71,13.74,11.21,3.49,5.55,3.2,11.94,3,16.62-.06,1.31-.1,2.3-.07,2.94l.02,.34c0,.8,.02,7.15,.04,16.89,.1,37.45,.33,125.16,.33,139.81,0,4.01,.04,7.7,.12,10.96l.16,6.63,4.88-4.5,32.73-30.22,3.54-3.27-4.49-1.74c-12.54-4.85-16.53-6.98-17.76-7.8l-.4-.27-.03-.02h-.02c-4.45-2.97-9.05-6.03-11.31-13.4-2.8-9.1,2.67-21.02,7.76-29.43,2.06-3.41,23.09-46.85,43.64-92.99,13.23-29.71,26.32-60.42,35.87-82.85l.1-.23,.93-2.17c6-14.07,10.34-24.24,12.02-27.77,21.43-45,36.22-80.9,43.74-120.79,1.5-8,2.1-24.21,2.32-33.17l.06-2.35-2.26-.62c-2.13-.58-7.51-2.06-11.29-3.15-.54-.16-1.13-.3-1.75-.45-3.22-.77-8.07-1.93-12.24-5.53-3.57-3.08-4.46-10.12-4.11-15.68v-.08c.49-12.68,.83-29.27,.55-36.42l-.1-2.48-2.45-.37c-10.77-1.62-45.19-2.71-78.47-3.77-8.79-.28-17.94-.58-27.28-.89-10.02-.34-22.13-.51-36.02-.51-52.33,0-114.49,2.38-126.42,2.86h-.23l-141.73,3.81H168.33v-30.38c6.59,0,24.1,.01,47.72,.03,87.94,.05,251.62,.14,269.79,.14,25.95,0,109.6-1.25,140.49-2.96,24.03-1.33,56.95-2.01,97.86-2.01v-3m0,0c-32.81,0-69.76,.45-98.02,2.01-30.81,1.71-114.37,2.96-140.32,2.96-24.48,0-317.42-.17-320.38-.17h-.15v36.39H484.02l141.77-3.8c.85-.03,69.89-2.87,126.57-2.87,12.93,0,25.23,.15,35.91,.51,9.34,.31,18.5,.61,27.29,.89,33.28,1.06,67.58,2.15,78.12,3.73,.27,6.74-.02,22.56-.54,36.18-.2,3.17-.38,13.38,5.14,18.14,4.72,4.08,10.23,5.39,13.52,6.18,.58,.14,1.12,.26,1.57,.4,3.23,.93,7.89,2.22,11.36,3.17-.2,8.24-.79,24.79-2.27,32.69-7.45,39.57-22.16,75.27-43.5,120.06-1.79,3.76-6.49,14.79-13,30.05-9.57,22.48-22.68,53.24-35.95,83.03-20.5,46.04-41.43,89.29-43.47,92.67-5.4,8.92-11.19,21.7-8.06,31.86,2.58,8.4,7.87,11.91,12.53,15.02l.4,.27c2.97,1.98,11.42,5.43,18.37,8.12l-32.73,30.22c-.07-2.85-.12-6.42-.12-10.89,0-18.64-.37-155.41-.37-156.78l-.02-.41c-.03-.54,.02-1.62,.07-2.66,.21-4.78,.54-12.01-3.45-18.36-4.5-7.15-8.64-9.79-15.17-12.4-2.24-.9-4.34-1.45-6.56-2.03-5.92-1.56-13.29-3.49-28.62-14.04-4.53-3.11-6.77-6.2-11.4-12.88-5.02-7.25-17.95-25.15-29.64-34.82-3.07-2.54-9.96-5.4-10.03-5.43-10.56-4.35-15.5-5.26-20.05-5.31-4.55-.05-14.73-.08-26.52-.12-22.24-.07-49.92-.16-61.8-.4-1.06-.02-2.01-.66-2.43-1.63-2.33-5.37-5.99-14.48-8.43-20.51-1.64-4.08-2.51-6.25-2.86-7.02-.35-.81-.67-1.54-.97-2.22-2.27-5.2-3.64-8.33-7.36-11.91-5.45-5.25-8.27-7.4-10.31-8.82-4.8-3.32-14.35-7.09-26.44-11.86-2.58-1.02-5.26-2.08-7.99-3.17-3.79-1.51-7.8-3.17-12.04-4.93-12.52-5.19-25.47-10.56-36.12-13.6-14.89-4.25-57.35-7.22-101.3-7.22-3.15,0-6.31,.02-9.46,.05-8.64,.08-18.65,.12-29.28,.12-41.97,0-93.69-.54-109.84-.72-.98-4.82-2.49-12.56-3.68-20.3-1.85-12.05-13.36-61.07-16.44-67.25l-.2-.39c-2.63-5.29-8.79-17.64-25.51-17.96-.29,0-.58,0-.87,0-12.42,0-16.86,5.11-20.66,10.8-.52,.79-1.02,1.52-1.53,2.18-2.54,3.28-5.12,7.44-6.86,10.39-5.64-.6-16.12-1.66-26.02-2.29-8.86-.57-19.46-1.11-26.26-1.43,1.74-9.95,5.71-25.4,12.85-33.41,13.94-15.64,23.84-16.91,34.43-16.91h33.82v-36.37h-33.22c-.22,0-.62-.02-1.19-.02-6.22,0-32.32,1.16-51.64,19.22-28.75,26.87-31.17,62.99-31.22,73.42-.06,10.3-.1,17.75,5.28,23.06,3.98,3.93,9.84,5.58,19.98,5.58,.6,0,1.21,0,1.83-.02,.51,0,1.04-.01,1.59-.01,16.29,0,51.97,3.49,59.98,4.44,1.64,.19,3.33,.33,5.04,.33,6.14,0,12.51-1.74,17.65-8.84,1.27-1.77,2.77-3.91,4.25-6.04l1.17,3.02c.15,.39,.26,.79,.34,1.2l11.66,60.24c.9,4.69,4.45,20.42,12.39,25.92,7.37,5.1,15.02,5.12,23.83,5.12h.2c14.91,.01,58.5,.49,93.51,.88,12.56,.15,23.85,.28,32,.36,4.08,.05,7.38,.08,9.65,.09,1.13,0,2,.02,2.61,.02,.29,0,.57,0,.84-.03,14,.17,35.22,.67,54.77,1.59,19.55,.92,37.43,2.27,44.79,4.16,12.42,3.18,22.42,7.61,32.09,11.89,4.9,2.17,9.97,4.41,15.26,6.46,13.87,5.35,20.67,8.58,24.58,10.52,3.47,1.74,4.64,2.44,6.23,5.61,2.42,4.84,5.35,12.56,8.15,20.06,4.49,12.03,8.49,19.29,17.9,25.66,8.67,5.87,12.86,6.4,17.84,6.52,5.95,.13,91.88,2.14,91.97,2.14,.04,0,3.99,.11,7.76,2.57,4.66,3.03,5.64,4.31,5.66,4.34,1.15,1.69,4.48,5.93,9.83,12.7,4.87,6.18,10.94,13.87,12.43,16.1,4.12,6.18,14.56,14.53,18.86,17.84,6.15,4.73,9.68,6.28,15.02,8.6,.84,.37,1.76,.77,2.75,1.2,2.58,1.15,5.69,2.26,8.7,3.33,2.48,.88,6.29,2.24,8.4,3.25,.16,17.65,.36,125.05,.45,183.2v.16c.02,.75,.66,18.43,16.33,25.96,3.87,1.85,7.78,2.62,11.55,2.62,10.09-.01,19.19-5.44,23.89-9.7,10.2-9.23,24.29-22.19,35.6-32.6,8.05-7.41,15.65-14.4,16.55-15.16l.57-.49c.07-.08,.15-.16,.21-.23,1.06-1.21,7.18-8.67,6.63-18.65-.32-5.81-2.13-13.25-13.41-19.25-11.76-6.26-21.69-10.85-22.11-11.05l-.16-.08c1.9-4.02,3.52-7.88,3.79-8.53l41.17-91.16,50.26-111.49c1.53-3.36,37.41-82.59,43.76-123.16,3.03-19.41,7.31-53.65,1.92-64.81-3.65-7.53-9.35-10.12-20-12.78-4.2-1.05-7.43-1.95-9.71-2.62,.08-9.75,.23-30.56,.12-33.19-.21-4.89-.61-13.98-5.61-19.45-4.86-5.33-11.41-8.15-22.58-9.76-22.69-3.26-69.76-3.92-100.91-4.36-3.7-.05-7.17-.1-10.34-.15-14.31-.23-38.23-.52-64.89-.52h0Z"/><g id="Start_Line"><polygon points="161.51 196.33 161.52 215.9 161.52 221.89 161.52 222.77 161.53 256.72 161.53 257.18 155.6 257.18 155.59 256.8 155.59 222.84 155.59 221.67 155.58 215.98 155.58 196.33 161.51 196.33"/><polygon points="179.49 207.8 168.42 218.87 165.69 216.16 174.03 207.8 165.68 199.45 168.4 196.72 179.49 207.8"/><polygon points="195.19 207.74 184.13 218.82 181.4 216.09 189.75 207.74 181.39 199.39 184.12 196.67 195.19 207.74"/><polygon points="210.9 207.69 199.83 218.76 197.11 216.04 205.45 207.68 197.1 199.34 199.82 196.61 210.9 207.69"/></g><polygon points="161.45 257.26 161.44 257.62 161.44 257.71 155.52 257.72 155.52 223.37 155.51 222.2 155.51 196.86 161.43 196.85 161.44 216.43 161.44 223.31 161.45 257.26"/><path class="cls-3" d="M414.54,212.55h-3v-9h3v9Zm-6,0h-3v-9h3v9Zm-6,0h-3v-9h3v9Zm15,0v-9h3v9h-3Zm6,0v-9h2.99v9h-2.99Zm-27.01,0h-3v-9h3.01v9Zm-6.01,0h-3l.02-9h3l-.02,9Zm39.03,0l-.02-9h3l.02,9h-2.99Zm-45.03,0h-3l.02-9.01h3l-.02,9.01Zm51.02,0l-.02-9h3v9h-2.99Zm-57.03,0h-2.96l-.03-4.51,.05-4.5h2.96l-.03,9.01Zm63.04,0l-.04-9h3l.03,8.99h-2.99Zm-69.04,0h-3.01l.03-9.01h3l-.02,9.01Zm75.03,0l-.03-9h3l.02,8.99h-3Zm-81.04,0h-2.93l-.06-4.51,.08-4.5h2.93l-.04,9.01Zm87.04,0l-.03-9h3l.03,8.99h-3Zm-93.03,0h-3.01l.04-9.01h3l-.03,9.01Zm99.03,0l-.03-9h3l.03,8.99h-3Zm-105.04,0h-3l.04-9.01h3l-.04,9.01Zm111.04,0l-.04-9h3l.04,8.99h-3Zm-117.05-.01h-3l.04-9.01h3l-.04,9.01Zm123.07,0l-.06-9h3l.04,8.99h-2.98Zm-129.08-.01h-3l.04-9.01h3l-.04,9.01Zm135.06,0l-.04-9h3l.04,8.99h-3Zm-141.06-.01l-3-.02,.04-9,3,.02-.05,9Zm147.06,0l-.04-9h3l.04,8.99h-3Zm-153.06-.01l-3.01-.02,.05-9,3,.02-.04,9Zm159.06,0l-.05-9,3-.02,.04,9-3,.02Zm-165.07-.03l-3-.02,.05-9,3,.02-.06,9Zm171.07,0l-.05-9,3-.02,.05,9-3,.02Zm-177.07-.04l-3.01-.02,.06-9,3,.02-.05,9Zm183.07,0l-.05-9,3-.02,.05,9-3,.02Zm-189.08-.04l-3-.02,.06-9,3,.02-.07,9Zm195.09,0l-.06-9,2.99-.02,.06,9-2.99,.02Zm5.98-.04l-.06-9,2.99-.02,.06,9-2.99,.02Zm-207.07,0l-3.01-.02,.07-9,2.99,.02-.06,9Zm213.05-.04l-.07-9,2.99-.02,.07,9-2.99,.02Zm-219.06,0l-3-.03,.07-9,3,.03-.08,9Zm225.07-.04l-.09-9,2.99-.02,.08,9-2.97,.02Zm-231.08,0l-3.01-.03,.09-9,3,.03-.08,9Zm237.04-.04l-.08-9,3-.03,.07,9-2.99,.03Zm-243.05-.01l-3.01-.03,.1-9,3,.03-.09,9Zm249.05-.04l-.09-9,2.98-.03,.12,9-3.01,.03Zm356.51-.02l-2.98-.24,.72-8.97,3,.25-.74,8.97Zm-350.51-.06l-.13-9,2.9-.04,.16,4.5,.07,4.5-3,.05Zm6-.1l-.17-9,2.98-.06,.19,9-3,.06Zm6-.12l-.2-9,2.98-.07,.22,9-3,.07Zm6-.14l-.23-9,2.98-.08,.26,9-3.01,.08Zm326.53-.06l-2.98-.23,.68-8.97,3.01,.23-.71,8.97Zm-320.53-.11l-.26-9,2.98-.09,.27,9-3,.09Zm6-.18l-.28-9,2.99-.1,.29,9-3,.1Zm308.57-.16l-2.98-.21,.63-8.98,3.01,.22-.66,8.98Zm-302.48-.04l-.41-8.99,2.99-.1,.32,8.99-2.9,.1Zm5.9-.21l-.33-8.99,2.99-.11,.33,8.99-2.99,.11Zm290.62-.18l-2.99-.2,.6-8.98,3,.2-.61,8.98Zm-284.63-.04l-.33-8.99,2.99-.11,.34,8.99-3,.11Zm6-.23l-.35-8.99,2.99-.12,.35,8.99-2.99,.12Zm272.66-.12l-2.98-.19,.55-8.98,3,.19-.57,8.98Zm-266.67-.11l-.35-8.99,2.99-.12,.36,8.99-3,.12Zm5.99-.24l-.36-8.99,2.99-.12,.36,8.99-2.99,.12Zm254.7-.02l-3-.17,.52-8.98,3.01,.17-.53,8.98Zm-248.71-.23l-.36-8.99,2.99-.12,.36,8.99-2.99,.12Zm242.72-.12l-3-.16,.48-8.99,3.01,.16-.49,8.99Zm-236.73-.13l-.36-8.99,2.99-.12,.37,8.99-3,.12Zm230.73-.19l-3-.15,.45-8.99,3.01,.15-.46,8.99Zm-224.74-.05l-.36-8.99,3-.12,.36,8.99-3,.12Zm5.99-.24l-.35-8.99,3-.12,.35,8.99-3,.12Zm212.77,0l-3-.14,.41-8.99,3.01,.14-.42,8.99Zm-206.78-.23l-.35-8.99,3-.12,.34,8.99-2.99,.11Zm200.78-.04l-3-.13,.38-8.99,3.01,.13-.39,8.99Zm-194.79-.18l-.33-8.99,3-.11,.33,8.99-3,.11Zm188.8-.07l-3-.12,.34-8.99,3.01,.12-.36,8.99Zm-182.81-.15l-.33-8.99,3-.11,.32,8.99-2.99,.11Zm176.82-.08l-3-.11,.31-8.99,3.01,.11-.32,8.99Zm-170.83-.13l-.31-8.99,3.01-.1,.29,9-2.99,.1Zm-281.86,0v0Zm-12-.03v0Zm458.69-.04l-3-.1,.29-9,3.01,.1-.3,8.99Zm-158.84-.12l-.29-9,3.01-.09,.27,9-2.99,.09Zm152.84-.07l-3-.09,.25-9,3.02,.09-.27,9Zm-146.86-.11l-.26-9,2.92-.08,.34,8.99-3,.09Zm140.86-.06l-3-.08,.23-9,3.01,.08-.25,9Zm-134.88-.11l-.24-9,3-.08,.23,9-3,.08Zm128.88-.05l-3-.07,.2-9,3.01,.07-.22,9Zm-122.89-.1l-.21-9,3.01-.07,.19,9-2.99,.07Zm116.89-.04l-3-.06,.18-9,3.01,.06-.19,9Zm-110.91-.09l-.18-9,3.01-.06,.17,9-3,.06Zm104.91-.03l-3-.05,.16-9,3.01,.05-.17,9Zm-98.92-.08l-.15-9,3.01-.05,.12,9-2.99,.04Zm92.92-.02l-3-.05,.13-9,3.01,.05-.15,9Zm-86.94-.06l-.1-9,3-.03,.1,9-3,.03Zm80.95-.03l-3-.04,.11-9,3.01,.04-.12,9Zm-74.95-.04l-.1-9,3-.03,.09,9-3,.03Zm68.95-.03l-3-.03,.09-9,3.01,.03-.11,9Zm-62.96-.02l-.08-9,3-.03,.08,9-3,.03Zm56.96-.04l-3-.03,.07-9,3.01,.03-.08,9Zm-50.96-.01l-.07-9,3-.02,.06,9-3,.02Zm44.96-.03l-3-.02,.05-9,3.01,.02-.06,9Zm-38.97,0l-.05-9,3-.02,.04,9-3,.02Zm32.97-.03h-3l.04-9.01h3.01l-.04,9.01Zm-26.98,0l-.04-9h3l.04,8.99h-3Zm20.98,0h-3l.02-9.01h3.01l-.03,9.01Zm-14.99,0l-.02-9h3l.02,8.99h-3Zm5.99,0v-9h3v9h-3Z"/><path class="cls-3" d="M494.88,475.7l-1.11-.43,3.28-8.38,1.07,.41-3.23,8.4Zm-3.94-1.56c-.95-.38-1.89-.77-2.82-1.15l3.44-8.31c.9,.37,1.81,.75,2.74,1.12l-3.36,8.35Zm-5.62-2.33c-.94-.4-1.87-.8-2.79-1.2l3.59-8.25c.9,.39,1.8,.78,2.72,1.17l-3.51,8.29Zm-5.56-2.42c-.93-.41-1.86-.82-2.77-1.23l3.69-8.21c.89,.4,1.8,.81,2.71,1.21l-3.63,8.23Zm-5.51-2.48c-.92-.42-1.84-.84-2.75-1.25l3.75-8.18c.89,.41,1.8,.82,2.71,1.24l-3.72,8.2Zm-5.48-2.51l-2.72-1.25,3.76-8.18,2.73,1.26-3.78,8.17Zm-5.44-2.5c-.91-.42-1.81-.83-2.71-1.23l3.71-8.2c.91,.41,1.83,.83,2.75,1.25l-3.75,8.18Zm-5.42-2.45c-.91-.4-1.81-.8-2.7-1.19l3.57-8.26c.93,.4,1.85,.81,2.79,1.22l-3.65,8.22Zm-5.41-2.34c-.91-.38-1.81-.75-2.71-1.11l3.35-8.36c.94,.38,1.89,.76,2.84,1.16l-3.47,8.3Zm-5.43-2.17c-.91-.34-1.82-.68-2.72-1l3-8.48c.97,.34,1.94,.7,2.91,1.07l-3.19,8.42Zm-5.46-1.93c-.91-.3-1.82-.58-2.74-.85l2.55-8.63c1,.29,1.99,.6,2.98,.93l-2.79,8.55Zm-5.49-1.62c-.92-.24-1.84-.47-2.77-.68l1.99-8.78c1.02,.23,2.04,.48,3.05,.75l-2.28,8.71Zm-5.55-1.26c-.92-.17-1.86-.33-2.79-.48l1.35-8.9c1.05,.16,2.09,.34,3.12,.53l-1.68,8.84Zm-5.59-.84c-.93-.1-1.87-.19-2.81-.26l.65-8.98c1.06,.08,2.11,.17,3.16,.29l-.99,8.95Zm-5.74-.44l-2.99-.17,.51-8.99,3.01,.17-.52,8.98Zm-5.98-.34l-2.99-.16,.48-8.99,3,.16-.49,8.99Zm-5.98-.32l-2.99-.15,.46-8.99,3,.15-.47,8.99Zm-5.98-.3l-2.99-.15,.43-8.99,3,.15-.44,8.99Zm-5.99-.29l-2.99-.14,.4-8.99,3.01,.14-.42,8.99Zm-6-.27l-3-.13,.38-8.99,3.02,.13-.4,8.99Zm-6.01-.26l-3-.12,.37-8.99,3.01,.12-.38,8.99Zm-6-.25l-3-.12,.35-8.99,3.01,.12-.36,8.99Zm-5.99-.23l-2.99-.11,.32-8.99,3.01,.11-.34,8.99Zm-5.99-.22l-2.99-.11,.31-8.99,3.01,.11-.33,8.99Zm-5.98-.21l-2.99-.1,.29-9,2.9,.1-.2,9Zm-5.98-.2l-2.99-.09,.28-9,2.99,.09-.28,9Zm-5.97-.18l-2.99-.09,.27-9,2.99,.09-.26,9Zm-5.98-.17l-3-.08,.25-9,3,.08-.25,9Zm-6-.17l-3-.08,.23-9,2.92,.08-.16,9Zm-6-.15l-3-.07,.22-9,3,.07-.23,9Zm-5.99-.15l-3-.07,.2-9,3,.07-.21,9Zm-5.99-.14l-3-.06,.19-9,3,.06-.19,9Zm-5.99-.13l-3-.06,.18-9,3,.06-.18,9Zm-6-.12l-3-.06,.17-9,3,.06-.18,9Zm-5.99-.11l-3-.05,.15-9,3,.05-.16,9Zm-5.99-.1l-3-.05,.14-9,3,.05-.14,9Zm-6-.09l-3-.04,.13-9,3,.04-.13,9Zm-6-.09l-3-.04,.12-9,3,.04-.12,9Zm-5.99-.08l-3-.04,.11-9,3,.04-.11,9Zm-6-.07l-3-.03,.1-9,3,.03-.11,9Zm-5.99-.06l-3-.03,.09-9,3,.03-.09,9Zm-6-.06l-3-.03,.07-9,3,.03-.08,9Zm-6-.05l-3-.02,.06-9,3,.02-.07,9Zm-6-.04l-3-.02,.05-9,3.01,.02-.06,9Zm-5.99-.04h-3l.04-9.01h3l-.04,9.01Zm-44.96,0l-.08-9,3.01-.02,.05,9-2.99,.02Zm38.96-.03h-3l.03-9.01h3.01l-.04,9.01Zm-32.98,0l-.04-9h3l.03,8.99h-3Zm26.98,0h-3l.02-9.01h3.01l-.03,9.01Zm-20.99,0l-.02-9h3l.02,8.99h-3Zm14.99,0h-3v-9h3.01v9Zm-9,0v-9h3v9h-3Z"/><path class="cls-3" d="M838.65,693.24l-2.46-1.08-5.88-2.31c.08-.21,.15-.38,1.42-3.04l8.12,3.88c-.67,1.41-1.09,2.28-1.2,2.54Zm2.5-5.26l-8.12-3.89,1.3-2.72,8.11,3.9-1.3,2.71Zm2.61-5.42l-8.11-3.9,1.31-2.71,8.11,3.91-1.3,2.71Zm2.61-5.42l-8.11-3.9,1.3-2.7,8.12,3.89-1.3,2.72Zm2.6-5.42l-8.11-3.89,1.3-2.71,8.12,3.89-1.3,2.71Zm2.6-5.42l-8.12-3.89,1.3-2.71,8.11,3.9-1.3,2.71Zm2.6-5.42l-8.12-3.88,1.3-2.71,8.12,3.88-1.3,2.71Zm2.6-5.42l-8.12-3.88,1.3-2.71,8.12,3.88-1.3,2.71Zm2.59-5.43l-8.12-3.88,1.29-2.71,8.12,3.88-1.29,2.71Zm2.59-5.43l-8.13-3.87,1.29-2.71,8.13,3.87-1.29,2.71Zm2.58-5.42l-8.13-3.87,1.29-2.71,8.13,3.86-1.29,2.71Zm2.58-5.43l-8.13-3.86,1.28-2.71,8.13,3.85-1.29,2.72Zm2.58-5.44l-8.14-3.85,1.29-2.72,8.13,3.86-1.28,2.71Zm2.56-5.42l-8.14-3.84,1.28-2.71,8.14,3.83-1.28,2.72Zm2.57-5.44l-8.14-3.83,1.28-2.73,8.14,3.83-1.28,2.73Zm2.56-5.45l-8.15-3.82,1.27-2.71,8.15,3.81-1.28,2.73Zm2.55-5.45l-8.15-3.81,1.27-2.72,8.15,3.81-1.27,2.72Zm2.54-5.45l-8.16-3.8,1.27-2.72,8.16,3.8-1.27,2.72Zm2.53-5.46l-8.17-3.79,1.26-2.72,8.17,3.78-1.26,2.73Zm2.52-5.46l-8.17-3.77,1.25-2.72,8.18,3.75-1.26,2.74Zm2.51-5.47l-8.18-3.75,1.25-2.73,8.19,3.74-1.25,2.73Zm2.5-5.48l-8.19-3.73,1.24-2.73,8.2,3.72-1.25,2.74Zm2.49-5.49l-8.21-3.7,1.23-2.73,8.21,3.68-1.24,2.75Zm2.47-5.5l-8.22-3.66,1.22-2.74,8.23,3.65-1.22,2.75Zm2.44-5.52l-8.24-3.62,1.2-2.74,8.25,3.59-1.21,2.77Zm2.41-5.54l-8.27-3.55c.4-.94,.79-1.86,1.17-2.75l8.29,3.52c-.38,.9-.78,1.83-1.19,2.78Zm2.37-5.59l-8.31-3.46c.4-.96,.78-1.87,1.13-2.75l8.33,3.4c-.37,.9-.75,1.83-1.16,2.81Zm2.29-5.66l-8.38-3.29c.24-.61,.46-1.2,.68-1.75l.38-1,8.42,3.19-.38,1.01c-.22,.59-.46,1.2-.71,1.84Zm2.16-5.63l-8.4-3.24c.36-.94,.73-1.88,1.09-2.81l8.38,3.27c-.36,.92-.72,1.85-1.08,2.78Zm2.17-5.55l-8.37-3.31c.37-.94,.74-1.88,1.12-2.8l8.36,3.34c-.37,.92-.73,1.84-1.1,2.77Zm2.21-5.53l-8.34-3.38c.38-.94,.76-1.87,1.14-2.79l8.33,3.41c-.38,.92-.75,1.84-1.12,2.76Zm2.26-5.52l-8.32-3.44c.39-.93,.77-1.86,1.16-2.78l8.3,3.47c-.38,.91-.76,1.83-1.14,2.75Zm2.3-5.51l-8.29-3.49,1.17-2.77,8.28,3.52-1.16,2.75Zm2.33-5.5l-8.27-3.54,1.19-2.77,8.26,3.57-1.18,2.74Zm2.37-5.49l-8.26-3.58,1.2-2.76,8.25,3.6-1.19,2.74Zm2.39-5.48l-8.24-3.61,1.2-2.75,8.24,3.61-1.2,2.75Zm2.41-5.48l-8.23-3.63,1.21-2.74,8.23,3.63-1.21,2.74Zm2.42-5.48l-8.23-3.63,1.21-2.74,8.24,3.63-1.21,2.75Zm2.42-5.49l-8.24-3.62,1.21-2.75,8.24,3.63-1.21,2.75Zm2.42-5.51l-8.25-3.61,1.2-2.75,8.25,3.61-1.2,2.75Zm2.4-5.52l-8.26-3.58,1.18-2.74,8.27,3.56-1.19,2.76Zm2.38-5.53l-8.28-3.53,1.17-2.74,8.29,3.51-1.17,2.76Zm2.34-5.54l-8.3-3.47c.38-.92,.76-1.83,1.14-2.75l8.32,3.44c-.38,.93-.77,1.86-1.16,2.79Zm2.3-5.58l-8.33-3.4c.37-.92,.75-1.84,1.12-2.76l8.35,3.36c-.38,.94-.76,1.87-1.14,2.8Zm2.25-5.6l-8.36-3.32c.36-.92,.73-1.84,1.09-2.76l8.38,3.27c-.37,.94-.74,1.88-1.11,2.82Zm2.2-5.63l-8.4-3.23c.35-.92,.71-1.85,1.06-2.78l8.42,3.18c-.36,.95-.72,1.89-1.08,2.83Zm2.14-5.66l-8.44-3.12c.34-.93,.68-1.86,1.02-2.79l8.46,3.08c-.35,.95-.69,1.89-1.04,2.84Zm2.06-5.69l-8.48-3.02c.33-.93,.66-1.86,.98-2.8l8.5,2.95c-.33,.96-.67,1.91-1.01,2.86Zm1.99-5.72l-8.52-2.9c.32-.93,.63-1.87,.95-2.82l8.54,2.85c-.32,.96-.64,1.92-.96,2.87Zm1.91-5.75l-8.56-2.78c.3-.93,.61-1.87,.91-2.82l8.58,2.71c-.31,.97-.62,1.93-.93,2.89Zm1.83-5.78l-8.6-2.66c.29-.94,.58-1.89,.87-2.84l8.62,2.6c-.29,.97-.59,1.94-.88,2.9Zm1.75-5.81l-8.64-2.53c.28-.94,.55-1.9,.82-2.85l8.65,2.47c-.28,.98-.56,1.95-.84,2.91Zm1.66-5.83l-8.67-2.4c.26-.95,.52-1.9,.78-2.86l8.69,2.34c-.26,.98-.53,1.96-.8,2.92Zm1.58-5.85l-8.71-2.28c.25-.95,.5-1.91,.74-2.87l8.72,2.21c-.25,.99-.5,1.96-.76,2.94Zm1.49-5.88l-8.74-2.16c.24-.95,.47-1.91,.7-2.88l8.75,2.09c-.24,.99-.48,1.97-.72,2.95Zm1.41-5.89l-8.77-2.04c.22-.96,.44-1.92,.66-2.89l8.78,1.97c-.22,.99-.45,1.98-.67,2.96Zm1.33-5.91l-8.79-1.91c.21-.96,.42-1.93,.62-2.91l8.8,1.86c-.21,.99-.42,1.98-.63,2.96Zm1.25-5.93l-8.82-1.79c.2-.97,.39-1.94,.58-2.92l8.83,1.75c-.2,.99-.39,1.98-.59,2.96Zm1.17-5.94l-8.84-1.69c.18-.96,.37-1.94,.55-2.92l8.85,1.62c-.18,1-.37,1.99-.56,2.98Zm1.1-5.96l-8.86-1.57c.17-.97,.34-1.95,.51-2.93l8.87,1.53c-.17,1-.35,1.99-.52,2.98Zm1.02-5.96l-8.88-1.47c.16-.97,.32-1.95,.48-2.93l8.89,1.42c-.16,1-.32,2-.49,2.99Zm.96-5.97l-8.89-1.37c.15-.98,.3-1.96,.45-2.94l8.9,1.33c-.15,1-.3,2-.45,2.99Zm.89-5.98l-8.91-1.27c.14-.98,.28-1.96,.42-2.95l8.91,1.24c-.14,1-.28,2-.42,2.99Zm.83-5.99l-8.92-1.19c.13-.98,.26-1.96,.38-2.95l8.93,1.13c-.13,1.01-.26,2.01-.39,3Zm.77-6l-8.94-1.08,.1-.82,8.94,1.07-.1,.83Z"/><path d="M768.77,790.63c-1.51,0-3.28-.34-5.01-1.44-4.49-2.87-6.76-9.66-6.76-20.18v-177.12l.02-.12c.07-.57,1.41-14.1-17.3-16.77-21.73-3.1-39.62-23.95-46.31-32.77l-1.23-1.62c-8.36-11.08-23.93-31.7-37.31-32.59-14.76-.98-68.52-1-69.06-1-5.07,.17-30.99,.71-36.34-5.72-5.88-7.06-9.12-15.49-12.26-23.64-3.8-9.88-7.39-19.22-15.24-23.92-15.17-9.1-71.52-33.4-84.18-34.73-66.11-6.91-144.95-5.01-145.74-4.99-3.88-.04-93.49-1.04-105.38-3.03-4.18-.7-8.21-11.29-18.66-67.25-.87-4.67-1.56-8.36-1.97-10.31-2.87-13.52-6.84-22.07-11.2-24.07-1.53-.7-3.08-.57-4.89,.42-4.61,2.51-6.95,6.53-9.21,10.41-2.81,4.83-5.72,9.83-12.75,9.83s-29.14-1.5-47.13-2.7c-10.4-.7-19.37-1.3-20.87-1.3-2.66,0-6.45-.34-8.72-3.27-3.12-4.03-2.67-11.19,1.79-28.36,5.77-22.24,22.14-48.73,44.45-54.3,8.25-2.06,14.46-3.4,25.52-3.23,10.84,.17,13.94,.17,13.97,.17v4s-3.14,0-14.03-.17c-10.56-.16-16.3,1.07-24.48,3.11-20.73,5.18-36.07,30.29-41.55,51.43-2.84,10.95-5.11,21.54-2.5,24.91,.62,.8,1.81,1.72,5.56,1.72,1.63,0,10.24,.58,21.14,1.31,16.98,1.14,40.24,2.69,46.86,2.69,4.5,0,6.37-2.83,9.29-7.84,2.42-4.15,5.16-8.86,10.75-11.91,2.93-1.6,5.78-1.78,8.47-.54,5.69,2.62,10.21,11.66,13.44,26.88,.42,1.99,1.12,5.7,1.99,10.4,2.79,14.97,11.25,60.29,15.6,64.07,12.48,1.91,103.55,2.93,104.47,2.94,.72-.02,79.83-1.92,146.19,5.01,14.17,1.48,71.61,26.75,85.82,35.27,9.03,5.42,12.86,15.38,16.91,25.92,3.02,7.85,6.14,15.96,11.6,22.52,3.01,3.62,21.23,4.69,33.21,4.28,2.29,.01,54.5,0,69.39,1,15.21,1.01,31.49,22.58,40.24,34.17l1.22,1.62c6.39,8.42,23.43,28.33,43.69,31.23,21.5,3.07,20.86,19.23,20.72,21.06v176.92c0,11.25,2.65,15.34,4.88,16.79,2.11,1.37,4.4,.72,5.09,.47,3.44-2.82,43.03-35.35,52.5-46.55,2.45-2.89,4.52-4.92,6.03-6.41,1.02-1,2.17-2.13,2.45-2.65-.5-.74-2.86-2.35-5.58-4.2-1.54-1.05-3.38-2.3-5.53-3.82-3.93-2.77-7.54-5.2-10.72-7.34-11.47-7.71-17.22-11.58-14.92-16.19,1.96-3.92,31.67-69.27,31.97-69.93,.77-1.69,77.11-169.27,87.98-194.95,20.02-47.33,23.08-78.3,25.77-105.62l.08-.8c2.01-20.39-7.35-22.21-19.21-24.52-2.06-.4-4.19-.81-6.29-1.34-8.25-2.06-7.19-17.61-6.07-34.08,.2-2.99,.42-6.09,.55-8.96,.69-14.42-8.15-16.1-25.15-18.05-21.12-2.42-87.88-3.57-136.62-4.41-9.07-.16-17.61-.3-25.27-.45-52.34-.98-212.28,4.94-213.89,5H180v-4H509c1.54-.06,161.59-5.99,214.04-5,7.65,.14,16.2,.29,25.26,.45,48.82,.84,115.69,2,137.01,4.43,15.22,1.74,29.59,3.38,28.69,22.21-.14,2.91-.35,6.02-.56,9.04-.83,12.1-1.96,28.67,3.05,29.92,2,.5,4.07,.9,6.08,1.29,12.19,2.37,24.79,4.83,22.42,28.84l-.08,.8c-2.72,27.61-5.81,58.9-26.07,106.79-10.88,25.73-87.25,193.36-88.02,195.05-1.23,2.69-30.04,66.08-32.03,70.07-.73,1.46,7.54,7.02,13.58,11.08,3.2,2.15,6.82,4.59,10.79,7.39,2.13,1.51,3.95,2.74,5.47,3.78,5.06,3.44,7.15,4.87,7.36,7.17,.18,2.05-1.27,3.47-3.68,5.84-1.46,1.43-3.45,3.39-5.78,6.14-10.09,11.93-51.5,45.82-53.26,47.26l-.2,.16-.23,.11c-.12,.05-1.8,.81-4.07,.81ZM187.64,407.14h0Z"/><g><circle class="cls-3" cx="609" cy="505" r="10"/><path d="M609,516c-6.07,0-11-4.93-11-11s4.93-11,11-11,11,4.93,11,11-4.93,11-11,11Zm0-20c-4.96,0-9,4.04-9,9s4.04,9,9,9,9-4.04,9-9-4.04-9-9-9Z"/></g><g><circle class="cls-3" cx="113" cy="328" r="10"/><path d="M113,339c-6.07,0-11-4.93-11-11s4.93-11,11-11,11,4.93,11,11-4.93,11-11,11Zm0-20c-4.96,0-9,4.04-9,9s4.04,9,9,9,9-4.04,9-9-4.04-9-9-9Z"/></g></svg>