<?xml version="1.0" encoding="UTF-8"?><svg id="Silverstone_Detailed" xmlns="http://www.w3.org/2000/svg" viewBox="0 0 1000 1000"><defs><style>.cls-1,.cls-2{fill:#fff;}.cls-3{fill:#fae44a;}.cls-2{font-size:12.58px;}.cls-4{fill:#db4a25;}.cls-5,.cls-6{fill:#1bce20;}.cls-7{fill:#75e5fd;}.cls-6{stroke:#000;stroke-miterlimit:10;stroke-width:2px;}</style></defs><path d="m14.83,457.64c1.22,9.75,11.85,94.11,18.51,133.68.01.08.02.16.02.25,1.27,40.16,12.09,76.68,12.55,78.2l.38,1.29c.03.1.07.2.12.3l.74,1.53c30.85,61.69,92.71,85.32,105.7,89.7.11.04.2.08.3.13,46.63,25.67,72.12,18.86,80.99,14.67,4.03-1.52,11.74-5.27,18.75-13.33,7.64-8.82,16.17-24.92,13.45-51.54-1.39-13.5-7.62-25.05-18.05-33.45-17.83-14.37-43.75-16.09-58.49-15.73-1.49.04-2.48-1.55-1.77-2.86,3.08-5.71,9.3-13.98,16.24-20.51l.71-.65c.06-.05.12-.11.17-.17l87.12-101.99,1.07-1.24c1.71-1.97,5.15-5.94,9.77-11.28,19.04-22.02,65.34-75.78,84.05-99.18,8.84-11.06,14.37-15.88,17.06-17.85.38-.28.85-.41,1.32-.37,5.54.55,14.12,2.46,24.83,5.52,1.71.49,1.94,2.82.36,3.62-15.03,7.57-25.25,17.17-30.46,28.59-6.61,14.49-2.57,26.38-1.69,28.61l.91,2.32c.07.17.16.34.28.49l66.43,85.55.06.08c1.07,2.02,7.68,16.74-.74,58.13-5.87,28.88-3.61,52.36,6.73,69.8,6.82,11.51,15.36,17.11,20,19.48.08.04.15.08.22.13l81.15,57,.23.15c.32.22,34.56,23.58,64.2,44.92.86.62,2.05.44,2.69-.4l9.54-12.48,2.39-3.13,10.23-13.38-.05-.04c-.09-.07-.18-.14-.27-.2l-.18-.13c-30.21-21.8-65.37-45.79-66.83-46.79l-84.38-59.26c-.14-.1-.3-.18-.46-.24l-1.16-.42c-.14-.05-.27-.11-.39-.19-2.3-1.45-5.24-5.37-6.97-12.3-2.22-8.98-1.92-21.05.9-34.88,12.06-59.31-.84-82.56-6.89-89.74l-59.66-76.82c-.56-.73-.55-1.75.04-2.45,2.34-2.78,7.96-7.53,21.06-12.28.05-.02.1-.03.14-.05l17.22-4.92c11.82-3.38,20.08-13.9,20.54-26.18.45-12.27-6.97-23.36-18.48-27.61-11.17-4.12-49.23-17.65-71.01-18.94-.04,0-.07,0-.11-.01-5.78-.88-11.99.46-18.44,4.01-8.88,4.89-18.81,14.27-30.34,28.68-17.89,22.36-63.41,75.24-82.15,96.94-5.24,6.06-9.08,10.51-10.8,12.48l-.99,1.15-85.97,100.63s-.08.09-.12.13c-2.71,2.63-9.34,9.37-15.49,17.78-12.67,17.4-16.8,33.09-12.29,46.64,4.31,12.93,11.36,21.16,20.97,24.44,6.6,2.27,12.42,1.42,16.27.23.15-.05.29-.07.45-.08,10.06-.59,28.7.26,37.2,7.14,2.43,1.96,3.56,4.11,3.9,7.46,1.82,17.68-4.38,23.2-6.73,24.64-.22.14-.46.22-.72.26l-.84.13c-.27.04-.52.14-.75.28l-1.24.78c-.2.13-.42.22-.66.27-3.33.66-17.73,2-47.12-14.54l-1.63-.93c-.13-.07-.27-.13-.42-.18l-1.82-.54c-2.35-.75-57.71-18.88-83.9-69.13-.07-.13-.12-.26-.16-.4-1.86-6.81-9.73-37.27-10.52-68.02l-.03-1.11c0-.09,0-.17-.02-.26l-.22-1.38c-6.7-39.28-18.46-133.1-18.56-133.96l-.17-1.05c-2.93-15.99-3.26-51.98,14.48-61.08,32.95-16.91,56.59-27.67,106.92-34.46,42.47-5.71,107.11-10.1,125.91-11.31,8.57-.55,16.68-2.86,24.12-6.86,6.57-3.5,13.48-8.27,20.52-14.14,7.99-6.65,24.24-5.85,30.22-4.93.1.02.2.04.29.07,11.7,3.7,31.14,10.37,37.54,13.85,8.17,4.46,18.53,5.93,30.78,4.37,9.53-1.23,18.46-5.19,25.84-11.47,4.9-4.16,14.63-11.92,24.7-17.04,8.75-4.46,13.45-4.68,14.81-4.44.18.03.35.11.51.19,19.18,10.4,19.77,11.32,25.22,19.88,1.03,1.63,2.33,3.79,3.69,6.03,12.02,19.94,24.07,38.45,39.32,46.07,3.81,1.91,21.27,10.56,54.96,27.25,48.53,24.04,115.18,57.03,141.87,70.23,7.16,3.55,11.44,5.67,11.65,5.77.03,0,.24.12.61.3,10.49,5.3,37.96,19.41,66.52,35.71,64.34,36.71,72.11,49.31,72.38,49.77l.13.24c9.92,16.96,13.71,28.79,11.92,37.24-1.82,8.57-10.52,17.51-26.62,27.35-.08.05-.16.09-.25.13-9.36,4.04-39.88,18.04-57.79,35.97-5.65,5.64-17.56,15.72-30.17,26.4-14.06,11.89-29.99,25.38-40.17,35.21-6.88,6.64-8.69,9.56-9.76,11.3-.29.46-.49.79-.71,1.06-4.59,5.66-6.68,11.4-6.05,16.62.72,5.82,4.92,9.9,8.62,13.49l.87.84c.06.06.12.12.17.19l10.76,13.61c.38.49.52,1.12.36,1.72-.57,2.21-2.7,5.64-7.32,10.01-19.7,18.63-36.03,24.94-44.7,27.09l.04-.03-7.52,1.06c-.17.02-.35.03-.52,0-2.88-.4-13.17-2.64-28.01-15.11-5.2-4.35-12.95-10.35-23.06-17.83-.86-.64-2.08-.46-2.73.39l-8.82,11.66-2.37,3.14-9.59,12.68c-.66.87-.47,2.11.4,2.75,9.57,7.08,16.8,12.65,21.47,16.58,27.29,22.92,48.12,24.29,53.81,24.18h.1c6.17,0,38.91-1.87,77.84-38.7,18.37-17.38,20.54-33.76,19.12-44.43-1.2-9.07-5.24-17.5-12.02-25.11-.74-.83-.68-2.09.17-2.81,21.62-18.39,54.68-46.63,66.88-58.84,12.24-12.23,38.04-24.59,46.92-28.32l1.04-.42c.08-.03.16-.07.24-.12l1.23-.71c26.9-16.15,41.42-33.01,45.67-53.06,5.04-23.83-6.08-46.98-16.32-64.48-5.8-10.11-20.91-26.54-86.77-64.1-35.78-20.42-68.54-36.76-68.86-36.92-.58-.3-18.48-9.16-43.27-21.42-32.38-16.03-76.9-38.07-111.66-55.28l-6.79-3.36c-24.43-12.11-42.87-21.26-46.74-23.18-4.39-2.19-12.34-12.83-23.64-31.59l-.62-1.02c-1.33-2.19-2.48-4.09-3.55-5.77-9.23-14.52-13.98-19.31-39.51-33.14-5.83-3.15-12.39-4.74-19.5-4.74-18.15,0-39.49,10.31-63.44,30.63-1.72,1.47-3.75,2.39-5.87,2.67-4.23.54-6.54.2-7.34.02-.18-.04-.34-.1-.5-.18-12.73-6.82-44.12-16.61-45.44-17.04l-.87-.28-1.11-.23c-3.94-.79-39.22-7.1-63.25,12.92-5.08,4.22-9.82,7.51-14.09,9.8-2.55,1.37-5.4,2.16-8.47,2.37-19.17,1.24-85.11,5.72-128.55,11.6-51.75,6.94-78.63,17.44-119.31,38.32-14.68,7.53-32.88,24.62-36.3,63.21-1.64,18.56.93,35.11,1.49,38.35Zm2.43-38c3.26-36.81,20.38-52.98,34.17-60.06,40.27-20.68,66.88-31.05,118.06-37.93,43.31-5.84,109.13-10.33,128.29-11.56,3.63-.26,7.02-1.21,10.06-2.84,4.5-2.4,9.46-5.85,14.74-10.23,22.63-18.87,56.2-12.85,59.96-12.1l.79.16.78.25c1.33.41,32.86,10.26,45.04,16.91l.14.06c1.04.47,4.27,1.07,9.78.36,2.88-.37,5.63-1.6,7.92-3.57,23.22-19.69,43.71-29.69,60.9-29.69,6.44,0,12.37,1.44,17.63,4.27,24.71,13.38,29.27,17.97,38.06,31.79,1.05,1.64,2.19,3.52,3.51,5.7l.62,1.02c8.19,13.62,18.47,29.7,25.25,33.08,3.87,1.93,22.31,11.08,46.75,23.18l6.78,3.36c34.77,17.22,79.28,39.26,111.67,55.29,24.78,12.27,42.68,21.12,43.26,21.41.32.16,32.97,16.45,68.67,36.82,65.03,37.08,79.75,52.96,85.31,62.66,9.9,16.9,20.64,39.18,15.87,61.68-4,18.9-17.93,34.95-43.83,50.5l-.82.49c-.08.05-.16.09-.25.12l-.91.38c-9.11,3.82-35.53,16.5-48.2,29.17-12.71,12.71-48.44,43.13-69.81,61.31h0c-.87.75-.92,2.08-.11,2.89l.02.02c7.88,7.74,12.51,16.45,13.76,25.84,1.3,9.77-.76,24.82-17.92,41.07-37.86,35.8-69.25,37.61-75.15,37.61h-.14c-5.4.12-25.01-1.22-51.24-23.25-4.51-3.78-11.3-9.04-20.23-15.67-.88-.65-1.06-1.89-.39-2.76l7.27-9.53,2.4-3.14,6.45-8.45c.65-.85,1.86-1.02,2.72-.38,9.33,6.92,16.52,12.5,21.39,16.58,12.8,10.75,22.65,14.33,27.57,15.52l-.96.85,5.61-.28c4.01-.2,25.49-2.55,53.73-29.26,3.53-3.33,9.34-9.7,8.67-14.9l-.07-.54-12.16-15.38-.17-.19c-.34-.34-.71-.69-1.06-1.03-3.39-3.3-6.91-6.7-7.45-11.13-.64-5.23,2.47-10.32,5.18-13.67.38-.47.67-.93,1-1.48.98-1.58,2.63-4.24,9.15-10.53,10.09-9.75,25.97-23.18,39.97-35.05,12.68-10.73,24.65-20.86,30.4-26.63,17.59-17.59,47.94-31.42,56.82-35.23l.25-.13c17.23-10.49,26.61-20.32,28.67-30.05,2.01-9.46-1.93-22.18-12.33-39.97l-.13-.23c-1.31-2.27-11.05-15.43-73.87-51.29-28.64-16.34-56.19-30.47-66.7-35.79l-.56-.29c-.28-.14-4.55-2.25-11.73-5.8-26.68-13.21-93.34-46.2-141.86-70.23-33.69-16.68-51.14-25.34-54.95-27.25-14.31-7.14-26-25.16-37.71-44.58-1.36-2.27-2.68-4.45-3.73-6.11-5.94-9.33-7.25-10.71-26.85-21.34-2.43-1.32-8.64-.88-18.81,4.31-10.43,5.29-20.43,13.27-25.47,17.55-6.79,5.77-15.02,9.42-23.78,10.56-11.41,1.45-20.96.13-28.4-3.93-6.7-3.64-26.71-10.51-38.52-14.23l-.28-.06c-7.73-1.26-24.73-1.68-33.65,5.73-6.84,5.71-13.52,10.33-19.86,13.71-6.93,3.73-14.51,5.87-22.52,6.38-18.83,1.22-83.58,5.62-126.18,11.35-50.95,6.87-74.86,17.74-108.18,34.85-21.29,10.93-19.03,51.83-16.57,65.24l.15.92c.09.76,11.8,94.34,18.59,134.09l.16.95c.01.09.02.17.02.26l.03.97c.8,31.07,8.45,60.95,10.77,69.37l.15.38c26.85,51.98,83.97,70.68,86.46,71.47l1.39.41c.15.04.29.1.42.18l1.25.71c32.72,18.4,48.02,15.52,50.76,14.76l.28-.08,1.34-.86c.23-.15.49-.25.76-.29l.96-.14.26-.12c2.81-1.33,11.78-7.33,9.57-28.92-.45-4.39-2.11-7.51-5.35-10.12-11.77-9.54-37.51-8.16-40.4-7.98l-.25.02-.25.08c-3.27,1.08-8.38,1.95-14.21-.06-8.39-2.87-14.62-10.26-18.51-21.96-4.09-12.29-.15-26.77,11.73-43.08,6.06-8.31,12.63-14.94,15.17-17.4l.07-.07,86.15-100.83.98-1.13c1.71-1.99,5.56-6.42,10.79-12.48,18.76-21.72,64.32-74.64,82.25-97.06,11.2-14,20.73-23.06,29.15-27.7,5.73-3.14,11.14-4.34,16.09-3.55l.2.03c21.21,1.2,58.95,14.63,70.02,18.72,9.91,3.65,16.3,13.21,15.91,23.76-.4,10.57-7.51,19.64-17.69,22.55l-17.36,4.96-.13.04c-18.88,6.82-23.73,13.95-24.94,16.69h0c-.29.66-.2,1.43.24,1.99l61.41,79.09c17.7,20.99,9.14,71.49,6.09,86.47-6.73,33.13,1.91,47.91,8.19,51.51.1.06.2.1.31.14l1.16.44c.15.06.3.13.43.23l83.98,58.99c1.44.99,34.44,23.5,63.89,44.67.89.64,1.08,1.9.41,2.77l-6.63,8.69-2.4,3.13-7.81,10.24-.46.61c-29.68-21.36-63.96-44.75-64.25-44.95l-81.57-57.3-.26-.15c-4.19-2.1-12.19-7.24-18.62-18.09-9.83-16.57-11.93-39.12-6.26-67.01,8.7-42.76,1.75-58.26.27-60.94l-.07-.12-66.34-85.47c-.11-.15-.2-.31-.27-.48l-.71-1.8c-.78-1.98-4.34-12.49,1.61-25.54,5.81-12.76,18.58-23.14,37.93-30.87l.04-.02c1.71-.68,1.61-3.13-.14-3.68h-.04c-9.71-3.05-27.45-8.23-37.23-8.84l-.64-.04-.54.34c-2.71,1.74-8.81,6.57-19.14,19.5-18.67,23.34-64.93,77.06-83.95,99.06-4.61,5.34-8.06,9.32-9.77,11.28l-1.08,1.25-87.07,101.91-.63.59c-8.78,8.25-18.96,21.92-19.52,28.32h0c-.11,1.2.89,2.21,2.09,2.13h0c36.16-2.53,55.17,9.36,61.66,14.6,9.58,7.72,15.32,18.36,16.59,30.78,2.59,25.23-5.37,40.34-12.5,48.57-6.47,7.45-13.58,10.88-17.24,12.26l-.15.06c-8.27,3.93-32.43,10.36-77.78-14.7l-.33-.15c-11.99-3.99-73.33-26.99-103.75-87.83l-.52-1.03c-.05-.11-.1-.22-.13-.33l-.32-1.11c-.46-1.52-11.18-37.72-12.4-77.47l-.03-.27c-6.65-39.45-17.33-124.27-18.53-133.81v-.09c-.53-3.06-3.07-19.23-1.47-37.38Z"/><g id="Start_Line"><polygon points="620.28 815.47 635.23 813.22 635.8 816.9 624.52 818.61 626.21 829.88 622.54 830.44 620.28 815.47"/><polygon points="613.98 820.91 610.3 821.47 608.73 811.07 608.04 806.51 623 804.25 623.55 807.93 612.27 809.64 612.53 811.33 613.98 820.91"/><polygon points="601.75 811.94 598.06 812.5 597.73 810.32 595.81 797.54 610.76 795.29 611.32 798.96 600.04 800.67 601.54 810.58 601.75 811.94"/></g><polygon points="628.08 834.54 641.69 816.69 643.53 814.26 644.6 812.88 644.91 812.46 645.84 811.24 646.46 810.44 665.34 785.68 665.48 785.5 665.51 785.47 665.67 785.26 668.84 787.69 670.53 788.96 670.35 789.19 670.31 789.24 670.24 789.32 651.35 814.08 650.54 815.15 649.85 816.06 649.47 816.56 648.34 818.03 646.59 820.33 632.92 838.24 629.73 835.8 628.08 834.54"/><path class="cls-3" d="m633.35,401.52l13.99-31.48c61.54,30.47,153.59,76.03,154.93,76.7,1.43.71,33.84,16.94,68.77,36.87,65.33,37.26,80.34,53.45,86.04,63.38,10.08,17.22,20.99,39.95,16.09,63.09-4.13,19.48-18.35,35.92-44.76,51.78l-1.07.64-1.16.47c-8.99,3.77-35.08,16.26-47.57,28.75-12.55,12.56-47.52,42.36-69.92,61.42,8.15,8.02,13.02,17.13,14.33,26.99,1.36,10.22-.76,25.94-18.52,42.75-38.26,36.19-70.05,38.16-76.5,38.16h-.1c-5.52.12-25.78-1.23-52.55-23.72-5.49-4.6-13.79-10.93-23.32-17.95l.73-.95,20.17-26.39c9.92,7.31,18.65,13.98,24.57,18.94,16.29,13.69,27.47,15.41,29.57,15.62l1.53-.22-.26.23c3.19-.16,24.42-2.18,52.48-28.72,5.55-5.24,8.48-10.06,8.07-13.22l-11.82-14.96c-3.83-3.76-8.4-7.69-9.09-13.34-.69-5.65,2.31-11.08,5.62-15.15,1.31-1.61,1.61-3.8,10.31-12.19,19.24-18.58,58.31-49.59,70.36-61.64,18.21-18.22,50-32.46,57.43-35.66,16.74-10.19,25.83-19.62,27.77-28.77,1.9-8.95-1.96-21.23-12.15-38.64l-.09-.17c-.77-1.33-9.34-14.15-73.14-50.56-34.12-19.47-66.84-35.85-67.16-36.03-1.29-.64-92.02-45.54-153.58-76.03Z"/><path class="cls-4" d="m276.52,499.73c21.14-24.47,64.88-75.35,82.2-97,11.37-14.21,21.1-23.43,29.75-28.19,7.21-3.95,13.08-4.45,17.34-3.77,21.39,1.21,59.24,14.65,70.59,18.84,10.71,3.95,17.62,14.28,17.19,25.69-.43,11.44-8.11,21.22-19.11,24.36l-17.36,4.96c-16.9,6.11-22.44,12.52-23.81,15.64l61.36,79.02c5.49,6.51,18.51,29.12,6.51,88.13-6.59,32.41,1.81,46.43,7.36,49.48l1.52.55,84.38,59.26c3,2.05,37.15,25.37,66.81,46.77v.8s-20.51,26.88-20.51,26.88c-29.98-21.63-65.27-45.71-65.8-46.06l-.2-.14-81.38-57.16c-4.43-2.21-12.77-7.59-19.44-18.85-10.08-17.01-12.27-40.01-6.49-68.4,8.72-42.91,1.38-57.96.47-59.59l-.15-.2-66.44-85.58-.91-2.32c-.83-2.1-4.62-13.33,1.65-27.08,6.05-13.27,19.15-23.96,38.99-31.88-14.65-4.58-28.84-8.25-36.76-8.74-2.34,1.5-8.29,6.09-18.67,19.06-18.19,22.74-63.13,74.97-84,99.12l-25.09-23.62Z"/><path class="cls-7" d="m15.3,419.47c3.33-37.69,21-54.33,35.23-61.63,40.45-20.76,67.18-31.21,118.69-38.13,43.7-5.9,109.34-10.35,128.41-11.58,3.32-.23,6.45-1.09,9.28-2.61,4.43-2.37,9.28-5.75,14.41-10.01,23.35-19.47,57.76-13.28,61.6-12.51l.9.18.87.28c3.38,1.05,33.44,10.52,45.4,17.06.59.27,3.36.9,8.71.21,2.51-.32,4.9-1.41,6.91-3.12,27.15-23.04,47.45-30.16,62.17-30.16,7.63,0,13.76,1.92,18.56,4.51,25.12,13.6,29.78,18.31,38.78,32.46,1.23,1.93,2.58,4.17,4.15,6.77,4.74,7.88,17.36,28.79,24.44,32.33,4.22,2.1,25.77,12.79,53.53,26.55l-13.99,31.48c-28.43-14.08-50.64-25.08-54.95-27.25-14.77-7.38-26.66-25.65-38.52-45.33-1.46-2.42-2.7-4.49-3.71-6.07-5.61-8.8-6.32-9.92-26.14-20.66-1.43-.78-6.8-.86-16.97,4.33-10.22,5.19-20.11,13.06-25.08,17.29-7.1,6.04-15.69,9.84-24.82,11.02-11.82,1.5-21.78.11-29.58-4.15-6.59-3.58-26.45-10.39-38.17-14.09-6.29-1.02-23.32-1.97-32.08,5.31-6.91,5.77-13.7,10.47-20.18,13.93-7.2,3.87-15.05,6.09-23.32,6.62-18.8,1.21-83.43,5.6-126.04,11.33-50.66,6.83-74.42,17.65-107.55,34.65-20.2,10.38-17.92,50.1-15.52,63.19l.16,1c.11.94,11.83,94.51,18.57,133.99l.21,1.22.03,1.24c.81,31.43,8.81,62.06,10.7,68.89,26.96,52.2,84.68,70.3,85.26,70.49l1.84.54,1.63.93c32.19,18.11,46.9,15.24,49.26,14.58l1.79-1.14,1.5-.23c2.12-1,10.56-6.33,8.45-26.94-.39-3.86-1.78-6.5-4.63-8.79-9.58-7.76-29.97-8.12-39.03-7.53-4.38,1.45-9.84,1.87-15.47-.07-9-3.08-15.64-10.89-19.74-23.2-4.31-12.92-.27-28.01,12.01-44.86,6.28-8.6,13.11-15.44,15.39-17.66l86.09-100.76c.18-.21,4.71-5.44,11.78-13.62l25.09,23.62c-6.05,7-10.08,11.65-10.84,12.52l-87.14,102-.71.66c-9.44,8.87-18.45,21.85-18.91,27.05,11.11-.78,42.74-1.33,63.03,15.02,10,8.06,15.99,19.16,17.32,32.12,2.66,25.95-5.59,41.53-12.97,50.06-6.8,7.82-14.27,11.39-18.03,12.81-8.29,3.93-33.26,10.84-79.58-14.75-12.08-4.02-74.14-27.32-104.89-88.81l-.68-1.35-.42-1.45c-.47-1.57-11.26-38.27-12.48-77.97-6.72-39.84-17.57-126.12-18.54-133.89-.57-3.32-3.1-19.52-1.48-37.89Z"/><path d="m28.01,433.48c.2,1,.35,2,.51,3,2.48,16.4,15.33,101.94,24.24,176.74,9.49,79.68,38.86,95.32,42.26,96.88,3.82,2.98,59.42,45.74,109.9,53.36,15.49,2.33,27.2-.51,34.81-8.48,13.77-14.39,8.94-39.98,8.74-40.98-.05-.33-5.38-32.75-41.26-32.75-1.16,0-2.36.03-3.58.1-18.27,1.04-27.6-.08-31.23-3.77-2.32-2.35-2.53-5.97-2.1-11.83.91-12.91,16.03-29.12,16.19-29.28l.08-.09c1.79-2.14,179.2-214.64,194.75-233.11,12.57-14.92,13.74-14.73,33.41-11.3,3.72.64,7.93,1.38,12.98,2.14,30.27,4.58,44.97,17.12,46.05,18.08.05.1.15.39-.03.93-.59,1.86-4.28,6.99-25.73,14.56-21.23,7.5-30.46,20.61-31.93,29.56-1.03,6.34.65,12.99,4.62,18.24l55.83,73.62c6.48,8.56,9.91,19.44,10.8,34.25.83,13.77-1.22,27.99-6.1,42.28-6.2,18.14-4.33,35.8,5.71,54,3.78,6.87,9.26,12.83,15.85,17.25l62.79,42.16c3.2,2.26,44.1,31.3,83.02,58.55.56.39,1.11.79,1.67,1.17l2.39-3.13c-.55-.39-1.1-.79-1.66-1.17-40.11-28.08-82.41-58.11-83.16-58.64l-62.85-42.2c-6.07-4.08-11.12-9.57-14.6-15.89-6.04-10.96-13.18-28.15-5.44-50.82,5.05-14.77,7.17-29.51,6.31-43.79-.94-15.62-4.62-27.19-11.6-36.38l-55.83-73.63c-3.32-4.38-4.74-9.93-3.88-15.23,1.39-8.51,11.01-20,29.36-26.47,17.54-6.2,27.07-12.12,28.31-17.61.45-2-.27-3.58-1.07-4.38-.62-.58-15.57-14.24-48.26-19.2-5.02-.76-9.21-1.49-12.91-2.12-20.78-3.62-23.52-3.47-37.09,12.64-15.49,18.39-191.31,228.99-194.73,233.08-1.09,1.18-16.2,17.58-17.21,31.66-.4,5.7-.46,11.12,3.24,14.87,4.62,4.69,14.23,6.08,34.25,4.94,35.48-2.03,40.54,28.03,40.75,29.39.05.25,4.64,24.7-7.72,37.6-6.68,6.97-17.23,9.42-31.37,7.29-51-7.69-107.69-52.26-108.26-52.71l-.22-.17-.26-.11c-.3-.13-30.57-13.7-40.1-93.83-8.91-74.84-21.78-160.45-24.27-176.86-.16-1.05-.33-2.1-.53-3.16-.78-3.98-2.62-18.26,5.97-34.6,11.26-21.43,35.31-37.2,71.48-46.86,84.44-22.54,189.24-23.52,192.23-23.54,1.38.06,16.26.34,32.95-17.34,15.68-16.59,46.87-7.43,47.13-7.36l48.89,16.62c2.24,1.53,12.99,6.03,42.49-17.94l.3-.3c.58-.73,14.47-17.74,41.47-14.03,26.69,3.68,44.94,44.39,45.65,46,.58,1.56,8.7,22.61,28.56,31.55,19.42,8.74,163.75,78.95,165.21,79.66,1.24.58,124.16,59.27,161.9,90.24,39.78,32.64,40.7,50.82,37.66,72.97-3.54,25.8-38.99,40.35-46.06,43-.83.3-1.66.57-2.46.81-4.44,1.33-30.3,11.63-104.27,83.82l-4.04,3.09-.2.18c-1.49,1.48-3.38,2.96-5.21,4.41-1.49,1.16-3.01,2.36-4.34,3.57-1.65,1.5-2.53,3.66-2.47,6.07.14,5.72,5.28,12.83,15.32,21.11,3.63,3,5.34,6.56,5.22,10.87-.47,17.79-31.39,40.89-31.72,41.13-.35.28-35.56,26.61-53.86,15.63-7.06-4.24-28.95-19.28-53.99-36.75-.5-.34-1-.7-1.51-1.04l-2.37,3.14c.49.35.98.7,1.48,1.04,25.12,17.52,47.14,32.64,54.37,36.97,20.58,12.35,56.74-14.7,58.25-15.84,1.34-.99,32.77-24.47,33.3-44.17.15-5.53-2.09-10.24-6.66-14.01-11.94-9.87-13.82-15.62-13.89-18.17-.03-1.29.37-2.32,1.19-3.07,1.22-1.11,2.64-2.22,4.12-3.39,1.89-1.48,3.84-3.01,5.47-4.62l4.03-3.08.19-.16c73.37-71.63,98.45-81.66,102.73-82.95.86-.26,1.78-.54,2.7-.9,4.3-1.61,15.44-6.19,25.95-13.74,13.39-9.63,21-20.54,22.63-32.41,3.72-27.09-1.18-45.45-39.06-76.55-38.11-31.26-161.46-90.15-162.68-90.74-1.47-.71-145.83-70.93-165.31-79.69-18.65-8.4-26.42-29.16-26.5-29.38l-.04-.1c-.79-1.81-19.47-44.34-48.76-48.38-2.84-.39-5.56-.57-8.14-.57-22.9,0-35.25,14-36.8,15.88-28.97,23.49-37.6,17.64-37.62,17.63l-.3-.26-49.62-16.87c-1.38-.42-33.83-9.98-51.18,8.4-15.79,16.71-29.78,16.11-29.92,16.1h-.14c-1.06,0-107.55.78-193.29,23.68-37.27,9.95-62.15,26.38-73.94,48.83-9.19,17.48-7.19,32.88-6.35,37.18Z"/><path class="cls-5" d="m608.54,327.87l2.69,1.32-3.97,8.08-2.69-1.32,3.96-8.08Zm5.38,2.64l2.69,1.32-3.96,8.08-2.69-1.32,3.96-8.08Zm5.39,2.64l2.69,1.32-3.96,8.08-2.69-1.32,3.97-8.08Zm5.38,2.64l2.69,1.32-3.96,8.08-2.7-1.32,3.97-8.08Zm5.38,2.64l2.69,1.32-3.96,8.08-2.69-1.32,3.97-8.08Zm5.38,2.64l2.69,1.32-3.96,8.08-2.69-1.32,3.96-8.08Zm5.39,2.64l2.69,1.32-3.96,8.08-2.69-1.32,3.97-8.08Zm5.39,2.64l2.69,1.32-3.96,8.08-2.69-1.32,3.96-8.08Zm5.38,2.64l2.69,1.32-3.96,8.08-2.69-1.32,3.96-8.08Zm5.39,2.64l2.69,1.32-3.96,8.08-2.69-1.32,3.96-8.08Zm5.39,2.64l2.69,1.32-3.96,8.08-2.69-1.32,3.96-8.08Zm5.38,2.64l2.69,1.32-3.96,8.08-2.69-1.32,3.96-8.08Zm5.39,2.64l2.69,1.32-3.96,8.08-2.7-1.32,3.96-8.08Zm5.39,2.64l2.69,1.32-3.96,8.08-2.7-1.32,3.96-8.08Zm5.38,2.64l2.69,1.32-3.96,8.08-2.69-1.32,3.96-8.08Zm5.39,2.64l2.69,1.32-3.96,8.08-2.69-1.32,3.96-8.08Zm5.39,2.64l2.69,1.32-3.96,8.08-2.69-1.32,3.96-8.08Zm5.39,2.64l2.69,1.32-3.96,8.08-2.69-1.32,3.96-8.08Zm5.39,2.64l2.69,1.32-3.96,8.08-2.69-1.32,3.96-8.08Zm5.39,2.64l2.69,1.32-3.96,8.08-2.7-1.32,3.96-8.08Zm5.39,2.64l2.69,1.32-3.96,8.08-2.69-1.32,3.96-8.08Zm5.39,2.64l2.69,1.32-3.96,8.08-2.69-1.32,3.96-8.08Zm5.39,2.64l2.69,1.32-3.96,8.08-2.69-1.32,3.96-8.08Zm5.39,2.64l2.69,1.32-3.96,8.08-2.69-1.32,3.96-8.08Zm5.39,2.64l2.69,1.32-3.96,8.08-2.69-1.32,3.96-8.08Zm5.39,2.64l2.7,1.32-3.96,8.08-2.69-1.32,3.96-8.08Zm5.39,2.64l2.69,1.32-3.96,8.08-2.7-1.32,3.96-8.08Zm5.39,2.64l2.69,1.32-3.96,8.08-2.69-1.32,3.96-8.08Zm5.39,2.64l2.7,1.32-3.96,8.08-2.69-1.32,3.96-8.08Zm5.39,2.64l2.7,1.32-3.96,8.08-2.69-1.32,3.96-8.08Zm5.39,2.64l2.7,1.32-3.96,8.08-2.69-1.32,3.96-8.08Zm5.39,2.64l2.7,1.32-3.96,8.08-2.69-1.32,3.96-8.08Zm5.39,2.64l2.7,1.32-3.96,8.08-2.69-1.32,3.95-8.08Zm5.39,2.64l2.69,1.32-3.96,8.08-2.7-1.32,3.96-8.08Zm5.39,2.64l2.69,1.32-3.96,8.08-2.7-1.32,3.96-8.08Zm5.39,2.64l2.7,1.32-3.96,8.08-2.69-1.32,3.95-8.08Zm5.39,2.64l2.7,1.32-3.96,8.08-2.69-1.32,3.96-8.08Zm5.39,2.64l2.7,1.32-3.96,8.08-2.69-1.32,3.96-8.08Zm5.33,2.61l2.76,1.35-3.97,8.08-2.61-1.28,3.82-8.15Zm5.46,2.69l2.7,1.34-4.01,8.06-2.68-1.33,3.99-8.07Zm5.39,2.68l2.69,1.35-4.05,8.04-2.67-1.34,4.03-8.05Zm5.38,2.71l2.68,1.36-4.08,8.02-2.67-1.35,4.07-8.03Zm5.37,2.73l2.67,1.38-4.12,8-2.66-1.37,4.11-8.01Zm5.35,2.76l2.67,1.39-4.17,7.98-2.65-1.38,4.15-7.99Zm5.34,2.79l2.66,1.41-4.21,7.95-2.64-1.39,4.19-7.97Zm5.32,2.82c.89.48,1.78.95,2.66,1.42l-4.26,7.93c-.87-.47-1.75-.94-2.63-1.41l4.23-7.94Zm5.31,2.85l2.65,1.44-4.31,7.9-2.62-1.42,4.28-7.92Zm5.29,2.88c.89.49,1.77.97,2.64,1.46l-4.36,7.88c-.86-.48-1.73-.96-2.61-1.44l4.33-7.89Zm5.28,2.92l2.63,1.47-4.41,7.85-2.6-1.46,4.38-7.86Zm5.26,2.95c.88.5,1.76,1,2.62,1.49l-4.46,7.82c-.86-.49-1.72-.98-2.59-1.47l4.43-7.83Zm5.24,2.99c.88.51,1.75,1.01,2.61,1.51l-4.52,7.78c-.85-.49-1.71-.99-2.58-1.49l4.49-7.8Zm5.22,3.03c.87.51,1.74,1.02,2.6,1.53l-4.58,7.75c-.85-.5-1.71-1.01-2.57-1.51l4.55-7.76Zm5.19,3.07c.87.52,1.73,1.04,2.59,1.55l-4.64,7.71c-.84-.51-1.69-1.02-2.56-1.53l4.61-7.73Zm5.17,3.12c.87.53,1.73,1.05,2.57,1.57l-4.71,7.67c-.84-.52-1.69-1.03-2.54-1.56l4.68-7.69Zm5.14,3.16c.86.54,1.72,1.07,2.56,1.6l-4.79,7.62c-.83-.52-1.67-1.05-2.52-1.58l4.75-7.65Zm5.12,3.21c.86.55,1.71,1.09,2.55,1.63l-4.86,7.57c-.83-.53-1.66-1.06-2.51-1.6l4.82-7.6Zm5.09,3.27c.85.56,1.7,1.11,2.53,1.65l-4.95,7.52c-.82-.54-1.65-1.08-2.49-1.63l4.91-7.54Zm5.05,3.33c.85.57,1.69,1.13,2.51,1.68l-5.03,7.46c-.81-.55-1.63-1.1-2.47-1.66l4.99-7.49Zm5.02,3.39c.84.58,1.68,1.15,2.5,1.72l-5.13,7.39c-.8-.56-1.62-1.12-2.44-1.68l5.08-7.43Zm4.98,3.46c.84.59,1.66,1.17,2.47,1.75l-5.24,7.32c-.79-.57-1.6-1.14-2.42-1.72l5.19-7.35Zm4.93,3.53c.83.6,1.65,1.2,2.45,1.79l-5.35,7.24c-.78-.58-1.58-1.16-2.39-1.75l5.29-7.28Zm4.88,3.61c.82.62,1.63,1.23,2.42,1.84l-5.48,7.14c-.77-.59-1.55-1.19-2.36-1.79l5.41-7.19Zm4.82,3.7c.82.64,1.61,1.27,2.39,1.89l-5.62,7.03c-.75-.6-1.53-1.21-2.32-1.83l5.54-7.09Zm4.76,3.8c.8.66,1.59,1.3,2.35,1.94l-5.77,6.9c-.74-.62-1.49-1.24-2.27-1.88l5.7-6.97Zm4.68,3.92c.79.68,1.56,1.35,2.31,2.01l-5.96,6.75c-.71-.63-1.45-1.27-2.21-1.93l5.86-6.83Zm4.59,4.05c.78.71,1.53,1.4,2.26,2.08l-6.16,6.56c-.69-.65-1.41-1.31-2.15-1.98l6.05-6.66Zm4.48,4.21c.76.74,1.49,1.47,2.19,2.17l-6.4,6.33c-.66-.66-1.35-1.35-2.07-2.05l6.27-6.45Zm4.34,4.39c.75.79,1.45,1.55,2.11,2.28l-6.69,6.02c-.61-.68-1.26-1.39-1.96-2.12l6.54-6.19Zm4.17,4.64c.72.85,1.39,1.66,1.99,2.43l-7.06,5.58c-.55-.69-1.15-1.43-1.8-2.2l6.87-5.82Zm3.92,4.97c.66.91,1.27,1.81,1.83,2.67l-7.57,4.87c-.47-.73-.99-1.49-1.55-2.26l7.29-5.28Zm3.54,5.56c1.13,2.11,1.51,3.37,1.59,3.7l-8.7,2.29.03.11s-.2-.63-.86-1.85l7.94-4.25Z"/><path class="cls-5" d="m362.12,373.01l6.84,5.85-1.95,2.28-6.84-5.85,1.95-2.28Zm-3.9,4.56l6.84,5.85-1.95,2.28-6.84-5.85,1.95-2.28Zm-3.9,4.56l6.84,5.85-1.95,2.28-6.84-5.85,1.95-2.28Zm-3.9,4.56l6.84,5.85-1.95,2.28-6.84-5.85,1.95-2.28Zm-3.9,4.56l6.84,5.85-1.95,2.28-6.84-5.85,1.95-2.28Zm-3.9,4.56l6.84,5.85-1.95,2.28-6.84-5.85,1.95-2.28Zm-3.9,4.56l6.84,5.85-1.95,2.28-6.84-5.85,1.95-2.28Zm-3.9,4.56l6.84,5.85-1.95,2.28-6.84-5.85,1.95-2.28Zm-3.9,4.56l6.84,5.85-1.95,2.28-6.84-5.85,1.95-2.28Zm-3.9,4.56l6.84,5.85-1.95,2.28-6.84-5.85,1.95-2.28Zm-3.9,4.56l6.84,5.85-1.95,2.28-6.84-5.85,1.95-2.28Zm-3.9,4.56l6.84,5.85-1.95,2.28-6.84-5.85,1.95-2.28Zm-3.9,4.56l6.84,5.85-1.95,2.28-6.84-5.85,1.95-2.28Zm-3.9,4.56l6.84,5.85-1.95,2.28-6.84-5.85,1.95-2.28Zm-3.9,4.56l6.84,5.85-1.95,2.28-6.84-5.85,1.95-2.28Zm-3.9,4.56l6.84,5.85-1.95,2.28-6.84-5.85,1.95-2.28Zm-3.9,4.56l6.84,5.85-1.95,2.28-6.84-5.85,1.95-2.28Zm-3.9,4.56l6.84,5.85-1.95,2.28-6.84-5.85,1.95-2.28Zm-3.9,4.56l6.84,5.85-1.95,2.28-6.84-5.85,1.95-2.28Zm-3.9,4.56l6.84,5.85-1.95,2.28-6.84-5.85,1.95-2.28Zm-3.9,4.56l6.84,5.85-1.95,2.28-6.84-5.85,1.95-2.28Zm-3.9,4.56l6.84,5.85-1.95,2.28-6.84-5.85,1.95-2.28Zm-3.9,4.56l6.84,5.85-1.95,2.28-6.84-5.85,1.95-2.28Zm-3.9,4.56l6.84,5.85-1.95,2.28-6.84-5.85,1.95-2.28Zm-3.9,4.56l6.84,5.85-1.95,2.28-6.84-5.85,1.95-2.28Zm-3.9,4.56l6.84,5.85-1.95,2.28-6.84-5.85,1.95-2.28Zm-3.9,4.56l6.84,5.85-1.95,2.28-6.84-5.85,1.95-2.28Zm-3.9,4.56l6.84,5.85-1.95,2.28-6.84-5.85,1.95-2.28Zm-3.9,4.56l6.84,5.85-1.95,2.28-6.84-5.85,1.95-2.28Zm-3.9,4.56l6.84,5.85-1.95,2.28-6.84-5.85,1.95-2.28Zm-3.9,4.56l6.84,5.85-1.95,2.28-6.84-5.85,1.95-2.28Zm-3.9,4.56l6.84,5.85-1.95,2.28-6.84-5.85,1.95-2.28Zm-3.9,4.56l6.84,5.85-1.95,2.28-6.84-5.85,1.95-2.28Zm-3.9,4.56l6.84,5.85-1.95,2.28-6.84-5.85,1.95-2.28Zm-3.9,4.56l6.84,5.85-1.95,2.28-6.84-5.85,1.95-2.28Zm-3.9,4.56l6.84,5.85-1.95,2.28-6.84-5.85,1.95-2.28Zm-3.9,4.56l6.84,5.85-1.95,2.28-6.84-5.85,1.95-2.28Zm-3.9,4.56l6.84,5.85-1.95,2.28-6.84-5.85,1.95-2.28Zm-3.9,4.56l6.84,5.85-1.95,2.28-6.84-5.85,1.95-2.28Zm-3.9,4.56l6.84,5.85-1.95,2.28-6.84-5.85,1.95-2.28Zm-3.9,4.56l6.84,5.85-1.95,2.28-6.84-5.85,1.95-2.28Zm-3.9,4.56l6.84,5.85-1.95,2.28-6.84-5.85,1.95-2.28Zm-3.9,4.56l6.84,5.85-1.95,2.28-6.84-5.85,1.95-2.28Zm-3.9,4.56l6.84,5.85-1.95,2.28-6.84-5.85,1.95-2.28Zm-3.9,4.56l6.84,5.85-1.95,2.28-6.84-5.85,1.95-2.28Zm-3.9,4.56l6.84,5.85-1.95,2.28-6.84-5.85,1.95-2.28Zm-3.9,4.56l6.84,5.85-1.95,2.28-6.84-5.85,1.95-2.28Zm-3.9,4.56l6.84,5.85-1.95,2.28-6.84-5.85,1.95-2.28Zm-3.9,4.56l6.84,5.85-1.95,2.28-6.84-5.85,1.95-2.28Zm-3.9,4.56l6.84,5.85-1.95,2.28-6.84-5.85,1.95-2.28Zm-3.9,4.56l6.84,5.85-1.95,2.28-6.84-5.85,1.95-2.28Zm-3.9,4.56l6.84,5.85-1.95,2.28-6.84-5.85,1.95-2.28Zm-3.9,4.56l6.84,5.85-1.95,2.28-6.84-5.85,1.95-2.28Zm-3.9,4.56l6.84,5.85-1.95,2.28-6.84-5.85,1.95-2.28Zm-3.9,4.56l6.84,5.85-1.95,2.28-6.84-5.85,1.95-2.28Zm-3.9,4.56l6.84,5.85-1.95,2.28-6.84-5.85,1.95-2.28Zm-3.9,4.56l6.84,5.85-1.09,1.27-6.84-5.85,1.09-1.27Z"/><g id="_1"><circle cx="455.76" cy="676.91" r="10.88"/><path d="m455.76,667.03c5.46,0,9.88,4.42,9.88,9.88s-4.42,9.88-9.88,9.88c-5.46,0-9.88-4.42-9.88-9.88s4.42-9.88,9.88-9.88m0-2c-6.55,0-11.88,5.33-11.88,11.88s5.33,11.88,11.88,11.88c6.55,0,11.88-5.33,11.88-11.88s-5.33-11.88-11.88-11.88h0Z"/><text class="cls-2" transform="translate(448.02 680.81)"><tspan x="0" y="0">01</tspan></text></g><g id="_1-2"><circle cx="515.76" cy="557.89" r="10.88"/><path d="m515.76,548.01c5.46,0,9.88,4.42,9.88,9.88s-4.42,9.88-9.88,9.88-9.88-4.42-9.88-9.88,4.42-9.88,9.88-9.88m0-2c-6.55,0-11.88,5.33-11.88,11.88s5.33,11.88,11.88,11.88,11.88-5.33,11.88-11.88-5.33-11.88-11.88-11.88h0Z"/><text class="cls-2" transform="translate(508.02 561.8)"><tspan x="0" y="0">02</tspan></text></g><g id="_1-3"><circle cx="504.94" cy="409.36" r="10.88"/><path d="m504.94,399.48c5.46,0,9.88,4.42,9.88,9.88s-4.42,9.88-9.88,9.88-9.88-4.42-9.88-9.88,4.42-9.88,9.88-9.88m0-2c-6.55,0-11.88,5.33-11.88,11.88s5.33,11.88,11.88,11.88,11.88-5.33,11.88-11.88-5.33-11.88-11.88-11.88h0Z"/><text class="cls-2" transform="translate(497.2 413.27)"><tspan x="0" y="0">04</tspan></text></g><g id="_1-4"><circle cx="381" cy="365.09" r="10.88"/><path d="m381,355.22c5.46,0,9.88,4.42,9.88,9.88s-4.42,9.88-9.88,9.88-9.88-4.42-9.88-9.88,4.42-9.88,9.88-9.88m0-2c-6.55,0-11.88,5.33-11.88,11.88s5.33,11.88,11.88,11.88,11.88-5.33,11.88-11.88-5.33-11.88-11.88-11.88h0Z"/><text class="cls-2" transform="translate(373.26 369)"><tspan x="0" y="0">05</tspan></text></g><g id="_1-5"><circle cx="137.06" cy="666.09" r="10.88"/><path d="m137.06,656.21c5.46,0,9.88,4.42,9.88,9.88s-4.42,9.88-9.88,9.88-9.88-4.42-9.88-9.88,4.42-9.88,9.88-9.88m0-2c-6.55,0-11.88,5.33-11.88,11.88s5.33,11.88,11.88,11.88,11.88-5.33,11.88-11.88-5.33-11.88-11.88-11.88h0Z"/><text class="cls-2" transform="translate(129.32 669.99)"><tspan x="0" y="0">06</tspan></text></g><g id="_1-6"><circle cx="275.75" cy="735.92" r="10.88"/><path d="m275.75,726.05c5.46,0,9.88,4.42,9.88,9.88s-4.42,9.88-9.88,9.88-9.88-4.42-9.88-9.88,4.42-9.88,9.88-9.88m0-2h0c-6.55,0-11.88,5.33-11.88,11.88s5.33,11.88,11.88,11.88,11.88-5.33,11.88-11.88-5.33-11.88-11.88-11.88h0Z"/><text class="cls-2" transform="translate(268.01 739.83)"><tspan x="0" y="0">07</tspan></text></g><g id="_1-7"><circle cx="51.48" cy="699.53" r="10.88"/><path d="m51.48,689.65c5.46,0,9.88,4.42,9.88,9.88s-4.42,9.88-9.88,9.88c-5.46,0-9.88-4.42-9.88-9.88s4.42-9.88,9.88-9.88m0-2c-6.55,0-11.88,5.33-11.88,11.88s5.33,11.88,11.88,11.88c6.55,0,11.88-5.33,11.88-11.88s-5.33-11.88-11.88-11.88h0Z"/><text class="cls-2" transform="translate(43.74 703.44)"><tspan x="0" y="0">08</tspan></text></g><g id="_1-8"><circle cx="19.02" cy="370.01" r="10.88"/><path d="m19.02,360.13c5.46,0,9.88,4.42,9.88,9.88s-4.42,9.88-9.88,9.88-9.88-4.42-9.88-9.88,4.42-9.88,9.88-9.88m0-2c-6.55,0-11.88,5.33-11.88,11.88s5.33,11.88,11.88,11.88,11.88-5.33,11.88-11.88-5.33-11.88-11.88-11.88h0Z"/><text class="cls-2" transform="translate(11.28 373.92)"><tspan x="0" y="0">09</tspan></text></g><g id="_1-9"><circle cx="313.13" cy="351.32" r="10.88"/><path d="m313.13,341.45c5.46,0,9.88,4.42,9.88,9.88s-4.42,9.88-9.88,9.88-9.88-4.42-9.88-9.88,4.42-9.88,9.88-9.88m0-2c-6.55,0-11.88,5.33-11.88,11.88s5.33,11.88,11.88,11.88,11.88-5.33,11.88-11.88-5.33-11.88-11.88-11.88h0Z"/><text class="cls-2" transform="translate(305.39 355.23)"><tspan x="0" y="0">10</tspan></text></g><g id="_1-10"><circle cx="358.38" cy="269.68" r="10.88"/><path d="m358.38,259.8c5.46,0,9.88,4.42,9.88,9.88s-4.42,9.88-9.88,9.88-9.88-4.42-9.88-9.88,4.42-9.88,9.88-9.88m0-2c-6.55,0-11.88,5.33-11.88,11.88s5.33,11.88,11.88,11.88,11.88-5.33,11.88-11.88-5.33-11.88-11.88-11.88h0Z"/><text class="cls-2" transform="translate(350.64 273.59)"><tspan x="0" y="0">11</tspan></text></g><g id="_1-11"><circle cx="436.08" cy="289.35" r="10.88"/><path d="m436.08,279.48c5.46,0,9.88,4.42,9.88,9.88s-4.42,9.88-9.88,9.88-9.88-4.42-9.88-9.88,4.42-9.88,9.88-9.88m0-2c-6.55,0-11.88,5.33-11.88,11.88s5.33,11.88,11.88,11.88,11.88-5.33,11.88-11.88-5.33-11.88-11.88-11.88h0Z"/><text class="cls-2" transform="translate(428.34 293.26)"><tspan x="0" y="0">12</tspan></text></g><g id="_1-12"><circle cx="524.61" cy="257.88" r="10.88"/><path d="m524.61,248c5.46,0,9.88,4.42,9.88,9.88s-4.42,9.88-9.88,9.88-9.88-4.42-9.88-9.88,4.42-9.88,9.88-9.88m0-2c-6.55,0-11.88,5.33-11.88,11.88s5.33,11.88,11.88,11.88,11.88-5.33,11.88-11.88-5.33-11.88-11.88-11.88h0Z"/><text class="cls-2" transform="translate(516.87 261.79)"><tspan x="0" y="0">13</tspan></text></g><g id="_1-13"><circle cx="590.51" cy="320.83" r="10.88"/><path d="m590.51,310.95c5.46,0,9.88,4.42,9.88,9.88,0,5.46-4.42,9.88-9.88,9.88s-9.88-4.42-9.88-9.88,4.42-9.88,9.88-9.88m0-2c-6.55,0-11.88,5.33-11.88,11.88s5.33,11.88,11.88,11.88c3.17,0,6.16-1.24,8.4-3.48,2.24-2.24,3.48-5.23,3.48-8.4,0-6.55-5.33-11.88-11.88-11.88h0Z"/><text class="cls-2" transform="translate(582.78 324.74)"><tspan x="0" y="0">14</tspan></text></g><g id="_1-14"><circle cx="983.97" cy="577.56" r="10.88"/><path d="m983.97,567.68c5.46,0,9.88,4.42,9.88,9.88s-4.42,9.88-9.88,9.88-9.88-4.42-9.88-9.88,4.42-9.88,9.88-9.88m0-2c-6.55,0-11.88,5.33-11.88,11.88s5.33,11.88,11.88,11.88,11.88-5.33,11.88-11.88-5.33-11.88-11.88-11.88h0Z"/><text class="cls-2" transform="translate(976.23 581.47)"><tspan x="0" y="0">15</tspan></text></g><g id="_1-15"><path d="m827.59,764.49c-5.74,0-14.97-8.53-14.97-10.39,0-1.66,9.13-11.37,14.97-11.37s10.88,4.88,10.88,10.88-4.88,10.88-10.88,10.88Z"/><path d="m827.59,743.73c5.46,0,9.88,4.42,9.88,9.88s-4.42,9.88-9.88,9.88c-5.46,0-13.97-8.4-13.97-9.39s8.51-10.37,13.97-10.37m0-2c-3.56,0-7.59,2.89-10.35,5.31-1.32,1.16-5.62,5.09-5.62,7.06s3.98,5.27,5.7,6.63c2.74,2.17,6.75,4.76,10.27,4.76,3.17,0,6.16-1.24,8.4-3.48,2.24-2.24,3.48-5.23,3.48-8.4,0-6.55-5.33-11.88-11.88-11.88h0Z"/><text class="cls-2" transform="translate(818.76 757.52)"><tspan x="0" y="0">16</tspan></text></g><g id="_1-16"><circle cx="833.47" cy="797.89" r="10.88"/><path d="m833.47,788.01c5.46,0,9.88,4.42,9.88,9.88s-4.42,9.88-9.88,9.88-9.88-4.42-9.88-9.88c0-5.46,4.42-9.88,9.88-9.88m0-2c-3.17,0-6.16,1.24-8.4,3.48-2.24,2.24-3.48,5.23-3.48,8.4,0,6.55,5.33,11.88,11.88,11.88s11.88-5.33,11.88-11.88-5.33-11.88-11.88-11.88h0Z"/><text class="cls-2" transform="translate(825.73 801.8)"><tspan x="0" y="0">17</tspan></text></g><g id="_1-17"><circle cx="714.45" cy="871.66" r="10.88"/><path d="m714.45,861.79c5.46,0,9.88,4.42,9.88,9.88s-4.42,9.88-9.88,9.88-9.88-4.42-9.88-9.88,4.42-9.88,9.88-9.88m0-2c-6.55,0-11.88,5.33-11.88,11.88s5.33,11.88,11.88,11.88,11.88-5.33,11.88-11.88-5.33-11.88-11.88-11.88h0Z"/><text class="cls-2" transform="translate(706.71 875.57)"><tspan x="0" y="0">18</tspan></text></g><g id="_1-18"><path d="m446.9,472.35c-5.99,0-10.86-4.87-10.86-10.86s4.87-10.86,10.86-10.86,10.86,4.87,10.86,10.86-4.87,10.86-10.86,10.86Z"/><path d="m446.9,451.61c5.46,0,9.88,4.42,9.88,9.88s-4.42,9.88-9.88,9.88-9.88-4.42-9.88-9.88,4.42-9.88,9.88-9.88m0-1.97c-6.53,0-11.84,5.31-11.84,11.84s5.31,11.84,11.84,11.84,13.97-6.44,13.81-10.86c.15-3.44-7.28-12.83-13.81-12.83h0Z"/><text class="cls-2" transform="translate(439.16 465.4)"><tspan x="0" y="0">03</tspan></text></g><g id="Legend"><circle cx="60.04" cy="195.7" r="13"/><path d="m84.54,194.87v-2.36h8.94v2.36h-8.94Zm0,4.02v-2.38h8.94v2.38h-8.94Z"/><path d="m106.03,202.04h-3.47v-10.02h-3.14v-2.84h9.75v2.84h-3.13v10.02Z"/><path d="m121.94,189.18v7.74c0,1.08-.21,2.02-.62,2.81-.41.79-1.03,1.41-1.85,1.84-.82.43-1.85.65-3.09.65-1.77,0-3.12-.45-4.06-1.36-.93-.91-1.4-2.19-1.4-3.85v-7.82h3.49v7.55c0,.91.17,1.57.51,1.98.34.41.84.62,1.5.62.47,0,.86-.09,1.16-.27s.52-.46.66-.85c.14-.39.21-.89.21-1.5v-7.53h3.47Z"/><path d="m128.85,189.18c1.17,0,2.14.14,2.91.43.77.28,1.36.71,1.75,1.27.39.56.58,1.26.58,2.1,0,.52-.09,1-.26,1.43s-.43.81-.75,1.15c-.33.34-.71.63-1.17.88l3.75,5.6h-3.94l-2.73-4.68h-.88v4.68h-3.47v-12.86h4.21Zm-.05,2.63h-.69v2.94h.65c.53,0,.97-.12,1.31-.35.34-.23.51-.65.51-1.26,0-.42-.14-.74-.42-.98s-.74-.35-1.36-.35Z"/><path d="m149.08,202.04h-4.56l-4.7-9.06h-.08c.03.28.06.61.08.99s.04.78.06,1.18.03.76.03,1.09v5.8h-3.08v-12.86h4.54l4.68,8.94h.05c-.02-.28-.04-.61-.05-.98-.02-.37-.03-.75-.05-1.13-.01-.38-.02-.72-.02-1.01v-5.81h3.1v12.86Z"/><path d="m168.78,202.04h-4.56l-4.7-9.06h-.08c.03.28.06.61.08.99s.04.78.06,1.18.03.76.03,1.09v5.8h-3.08v-12.86h4.54l4.68,8.94h.05c-.02-.28-.04-.61-.05-.98-.02-.37-.03-.75-.05-1.13-.01-.38-.02-.72-.02-1.01v-5.81h3.1v12.86Z"/><path d="m182.49,189.18v7.74c0,1.08-.21,2.02-.62,2.81-.41.79-1.03,1.41-1.85,1.84-.82.43-1.85.65-3.09.65-1.77,0-3.12-.45-4.06-1.36-.93-.91-1.4-2.19-1.4-3.85v-7.82h3.49v7.55c0,.91.17,1.57.51,1.98.34.41.84.62,1.5.62.47,0,.86-.09,1.16-.27s.52-.46.66-.85c.14-.39.21-.89.21-1.5v-7.53h3.47Z"/><path d="m190.8,202.04l-2.63-9.26h-.08c.02.24.05.57.07.98.03.41.05.85.08,1.33s.04.93.04,1.37v5.59h-3.08v-12.86h4.63l2.68,9.13h.07l2.63-9.13h4.64v12.86h-3.19v-5.64c0-.4,0-.84.02-1.31s.03-.91.05-1.32c.02-.41.04-.74.06-.98h-.08l-2.59,9.25h-3.31Z"/><path d="m202.61,189.18h4.49c1.86,0,3.18.28,3.98.83.79.55,1.19,1.34,1.19,2.38,0,.56-.1,1.04-.3,1.43-.2.39-.46.7-.77.93-.31.23-.62.38-.95.47v.09c.35.09.7.23,1.05.44s.64.5.87.91c.23.4.35.95.35,1.63,0,.78-.2,1.45-.59,2.01-.4.56-.96,1-1.69,1.3-.73.3-1.6.45-2.61.45h-5.01v-12.86Zm3.47,4.93h1.05c.58,0,.98-.12,1.21-.36.23-.24.35-.53.35-.87s-.13-.62-.4-.8c-.27-.19-.68-.28-1.24-.28h-.98v2.3Zm0,2.54v2.7h1.22c.6,0,1.03-.13,1.27-.39.24-.26.36-.59.36-.98,0-.23-.05-.44-.15-.65-.1-.2-.28-.37-.52-.49s-.59-.19-1.02-.19h-1.15Z"/><path d="m222.39,202.04h-7.64v-12.86h7.64v2.79h-4.16v2.02h3.85v2.79h-3.85v2.43h4.16v2.83Z"/><path d="m228.85,189.18c1.17,0,2.14.14,2.91.43.77.28,1.36.71,1.75,1.27.39.56.58,1.26.58,2.1,0,.52-.09,1-.26,1.43s-.43.81-.75,1.15c-.33.34-.71.63-1.17.88l3.75,5.6h-3.94l-2.73-4.68h-.88v4.68h-3.47v-12.86h4.21Zm-.05,2.63h-.69v2.94h.65c.53,0,.97-.12,1.31-.35.34-.23.51-.65.51-1.26,0-.42-.14-.74-.42-.98s-.74-.35-1.36-.35Z"/><path d="m245.24,198.13c0,.7-.18,1.36-.53,1.98s-.9,1.13-1.64,1.52c-.74.39-1.7.58-2.87.58-.59,0-1.1-.03-1.54-.08-.44-.05-.85-.14-1.24-.26-.38-.12-.78-.28-1.19-.47v-3.1c.7.35,1.4.62,2.11.8.71.18,1.35.28,1.93.28.35,0,.63-.04.85-.12.22-.08.38-.19.49-.34.11-.14.16-.31.16-.5,0-.22-.08-.41-.23-.57s-.4-.32-.74-.49c-.34-.17-.79-.38-1.35-.63-.47-.22-.9-.45-1.29-.69-.38-.23-.71-.5-.99-.81-.27-.3-.48-.66-.63-1.06-.15-.4-.22-.88-.22-1.43,0-.83.2-1.52.61-2.08.41-.56.98-.98,1.71-1.26.73-.28,1.57-.42,2.53-.42.84,0,1.59.09,2.26.28.67.19,1.27.4,1.81.64l-1.06,2.68c-.55-.25-1.09-.45-1.63-.6-.53-.15-1.03-.22-1.49-.22-.3,0-.54.04-.73.11-.19.07-.33.17-.42.29s-.14.26-.14.42c0,.2.08.38.23.54.16.16.42.33.78.51.37.19.87.42,1.5.72.63.28,1.16.58,1.6.91.44.33.78.72,1.01,1.17.23.45.35,1.02.35,1.68Z"/><circle class="cls-5" cx="60.04" cy="115.7" r="13"/><path d="m60.04,129.7c-7.72,0-14-6.28-14-14s6.28-14,14-14,14,6.28,14,14-6.28,14-14,14Zm0-26c-6.62,0-12,5.38-12,12s5.38,12,12,12,12-5.38,12-12-5.38-12-12-12Z"/><path d="m84.54,114.87v-2.36h8.94v2.36h-8.94Zm0,4.02v-2.38h8.94v2.38h-8.94Z"/><path d="m111.28,115.33c0,1.5-.28,2.74-.84,3.73-.56.99-1.34,1.73-2.35,2.23-1.01.5-2.2.74-3.57.74h-4.16v-12.86h4.45c1.38,0,2.56.24,3.52.71s1.69,1.17,2.2,2.08c.5.92.75,2.04.75,3.36Zm-3.61.12c0-.78-.1-1.43-.31-1.94s-.52-.9-.94-1.15c-.42-.25-.94-.38-1.57-.38h-1.01v7.2h.77c1.06,0,1.83-.31,2.32-.92.49-.61.74-1.55.74-2.81Z"/><path d="m117.8,109.18c1.17,0,2.14.14,2.91.43.77.28,1.36.71,1.75,1.27.39.56.58,1.26.58,2.1,0,.52-.09,1-.26,1.43s-.43.81-.75,1.15c-.33.34-.71.63-1.17.88l3.75,5.6h-3.94l-2.73-4.68h-.88v4.68h-3.47v-12.86h4.21Zm-.05,2.63h-.69v2.94h.65c.53,0,.97-.12,1.31-.35.34-.23.51-.65.51-1.26,0-.42-.14-.74-.42-.98s-.74-.35-1.36-.35Z"/><path d="m134.18,118.13c0,.7-.18,1.36-.53,1.98s-.9,1.13-1.64,1.52c-.74.39-1.7.58-2.87.58-.59,0-1.1-.03-1.54-.08-.44-.05-.85-.14-1.24-.26-.38-.12-.78-.28-1.19-.47v-3.1c.7.35,1.4.62,2.11.8.71.18,1.35.28,1.93.28.35,0,.63-.04.85-.12.22-.08.38-.19.49-.34.11-.14.16-.31.16-.5,0-.22-.08-.41-.23-.57s-.4-.32-.74-.49c-.34-.17-.79-.38-1.35-.63-.47-.22-.9-.45-1.29-.69-.38-.23-.71-.5-.99-.81-.27-.3-.48-.66-.63-1.06-.15-.4-.22-.88-.22-1.43,0-.83.2-1.52.61-2.08.41-.56.98-.98,1.71-1.26.73-.28,1.57-.42,2.53-.42.84,0,1.59.09,2.26.28.67.19,1.27.4,1.81.64l-1.06,2.68c-.55-.25-1.09-.45-1.63-.6-.53-.15-1.03-.22-1.49-.22-.3,0-.54.04-.73.11-.19.07-.33.17-.42.29s-.14.26-.14.42c0,.2.08.38.23.54.16.16.42.33.78.51.37.19.87.42,1.5.72.63.28,1.16.58,1.6.91.44.33.78.72,1.01,1.17.23.45.35,1.02.35,1.68Z"/><path d="m151.77,115.33c0,1.5-.28,2.74-.84,3.73-.56.99-1.34,1.73-2.35,2.23-1.01.5-2.2.74-3.57.74h-4.16v-12.86h4.45c1.38,0,2.56.24,3.52.71s1.69,1.17,2.2,2.08c.5.92.75,2.04.75,3.36Zm-3.61.12c0-.78-.1-1.43-.31-1.94s-.52-.9-.94-1.15c-.42-.25-.94-.38-1.57-.38h-1.01v7.2h.77c1.06,0,1.83-.31,2.32-.92.49-.61.74-1.55.74-2.81Z"/><path d="m161.71,122.04h-7.64v-12.86h7.64v2.79h-4.16v2.02h3.85v2.79h-3.85v2.43h4.16v2.83Z"/><path d="m169.63,122.04h-3.47v-10.02h-3.14v-2.84h9.75v2.84h-3.13v10.02Z"/><path d="m182.24,122.04h-7.64v-12.86h7.64v2.79h-4.16v2.02h3.85v2.79h-3.85v2.43h4.16v2.83Z"/><path d="m190.22,111.84c-.41,0-.78.09-1.1.26s-.6.42-.83.75c-.23.33-.4.73-.52,1.2-.12.47-.18,1.01-.18,1.61,0,.81.1,1.49.31,2.04.21.55.52.97.94,1.25.42.28.95.42,1.58.42.58,0,1.13-.08,1.66-.24.53-.16,1.07-.35,1.61-.57v2.94c-.57.25-1.15.43-1.75.55-.59.11-1.23.17-1.9.17-1.4,0-2.54-.28-3.43-.83-.89-.55-1.54-1.32-1.96-2.31-.42-.99-.63-2.13-.63-3.43,0-.97.14-1.86.41-2.67.27-.81.67-1.51,1.2-2.11.53-.6,1.18-1.06,1.96-1.38.78-.33,1.67-.49,2.67-.49.62,0,1.28.07,1.97.22.69.14,1.36.37,2.02.69l-1.06,2.74c-.47-.22-.94-.41-1.42-.56-.48-.15-.99-.23-1.53-.23Z"/><path d="m201.86,122.04h-3.47v-10.02h-3.14v-2.84h9.75v2.84h-3.13v10.02Z"/><path d="m206.83,122.04v-12.86h3.49v12.86h-3.49Z"/><path d="m225.13,115.59c0,.99-.12,1.89-.36,2.7-.24.81-.61,1.51-1.11,2.1-.5.59-1.15,1.04-1.94,1.35-.79.31-1.74.47-2.84.47s-2.01-.16-2.8-.47c-.79-.31-1.44-.76-1.95-1.35-.51-.58-.89-1.28-1.13-2.1-.25-.81-.37-1.72-.37-2.73,0-1.34.22-2.5.66-3.49.44-.99,1.13-1.75,2.05-2.3s2.11-.81,3.55-.81,2.66.27,3.58.82,1.59,1.31,2.02,2.3c.43.99.64,2.15.64,3.49Zm-8.85,0c0,.77.09,1.44.26,2s.46.99.84,1.28c.38.3.88.45,1.5.45s1.15-.15,1.53-.45c.38-.3.65-.73.82-1.28s.25-1.22.25-2c0-1.16-.19-2.08-.58-2.75s-1.05-1.01-2-1.01c-.63,0-1.13.15-1.52.46-.38.31-.66.74-.83,1.3s-.26,1.23-.26,2.01Z"/><path d="m239.7,122.04h-4.56l-4.7-9.06h-.08c.03.28.06.61.08.99s.04.78.06,1.18.03.76.03,1.09v5.8h-3.08v-12.86h4.54l4.68,8.94h.05c-.02-.28-.04-.61-.05-.98-.02-.37-.03-.75-.05-1.13-.01-.38-.02-.72-.02-1.01v-5.81h3.1v12.86Z"/><path d="m256.32,122.04h-10.02v-2.15l5.57-7.91h-5.44v-2.81h9.75v2.14l-5.57,7.92h5.71v2.81Z"/><path d="m270.2,115.59c0,.99-.12,1.89-.36,2.7-.24.81-.61,1.51-1.11,2.1-.5.59-1.15,1.04-1.94,1.35-.79.31-1.74.47-2.84.47s-2.01-.16-2.8-.47c-.79-.31-1.44-.76-1.95-1.35-.51-.58-.89-1.28-1.13-2.1-.25-.81-.37-1.72-.37-2.73,0-1.34.22-2.5.66-3.49.44-.99,1.13-1.75,2.05-2.3s2.11-.81,3.55-.81,2.66.27,3.58.82,1.59,1.31,2.02,2.3c.43.99.64,2.15.64,3.49Zm-8.85,0c0,.77.09,1.44.26,2s.46.99.84,1.28c.38.3.88.45,1.5.45s1.15-.15,1.53-.45c.38-.3.65-.73.82-1.28s.25-1.22.25-2c0-1.16-.19-2.08-.58-2.75s-1.05-1.01-2-1.01c-.63,0-1.13.15-1.52.46-.38.31-.66.74-.83,1.3s-.26,1.23-.26,2.01Z"/><path d="m284.76,122.04h-4.56l-4.7-9.06h-.08c.03.28.06.61.08.99s.04.78.06,1.18.03.76.03,1.09v5.8h-3.08v-12.86h4.54l4.68,8.94h.05c-.02-.28-.04-.61-.05-.98-.02-.37-.03-.75-.05-1.13-.01-.38-.02-.72-.02-1.01v-5.81h3.1v12.86Z"/><path d="m295.18,122.04h-7.64v-12.86h7.64v2.79h-4.16v2.02h3.85v2.79h-3.85v2.43h4.16v2.83Z"/><path d="m84.54,153.87v-2.36h8.94v2.36h-8.94Zm0,4.02v-2.38h8.94v2.38h-8.94Z"/><path d="m111.28,154.33c0,1.5-.28,2.74-.84,3.73-.56.99-1.34,1.73-2.35,2.23-1.01.5-2.2.74-3.57.74h-4.16v-12.86h4.45c1.38,0,2.56.24,3.52.71s1.69,1.17,2.2,2.08c.5.92.75,2.04.75,3.36Zm-3.61.12c0-.78-.1-1.43-.31-1.94s-.52-.9-.94-1.15c-.42-.25-.94-.38-1.57-.38h-1.01v7.2h.77c1.06,0,1.83-.31,2.32-.92.49-.61.74-1.55.74-2.81Z"/><path d="m117.8,148.18c1.17,0,2.14.14,2.91.43.77.28,1.36.71,1.75,1.27.39.56.58,1.26.58,2.1,0,.52-.09,1-.26,1.43s-.43.81-.75,1.15c-.33.34-.71.63-1.17.88l3.75,5.6h-3.94l-2.73-4.68h-.88v4.68h-3.47v-12.86h4.21Zm-.05,2.63h-.69v2.94h.65c.53,0,.97-.12,1.31-.35.34-.23.51-.65.51-1.26,0-.42-.14-.74-.42-.98s-.74-.35-1.36-.35Z"/><path d="m134.18,157.13c0,.7-.18,1.36-.53,1.98s-.9,1.13-1.64,1.52c-.74.39-1.7.58-2.87.58-.59,0-1.1-.03-1.54-.08-.44-.05-.85-.14-1.24-.26-.38-.12-.78-.28-1.19-.47v-3.1c.7.35,1.4.62,2.11.8.71.18,1.35.28,1.93.28.35,0,.63-.04.85-.12.22-.08.38-.19.49-.34.11-.14.16-.31.16-.5,0-.22-.08-.41-.23-.57s-.4-.32-.74-.49c-.34-.17-.79-.38-1.35-.63-.47-.22-.9-.45-1.29-.69-.38-.23-.71-.5-.99-.81-.27-.3-.48-.66-.63-1.06-.15-.4-.22-.88-.22-1.43,0-.83.2-1.52.61-2.08.41-.56.98-.98,1.71-1.26.73-.28,1.57-.42,2.53-.42.84,0,1.59.09,2.26.28.67.19,1.27.4,1.81.64l-1.06,2.68c-.55-.25-1.09-.45-1.63-.6-.53-.15-1.03-.22-1.49-.22-.3,0-.54.04-.73.11-.19.07-.33.17-.42.29s-.14.26-.14.42c0,.2.08.38.23.54.16.16.42.33.78.51.37.19.87.42,1.5.72.63.28,1.16.58,1.6.91.44.33.78.72,1.01,1.17.23.45.35,1.02.35,1.68Z"/><path d="m150.02,161.04h-10.02v-2.15l5.57-7.91h-5.44v-2.81h9.75v2.14l-5.57,7.92h5.71v2.81Z"/><path d="m163.89,154.59c0,.99-.12,1.89-.36,2.7-.24.81-.61,1.51-1.11,2.1-.5.59-1.15,1.04-1.94,1.35-.79.31-1.74.47-2.84.47s-2.01-.16-2.8-.47c-.79-.31-1.44-.76-1.95-1.35-.51-.58-.89-1.28-1.13-2.1-.25-.81-.37-1.72-.37-2.73,0-1.34.22-2.5.66-3.49.44-.99,1.13-1.75,2.05-2.3s2.11-.81,3.55-.81,2.66.27,3.58.82,1.59,1.31,2.02,2.3c.43.99.64,2.15.64,3.49Zm-8.85,0c0,.77.09,1.44.26,2s.46.99.84,1.28c.38.3.88.45,1.5.45s1.15-.15,1.53-.45c.38-.3.65-.73.82-1.28s.25-1.22.25-2c0-1.16-.19-2.08-.58-2.75s-1.05-1.01-2-1.01c-.63,0-1.13.15-1.52.46-.38.31-.66.74-.83,1.3s-.26,1.23-.26,2.01Z"/><path d="m178.46,161.04h-4.56l-4.7-9.06h-.08c.03.28.06.61.08.99s.04.78.06,1.18.03.76.03,1.09v5.8h-3.08v-12.86h4.54l4.68,8.94h.05c-.02-.28-.04-.61-.05-.98-.02-.37-.03-.75-.05-1.13-.01-.38-.02-.72-.02-1.01v-5.81h3.1v12.86Z"/><path d="m188.87,161.04h-7.64v-12.86h7.64v2.79h-4.16v2.02h3.85v2.79h-3.85v2.43h4.16v2.83Z"/><path d="m199.53,157.13c0,.7-.18,1.36-.53,1.98s-.9,1.13-1.64,1.52c-.74.39-1.7.58-2.87.58-.59,0-1.1-.03-1.54-.08-.44-.05-.85-.14-1.24-.26-.38-.12-.78-.28-1.19-.47v-3.1c.7.35,1.4.62,2.11.8.71.18,1.35.28,1.93.28.35,0,.63-.04.85-.12.22-.08.38-.19.49-.34.11-.14.16-.31.16-.5,0-.22-.08-.41-.23-.57s-.4-.32-.74-.49c-.34-.17-.79-.38-1.35-.63-.47-.22-.9-.45-1.29-.69-.38-.23-.71-.5-.99-.81-.27-.3-.48-.66-.63-1.06-.15-.4-.22-.88-.22-1.43,0-.83.2-1.52.61-2.08.41-.56.98-.98,1.71-1.26.73-.28,1.57-.42,2.53-.42.84,0,1.59.09,2.26.28.67.19,1.27.4,1.81.64l-1.06,2.68c-.55-.25-1.09-.45-1.63-.6-.53-.15-1.03-.22-1.49-.22-.3,0-.54.04-.73.11-.19.07-.33.17-.42.29s-.14.26-.14.42c0,.2.08.38.23.54.16.16.42.33.78.51.37.19.87.42,1.5.72.63.28,1.16.58,1.6.91.44.33.78.72,1.01,1.17.23.45.35,1.02.35,1.68Z"/><path class="cls-5" d="m73.04,166.7h-2.5v-23h2.5v23Zm-5.5,0h-3v-23h3v23Zm-6,0h-3v-23h3v23Zm-6,0h-3v-23h3v23Zm-6,0h-3v-23h3v23Z"/><path class="cls-1" d="m59.52,194.47c0,.84-.07,1.59-.2,2.26s-.35,1.23-.64,1.69-.68.82-1.17,1.06c-.48.24-1.08.37-1.78.37-.88,0-1.59-.21-2.15-.64-.56-.43-.97-1.04-1.24-1.84-.26-.8-.4-1.76-.4-2.89s.12-2.1.36-2.91c.24-.81.64-1.42,1.19-1.85.55-.43,1.3-.65,2.23-.65.88,0,1.59.21,2.15.64.56.43.97,1.04,1.24,1.85.27.81.4,1.78.4,2.92Zm-4.75,0c0,.68.02,1.26.08,1.72.05.46.15.81.29,1.04.14.23.34.35.61.35s.46-.12.6-.35.23-.58.29-1.04.08-1.04.08-1.72-.03-1.27-.08-1.74-.15-.81-.29-1.05-.34-.35-.6-.35-.46.12-.61.35c-.14.24-.24.59-.29,1.05-.05.46-.08,1.04-.08,1.74Z"/><path class="cls-1" d="m66.79,199.7h-2.88v-5.71c0-.26,0-.54.01-.85,0-.31.02-.59.03-.84-.12.15-.24.27-.35.38-.11.11-.21.2-.31.29l-1.19.98-1.47-1.81,3.6-2.93h2.55v10.48Z"/></g><circle class="cls-6" cx="345.99" cy="302.54" r="10"/><circle class="cls-6" cx="436.99" cy="490.54" r="10"/></svg>