<?xml version="1.0" encoding="UTF-8"?><svg id="Silverstone_Simple" xmlns="http://www.w3.org/2000/svg" viewBox="0 0 1000 1000"><defs><style>.cls-1{fill:#fae44a;}.cls-2{fill:#db4a25;}.cls-3,.cls-4{fill:#1bce20;}.cls-5{fill:#75e5fd;}.cls-4{stroke:#000;stroke-miterlimit:10;stroke-width:2px;}</style></defs><path d="m13.59,400.68c1.24,9.92,12.07,95.85,18.84,136.03,1.27,40.88,12.29,78.08,12.76,79.63l.43,1.47.82,1.7c31.49,62.97,94.76,86.93,107.62,91.24,47.5,26.2,73.46,19.26,82.49,15,4.1-1.55,11.94-5.36,19.06-13.55,7.77-8.97,16.44-25.33,13.67-52.4-1.41-13.72-7.75-25.47-18.35-34.01-19.52-15.73-48.58-16.55-62.7-15.87,2.17-5.53,9.53-15.96,17.95-23.88l.81-.74,88.65-103.78,1.09-1.26c1.74-2,5.24-6.04,9.93-11.47,19.36-22.39,66.43-77.04,85.45-100.83,9.72-12.16,15.51-16.9,17.96-18.59,6.4.52,17.25,3.03,30.99,7.15-17.83,8.01-29.8,18.52-35.62,31.28-6.72,14.73-2.61,26.82-1.72,29.09l1.03,2.63,67.71,87.2.06.08c1.09,2.05,7.81,17.02-.75,59.1-5.97,29.36-3.67,53.23,6.84,70.96,6.99,11.8,15.76,17.49,20.45,19.86l82.61,58.03.23.15c.33.23,36.35,24.8,66.83,46.79l10.87-14.22,2.43-3.18,10.4-13.6-.05-.04c-.09-.07-.18-.14-.27-.2l-.18-.13c-30.71-22.16-66.46-46.55-67.94-47.57l-86-60.4-1.64-.59c-2.36-1.38-5.47-5.38-7.27-12.62-2.26-9.13-1.95-21.4.91-35.46,12.26-60.3-.85-83.93-7-91.23l-61.58-79.29c1.58-2.43,6.74-8.12,22.45-13.81l17.58-5.02c12.02-3.44,20.41-14.13,20.88-26.62.46-12.47-7.09-23.75-18.79-28.07-11.36-4.19-50.11-17.97-72.24-19.26-5.89-.91-12.22.45-18.8,4.07-9.03,4.97-19.12,14.51-30.84,29.16-18.19,22.73-64.47,76.49-83.52,98.55-5.33,6.16-9.23,10.68-10.98,12.69l-1.01,1.17-87.46,102.37c-2.71,2.63-9.51,9.52-15.81,18.14-12.88,17.69-17.08,33.64-12.49,47.42,4.38,13.15,11.55,21.51,21.32,24.85,6.84,2.35,12.85,1.41,16.76.16,10.17-.63,29.35.2,38.05,7.24,2.47,1.99,3.62,4.18,3.97,7.58,1.95,18.99-5.19,24.18-7.21,25.26l-1.63.25-1.91,1.21c-2.54.6-17.12,2.83-48.28-14.7l-1.86-1.06-2.07-.61c-2.39-.76-58.82-19.24-85.4-70.48-1.78-6.49-9.94-37.77-10.75-69.36l-.03-1.26-.24-1.53c-6.81-39.93-18.77-135.31-18.87-136.19l-.17-1.07c-2.98-16.26-3.31-52.84,14.72-62.1,33.5-17.19,57.53-28.13,108.7-35.03,43.18-5.81,108.89-10.27,128-11.5,8.71-.56,16.96-2.91,24.52-6.97,6.68-3.56,13.7-8.41,20.86-14.38,8.19-6.82,24.92-5.93,30.87-4.99,11.88,3.75,31.78,10.57,38.31,14.13,8.31,4.53,18.84,6.03,31.29,4.44,9.69-1.25,18.77-5.28,26.27-11.66,4.98-4.23,14.87-12.12,25.11-17.32,9.85-5.02,14.65-4.76,15.39-4.42,19.69,10.67,20.27,11.58,25.83,20.31,1.05,1.66,2.37,3.85,3.75,6.13,12.22,20.27,24.47,39.09,39.97,46.84,3.87,1.94,21.62,10.74,55.87,27.7,49.34,24.44,117.1,57.98,144.23,71.4,7.28,3.61,11.63,5.76,11.84,5.87.03.01.24.12.62.31,10.66,5.39,38.59,19.73,67.63,36.3,65.41,37.32,73.31,50.13,73.58,50.6l.13.24c10.09,17.24,13.94,29.27,12.12,37.86-1.85,8.73-10.74,17.85-27.19,27.88-9.36,4.03-40.59,18.31-58.88,36.62-5.74,5.73-17.85,15.98-30.67,26.84-14.29,12.09-30.49,25.8-40.84,35.8-6.99,6.75-8.83,9.72-9.92,11.49-.29.47-.5.8-.72,1.08-4.67,5.75-6.79,11.59-6.15,16.9.73,5.92,5,10.06,8.76,13.71l.98.95,11.55,14.61c-.07,2.11-2.08,6.02-7.61,11.25-20.03,18.94-36.63,25.36-45.44,27.54l.04-.03-7.91,1.12c-2.51-.3-13.16-2.3-28.74-15.4-5.55-4.65-13.97-11.15-25.03-19.3l-10.15,13.42-2.41,3.19-10.96,14.49c10.54,7.77,18.44,13.84,23.45,18.05,27.74,23.3,48.92,24.69,54.71,24.58h.1c6.27,0,39.56-1.9,79.14-39.34,18.68-17.67,20.88-34.32,19.44-45.17-1.3-9.83-5.88-18.92-13.62-27.05,21.91-18.64,56.86-48.44,69.56-61.16,12.44-12.43,38.67-25,47.7-28.79l1.18-.48,1.37-.79c27.35-16.42,42.11-33.56,46.43-53.94,5.12-24.23-6.18-47.76-16.59-65.55-5.9-10.28-21.26-26.98-88.21-65.17-36.38-20.76-69.68-37.37-70.01-37.53-.59-.3-18.79-9.31-43.99-21.78-32.92-16.3-78.18-38.7-113.52-56.2l-6.9-3.42c-24.84-12.31-43.58-21.61-47.52-23.57-4.46-2.23-12.55-13.04-24.03-32.12l-.63-1.04c-1.35-2.23-2.52-4.16-3.61-5.87-9.38-14.76-14.21-19.63-40.17-33.69-5.93-3.2-12.6-4.82-19.82-4.82-18.45,0-40.15,10.48-64.5,31.14-1.75,1.49-3.81,2.43-5.97,2.71-5.14.66-7.49.03-7.76-.05-12.81-6.94-45.05-17-46.4-17.43l-.88-.28-1.13-.23c-4.01-.8-39.87-7.22-64.3,13.14-5.16,4.29-9.98,7.64-14.32,9.96-2.59,1.39-5.49,2.2-8.61,2.41-19.49,1.26-86.53,5.82-130.69,11.79-52.61,7.06-79.94,17.73-121.3,38.96-14.92,7.66-33.43,25.03-36.9,64.26-1.67,18.87.95,35.69,1.51,38.99Zm2.47-38.63c3.31-37.42,20.72-53.86,34.74-61.06,40.94-21.02,67.99-31.57,120.02-38.56,44.03-5.94,110.95-10.5,130.42-11.75,3.69-.26,7.14-1.23,10.23-2.89,4.57-2.44,9.62-5.95,14.99-10.4,23.01-19.18,57.14-13.06,60.96-12.3l.8.16.79.25c1.35.42,33.41,10.43,45.79,17.19l.14.06c1.06.48,4.34,1.09,9.94.37,2.93-.38,5.72-1.63,8.05-3.63,23.61-20.02,44.44-30.18,61.91-30.18,6.55,0,12.58,1.46,17.92,4.34,25.12,13.6,29.76,18.27,38.69,32.32,1.07,1.67,2.23,3.58,3.57,5.79l.63,1.04c8.33,13.85,18.78,30.19,25.67,33.63,3.93,1.96,22.68,11.26,47.53,23.57l6.89,3.42c35.35,17.51,80.6,39.91,113.53,56.21,25.19,12.47,43.39,21.47,43.98,21.77.33.16,33.52,16.72,69.81,37.43,66.11,37.7,81.08,53.84,86.73,63.7,10.06,17.18,20.98,39.83,16.13,62.71-4.07,19.21-18.23,35.53-44.56,51.34l-.96.57-1.06.44c-9.26,3.88-36.12,16.77-49,29.66-12.92,12.92-49.25,43.85-70.97,62.33l-1.66,1.41,1.56,1.54c8.01,7.87,12.72,16.72,13.99,26.27,1.32,9.93-.77,25.23-18.22,41.75-38.49,36.4-70.4,38.24-76.4,38.24h-.14c-5.49.12-25.43-1.24-52.09-23.64-4.85-4.07-12.31-9.83-22.19-17.13l8.62-11.29,2.44-3.19,7.75-10.15c10.25,7.58,18.1,13.65,23.32,18.03,13.01,10.93,23.03,14.57,28.03,15.78l-.98.86,5.7-.28c4.08-.2,25.91-2.59,54.62-29.75,3.59-3.39,9.5-9.86,8.81-15.15l-.07-.55-12.36-15.64-.17-.19c-.35-.35-.72-.7-1.08-1.05-3.45-3.35-7.02-6.81-7.57-11.32-.65-5.32,2.51-10.49,5.27-13.9.39-.48.68-.95,1.02-1.5,1-1.61,2.67-4.31,9.3-10.71,10.26-9.91,26.4-23.57,40.64-35.63,12.89-10.91,25.06-21.21,30.91-27.07,17.88-17.88,48.74-31.94,57.77-35.82l.25-.13c17.52-10.66,27.05-20.66,29.15-30.55,2.04-9.62-1.96-22.55-12.54-40.63l-.13-.23c-1.33-2.31-11.23-15.69-75.1-52.14-29.12-16.61-57.12-30.98-67.81-36.39l-.57-.29c-.28-.14-4.63-2.29-11.92-5.9-27.12-13.43-94.89-46.97-144.22-71.4-34.25-16.96-51.99-25.76-55.86-27.7-14.55-7.26-26.43-25.58-38.34-45.32-1.38-2.31-2.72-4.52-3.79-6.21-6.04-9.49-7.37-10.89-27.3-21.69-2.47-1.34-8.78-.89-19.12,4.38-10.6,5.38-20.77,13.49-25.89,17.84-6.9,5.87-15.27,9.58-24.18,10.74-11.6,1.47-21.31.13-28.87-4-6.81-3.7-27.15-10.68-39.16-14.47l-.28-.06c-7.86-1.28-25.14-1.71-34.21,5.83-6.95,5.81-13.74,10.5-20.19,13.94-7.05,3.79-14.75,5.97-22.89,6.49-19.14,1.24-84.97,5.71-128.28,11.54-51.8,6.98-76.11,18.04-109.98,35.43-21.64,11.11-19.35,52.69-16.85,66.33l.15.94c.09.77,12,95.91,18.9,136.32l.18,1.1.03,1.12c.81,31.59,8.59,61.96,10.95,70.52l.15.39c27.3,52.84,85.37,71.86,87.9,72.66l1.64.48,1.47.84c33.26,18.71,48.82,15.78,51.6,15.01l.28-.08,1.72-1.1,1.39-.21.26-.12c2.86-1.35,11.98-7.45,9.73-29.4-.46-4.46-2.14-7.64-5.44-10.29-11.97-9.7-38.13-8.3-41.07-8.11l-.25.02-.25.08c-3.32,1.1-8.52,1.98-14.45-.06-8.53-2.92-14.86-10.43-18.82-22.33-4.16-12.49-.15-27.22,11.93-43.8,6.16-8.45,12.84-15.19,15.42-17.69l.07-.07,87.58-102.51,1-1.15c1.74-2.02,5.65-6.53,10.97-12.69,19.07-22.08,65.39-75.88,83.62-98.67,11.39-14.23,21.08-23.44,29.64-28.16,5.83-3.19,11.33-4.41,16.36-3.61l.2.03c21.56,1.22,59.93,14.87,71.18,19.03,10.07,3.71,16.57,13.43,16.17,24.16-.41,10.75-7.63,19.97-17.98,22.93l-17.65,5.04-.13.04c-19.19,6.93-24.13,14.18-25.36,16.97l-.48,1.09,63.16,81.34c17.99,21.34,9.29,72.68,6.19,87.91-6.9,33.94,2.08,48.94,8.48,52.45l1.58.6,85.58,60.11c1.49,1.02,36.27,24.75,66.61,46.6l-7.98,10.46-2.44,3.18-7.94,10.41-.47.62c-30.17-21.72-65.02-45.49-65.32-45.7l-82.93-58.25-.26-.15c-4.26-2.13-12.39-7.36-18.93-18.39-9.99-16.85-12.13-39.77-6.36-68.12,8.84-43.47,1.78-59.23.27-61.95l-.07-.12-67.62-87.11-.83-2.09c-.79-2.01-4.41-12.7,1.64-25.97,5.91-12.97,18.89-23.53,38.56-31.38l5.23-2.09-5.37-1.68c-9.87-3.09-27.91-8.36-37.85-8.98l-.65-.04-.55.35c-2.76,1.77-8.96,6.68-19.46,19.82-18.98,23.73-66.01,78.34-85.35,100.71-4.69,5.43-8.19,9.47-9.93,11.47l-1.1,1.27-88.52,103.61-.64.6c-8.93,8.39-19.28,22.28-19.84,28.79l-.21,2.33,2.34-.17c36.76-2.57,56.09,9.52,62.69,14.84,9.74,7.85,15.58,18.67,16.87,31.29,2.63,25.65-5.46,41.01-12.71,49.38-6.58,7.57-13.81,11.06-17.53,12.46l-.15.06c-8.41,4-32.97,10.53-79.07-14.94l-.34-.15c-12.19-4.06-74.55-27.44-105.48-89.29l-.61-1.21-.38-1.3c-.47-1.55-11.37-38.35-12.61-78.76l-.03-.27c-6.76-40.11-17.62-126.34-18.84-136.04v-.09c-.54-3.11-3.12-19.55-1.49-38Z"/><g id="Start_Line"><polygon points="629.11 764.47 644.32 762.18 644.89 765.92 633.42 767.66 635.15 779.12 631.41 779.68 629.11 764.47"/><polygon points="622.71 770 618.97 770.57 617.37 759.99 616.67 755.36 631.88 753.06 632.44 756.81 620.97 758.54 621.23 760.26 622.71 770"/><polygon points="610.27 760.88 606.52 761.45 606.19 759.23 604.24 746.24 619.44 743.96 620.01 747.69 608.54 749.42 610.07 759.5 610.27 760.88"/></g><polygon points="637.05 783.86 650.89 765.71 652.76 763.24 653.84 761.83 654.16 761.41 655.1 760.17 655.73 759.35 674.93 734.18 675.07 734 675.1 733.97 675.26 733.76 678.49 736.23 680.21 737.52 680.02 737.75 679.98 737.8 679.91 737.88 660.71 763.05 659.88 764.14 659.18 765.07 658.79 765.58 657.65 767.07 655.87 769.41 641.97 787.62 638.73 785.14 637.05 783.86"/><path class="cls-1" d="m642.41,343.63l14.22-32c62.56,30.98,156.15,77.3,157.51,77.98,1.45.72,34.4,17.22,69.91,37.48,66.42,37.88,81.68,54.34,87.47,64.43,10.25,17.51,21.34,40.61,16.36,64.14-4.2,19.8-18.66,36.52-45.5,52.64l-1.09.65-1.18.48c-9.14,3.83-35.66,16.53-48.36,29.23-12.76,12.77-48.31,43.06-71.08,62.44,8.29,8.15,13.24,17.42,14.57,27.44,1.38,10.39-.77,26.37-18.83,43.46-38.9,36.79-71.22,38.79-77.77,38.79h-.1c-5.61.12-26.21-1.25-53.42-24.11-5.58-4.68-14.02-11.11-23.71-18.25l.74-.97,20.51-26.83c10.08,7.43,18.96,14.21,24.98,19.26,16.56,13.92,27.93,15.67,30.06,15.88l1.56-.22-.26.23c3.24-.16,24.83-2.22,53.35-29.2,5.64-5.33,8.62-10.23,8.2-13.44l-12.02-15.21c-3.89-3.82-8.54-7.82-9.24-13.56-.7-5.74,2.35-11.26,5.71-15.4,1.33-1.64,1.64-3.86,10.48-12.39,19.56-18.89,59.28-50.42,71.53-62.67,18.51-18.52,50.83-33,58.39-36.25,17.02-10.36,26.26-19.95,28.23-29.25,1.93-9.1-1.99-21.58-12.35-39.28l-.09-.17c-.78-1.35-9.5-14.39-74.36-51.4-34.69-19.79-67.95-36.45-68.28-36.63-1.31-.65-93.55-46.3-156.14-77.3Z"/><path class="cls-2" d="m279.64,443.47c21.49-24.88,65.96-76.6,83.57-98.61,11.56-14.45,21.45-23.82,30.24-28.66,7.33-4.02,13.3-4.52,17.63-3.83,21.75,1.23,60.23,14.89,71.76,19.15,10.89,4.02,17.91,14.52,17.48,26.12-.44,11.63-8.25,21.57-19.43,24.77l-17.65,5.04c-17.18,6.21-22.81,12.73-24.21,15.9l62.38,80.33c5.58,6.62,18.82,29.6,6.62,89.6-6.7,32.95,1.84,47.2,7.48,50.3l1.55.56,85.78,60.25c3.05,2.08,37.77,25.79,67.92,47.55v.81s-20.85,27.33-20.85,27.33c-30.48-21.99-66.36-46.47-66.89-46.83l-.2-.14-82.73-58.11c-4.5-2.25-12.98-7.72-19.76-19.16-10.25-17.29-12.47-40.68-6.6-69.54,8.87-43.62,1.4-58.92.48-60.58l-.15-.2-67.55-87-.93-2.36c-.84-2.14-4.7-13.55,1.68-27.53,6.15-13.49,19.47-24.36,39.64-32.41-14.89-4.66-29.32-8.39-37.37-8.89-2.38,1.52-8.43,6.19-18.98,19.38-18.49,23.12-64.18,76.22-85.4,100.77l-25.51-24.01Z"/><path class="cls-5" d="m14.07,361.87c3.39-38.32,21.35-55.23,35.82-62.66,41.12-21.11,68.3-31.73,120.66-38.76,44.43-6,111.16-10.52,130.55-11.77,3.38-.23,6.56-1.11,9.43-2.65,4.5-2.41,9.43-5.85,14.65-10.18,23.74-19.79,58.72-13.5,62.63-12.72l.91.18.88.28c3.44,1.07,34,10.7,46.16,17.34.6.27,3.42.91,8.86.21,2.55-.33,4.98-1.43,7.02-3.17,27.6-23.42,48.24-30.66,63.2-30.66,7.76,0,13.99,1.95,18.87,4.58,25.54,13.83,30.28,18.61,39.43,33,1.25,1.96,2.62,4.24,4.22,6.88,4.82,8.01,17.65,29.27,24.85,32.87,4.29,2.14,26.2,13,54.42,26.99l-14.22,32c-28.9-14.31-51.48-25.5-55.86-27.7-15.02-7.5-27.1-26.08-39.16-46.08-1.48-2.46-2.75-4.56-3.77-6.17-5.7-8.95-6.43-10.09-26.57-21-1.45-.79-6.91-.87-17.25,4.4-10.39,5.28-20.44,13.28-25.5,17.58-7.22,6.14-15.95,10-25.23,11.2-12.02,1.53-22.14.11-30.07-4.22-6.7-3.64-26.89-10.56-38.81-14.32-6.39-1.04-23.71-2-32.61,5.4-7.03,5.87-13.93,10.64-20.52,14.16-7.32,3.93-15.3,6.19-23.71,6.73-19.11,1.23-84.82,5.69-128.14,11.52-51.5,6.94-75.66,17.94-109.34,35.23-20.54,10.55-18.22,50.93-15.78,64.24l.16,1.02c.11.96,12.03,96.08,18.88,136.22l.21,1.24.03,1.26c.82,31.95,8.96,63.09,10.88,70.04,27.41,53.07,86.09,71.47,86.68,71.66l1.87.55,1.66.95c32.73,18.41,47.68,15.49,50.08,14.82l1.82-1.16,1.52-.23c2.16-1.02,10.74-6.44,8.59-27.39-.4-3.92-1.81-6.61-4.71-8.94-9.74-7.89-30.47-8.26-39.68-7.66-4.45,1.47-10,1.9-15.73-.07-9.15-3.13-15.9-11.07-20.07-23.59-4.38-13.14-.27-28.48,12.21-45.61,6.38-8.74,13.33-15.7,15.65-17.95l87.52-102.44c.18-.21,4.79-5.53,11.98-13.85l25.51,24.01c-6.15,7.12-10.25,11.84-11.02,12.73l-88.59,103.7-.72.67c-9.6,9.02-18.76,22.21-19.22,27.5,11.29-.79,43.45-1.35,64.08,15.27,10.17,8.19,16.26,19.48,17.61,32.65,2.7,26.38-5.68,42.22-13.19,50.89-6.91,7.95-14.51,11.58-18.33,13.02-8.43,4-33.81,11.02-80.9-15-12.28-4.09-75.37-27.77-106.64-90.29l-.69-1.37-.43-1.47c-.48-1.6-11.45-38.91-12.69-79.27-6.83-40.5-17.86-128.22-18.85-136.12-.58-3.38-3.15-19.84-1.5-38.52Z"/><path d="m26.99,376.12c.2,1.02.36,2.03.52,3.05,2.52,16.67,15.59,103.64,24.64,179.68,9.65,81.01,39.51,96.91,42.96,98.49,3.88,3.03,60.41,46.5,111.73,54.25,15.75,2.37,27.65-.52,35.39-8.62,14-14.63,9.09-40.65,8.89-41.66-.05-.34-5.47-33.3-41.95-33.3-1.18,0-2.4.03-3.64.1-18.57,1.06-28.06-.08-31.75-3.83-2.36-2.39-2.57-6.07-2.14-12.03.93-13.12,16.3-29.6,16.46-29.77l.08-.09c1.82-2.18,182.18-218.21,197.99-236.99,12.78-15.17,13.97-14.97,33.97-11.49,3.78.65,8.06,1.4,13.2,2.18,30.77,4.66,45.72,17.4,46.82,18.38.05.1.15.4-.03.95-.6,1.89-4.35,7.11-26.16,14.8-21.58,7.62-30.97,20.95-32.46,30.05-1.05,6.45.66,13.21,4.7,18.54l56.76,74.85c6.59,8.7,10.08,19.76,10.98,34.82.84,14-1.24,28.46-6.2,42.98-6.3,18.44-4.4,36.4,5.81,54.9,3.84,6.98,9.41,13.04,16.11,17.54l63.83,42.86c3.25,2.3,44.83,31.82,84.4,59.52.57.4,1.13.8,1.7,1.19l2.43-3.18c-.56-.4-1.12-.8-1.69-1.19-40.78-28.55-83.78-59.08-84.54-59.62l-63.9-42.9c-6.17-4.15-11.3-9.73-14.84-16.15-6.14-11.14-13.4-28.62-5.53-51.67,5.13-15.02,7.29-30,6.42-44.52-.96-15.88-4.7-27.64-11.79-36.99l-56.76-74.86c-3.38-4.45-4.82-10.1-3.94-15.48,1.41-8.65,11.19-20.33,29.85-26.91,17.83-6.3,27.52-12.32,28.78-17.9.46-2.03-.27-3.64-1.09-4.45-.63-.59-15.83-14.48-49.06-19.52-5.1-.77-9.36-1.51-13.12-2.16-21.13-3.68-23.91-3.53-37.71,12.85-15.75,18.7-194.49,232.8-197.97,236.96-1.11,1.2-16.47,17.87-17.5,32.19-.41,5.79-.47,11.31,3.29,15.12,4.7,4.77,14.47,6.18,34.82,5.02,36.07-2.06,41.21,28.5,41.43,29.88.05.25,4.72,25.11-7.85,38.23-6.79,7.09-17.52,9.58-31.89,7.41-51.85-7.82-109.48-53.13-110.06-53.59l-.22-.17-.26-.11c-.31-.13-31.08-13.93-40.77-95.39-9.06-76.09-22.14-163.12-24.67-179.8-.16-1.07-.34-2.14-.54-3.21-.79-4.05-2.66-18.56,6.07-35.18,11.45-21.79,35.9-37.82,72.67-47.64,85.84-22.92,192.39-23.91,195.43-23.93,1.4.06,16.53.35,33.5-17.63,15.94-16.87,47.65-7.55,47.91-7.48l49.7,16.9c2.28,1.56,13.21,6.13,43.2-18.24l.31-.31c.59-.74,14.71-18.04,42.16-14.26,27.13,3.74,45.69,45.13,46.41,46.77.59,1.59,8.84,22.99,29.04,32.07,19.74,8.89,166.47,80.26,167.96,80.99,1.26.59,126.23,60.26,164.59,91.74,40.44,33.18,41.38,51.67,38.29,74.18-3.6,26.23-39.64,41.02-46.83,43.72-.84.31-1.69.58-2.5.82-4.51,1.35-30.8,11.82-106,85.21l-4.11,3.14-.2.18c-1.51,1.5-3.44,3.01-5.3,4.48-1.51,1.18-3.06,2.4-4.41,3.63-1.68,1.53-2.57,3.72-2.51,6.17.14,5.82,5.37,13.04,15.57,21.46,3.69,3.05,5.43,6.67,5.31,11.05-.48,18.09-31.91,41.57-32.25,41.81-.36.28-36.15,27.05-54.76,15.89-7.18-4.31-29.43-19.6-54.89-37.36-.51-.35-1.02-.71-1.53-1.06l-2.41,3.19c.5.36,1,.71,1.5,1.06,25.54,17.81,47.92,33.18,55.27,37.59,20.92,12.56,57.68-14.94,59.22-16.1,1.36-1.01,33.32-24.88,33.85-44.91.15-5.62-2.12-10.41-6.77-14.24-12.14-10.03-14.05-15.88-14.12-18.47-.03-1.31.38-2.36,1.21-3.12,1.24-1.13,2.68-2.26,4.19-3.45,1.92-1.5,3.9-3.06,5.56-4.7l4.1-3.13.19-.16c74.59-72.82,100.09-83.02,104.44-84.33.87-.26,1.81-.55,2.75-.91,4.37-1.64,15.7-6.29,26.38-13.97,13.61-9.79,21.35-20.88,23.01-32.95,3.78-27.54-1.2-46.21-39.71-77.82-38.74-31.78-164.15-91.65-165.39-92.25-1.49-.72-148.26-72.11-168.06-81.02-18.96-8.54-26.86-29.65-26.94-29.87l-.04-.1c-.8-1.84-19.79-45.08-49.57-49.19-2.89-.4-5.65-.58-8.28-.58-23.28,0-35.84,14.23-37.41,16.14-29.45,23.88-38.23,17.93-38.25,17.92l-.3-.26-50.45-17.15c-1.4-.43-34.39-10.15-52.03,8.54-16.05,16.99-30.28,16.38-30.42,16.37h-.14c-1.08.01-109.34.79-196.51,24.07-37.89,10.12-63.18,26.82-75.17,49.64-9.34,17.77-7.31,33.43-6.46,37.8Z"/><path class="cls-3" d="m618.07,269.28l2.69,1.32-3.97,8.08-2.69-1.32,3.96-8.08Zm5.38,2.64l2.69,1.32-3.96,8.08-2.69-1.32,3.97-8.08Zm5.38,2.64l2.69,1.32-3.96,8.08-2.69-1.32,3.97-8.08Zm5.38,2.64l2.69,1.32-3.96,8.08-2.69-1.32,3.96-8.08Zm5.39,2.64l2.69,1.32-3.96,8.08-2.69-1.32,3.97-8.08Zm5.38,2.64l2.69,1.32-3.96,8.08-2.69-1.32,3.96-8.08Zm5.39,2.64l2.69,1.32-3.96,8.08-2.69-1.32,3.96-8.08Zm5.38,2.64l2.69,1.32-3.96,8.08-2.69-1.32,3.96-8.08Zm5.39,2.64l2.69,1.32-3.96,8.08-2.7-1.32,3.97-8.08Zm5.38,2.64l2.7,1.32-3.96,8.08-2.69-1.32,3.96-8.08Zm5.39,2.64l2.69,1.32-3.96,8.08-2.69-1.32,3.96-8.08Zm5.39,2.64l2.69,1.32-3.96,8.08-2.69-1.32,3.96-8.08Zm5.39,2.64l2.69,1.32-3.96,8.08-2.69-1.32,3.96-8.08Zm5.39,2.64l2.69,1.32-3.96,8.08-2.69-1.32,3.96-8.08Zm5.39,2.64l2.69,1.32-3.96,8.08-2.69-1.32,3.96-8.08Zm5.39,2.64l2.69,1.32-3.96,8.08-2.69-1.32,3.96-8.08Zm5.39,2.64l2.69,1.32-3.96,8.08-2.69-1.32,3.96-8.08Zm5.39,2.64l2.69,1.32-3.96,8.08-2.69-1.32,3.96-8.08Zm5.39,2.64l2.69,1.32-3.96,8.08-2.69-1.32,3.96-8.08Zm5.39,2.64l2.69,1.32-3.96,8.08-2.7-1.32,3.96-8.08Zm5.39,2.64l2.69,1.32-3.96,8.08-2.69-1.32,3.96-8.08Zm5.39,2.64l2.69,1.32-3.96,8.08-2.69-1.32,3.96-8.08Zm5.39,2.64l2.69,1.32-3.96,8.08-2.7-1.32,3.96-8.08Zm5.39,2.64l2.7,1.32-3.96,8.08-2.69-1.32,3.96-8.08Zm5.39,2.64l2.69,1.32-3.96,8.08-2.69-1.32,3.96-8.08Zm5.39,2.64l2.7,1.32-3.96,8.08-2.69-1.32,3.96-8.08Zm5.39,2.64l2.69,1.32-3.96,8.08-2.7-1.32,3.96-8.08Zm5.39,2.64l2.69,1.32-3.96,8.08-2.69-1.32,3.96-8.08Zm5.39,2.64l2.69,1.32-3.96,8.08-2.69-1.32,3.96-8.08Zm5.39,2.64l2.7,1.32-3.96,8.08-2.69-1.32,3.96-8.08Zm5.39,2.64l2.7,1.32-3.96,8.08-2.69-1.32,3.96-8.08Zm5.39,2.64l2.7,1.32-3.96,8.08-2.69-1.32,3.95-8.08Zm5.39,2.64l2.69,1.32-3.96,8.08-2.69-1.32,3.96-8.08Zm5.39,2.64l2.69,1.32-3.96,8.08-2.69-1.32,3.96-8.08Zm5.39,2.64l2.69,1.32-3.96,8.08-2.7-1.32,3.96-8.08Zm5.39,2.64l2.7,1.32-3.96,8.08-2.69-1.32,3.95-8.08Zm5.39,2.64l2.7,1.32-3.96,8.08-2.69-1.32,3.96-8.08Zm5.39,2.64l2.7,1.32-3.96,8.08-2.69-1.32,3.96-8.08Zm5.39,2.64l2.69,1.32-3.96,8.08-2.69-1.32,3.96-8.08Zm5.4,2.65l2.7,1.33-3.99,8.07-2.68-1.32,3.97-8.08Zm5.39,2.67l2.69,1.35-4.03,8.05-2.67-1.33,4.01-8.06Zm5.38,2.7l2.69,1.36-4.07,8.03-2.67-1.35,4.05-8.04Zm5.37,2.72l2.68,1.37-4.11,8.01-2.66-1.36,4.08-8.02Zm5.36,2.75l2.68,1.38-4.15,7.99-2.65-1.37,4.12-8Zm5.34,2.77l2.67,1.4-4.19,7.97-2.65-1.39,4.16-7.98Zm5.33,2.8l2.66,1.41-4.23,7.94-2.64-1.4,4.21-7.95Zm5.31,2.83l2.65,1.43-4.27,7.92-2.63-1.41,4.25-7.93Zm5.3,2.86l2.64,1.44-4.32,7.89-2.62-1.43,4.3-7.91Zm5.29,2.9l2.64,1.46-4.37,7.87-2.61-1.45,4.35-7.88Zm5.27,2.93l2.63,1.48-4.42,7.84-2.6-1.46,4.4-7.85Zm5.25,2.96l2.62,1.5-4.48,7.81-2.59-1.48,4.45-7.82Zm5.23,3c.88.51,1.75,1.01,2.61,1.52l-4.54,7.77c-.85-.5-1.71-1-2.58-1.5l4.51-7.79Zm5.21,3.04c.87.51,1.74,1.03,2.6,1.54l-4.6,7.74c-.85-.5-1.7-1.01-2.57-1.52l4.57-7.75Zm5.19,3.08c.87.52,1.73,1.04,2.59,1.56l-4.67,7.7c-.84-.51-1.69-1.02-2.55-1.54l4.63-7.72Zm5.16,3.13c.87.53,1.72,1.06,2.57,1.58l-4.73,7.66c-.84-.52-1.68-1.04-2.54-1.56l4.7-7.68Zm5.14,3.18c.86.54,1.71,1.07,2.56,1.61l-4.8,7.61c-.83-.52-1.67-1.05-2.52-1.58l4.77-7.63Zm5.11,3.23c.86.55,1.71,1.09,2.54,1.63l-4.88,7.56c-.82-.53-1.66-1.07-2.5-1.61l4.84-7.58Zm5.08,3.28c.85.56,1.7,1.11,2.53,1.66l-4.97,7.51c-.82-.54-1.64-1.09-2.48-1.63l4.92-7.53Zm5.05,3.34c.85.57,1.68,1.13,2.51,1.69l-5.06,7.45c-.81-.55-1.63-1.1-2.46-1.66l5.01-7.48Zm5.01,3.4c.84.58,1.67,1.16,2.49,1.73l-5.15,7.38c-.8-.56-1.61-1.12-2.44-1.69l5.1-7.41Zm4.97,3.47c.84.59,1.66,1.18,2.47,1.76l-5.26,7.3c-.79-.57-1.6-1.14-2.41-1.72l5.2-7.34Zm4.92,3.54c.83.61,1.64,1.21,2.44,1.8l-5.37,7.22c-.78-.58-1.57-1.17-2.38-1.76l5.31-7.26Zm4.87,3.62c.82.62,1.63,1.24,2.42,1.85l-5.5,7.13c-.77-.59-1.55-1.19-2.35-1.8l5.43-7.17Zm4.81,3.72c.81.64,1.61,1.27,2.38,1.89l-5.64,7.02c-.75-.6-1.52-1.22-2.31-1.84l5.57-7.07Zm4.75,3.82c.8.66,1.58,1.31,2.35,1.95l-5.79,6.89c-.74-.62-1.49-1.25-2.27-1.88l5.71-6.95Zm4.67,3.93c.79.68,1.56,1.35,2.3,2.01l-5.97,6.73c-.71-.63-1.45-1.28-2.21-1.94l5.88-6.81Zm4.58,4.06c.78.71,1.53,1.41,2.25,2.09l-6.18,6.55c-.69-.65-1.4-1.31-2.14-1.99l6.07-6.65Zm4.47,4.22c.76.74,1.49,1.47,2.18,2.18l-6.42,6.31c-.66-.67-1.34-1.35-2.06-2.05l6.29-6.44Zm4.33,4.41c.74.79,1.44,1.55,2.1,2.29l-6.71,6c-.61-.68-1.26-1.39-1.95-2.12l6.55-6.17Zm4.16,4.65c.72.85,1.38,1.67,1.99,2.44l-7.07,5.56c-.55-.7-1.15-1.43-1.79-2.2l6.88-5.8Zm3.9,4.98c.66.91,1.27,1.81,1.83,2.68l-7.58,4.85c-.46-.73-.98-1.49-1.54-2.26l7.3-5.26Zm3.52,5.56c1.13,2.11,1.5,3.36,1.59,3.7l-8.7,2.29.03.11s-.2-.63-.86-1.86l7.94-4.23Z"/><path class="cls-3" d="m366.71,314.69l6.84,5.85-1.95,2.28-6.84-5.85,1.95-2.28Zm-3.9,4.56l6.84,5.85-1.95,2.28-6.84-5.85,1.95-2.28Zm-3.9,4.56l6.84,5.85-1.95,2.28-6.84-5.85,1.95-2.28Zm-3.9,4.56l6.84,5.85-1.95,2.28-6.84-5.85,1.95-2.28Zm-3.9,4.56l6.84,5.85-1.95,2.28-6.84-5.85,1.95-2.28Zm-3.9,4.56l6.84,5.85-1.95,2.28-6.84-5.85,1.95-2.28Zm-3.9,4.56l6.84,5.85-1.95,2.28-6.84-5.85,1.95-2.28Zm-3.9,4.56l6.84,5.85-1.95,2.28-6.84-5.85,1.95-2.28Zm-3.9,4.56l6.84,5.85-1.95,2.28-6.84-5.85,1.95-2.28Zm-3.9,4.56l6.84,5.85-1.95,2.28-6.84-5.85,1.95-2.28Zm-3.9,4.56l6.84,5.85-1.95,2.28-6.84-5.85,1.95-2.28Zm-3.9,4.56l6.84,5.85-1.95,2.28-6.84-5.85,1.95-2.28Zm-3.9,4.56l6.84,5.85-1.95,2.28-6.84-5.85,1.95-2.28Zm-3.9,4.56l6.84,5.85-1.95,2.28-6.84-5.85,1.95-2.28Zm-3.9,4.56l6.84,5.85-1.95,2.28-6.84-5.85,1.95-2.28Zm-3.9,4.56l6.84,5.85-1.95,2.28-6.84-5.85,1.95-2.28Zm-3.9,4.56l6.84,5.85-1.95,2.28-6.84-5.85,1.95-2.28Zm-3.9,4.56l6.84,5.85-1.95,2.28-6.84-5.85,1.95-2.28Zm-3.9,4.56l6.84,5.85-1.95,2.28-6.84-5.85,1.95-2.28Zm-3.9,4.56l6.84,5.85-1.95,2.28-6.84-5.85,1.95-2.28Zm-3.9,4.56l6.84,5.85-1.95,2.28-6.84-5.85,1.95-2.28Zm-3.9,4.56l6.84,5.85-1.95,2.28-6.84-5.85,1.95-2.28Zm-3.9,4.56l6.84,5.85-1.95,2.28-6.84-5.85,1.95-2.28Zm-3.9,4.56l6.84,5.85-1.95,2.28-6.84-5.85,1.95-2.28Zm-3.9,4.56l6.84,5.85-1.95,2.28-6.84-5.85,1.95-2.28Zm-3.9,4.56l6.84,5.85-1.95,2.28-6.84-5.85,1.95-2.28Zm-3.9,4.56l6.84,5.85-1.95,2.28-6.84-5.85,1.95-2.28Zm-3.9,4.56l6.84,5.85-1.95,2.28-6.84-5.85,1.95-2.28Zm-3.9,4.56l6.84,5.85-1.95,2.28-6.84-5.85,1.95-2.28Zm-3.9,4.56l6.84,5.85-1.95,2.28-6.84-5.85,1.95-2.28Zm-3.9,4.56l6.84,5.85-1.95,2.28-6.84-5.85,1.95-2.28Zm-3.9,4.56l6.84,5.85-1.95,2.28-6.84-5.85,1.95-2.28Zm-3.9,4.56l6.84,5.85-1.95,2.28-6.84-5.85,1.95-2.28Zm-3.9,4.56l6.84,5.85-1.95,2.28-6.84-5.85,1.95-2.28Zm-3.9,4.56l6.84,5.85-1.95,2.28-6.84-5.85,1.95-2.28Zm-3.9,4.56l6.84,5.85-1.95,2.28-6.84-5.85,1.95-2.28Zm-3.9,4.56l6.84,5.85-1.95,2.28-6.84-5.85,1.95-2.28Zm-3.9,4.56l6.84,5.85-1.95,2.28-6.84-5.85,1.95-2.28Zm-3.9,4.56l6.84,5.85-1.95,2.28-6.84-5.85,1.95-2.28Zm-3.9,4.56l6.84,5.85-1.95,2.28-6.84-5.85,1.95-2.28Zm-3.9,4.56l6.84,5.85-1.95,2.28-6.84-5.85,1.95-2.28Zm-3.9,4.56l6.84,5.85-1.95,2.28-6.84-5.85,1.95-2.28Zm-3.9,4.56l6.84,5.85-1.95,2.28-6.84-5.85,1.95-2.28Zm-3.9,4.56l6.84,5.85-1.95,2.28-6.84-5.85,1.95-2.28Zm-3.9,4.56l6.84,5.85-1.95,2.28-6.84-5.85,1.95-2.28Zm-3.9,4.56l6.84,5.85-1.95,2.28-6.84-5.85,1.95-2.28Zm-3.9,4.56l6.84,5.85-1.95,2.28-6.84-5.85,1.95-2.28Zm-3.9,4.56l6.84,5.85-1.95,2.28-6.84-5.85,1.95-2.28Zm-3.9,4.56l6.84,5.85-1.95,2.28-6.84-5.85,1.95-2.28Zm-3.9,4.56l6.84,5.85-1.95,2.28-6.84-5.85,1.95-2.28Zm-3.9,4.56l6.84,5.85-1.95,2.28-6.84-5.85,1.95-2.28Zm-3.9,4.56l6.84,5.85-1.95,2.28-6.84-5.85,1.95-2.28Zm-3.9,4.56l6.84,5.85-1.95,2.28-6.84-5.85,1.95-2.28Zm-3.9,4.56l6.84,5.85-1.95,2.28-6.84-5.85,1.95-2.28Zm-3.9,4.56l6.84,5.85-1.95,2.28-6.84-5.85,1.95-2.28Zm-3.9,4.56l6.84,5.85-1.95,2.28-6.84-5.85,1.95-2.28Zm-3.9,4.56l6.84,5.85-1.95,2.28-6.84-5.85,1.95-2.28Zm-3.9,4.56l6.84,5.85-.84.98-6.84-5.85.84-.98Z"/><circle class="cls-4" cx="347.64" cy="244.11" r="10"/><circle class="cls-4" cx="438.64" cy="432.11" r="10"/></svg>