<?xml version="1.0" encoding="UTF-8"?><svg id="Spa_Detailed" xmlns="http://www.w3.org/2000/svg" viewBox="0 0 1000 1000"><defs><style>.cls-1,.cls-2{fill:#fff;}.cls-3{fill:#fae44a;}.cls-4{fill:#db4a25;}.cls-5,.cls-6{fill:#1bce20;}.cls-7{fill:#75e5fd;}.cls-6{stroke:#000;stroke-miterlimit:10;stroke-width:2px;}.cls-2{font-family:OpenSans-ExtraBold, 'Open Sans';font-size:12.58px;}</style></defs><path d="M684.13,334.38c37.84-4.98,108.53-34.87,111.58-36.17,1.76-.82,43.24-20.12,57.17-28.09,.35-.2,.62-.43,.84-.61,.07-.07,.15-.13,.26-.21,2.79-2.07,6.13-3.16,9.66-3.16,5.33,0,10.47,2.53,13.74,6.77l19.88,25.67c1.29,1.86,22.77,32.17,46.54,32.17,2.99,0,5.92-.49,8.72-1.46,25.62-8.87,29.84-26.14,30.28-28.35,.98-2.69,9.81-29.52-17.66-52.09-26.87-22.06-70.15-75.53-72.61-78.57-1.45-2.59-17.24-29.36-46.22-29.36-6.86,.01-14.03,1.55-21.23,4.64-22.38,9.6-32.68,11.61-37.38,11.61-1,0-1.69-.09-2.16-.2-.46-.11-.7-.24-.81-.31-.3-.74-7.55-18.07-34.68-18.07-11.92,0-25.92,3.41-41.62,10.13-1.99,.84-4.09,1.78-6.38,2.85-66.22,29.66-211.52,93.36-212.97,93.99l-56.05,24.03c-.59,.27-58.68,27.5-89.57,58.4-30.52,30.52-65.4,55.53-65.75,55.78l-.33,.29c-.07,.08-7.29,7.66-35.9,13.38-30.79,6.16-42.04,38.94-42.51,40.34-.12,.37-12.25,36.8-45.37,64.08-33.8,27.83-77.89,86.75-78.33,87.34l-.12,.19c-.28,.46-27.33,46.85-45.19,103.41-5.41,17.11-5.58,30.15-.52,38.76,3.32,5.64,8.73,9.27,16.09,10.77,1.83,.37,3.71,.56,5.6,.56,6.3,0,12.59-2.14,17.71-6.03l109.26-82.88,33.3-25.99-10.46-12.42-2.57-3.05-11.49-13.64-31.96,24.99-82.74,62.76c14.1-38.87,31.22-70.01,34.83-76.41,14.39-19.06,47.58-59.95,70.74-79.03,39.14-32.23,54.31-72.66,57.09-80.89l.2-.39,.02-.13c1.08-2.48,6.3-13.57,13.87-15.08,24.03-4.81,41.76-11.98,52.69-21.32,8.99-6.58,40.2-30.02,68.7-58.53,21.37-21.36,63.78-43.78,78.25-50.58l55.4-23.75,.72-.31c15.16-6.65,149.98-65.78,212.83-93.93l.65-.3c1.96-.92,3.95-1.81,5.88-2.63,14.01-5.88,22.3-6.76,25.99-6.76,1.02,0,1.8,.06,2.39,.13,7.22,11.74,20.02,18.45,35.27,18.45,12.51,0,28.65-4.53,52.35-14.68,2.43-1.04,4.54-1.57,6.25-1.57,5.51,0,11.39,7.32,13.11,10l.93,1.88,2.47,3.15c4.85,6.03,48.21,59.63,78.21,84.27,4.39,3.61,6.45,7.05,5.95,9.96l-.87,2.14c-.49,.41-1.28,.97-2.51,1.6-4.36-2.75-11.18-9.48-15.14-15.05l-.37-.55-20.65-26.67c-10.43-13.47-26.8-21.51-43.79-21.51-11.35,0-22.22,3.46-31.44,10.01-11.15,6.09-37.9,18.8-51.92,25.34-26.4,11.17-77.19,30.07-101.11,33.22-17.75,2.33-42.92,8.17-56.55,31.81-9.06,15.69-9.29,32.23-9.55,51.41l-.02,1.7c-.04,2.84-.09,5.78-.17,8.85-.7,27.17,10.31,51.33,30.98,68.05,13.34,10.77,26.96,15.27,30.79,16.38,1.52,.47,38.08,11.56,97.47,24.64,35.47,7.82,50.99,14,56.34,16.48,1,1.31,1.83,2.67,2.45,4.04,1.59,3.54,1.74,6.79,.51,10.89-6.36,20.97-6.13,39.93,.68,56.38,7.11,17.15,18.9,25.41,23.62,28.15,4.09,2.42,41.01,24.03,78.11,38.47,1.52,.58,2.45,1.11,2.96,1.45,.01,.43-.02,1.03-.12,1.63-1.58,3.92-7.24,17.38-18.29,37.69-1.23,2.26-2.52,4.6-3.88,7.02-6.81,12.1-13.11,16.24-15.26,17.38l-.51,.07-1.25,.38c-.67,.07-2.16,.19-4.6,.19-6.44,0-20.84-.94-44.95-7.23-30.59-7.93-69.07-40.18-85.22-56.2-8.16-10.17-36.13-45.32-58.49-76.79-30.16-42.45-52.03-54.91-58.02-57.72l-.94-.43c-.39-.17-40.58-17.69-85.24-32.23-10.82-3.52-22.05-5.31-33.37-5.31-38.14,0-66.47,19.74-76.98,28.33-54.51,33.54-81.21,41.47-85.94,42.7l-1.67,.37c-12.64,2.81-50.28,10.94-72.43,14.79-2.02,.35-4.02-.85-4.64-2.81l-6.74-21.36c-1.06-3.36-3.71-5.99-7.08-7.04-3.37-1.05-7.05-.37-9.84,1.8l-62.68,49.03,1.29,1.53,10.21,12.13,2.58,3.06,9.16,10.88,1.29,1.52,34.28-26.76c1.43,6.03,6.19,17.69,21.63,17.69,1.63,0,3.33-.11,5.04-.34,22.55-2.94,84.07-16.56,86.13-17.02,1.91-.33,31.99-6.08,101.66-49.26l.3-.22c.23-.21,23.4-21.02,54.43-21.02,7.31,0,14.58,1.16,21.6,3.44,42.41,13.81,81.43,30.76,81.76,30.91,.17,.08,16.98,8.4,43.23,45.35,26.73,37.61,60.73,79.68,61.08,80.1l.12,.14c.54,.55,53.97,54.55,103.93,67.54,26.81,6.97,44.44,8.43,54.51,8.43,9.06,0,13.51-1.15,14.44-1.42,2.2-.37,22.65-4.61,40.29-35.97,1.62-2.87,3.26-5.85,4.89-8.85,14.31-26.46,20.19-42.28,20.26-42.46,.12-.37,3.14-9.09,1.59-19.71-1.45-9.88-7.26-23.24-26.76-30.82-35.42-13.78-72.33-35.64-72.74-35.88-.67-.39-16.43-9.79-7.07-40.68,10.27-33.87-15.36-55.89-15.63-56.12-.5-.42-13.05-10.46-71.85-23.41-58.23-12.83-94.49-23.85-94.91-23.98-.35-.1-35.47-10.02-34.52-47.02,.1-3.9,.15-7.56,.2-11,.42-31.26,.57-41.79,33.06-46.07Zm.16,107.93c.36,.11,36.75,11.17,95.15,24.04,57.33,12.63,70.04,22.5,70.14,22.58,.98,.83,23.86,20.59,14.38,51.89-10.35,34.15,8.15,44.89,8.89,45.3,.37,.22,37.55,22.24,73.3,36.14,33.72,13.12,23.29,44.16,22.84,45.45-.05,.15-5.85,15.74-20.01,41.92-.01,.02-.03,.05-.04,.07-1.61,2.96-3.22,5.89-4.81,8.72-17.23,30.62-37.35,33.97-37.54,34l-.34,.08s-4.08,1.27-13.37,1.27c-9.84,0-27.11-1.44-53.51-8.31-48.09-12.5-99.86-64.23-102.01-66.4-1.65-2.04-34.75-43.07-60.86-79.82-26.99-37.99-44.07-46.31-44.83-46.67-.39-.17-39.58-17.2-82.18-31.07-7.43-2.42-15.11-3.64-22.84-3.64-31.67,0-54.77,19.95-56.99,21.93-69.55,43.09-99.82,48.59-100.12,48.64l-.1,.02c-.63,.14-63.18,14.01-85.83,16.97-1.54,.2-3.06,.3-4.52,.3-16.92,0-18.18-16.73-18.22-17.44l-.23-3.8-38.91,30.37-7.89-9.34-2.58-3.06-8.93-10.57,61.46-48.08c1.78-1.39,4.04-1.81,6.2-1.14,2.15,.67,3.77,2.28,4.44,4.42l6.74,21.37c1.24,3.87,5.18,6.25,9.15,5.54,22.22-3.86,59.94-12.01,72.6-14.83l1.74-.38c4.9-1.28,32.15-9.35,87.22-43.26l.22-.15c10.09-8.27,37.57-27.51,74.55-27.51,10.9,0,21.71,1.72,32.13,5.11,44.48,14.48,84.48,31.92,84.85,32.08l.87,.4c5.76,2.71,26.86,14.77,56.46,56.42,22.49,31.65,50.61,66.99,58.7,77.06l.15,.17c16.37,16.25,55.65,49.15,87.12,57.32,24.53,6.39,39.32,7.35,45.95,7.35,2.81,0,4.5-.15,5.26-.24l1.33-.39,.98-.15,.28-.14c2.7-1.33,9.78-5.85,17.25-19.14,1.37-2.43,2.67-4.79,3.92-7.07,.01-.02,.03-.05,.04-.07,11.3-20.8,17.03-34.52,18.52-38.24l.11-.37c.22-1.19,.34-2.97,.06-4.09l-.14-.57-.43-.41c-.56-.52-1.91-1.55-4.78-2.66-36.8-14.32-73.46-35.78-77.54-38.19-4.38-2.55-15.31-10.2-21.94-26.23-6.45-15.57-6.63-33.63-.56-53.69,1.52-5.04,1.31-9.26-.69-13.7-.81-1.79-1.91-3.56-3.24-5.24l-.29-.37-.42-.2c-.33-.15-.7-.33-1.13-.52l.39-.51-.36-.27-.45,.6c-6.36-2.81-22.38-8.84-56.07-16.26-59.23-13.06-95.65-24.1-97.19-24.57-3.68-1.07-16.66-5.36-29.41-15.67-19.69-15.91-30.16-38.93-29.5-64.83,.08-3.08,.12-6.03,.17-8.89l.02-1.73c.26-18.59,.48-34.65,9.01-49.44,12.75-22.11,36.7-27.62,53.61-29.85,24.31-3.19,75.56-22.24,102.22-33.53,1.55-.72,38.32-17.88,52.31-25.54l.2-.12c8.56-6.11,18.67-9.34,29.22-9.34,15.77,0,30.95,7.46,40.63,19.95l19.91,25.74,.62,.79,.36,.53c4.63,6.5,12.59,14.19,17.39,16.79l.87,.47,.91-.41c2.68-1.23,4.18-2.41,4.97-3.18l.47-.47,.1-.64,.88-2.2,.11-.36c.64-3.13-.1-8.11-7.3-14.03-29.69-24.38-72.81-77.68-77.63-83.67l-2.11-2.62-.88-1.78-.1-.17c-.07-.12-7.62-11.96-16.54-11.96-2.26,0-4.89,.64-7.83,1.89-23.17,9.93-38.83,14.36-50.77,14.36-14.14,0-25.91-6.29-32.3-17.27l-.44-.76-.86-.18c-1.11-.25-2.48-.37-4.06-.37-3.99,0-12.88,.92-27.54,7.08-1.99,.84-4.02,1.75-6.1,2.72l-.46,.21c-62.89,28.17-197.69,87.3-212.86,93.95l-56.15,24.07c-.53,.25-53.2,25.17-79.43,51.41-28.37,28.37-59.45,51.69-68.3,58.17l-.12,.09c-7.15,6.13-21.79,14.65-50.93,20.49-9.6,1.91-15.51,14.48-16.84,17.58l-.26,.56v.1c-2.72,8.04-17.54,47.54-55.84,79.09-23.5,19.35-57.03,60.66-71.48,79.8l-.14,.23c-3.68,6.51-22.76,41.14-37.42,83.48l-2.16,6.23,93.35-70.81,30.61-23.94,8.92,10.55,2.58,3.06,7.89,9.33,.02,.02-31.72,24.75-109.24,82.87c-4.43,3.36-9.86,5.21-15.29,5.21-1.62,0-3.24-.16-4.8-.48-6.2-1.27-10.72-4.25-13.44-8.87-4.46-7.6-4.16-19.55,.89-35.54,17.33-54.89,43.38-100.12,44.76-102.49,1.96-2.62,44.79-59.54,77.6-86.57,34.06-28.04,46.51-65.55,46.63-65.91,.1-.32,11.01-31.97,39.49-37.67,28.09-5.62,36.58-13.09,37.92-14.44,2.56-1.85,36.38-26.38,66.1-56.11,30.39-30.38,87.86-57.33,88.38-57.57l56.01-24.01c1.46-.64,146.78-64.34,213.05-94.02,2.28-1.07,4.33-1.99,6.28-2.81,15.2-6.51,28.68-9.81,40.05-9.81,23.43,0,30.22,13.87,30.91,15.43,.29,1.07,1.54,3.15,6.74,3.15,7.38,0,20.49-4.01,38.96-11.93,6.68-2.87,13.26-4.32,19.59-4.32h.06c27.4,0,42.66,27.17,42.81,27.44l.19,.29c.45,.56,45.45,56.43,73.29,79.29,26.47,21.74,16.84,46.66,16.42,47.7l-.12,.42c-.12,.69-3.24,16.99-27.68,25.45-2.38,.82-4.88,1.24-7.42,1.24-21.9,0-43.07-30.18-43.29-30.49l-19.97-25.79c-4.02-5.22-10.34-8.33-16.9-8.33-4.39,0-8.55,1.36-12.01,3.92-.17,.12-.34,.26-.5,.4-.09,.07-.17,.16-.25,.2-13.77,7.87-56.42,27.73-56.79,27.9-.73,.31-73.18,30.95-110.48,35.86-35.92,4.72-36.12,18.91-36.54,49.98-.05,3.42-.1,7.07-.2,10.95-1.03,40.11,37.09,50.88,37.42,50.96Z"/><g id="Start_Line"><polygon points="211.21 649.27 212.25 633.93 216.03 634.18 215.25 645.75 226.81 646.54 226.56 650.31 211.21 649.27"/><polygon points="215.22 656.72 214.97 660.5 204.3 659.77 199.63 659.45 200.66 644.11 204.44 644.37 203.66 655.94 205.39 656.06 215.22 656.72"/><polygon points="203.64 666.89 203.38 670.68 201.15 670.53 188.03 669.63 189.09 654.29 192.85 654.54 192.07 666.12 202.24 666.8 203.64 666.89"/></g><g><polygon points="236.59 641.72 233.47 644.35 231.85 645.72 217.11 628.28 215.1 625.92 213.97 624.57 213.62 624.17 213.39 623.9 212.61 622.97 211.95 622.18 191.52 598 191.41 597.87 191.18 597.59 194.29 594.97 195.92 593.57 196.11 593.81 196.14 593.85 196.21 593.94 196.3 594.04 216.64 618.12 217.52 619.16 218.28 620.05 218.29 620.07 218.39 620.19 218.7 620.54 219.9 621.98 221.81 624.22 236.59 641.72"/><polygon points="236.59 641.72 233.47 644.35 231.85 645.72 217.11 628.28 215.1 625.92 213.97 624.57 213.62 624.17 213.39 623.9 212.61 622.97 211.95 622.18 191.52 598 191.41 597.87 191.18 597.59 194.29 594.97 195.92 593.57 196.11 593.81 196.14 593.85 196.21 593.94 196.3 594.04 216.64 618.12 217.52 619.16 218.28 620.05 218.29 620.07 218.39 620.19 218.7 620.54 219.9 621.98 221.81 624.22 236.59 641.72"/></g><path class="cls-4" d="M723.28,181.51c-1.89,.8-3.87,1.68-5.96,2.66l-.27,.14-.29,.12c-66.35,29.71-211.78,93.47-213.24,94.11l-.13,.06-.13,.05-55.48,23.78c-15.04,7.07-57.26,29.4-78.87,51.01-28.98,28.99-60.75,52.68-68.53,58.37-8.15,6.98-23.38,15.23-51.84,20.93-9.03,1.8-14.7,14.76-15.48,16.63,0,.01-.01,.02-.01,.03h0s-.03,.08-.05,.1c-2.37,7.07-17.42,47.95-56.52,80.15-24.38,20.08-58.47,62.67-71.15,79.47-4.19,7.42-22.8,41.36-37.27,83.15l88.07-66.81,32.13-25.12,.2,.24,21.78,25.78-33.37,26.04-109.24,82.87c-4.78,3.63-10.59,5.62-16.5,5.62-1.73,0-3.48-.17-5.2-.52-11.94-2.44-25-12.35-14.06-46.97,18-57,45-103,45-103,0,0,44-59,78-87,34-28,46-65,46-65,0,0,11-33,41-39s37-14,37-14c0,0,35-25,66-56s89-58,89-58l56-24s146-64,213-94c2.17-1.02,4.28-1.97,6.34-2.84l14.07,30.95Z"/><path class="cls-7" d="M648.87,391.4c-1,39,36,49,36,49,0,0,36,11,95,24s71,23,71,23c0,0,25,21,15,54s8,43,8,43c0,0,37,22,73,36s24,48,24,48c0,0-5.72,15.54-20.13,42.18l-30.6-14.89c11.3-20.79,16.97-34.38,18.46-38.1,.21-1.11,.26-2.55,.09-3.24-.31-.29-1.43-1.21-4.14-2.26-37.04-14.41-74.14-36.15-77.81-38.32-15.57-9.04-37.4-36.07-23.41-82.23,1.37-4.54,1.19-8.32-.6-12.29-.93-2.05-2.1-3.71-2.99-4.83-4.97-2.36-20.47-8.73-57.19-16.82-57.49-12.67-93.45-23.42-97.32-24.6-3.99-1.16-17.13-5.54-30.11-16.03-20.18-16.31-30.92-39.91-30.24-66.44,.1-3.69,.14-7.19,.19-10.57,.26-18.88,.48-35.19,9.28-50.44,13.19-22.87,37.76-28.55,55.08-30.83,24.18-3.18,74.91-22.05,101.63-33.36,11.41-5.32,40.45-19.05,52.2-25.48,8.9-6.35,19.39-9.71,30.38-9.71,16.38,0,32.16,7.75,42.21,20.73l19.9,25.72,.67,.85,.37,.55c4.57,6.42,12.26,13.78,16.71,16.19,2.43-1.11,3.75-2.15,4.4-2.79l.05-.31,.95-2.33c.55-2.68-.25-6.85-6.61-12.08-29.86-24.52-73.09-77.96-77.92-83.97l-2.24-2.79-.98-1.97c-1.71-2.72-8.19-11.02-14.85-11.02-1.98,0-4.35,.58-7.04,1.73-23.43,10.04-39.33,14.52-51.56,14.52-16.78,0-28.13-8.13-34.03-18.26-.73-.16-1.9-.32-3.63-.32-4.05,0-12.6,.97-26.76,6.92l-14.07-30.95c17.17-7.35,30.52-9.97,40.84-9.97,26.09,0,32.82,16.81,32.82,16.81,0,0,.22,1.77,4.83,1.77,5.19,0,15.94-2.24,38.17-11.77,7.41-3.18,14.23-4.49,20.44-4.48,28.96,0,44.56,28.48,44.56,28.48,0,0,45,56,73,79s17,50,17,50c0,0-3,18-29,27-2.69,.93-5.39,1.35-8.07,1.35-23.23,0-44.93-31.35-44.93-31.35l-19.91-25.71c-3.78-4.9-9.54-7.55-15.32-7.55-3.79,0-7.59,1.14-10.85,3.55-.31,.22-.58,.51-.92,.71-14,8-57,28-57,28,0,0-73,31-111,36s-34,20-35,59Z"/><path class="cls-3" d="M950.74,710.58c-1.53,2.82-3.15,5.76-4.87,8.82-18,32-39,35-39,35,0,0-4.15,1.37-13.99,1.37-10.66,0-28.01-1.61-54.01-8.37-50-13-103-67-103-67,0,0-34-42-61-80s-44-46-44-46c0,0-39-17-82-31-7.72-2.51-15.18-3.54-22.22-3.54-32.22,0-55.78,21.54-55.78,21.54-71,44-101,49-101,49,0,0-63,14-86,17-1.68,.22-3.27,.32-4.78,.32-19.07,0-20.22-19.32-20.22-19.32l-36.98,28.87-9.16-10.88-2.58-3.06-10.21-12.13,33.98-26.58,28.64-22.4c4.83-3.77,11.94-1.57,13.78,4.26l6.74,21.36c.93,2.91,3.87,4.72,6.9,4.18,21.7-3.77,58.12-11.61,72.51-14.81l1.67-.37c4.5-1.17,31.62-9.13,86.67-43.02,9.24-7.57,37.69-27.96,75.82-27.96,11.1,0,22.12,1.75,32.75,5.21,44.05,14.34,83.4,31.43,85.06,32.16l.44,.2,.45,.21c5.88,2.76,27.39,15.06,57.24,57.07,23.4,32.94,52.7,69.58,58.63,76.97,14.05,13.95,53.79,48.39,86.21,56.8,24.39,6.36,38.94,7.29,45.45,7.29,2.54,0,4.19-.13,5.02-.23l1.12-.36,.83-.12c2.01-.99,8.98-5.15,16.39-18.33,1.37-2.43,2.66-4.78,3.9-7.04l1.8,.88,11.11,5.4,3.61,1.76,12.28,5.97,1.8,.88Z"/><path d="M956.68,264.65l-.15-.12c-.31-.22-32.13-22.43-66.48-72.48-31.11-45.33-48.48-37.45-70.47-27.45-3.49,1.58-7.09,3.22-10.91,4.72-26.78,10.52-32.79,3.51-44.75-10.44-5.6-6.53-17.36-6.66-35.95-.4-14.66,4.95-30.52,12.91-40,17.68l-2.46,1.23c-16.04,8.02-170.85,75.75-201.72,89.25-3.75,1.64-7.47,3.08-11.06,4.28-70.71,23.59-114.91,65.96-130.63,83.08-3.58,3.89-7.47,7.48-11.55,10.64-14.94,11.56-50.84,39.13-61.64,45.3-3.52,2.01-7.87,2.66-12.92,3.4-13.9,2.05-31.2,4.6-43.96,37.62-15.69,40.62-49.86,70.36-80,96.6-2.17,1.88-4.32,3.76-6.45,5.62-15.56,13.61-28.25,30-39.94,51.55-11.49,21.2-21.75,46.61-33.61,78.25-7.22,19.24-7.95,30.01-2.32,33.9,9.71,6.71,33.55-13.36,38.44-17.63,2.66-1.92,66.3-47.85,111.32-82.54,.49-.38,.98-.76,1.47-1.14l-2.57-3.05c-.49,.37-.98,.75-1.48,1.13-45.54,35.09-110.26,81.77-111.16,82.41l-.15,.12c-10.76,9.43-28.29,21.08-33.59,17.41-1.72-1.18-4.77-6.39,3.78-29.21,30.76-82.02,47.87-106.69,72.45-128.2,2.12-1.85,4.27-3.72,6.43-5.61,30.5-26.54,65.06-56.63,81.12-98.17,11.91-30.84,27.26-33.1,40.81-35.1,5.21-.77,10.14-1.5,14.31-3.88,11.03-6.3,47.11-34,62.11-45.62,4.26-3.3,8.31-7.03,12.04-11.1,7.76-8.44,22.54-23.12,44.11-38.59,21.57-15.47,49.93-31.75,84.85-43.4,3.7-1.24,7.54-2.72,11.4-4.4,30.88-13.51,185.78-81.28,201.89-89.34l2.47-1.24c16.59-8.33,60.65-30.46,71.12-18.25,11.94,13.92,19.82,23.12,49.25,11.56,3.92-1.54,7.57-3.2,11.1-4.8,21.87-9.93,36.31-16.5,65.52,26.07,33.87,49.36,65.45,72.06,67.42,73.45,.85,.74,10.76,9.58,10.57,19.94-.09,5.58-3.15,10.77-9.07,15.4-9.63,7.54-14.5,7.53-17.73,7.02-2.2-.34-3.67-1.72-5.25-3.35-2.69-2.77-4.89-4.63-6.9-7.11l-33.26-41.15c-.8-1.25-7.41-11.04-19.68-13.72-9.1-1.99-18.88,.44-29.06,7.23-22.57,15.04-92.97,40.91-122.2,51.33-10.14,3.62-20.47,6.09-30.69,7.36-19.95,2.47-53.74,10.53-55.99,36.8-3.3,38.47-3.57,65.47,5.25,81.15,9.4,16.72,30.65,29.83,58.31,35.97,26.67,5.93,127.93,30.74,128.91,30.98,.24,.07,23.62,10.39,20.56,24.68-3.29,15.38-11.28,56.4,8.73,71.97,2.72,2.12,5.03,4.02,7.25,5.86,12.63,10.46,21.75,18.01,82.26,44.43,.18,.07,4.57,1.87,6.5,7.88,2.04,6.38,1.54,18.53-12.46,40.16-2.68,4.14-5.04,7.92-7.17,11.38-2.46,3.99-4.58,7.54-6.45,10.68-14.12,23.62-14.97,25.03-42.7,25.03-34.53,0-83.06-27.62-84.94-28.7-1.71-1.15-45.12-30.63-81.43-81.46-3.03-4.25-5.94-8.33-8.73-12.27-30.31-42.68-48.61-68.45-82.13-82.42-5.61-2.33-11.36-4.88-17.44-7.57-32.8-14.53-69.98-30.99-101.9-21.5-36.87,10.96-78.15,38.99-78.56,39.27l-.28,.23c-.07,.07-7.31,7.11-26.92,15.73-18.12,7.95-50.78,18.91-103.53,25.93-2.03,.27-4.3,.89-6.7,1.55-4.87,1.33-10.39,2.84-13.22,1.02-1.17-.74-1.91-2.1-2.25-4.14-1.48-8.88-2.87-17.26-8.9-19.3-6.2-2.1-15.6,3.34-31.44,18.17-5.14,4.82-13.73,11.91-24.27,20.23-.36,.29-.73,.59-1.11,.88l2.58,3.06c.37-.3,.74-.59,1.11-.88,10.59-8.37,19.24-15.51,24.43-20.37,13.83-12.96,23.06-18.78,27.42-17.3,3.75,1.27,5.02,8.84,6.24,16.17,.53,3.17,1.88,5.48,4.03,6.85,4.33,2.78,10.76,1.02,16.43-.53,2.27-.62,4.42-1.21,6.18-1.44,99.98-13.31,130.04-40.2,132.6-42.65,2.67-1.81,42.09-28.18,77.3-38.64,30.51-9.07,66.97,7.07,99.14,21.32,6.11,2.7,11.87,5.25,17.52,7.61,32.46,13.52,49.49,37.5,80.41,81.04,2.79,3.94,5.7,8.03,8.73,12.27,37.29,52.2,82.08,82.21,82.53,82.51l.1,.06c2.06,1.19,50.88,29.27,87,29.27,29.17,0,31.37-2.29,46.13-26.98,1.92-3.22,4.11-6.87,6.63-10.97,2.07-3.35,4.35-7,6.92-10.96,11.98-18.52,16.31-33.22,12.86-43.71-2.46-7.48-8.08-9.95-8.77-10.23-59.88-26.14-68.82-33.54-81.2-43.79-2.25-1.86-4.57-3.78-7.34-5.94-16.19-12.59-12.42-44.96-7.27-68.03,3.14-14.07-13.82-26.73-23.48-29.33-1.02-.25-102.33-25.08-129.05-31.01-26.15-5.81-46.97-18.54-55.69-34.03-8.31-14.79-7.98-41.13-4.75-78.85,.87-10.07,8.83-27.76,52.5-33.17,10.51-1.3,21.13-3.85,31.55-7.56,36.47-13.01,100.95-37.03,123.07-51.78,9.23-6.15,17.95-8.39,25.94-6.66,11.16,2.43,17.19,11.96,17.25,12.05l33.48,41.44c1.92,2.37,3.32,3.83,6.71,6.85,1.76,1.57,3.77,4.4,7.94,5.05,5.83,.92,12.16-1.05,20.8-7.81,6.93-5.43,10.5-11.66,10.61-18.52,.21-12.68-11.56-22.67-12.06-23.09Z"/><path class="cls-5" d="M411.19,269.31l-3.58-8.26,2.75-1.19,3.58,8.26-2.75,1.19Zm5.5-2.39l-3.58-8.26,2.75-1.19,3.58,8.26-2.75,1.19Zm5.5-2.39l-3.58-8.26,2.75-1.19,3.58,8.26-2.75,1.19Zm5.5-2.39l-3.58-8.26,2.75-1.19,3.58,8.26-2.75,1.19Zm5.5-2.39l-3.58-8.26,2.75-1.19,3.58,8.26-2.75,1.19Zm5.5-2.39l-3.58-8.26,2.75-1.19,3.58,8.26-2.75,1.19Zm5.51-2.39l-3.58-8.26,2.75-1.19,3.58,8.26-2.75,1.19Zm5.5-2.39l-3.58-8.26,2.75-1.19,3.58,8.26-2.75,1.19Zm5.5-2.39l-3.58-8.26,2.75-1.19,3.58,8.26-2.75,1.19Zm5.51-2.39l-3.58-8.26,2.75-1.19,3.58,8.26-2.75,1.19Zm5.5-2.39l-3.58-8.26,2.75-1.19,3.58,8.26-2.75,1.19Zm5.5-2.39l-3.58-8.26,2.75-1.19,3.58,8.26-2.75,1.19Zm5.51-2.39l-3.58-8.26,2.75-1.19,3.58,8.26-2.75,1.19Zm5.5-2.39l-3.58-8.26,2.75-1.19,3.58,8.26-2.75,1.19Zm5.5-2.39l-3.58-8.26,2.75-1.19,3.58,8.26-2.75,1.19Zm5.51-2.39l-3.58-8.26,2.75-1.19,3.58,8.26-2.75,1.19Zm5.5-2.39l-3.58-8.26,2.75-1.19,3.58,8.26-2.75,1.19Zm5.5-2.39l-3.58-8.26,2.75-1.19,3.58,8.26-2.75,1.19Zm5.51-2.39l-3.58-8.26,2.75-1.19,3.58,8.26-2.75,1.19Zm5.5-2.39l-3.58-8.26,2.75-1.19,3.58,8.26-2.75,1.19Zm5.5-2.39l-3.58-8.26,2.75-1.19,3.58,8.26-2.75,1.19Zm5.51-2.39l-3.58-8.26,2.75-1.19,3.58,8.26-2.75,1.19Zm5.5-2.39l-3.58-8.26,2.75-1.19,3.58,8.26-2.75,1.19Zm5.5-2.39l-3.58-8.26,2.75-1.19,3.58,8.26-2.75,1.19Zm5.51-2.39l-3.58-8.26,2.75-1.19,3.58,8.26-2.75,1.19Zm5.5-2.39l-3.58-8.26,2.75-1.19,3.58,8.26-2.75,1.19Zm5.5-2.39l-3.58-8.26,2.75-1.19,3.58,8.26-2.75,1.19Zm5.51-2.39l-3.58-8.26,2.75-1.19,3.58,8.26-2.75,1.19Zm5.5-2.39l-3.58-8.26,2.75-1.19,3.58,8.26-2.75,1.19Zm5.5-2.39l-3.58-8.26,2.75-1.19,3.58,8.26-2.75,1.19Zm5.5-2.39l-3.58-8.26,2.75-1.19,3.58,8.26-2.75,1.19Zm5.5-2.39l-3.58-8.26,2.75-1.19,3.58,8.26-2.75,1.19Zm5.5-2.39l-3.58-8.26,2.75-1.19,3.58,8.26-2.75,1.19Zm5.51-2.39l-3.58-8.26,2.75-1.19,3.58,8.26-2.75,1.19Zm5.5-2.39l-3.58-8.26,2.75-1.19,3.58,8.26-2.75,1.19Zm5.5-2.39l-3.58-8.26,2.75-1.19,3.58,8.26-2.75,1.19Zm5.51-2.39l-3.58-8.26,2.75-1.19,3.58,8.26-2.75,1.19Zm5.5-2.39l-3.58-8.26,2.75-1.19,3.58,8.26-2.75,1.19Zm5.5-2.39l-3.58-8.26,2.75-1.19,3.58,8.26-2.75,1.19Zm5.51-2.39l-3.58-8.26,2.75-1.19,3.58,8.26-2.75,1.19Zm5.5-2.39l-3.58-8.26,2.75-1.19,3.58,8.26-2.75,1.19Zm5.5-2.39l-3.58-8.26,2.75-1.19,3.58,8.26-2.75,1.19Zm5.51-2.39l-3.58-8.26,2.75-1.19,3.58,8.26-2.75,1.19Zm5.5-2.39l-3.58-8.26,2.75-1.19,3.58,8.26-2.75,1.19Zm5.5-2.39l-3.58-8.26,2.75-1.19,3.58,8.26-2.75,1.19Zm5.51-2.39l-3.58-8.26,2.75-1.19,3.58,8.26-2.75,1.19Zm5.5-2.39l-3.58-8.26,2.75-1.19,3.58,8.26-2.75,1.19Zm5.5-2.39l-3.58-8.26,2.75-1.19,3.58,8.26-2.75,1.19Zm5.51-2.39l-3.58-8.26,2.75-1.19,3.58,8.26-2.75,1.19Zm5.5-2.39l-3.58-8.26,2.75-1.19,3.58,8.26-2.75,1.19Zm5.5-2.39l-3.58-8.26,2.75-1.19,3.58,8.26-2.75,1.19Zm5.51-2.39l-3.58-8.26,2.75-1.19,3.58,8.26-2.75,1.19Zm5.5-2.39l-3.58-8.26,2.75-1.19,3.58,8.26-2.75,1.19Zm5.5-2.39l-3.58-8.26,2.75-1.19,3.58,8.26-2.75,1.19Zm5.51-2.39l-3.58-8.26,2.75-1.19,3.58,8.26-2.75,1.19Zm5.5-2.39l-3.58-8.26,2.75-1.19,3.58,8.26-2.75,1.19Zm5.5-2.39l-3.58-8.26,2.75-1.19,3.58,8.26-2.75,1.19Zm5.5-2.39l-3.58-8.26,2.75-1.19,3.58,8.26-2.75,1.19Zm5.5-2.39l-3.58-8.26,2.75-1.19,3.58,8.26-2.75,1.19Zm5.5-2.39l-3.57-8.26,.25-.11,3.57,8.26-.25,.11Z"/><path class="cls-5" d="M234.05,628.92l-5.66-7,2.33-1.88,5.66,7-2.33,1.88Zm4.67-3.77l-5.65-7,2.33-1.88,5.65,7-2.33,1.88Zm4.67-3.77l-5.65-7,2.33-1.88,5.65,7-2.33,1.88Zm4.67-3.77l-5.66-7,2.33-1.88,5.66,7-2.33,1.88Zm4.67-3.77l-5.65-7,2.33-1.88,5.65,7-2.33,1.88Zm4.67-3.77l-5.65-7,2.33-1.88,5.65,7-2.33,1.88Z"/><path class="cls-5" d="M70.92,753.04l-5.41-7.19,2.4-1.8,5.41,7.19-2.4,1.8Zm4.79-3.61l-5.41-7.19,2.4-1.8,5.41,7.19-2.4,1.8Zm4.8-3.61l-5.41-7.19,2.4-1.8,5.41,7.19-2.4,1.8Zm4.79-3.61l-5.41-7.19,2.4-1.8,5.41,7.19-2.4,1.8Zm4.79-3.61l-5.41-7.19,2.4-1.8,5.41,7.19-2.4,1.8Zm4.8-3.61l-5.41-7.19,2.4-1.8,5.41,7.19-2.4,1.8Zm4.79-3.61l-5.41-7.19,2.4-1.8,5.41,7.19-2.4,1.8Zm4.79-3.61l-5.41-7.19,2.4-1.8,5.41,7.19-2.4,1.8Zm4.8-3.61l-5.41-7.19,2.4-1.8,5.41,7.19-2.4,1.8Zm4.79-3.61l-5.41-7.19,2.4-1.8,5.41,7.19-2.4,1.8Zm4.79-3.61l-5.41-7.19,2.4-1.8,5.41,7.19-2.4,1.8Zm4.8-3.61l-5.41-7.19,2.4-1.8,5.41,7.19-2.4,1.8Zm4.79-3.61l-5.41-7.19,2.4-1.8,5.41,7.19-2.4,1.8Zm4.79-3.61l-5.41-7.19,2.4-1.8,5.41,7.19-2.4,1.8Zm4.79-3.61l-5.41-7.19,2.4-1.8,5.41,7.19-2.4,1.8Zm4.79-3.61l-5.41-7.19,2.4-1.8,5.41,7.19-2.4,1.8Zm4.8-3.61l-5.41-7.19,2.4-1.8,5.41,7.19-2.4,1.8Zm4.79-3.61l-5.41-7.19,2.4-1.8,5.41,7.19-2.4,1.8Zm4.79-3.61l-5.41-7.19,2.4-1.8,5.41,7.19-2.4,1.8Zm4.8-3.61l-5.41-7.19,2.4-1.8,5.41,7.19-2.4,1.8Zm4.79-3.61l-5.41-7.19,2.4-1.8,5.41,7.19-2.4,1.8Zm4.79-3.61l-5.41-7.19,2.4-1.8,5.41,7.19-2.4,1.8Zm4.8-3.61l-5.41-7.19,2.4-1.8,5.41,7.19-2.4,1.8Zm4.79-3.61l-5.41-7.19,2.4-1.8,5.41,7.19-2.4,1.8Z"/><g id="_1"><g><path d="M28.9,757.4c-6,0-10.88-4.88-10.88-10.88s4.88-10.88,10.88-10.88,10.88,4.88,10.88,10.88-4.88,10.88-10.88,10.88Z"/><path d="M28.9,736.65c5.46,0,9.88,4.42,9.88,9.88s-4.42,9.88-9.88,9.88-9.88-4.42-9.88-9.88,4.42-9.88,9.88-9.88m0-2c-6.55,0-11.88,5.33-11.88,11.88s5.33,11.88,11.88,11.88,11.88-5.33,11.88-11.88-5.33-11.88-11.88-11.88h0Z"/></g><text class="cls-2" transform="translate(21.17 750.43)"><tspan x="0" y="0">01</tspan></text></g><g id="_1-2"><g><path d="M216.9,515.4c-6,0-10.88-4.88-10.88-10.88s4.88-10.88,10.88-10.88,10.88,4.88,10.88,10.88-4.88,10.88-10.88,10.88Z"/><path d="M216.9,494.65c5.46,0,9.88,4.42,9.88,9.88s-4.42,9.88-9.88,9.88-9.88-4.42-9.88-9.88,4.42-9.88,9.88-9.88m0-2c-6.55,0-11.88,5.33-11.88,11.88s5.33,11.88,11.88,11.88,11.88-5.33,11.88-11.88-5.33-11.88-11.88-11.88h0Z"/></g><text class="cls-2" transform="translate(209.17 508.43)"><tspan x="0" y="0">02</tspan></text></g><g id="_1-3"><g><path d="M218.9,408.4c-6,0-10.88-4.88-10.88-10.88s4.88-10.88,10.88-10.88,10.88,4.88,10.88,10.88-4.88,10.88-10.88,10.88Z"/><path d="M218.9,387.65c5.46,0,9.88,4.42,9.88,9.88s-4.42,9.88-9.88,9.88-9.88-4.42-9.88-9.88,4.42-9.88,9.88-9.88m0-2c-6.55,0-11.88,5.33-11.88,11.88s5.33,11.88,11.88,11.88,11.88-5.33,11.88-11.88-5.33-11.88-11.88-11.88h0Z"/></g><text class="cls-2" transform="translate(211.17 401.43)"><tspan x="0" y="0">03</tspan></text></g><g id="_1-4"><g><path d="M293.9,441.4c-6,0-10.88-4.88-10.88-10.88s4.88-10.88,10.88-10.88,10.88,4.88,10.88,10.88-4.88,10.88-10.88,10.88Z"/><path d="M293.9,420.65c5.46,0,9.88,4.42,9.88,9.88s-4.42,9.88-9.88,9.88-9.88-4.42-9.88-9.88,4.42-9.88,9.88-9.88m0-2c-6.55,0-11.88,5.33-11.88,11.88s5.33,11.88,11.88,11.88,11.88-5.33,11.88-11.88-5.33-11.88-11.88-11.88h0Z"/></g><text class="cls-2" transform="translate(286.17 434.43)"><tspan x="0" y="0">04</tspan></text></g><g id="_1-5"><g><path d="M767.9,141.4c-6,0-10.88-4.88-10.88-10.88s4.88-10.88,10.88-10.88,10.88,4.88,10.88,10.88-4.88,10.88-10.88,10.88Z"/><path d="M767.9,120.65c5.46,0,9.88,4.42,9.88,9.88s-4.42,9.88-9.88,9.88-9.88-4.42-9.88-9.88,4.42-9.88,9.88-9.88m0-2c-6.55,0-11.88,5.33-11.88,11.88s5.33,11.88,11.88,11.88,11.88-5.33,11.88-11.88-5.33-11.88-11.88-11.88h0Z"/></g><text class="cls-2" transform="translate(760.17 134.43)"><tspan x="0" y="0">05</tspan></text></g><g id="_1-6"><g><path d="M778.9,215.4c-6,0-10.88-4.88-10.88-10.88s4.88-10.88,10.88-10.88,10.88,4.88,10.88,10.88-4.88,10.88-10.88,10.88Z"/><path d="M778.9,194.65c5.46,0,9.88,4.42,9.88,9.88s-4.42,9.88-9.88,9.88-9.88-4.42-9.88-9.88,4.42-9.88,9.88-9.88m0-2c-6.55,0-11.88,5.33-11.88,11.88s5.33,11.88,11.88,11.88,11.88-5.33,11.88-11.88-5.33-11.88-11.88-11.88h0Z"/></g><text class="cls-2" transform="translate(771.17 208.43)"><tspan x="0" y="0">06</tspan></text></g><g id="_1-7"><g><path d="M850.9,142.4c-6,0-10.88-4.88-10.88-10.88s4.88-10.88,10.88-10.88,10.88,4.88,10.88,10.88-4.88,10.88-10.88,10.88Z"/><path d="M850.9,121.65c5.46,0,9.88,4.42,9.88,9.88s-4.42,9.88-9.88,9.88-9.88-4.42-9.88-9.88,4.42-9.88,9.88-9.88m0-2c-6.55,0-11.88,5.33-11.88,11.88s5.33,11.88,11.88,11.88,11.88-5.33,11.88-11.88-5.33-11.88-11.88-11.88h0Z"/></g><text class="cls-2" transform="translate(843.17 135.43)"><tspan x="0" y="0">07</tspan></text></g><g id="_1-8"><g><path d="M974.9,339.4c-6,0-10.88-4.88-10.88-10.88s4.88-10.88,10.88-10.88,10.88,4.88,10.88,10.88-4.88,10.88-10.88,10.88Z"/><path d="M974.9,318.65c5.46,0,9.88,4.42,9.88,9.88s-4.42,9.88-9.88,9.88-9.88-4.42-9.88-9.88,4.42-9.88,9.88-9.88m0-2c-6.55,0-11.88,5.33-11.88,11.88s5.33,11.88,11.88,11.88,11.88-5.33,11.88-11.88-5.33-11.88-11.88-11.88h0Z"/></g><text class="cls-2" transform="translate(967.17 332.43)"><tspan x="0" y="0">08</tspan></text></g><g id="_1-9"><g><path d="M864.9,287.4c-6,0-10.88-4.88-10.88-10.88s4.88-10.88,10.88-10.88,10.88,4.88,10.88,10.88-4.88,10.88-10.88,10.88Z"/><path d="M864.9,266.65c5.46,0,9.88,4.42,9.88,9.88s-4.42,9.88-9.88,9.88-9.88-4.42-9.88-9.88,4.42-9.88,9.88-9.88m0-2c-6.55,0-11.88,5.33-11.88,11.88s5.33,11.88,11.88,11.88,11.88-5.33,11.88-11.88-5.33-11.88-11.88-11.88h0Z"/></g><text class="cls-2" transform="translate(857.17 280.43)"><tspan x="0" y="0">09</tspan></text></g><g id="_1-10"><g><path d="M663.9,363.4c-6,0-10.88-4.88-10.88-10.88s4.88-10.88,10.88-10.88,10.88,4.88,10.88,10.88-4.88,10.88-10.88,10.88Z"/><path d="M663.9,342.65c5.46,0,9.88,4.42,9.88,9.88s-4.42,9.88-9.88,9.88-9.88-4.42-9.88-9.88,4.42-9.88,9.88-9.88m0-2c-6.55,0-11.88,5.33-11.88,11.88s5.33,11.88,11.88,11.88,11.88-5.33,11.88-11.88-5.33-11.88-11.88-11.88h0Z"/></g><text class="cls-2" transform="translate(656.17 356.43)"><tspan x="0" y="0">10</tspan></text></g><g id="_1-11"><g><path d="M669.9,428.4c-6,0-10.88-4.88-10.88-10.88s4.88-10.88,10.88-10.88,10.88,4.88,10.88,10.88-4.88,10.88-10.88,10.88Z"/><path d="M669.9,407.65c5.46,0,9.88,4.42,9.88,9.88s-4.42,9.88-9.88,9.88-9.88-4.42-9.88-9.88,4.42-9.88,9.88-9.88m0-2c-6.55,0-11.88,5.33-11.88,11.88s5.33,11.88,11.88,11.88,11.88-5.33,11.88-11.88-5.33-11.88-11.88-11.88h0Z"/></g><text class="cls-2" transform="translate(662.17 421.43)"><tspan x="0" y="0">11</tspan></text></g><g id="_1-12"><g><path d="M820.9,537.4c-6,0-10.88-4.88-10.88-10.88s4.88-10.88,10.88-10.88,10.88,4.88,10.88,10.88-4.88,10.88-10.88,10.88Z"/><path d="M820.9,516.65c5.46,0,9.88,4.42,9.88,9.88s-4.42,9.88-9.88,9.88-9.88-4.42-9.88-9.88,4.42-9.88,9.88-9.88m0-2c-6.55,0-11.88,5.33-11.88,11.88s5.33,11.88,11.88,11.88,11.88-5.33,11.88-11.88-5.33-11.88-11.88-11.88h0Z"/></g><text class="cls-2" transform="translate(813.17 530.43)"><tspan x="0" y="0">12</tspan></text></g><g id="_1-13"><g><path d="M877.9,580.4c-6,0-10.88-4.88-10.88-10.88s4.88-10.88,10.88-10.88,10.88,4.88,10.88,10.88-4.88,10.88-10.88,10.88Z"/><path d="M877.9,559.65c5.46,0,9.88,4.42,9.88,9.88s-4.42,9.88-9.88,9.88-9.88-4.42-9.88-9.88,4.42-9.88,9.88-9.88m0-2c-6.55,0-11.88,5.33-11.88,11.88s5.33,11.88,11.88,11.88,11.88-5.33,11.88-11.88-5.33-11.88-11.88-11.88h0Z"/></g><text class="cls-2" transform="translate(870.17 573.43)"><tspan x="0" y="0">13</tspan></text></g><g id="_1-14"><g><path d="M983.9,654.4c-6,0-10.88-4.88-10.88-10.88s4.88-10.88,10.88-10.88,10.88,4.88,10.88,10.88-4.88,10.88-10.88,10.88Z"/><path d="M983.9,633.65c5.46,0,9.88,4.42,9.88,9.88s-4.42,9.88-9.88,9.88-9.88-4.42-9.88-9.88,4.42-9.88,9.88-9.88m0-2c-6.55,0-11.88,5.33-11.88,11.88s5.33,11.88,11.88,11.88,11.88-5.33,11.88-11.88-5.33-11.88-11.88-11.88h0Z"/></g><text class="cls-2" transform="translate(976.17 647.43)"><tspan x="0" y="0">14</tspan></text></g><g id="_1-15"><g><path d="M910.9,777.4c-6,0-10.88-4.88-10.88-10.88s4.88-10.88,10.88-10.88,10.88,4.88,10.88,10.88-4.88,10.88-10.88,10.88Z"/><path d="M910.9,756.65c5.46,0,9.88,4.42,9.88,9.88s-4.42,9.88-9.88,9.88-9.88-4.42-9.88-9.88,4.42-9.88,9.88-9.88m0-2c-6.55,0-11.88,5.33-11.88,11.88s5.33,11.88,11.88,11.88,11.88-5.33,11.88-11.88-5.33-11.88-11.88-11.88h0Z"/></g><text class="cls-2" transform="translate(903.17 770.43)"><tspan x="0" y="0">15</tspan></text></g><g id="_1-16"><g><path d="M635.9,583.4c-6,0-10.88-4.88-10.88-10.88s4.88-10.88,10.88-10.88,10.88,4.88,10.88,10.88-4.88,10.88-10.88,10.88Z"/><path d="M635.9,562.65c5.46,0,9.88,4.42,9.88,9.88s-4.42,9.88-9.88,9.88-9.88-4.42-9.88-9.88,4.42-9.88,9.88-9.88m0-2c-6.55,0-11.88,5.33-11.88,11.88s5.33,11.88,11.88,11.88,11.88-5.33,11.88-11.88-5.33-11.88-11.88-11.88h0Z"/></g><text class="cls-2" transform="translate(628.17 576.43)"><tspan x="0" y="0">16</tspan></text></g><g id="_1-17"><g><path d="M507.9,545.4c-6,0-10.88-4.88-10.88-10.88s4.88-10.88,10.88-10.88,10.88,4.88,10.88,10.88-4.88,10.88-10.88,10.88Z"/><path d="M507.9,524.65c5.46,0,9.88,4.42,9.88,9.88s-4.42,9.88-9.88,9.88-9.88-4.42-9.88-9.88,4.42-9.88,9.88-9.88m0-2c-6.55,0-11.88,5.33-11.88,11.88s5.33,11.88,11.88,11.88,11.88-5.33,11.88-11.88-5.33-11.88-11.88-11.88h0Z"/></g><text class="cls-2" transform="translate(500.17 538.43)"><tspan x="0" y="0">17</tspan></text></g><g id="_1-18"><g><path d="M275.9,630.4c-6,0-10.88-4.88-10.88-10.88s4.88-10.88,10.88-10.88,10.88,4.88,10.88,10.88-4.88,10.88-10.88,10.88Z"/><path d="M275.9,609.65c5.46,0,9.88,4.42,9.88,9.88s-4.42,9.88-9.88,9.88-9.88-4.42-9.88-9.88,4.42-9.88,9.88-9.88m0-2c-6.55,0-11.88,5.33-11.88,11.88s5.33,11.88,11.88,11.88,11.88-5.33,11.88-11.88-5.33-11.88-11.88-11.88h0Z"/></g><text class="cls-2" transform="translate(268.17 623.43)"><tspan x="0" y="0">18</tspan></text></g><g id="_1-19"><g><path d="M261.9,540.4c-6,0-10.88-4.88-10.88-10.88s4.88-10.88,10.88-10.88,10.88,4.88,10.88,10.88-4.88,10.88-10.88,10.88Z"/><path d="M261.9,519.65c5.46,0,9.88,4.42,9.88,9.88s-4.42,9.88-9.88,9.88-9.88-4.42-9.88-9.88,4.42-9.88,9.88-9.88m0-2c-6.55,0-11.88,5.33-11.88,11.88s5.33,11.88,11.88,11.88,11.88-5.33,11.88-11.88-5.33-11.88-11.88-11.88h0Z"/></g><text class="cls-2" transform="translate(254.17 533.43)"><tspan x="0" y="0">19</tspan></text></g><g id="Legend"><circle cx="65.91" cy="265.4" r="13"/><g><path d="M90.42,264.57v-2.36h8.94v2.36h-8.94Zm0,4.02v-2.38h8.94v2.38h-8.94Z"/><path d="M111.91,271.74h-3.47v-10.02h-3.14v-2.84h9.75v2.84h-3.13v10.02Z"/><path d="M127.81,258.88v7.74c0,1.08-.21,2.02-.62,2.81-.41,.79-1.03,1.41-1.85,1.84-.82,.43-1.85,.65-3.09,.65-1.77,0-3.12-.45-4.06-1.36-.93-.91-1.4-2.19-1.4-3.85v-7.82h3.49v7.55c0,.91,.17,1.57,.51,1.98,.34,.41,.84,.62,1.5,.62,.47,0,.86-.09,1.16-.27s.52-.46,.66-.85c.14-.39,.21-.89,.21-1.5v-7.53h3.47Z"/><path d="M134.73,258.88c1.17,0,2.14,.14,2.91,.43,.77,.28,1.36,.71,1.75,1.27,.39,.56,.58,1.26,.58,2.1,0,.52-.09,1-.26,1.43s-.43,.81-.75,1.15c-.33,.34-.71,.63-1.17,.88l3.75,5.6h-3.94l-2.73-4.68h-.88v4.68h-3.47v-12.86h4.21Zm-.05,2.63h-.69v2.94h.65c.53,0,.97-.12,1.31-.35,.34-.23,.51-.65,.51-1.26,0-.42-.14-.74-.42-.98s-.74-.35-1.36-.35Z"/><path d="M154.95,271.74h-4.56l-4.7-9.06h-.08c.03,.28,.06,.61,.08,.99s.04,.78,.06,1.18,.03,.76,.03,1.09v5.8h-3.08v-12.86h4.54l4.68,8.94h.05c-.02-.28-.04-.61-.05-.98-.02-.37-.03-.75-.05-1.13-.01-.38-.02-.72-.02-1.01v-5.81h3.1v12.86Z"/><path d="M174.65,271.74h-4.56l-4.7-9.06h-.08c.03,.28,.06,.61,.08,.99s.04,.78,.06,1.18,.03,.76,.03,1.09v5.8h-3.08v-12.86h4.54l4.68,8.94h.05c-.02-.28-.04-.61-.05-.98-.02-.37-.03-.75-.05-1.13-.01-.38-.02-.72-.02-1.01v-5.81h3.1v12.86Z"/><path d="M188.37,258.88v7.74c0,1.08-.21,2.02-.62,2.81-.41,.79-1.03,1.41-1.85,1.84-.82,.43-1.85,.65-3.09,.65-1.77,0-3.12-.45-4.06-1.36-.93-.91-1.4-2.19-1.4-3.85v-7.82h3.49v7.55c0,.91,.17,1.57,.51,1.98,.34,.41,.84,.62,1.5,.62,.47,0,.86-.09,1.16-.27s.52-.46,.66-.85c.14-.39,.21-.89,.21-1.5v-7.53h3.47Z"/><path d="M196.67,271.74l-2.63-9.26h-.08c.02,.24,.05,.57,.07,.98,.03,.41,.05,.85,.08,1.33s.04,.93,.04,1.37v5.59h-3.08v-12.86h4.63l2.68,9.13h.07l2.63-9.13h4.64v12.86h-3.19v-5.64c0-.4,0-.84,.02-1.31s.03-.91,.05-1.32c.02-.41,.04-.74,.06-.98h-.08l-2.59,9.25h-3.31Z"/><path d="M208.48,258.88h4.49c1.86,0,3.18,.28,3.98,.83,.79,.55,1.19,1.34,1.19,2.38,0,.56-.1,1.04-.3,1.43-.2,.39-.46,.7-.77,.93-.31,.23-.62,.38-.95,.47v.09c.35,.09,.7,.23,1.05,.44s.64,.5,.87,.91c.23,.4,.35,.95,.35,1.63,0,.78-.2,1.45-.59,2.01-.4,.56-.96,1-1.69,1.3-.73,.3-1.6,.45-2.61,.45h-5.01v-12.86Zm3.47,4.93h1.05c.58,0,.98-.12,1.21-.36,.23-.24,.35-.53,.35-.87s-.13-.62-.4-.8c-.27-.19-.68-.28-1.24-.28h-.98v2.3Zm0,2.54v2.7h1.22c.6,0,1.03-.13,1.27-.39,.24-.26,.36-.59,.36-.98,0-.23-.05-.44-.15-.65-.1-.2-.28-.37-.52-.49s-.59-.19-1.02-.19h-1.15Z"/><path d="M228.26,271.74h-7.64v-12.86h7.64v2.79h-4.16v2.02h3.85v2.79h-3.85v2.43h4.16v2.83Z"/><path d="M234.73,258.88c1.17,0,2.14,.14,2.91,.43,.77,.28,1.36,.71,1.75,1.27,.39,.56,.58,1.26,.58,2.1,0,.52-.09,1-.26,1.43s-.43,.81-.75,1.15c-.33,.34-.71,.63-1.17,.88l3.75,5.6h-3.94l-2.73-4.68h-.88v4.68h-3.47v-12.86h4.21Zm-.05,2.63h-.69v2.94h.65c.53,0,.97-.12,1.31-.35,.34-.23,.51-.65,.51-1.26,0-.42-.14-.74-.42-.98s-.74-.35-1.36-.35Z"/><path d="M251.11,267.84c0,.7-.18,1.36-.53,1.98s-.9,1.13-1.64,1.52c-.74,.39-1.7,.58-2.87,.58-.59,0-1.1-.03-1.54-.08-.44-.05-.85-.14-1.24-.26-.38-.12-.78-.28-1.19-.47v-3.1c.7,.35,1.4,.62,2.11,.8,.71,.18,1.35,.28,1.93,.28,.35,0,.63-.04,.85-.12,.22-.08,.38-.19,.49-.34,.11-.14,.16-.31,.16-.5,0-.22-.08-.41-.23-.57s-.4-.32-.74-.49c-.34-.17-.79-.38-1.35-.63-.47-.22-.9-.45-1.29-.69-.38-.23-.71-.5-.99-.81-.27-.3-.48-.66-.63-1.06-.15-.4-.22-.88-.22-1.43,0-.83,.2-1.52,.61-2.08,.41-.56,.98-.98,1.71-1.26,.73-.28,1.57-.42,2.53-.42,.84,0,1.59,.09,2.26,.28,.67,.19,1.27,.4,1.81,.64l-1.06,2.68c-.55-.25-1.09-.45-1.63-.6-.53-.15-1.03-.22-1.49-.22-.3,0-.54,.04-.73,.11-.19,.07-.33,.17-.42,.29s-.14,.26-.14,.42c0,.2,.08,.38,.23,.54,.16,.16,.42,.33,.78,.51,.37,.19,.87,.42,1.5,.72,.63,.28,1.16,.58,1.6,.91,.44,.33,.78,.72,1.01,1.17,.23,.45,.35,1.02,.35,1.68Z"/></g><g><circle class="cls-5" cx="65.91" cy="185.4" r="13"/><path d="M65.91,199.4c-7.72,0-14-6.28-14-14s6.28-14,14-14,14,6.28,14,14-6.28,14-14,14Zm0-26c-6.62,0-12,5.38-12,12s5.38,12,12,12,12-5.38,12-12-5.38-12-12-12Z"/></g><g><path d="M90.42,184.57v-2.36h8.94v2.36h-8.94Zm0,4.02v-2.38h8.94v2.38h-8.94Z"/><path d="M117.15,185.04c0,1.5-.28,2.74-.84,3.73-.56,.99-1.34,1.73-2.35,2.23-1.01,.5-2.2,.74-3.57,.74h-4.16v-12.86h4.45c1.38,0,2.56,.24,3.52,.71s1.69,1.17,2.2,2.08c.5,.92,.75,2.04,.75,3.36Zm-3.61,.12c0-.78-.1-1.43-.31-1.94s-.52-.9-.94-1.15c-.42-.25-.94-.38-1.57-.38h-1.01v7.2h.77c1.06,0,1.83-.31,2.32-.92,.49-.61,.74-1.55,.74-2.81Z"/><path d="M123.67,178.88c1.17,0,2.14,.14,2.91,.43,.77,.28,1.36,.71,1.75,1.27,.39,.56,.58,1.26,.58,2.1,0,.52-.09,1-.26,1.43s-.43,.81-.75,1.15c-.33,.34-.71,.63-1.17,.88l3.75,5.6h-3.94l-2.73-4.68h-.88v4.68h-3.47v-12.86h4.21Zm-.05,2.63h-.69v2.94h.65c.53,0,.97-.12,1.31-.35,.34-.23,.51-.65,.51-1.26,0-.42-.14-.74-.42-.98s-.74-.35-1.36-.35Z"/><path d="M140.06,187.84c0,.7-.18,1.36-.53,1.98s-.9,1.13-1.64,1.52c-.74,.39-1.7,.58-2.87,.58-.59,0-1.1-.03-1.54-.08-.44-.05-.85-.14-1.24-.26-.38-.12-.78-.28-1.19-.47v-3.1c.7,.35,1.4,.62,2.11,.8,.71,.18,1.35,.28,1.93,.28,.35,0,.63-.04,.85-.12,.22-.08,.38-.19,.49-.34,.11-.14,.16-.31,.16-.5,0-.22-.08-.41-.23-.57s-.4-.32-.74-.49c-.34-.17-.79-.38-1.35-.63-.47-.22-.9-.45-1.29-.69-.38-.23-.71-.5-.99-.81-.27-.3-.48-.66-.63-1.06-.15-.4-.22-.88-.22-1.43,0-.83,.2-1.52,.61-2.08,.41-.56,.98-.98,1.71-1.26,.73-.28,1.57-.42,2.53-.42,.84,0,1.59,.09,2.26,.28,.67,.19,1.27,.4,1.81,.64l-1.06,2.68c-.55-.25-1.09-.45-1.63-.6-.53-.15-1.03-.22-1.49-.22-.3,0-.54,.04-.73,.11-.19,.07-.33,.17-.42,.29s-.14,.26-.14,.42c0,.2,.08,.38,.23,.54,.16,.16,.42,.33,.78,.51,.37,.19,.87,.42,1.5,.72,.63,.28,1.16,.58,1.6,.91,.44,.33,.78,.72,1.01,1.17,.23,.45,.35,1.02,.35,1.68Z"/><path d="M157.64,185.04c0,1.5-.28,2.74-.84,3.73-.56,.99-1.34,1.73-2.35,2.23-1.01,.5-2.2,.74-3.57,.74h-4.16v-12.86h4.45c1.38,0,2.56,.24,3.52,.71s1.69,1.17,2.2,2.08c.5,.92,.75,2.04,.75,3.36Zm-3.61,.12c0-.78-.1-1.43-.31-1.94s-.52-.9-.94-1.15c-.42-.25-.94-.38-1.57-.38h-1.01v7.2h.77c1.06,0,1.83-.31,2.32-.92,.49-.61,.74-1.55,.74-2.81Z"/><path d="M167.58,191.74h-7.64v-12.86h7.64v2.79h-4.16v2.02h3.85v2.79h-3.85v2.43h4.16v2.83Z"/><path d="M175.51,191.74h-3.47v-10.02h-3.14v-2.84h9.75v2.84h-3.13v10.02Z"/><path d="M188.11,191.74h-7.64v-12.86h7.64v2.79h-4.16v2.02h3.85v2.79h-3.85v2.43h4.16v2.83Z"/><path d="M196.09,181.55c-.41,0-.78,.09-1.1,.26s-.6,.42-.83,.75c-.23,.33-.4,.73-.52,1.2-.12,.47-.18,1.01-.18,1.61,0,.81,.1,1.49,.31,2.04,.21,.55,.52,.97,.94,1.25,.42,.28,.95,.42,1.58,.42,.58,0,1.13-.08,1.66-.24,.53-.16,1.07-.35,1.61-.57v2.94c-.57,.25-1.15,.43-1.75,.55-.59,.11-1.23,.17-1.9,.17-1.4,0-2.54-.28-3.43-.83-.89-.55-1.54-1.32-1.96-2.31-.42-.99-.63-2.13-.63-3.43,0-.97,.14-1.86,.41-2.67,.27-.81,.67-1.51,1.2-2.11,.53-.6,1.18-1.06,1.96-1.38,.78-.33,1.67-.49,2.67-.49,.62,0,1.28,.07,1.97,.22,.69,.14,1.36,.37,2.02,.69l-1.06,2.74c-.47-.22-.94-.41-1.42-.56-.48-.15-.99-.23-1.53-.23Z"/><path d="M207.73,191.74h-3.47v-10.02h-3.14v-2.84h9.75v2.84h-3.13v10.02Z"/><path d="M212.7,191.74v-12.86h3.49v12.86h-3.49Z"/><path d="M231,185.3c0,.99-.12,1.89-.36,2.7-.24,.81-.61,1.51-1.11,2.1-.5,.59-1.15,1.04-1.94,1.35-.79,.31-1.74,.47-2.84,.47s-2.01-.16-2.8-.47c-.79-.31-1.44-.76-1.95-1.35-.51-.58-.89-1.28-1.13-2.1-.25-.81-.37-1.72-.37-2.73,0-1.34,.22-2.5,.66-3.49,.44-.99,1.13-1.75,2.05-2.3s2.11-.81,3.55-.81,2.66,.27,3.58,.82,1.59,1.31,2.02,2.3c.43,.99,.64,2.15,.64,3.49Zm-8.85,0c0,.77,.09,1.44,.26,2s.46,.99,.84,1.28c.38,.3,.88,.45,1.5,.45s1.15-.15,1.53-.45c.38-.3,.65-.73,.82-1.28s.25-1.22,.25-2c0-1.16-.19-2.08-.58-2.75s-1.05-1.01-2-1.01c-.63,0-1.13,.15-1.52,.46-.38,.31-.66,.74-.83,1.3s-.26,1.23-.26,2.01Z"/><path d="M245.57,191.74h-4.56l-4.7-9.06h-.08c.03,.28,.06,.61,.08,.99s.04,.78,.06,1.18,.03,.76,.03,1.09v5.8h-3.08v-12.86h4.54l4.68,8.94h.05c-.02-.28-.04-.61-.05-.98-.02-.37-.03-.75-.05-1.13-.01-.38-.02-.72-.02-1.01v-5.81h3.1v12.86Z"/><path d="M262.2,191.74h-10.02v-2.15l5.57-7.91h-5.44v-2.81h9.75v2.14l-5.57,7.92h5.71v2.81Z"/><path d="M276.07,185.3c0,.99-.12,1.89-.36,2.7-.24,.81-.61,1.51-1.11,2.1-.5,.59-1.15,1.04-1.94,1.35-.79,.31-1.74,.47-2.84,.47s-2.01-.16-2.8-.47c-.79-.31-1.44-.76-1.95-1.35-.51-.58-.89-1.28-1.13-2.1-.25-.81-.37-1.72-.37-2.73,0-1.34,.22-2.5,.66-3.49,.44-.99,1.13-1.75,2.05-2.3s2.11-.81,3.55-.81,2.66,.27,3.58,.82,1.59,1.31,2.02,2.3c.43,.99,.64,2.15,.64,3.49Zm-8.85,0c0,.77,.09,1.44,.26,2s.46,.99,.84,1.28c.38,.3,.88,.45,1.5,.45s1.15-.15,1.53-.45c.38-.3,.65-.73,.82-1.28s.25-1.22,.25-2c0-1.16-.19-2.08-.58-2.75s-1.05-1.01-2-1.01c-.63,0-1.13,.15-1.52,.46-.38,.31-.66,.74-.83,1.3s-.26,1.23-.26,2.01Z"/><path d="M290.64,191.74h-4.56l-4.7-9.06h-.08c.03,.28,.06,.61,.08,.99s.04,.78,.06,1.18,.03,.76,.03,1.09v5.8h-3.08v-12.86h4.54l4.68,8.94h.05c-.02-.28-.04-.61-.05-.98-.02-.37-.03-.75-.05-1.13-.01-.38-.02-.72-.02-1.01v-5.81h3.1v12.86Z"/><path d="M301.05,191.74h-7.64v-12.86h7.64v2.79h-4.16v2.02h3.85v2.79h-3.85v2.43h4.16v2.83Z"/></g><g><path d="M90.42,223.57v-2.36h8.94v2.36h-8.94Zm0,4.02v-2.38h8.94v2.38h-8.94Z"/><path d="M117.15,224.04c0,1.5-.28,2.74-.84,3.73-.56,.99-1.34,1.73-2.35,2.23-1.01,.5-2.2,.74-3.57,.74h-4.16v-12.86h4.45c1.38,0,2.56,.24,3.52,.71s1.69,1.17,2.2,2.08c.5,.92,.75,2.04,.75,3.36Zm-3.61,.12c0-.78-.1-1.43-.31-1.94s-.52-.9-.94-1.15c-.42-.25-.94-.38-1.57-.38h-1.01v7.2h.77c1.06,0,1.83-.31,2.32-.92,.49-.61,.74-1.55,.74-2.81Z"/><path d="M123.67,217.88c1.17,0,2.14,.14,2.91,.43,.77,.28,1.36,.71,1.75,1.27,.39,.56,.58,1.26,.58,2.1,0,.52-.09,1-.26,1.43s-.43,.81-.75,1.15c-.33,.34-.71,.63-1.17,.88l3.75,5.6h-3.94l-2.73-4.68h-.88v4.68h-3.47v-12.86h4.21Zm-.05,2.63h-.69v2.94h.65c.53,0,.97-.12,1.31-.35,.34-.23,.51-.65,.51-1.26,0-.42-.14-.74-.42-.98s-.74-.35-1.36-.35Z"/><path d="M140.06,226.84c0,.7-.18,1.36-.53,1.98s-.9,1.13-1.64,1.52c-.74,.39-1.7,.58-2.87,.58-.59,0-1.1-.03-1.54-.08-.44-.05-.85-.14-1.24-.26-.38-.12-.78-.28-1.19-.47v-3.1c.7,.35,1.4,.62,2.11,.8,.71,.18,1.35,.28,1.93,.28,.35,0,.63-.04,.85-.12,.22-.08,.38-.19,.49-.34,.11-.14,.16-.31,.16-.5,0-.22-.08-.41-.23-.57s-.4-.32-.74-.49c-.34-.17-.79-.38-1.35-.63-.47-.22-.9-.45-1.29-.69-.38-.23-.71-.5-.99-.81-.27-.3-.48-.66-.63-1.06-.15-.4-.22-.88-.22-1.43,0-.83,.2-1.52,.61-2.08,.41-.56,.98-.98,1.71-1.26,.73-.28,1.57-.42,2.53-.42,.84,0,1.59,.09,2.26,.28,.67,.19,1.27,.4,1.81,.64l-1.06,2.68c-.55-.25-1.09-.45-1.63-.6-.53-.15-1.03-.22-1.49-.22-.3,0-.54,.04-.73,.11-.19,.07-.33,.17-.42,.29s-.14,.26-.14,.42c0,.2,.08,.38,.23,.54,.16,.16,.42,.33,.78,.51,.37,.19,.87,.42,1.5,.72,.63,.28,1.16,.58,1.6,.91,.44,.33,.78,.72,1.01,1.17,.23,.45,.35,1.02,.35,1.68Z"/><path d="M155.89,230.74h-10.02v-2.15l5.57-7.91h-5.44v-2.81h9.75v2.14l-5.57,7.92h5.71v2.81Z"/><path d="M169.76,224.3c0,.99-.12,1.89-.36,2.7-.24,.81-.61,1.51-1.11,2.1-.5,.59-1.15,1.04-1.94,1.35-.79,.31-1.74,.47-2.84,.47s-2.01-.16-2.8-.47c-.79-.31-1.44-.76-1.95-1.35-.51-.58-.89-1.28-1.13-2.1-.25-.81-.37-1.72-.37-2.73,0-1.34,.22-2.5,.66-3.49,.44-.99,1.13-1.75,2.05-2.3s2.11-.81,3.55-.81,2.66,.27,3.58,.82,1.59,1.31,2.02,2.3c.43,.99,.64,2.15,.64,3.49Zm-8.85,0c0,.77,.09,1.44,.26,2s.46,.99,.84,1.28c.38,.3,.88,.45,1.5,.45s1.15-.15,1.53-.45c.38-.3,.65-.73,.82-1.28s.25-1.22,.25-2c0-1.16-.19-2.08-.58-2.75s-1.05-1.01-2-1.01c-.63,0-1.13,.15-1.52,.46-.38,.31-.66,.74-.83,1.3s-.26,1.23-.26,2.01Z"/><path d="M184.33,230.74h-4.56l-4.7-9.06h-.08c.03,.28,.06,.61,.08,.99s.04,.78,.06,1.18,.03,.76,.03,1.09v5.8h-3.08v-12.86h4.54l4.68,8.94h.05c-.02-.28-.04-.61-.05-.98-.02-.37-.03-.75-.05-1.13-.01-.38-.02-.72-.02-1.01v-5.81h3.1v12.86Z"/><path d="M194.75,230.74h-7.64v-12.86h7.64v2.79h-4.16v2.02h3.85v2.79h-3.85v2.43h4.16v2.83Z"/><path d="M205.41,226.84c0,.7-.18,1.36-.53,1.98s-.9,1.13-1.64,1.52c-.74,.39-1.7,.58-2.87,.58-.59,0-1.1-.03-1.54-.08-.44-.05-.85-.14-1.24-.26-.38-.12-.78-.28-1.19-.47v-3.1c.7,.35,1.4,.62,2.11,.8,.71,.18,1.35,.28,1.93,.28,.35,0,.63-.04,.85-.12,.22-.08,.38-.19,.49-.34,.11-.14,.16-.31,.16-.5,0-.22-.08-.41-.23-.57s-.4-.32-.74-.49c-.34-.17-.79-.38-1.35-.63-.47-.22-.9-.45-1.29-.69-.38-.23-.71-.5-.99-.81-.27-.3-.48-.66-.63-1.06-.15-.4-.22-.88-.22-1.43,0-.83,.2-1.52,.61-2.08,.41-.56,.98-.98,1.71-1.26,.73-.28,1.57-.42,2.53-.42,.84,0,1.59,.09,2.26,.28,.67,.19,1.27,.4,1.81,.64l-1.06,2.68c-.55-.25-1.09-.45-1.63-.6-.53-.15-1.03-.22-1.49-.22-.3,0-.54,.04-.73,.11-.19,.07-.33,.17-.42,.29s-.14,.26-.14,.42c0,.2,.08,.38,.23,.54,.16,.16,.42,.33,.78,.51,.37,.19,.87,.42,1.5,.72,.63,.28,1.16,.58,1.6,.91,.44,.33,.78,.72,1.01,1.17,.23,.45,.35,1.02,.35,1.68Z"/></g><path class="cls-5" d="M78.91,236.4h-2.5v-23h2.5v23Zm-5.5,0h-3v-23h3v23Zm-6,0h-3v-23h3v23Zm-6,0h-3v-23h3v23Zm-6,0h-3v-23h3v23Z"/><g><path class="cls-1" d="M65.39,264.18c0,.84-.07,1.59-.2,2.26s-.35,1.23-.64,1.69-.68,.82-1.17,1.06c-.48,.24-1.08,.37-1.78,.37-.88,0-1.59-.21-2.15-.64-.56-.43-.97-1.04-1.24-1.84-.26-.8-.4-1.76-.4-2.89s.12-2.1,.36-2.91c.24-.81,.64-1.42,1.19-1.85,.55-.43,1.3-.65,2.23-.65,.88,0,1.59,.21,2.15,.64,.56,.43,.97,1.04,1.24,1.85,.27,.81,.4,1.78,.4,2.92Zm-4.75,0c0,.68,.02,1.26,.08,1.72,.05,.46,.15,.81,.29,1.04,.14,.23,.34,.35,.61,.35s.46-.12,.6-.35,.23-.58,.29-1.04,.08-1.04,.08-1.72-.03-1.27-.08-1.74-.15-.81-.29-1.05-.34-.35-.6-.35-.46,.12-.61,.35c-.14,.24-.24,.59-.29,1.05-.05,.46-.08,1.04-.08,1.74Z"/><path class="cls-1" d="M72.66,269.41h-2.88v-5.71c0-.26,0-.54,.01-.85,0-.31,.02-.59,.03-.84-.12,.15-.24,.27-.35,.38-.11,.11-.21,.2-.31,.29l-1.19,.98-1.47-1.81,3.6-2.93h2.55v10.48Z"/></g></g><circle class="cls-6" cx="298.57" cy="586.89" r="10"/><circle class="cls-6" cx="128.78" cy="553.01" r="10"/></svg>