<?xml version="1.0" encoding="utf-8"?>
<!-- Generator: Adobe Illustrator 26.3.1, SVG Export Plug-In . SVG Version: 6.00 Build 0)  -->
<svg version="1.1" id="Suzuka_Simple" xmlns="http://www.w3.org/2000/svg" xmlns:xlink="http://www.w3.org/1999/xlink" x="0px"
	 y="0px" viewBox="0 0 1000 1000" style="enable-background:new 0 0 1000 1000;" xml:space="preserve">
<style type="text/css">
	.st0{fill:#DB4A25;}
	.st1{fill:#75E5FD;}
	.st2{fill:#FAE44A;}
	.st3{fill:#1BCE20;}
	.st4{fill:#1BCE20;stroke:#000000;stroke-width:2;stroke-miterlimit:10;}
</style>
<path class="st0" d="M569.8,447.6c-1.2,0.6-3.2,1.6-5.5,2.9 M730.4,455.6l1.5,1.8c44.4,54.5,189.5,232.7,193.7,237.3
	c3.6,4,5.5,7.6,7.4,11.2c0.5,0.9,1,1.8,1.4,2.7c1.4,2.5,1.2,8.1,0.8,11.2c-0.5,1.5-3.7,11.7-5.5,17.6l-0.4,1.4
	c-1.7,5.6-2.8,9-8.4,10c-6.6,1.3-10.4-2-11.1-2.7c-2.8-4.5-38.8-61.1-46.8-71.4c-8.1-10.4-22.9-14.1-29.6-14.6
	c-1-0.1-2.3-0.1-3.8-0.1c-6.1-0.1-16.2-0.2-23.3-4c-5.9-3.1-7-8.1-7-8.4c-0.3-1.5-8.1-37.1-15.1-47.2c-8.2-11.6-20.1-17.3-28.7-20.1
	c-7.9-2.5-11.8-2.6-18.4-2.8c-2.7-0.1-5.7-0.1-9.6-0.4c-13-0.8-13.4-1.1-22.6-8l-0.4-0.3c-7.2-5.5-5.3-16.9-5-18.4
	c1.1-2.7,10.8-26.8,13.8-40.9c3.1-14.8-4.4-34.4-10.7-40.9c-5.4-5.5-12.9-12.2-28-19.7c-14.3-7.2-34-13.1-43.9-13.3
	c-2.5,0-22,0.3-22,0.3c-3.2,0.2-6.3,0.3-8.9,1.2C588,441,573.4,443,557,456c-19,15.1-34.9,32.9-34.9,32.9l-9.9,11.7l25.4,20
	c5.8-7.2,11.8-14.7,16.9-20.8c18.7-21.9,38.7-29.3,52.3-31.8c18.3-3.3,38.9,2.6,40.7,3.1c7.9,3.4,28.6,13.3,32,19.4
	c3.8,6.7,2.5,15.3,2.3,16.6c-1.1,2.8-10.7,28.2-12.8,35.6c-2.6,9.1-4.7,27.2,10.7,45.2c17.7,20.8,39.3,21,50.9,21.1
	c1.8,0,3.3,0,4.5,0.1c10.2,0.6,14.2,2.2,17.8,4.9c4.7,3.5,7.3,7.5,8.2,12.8c1,5.7,5.5,21.6,8.5,32.1l0.1,0.3
	c2.7,9.4,9.5,17.8,20.9,25.6c8.3,5.7,22.4,6.5,33.7,7.1c4.3,0.2,8,0.4,10.4,0.9c5.2,1,10.4,10,12,13.4l0.1,0.2
	c1.3,2.2,32.9,54.7,41.5,63.5c6.5,6.7,13.5,10.8,27.1,10.8c3.4,0,7.3-0.3,11.7-0.8c13.6-1.7,24.2-10.5,30.6-25.3
	c7.7-17.7,11.6-31.1,9.2-47.1c-2.4-15.7-12.5-28.7-13-29.3l-198.9-243"/>
<path class="st1" d="M427,492.6c-1.2-6.2-14.4-71.6-15.5-79.4c-1-7.7,1-15.9,1.4-17.2c1.5-3,15.6-31.1,17.9-41.5
	c2.9-12.9-1.7-22.8-12.9-27.9c-20.4-9.4-32.3,6.7-32.4,6.9l-0.1,0.1c-0.3,0.4-27.9,43.9-33.9,52.5c-11.6,16.6-23.5,26-35.4,27.9
	c-33.1,5.3-40.7,3.8-71.3-4.4c-27.8-7.4-50.3-25.2-59.3-34.6c-6.6-6.9-15.4-23.1-16.2-24.5c-1.1-2.7-23.2-54.6-25.7-61.2
	c-2.9-7.5-6.3-11.3-12.7-17c-12.6-11.2-20.9-10.9-36-10.3l-1.1,0c-16.7,0.6-29.6,3.8-40.6,10c-14.5,8.1-17.7,19.6-19.7,29.8
	c-3,15.8,3.4,33.7,17.1,48c18.4,19.3,67.8,53.9,96.4,69.6c26.5,14.6,67.1,30.5,75.7,33.4c9.3,3.2,161,58.2,176.4,63.9
	c1.1,5.6,5.5,27.1,7.2,32.4c3.1,9.5,13,14.2,21.5,14.6c4.5,0.2,55.9-3.3,63.9-4.3l1-0.1c4.4-0.6,7.9-1,15.4-5.5
	c5.2-3.1,16.1-16.5,27.8-31.1c0.5-0.6,1-1.3,1.5-1.9L512,500.7l-22.1,26.4L434,532L427,492.6L427,492.6z M380,412
	c0.2,4.3,9.6,53,12.6,68.5L278,442c9.8-1,19,10,56.6-1.2c14.1-4.2,27-16.1,37.6-29.5c2.8-3.5,5.5-7.3,7.7-10.6
	C379.8,403.9,379.7,407.7,380,412L380,412z M155.7,387.3c-14.4-8.5-44.9-27.7-81.7-58.8l0,0c-3.2-2.7-7.7-11.7-8.9-15.6
	c-1-2.9,0-8.9,1.8-10.9c3.2-3.7,9.9-5.3,14.8-6.4c1-0.2,2-0.5,2.8-0.7c4.2-1.1,16.5-1.9,24.2-0.5c1.8,0.3,5.1,4.3,5.7,5.7
	c0.6,1.5,11.8,31,20.7,50.6C140,362,145,372,152,380c0,0,5,4,16,14C168,394,167,394.1,155.7,387.3L155.7,387.3z"/>
<path class="st2" d="M365.2,504.2l-124.8-45.9c1.2,0.4,43.6,15.4,37.1,13.7c35.7,12.9,108.3,39.7,121.8,44.6 M428,495
	c0,0-60-23-66-24s-117-41-117-41l-12.6,25l93.4,33.8c0,0,84.1,32.1,107.1,37.1c6.2,1.3,3,1,16-1s48-18,53-22s58-53,58-53l19-13
	l14.5-10.7c1.5,1.5,3.9,3.8,6.5,5.6c3.3,2.3,5.9,3.6,8.5,4.2c0,0,10.2,1.3,14.4-0.4c4.9-1.5,8.9-4.8,13.5-8.7
	c2.7-2.3,5.8-4.8,9.5-7.4c9.4-6.5,25-6.1,35.7-2.4c19.3,6.8,31.8,18.3,37.5,24.6l0.8,1.3l25.3-19.6l-1.7-1.9
	c-4.1-4.4-7.9-8-11.3-10.7c-0.7-0.5-1.4-1.1-2.1-1.7c-9.9-8.1-23.5-19.2-49.6-24.4c-21.3-4.2-30.3-1.5-40.6,2.7
	c-5,2-11.5,6.8-16.8,10.7c-2.5,1.9-5.6,4.1-7.2,5c-2.6-3.5-8.5-11.1-19.4-11.1c-0.1,0-0.2,0-0.3,0c-11.9,0.2-21.4,7.7-25.9,11.4
	c-0.5,0.4-0.9,0.7-1.3,1c-1.9,1.5-13.8,12.2-27.5,24.7c-14.9,13.5-31.8,28.9-37.4,33.5c-9.9,8.3-22.8,16.4-23.8,17
	c-1.5,0.8-27.9,15.5-40.2,16.4c-9.6,0.7-8.4,0.7-9,0L428,495L428,495z M441.4,526l-7.7,0.8c3.1,0.3,8.3,0.1,16.7-1.8
	c19-4.3,38.3-15,46-19.5 M245,430l147.6,50.6"/>
<path d="M426.7,495c-5.3-1.8-33.1-11.9-33.4-12l0.7-1.9c0.3,0.1,28,10.2,33.3,12L426.7,495L426.7,495z"/>
<path d="M433,526.8c-5.8,0-32.5-9.7-33.7-10.1l0.7-1.9c9.5,3.5,28.6,10,33,10V526.8z"/>
<path d="M103.7,261.6v2c9.8,0,16.5,1.5,26.1,10c6.3,5.6,9.4,9.1,12.1,16.2c2.6,6.7,24.8,59.1,25.7,61.3l0,0.1l0.1,0.1
	c1,1.8,9.8,17.9,16.5,24.9c9.1,9.5,32,27.7,60.2,35.2c18.6,5,28.9,7.5,41.8,7.5c7.7,0,16.5-0.9,30.3-3.1c12.4-2,24.8-11.6,36.7-28.7
	c5.7-8.2,31-48,33.9-52.5l0-0.1l0,0c0.4-0.5,7-9,18.4-9c3.7,0,7.6,0.9,11.6,2.7c10.4,4.8,14.4,13.6,11.7,25.7
	c-1.8,8.2-12,29.6-17.8,41l-0.1,0.2l0,0.2c-0.4,1.6-2.5,10-1.4,18c1,8,14,72.3,15.5,79.6l0.1,0.5l0.3,0.4c0.9,1,3.8,3.5,11.5,3.5
	c1,0,2.2,0,3.3-0.1c12.5-1,37.9-14.4,40.8-16l0.1,0l0,0c1.4-0.9,14.1-8.8,24-17.1c5.6-4.7,22.5-20,37.4-33.6
	c13.1-11.9,25.5-23.2,27.4-24.6c0.3-0.2,0.7-0.6,1.2-0.9l0.2-0.1c4.4-3.5,13.5-10.8,24.7-10.9h0.3c10.1,0,15.5,7.2,17.8,10.3
	l1.1,1.4l1.5-0.9c1.7-1,4.8-3.2,7.4-5.1c5.2-3.8,11.6-8.5,16.3-10.4c6.2-2.5,12.2-4.6,21.2-4.6c5.2,0,11.2,0.7,18.2,2.1
	c25.6,5.1,39,16,48.8,24l0.1,0.1c0.7,0.6,1.3,1.1,2,1.6c3.3,2.7,7.1,6.2,11.1,10.5l0.2,0.2l-21.8,17c-5.9-6.5-18.6-18.1-38.1-24.9
	c-5.1-1.8-11.2-2.8-17-2.8s-14,0.9-20.5,5.5c-3.8,2.6-6.9,5.2-9.6,7.5c-4.6,3.9-8.3,6.9-12.8,8.3l-6.6,2l-6.8-1.6
	c-2.5-0.6-4.8-1.8-7.8-3.9c-2.4-1.7-4.7-3.9-6.2-5.4l-1.2-1.2l-1.4,1l-14.5,10.7l0,0l0,0L550,458.1c-2,1.5-3.7,3-5.3,4.3
	c-2.7,2-10.2,8.9-19,16.9c-11.1,10.1-24.9,22.7-27.8,24.4c-7.6,4.5-29.2,15.1-48,19.3c-5.5,1.2-10.1,1.9-13.8,1.9
	c-0.8,0-1.6,0-2.2-0.1l-2.5-0.2l0.3,2.5l0.6,4.5l0.2,1.9l1.9-0.2l55.3-4.2l0.8-0.1l0.5-0.7c0.2-0.3,22.9-27.6,30.8-36.3
	c5.9-6.5,24.1-25.2,25.4-26.6l5.2-4.2c6.5-5,13.2-9.2,13.8-9.6c1.8-1,3.3-1.8,4.3-2.2c5.2-2.4,19.3-8.1,29.3-10.2
	c2.4-0.5,5.3-0.9,8.7-1.1l5.7-0.4l8.5,0c2.8,0,5.5,0,7.6,0.1c9.6,0.2,29,6,43.1,13.1c14.8,7.4,22.1,13.9,27.4,19.3
	c6.1,6.3,13,25.4,10.2,39.1c-2.9,13.9-12.6,37.9-13.7,40.6l-0.1,0.2l0,0.2c-0.5,2.3-2.3,14.2,5.8,20.3l0.4,0.3
	c9.7,7.3,10.5,7.6,23.7,8.4c4,0.2,7,0.3,9.7,0.4c6.6,0.2,10.3,0.2,17.9,2.7c8.3,2.7,19.8,8.2,27.7,19.3c5.5,7.8,12.1,33.8,14.8,46.4
	c0.1,0.6,1.5,6.3,8,9.8c7.5,3.9,17.9,4.1,24.2,4.2c1.4,0,2.7,0,3.7,0.1c6.4,0.5,20.5,3.9,28.2,13.8c8,10.3,45.1,68.8,46.7,71.2
	l0.1,0.2l0.2,0.2c0.8,0.8,4.1,3.6,9.5,3.6c1.1,0,2.2-0.1,3.3-0.3c6.8-1.3,8.2-5.8,10-11.4l0.4-1.4c1.9-6,5.1-16.2,5.5-17.6l0-0.2
	l0-0.2c0-0.3,1.2-8.5-1-12.5c-0.5-0.8-0.9-1.7-1.4-2.6c-1.9-3.6-3.9-7.4-7.7-11.6c-4.1-4.6-149.2-182.8-193.6-237.2l-0.2-0.3
	l21.8-17.7l197.6,241.4c0.4,0.5,10.3,13.1,12.6,28.3c2.3,15.5-1.6,28.6-9.1,46c-6.1,14.2-16.2,22.5-29,24.1c-4.3,0.5-8,0.8-11.4,0.8
	c-13.1,0-19.6-3.9-25.7-10.2c-6.8-7-29.9-44.3-41.2-63.1l-0.1-0.1c-0.5-1-6.4-13.2-13.5-14.5c-2.5-0.5-6.3-0.7-10.7-0.9
	c-11.1-0.6-24.9-1.4-32.7-6.8c-11-7.6-17.6-15.6-20.1-24.5l-0.1-0.3l0-0.1c-3-10.5-7.4-26.2-8.4-31.8c-1.1-5.9-3.8-10.2-9-14
	c-4-2.9-8.1-4.7-18.9-5.3c-1.3-0.1-2.9-0.1-4.6-0.1c-11.3-0.1-32.3-0.2-49.4-20.4c-14.7-17.3-12.8-34.6-10.2-43.3
	c2.1-7.3,11.7-32.6,12.8-35.4l0.1-0.2l0-0.2c0.3-1.7,1.5-10.7-2.5-18c-4.4-7.9-31.8-19.7-33-20.2l-0.1,0l-0.1,0
	c-1.5-0.4-14.6-4.2-29.2-4.2c-4.4,0-8.5,0.3-12.3,1c-13.9,2.5-34.4,10.1-53.5,32.4c-5.2,6.1-11.2,13.6-17,20.8
	c-11.6,14.5-23.6,29.5-28.8,32.6c-7.2,4.3-10.3,4.7-14.7,5.3l-1,0.1c-7.6,1-56,4.3-63.1,4.3c-0.2,0-0.3,0-0.4,0
	c-7.8-0.4-16.9-4.6-19.6-13.2c-1.3-4.1-4.5-19.3-7.1-32.2l-0.2-1.1l-1.1-0.4l-0.5-0.2c-39.1-14.2-167.4-60.8-176-63.7
	c-8.5-2.9-48.9-18.7-75.4-33.3c-28.5-15.7-77.6-50.1-95.9-69.3C39,334.5,32.8,317.2,35.7,302c1.8-9.7,5-20.7,18.7-28.4
	c10.7-6,23.3-9.1,39.7-9.7l1.1,0c3.2-0.1,5.9-0.2,8.5-0.2L103.7,261.6 M72.7,330L72.7,330c36.4,30.7,66.7,50,81.5,58.7
	c0.1,0,0.1,0.1,10.1,5.4c4.6,2.9,9.8,5.5,16.4,8.9c2.5,1.3,5.1,2.6,7.9,4.1c5,2.7,10.2,5.5,10.5,5.6l0.6-1.2l-0.6,1.2
	c4.8,2.4,16.3,7.5,28.9,12.7c4.1,1.7,7.8,3.2,11.1,4.4c14.9,5.8,28,10.4,38.9,13.4c12,4.1,22.3,7.5,22.3,7.5l0,0l91.6,31.6l3.3,1.1
	l-0.7-3.4c-6-30.8-12.4-64.9-12.6-68.2c-0.2-3.9-0.2-7.6,0-11.1l0.4-7.4l-4.1,6.2c-2.6,4-5.2,7.5-7.6,10.5
	c-11.2,14-24.8,24.5-37.4,29c-9.8,3.5-18.1,5-27.6,5c-1.2,0-2.4,0-3.6-0.1c-5.5-0.2-13.2-1.7-22.8-4.4c-11.3-3.8-26.3-8.9-33.6-11.5
	c-1.6-0.5-3.3-1.2-5.1-1.9c-3.6-1.4-7.3-2.9-11-4.4c-13.7-5.7-27.6-12.1-28.7-12.6c-3.4-1.8-6.8-3.7-10.5-5.6l-11.2-6l-13-6.9
	c-12.2-7.7-18.6-16.5-29.6-40.9c-7.4-16.2-16.5-39.8-19.5-47.6c-0.7-1.9-1-2.7-1.2-3c-0.7-1.6-4.4-6.4-7.2-6.9
	c-2.8-0.5-6.3-0.7-10.3-0.7c-5.7,0-11.8,0.5-14.7,1.3c-0.8,0.2-1.7,0.4-2.7,0.6c-5.1,1.2-12.2,2.8-15.8,7c-2.2,2.5-3.3,9.3-2.1,12.9
	C64.4,317.5,69,326.9,72.7,330 M103.7,261.6c-2.7,0-5.5,0.1-8.6,0.2l-1.1,0c-16.7,0.6-29.6,3.8-40.6,10
	c-14.5,8.1-17.7,19.6-19.7,29.8c-3,15.8,3.4,33.7,17.1,48c18.4,19.3,67.8,53.9,96.4,69.6c26.5,14.6,67.1,30.5,75.7,33.4
	c9.3,3.2,161,58.2,176.4,63.9c1.1,5.6,5.5,27.1,7.2,32.4c3.1,9.5,13,14.2,21.5,14.6c0.1,0,0.3,0,0.5,0c7,0,55.6-3.3,63.4-4.3l1-0.1
	c4.4-0.6,7.9-1,15.4-5.5c5.5-3.3,17-17.7,29.3-33c5.8-7.2,11.8-14.7,16.9-20.8c18.7-21.9,38.7-29.3,52.3-31.8c4-0.7,8-1,12-1
	c14.4,0,27.3,3.7,28.7,4.1c7.9,3.4,28.6,13.3,32,19.4c3.8,6.7,2.5,15.3,2.3,16.6c-1.1,2.8-10.7,28.2-12.8,35.6
	c-2.6,9.1-4.7,27.2,10.7,45.2c17.7,20.8,39.3,21,50.9,21.1c1.8,0,3.3,0,4.5,0.1c10.2,0.6,14.2,2.2,17.8,4.9
	c4.7,3.5,7.3,7.5,8.2,12.8c1,5.7,5.5,21.6,8.5,32.1l0.1,0.3c2.7,9.4,9.5,17.8,20.9,25.6c8.3,5.7,22.4,6.5,33.7,7.1
	c4.3,0.2,8,0.5,10.4,0.9c5.2,1,10.4,10,12,13.4l0.1,0.2c1.3,2.2,32.9,54.7,41.5,63.5c6.5,6.7,13.5,10.8,27.1,10.8
	c3.4,0,7.3-0.3,11.7-0.8c13.6-1.7,24.2-10.5,30.6-25.3c7.7-17.7,11.6-31.1,9.2-47.1c-2.4-15.7-12.5-28.7-13-29.3l-198.9-243
	l-24.9,20.2l1.5,1.8c44.4,54.5,189.5,232.7,193.6,237.3c3.6,4,5.5,7.6,7.4,11.2c0.5,0.9,1,1.8,1.4,2.7c1.4,2.5,1.2,8.1,0.8,11.2
	c-0.5,1.5-3.7,11.7-5.5,17.6l-0.4,1.4c-1.7,5.6-2.8,9-8.4,10c-1,0.2-2,0.3-2.9,0.3c-4.8,0-7.6-2.4-8.1-3
	c-2.8-4.5-38.8-61.1-46.8-71.4c-8.1-10.4-22.9-14.1-29.6-14.6c-1-0.1-2.3-0.1-3.8-0.1c-6.1-0.1-16.2-0.2-23.3-4
	c-5.9-3.1-7-8.1-7-8.4c-0.3-1.5-8.1-37.1-15.1-47.2c-8.2-11.6-20.1-17.3-28.7-20.1c-7.9-2.5-11.8-2.6-18.4-2.8
	c-2.7-0.1-5.7-0.1-9.6-0.4c-13-0.8-13.4-1.1-22.6-8l-0.4-0.3c-7.2-5.5-5.3-16.9-5-18.4c1.1-2.7,10.8-26.8,13.8-40.9
	c3.1-14.8-4.4-34.4-10.7-40.9c-5.4-5.5-12.9-12.2-28-19.7c-14.3-7.2-34-13.1-43.9-13.3c-2.5,0-5.1-0.1-7.7-0.1
	c4.9-1.5,8.9-4.8,13.5-8.7c2.7-2.3,5.8-4.8,9.5-7.4c5.2-3.6,12.2-5.1,19.3-5.1c5.8,0,11.6,1,16.4,2.7c19.3,6.8,31.8,18.3,37.5,24.6
	l0.8,1.3l25.3-19.6l-1.7-1.9c-4.1-4.4-7.9-8-11.3-10.7c-0.7-0.5-1.4-1.1-2.1-1.7c-9.9-8.1-23.5-19.2-49.6-24.4
	c-7.5-1.5-13.6-2.1-18.6-2.1c-9.2,0-15.3,2.1-22,4.8c-5,2-11.5,6.8-16.8,10.7c-2.5,1.9-5.6,4.1-7.2,5c-2.6-3.5-8.5-11.1-19.4-11.1
	c-0.1,0-0.2,0-0.3,0c-11.9,0.2-21.4,7.7-25.9,11.4c-0.5,0.4-0.9,0.7-1.3,1c-1.9,1.5-13.8,12.2-27.5,24.7
	c-14.9,13.5-31.8,28.9-37.4,33.5c-9.9,8.3-22.8,16.4-23.8,17c-1.5,0.8-27.7,14.8-40,15.7c-1.1,0.1-2.2,0.1-3.1,0.1
	c-7.1,0-9.5-2.1-10-2.8c-1.2-6.2-14.4-71.6-15.5-79.4c-1-7.7,1-15.9,1.4-17.2c1.5-3,15.6-31.1,17.9-41.5
	c2.9-12.9-1.7-22.8-12.9-27.9c-4.6-2.1-8.8-2.9-12.4-2.9c-12.7,0-19.9,9.7-20,9.8l-0.1,0.1c-0.3,0.4-27.9,43.9-33.9,52.5
	c-11.6,16.6-23.5,26-35.4,27.9c-12.9,2.1-22,3.1-30,3.1c-12.5,0-22.6-2.5-41.3-7.5c-27.8-7.4-50.3-25.2-59.3-34.6
	c-6.6-6.9-15.4-23.1-16.2-24.5c-1.1-2.7-23.2-54.6-25.7-61.2c-2.9-7.5-6.3-11.3-12.7-17C121.1,263.3,113.8,261.6,103.7,261.6
	L103.7,261.6L103.7,261.6z M74,328.5c-3.2-2.7-7.7-11.7-8.9-15.6c-1-2.9,0-8.9,1.8-10.9c3.2-3.7,9.9-5.3,14.8-6.4
	c1-0.2,2-0.5,2.8-0.7c2.7-0.7,8.4-1.2,14.2-1.2c3.5,0,7.1,0.2,9.9,0.7c1.8,0.3,5.1,4.3,5.7,5.7c0.6,1.5,11.8,31,20.7,50.6
	c11.5,25.4,18.2,34.1,30.4,41.8c7.2,3.9,16.9,9,24.2,13c3.2,1.7,6.7,3.5,10.5,5.6l0,0c-0.3-0.1-4.6-2.5-10.5-5.6
	c-10.4-5.4-18-9-24.2-13c-5.8-3.1-10-5.4-10.1-5.4C140.6,378.4,110.3,359.2,74,328.5L74,328.5L74,328.5z M305.7,446
	c11.1,0,19.7-2,28.3-5.1c13.9-4.9,27.6-16.3,38.3-29.6c2.8-3.5,5.5-7.3,7.7-10.6c-0.2,3.1-0.2,6.9,0,11.3c0.2,4.3,9.6,53,12.6,68.5
	L301,449c0,0-10.3-3.4-22.3-7.5c-12.2-3.4-26.1-8.4-38.8-13.4c-3.5-1.3-7.3-2.9-11-4.4c-13.5-5.5-24.5-10.5-28.8-12.7
	c0,0,14.4,6.7,28.8,12.7c3.5,1.5,7.2,2.9,11,4.4c1.8,0.7,3.5,1.3,5.1,1.9c7.1,2.5,21.3,7.3,33.7,11.5c9.1,2.6,17.3,4.3,23.3,4.5
	C303.3,446,304.5,446,305.7,446L305.7,446L305.7,446z M551.3,459.7L579,437l14.5-10.7c1.5,1.5,3.9,3.8,6.5,5.6
	c3.3,2.3,5.9,3.6,8.5,4.2c-3.2,0.2-6.3,0.6-8.9,1.2c-10.2,2.1-24.5,7.9-29.8,10.4c-1,0.5-2.6,1.3-4.4,2.3
	C565.1,450,558.1,454.4,551.3,459.7L546,464C547.7,462.5,549.5,461.1,551.3,459.7L551.3,459.7z M436.2,526.9c3.2,0,7.7-0.5,14.2-1.9
	c19-4.3,40.9-15,48.5-19.5c5.3-3.1,41-36.9,47-41.5c0,0-19.4,19.9-25.5,26.8c-8,8.9-30.8,36.3-30.8,36.3l-55.3,4.2l-0.6-4.5
	C434.5,526.8,435.3,526.9,436.2,526.9L436.2,526.9L436.2,526.9z"/>
<g id="Start_Line">
	<polygon points="773.8,413.8 757.3,427.1 752.2,431.2 751.5,431.8 726.7,452.4 726.3,452.7 722.2,447.7 722.5,447.5 747.4,426.9 
		748.4,426.1 753.2,422.2 769.7,408.8 	"/>
	<polygon points="776.4,436.7 759.5,435 759.9,430.8 772.7,432.1 774,419.4 778.1,419.8 	"/>
	<polygon points="787.2,449.9 770.3,448.2 770.7,444 783.5,445.3 784.8,432.6 788.9,433 	"/>
	<polygon points="798,463.1 781.1,461.4 781.5,457.2 794.2,458.5 795.5,445.8 799.7,446.2 	"/>
</g>
<path class="st3" d="M959,675.3l-1.6-2l7-5.7l1.6,2L959,675.3L959,675.3z M955.5,671l-1.9-2.3l7-5.7l1.9,2.3L955.5,671L955.5,671z
	 M951.7,666.3l-1.9-2.3l7-5.7l1.9,2.3L951.7,666.3z M947.9,661.7l-1.9-2.3l7-5.7l1.9,2.3L947.9,661.7L947.9,661.7z M944.2,657
	l-1.9-2.3l7-5.7l1.9,2.3L944.2,657z M940.4,652.3l-1.9-2.3l7-5.7l1.9,2.3L940.4,652.3z M936.6,647.7l-1.9-2.3l7-5.7l1.9,2.3
	L936.6,647.7z M932.8,643l-1.9-2.3l7-5.7l1.9,2.3L932.8,643z M929,638.4l-1.9-2.3l7-5.7l1.9,2.3L929,638.4L929,638.4z M925.3,633.7
	l-1.9-2.3l7-5.7l1.9,2.3L925.3,633.7L925.3,633.7z M921.5,629l-1.9-2.3l7-5.7l1.9,2.3L921.5,629z M917.7,624.4l-1.9-2.3l7-5.7
	l1.9,2.3L917.7,624.4z M913.9,619.7l-1.9-2.3l7-5.7l1.9,2.3L913.9,619.7z M910.1,615.1l-1.9-2.3l7-5.7l1.9,2.3L910.1,615.1z
	 M906.3,610.4l-1.9-2.3l7-5.7l1.9,2.3L906.3,610.4z M902.5,605.8l-1.9-2.3l7-5.7l1.9,2.3L902.5,605.8z M898.7,601.1l-1.9-2.3l7-5.7
	l1.9,2.3L898.7,601.1z M894.9,596.5l-1.9-2.3l7-5.7l1.9,2.3L894.9,596.5L894.9,596.5z M891.1,591.9l-1.9-2.3l7-5.7l1.9,2.3
	L891.1,591.9z M887.3,587.2l-1.9-2.3l7-5.7l1.9,2.3L887.3,587.2z M883.5,582.6l-1.9-2.3l7-5.7l1.9,2.3L883.5,582.6z M879.7,577.9
	l-1.9-2.3l7-5.7l1.9,2.3L879.7,577.9z M875.9,573.3L874,571l7-5.7l1.9,2.3L875.9,573.3L875.9,573.3z M872.1,568.6l-1.9-2.3l7-5.7
	l1.9,2.3L872.1,568.6z M868.3,564l-1.9-2.3l7-5.7l1.9,2.3L868.3,564z M864.5,559.4l-1.9-2.3l7-5.7l1.9,2.3L864.5,559.4z
	 M860.7,554.7l-1.9-2.3l7-5.7l1.9,2.3L860.7,554.7z M856.9,550.1l-1.9-2.3l7-5.7l1.9,2.3L856.9,550.1L856.9,550.1z M853.1,545.4
	l-1.9-2.3l7-5.7l1.9,2.3L853.1,545.4z M849.3,540.8l-1.9-2.3l7-5.7l1.9,2.3L849.3,540.8L849.3,540.8z M845.4,536.2l-1.9-2.3l7-5.7
	l1.9,2.3L845.4,536.2L845.4,536.2z M841.6,531.5l-1.9-2.3l7-5.7l1.9,2.3L841.6,531.5L841.6,531.5z M837.8,526.9l-1.9-2.3l7-5.7
	l1.9,2.3L837.8,526.9L837.8,526.9z M834,522.2l-1.9-2.3l7-5.7l1.9,2.3L834,522.2z M830.2,517.6l-1.9-2.3l7-5.7l1.9,2.3L830.2,517.6z
	 M826.4,513l-1.9-2.3l7-5.7l1.9,2.3L826.4,513z M822.6,508.3l-1.9-2.3l7-5.7l1.9,2.3L822.6,508.3L822.6,508.3z M818.8,503.7
	l-1.9-2.3l7-5.7l1.9,2.3L818.8,503.7z M814.9,499l-1.9-2.3l6.9-5.7l1.9,2.3L814.9,499L814.9,499z M811.1,494.4l-1.9-2.3l3.4-2.9
	l3.5-2.9l-3.5,2.9l3.5-2.8l1.9,2.3L811.1,494.4z M807.3,489.8l-1.9-2.3l6.9-5.7l1.9,2.3L807.3,489.8z M803.5,485.1l-1.9-2.3l6.9-5.7
	l1.9,2.3L803.5,485.1L803.5,485.1z M799.7,480.5l-1.9-2.3l6.9-5.7l1.9,2.3L799.7,480.5z M795.8,475.9l-1.9-2.3l6.9-5.7l1.9,2.3
	L795.8,475.9L795.8,475.9z"/>
<path d="M435.9,514.3c-5.8,0-9-1.2-9.6-1.4L237.7,445c-0.5-0.2-40.3-16.1-53.6-22.2c-20.4-9.4-41.7-21.2-63.2-35.1
	c-16.3-10.5-45-32.9-54.8-42.8c-10.3-10.3-14.3-17.9-18-28.2c-5.5-15.3,0.4-27.2,17.1-34.5c15.9-7,26.7-7.2,42.1-5.1
	c15.9,2.1,22.3,15.3,22.6,15.9l0.1,0.1c0.1,0.3,13.2,33.5,25.9,61.2c10,21.6,25.2,38.9,45.2,51.1c10.8,6.6,38.8,17,59.6,23.8
	c14.6,4.8,41.3,0.9,52-1.1c34.1-6.1,41.6-18.7,52-36c1.2-2,2.4-4,3.6-6c2.6-4.2,5.3-8.9,7.8-13.5c10.7-18.9,21.7-38.5,34.9-33.5
	c2.6,1,4.3,2.7,5.2,5c2.8,7.3-3.8,19.6-9.5,30.5c-2.5,4.6-4.8,9-5.9,12.1c-5.7,16.2-2.5,32.3-2.4,32.4c0,0.2,6.3,27.4,11.5,56.6
	c0.2,1.2,0.6,3.7,1,6.1c0.4,2.3,0.8,4.7,1,5.8l-3.9,0.7c-0.2-1.2-0.6-3.5-1-5.9c-0.4-2.4-0.8-4.8-1-6c-5.2-29-11.4-56.1-11.5-56.4
	c-0.1-0.7-3.5-17.3,2.6-34.6c1.2-3.4,3.6-7.9,6.1-12.7c5.1-9.6,11.4-21.6,9.3-27.2c-0.5-1.3-1.4-2.1-2.9-2.7
	c-10-3.7-20.2,14.3-30,31.7c-2.6,4.6-5.3,9.3-7.9,13.6c-1.3,2-2.5,4-3.6,6c-10.5,17.6-18.8,31.5-54.7,37.9c-11.1,2-38.5,6-54,0.9
	c-7.6-2.5-46.1-15.4-60.4-24.2c-20.7-12.7-36.4-30.5-46.8-52.9c-12.5-27.1-25.3-59.5-26-61.3c-0.5-1-6.1-11.8-19.5-13.6
	c-15-2-24.8-1.8-39.9,4.9C52,292.3,47.1,302,51.9,315.3c3.6,10,7.2,16.9,17,26.8c9.7,9.7,38,31.8,54.2,42.2
	c21.4,13.8,42.5,25.5,62.8,34.9c13.2,6.1,52.9,21.9,53.3,22.1l188.6,67.9c0.1,0,13.6,5.4,39.3-7.9c1.2-0.6,2.4-1.2,3.6-1.9
	c13.5-6.9,27.4-14,57-40.9c4.6-4.2,50.8-45,52.5-46.5c0.8-0.7,8.4-8,16.6-7.1c4.2,0.5,7.7,3,10.5,7.5c2.4,3.9,5,6.1,7.8,6.5
	c5.1,0.8,10.7-4.3,15.6-8.7c0.7-0.6,1.4-1.2,2-1.8c8.6-7.5,17-12.5,30.3-12.5c11.6,0,28.8,2.1,45.1,12.3c9.3,5.8,17.1,15,17.5,15.4
	l-3.1,2.6c-0.1-0.1-7.7-9.1-16.5-14.6C690.4,402.1,674,400,663,400c-12.1,0-19.6,4.4-27.7,11.5c-0.7,0.6-1.3,1.2-2,1.8
	c-5.3,4.8-11.9,10.7-18.9,9.7c-4-0.6-7.6-3.4-10.7-8.4c-2.1-3.4-4.6-5.3-7.5-5.6c-6.5-0.8-13.3,5.9-13.3,6l-0.1,0.1
	c-0.5,0.4-47.9,42.3-52.5,46.5c-30,27.2-44.8,34.8-57.8,41.5c-1.2,0.6-2.4,1.2-3.6,1.8C454.1,512.5,443,514.3,435.9,514.3
	L435.9,514.3z"/>
<path d="M919,767c-13,0-22.8-5.7-27.8-16.1c-2.9-6-21-33.3-30.7-47.9c-4.4-6.7-6.8-10.2-7.2-10.9c-5-8.6-9.6-13-22.6-15
	c-2.3-0.4-5.1-0.6-8-0.9c-11-1-24.6-2.3-32.2-10.8c-8.7-9.7-14.8-37.6-16.5-46c-2.4-12-17-22.2-33.2-23.4c-1.5-0.1-3-0.2-4.6-0.3
	c-16.7-1-37.5-2.2-50.9-24.7c-7.9-13.2-1.2-30.3,2.9-40.5c0.8-2.1,1.5-3.8,1.9-5.2l0.1-0.4c3.4-11.2,8.1-26.5,2.5-38.6
	c-5.8-12.5-43.9-31-66.8-32.3c-24-1.4-47.6,6.4-64.5,21.5c-17.7,15.7-36.6,37.6-36.8,37.8L498,543.9l-60,5.5
	c-1.1,0.2-7.8,1.4-13.5-2.4c-3.9-2.6-6.4-6.8-7.4-12.6c-0.2-1.3-0.6-3.2-1-5.1c-0.5-2.4-1.1-5.1-1.5-7.4l3.9-0.7
	c0.4,2.2,0.9,4.7,1.4,7.2c0.4,2,0.8,3.8,1.1,5.2c0.8,4.6,2.7,8,5.7,10c4.7,3.1,10.5,1.9,10.6,1.8l0.3,0l58.5-5.3l25.5-29.4
	c0.2-0.2,19.3-22.3,37.2-38.2c17.8-15.8,42.3-24,67.5-22.5c24.5,1.4,63.8,20.9,70.2,34.7c6.2,13.5,1.3,29.7-2.3,41.5l-0.1,0.4
	c-0.4,1.5-1.2,3.3-2,5.5c-3.8,9.5-10.1,25.5-3.2,36.9c12.4,20.6,31.2,21.8,47.8,22.7c1.6,0.1,3.2,0.2,4.7,0.3
	c17.9,1.3,34.1,13,36.8,26.6c3.3,16.7,9.2,37,15.5,44c6.5,7.3,19.3,8.5,29.6,9.4c3,0.3,5.7,0.5,8.2,0.9c14.4,2.2,20,7.7,25.4,17
	c0.4,0.7,3.3,5.1,7.1,10.7c10.5,15.8,28,42.1,31,48.4C900.3,760.6,911,763,919,763c21.7,0,27-21.4,31-45.3c1.8-11-8.5-24.3-8.6-24.4
	l-193-239l3.1-2.5l193,239c0.5,0.6,11.5,14.9,9.4,27.6C949.9,742.9,943.8,767,919,767L919,767z"/>
<circle class="st4" cx="468" cy="503" r="10"/>
</svg>
