<?xml version="1.0" encoding="UTF-8"?><svg id="Yas_Marina_Detailed" xmlns="http://www.w3.org/2000/svg" viewBox="0 0 1000 1000"><defs><style>.cls-1{fill:none;stroke-width:3px;}.cls-1,.cls-2{stroke:#000;stroke-miterlimit:10;}.cls-3,.cls-4{fill:#fff;}.cls-5{fill:#fae44a;}.cls-6{fill:#db4a25;}.cls-7,.cls-2{fill:#1bce20;}.cls-8{fill:#75e5fd;}.cls-4{font-size:12.58px;}.cls-2{stroke-width:2px;}</style></defs><g id="Legend"><circle cx="101.67" cy="212.8" r="13"/><g><path d="M126.17,211.97v-2.36h8.94v2.36h-8.94Zm0,4.02v-2.38h8.94v2.38h-8.94Z"/><path d="M147.66,219.14h-3.47v-10.02h-3.14v-2.84h9.75v2.84h-3.13v10.02Z"/><path d="M163.56,206.28v7.74c0,1.08-.21,2.02-.62,2.81-.41,.79-1.03,1.41-1.85,1.84-.82,.43-1.85,.65-3.09,.65-1.77,0-3.12-.45-4.06-1.36-.93-.91-1.4-2.19-1.4-3.85v-7.82h3.49v7.55c0,.91,.17,1.57,.51,1.98,.34,.41,.84,.62,1.5,.62,.47,0,.86-.09,1.16-.27s.52-.46,.66-.85c.14-.39,.21-.89,.21-1.5v-7.53h3.47Z"/><path d="M170.48,206.28c1.17,0,2.14,.14,2.91,.43,.77,.28,1.36,.71,1.75,1.27,.39,.56,.58,1.26,.58,2.1,0,.52-.09,1-.26,1.43s-.43,.81-.75,1.15c-.33,.34-.71,.63-1.17,.88l3.75,5.6h-3.94l-2.73-4.68h-.88v4.68h-3.47v-12.86h4.21Zm-.05,2.63h-.69v2.94h.65c.53,0,.97-.12,1.31-.35,.34-.23,.51-.65,.51-1.26,0-.42-.14-.74-.42-.98s-.74-.35-1.36-.35Z"/><path d="M190.7,219.14h-4.56l-4.7-9.06h-.08c.03,.28,.06,.61,.08,.99s.04,.78,.06,1.18,.03,.76,.03,1.09v5.8h-3.08v-12.86h4.54l4.68,8.94h.05c-.02-.28-.04-.61-.05-.98-.02-.37-.03-.75-.05-1.13-.01-.38-.02-.72-.02-1.01v-5.81h3.1v12.86Z"/><path d="M210.41,219.14h-4.56l-4.7-9.06h-.08c.03,.28,.06,.61,.08,.99s.04,.78,.06,1.18,.03,.76,.03,1.09v5.8h-3.08v-12.86h4.54l4.68,8.94h.05c-.02-.28-.04-.61-.05-.98-.02-.37-.03-.75-.05-1.13-.01-.38-.02-.72-.02-1.01v-5.81h3.1v12.86Z"/><path d="M224.12,206.28v7.74c0,1.08-.21,2.02-.62,2.81-.41,.79-1.03,1.41-1.85,1.84-.82,.43-1.85,.65-3.09,.65-1.77,0-3.12-.45-4.06-1.36-.93-.91-1.4-2.19-1.4-3.85v-7.82h3.49v7.55c0,.91,.17,1.57,.51,1.98,.34,.41,.84,.62,1.5,.62,.47,0,.86-.09,1.16-.27s.52-.46,.66-.85c.14-.39,.21-.89,.21-1.5v-7.53h3.47Z"/><path d="M232.42,219.14l-2.63-9.26h-.08c.02,.24,.05,.57,.07,.98,.03,.41,.05,.85,.08,1.33s.04,.93,.04,1.37v5.59h-3.08v-12.86h4.63l2.68,9.13h.07l2.63-9.13h4.64v12.86h-3.19v-5.64c0-.4,0-.84,.02-1.31s.03-.91,.05-1.32c.02-.41,.04-.74,.06-.98h-.08l-2.59,9.25h-3.31Z"/><path d="M244.24,206.28h4.49c1.86,0,3.18,.28,3.98,.83,.79,.55,1.19,1.34,1.19,2.38,0,.56-.1,1.04-.3,1.43-.2,.39-.46,.7-.77,.93-.31,.23-.62,.38-.95,.47v.09c.35,.09,.7,.23,1.05,.44s.64,.5,.87,.91c.23,.4,.35,.95,.35,1.63,0,.78-.2,1.45-.59,2.01-.4,.56-.96,1-1.69,1.3-.73,.3-1.6,.45-2.61,.45h-5.01v-12.86Zm3.47,4.93h1.05c.58,0,.98-.12,1.21-.36,.23-.24,.35-.53,.35-.87s-.13-.62-.4-.8c-.27-.19-.68-.28-1.24-.28h-.98v2.3Zm0,2.54v2.7h1.22c.6,0,1.03-.13,1.27-.39,.24-.26,.36-.59,.36-.98,0-.23-.05-.44-.15-.65-.1-.2-.28-.37-.52-.49s-.59-.19-1.02-.19h-1.15Z"/><path d="M264.01,219.14h-7.64v-12.86h7.64v2.79h-4.16v2.02h3.85v2.79h-3.85v2.43h4.16v2.83Z"/><path d="M270.48,206.28c1.17,0,2.14,.14,2.91,.43,.77,.28,1.36,.71,1.75,1.27,.39,.56,.58,1.26,.58,2.1,0,.52-.09,1-.26,1.43s-.43,.81-.75,1.15c-.33,.34-.71,.63-1.17,.88l3.75,5.6h-3.94l-2.73-4.68h-.88v4.68h-3.47v-12.86h4.21Zm-.05,2.63h-.69v2.94h.65c.53,0,.97-.12,1.31-.35,.34-.23,.51-.65,.51-1.26,0-.42-.14-.74-.42-.98s-.74-.35-1.36-.35Z"/><path d="M286.87,215.23c0,.7-.18,1.36-.53,1.98s-.9,1.13-1.64,1.52c-.74,.39-1.7,.58-2.87,.58-.59,0-1.1-.03-1.54-.08-.44-.05-.85-.14-1.24-.26-.38-.12-.78-.28-1.19-.47v-3.1c.7,.35,1.4,.62,2.11,.8,.71,.18,1.35,.28,1.93,.28,.35,0,.63-.04,.85-.12,.22-.08,.38-.19,.49-.34,.11-.14,.16-.31,.16-.5,0-.22-.08-.41-.23-.57s-.4-.32-.74-.49c-.34-.17-.79-.38-1.35-.63-.47-.22-.9-.45-1.29-.69-.38-.23-.71-.5-.99-.81-.27-.3-.48-.66-.63-1.06-.15-.4-.22-.88-.22-1.43,0-.83,.2-1.52,.61-2.08,.41-.56,.98-.98,1.71-1.26,.73-.28,1.57-.42,2.53-.42,.84,0,1.59,.09,2.26,.28,.67,.19,1.27,.4,1.81,.64l-1.06,2.68c-.55-.25-1.09-.45-1.63-.6-.53-.15-1.03-.22-1.49-.22-.3,0-.54,.04-.73,.11-.19,.07-.33,.17-.42,.29s-.14,.26-.14,.42c0,.2,.08,.38,.23,.54,.16,.16,.42,.33,.78,.51,.37,.19,.87,.42,1.5,.72,.63,.28,1.16,.58,1.6,.91,.44,.33,.78,.72,1.01,1.17,.23,.45,.35,1.02,.35,1.68Z"/></g><g><circle class="cls-7" cx="101.67" cy="132.8" r="13"/><path d="M101.67,146.8c-7.72,0-14-6.28-14-14s6.28-14,14-14,14,6.28,14,14-6.28,14-14,14Zm0-26c-6.62,0-12,5.38-12,12s5.38,12,12,12,12-5.38,12-12-5.38-12-12-12Z"/></g><g><path d="M126.17,131.97v-2.36h8.94v2.36h-8.94Zm0,4.02v-2.38h8.94v2.38h-8.94Z"/><path d="M152.9,132.44c0,1.5-.28,2.74-.84,3.73-.56,.99-1.34,1.73-2.35,2.23-1.01,.5-2.2,.74-3.57,.74h-4.16v-12.86h4.45c1.38,0,2.56,.24,3.52,.71s1.69,1.17,2.2,2.08c.5,.92,.75,2.04,.75,3.36Zm-3.61,.12c0-.78-.1-1.43-.31-1.94s-.52-.9-.94-1.15c-.42-.25-.94-.38-1.57-.38h-1.01v7.2h.77c1.06,0,1.83-.31,2.32-.92,.49-.61,.74-1.55,.74-2.81Z"/><path d="M159.42,126.28c1.17,0,2.14,.14,2.91,.43,.77,.28,1.36,.71,1.75,1.27,.39,.56,.58,1.26,.58,2.1,0,.52-.09,1-.26,1.43s-.43,.81-.75,1.15c-.33,.34-.71,.63-1.17,.88l3.75,5.6h-3.94l-2.73-4.68h-.88v4.68h-3.47v-12.86h4.21Zm-.05,2.63h-.69v2.94h.65c.53,0,.97-.12,1.31-.35,.34-.23,.51-.65,.51-1.26,0-.42-.14-.74-.42-.98s-.74-.35-1.36-.35Z"/><path d="M175.81,135.23c0,.7-.18,1.36-.53,1.98s-.9,1.13-1.64,1.52c-.74,.39-1.7,.58-2.87,.58-.59,0-1.1-.03-1.54-.08-.44-.05-.85-.14-1.24-.26-.38-.12-.78-.28-1.19-.47v-3.1c.7,.35,1.4,.62,2.11,.8,.71,.18,1.35,.28,1.93,.28,.35,0,.63-.04,.85-.12,.22-.08,.38-.19,.49-.34,.11-.14,.16-.31,.16-.5,0-.22-.08-.41-.23-.57s-.4-.32-.74-.49c-.34-.17-.79-.38-1.35-.63-.47-.22-.9-.45-1.29-.69-.38-.23-.71-.5-.99-.81-.27-.3-.48-.66-.63-1.06-.15-.4-.22-.88-.22-1.43,0-.83,.2-1.52,.61-2.08,.41-.56,.98-.98,1.71-1.26,.73-.28,1.57-.42,2.53-.42,.84,0,1.59,.09,2.26,.28,.67,.19,1.27,.4,1.81,.64l-1.06,2.68c-.55-.25-1.09-.45-1.63-.6-.53-.15-1.03-.22-1.49-.22-.3,0-.54,.04-.73,.11-.19,.07-.33,.17-.42,.29s-.14,.26-.14,.42c0,.2,.08,.38,.23,.54,.16,.16,.42,.33,.78,.51,.37,.19,.87,.42,1.5,.72,.63,.28,1.16,.58,1.6,.91,.44,.33,.78,.72,1.01,1.17,.23,.45,.35,1.02,.35,1.68Z"/><path d="M193.39,132.44c0,1.5-.28,2.74-.84,3.73-.56,.99-1.34,1.73-2.35,2.23-1.01,.5-2.2,.74-3.57,.74h-4.16v-12.86h4.45c1.38,0,2.56,.24,3.52,.71s1.69,1.17,2.2,2.08c.5,.92,.75,2.04,.75,3.36Zm-3.61,.12c0-.78-.1-1.43-.31-1.94s-.52-.9-.94-1.15c-.42-.25-.94-.38-1.57-.38h-1.01v7.2h.77c1.06,0,1.83-.31,2.32-.92,.49-.61,.74-1.55,.74-2.81Z"/><path d="M203.33,139.14h-7.64v-12.86h7.64v2.79h-4.16v2.02h3.85v2.79h-3.85v2.43h4.16v2.83Z"/><path d="M211.26,139.14h-3.47v-10.02h-3.14v-2.84h9.75v2.84h-3.13v10.02Z"/><path d="M223.87,139.14h-7.64v-12.86h7.64v2.79h-4.16v2.02h3.85v2.79h-3.85v2.43h4.16v2.83Z"/><path d="M231.84,128.94c-.41,0-.78,.09-1.1,.26s-.6,.42-.83,.75c-.23,.33-.4,.73-.52,1.2-.12,.47-.18,1.01-.18,1.61,0,.81,.1,1.49,.31,2.04,.21,.55,.52,.97,.94,1.25,.42,.28,.95,.42,1.58,.42,.58,0,1.13-.08,1.66-.24,.53-.16,1.07-.35,1.61-.57v2.94c-.57,.25-1.15,.43-1.75,.55-.59,.11-1.23,.17-1.9,.17-1.4,0-2.54-.28-3.43-.83-.89-.55-1.54-1.32-1.96-2.31-.42-.99-.63-2.13-.63-3.43,0-.97,.14-1.86,.41-2.67,.27-.81,.67-1.51,1.2-2.11,.53-.6,1.18-1.06,1.96-1.38,.78-.33,1.67-.49,2.67-.49,.62,0,1.28,.07,1.97,.22,.69,.14,1.36,.37,2.02,.69l-1.06,2.74c-.47-.22-.94-.41-1.42-.56-.48-.15-.99-.23-1.53-.23Z"/><path d="M243.48,139.14h-3.47v-10.02h-3.14v-2.84h9.75v2.84h-3.13v10.02Z"/><path d="M248.45,139.14v-12.86h3.49v12.86h-3.49Z"/><path d="M266.76,132.69c0,.99-.12,1.89-.36,2.7-.24,.81-.61,1.51-1.11,2.1-.5,.59-1.15,1.04-1.94,1.35-.79,.31-1.74,.47-2.84,.47s-2.01-.16-2.8-.47c-.79-.31-1.44-.76-1.95-1.35-.51-.58-.89-1.28-1.13-2.1-.25-.81-.37-1.72-.37-2.73,0-1.34,.22-2.5,.66-3.49,.44-.99,1.13-1.75,2.05-2.3s2.11-.81,3.55-.81,2.66,.27,3.58,.82,1.59,1.31,2.02,2.3c.43,.99,.64,2.15,.64,3.49Zm-8.85,0c0,.77,.09,1.44,.26,2s.46,.99,.84,1.28c.38,.3,.88,.45,1.5,.45s1.15-.15,1.53-.45c.38-.3,.65-.73,.82-1.28s.25-1.22,.25-2c0-1.16-.19-2.08-.58-2.75s-1.05-1.01-2-1.01c-.63,0-1.13,.15-1.52,.46-.38,.31-.66,.74-.83,1.3s-.26,1.23-.26,2.01Z"/><path d="M281.32,139.14h-4.56l-4.7-9.06h-.08c.03,.28,.06,.61,.08,.99s.04,.78,.06,1.18,.03,.76,.03,1.09v5.8h-3.08v-12.86h4.54l4.68,8.94h.05c-.02-.28-.04-.61-.05-.98-.02-.37-.03-.75-.05-1.13-.01-.38-.02-.72-.02-1.01v-5.81h3.1v12.86Z"/><path d="M297.95,139.14h-10.02v-2.15l5.57-7.91h-5.44v-2.81h9.75v2.14l-5.57,7.92h5.71v2.81Z"/><path d="M311.82,132.69c0,.99-.12,1.89-.36,2.7-.24,.81-.61,1.51-1.11,2.1-.5,.59-1.15,1.04-1.94,1.35-.79,.31-1.74,.47-2.84,.47s-2.01-.16-2.8-.47c-.79-.31-1.44-.76-1.95-1.35-.51-.58-.89-1.28-1.13-2.1-.25-.81-.37-1.72-.37-2.73,0-1.34,.22-2.5,.66-3.49,.44-.99,1.13-1.75,2.05-2.3s2.11-.81,3.55-.81,2.66,.27,3.58,.82,1.59,1.31,2.02,2.3c.43,.99,.64,2.15,.64,3.49Zm-8.85,0c0,.77,.09,1.44,.26,2s.46,.99,.84,1.28c.38,.3,.88,.45,1.5,.45s1.15-.15,1.53-.45c.38-.3,.65-.73,.82-1.28s.25-1.22,.25-2c0-1.16-.19-2.08-.58-2.75s-1.05-1.01-2-1.01c-.63,0-1.13,.15-1.52,.46-.38,.31-.66,.74-.83,1.3s-.26,1.23-.26,2.01Z"/><path d="M326.39,139.14h-4.56l-4.7-9.06h-.08c.03,.28,.06,.61,.08,.99s.04,.78,.06,1.18,.03,.76,.03,1.09v5.8h-3.08v-12.86h4.54l4.68,8.94h.05c-.02-.28-.04-.61-.05-.98-.02-.37-.03-.75-.05-1.13-.01-.38-.02-.72-.02-1.01v-5.81h3.1v12.86Z"/><path d="M336.8,139.14h-7.64v-12.86h7.64v2.79h-4.16v2.02h3.85v2.79h-3.85v2.43h4.16v2.83Z"/></g><g><path d="M126.17,170.97v-2.36h8.94v2.36h-8.94Zm0,4.02v-2.38h8.94v2.38h-8.94Z"/><path d="M152.9,171.44c0,1.5-.28,2.74-.84,3.73-.56,.99-1.34,1.73-2.35,2.23-1.01,.5-2.2,.74-3.57,.74h-4.16v-12.86h4.45c1.38,0,2.56,.24,3.52,.71s1.69,1.17,2.2,2.08c.5,.92,.75,2.04,.75,3.36Zm-3.61,.12c0-.78-.1-1.43-.31-1.94s-.52-.9-.94-1.15c-.42-.25-.94-.38-1.57-.38h-1.01v7.2h.77c1.06,0,1.83-.31,2.32-.92,.49-.61,.74-1.55,.74-2.81Z"/><path d="M159.42,165.28c1.17,0,2.14,.14,2.91,.43,.77,.28,1.36,.71,1.75,1.27,.39,.56,.58,1.26,.58,2.1,0,.52-.09,1-.26,1.43s-.43,.81-.75,1.15c-.33,.34-.71,.63-1.17,.88l3.75,5.6h-3.94l-2.73-4.68h-.88v4.68h-3.47v-12.86h4.21Zm-.05,2.63h-.69v2.94h.65c.53,0,.97-.12,1.31-.35,.34-.23,.51-.65,.51-1.26,0-.42-.14-.74-.42-.98s-.74-.35-1.36-.35Z"/><path d="M175.81,174.23c0,.7-.18,1.36-.53,1.98s-.9,1.13-1.64,1.52c-.74,.39-1.7,.58-2.87,.58-.59,0-1.1-.03-1.54-.08-.44-.05-.85-.14-1.24-.26-.38-.12-.78-.28-1.19-.47v-3.1c.7,.35,1.4,.62,2.11,.8,.71,.18,1.35,.28,1.93,.28,.35,0,.63-.04,.85-.12,.22-.08,.38-.19,.49-.34,.11-.14,.16-.31,.16-.5,0-.22-.08-.41-.23-.57s-.4-.32-.74-.49c-.34-.17-.79-.38-1.35-.63-.47-.22-.9-.45-1.29-.69-.38-.23-.71-.5-.99-.81-.27-.3-.48-.66-.63-1.06-.15-.4-.22-.88-.22-1.43,0-.83,.2-1.52,.61-2.08,.41-.56,.98-.98,1.71-1.26,.73-.28,1.57-.42,2.53-.42,.84,0,1.59,.09,2.26,.28,.67,.19,1.27,.4,1.81,.64l-1.06,2.68c-.55-.25-1.09-.45-1.63-.6-.53-.15-1.03-.22-1.49-.22-.3,0-.54,.04-.73,.11-.19,.07-.33,.17-.42,.29s-.14,.26-.14,.42c0,.2,.08,.38,.23,.54,.16,.16,.42,.33,.78,.51,.37,.19,.87,.42,1.5,.72,.63,.28,1.16,.58,1.6,.91,.44,.33,.78,.72,1.01,1.17,.23,.45,.35,1.02,.35,1.68Z"/><path d="M191.64,178.14h-10.02v-2.15l5.57-7.91h-5.44v-2.81h9.75v2.14l-5.57,7.92h5.71v2.81Z"/><path d="M205.52,171.69c0,.99-.12,1.89-.36,2.7-.24,.81-.61,1.51-1.11,2.1-.5,.59-1.15,1.04-1.94,1.35-.79,.31-1.74,.47-2.84,.47s-2.01-.16-2.8-.47c-.79-.31-1.44-.76-1.95-1.35-.51-.58-.89-1.28-1.13-2.1-.25-.81-.37-1.72-.37-2.73,0-1.34,.22-2.5,.66-3.49,.44-.99,1.13-1.75,2.05-2.3s2.11-.81,3.55-.81,2.66,.27,3.58,.82,1.59,1.31,2.02,2.3c.43,.99,.64,2.15,.64,3.49Zm-8.85,0c0,.77,.09,1.44,.26,2s.46,.99,.84,1.28c.38,.3,.88,.45,1.5,.45s1.15-.15,1.53-.45c.38-.3,.65-.73,.82-1.28s.25-1.22,.25-2c0-1.16-.19-2.08-.58-2.75s-1.05-1.01-2-1.01c-.63,0-1.13,.15-1.52,.46-.38,.31-.66,.74-.83,1.3s-.26,1.23-.26,2.01Z"/><path d="M220.08,178.14h-4.56l-4.7-9.06h-.08c.03,.28,.06,.61,.08,.99s.04,.78,.06,1.18,.03,.76,.03,1.09v5.8h-3.08v-12.86h4.54l4.68,8.94h.05c-.02-.28-.04-.61-.05-.98-.02-.37-.03-.75-.05-1.13-.01-.38-.02-.72-.02-1.01v-5.81h3.1v12.86Z"/><path d="M230.5,178.14h-7.64v-12.86h7.64v2.79h-4.16v2.02h3.85v2.79h-3.85v2.43h4.16v2.83Z"/><path d="M241.16,174.23c0,.7-.18,1.36-.53,1.98s-.9,1.13-1.64,1.52c-.74,.39-1.7,.58-2.87,.58-.59,0-1.1-.03-1.54-.08-.44-.05-.85-.14-1.24-.26-.38-.12-.78-.28-1.19-.47v-3.1c.7,.35,1.4,.62,2.11,.8,.71,.18,1.35,.28,1.93,.28,.35,0,.63-.04,.85-.12,.22-.08,.38-.19,.49-.34,.11-.14,.16-.31,.16-.5,0-.22-.08-.41-.23-.57s-.4-.32-.74-.49c-.34-.17-.79-.38-1.35-.63-.47-.22-.9-.45-1.29-.69-.38-.23-.71-.5-.99-.81-.27-.3-.48-.66-.63-1.06-.15-.4-.22-.88-.22-1.43,0-.83,.2-1.52,.61-2.08,.41-.56,.98-.98,1.71-1.26,.73-.28,1.57-.42,2.53-.42,.84,0,1.59,.09,2.26,.28,.67,.19,1.27,.4,1.81,.64l-1.06,2.68c-.55-.25-1.09-.45-1.63-.6-.53-.15-1.03-.22-1.49-.22-.3,0-.54,.04-.73,.11-.19,.07-.33,.17-.42,.29s-.14,.26-.14,.42c0,.2,.08,.38,.23,.54,.16,.16,.42,.33,.78,.51,.37,.19,.87,.42,1.5,.72,.63,.28,1.16,.58,1.6,.91,.44,.33,.78,.72,1.01,1.17,.23,.45,.35,1.02,.35,1.68Z"/></g><path class="cls-7" d="M114.67,183.8h-2.5v-23h2.5v23Zm-5.5,0h-3v-23h3v23Zm-6,0h-3v-23h3v23Zm-6,0h-3v-23h3v23Zm-6,0h-3v-23h3v23Z"/><g><path class="cls-3" d="M101.14,211.58c0,.84-.07,1.59-.2,2.26s-.35,1.23-.64,1.69-.68,.82-1.17,1.06c-.48,.24-1.08,.37-1.78,.37-.88,0-1.59-.21-2.15-.64-.56-.43-.97-1.04-1.24-1.84-.26-.8-.4-1.76-.4-2.89s.12-2.1,.36-2.91c.24-.81,.64-1.42,1.19-1.85,.55-.43,1.3-.65,2.23-.65,.88,0,1.59,.21,2.15,.64,.56,.43,.97,1.04,1.24,1.85,.27,.81,.4,1.78,.4,2.92Zm-4.75,0c0,.68,.02,1.26,.08,1.72,.05,.46,.15,.81,.29,1.04,.14,.23,.34,.35,.61,.35s.46-.12,.6-.35,.23-.58,.29-1.04,.08-1.04,.08-1.72-.03-1.27-.08-1.74-.15-.81-.29-1.05-.34-.35-.6-.35-.46,.12-.61,.35c-.14,.24-.24,.59-.29,1.05-.05,.46-.08,1.04-.08,1.74Z"/><path class="cls-3" d="M108.41,216.8h-2.88v-5.71c0-.26,0-.54,.01-.85,0-.31,.02-.59,.03-.84-.12,.15-.24,.27-.35,.38-.11,.11-.21,.2-.31,.29l-1.19,.98-1.47-1.81,3.6-2.93h2.55v10.48Z"/></g></g><path class="cls-1" d="M972.44,603.48c-11.56,14.51-78.31,15.45-128.68,13.97-32.28-.94-57.83-2.88-57.83-2.88l.12-.39c-13.49-.7-25.51-1.51-32.54-2.4-19.33-2.45-47.14-15.74-62.07-22.89-2.95-1.41-5.5-2.62-7.25-3.41-10.1-4.52-14.21-6.03-26.58-5.13-10.16,.74-20.23,6.22-26.29,14.28-5.16,6.89-12.26,22.03-16.96,32.06-1.89,4.03-3.53,7.51-4.72,9.83-.51,.98-.94,1.85-1.34,2.64-3.33,6.59-4.64,8.75-12.78,14.57-7.18,5.13-9.37,5.87-17.52,8.16-12.83,3.62-88.78,9.64-107.2,7.77-6.2-.63-12.64-3.9-20.27-10.31-8.66-7.28-9.68-19.86-9.76-21.26l-.02-.36v-205.75h32.45s0,.92,0,.92c-.03,131.59-.13,199.44-.29,201.66-.09,1.24,.08,2.87,.81,3.7,.67,.77,2.06,1.02,3.09,1.09,7.26,.49,81.92-5.94,91.06-7.51,6.92-1.2,9.77-3.26,13.55-7.45,1.43-1.59,4.01-7.85,6.28-13.39,4.49-10.96,10.09-24.6,18.44-35.43,12.64-16.41,33.18-26.23,56.35-26.96,15.47-.48,26.75,4.81,35.8,9.06,2.29,1.07,4.44,2.09,6.41,2.87,2.54,1.01,6.23,2.68,10.91,4.81,12.61,5.72,33.74,15.29,43.79,16.44,7.18,.83,20.66,1.47,36.01,1.97l.02-.08s3.75,.14,9.89,.37c12.99,.36,26.6,.62,38.44,.81,8.44,.13,15.99,.22,21.78,.29,.04,0,.08,0,.12,.01,7.36,.18,36.03,.87,56.31,.98,9.82-.42,20.77-.48,20.77-.48l-10.8-5.53s.07,.05,.11,.08l-37.84-19.32c.06,0,.11-.01,.17-.01l-16.92-8.67-111.91-56.3-228.26-116.73-120.65-60.73c-.03,4.06-.02,8.08,.1,9.67,.49,6.82-7.18,20.61-21.16,22.66-5.18,.76-8.73,.76-12.5,.74-5.71,0-12.82-.03-29.91,2.65-28.11,4.41-48.17,14.78-60.05,22.7-5.24,3.49-50.62,43.04-79.91,68.83-2.58,2.46-58.11,55.83-75.93,76.74-4.14,4.87-26.71,40.31-26.71,40.31-.1,.12-10.85,12.6-20.64,27.57-3.93,6.01-6.84,11.06-8.99,15.29-7.04,13.81-5.97,18.73-5.95,18.79,1.55,6.18,6.95,9.58,11.21,11.35,8.23,3.41,16.23,2.5,19.04,.81,7.11-4.27,9.72-6,12.54-11.01,4.24-7.53,8.03-21.51,11.92-44,4.6-26.57,15.03-51.93,19.94-62.93,1.64-3.66,3.83-7.04,6.48-10.04l20.77-23.47c.38-.41,8.11-8.94,14.58-14.58,6.44-5.62,14.24-6.5,15.11-6.58l.28-.03c1.89-.08,46.61-2.09,67.4,.17,8.12,.89,11.39,8.87,11.03,15.99l.26,46.23,32.43,4.44c1.56,.23,3.05-.72,3.53-2.21l2.94-9.08c.12-.38,.18-.77,.19-1.17,.62-46.73,1.29-103.29,1.08-108.94-.27-8.24,1.42-15.22,5.49-22.64,3.65-6.62,12.64-10.35,28.95-17.12,2.33-.96,4.8-1.98,7.42-3.09,1.39-.58,2.82-1.19,4.3-1.81,19.69-8.34,46.63-19.73,66.49-19.73h1.31c10.11,.03,17.42,.04,26.43,10.06,8.23,9.15,7.49,19.48,7.1,22.27v40.99h-32.46v-36.44l-.07-5.68h-6.39c-3.75,0-7.41,.69-10.89,2.07l-61.44,24.17-.28,.08c-1.66,.49-3.73,1.51-4.48,2.19-.25,.88-.46,2.99-.42,4.64v.16l-.67,108.03c-.03,4.33-.71,8.63-2.04,12.76-3.08,9.61-7.19,21.97-9.24,26.21-3.6,7.4-11.58,8.22-12.47,8.29l-.65,.05-62.01-9.23c-.64-.18-6.43-1.92-11.71-8.15-3.87-4.58-3.93-10.37-3.89-11.71v-41.57c-14.11,.16-38.27,.46-42.31,.77-1.56,.13-4.31,2.61-5.8,4.78l-.4,.51-21.87,25.32,.06,.06s.04-.04,.13-.12c-5.18,5.68-16.47,25.69-22.67,61.54-9.36,54.07-18.76,64.52-39.54,76.99-6.72,4.03-15.16,6.06-24.06,6.06-7.83,0-16.02-1.57-23.68-4.75-15.4-6.38-26.34-18.46-30.01-33.15-2.85-11.41,.11-25.23,9.31-42.72,2.78-5.3,6.14-10.93,10.08-16.94,8.93-13.6,18.27-25.04,21.69-29.11,12.54-19.16,23.38-35.33,26.65-39.13,8.72-10.14,50.18-52.41,51.93-54.2l.17-.16c3.74-3.53,91.7-86.35,110.01-97.87,17.3-10.91,41.3-21.05,61.12-25.87,18.15-4.4,39.83-5.47,50.02-5.73,.03-5.31,.12-12.8,.21-17.15,.18-9.38,5.11-13.51,8.38-16.25,1.89-1.58,4.32-2.76,7.42-3.6,7.14-1.94,14.51-1.4,20.22,1.47l166.59,84.85,195.22,98.86c14.07,7.16,114.54,58.29,161.57,83.5l21.17,10.58s6.03,3.99,10.09,10.8c1.12,1.78,1.9,3.55,2.43,5.26,2.24,6.71,1.83,15.17-5.79,24.73Z"/><path class="cls-6" d="M843.76,584.86v32.59c-32.28-.94-57.83-2.88-57.83-2.88l.12-.39c-13.49-.7-25.51-1.51-32.54-2.4-19.33-2.45-47.14-15.74-62.07-22.89-2.95-1.41-5.5-2.62-7.25-3.41-10.1-4.52-14.21-6.03-26.58-5.13-10.16,.74-20.23,6.22-26.29,14.28-5.16,6.89-12.26,22.03-16.96,32.06-1.89,4.03-3.53,7.51-4.72,9.83-.51,.98-.94,1.85-1.34,2.64-3.33,6.59-4.64,8.75-12.78,14.57-7.18,5.13-9.37,5.87-17.52,8.16-12.83,3.62-88.78,9.64-107.2,7.77-6.2-.63-12.64-3.9-20.27-10.31-8.66-7.28-9.68-19.86-9.76-21.26l-.02-.36v-205.67l.02-.08h32.43s0,.92,0,.92c-.03,131.59-.13,199.44-.29,201.66-.09,1.24,.08,2.87,.81,3.7,.67,.77,2.06,1.02,3.09,1.09,7.26,.49,81.92-5.94,91.06-7.51,6.92-1.2,9.77-3.26,13.55-7.45,1.43-1.59,4.01-7.85,6.28-13.39,4.49-10.96,10.09-24.6,18.44-35.43,12.64-16.41,33.18-26.23,56.35-26.96,15.47-.48,26.75,4.81,35.8,9.06,2.29,1.07,4.44,2.09,6.41,2.87,2.54,1.01,6.23,2.68,10.91,4.81,12.61,5.72,33.74,15.29,43.79,16.44,7.18,.83,20.66,1.47,36.01,1.97l.02-.08s3.75,.14,9.89,.37c12.99,.36,26.6,.62,38.44,.81Z"/><path class="cls-8" d="M972.44,603.48c-11.56,14.51-78.31,15.45-128.68,13.97v-32.59c8.44,.13,15.99,.22,21.78,.29,.04,0,.08,0,.12,.01,7.36,.18,36.03,.87,56.31,.98,9.82-.42,20.77-.48,20.77-.48l-10.8-5.53s.07,.05,.11,.08l-37.84-19.32c.06,0,.11-.01,.17-.01l-16.92-8.67-111.91-56.3-228.26-116.73-120.65-60.73c-.03,4.06-.02,8.08,.1,9.67,.49,6.82-7.18,20.61-21.16,22.66-5.18,.76-8.73,.76-12.5,.74-5.71,0-12.82-.03-29.91,2.65-28.11,4.41-48.17,14.78-60.05,22.7-5.24,3.49-50.62,43.04-79.91,68.83-2.58,2.46-58.11,55.83-75.93,76.74-4.14,4.87-26.71,40.31-26.71,40.31-.1,.12-10.85,12.6-20.64,27.57-3.93,6.01-6.84,11.06-8.99,15.29l-27.68-16.17c2.78-5.3,6.14-10.93,10.08-16.94,8.93-13.6,18.27-25.04,21.69-29.11,12.54-19.16,23.38-35.33,26.65-39.13,8.72-10.14,50.18-52.41,51.93-54.2l.17-.16c3.74-3.53,91.7-86.35,110.01-97.87,17.3-10.91,41.3-21.05,61.12-25.87,18.15-4.4,39.83-5.47,50.02-5.73,.03-5.31,.12-12.8,.21-17.15,.18-9.38,5.11-13.51,8.38-16.25,1.89-1.58,4.32-2.76,7.42-3.6,7.14-1.94,14.51-1.4,20.22,1.47l166.59,84.85,195.22,98.86c14.07,7.16,114.54,58.29,161.57,83.5l21.17,10.58s6.03,3.99,10.09,10.8c1.12,1.78,1.9,3.55,2.43,5.26,2.24,6.71,1.83,15.17-5.79,24.73Z"/><path class="cls-5" d="M473.21,377.29v40.99h-32.46v-36.44l-.07-5.68h-6.39c-3.75,0-7.41,.69-10.89,2.07l-61.44,24.17-.28,.08c-1.66,.49-3.73,1.51-4.48,2.19-.25,.88-.46,2.99-.42,4.64v.16l-.67,108.03c-.03,4.33-.71,8.63-2.04,12.76-3.08,9.61-7.19,21.97-9.24,26.21-3.6,7.4-11.58,8.22-12.47,8.29l-.65,.05-62.01-9.23c-.64-.18-6.43-1.92-11.71-8.15-3.87-4.58-3.93-10.37-3.89-11.71v-41.57c-14.11,.16-38.27,.46-42.31,.77-1.56,.13-4.31,2.61-5.8,4.78l-.4,.51-21.87,25.32,.06,.06s.04-.04,.13-.12c-5.18,5.68-16.47,25.69-22.67,61.54-9.36,54.07-18.76,64.52-39.54,76.99-6.72,4.03-15.16,6.06-24.06,6.06-7.83,0-16.02-1.57-23.68-4.75-15.4-6.38-26.34-18.46-30.01-33.15-2.85-11.41,.11-25.23,9.31-42.72l27.68,16.17c-7.04,13.81-5.97,18.73-5.95,18.79,1.55,6.18,6.95,9.58,11.21,11.35,8.23,3.41,16.23,2.5,19.04,.81,7.11-4.27,9.72-6,12.54-11.01,4.24-7.53,8.03-21.51,11.92-44,4.6-26.57,15.03-51.93,19.94-62.93,1.64-3.66,3.83-7.04,6.48-10.04l20.77-23.47c.38-.41,8.11-8.94,14.58-14.58,6.44-5.62,14.24-6.5,15.11-6.58l.28-.03c1.89-.08,46.61-2.09,67.4,.17,8.12,.89,11.39,8.87,11.03,15.99l.26,46.23,32.43,4.44c1.56,.23,3.05-.72,3.53-2.21l2.94-9.08c.12-.38,.18-.77,.19-1.17,.62-46.73,1.29-103.29,1.08-108.94-.27-8.24,1.42-15.22,5.49-22.64,3.65-6.62,12.64-10.35,28.95-17.12,2.33-.96,4.8-1.98,7.42-3.09,1.39-.58,2.82-1.19,4.3-1.81,19.69-8.34,46.63-19.73,66.49-19.73h1.31c10.11,.03,17.42,.04,26.43,10.06,8.23,9.15,7.49,19.48,7.1,22.27Z"/><path d="M957.61,579.08c-28.74-19.83-157.86-86.43-159.17-87.11l-228.01-116-137.92-68.96c-2.58-1.71-22.06-14.29-30.5-9.5-2.71,1.53-3.97,4.52-3.75,8.88,.19,3.67,.7,6.93,1.15,9.82,.86,5.48,1.48,9.45-.72,12.21-3.12,3.91-12.4,6.12-31.03,7.39-2.74,.19-5.29,.41-7.59,.65-7.11,.71-13.61,1.71-19.88,3.05-6.56,1.4-11.51,2.87-15.12,3.95-2,.6-3.59,1.07-4.86,1.36-4.86,1.1-6.83,1.86-8.56,2.52l-.13,.05c-5.81,2.19-23.48,8.87-59.75,40.79-49.47,43.53-116.4,110.4-117.07,111.07l-.1,.1c-.24,.29-24.34,29.49-50.08,67.11-26.55,38.8-27.23,50.17-25.24,63.08,1.05,6.85,5.68,13.83,12.37,18.68,8.55,6.18,19.68,8.51,31.36,6.57,17.93-2.99,29.26-17.19,33.12-25.1,1.19-2.45,2.1-5.13,2.72-7.97,.52-2.44,1.25-6.24,2.17-11.06,3.96-20.71,11.32-59.27,19.04-72.6l.64-1.1c10.73-18.54,20-34.56,40.03-51.5,12.34-10.45,56.39-4.72,56.83-4.66l.24,.03,.24-.05s3.05-.48,5.92,2.12c3.27,2.96,6.85,10.27,5.31,28.28-1.32,15.29-.04,25.23,3.8,29.55,1.7,1.9,3.56,2.35,4.81,2.39l1.17,.04c2.22,.07,4.52,.14,6.73,.42l33.74,4.21c.75,.15,9.09,2,14.51-1.94,6.23-4.54,7.01-14.42,8.22-27.4,2.93-31.23,1.09-75.32,1.01-77.15l.76-27.4c.1-3.5,.07-6.97-.08-10.31-.12-2.31,1.24-10.49,23.35-18.88l58.07-22.03c.13-.05,12.54-5.37,21.2,.3,5.77,3.77,8.7,11.62,8.7,23.33v33.5h3v-33.5c0-12.79-3.38-21.48-10.06-25.84-3.6-2.36-7.64-3.12-11.37-3.12-6.64,0-12.28,2.42-12.6,2.56l-58,22c-22.51,8.54-25.51,17.34-25.29,21.82,.15,3.27,.18,6.66,.08,10.09l-.76,27.45v.11c.02,.45,1.96,45.26-.99,76.79-1.12,11.86-1.55,21.23-6.95,25.21-4.61,3.39-12.05,1.5-12.23,1.47l-33.93-4.25c-2.36-.3-4.73-.37-7.02-.44l-1.16-.04c-.98-.03-1.87-.5-2.66-1.38-2.25-2.53-4.61-9.32-3.07-27.3,1.33-15.45-.78-25.8-6.27-30.76-3.49-3.16-7.19-3-8.22-2.88-3.73-.49-45.93-5.67-58.97,5.36-20.43,17.29-29.82,33.51-40.69,52.3l-.64,1.1c-7.97,13.77-15.4,52.65-19.39,73.54-.91,4.79-1.64,8.58-2.16,10.98-.56,2.61-1.39,5.06-2.48,7.29-3.61,7.4-14.18,20.67-30.92,23.46-10.87,1.81-21.21-.33-29.1-6.04-6.06-4.39-10.23-10.63-11.17-16.71-1.93-12.57-1.23-22.94,24.76-60.92,25.13-36.74,48.69-65.41,49.87-66.84,2.18-2.17,68.07-67.93,116.88-110.88,35.86-31.56,53.15-38.1,58.84-40.25l.13-.05c1.72-.66,3.5-1.34,8.15-2.4,1.38-.31,3-.79,5.06-1.41,3.56-1.06,8.44-2.52,14.88-3.88,6.17-1.32,12.56-2.3,19.57-3.01,2.26-.24,4.78-.45,7.48-.63,20.07-1.37,29.37-3.76,33.17-8.52,3.03-3.79,2.29-8.54,1.34-14.55-.44-2.81-.94-5.99-1.11-9.51-.16-3.17,.57-5.17,2.23-6.11,5.88-3.34,21.8,5.68,27.44,9.44l.08,.05,138.07,69.04,227.99,115.99c1.3,.67,130.25,67.19,158.84,86.9,5.16,3.56,7.63,6.66,6.96,8.74-1.89,5.91-24.98,7.77-39.09,7.53h-.12c-.37,.03-37.33,2.5-79.89,2.3-3.47-.02-6.97-.05-10.51-.1-6.78-.1-13.49-.28-19.94-.52-47.21-1.82-78.41-7.36-92.76-16.45-39.54-25.07-65.12-19.92-67.96-19.24-2.98-.05-29.8,.43-44.24,37.97-13.97,36.33-31.54,42.63-32.9,43.06-3.27,.37-63.74,7.05-89.81,8.98-25.03,1.86-26.35-12.01-26.39-12.54l-1-34.96v-174.5h-3v174.54l1,35.05c.02,.22,.39,5.38,5.38,9.73,4.46,3.89,11.04,5.85,19.59,5.85,1.49,0,3.03-.05,4.64-.17,26.72-1.98,89.43-8.94,90.06-9.01l.21-.04c.81-.21,19.92-5.65,35.02-44.91,14.39-37.41,40.39-36.12,41.49-36.04h.26s.24-.05,.24-.05c8.82-2.34,33.91-1.41,65.81,18.82,14.79,9.38,46.5,15.06,94.24,16.91,6.48,.24,13.22,.42,20.02,.52,3.54,.05,7.06,.08,10.53,.1,41.81,.18,78.3-2.18,80.05-2.3,6.61,.11,38.82,.1,41.93-9.61,1.15-3.6-1.5-7.56-8.12-12.12Z"/><g><circle class="cls-2" cx="350.26" cy="338.81" r="10"/><circle class="cls-2" cx="823.26" cy="600.81" r="10"/><path class="cls-7" d="M788.1,462l-2.67-1.37,4.11-8.01,2.67,1.37-4.11,8.01Zm-5.34-2.74l-2.67-1.37,4.11-8.01,2.67,1.37-4.11,8.01Zm-5.33-2.74l-2.67-1.37,4.11-8.01,2.66,1.36-4.11,8.01Zm-5.33-2.73l-2.66-1.37,4.11-8.01,2.67,1.37-4.11,8.01Zm-5.33-2.73l-2.66-1.37,4.11-8.01,2.66,1.37-4.11,8.01Zm-5.33-2.73l-2.66-1.36,4.1-8.01,2.67,1.37-4.12,8Zm-5.32-2.73l-2.66-1.36,4.1-8.01,2.67,1.37-4.11,8.01Zm-5.33-2.73l-2.66-1.36,4.1-8.01,2.67,1.37-4.11,8.01Zm-5.32-2.73l-2.65-1.36,4.1-8.01,2.66,1.36-4.1,8.01Zm-5.32-2.72l-2.66-1.36,4.1-8.01,2.67,1.36-4.1,8.01Zm-5.32-2.72l-2.67-1.36,4.1-8.01,2.66,1.36-4.09,8.02Zm-5.33-2.73l-2.67-1.36,4.09-8.02,2.67,1.36-4.1,8.01Zm-5.33-2.72l-2.67-1.36,4.09-8.02,2.67,1.36-4.09,8.02Zm-5.33-2.72l-2.67-1.36,4.09-8.02,2.67,1.36-4.08,8.02Zm-5.34-2.72l-2.67-1.36,4.08-8.02,2.67,1.36-4.09,8.02Zm-5.34-2.72l-2.67-1.36,4.08-8.02,2.67,1.36-4.09,8.02Zm-5.34-2.72l-2.67-1.36,4.08-8.02,2.67,1.36-4.09,8.02Zm-5.34-2.72l-2.66-1.36,4.08-8.02,2.67,1.36-4.09,8.02Zm-5.33-2.72l-2.67-1.36,4.08-8.02,2.67,1.36-4.08,8.02Zm-5.34-2.72l-2.67-1.36,4.08-8.02,2.67,1.36-4.08,8.02Zm-5.33-2.71l-2.68-1.36,4.08-8.02,2.67,1.35-4.07,8.03Zm-5.35-2.72l-2.67-1.36,4.08-8.02,2.67,1.36-4.08,8.02Zm-5.34-2.72l-2.67-1.36,4.07-8.03,2.67,1.36-4.07,8.03Zm-5.35-2.72l-2.67-1.36,4.08-8.02,2.68,1.36-4.09,8.02Zm-5.34-2.71l-2.67-1.36,4.08-8.02,2.67,1.36-4.08,8.02Zm-5.34-2.71l-2.67-1.36,4.08-8.02,2.67,1.36-4.07,8.03Zm-5.35-2.72l-2.67-1.36,4.08-8.02,2.67,1.36-4.07,8.03Zm-5.35-2.72l-2.67-1.36,4.07-8.03,2.67,1.36-4.08,8.02Zm-5.34-2.71l-2.67-1.36,4.07-8.03,2.67,1.36-4.07,8.03Zm-5.35-2.72l-2.67-1.36,4.07-8.03,2.68,1.36-4.08,8.02Zm-5.35-2.72l-2.67-1.36,4.07-8.03,2.68,1.36-4.08,8.02Zm-5.34-2.71l-2.67-1.36,4.07-8.03,2.68,1.36-4.08,8.02Zm-5.35-2.71l-2.68-1.36,4.08-8.02,2.67,1.36-4.07,8.03Zm-5.35-2.72l-2.68-1.36,4.08-8.02,2.67,1.36-4.07,8.03Zm-5.35-2.71l-2.68-1.36,4.08-8.02,2.67,1.36-4.07,8.03Zm-5.35-2.72l-2.67-1.35,4.07-8.03,2.68,1.36-4.08,8.02Zm-5.35-2.71l-2.67-1.35,4.07-8.03,2.68,1.36-4.08,8.02Zm-5.35-2.71l-2.67-1.36,4.07-8.03,2.68,1.36-4.08,8.02Zm-5.35-2.71l-2.67-1.36,4.07-8.03,2.68,1.36-4.08,8.02Zm-5.34-2.71l-2.67-1.36,4.07-8.03,2.67,1.36-4.07,8.03Zm-5.35-2.71l-2.67-1.36,4.07-8.03,2.68,1.36-4.08,8.02Zm-5.35-2.71l-2.67-1.36,4.07-8.03,2.67,1.36-4.07,8.03Zm-5.35-2.71l-2.68-1.36,4.07-8.03,2.67,1.36-4.07,8.03Zm-5.35-2.71l-2.67-1.36,4.07-8.03,2.67,1.36-4.07,8.03Zm-5.35-2.72l-2.67-1.36,4.07-8.03,2.67,1.36-4.07,8.03Zm-5.35-2.71l-2.68-1.36,4.08-8.02,2.67,1.36-4.07,8.03Zm-5.35-2.71l-2.68-1.36,4.08-8.02,2.59,1.32-1.96,4.05-2.04,4.01Zm-5.35-2.71l-2.68-1.36,4.08-8.02,2.59,1.32-1.96,4.05-2.04,4.01Zm-5.35-2.72l-2.67-1.36,4.07-8.03,2.68,1.36-4.08,8.02Zm-5.35-2.71l-2.67-1.36,4.07-8.03,2.68,1.36-4.08,8.02Zm-5.35-2.71l-2.67-1.36,4.07-8.03,2.68,1.36-4.08,8.02Zm-5.35-2.71l-2.67-1.36,4.07-8.03,2.68,1.36-4.08,8.02Zm-5.35-2.71l-2.67-1.36,4.07-8.03,2.68,1.36-4.08,8.02Zm-5.35-2.71l-2.67-1.36,4.07-8.03,2.68,1.36-4.08,8.02Zm-5.35-2.72l-2.67-1.36,4.07-8.03,2.68,1.36-4.08,8.02Zm-5.35-2.71l-2.67-1.36,4.07-8.03,2.67,1.36-4.07,8.03Zm-5.35-2.72l-2.67-1.36,4.07-8.03,2.68,1.36-4.08,8.02Zm-5.35-2.71l-2.67-1.36,4.07-8.03,2.67,1.36-4.07,8.03Zm-5.35-2.71l-2.67-1.36,4.07-8.03,2.67,1.36-4.07,8.03Zm-5.35-2.71l-2.67-1.36,4.07-8.03,2.67,1.36-4.07,8.03Zm-5.35-2.71l-2.67-1.36,4.07-8.03,2.67,1.36-4.07,8.03Zm-5.35-2.71l-2.67-1.36,4.07-8.03,2.67,1.36-4.07,8.03Zm-5.35-2.71l-2.68-1.36,4.07-8.03,2.6,1.32-1.96,4.05-2.04,4.01Zm-5.35-2.72l-2.67-1.36,4.07-8.03,2.67,1.36-4.07,8.03Zm-5.35-2.71l-2.67-1.36,4.07-8.03,2.67,1.36-4.07,8.03Zm-5.34-2.71l-2.68-1.36,4.07-8.03,2.67,1.35-4.07,8.03Zm-5.35-2.72l-2.67-1.36,4.07-8.03,2.67,1.36-4.07,8.03Z"/><path class="cls-7" d="M33.62,608.81l-7.37-4.85,1.63-2.51,7.36,4.86-1.63,2.5Zm3.25-4.99l-7.36-4.86,1.62-2.49,7.36,4.86-1.62,2.48Zm3.23-4.96l-7.36-4.87,1.61-2.48,7.36,4.86-1.62,2.48Zm3.23-4.96l-7.36-4.87,1.62-2.48,7.35,4.88-1.61,2.47Zm3.23-4.95l-7.36-4.87,1.61-2.48,7.36,4.87-1.61,2.48Zm3.23-4.95l-7.35-4.87,1.62-2.48,7.35,4.88-1.61,2.47Zm3.23-4.94l-7.35-4.88,1.61-2.47,7.35,4.87-1.62,2.47Zm3.23-4.94l-7.35-4.88,1.61-2.47,7.35,4.87-1.62,2.48Zm3.23-4.94l-7.35-4.88,1.62-2.47,7.34,4.89-1.62,2.47Zm3.24-4.94l-7.34-4.89,1.62-2.47,7.34,4.89-1.62,2.46Zm3.24-4.94l-7.34-4.89,1.62-2.47,7.33,4.9-1.61,2.45Zm3.24-4.93l-7.34-4.89,1.63-2.48,7.33,4.9-1.62,2.47Zm3.25-4.94l-7.33-4.9,1.63-2.47,7.33,4.91-1.62,2.46Zm3.25-4.93l-7.33-4.91,1.6-2.43,7.35,4.88-1.63,2.46Zm3.25-4.93l-7.33-4.91,1.63-2.47,7.32,4.92-1.63,2.46Zm3.26-4.92l-7.32-4.92,1.63-2.46,7.32,4.92-1.63,2.46Zm3.26-4.92l-7.31-4.93,1.63-2.46,7.31,4.93-1.63,2.46Zm3.27-4.91l-7.31-4.94,1.64-2.46,7.31,4.94-1.64,2.46Zm3.28-4.91l-7.3-4.95,1.65-2.46,7.29,4.96-1.64,2.45Zm3.29-4.9l-7.28-4.97,1.66-2.46,7.27,4.99-1.65,2.44Zm3.3-4.88l-7.27-5,1.67-2.46,7.25,5.03-1.66,2.43Zm3.32-4.86l-7.24-5.05c.59-.86,1.16-1.68,1.69-2.45l7.21,5.08c-.53,.76-1.08,1.57-1.67,2.42Zm3.35-4.81l-7.17-5.14c.66-.93,1.25-1.76,1.77-2.47l7.09,5.25c-.49,.68-1.06,1.46-1.69,2.36Zm3.23-4.37l-6.54-5.93,3.23,2.92-3.37-2.76,.12-.15c.63-.73,1.28-1.47,1.93-2.21l6.59,5.88c-.62,.71-1.23,1.41-1.83,2.1l-.13,.15Zm3.9-4.43l-6.55-5.92c.65-.73,1.31-1.47,1.98-2.21l6.52,5.95c-.66,.73-1.31,1.46-1.95,2.18Zm3.91-4.35l-6.49-5.99c.66-.73,1.33-1.46,2-2.19l6.47,6.02c-.67,.73-1.32,1.45-1.98,2.16Zm3.96-4.32l-6.44-6.04c.67-.72,1.34-1.44,2.02-2.17l6.42,6.07c-.67,.72-1.34,1.44-1.99,2.15Zm3.99-4.28l-6.39-6.1,2.03-2.15,6.37,6.12-2.01,2.13Zm4.03-4.26l-6.35-6.14,2.05-2.14,6.33,6.16-2.03,2.12Zm4.06-4.23l-6.31-6.18,2.06-2.13,6.3,6.2-2.04,2.11Zm4.09-4.21l-6.28-6.21,2.07-2.12,6.26,6.23-2.05,2.1Zm4.11-4.19l-6.25-6.24,2.08-2.1,6.23,6.26-2.06,2.09Zm4.13-4.17l-6.22-6.27,2.09-2.1,6.2,6.29-2.07,2.08Zm4.15-4.16l-6.19-6.3,2.1-2.09,6.18,6.32-2.08,2.07Zm4.17-4.13l-6.16-6.33,2.1-2.07,6.15,6.34-2.09,2.07Zm4.18-4.12l-6.14-6.35,2.07-2.03,6.16,6.33-2.09,2.05Zm4.19-4.09l-6.11-6.38,2.11-2.05,6.11,6.39-2.1,2.04Zm4.21-4.08l-6.09-6.4,2.13-2.05,6.08,6.41-2.11,2.04Zm4.24-4.08l-6.07-6.42,2.14-2.05,6.06,6.43-2.12,2.03Zm4.26-4.07l-6.05-6.44,2.15-2.04,6.04,6.45-2.14,2.03Zm4.27-4.05l-6.03-6.46,2.14-2.03,6.02,6.47-2.14,2.02Zm4.27-4.03l-6-6.48,2.15-2.02,6,6.49-2.14,2.01Zm4.29-4.02l-5.99-6.5,2.16-2.01,5.98,6.51-2.15,2Zm4.3-4.01l-5.96-6.52,2.17-2.01,5.95,6.53-2.15,2Zm4.31-3.99l-5.94-6.54,2.17-2,5.94,6.55-2.16,1.99Zm4.32-3.98l-5.92-6.56,2.18-1.99,5.92,6.57-2.17,1.98Zm4.34-3.96l-5.9-6.58,2.19-1.99,5.89,6.59-2.17,1.98Zm4.35-3.95l-5.88-6.6,2.2-1.98,5.86,6.61-2.18,1.96Zm4.36-3.93l-5.85-6.62,2.2-1.97,5.84,6.63-2.19,1.96Zm4.38-3.91l-5.83-6.64,2.21-1.96,5.81,6.66-2.19,1.95Zm4.39-3.89l-5.8-6.67,2.21-1.95,5.79,6.68-2.21,1.94Zm4.41-3.87l-5.77-6.7c.75-.66,1.5-1.31,2.23-1.95l5.74,6.72c-.73,.63-1.47,1.28-2.21,1.92Zm4.43-3.85l-5.73-6.73,2.24-1.93,5.71,6.74-2.22,1.91Zm4.44-3.82l-5.69-6.76,2.25-1.92,5.67,6.78-2.23,1.9Zm4.47-3.79l-5.65-6.8c.77-.65,1.52-1.28,2.27-1.9l5.62,6.82c-.74,.62-1.49,1.24-2.24,1.88Zm4.49-3.75l-5.59-6.85c.78-.64,1.54-1.27,2.29-1.89l5.55,6.88c-.74,.6-1.49,1.22-2.25,1.85Zm4.52-3.7l-5.52-6.91c.79-.64,1.57-1.26,2.32-1.87l5.46,6.95c-.74,.59-1.5,1.2-2.27,1.82Zm4.55-3.64l-5.41-6.99c.81-.64,1.6-1.25,2.36-1.84l5.34,7.05c-.74,.57-1.5,1.16-2.29,1.78Zm4.59-3.53l-5.25-7.12c.66-.5,1.3-.97,1.92-1.42l5.17,7.17c-.59,.43-1.2,.89-1.84,1.36Z"/><g id="Start_Line"><polygon points="501.06 428.39 481.23 428.4 475.17 428.4 474.27 428.4 441 428.41 440.54 428.41 440.53 422.4 440.93 422.4 474.2 422.4 475.39 422.39 481.15 422.39 501.05 422.39 501.06 428.39"/><polygon points="500.66 437.37 492.05 445.99 489.44 448.6 478.23 437.39 479.19 436.42 480.98 434.62 489.44 443.07 497.9 434.62 500.66 437.37"/><polygon points="500.71 453.29 489.5 464.5 478.28 453.3 481.04 450.53 489.5 458.99 497.95 450.53 500.71 453.29"/><polygon points="500.77 469.19 489.55 480.41 478.34 469.2 481.09 466.44 489.56 474.89 498 466.43 500.77 469.19"/></g></g><g><g id="_1"><g><path d="M445.35,681.56c-6,0-10.88-4.88-10.88-10.88s4.88-10.88,10.88-10.88,10.88,4.88,10.88,10.88-4.88,10.88-10.88,10.88Z"/><path d="M445.35,660.8c5.46,0,9.88,4.42,9.88,9.88s-4.42,9.88-9.88,9.88-9.88-4.42-9.88-9.88,4.42-9.88,9.88-9.88m0-2c-6.55,0-11.88,5.33-11.88,11.88s5.33,11.88,11.88,11.88,11.88-5.33,11.88-11.88-5.33-11.88-11.88-11.88h0Z"/></g><text class="cls-4" transform="translate(438.25 674.59)"><tspan x="0" y="0">01</tspan></text></g><g id="_1-2"><g><path d="M602.35,675.56c-6,0-10.88-4.88-10.88-10.88s4.88-10.88,10.88-10.88,10.88,4.88,10.88,10.88-4.88,10.88-10.88,10.88Z"/><path d="M602.35,654.8c5.46,0,9.88,4.42,9.88,9.88s-4.42,9.88-9.88,9.88-9.88-4.42-9.88-9.88,4.42-9.88,9.88-9.88m0-2c-6.55,0-11.88,5.33-11.88,11.88s5.33,11.88,11.88,11.88,11.88-5.33,11.88-11.88-5.33-11.88-11.88-11.88h0Z"/></g><text class="cls-4" transform="translate(594.62 668.59)"><tspan x="0" y="0">02</tspan></text></g><g id="_1-3"><g><path d="M661.35,603.56c-6,0-10.88-4.88-10.88-10.88s4.88-10.88,10.88-10.88,10.88,4.88,10.88,10.88-4.88,10.88-10.88,10.88Z"/><path d="M661.35,582.8c5.46,0,9.88,4.42,9.88,9.88s-4.42,9.88-9.88,9.88-9.88-4.42-9.88-9.88,4.42-9.88,9.88-9.88m0-2c-6.55,0-11.88,5.33-11.88,11.88s5.33,11.88,11.88,11.88,11.88-5.33,11.88-11.88-5.33-11.88-11.88-11.88h0Z"/></g><text class="cls-4" transform="translate(653.62 596.59)"><tspan x="0" y="0">03</tspan></text></g><g id="_1-4"><g><path d="M730.35,629.56c-6,0-10.88-4.88-10.88-10.88s4.88-10.88,10.88-10.88,10.88,4.88,10.88,10.88-4.88,10.88-10.88,10.88Z"/><path d="M730.35,608.8c5.46,0,9.88,4.42,9.88,9.88s-4.42,9.88-9.88,9.88-9.88-4.42-9.88-9.88,4.42-9.88,9.88-9.88m0-2c-6.55,0-11.88,5.33-11.88,11.88s5.33,11.88,11.88,11.88,11.88-5.33,11.88-11.88-5.33-11.88-11.88-11.88h0Z"/></g><text class="cls-4" transform="translate(722.62 622.59)"><tspan x="0" y="0">04</tspan></text></g><g id="_1-5"><g><path d="M991.35,595.56c-6,0-10.88-4.88-10.88-10.88s4.88-10.88,10.88-10.88,10.88,4.88,10.88,10.88-4.88,10.88-10.88,10.88Z"/><path d="M991.35,574.8c5.46,0,9.88,4.42,9.88,9.88s-4.42,9.88-9.88,9.88-9.88-4.42-9.88-9.88,4.42-9.88,9.88-9.88m0-2c-6.55,0-11.88,5.33-11.88,11.88s5.33,11.88,11.88,11.88,11.88-5.33,11.88-11.88-5.33-11.88-11.88-11.88h0Z"/></g><text class="cls-4" transform="translate(983.62 588.59)"><tspan x="0" y="0">05</tspan></text></g><g id="_1-6"><g><path d="M404.37,281.66c-6,0-10.88-4.88-10.88-10.88s4.88-10.88,10.88-10.88,10.88,4.88,10.88,10.88-4.88,10.88-10.88,10.88Z"/><path d="M404.37,260.9c5.46,0,9.88,4.42,9.88,9.88s-4.42,9.88-9.88,9.88-9.88-4.42-9.88-9.88,4.42-9.88,9.88-9.88m0-2c-6.55,0-11.88,5.33-11.88,11.88s5.33,11.88,11.88,11.88,11.88-5.33,11.88-11.88-5.33-11.88-11.88-11.88h0Z"/></g><text class="cls-4" transform="translate(396.64 274.69)"><tspan x="0" y="0">06</tspan></text></g><g id="_1-7"><g><path d="M373.37,319.66c-6,0-10.88-4.88-10.88-10.88s4.88-10.88,10.88-10.88,10.88,4.88,10.88,10.88-4.88,10.88-10.88,10.88Z"/><path d="M373.37,298.9c5.46,0,9.88,4.42,9.88,9.88s-4.42,9.88-9.88,9.88-9.88-4.42-9.88-9.88,4.42-9.88,9.88-9.88m0-2c-6.55,0-11.88,5.33-11.88,11.88s5.33,11.88,11.88,11.88,11.88-5.33,11.88-11.88-5.33-11.88-11.88-11.88h0Z"/></g><text class="cls-4" transform="translate(365.64 312.69)"><tspan x="0" y="0">07</tspan></text></g><g id="_1-8"><g><path d="M302.37,334.66c-6,0-10.88-4.88-10.88-10.88s4.88-10.88,10.88-10.88,10.88,4.88,10.88,10.88-4.88,10.88-10.88,10.88Z"/><path d="M302.37,313.9c5.46,0,9.88,4.42,9.88,9.88s-4.42,9.88-9.88,9.88-9.88-4.42-9.88-9.88,4.42-9.88,9.88-9.88m0-2c-6.55,0-11.88,5.33-11.88,11.88s5.33,11.88,11.88,11.88,11.88-5.33,11.88-11.88-5.33-11.88-11.88-11.88h0Z"/></g><text class="cls-4" transform="translate(294.64 327.69)"><tspan x="0" y="0">08</tspan></text></g><g id="_1-9"><g><path d="M74.37,688.66c-6,0-10.88-4.88-10.88-10.88s4.88-10.88,10.88-10.88,10.88,4.88,10.88,10.88-4.88,10.88-10.88,10.88Z"/><path d="M74.37,667.9c5.46,0,9.88,4.42,9.88,9.88s-4.42,9.88-9.88,9.88-9.88-4.42-9.88-9.88,4.42-9.88,9.88-9.88m0-2c-6.55,0-11.88,5.33-11.88,11.88s5.33,11.88,11.88,11.88,11.88-5.33,11.88-11.88-5.33-11.88-11.88-11.88h0Z"/></g><text class="cls-4" transform="translate(66.64 681.69)"><tspan x="0" y="0">09</tspan></text></g><g id="_1-10"><g><path d="M186.37,554.66c-6,0-10.88-4.88-10.88-10.88s4.88-10.88,10.88-10.88,10.88,4.88,10.88,10.88-4.88,10.88-10.88,10.88Z"/><path d="M186.37,533.9c5.46,0,9.88,4.42,9.88,9.88s-4.42,9.88-9.88,9.88-9.88-4.42-9.88-9.88,4.42-9.88,9.88-9.88m0-2c-6.55,0-11.88,5.33-11.88,11.88s5.33,11.88,11.88,11.88,11.88-5.33,11.88-11.88-5.33-11.88-11.88-11.88h0Z"/></g><text class="cls-4" transform="translate(178.64 547.69)"><tspan x="0" y="0">10</tspan></text></g><g id="_1-11"><g><path d="M217.37,517.66c-6,0-10.88-4.88-10.88-10.88s4.88-10.88,10.88-10.88,10.88,4.88,10.88,10.88-4.88,10.88-10.88,10.88Z"/><path d="M217.37,496.9c5.46,0,9.88,4.42,9.88,9.88s-4.42,9.88-9.88,9.88-9.88-4.42-9.88-9.88,4.42-9.88,9.88-9.88m0-2c-6.55,0-11.88,5.33-11.88,11.88s5.33,11.88,11.88,11.88,11.88-5.33,11.88-11.88-5.33-11.88-11.88-11.88h0Z"/></g><text class="cls-4" transform="translate(209.64 510.69)"><tspan x="0" y="0">11</tspan></text></g><g id="_1-12"><g><path d="M291.37,472.66c-6,0-10.88-4.88-10.88-10.88s4.88-10.88,10.88-10.88,10.88,4.88,10.88,10.88-4.88,10.88-10.88,10.88Z"/><path d="M291.37,451.9c5.46,0,9.88,4.42,9.88,9.88s-4.42,9.88-9.88,9.88-9.88-4.42-9.88-9.88,4.42-9.88,9.88-9.88m0-2c-6.55,0-11.88,5.33-11.88,11.88s5.33,11.88,11.88,11.88,11.88-5.33,11.88-11.88-5.33-11.88-11.88-11.88h0Z"/></g><text class="cls-4" transform="translate(283.64 465.69)"><tspan x="0" y="0">13</tspan></text></g><g id="_1-13"><g><path d="M246.37,561.66c-6,0-10.88-4.88-10.88-10.88s4.88-10.88,10.88-10.88,10.88,4.88,10.88,10.88-4.88,10.88-10.88,10.88Z"/><path d="M246.37,540.9c5.46,0,9.88,4.42,9.88,9.88s-4.42,9.88-9.88,9.88-9.88-4.42-9.88-9.88,4.42-9.88,9.88-9.88m0-2c-6.55,0-11.88,5.33-11.88,11.88s5.33,11.88,11.88,11.88,11.88-5.33,11.88-11.88-5.33-11.88-11.88-11.88h0Z"/></g><text class="cls-4" transform="translate(238.64 554.69)"><tspan x="0" y="0">12</tspan></text></g><g id="_1-14"><g><path d="M349.37,579.66c-6,0-10.88-4.88-10.88-10.88s4.88-10.88,10.88-10.88,10.88,4.88,10.88,10.88-4.88,10.88-10.88,10.88Z"/><path d="M349.37,558.9c5.46,0,9.88,4.42,9.88,9.88s-4.42,9.88-9.88,9.88-9.88-4.42-9.88-9.88,4.42-9.88,9.88-9.88m0-2c-6.55,0-11.88,5.33-11.88,11.88s5.33,11.88,11.88,11.88,11.88-5.33,11.88-11.88-5.33-11.88-11.88-11.88h0Z"/></g><text class="cls-4" transform="translate(341.64 572.69)"><tspan x="0" y="0">14</tspan></text></g><g id="_1-15"><g><path d="M368.37,423.66c-6,0-10.88-4.88-10.88-10.88s4.88-10.88,10.88-10.88,10.88,4.88,10.88,10.88-4.88,10.88-10.88,10.88Z"/><path d="M368.37,402.9c5.46,0,9.88,4.42,9.88,9.88s-4.42,9.88-9.88,9.88-9.88-4.42-9.88-9.88,4.42-9.88,9.88-9.88m0-2c-6.55,0-11.88,5.33-11.88,11.88s5.33,11.88,11.88,11.88,11.88-5.33,11.88-11.88-5.33-11.88-11.88-11.88h0Z"/></g><text class="cls-4" transform="translate(360.64 416.69)"><tspan x="0" y="0">15</tspan></text></g><g id="_1-16"><g><path d="M428.37,398.66c-6,0-10.88-4.88-10.88-10.88s4.88-10.88,10.88-10.88,10.88,4.88,10.88,10.88-4.88,10.88-10.88,10.88Z"/><path d="M428.37,377.9c5.46,0,9.88,4.42,9.88,9.88s-4.42,9.88-9.88,9.88-9.88-4.42-9.88-9.88,4.42-9.88,9.88-9.88m0-2c-6.55,0-11.88,5.33-11.88,11.88s5.33,11.88,11.88,11.88,11.88-5.33,11.88-11.88-5.33-11.88-11.88-11.88h0Z"/></g><text class="cls-4" transform="translate(421.27 391.69)"><tspan x="0" y="0">16</tspan></text></g></g></svg>