<?xml version="1.0" encoding="UTF-8"?><svg id="Zandvoort_Simple" xmlns="http://www.w3.org/2000/svg" viewBox="0 0 1000 1000"><defs><style>.cls-1{fill:#fae44a;}.cls-2{fill:#db4a25;}.cls-3,.cls-4{fill:#1bce20;}.cls-5{fill:#75e5fd;}.cls-4{stroke:#000;stroke-miterlimit:10;stroke-width:2px;}</style></defs><g id="Start_Line"><polygon points="826.73 667.61 820.32 653.63 823.75 652.05 828.59 662.58 839.13 657.75 840.71 661.19 826.73 667.61"/><polygon points="833.81 672.23 835.39 675.67 825.68 680.13 821.42 682.08 815 668.11 818.44 666.54 823.28 677.07 824.86 676.35 833.81 672.23"/><polygon points="828.5 686.7 830.08 690.15 828.05 691.08 816.1 696.57 809.7 682.59 813.12 681.01 817.97 691.55 827.22 687.29 828.5 686.7"/></g><polygon points="844.41 648.84 842.92 652.64 842.16 654.62 820.88 646.35 817.99 645.23 816.34 644.58 816.17 644.52 815.85 644.4 814.39 643.83 813.44 643.45 783.93 631.98 783.55 631.82 783.44 631.78 784.92 627.99 785.68 625.98 785.88 626.07 785.95 626.1 786.01 626.12 786.11 626.17 815.61 637.64 816.88 638.14 817.98 638.56 818.13 638.62 818.5 638.76 818.57 638.79 820.32 639.48 823.07 640.53 844.41 648.84"/><path d="M437.25,489c-18.1,3.55-36.06,6.35-53.39,8.32-35.38,4.01-66.84,6.04-93.51,6.04-62.18,0-87.62-10.91-98.02-20.06l-2.02-1.79-1.72-2.09c-11.89-14.53-22.52-40.25-13.32-64.94,8.69-23.37,30.97-38.33,66.21-44.46,33.73-5.87,55.5-10.22,70.57-14.12,4.25-1.09,8.06-2.19,11.33-3.25,5.54-1.81,10.69-4.59,15.37-8.29,4.21-3.34,8.19-6.49,10.05-9.4,.92-1.41,2.09-4.02,1.49-10.25-.29-2.99-3.87-10.75-15.48-20.82-9.99-8.68-23.99-17.21-36.52-22.25l-1.77-.72-1.42-.77c-1.47-.76-36.56-18.48-75.67-18.48-7.25,0-14.27,.61-20.84,1.82-1.7,.31-3.28,1-4.57,2.01-2.1,1.67-6.11,5.79-9.35,14.74-13.78,38.14-51.88,98.7-56.17,105.47l-.81,1.28-.92,1.18c-.11,.14-12.44,16.24-24.43,35.52-11.06,17.79-16.38,29.48-18.9,36.15-1.98,5.27-2.85,10.81-2.58,16.47,1.29,26.84,5.51,39.57,18.04,54.49l1.97,2.35c8.34,9.94,14.98,17.85,20.69,22.73,.39,.67,1.1,1.06,1.52,1.3,2.16,1.16,4.68,1.82,7.3,1.89,6.98,.16,17.77,.86,34.7,1.99h.11c27.14,1.82,64.32,4.3,92.27,4.3,18.65,0,26.02-1.13,28.33-1.62l1.22-.26c15.68-3.32,22.33-4.8,29.75-8.18,4.14-1.89,8.92-4.54,15.25-8.56,6.34-4.01,14.23-9.38,24.61-16.69,35.82-25.23,66.36-34.09,81.39-37.13h.02l-.78-3.92Zm-82.93,37.78c-20.54,14.48-31.17,21.22-39.21,24.88-7.04,3.2-13.56,4.65-28.93,7.91l-1.22,.26c-2.18,.46-9.22,1.53-27.5,1.53-27.81,0-64.92-2.47-92.01-4.28h-.1c-16.99-1.14-27.81-1.85-34.87-2.01-1.83-.05-3.58-.47-5.08-1.2l-.74-.61c-5.55-4.61-12.58-12.98-20.73-22.68l-1.97-2.35c-12.01-14.3-15.85-25.99-17.11-52.12-.24-5.1,.55-10.1,2.34-14.86,2.45-6.5,7.65-17.93,18.54-35.45,12.01-19.3,24.07-35.01,24.2-35.17l.98-1.27,.96-1.5c4.33-6.82,42.64-67.71,56.56-106.26,2.9-8.01,6.3-11.56,8.07-12.96,.77-.6,1.74-1.02,2.81-1.21,6.34-1.17,13.11-1.76,20.12-1.76,38.15,0,72.41,17.3,73.81,18.01l1.47,.8,2.08,.86c12.15,4.9,25.72,13.16,35.4,21.57,11.02,9.56,13.95,16.5,14.11,18.18,.36,3.69,.07,6.27-.86,7.7-1.51,2.36-5.41,5.45-9.22,8.46-4.26,3.38-9,5.94-14.09,7.6-3.18,1.03-6.91,2.1-11.08,3.18-14.97,3.87-36.63,8.2-70.26,14.05-36.74,6.39-60.05,22.21-69.27,47-9.79,26.28,1.41,53.53,13.98,68.88l1.82,2.22,2.37,2.12c10.91,9.61,37.23,21.06,100.66,21.06,26.82,0,58.43-2.04,93.96-6.06,7.2-.82,14.5-1.78,21.87-2.88-14.76,5.85-32.57,14.77-51.86,28.36Zm82.93-37.78c-18.1,3.55-36.06,6.35-53.39,8.32-35.38,4.01-66.84,6.04-93.51,6.04-62.18,0-87.62-10.91-98.02-20.06l-2.02-1.79-1.72-2.09c-11.89-14.53-22.52-40.25-13.32-64.94,8.69-23.37,30.97-38.33,66.21-44.46,33.73-5.87,55.5-10.22,70.57-14.12,4.25-1.09,8.06-2.19,11.33-3.25,5.54-1.81,10.69-4.59,15.37-8.29,4.21-3.34,8.19-6.49,10.05-9.4,.92-1.41,2.09-4.02,1.49-10.25-.29-2.99-3.87-10.75-15.48-20.82-9.99-8.68-23.99-17.21-36.52-22.25l-1.77-.72-1.42-.77c-1.47-.76-36.56-18.48-75.67-18.48-7.25,0-14.27,.61-20.84,1.82-1.7,.31-3.28,1-4.57,2.01-2.1,1.67-6.11,5.79-9.35,14.74-13.78,38.14-51.88,98.7-56.17,105.47l-.81,1.28-.92,1.18c-.11,.14-12.44,16.24-24.43,35.52-11.06,17.79-16.38,29.48-18.9,36.15-1.98,5.27-2.85,10.81-2.58,16.47,1.29,26.84,5.51,39.57,18.04,54.49l1.97,2.35c8.34,9.94,14.98,17.85,20.69,22.73,.39,.67,1.1,1.06,1.52,1.3,2.16,1.16,4.68,1.82,7.3,1.89,6.98,.16,17.77,.86,34.7,1.99h.11c27.14,1.82,64.32,4.3,92.27,4.3,18.65,0,26.02-1.13,28.33-1.62l1.22-.26c15.68-3.32,22.33-4.8,29.75-8.18,4.14-1.89,8.92-4.54,15.25-8.56,6.34-4.01,14.23-9.38,24.61-16.69,35.82-25.23,66.36-34.09,81.39-37.13h.02l-.78-3.92Zm-82.93,37.78c-20.54,14.48-31.17,21.22-39.21,24.88-7.04,3.2-13.56,4.65-28.93,7.91l-1.22,.26c-2.18,.46-9.22,1.53-27.5,1.53-27.81,0-64.92-2.47-92.01-4.28h-.1c-16.99-1.14-27.81-1.85-34.87-2.01-1.83-.05-3.58-.47-5.08-1.2l-.74-.61c-5.55-4.61-12.58-12.98-20.73-22.68l-1.97-2.35c-12.01-14.3-15.85-25.99-17.11-52.12-.24-5.1,.55-10.1,2.34-14.86,2.45-6.5,7.65-17.93,18.54-35.45,12.01-19.3,24.07-35.01,24.2-35.17l.98-1.27,.96-1.5c4.33-6.82,42.64-67.71,56.56-106.26,2.9-8.01,6.3-11.56,8.07-12.96,.77-.6,1.74-1.02,2.81-1.21,6.34-1.17,13.11-1.76,20.12-1.76,38.15,0,72.41,17.3,73.81,18.01l1.47,.8,2.08,.86c12.15,4.9,25.72,13.16,35.4,21.57,11.02,9.56,13.95,16.5,14.11,18.18,.36,3.69,.07,6.27-.86,7.7-1.51,2.36-5.41,5.45-9.22,8.46-4.26,3.38-9,5.94-14.09,7.6-3.18,1.03-6.91,2.1-11.08,3.18-14.97,3.87-36.63,8.2-70.26,14.05-36.74,6.39-60.05,22.21-69.27,47-9.79,26.28,1.41,53.53,13.98,68.88l1.82,2.22,2.37,2.12c10.91,9.61,37.23,21.06,100.66,21.06,26.82,0,58.43-2.04,93.96-6.06,7.2-.82,14.5-1.78,21.87-2.88-14.76,5.85-32.57,14.77-51.86,28.36ZM951.26,154.86c-22.99-31.87-47.94-47.52-64.81-55.03-18.39-8.19-31.2-8.78-31.68-8.8-.18-.01-18.33-1.23-41-1.23-34.55,0-78.56,2.83-92.05,16.31-22.4,22.4-34.74,34.74-25.56,86.77,8.9,50.43,32.77,173.79,33.03,175.13,3.08,12.53,6.46,34.32,2.44,39.44-.46,.6-.96,.85-1.65,.85s-1.87-.25-3.78-1.46c-4.32-2.73-7.46-4.45-9.75-5.7q-7.33-4.02-19.4-23.69l-1.17-1.91c-3.67-7.01-9.6-10.56-17.61-10.56-11.88,0-25.7,8.15-32.89,13.01-5.1,3.45-10.56,6.61-16.22,9.41-37.17,18.3-135.87,62.27-249.25,75.14-34,3.86-64.13,5.82-89.56,5.82-57.95,0-73.42-10.25-74.79-11.25-1.33-1.71-12.58-16.79-7.49-30.44,4.06-10.87,17.32-18.33,39.41-22.17,71.29-12.4,96.74-19.28,108.93-29.44,1.29-1.07,2.66-2.15,4.07-3.27,11.58-9.17,27.42-21.73,24.64-50.45-1.39-14.38-10.85-29.55-27.36-43.88-12.88-11.18-30.18-21.73-46.29-28.25-2.35-1.23-43.92-22.54-92.04-22.54-9.34,0-18.44,.8-27.06,2.37-2.19,.21-27.63,3.35-40.62,39.31-12.57,34.82-51.16,96.01-52.76,98.53-2.8,3.64-51.4,67.24-53.31,101.21-.05,.92-.1,1.84-.14,2.76-.05,1.27-.11,2.55-.19,3.82-2.05,31.23,5.45,53.29,26.75,78.64l1.7,2.03c20.25,24.13,32.47,38.69,53.83,38.69,5.83,0,18.75,.86,35.12,1.95,27.67,1.85,65.56,4.38,94.71,4.38,16.41,0,28.05-.78,35.59-2.38l1.21-.25c32.06-6.8,38.74-8.21,82.53-39.07,41.51-29.25,73.46-32.43,75.83-32.62,3,.27,46.63,4.46,91.52,15.93,26.21,6.68,54.26,8.09,73.18,8.09,16.27,0,27.39-1.03,27.5-1.04l.32-.06c.41-.1,41.79-10.89,67.39-22.21,8.87-3.92,17.7-7.21,26.25-9.77l9.4-2.83c4.79-1.43,9.54-2.27,14.08-2.49,.79-.03,1.62-.06,2.44-.06,6.13,0,10.46,1.22,12.52,3.54,1.24,1.4,1.71,3.25,1.43,5.65-.69,5.8-3.87,11.01-9.46,15.51-5.05,4.06-11.38,6.52-18.31,7.11-9.29,.77-27.25,3.25-43.08,11.08-19.68,9.72-30.08,24.45-30.9,43.78-1.63,37.85-4.65,74.18-6.31,92.47-.74,8.25-2.48,16.28-5.16,23.86-2.99,8.49-8.34,21.72-16.84,36.6-3.46,6.04-6.63,12.52-9.69,19.78l-.48,1.14c-11.35,27.07-19.56,46.63-17.78,67.08,2.05,23.61,19.06,36.86,19.78,37.42l.09,.07c.64,.43,15.85,10.56,36.08,10.56,11.95,0,23.12-3.56,33.19-10.58,26.12-18.21,32.18-37.57,38.04-56.3,1.69-5.43,3.45-11.04,5.67-16.6,9.4-23.48,57.73-139.91,63.79-154.5l-36.17-14.58-.03,.08c-.54,1.29-53.64,129.11-63.8,154.52-2.78,6.97-4.86,13.59-6.69,19.45-5.28,16.88-7.93,25.35-23.11,35.94-3.51,2.43-6.97,3.57-10.89,3.57-5.54,0-10.88-2.27-12.85-3.21-1.54-1.78-3.89-5.12-4.24-9.22-.95-10.87,5.35-25.89,14.9-48.63l.7-1.67c2.19-5.23,4.7-10.34,7.47-15.19,7.92-13.89,14.53-28.28,19.64-42.76,3.75-10.62,6.18-21.83,7.23-33.31,1.69-18.73,4.77-55.88,6.42-94.32,.12-2.7,.26-6.06,9.22-10.49,10.37-5.13,23.79-6.74,29.07-7.19,14.69-1.23,28.34-6.62,39.48-15.57,13.64-10.98,21.86-25.27,23.75-41.34,1.59-13.53-2.33-26.36-11.02-36.13-6.75-7.58-19.45-16.62-41.66-16.62-1.62,0-3.2,.04-4.7,.13-7.6,.4-15.34,1.77-23.03,4.06l-9.4,2.83c-10.07,3.02-20.44,6.87-30.82,11.46-18.98,8.4-49.22,16.84-58.36,19.32-3.79,.25-11.41,.66-21.07,.66-16.69,0-41.27-1.19-63.53-6.88-39.38-10.06-77.38-14.81-91.8-16.39,46.79-10.79,87.43-24.74,114.76-35.21,46.18-17.7,76.34-33.48,81.97-36.49,1.85-.96,3.63-2.13,5.29-3.47l.17-.14c1.56-1.22,3.46-2.53,5.48-3.77,7.53,12.39,14.04,18.49,27.76,26.35l.21,.12c2.3,1.33,4.69,2.7,7.75,4.63,7.87,4.97,16.15,7.49,24.6,7.49,12.69,0,24.48-5.75,32.34-15.78,11.9-15.16,11.12-34.48,8.8-51.37-1.26-9.17-3.09-17.37-3.8-20.39-4.05-20.94-24.64-127.7-32.75-173.66-3.63-20.55-2.54-29.7-.99-33.76,1.37-3.61,4.8-7.55,10.25-13.14,2.68-2.74,6.04-4.66,9.73-5.55,9.2-2.21,27.12-4.85,60.21-4.85,9.06,0,17.4,.21,23.97,.45l15.08,.75c4.18,.51,36.55,5.73,66.8,47.68,12.3,17.03,17.18,38.18,14.5,62.84-2.13,19.72-8.37,34.39-9.05,35.93l-.32,.66-57.46,145.14-80.72,198.97,36.33,14.18,80.59-198.63,56.98-143.95c.63-1.37,8.95-19.74,12.15-45.67,3.01-24.42,1.74-60.25-21.36-92.29Zm17.4,91.67c-3.15,25.79-11.75,44.47-11.84,44.65l-57.04,144.1-80,197.21-28.89-11.24,80.11-197.52,56.96-143.85,.43-1.1,.32-.66c.72-1.66,7.19-16.85,9.39-37.17,2.79-25.68-2.34-47.75-15.23-65.61-23.47-32.55-48.47-43.72-61.32-47.49l4.34-1.01-13.53-.89c-.71-.04-17.76-1.15-38.59-1.15-33.48,0-51.73,2.7-61.14,4.96-4.43,1.07-8.46,3.36-11.66,6.64-5.82,5.97-9.51,10.26-11.12,14.51-2.52,6.6-2.26,18.67,.78,35.89,8.11,45.98,28.71,152.78,32.78,173.8,.71,3.04,2.51,11.09,3.74,20.09,2.21,16.07,3,34.37-7.98,48.36-7.1,9.06-17.74,14.25-29.19,14.25-7.69,0-15.25-2.31-22.47-6.87-3.13-1.98-5.55-3.37-7.89-4.71l-.21-.13c-13.64-7.81-19.77-13.78-27.34-26.64l-1.01-1.71-1.72,1c-2.78,1.61-5.48,3.42-7.64,5.1l-.21,.17c-1.45,1.17-3,2.19-4.61,3.02l-.1,.06c-5.54,2.96-35.5,18.64-81.46,36.25-31.51,12.08-80.82,28.8-136.78,39.9l.76,3.92c5.99-1.15,9.93-1.48,11.33-1.57l2.46-.15,2.47,.22c.47,.04,47.75,4.26,97.24,16.9,22.66,5.78,47.6,7,64.52,7,9.95,0,17.77-.43,21.54-.69l.39-.06c8.97-2.42,39.74-11,59.12-19.57,10.23-4.52,20.44-8.32,30.35-11.29l9.4-2.83c7.38-2.2,14.81-3.51,22.1-3.89,1.43-.09,2.94-.13,4.48-.13,20.72,0,32.47,8.31,38.67,15.28,7.92,8.9,11.49,20.63,10.04,33-1.77,15.01-9.48,28.39-22.29,38.69-10.51,8.45-23.41,13.54-37.31,14.71-5.51,.47-19.52,2.15-30.5,7.59-10.23,5.05-11.26,9.64-11.44,13.9-1.65,38.35-4.73,75.44-6.42,94.13-1.02,11.15-3.37,22.03-7.01,32.34-5.03,14.26-11.54,28.42-19.34,42.11-2.85,4.99-5.44,10.25-7.69,15.63l-.7,1.66c-9.78,23.29-16.23,38.67-15.2,50.53,.48,5.49,3.65,9.77,5.5,11.83l.26,.29,.35,.17c2.31,1.14,8.38,3.79,14.97,3.79,4.78,0,8.96-1.36,13.18-4.29,16.3-11.37,19.44-21.4,24.64-38.03,1.81-5.78,3.86-12.33,6.58-19.16,9.49-23.72,56.49-136.91,63.03-152.65l28.11,10.93,.78,.31c-8.23,19.82-54,130.11-63.13,152.93-2.28,5.7-4.06,11.39-5.78,16.89-5.92,18.91-11.51,36.78-36.51,54.21-9.38,6.54-19.78,9.86-30.9,9.86-18.39,0-32.8-9.2-33.78-9.84-.96-.77-16.34-13.33-18.18-34.56-1.7-19.46,6.35-38.64,17.48-65.18l.48-1.14c2.99-7.11,6.09-13.44,9.47-19.35,8.65-15.13,14.1-28.61,17.14-37.24,2.79-7.9,4.6-16.26,5.38-24.84,1.65-18.32,4.68-54.72,6.31-92.66,.76-17.76,10.41-31.34,28.68-40.37,15.24-7.53,32.63-9.92,41.64-10.68,7.74-.66,14.82-3.41,20.49-7.97,6.43-5.18,10.11-11.29,10.92-18.16,.42-3.55-.39-6.51-2.41-8.78-2.88-3.24-8.1-4.88-15.51-4.88-.87,0-1.75,.03-2.61,.06-4.89,.24-9.96,1.13-15.06,2.66l-9.4,2.82c-8.7,2.62-17.69,5.96-26.71,9.95-24.51,10.84-63.81,21.22-66.63,21.96-1.4,.13-11.95,1.01-26.97,1.01-18.69,0-46.38-1.38-72.19-7.97-46.62-11.9-91.87-16.01-92.32-16.05l-.15-.02h-.15c-1.37,.1-34.07,2.4-78.03,33.37-43.12,30.38-48.91,31.61-81.05,38.42l-1.21,.26c-7.16,1.52-18.85,2.29-34.76,2.29-29.01,0-66.83-2.53-94.45-4.37-16.43-1.09-29.42-1.96-35.38-1.96-19.49,0-31.26-14.03-50.76-37.26l-1.71-2.03c-20.55-24.47-27.79-45.73-25.82-75.81,.08-1.3,.14-2.6,.2-3.9,.04-.91,.08-1.81,.13-2.72,1.86-32.99,52.04-98.4,52.55-99.06l.1-.15c.4-.63,40.27-63.6,53.19-99.39,12.37-34.24,36.27-36.6,37.28-36.69l.2-.02c8.41-1.55,17.31-2.33,26.44-2.33,48.26,0,89.85,21.9,90.26,22.12l.2,.09c15.74,6.36,32.66,16.67,45.25,27.6,10.96,9.51,24.37,24.39,26,41.24,2.57,26.56-11.68,37.86-23.14,46.93-1.44,1.14-2.83,2.25-4.15,3.34-11.42,9.52-37.43,16.46-107.06,28.57-23.6,4.1-37.89,12.42-42.48,24.73-6.17,16.58,7.68,33.78,8.28,34.51l.22,.23c.57,.5,14.73,12.33,77.54,12.33,25.58,0,55.87-1.97,90.01-5.84,114.01-12.94,213.21-57.14,250.57-75.54,5.82-2.87,11.44-6.12,16.69-9.67,6.81-4.61,19.84-12.33,30.65-12.33,6.52,0,11.12,2.77,14.09,8.47l1.28,2.09c12.39,20.19,12.62,20.57,20.89,25.1,2.37,1.3,5.32,2.91,9.54,5.58,2.21,1.4,4.14,2.08,5.91,2.08,1.92,0,3.58-.82,4.8-2.38,6.52-8.32-.84-39.36-1.68-42.77-.24-1.24-24.1-124.57-33-174.97-8.82-49.97,2.3-61.09,24.45-83.24,9.76-9.76,41.45-15.14,89.22-15.14,22.53,0,40.55,1.21,40.78,1.23,.13,0,12.74,.61,30.48,8.54,16.37,7.33,40.58,22.58,62.98,53.63,22.32,30.94,23.55,65.66,20.65,89.33ZM383.86,497.32c-35.38,4.01-66.84,6.04-93.51,6.04-62.18,0-87.62-10.91-98.02-20.06l-2.02-1.79-1.72-2.09c-11.89-14.53-22.52-40.25-13.32-64.94,8.69-23.37,30.97-38.33,66.21-44.46,33.73-5.87,55.5-10.22,70.57-14.12,4.25-1.09,8.06-2.19,11.33-3.25,5.54-1.81,10.69-4.59,15.37-8.29,4.21-3.34,8.19-6.49,10.05-9.4,.92-1.41,2.09-4.02,1.49-10.25-.29-2.99-3.87-10.75-15.48-20.82-9.99-8.68-23.99-17.21-36.52-22.25l-1.77-.72-1.42-.77c-1.47-.76-36.56-18.48-75.67-18.48-7.25,0-14.27,.61-20.84,1.82-1.7,.31-3.28,1-4.57,2.01-2.1,1.67-6.11,5.79-9.35,14.74-13.78,38.14-51.88,98.7-56.17,105.47l-.81,1.28-.92,1.18c-.11,.14-12.44,16.24-24.43,35.52-11.06,17.79-16.38,29.48-18.9,36.15-1.98,5.27-2.85,10.81-2.58,16.47,1.29,26.84,5.51,39.57,18.04,54.49l1.97,2.35c8.34,9.94,14.98,17.85,20.69,22.73,.39,.67,1.1,1.06,1.52,1.3,2.16,1.16,4.68,1.82,7.3,1.89,6.98,.16,17.77,.86,34.7,1.99h.11c27.14,1.82,64.32,4.3,92.27,4.3,18.65,0,26.02-1.13,28.33-1.62l1.22-.26c15.68-3.32,22.33-4.8,29.75-8.18,4.14-1.89,8.92-4.54,15.25-8.56,6.34-4.01,14.23-9.38,24.61-16.69,35.82-25.23,66.36-34.09,81.39-37.13h.02l-.78-3.92c-18.1,3.55-36.06,6.35-53.39,8.32Zm-29.54,29.46c-20.54,14.48-31.17,21.22-39.21,24.88-7.04,3.2-13.56,4.65-28.93,7.91l-1.22,.26c-2.18,.46-9.22,1.53-27.5,1.53-27.81,0-64.92-2.47-92.01-4.28h-.1c-16.99-1.14-27.81-1.85-34.87-2.01-1.83-.05-3.58-.47-5.08-1.2l-.74-.61c-5.55-4.61-12.58-12.98-20.73-22.68l-1.97-2.35c-12.01-14.3-15.85-25.99-17.11-52.12-.24-5.1,.55-10.1,2.34-14.86,2.45-6.5,7.65-17.93,18.54-35.45,12.01-19.3,24.07-35.01,24.2-35.17l.98-1.27,.96-1.5c4.33-6.82,42.64-67.71,56.56-106.26,2.9-8.01,6.3-11.56,8.07-12.96,.77-.6,1.74-1.02,2.81-1.21,6.34-1.17,13.11-1.76,20.12-1.76,38.15,0,72.41,17.3,73.81,18.01l1.47,.8,2.08,.86c12.15,4.9,25.72,13.16,35.4,21.57,11.02,9.56,13.95,16.5,14.11,18.18,.36,3.69,.07,6.27-.86,7.7-1.51,2.36-5.41,5.45-9.22,8.46-4.26,3.38-9,5.94-14.09,7.6-3.18,1.03-6.91,2.1-11.08,3.18-14.97,3.87-36.63,8.2-70.26,14.05-36.74,6.39-60.05,22.21-69.27,47-9.79,26.28,1.41,53.53,13.98,68.88l1.82,2.22,2.37,2.12c10.91,9.61,37.23,21.06,100.66,21.06,26.82,0,58.43-2.04,93.96-6.06,7.2-.82,14.5-1.78,21.87-2.88-14.76,5.85-32.57,14.77-51.86,28.36Zm82.93-37.78c-18.1,3.55-36.06,6.35-53.39,8.32-35.38,4.01-66.84,6.04-93.51,6.04-62.18,0-87.62-10.91-98.02-20.06l-2.02-1.79-1.72-2.09c-11.89-14.53-22.52-40.25-13.32-64.94,8.69-23.37,30.97-38.33,66.21-44.46,33.73-5.87,55.5-10.22,70.57-14.12,4.25-1.09,8.06-2.19,11.33-3.25,5.54-1.81,10.69-4.59,15.37-8.29,4.21-3.34,8.19-6.49,10.05-9.4,.92-1.41,2.09-4.02,1.49-10.25-.29-2.99-3.87-10.75-15.48-20.82-9.99-8.68-23.99-17.21-36.52-22.25l-1.77-.72-1.42-.77c-1.47-.76-36.56-18.48-75.67-18.48-7.25,0-14.27,.61-20.84,1.82-1.7,.31-3.28,1-4.57,2.01-2.1,1.67-6.11,5.79-9.35,14.74-13.78,38.14-51.88,98.7-56.17,105.47l-.81,1.28-.92,1.18c-.11,.14-12.44,16.24-24.43,35.52-11.06,17.79-16.38,29.48-18.9,36.15-1.98,5.27-2.85,10.81-2.58,16.47,1.29,26.84,5.51,39.57,18.04,54.49l1.97,2.35c8.34,9.94,14.98,17.85,20.69,22.73,.39,.67,1.1,1.06,1.52,1.3,2.16,1.16,4.68,1.82,7.3,1.89,6.98,.16,17.77,.86,34.7,1.99h.11c27.14,1.82,64.32,4.3,92.27,4.3,18.65,0,26.02-1.13,28.33-1.62l1.22-.26c15.68-3.32,22.33-4.8,29.75-8.18,4.14-1.89,8.92-4.54,15.25-8.56,6.34-4.01,14.23-9.38,24.61-16.69,35.82-25.23,66.36-34.09,81.39-37.13h.02l-.78-3.92Zm-82.93,37.78c-20.54,14.48-31.17,21.22-39.21,24.88-7.04,3.2-13.56,4.65-28.93,7.91l-1.22,.26c-2.18,.46-9.22,1.53-27.5,1.53-27.81,0-64.92-2.47-92.01-4.28h-.1c-16.99-1.14-27.81-1.85-34.87-2.01-1.83-.05-3.58-.47-5.08-1.2l-.74-.61c-5.55-4.61-12.58-12.98-20.73-22.68l-1.97-2.35c-12.01-14.3-15.85-25.99-17.11-52.12-.24-5.1,.55-10.1,2.34-14.86,2.45-6.5,7.65-17.93,18.54-35.45,12.01-19.3,24.07-35.01,24.2-35.17l.98-1.27,.96-1.5c4.33-6.82,42.64-67.71,56.56-106.26,2.9-8.01,6.3-11.56,8.07-12.96,.77-.6,1.74-1.02,2.81-1.21,6.34-1.17,13.11-1.76,20.12-1.76,38.15,0,72.41,17.3,73.81,18.01l1.47,.8,2.08,.86c12.15,4.9,25.72,13.16,35.4,21.57,11.02,9.56,13.95,16.5,14.11,18.18,.36,3.69,.07,6.27-.86,7.7-1.51,2.36-5.41,5.45-9.22,8.46-4.26,3.38-9,5.94-14.09,7.6-3.18,1.03-6.91,2.1-11.08,3.18-14.97,3.87-36.63,8.2-70.26,14.05-36.74,6.39-60.05,22.21-69.27,47-9.79,26.28,1.41,53.53,13.98,68.88l1.82,2.22,2.37,2.12c10.91,9.61,37.23,21.06,100.66,21.06,26.82,0,58.43-2.04,93.96-6.06,7.2-.82,14.5-1.78,21.87-2.88-14.76,5.85-32.57,14.77-51.86,28.36Zm82.93-37.78c-18.1,3.55-36.06,6.35-53.39,8.32-35.38,4.01-66.84,6.04-93.51,6.04-62.18,0-87.62-10.91-98.02-20.06l-2.02-1.79-1.72-2.09c-11.89-14.53-22.52-40.25-13.32-64.94,8.69-23.37,30.97-38.33,66.21-44.46,33.73-5.87,55.5-10.22,70.57-14.12,4.25-1.09,8.06-2.19,11.33-3.25,5.54-1.81,10.69-4.59,15.37-8.29,4.21-3.34,8.19-6.49,10.05-9.4,.92-1.41,2.09-4.02,1.49-10.25-.29-2.99-3.87-10.75-15.48-20.82-9.99-8.68-23.99-17.21-36.52-22.25l-1.77-.72-1.42-.77c-1.47-.76-36.56-18.48-75.67-18.48-7.25,0-14.27,.61-20.84,1.82-1.7,.31-3.28,1-4.57,2.01-2.1,1.67-6.11,5.79-9.35,14.74-13.78,38.14-51.88,98.7-56.17,105.47l-.81,1.28-.92,1.18c-.11,.14-12.44,16.24-24.43,35.52-11.06,17.79-16.38,29.48-18.9,36.15-1.98,5.27-2.85,10.81-2.58,16.47,1.29,26.84,5.51,39.57,18.04,54.49l1.97,2.35c8.34,9.94,14.98,17.85,20.69,22.73,.39,.67,1.1,1.06,1.52,1.3,2.16,1.16,4.68,1.82,7.3,1.89,6.98,.16,17.77,.86,34.7,1.99h.11c27.14,1.82,64.32,4.3,92.27,4.3,18.65,0,26.02-1.13,28.33-1.62l1.22-.26c15.68-3.32,22.33-4.8,29.75-8.18,4.14-1.89,8.92-4.54,15.25-8.56,6.34-4.01,14.23-9.38,24.61-16.69,35.82-25.23,66.36-34.09,81.39-37.13h.02l-.78-3.92Zm-82.93,37.78c-20.54,14.48-31.17,21.22-39.21,24.88-7.04,3.2-13.56,4.65-28.93,7.91l-1.22,.26c-2.18,.46-9.22,1.53-27.5,1.53-27.81,0-64.92-2.47-92.01-4.28h-.1c-16.99-1.14-27.81-1.85-34.87-2.01-1.83-.05-3.58-.47-5.08-1.2l-.74-.61c-5.55-4.61-12.58-12.98-20.73-22.68l-1.97-2.35c-12.01-14.3-15.85-25.99-17.11-52.12-.24-5.1,.55-10.1,2.34-14.86,2.45-6.5,7.65-17.93,18.54-35.45,12.01-19.3,24.07-35.01,24.2-35.17l.98-1.27,.96-1.5c4.33-6.82,42.64-67.71,56.56-106.26,2.9-8.01,6.3-11.56,8.07-12.96,.77-.6,1.74-1.02,2.81-1.21,6.34-1.17,13.11-1.76,20.12-1.76,38.15,0,72.41,17.3,73.81,18.01l1.47,.8,2.08,.86c12.15,4.9,25.72,13.16,35.4,21.57,11.02,9.56,13.95,16.5,14.11,18.18,.36,3.69,.07,6.27-.86,7.7-1.51,2.36-5.41,5.45-9.22,8.46-4.26,3.38-9,5.94-14.09,7.6-3.18,1.03-6.91,2.1-11.08,3.18-14.97,3.87-36.63,8.2-70.26,14.05-36.74,6.39-60.05,22.21-69.27,47-9.79,26.28,1.41,53.53,13.98,68.88l1.82,2.22,2.37,2.12c10.91,9.61,37.23,21.06,100.66,21.06,26.82,0,58.43-2.04,93.96-6.06,7.2-.82,14.5-1.78,21.87-2.88-14.76,5.85-32.57,14.77-51.86,28.36Z"/><path class="cls-2" d="M672.67,786.41c-9.66,23.01-16.04,38.22-15.05,49.58,.43,4.95,3.35,8.83,5,10.67,3.02,1.49,8.5,3.58,14.09,3.58,4.35,0,8.17-1.25,12.03-3.93,15.74-10.98,18.63-20.22,23.88-36.99,1.82-5.82,3.88-12.41,6.63-19.3,9.58-23.95,57.94-140.42,63.69-154.25l.52-.07,30.46,11.85,1.48,.58-.24,1.31c-5.9,14.2-54.02,130.12-63.41,153.58-10,25-10,49-43,72-11,7.67-22.11,10.22-32.04,10.22-19.85,0-34.96-10.22-34.96-10.22,0,0-17-13-19-36-1.76-20.24,6.55-39.71,18.11-67.27,2.82-6.7,5.97-13.26,9.58-19.57,8.33-14.57,13.72-27.64,16.99-36.92,2.78-7.86,4.52-16.04,5.27-24.35,1.56-17.23,4.66-54.19,6.31-92.56,1.85-43.16,53.54-51.4,72.15-52.96,7.06-.6,13.88-3.1,19.4-7.54,4.8-3.86,9.31-9.39,10.19-16.83,1.1-9.32-7.73-11.43-15.93-11.43-.85,0-1.7,.03-2.52,.06-4.95,.24-9.84,1.16-14.58,2.58l-9.4,2.82c-9.03,2.71-17.86,6.05-26.48,9.86-25.75,11.39-67.09,22.11-67.09,22.11,0,0-10.95,1.03-27.31,1.03-19.63,0-47.06-1.49-72.69-8.03-47-12-92-16-92-16,0,0-33,2-77,33s-50,32-83,39c-6.38,1.35-15.67,2.03-26.67,2.25l2.04-35.06c10.86-.31,15.63-1.06,17.37-1.43l1.22-.26c15.51-3.29,22.09-4.75,29.34-8.05,8.15-3.71,18.87-10.5,39.54-25.06,31.13-21.93,58.23-31.66,75.51-35.96l21.11-3.46,1.03-.06,2.61,.23c1.95,.17,48.38,4.39,97.56,16.95,22.48,5.74,47.23,6.94,64.03,6.94,9.88,0,17.57-.42,21.4-.68,9.4-2.54,39.69-11,58.84-19.47,10.27-4.54,20.56-8.37,30.58-11.37l9.4-2.83c7.53-2.25,15.12-3.59,22.56-3.98,1.55-.09,3.1-.13,4.6-.13,21.47,0,33.69,8.68,40.16,15.95,8.32,9.35,12.05,21.62,10.53,34.57-1.83,15.53-9.79,29.37-23.02,40.01-10.82,8.7-24.1,13.94-38.39,15.14-5.38,.46-19.06,2.08-29.79,7.39-10.02,4.95-10.2,9.14-10.33,12.2-1.66,38.64-4.74,75.62-6.42,94.22-1.03,11.3-3.42,22.34-7.12,32.83-5.07,14.37-11.63,28.65-19.49,42.43-2.8,4.91-5.35,10.09-7.58,15.41l-.7,1.67Z"/><path class="cls-5" d="M576.15,450.7c-34.23,13.12-82.57,29.18-137.11,39.99,4.62-.89,8.03-1.29,10.01-1.48l-15.76,2.71c1.58-.37,3.07-.69,4.46-.97-17.31,3.4-35.25,6.27-53.55,8.35-35.41,4.01-66.94,6.05-93.73,6.05-62.8,0-88.69-11.18-99.34-20.56l-2.15-1.89-1.82-2.22c-12.23-14.94-23.14-41.43-13.65-66.91,8.96-24.09,31.76-39.47,67.74-45.73,33.76-5.87,55.48-10.22,70.42-14.08,4.64-1.2,8.31-2.28,11.2-3.22,5.33-1.74,10.31-4.44,14.71-7.93l.04-.03c4.08-3.23,7.94-6.29,9.62-8.92,.49-.75,1.77-2.76,1.17-8.97-.24-2.52-3.65-9.83-14.79-19.5-9.83-8.53-23.61-16.93-35.97-21.91l-1.87-.76-1.47-.8c-1.68-.86-36.07-18.26-74.76-18.26-7.13,0-14.02,.6-20.49,1.79-1.34,.24-2.61,.77-3.68,1.61-2.59,2.05-5.97,6.27-8.71,13.85-13.91,38.51-52.07,99.09-56.37,105.87l-.86,1.35-.98,1.27c-.11,.14-12.29,16.01-24.31,35.34-10.67,17.16-16.03,28.66-18.72,35.8-1.88,5-2.71,10.33-2.46,15.66,1.29,26.77,5.44,38.86,17.58,53.31l1.71,2.04c8.48,10.1,15.49,18.47,21.24,23.24-.24,.07,.09,.31,.65,.62,1.96,1.06,4.17,1.59,6.39,1.65,6.96,.16,17.77,.86,34.79,2,27.15,1.81,64.33,4.29,92.25,4.29,4.03,0,7.52-.05,10.54-.14l-2.04,35.06c-2.73,.05-5.57,.08-8.5,.08-46.17,0-113.9-6.33-129.83-6.33-21,0-33-15-54-40-20.21-24.06-28.38-45.35-26.29-77.23,.14-2.2,.21-4.4,.33-6.6,1.92-34,52.96-100.17,52.96-100.17,0,0,40-63,53-99s39-38,39-38c9.04-1.66,18.04-2.36,26.8-2.36,49.36,0,91.2,22.36,91.2,22.36,28.5,11.5,69.5,39.5,72.5,70.5s-16,42-28,52-39,17-108,29-33,56-33,56c0,0,13.44,11.83,76.22,11.83,22.83,0,52.18-1.56,89.78-5.83,95.42-10.83,181.22-44.1,226.73-64.47l14.3,31.94c-12.42,5.56-27.64,12.01-45.13,18.71Z"/><path class="cls-1" d="M958.75,292.02l-57,144-80.33,199.03-33.12-12.77,3.93-9.39,77.03-189.9,56.95-143.85,.46-1.17,.32-.66c.6-1.37,7.06-16.48,9.24-36.58,2.73-25.17-2.27-46.78-14.87-64.23-30.95-42.92-64.06-48.02-68.32-48.51h-.94s.26-.05,.26-.05c-.16-.01-17.2-1.15-38.47-1.15-33.79,0-51.83,2.78-60.68,4.91-4.07,.98-7.77,3.1-10.69,6.09-5.87,6.02-9.23,9.99-10.69,13.83-2.39,6.25-2.09,17.96,.89,34.82,8.48,48.09,30.74,163.29,32.75,173.69,.66,2.81,2.51,11.02,3.78,20.28,2.27,16.48,3.05,35.29-8.39,49.87-7.48,9.54-18.69,15.01-30.76,15.01-8.08,0-16-2.42-23.54-7.18-3.19-2.01-5.65-3.42-8.03-4.79-13.88-7.95-20.24-14.07-28.07-27.36-2.6,1.51-5.25,3.26-7.39,4.93l-.2,.16c-1.54,1.25-3.19,2.34-4.95,3.25-.83,.44-14.91,7.82-36.92,17.7l-14.02-31.95c9.63-4.31,17.45-8.05,23.18-10.87,5.7-2.81,11.19-5.98,16.46-9.54,7.23-4.89,20.49-12.67,31.77-12.67,6.43,0,12.21,2.53,15.86,9.55,17.5,28.5,12,20,31,32,1.93,1.22,3.53,1.77,4.85,1.77,11.64,0,1.15-42.77,1.15-42.77,0,0-24-124-33-175s3-63,25-85c13.08-13.08,57.1-15.73,90.64-15.73,22.86,0,40.86,1.23,40.86,1.23,0,0,51,2,95,63s9,136,9,136Z"/><path d="M940.1,169.3c-41.03-55.05-88.36-61.54-90.34-61.78-.45-.06-45.92-5.93-97.64,4.02-16.14,3.1-27.97,10.11-35.16,20.82-10.56,15.76-7.5,34.36-6.79,37.93,.37,1.83,.64,3.25,.86,4.6,2.45,14.76,24.17,139.87,37.52,198.06,6.73,29.33,1.96,42.05-3.23,47.55-6.02,6.38-14.14,5.09-14.47,5.03l-.35-.03c-.28,0-27.72-.29-37.12-25.69-4.33-11.68-9.94-15.71-13.88-17.02-3.64-1.22-7.58-.72-10.82,1.36-6.39,4.11-11.73,7.12-16.89,9.52l-29.21,15.05-.08,.05c-42.29,24.58-147.47,53.51-148.5,53.79-.89,.23-89.67,22.94-168.5,22.94s-110.73-2.26-114.51-46.67c-3.41-40.13,30.16-46.66,46.29-49.8,2.04-.4,3.79-.74,5.21-1.09,2.26-.56,6.55-1.2,11.99-2,22.25-3.29,68.55-10.14,98.67-31.3,9.73-6.84,14.85-15.14,15.23-24.68,.84-21.64-23.09-41.66-24.12-42.51-1.11-.91-27.97-22.44-83.74-37.38-50.57-13.55-68.8-2.7-77.56,2.52-1.09,.65-2.03,1.21-2.85,1.62-8.28,4.14-24.76,45.76-27.97,54.07l-.07,.18c-1.66,5.93-8.78,20.01-20.06,39.65l-1.49,2.62c-3.56,6.24-6.92,12.14-11.42,17.71-12.94,16.06-36.83,48.22-51.45,83.29-16.09,38.62,8.7,76.44,20.1,90.91,2.63,3.33,5.22,7.09,8.16,11.83,13.5,21.75,39.26,23.61,49.7,23.42,5.94-.11,12.16,.04,19.01,.48,23.71,1.49,82.17,4.9,112.93,4.13,40.2-1.01,76.65-29.22,78.13-30.38,58.86-42.89,80.43-42.25,99.47-41.67,3.54,.1,6.89,.2,10.44,.05,10.73-.46,28.18,3.08,50.26,7.57,23.64,4.81,53.06,10.8,83.48,13.42,46.28,3.99,59.36-1.55,94.33-16.35,9.43-4,20.12-8.52,33.57-13.78,24.27-9.48,43.2-10.81,56.26-3.97,10.8,5.66,13.72,15.3,14.03,16.45,.25,3.07,2.34,40.05-39.24,44.67-29.32,3.26-43.91,11.48-50.99,17.8-2.32,2.07-4.43,3.93-6.69,5.67-2.6,2-10.52,8.1-10.1,69.53,.49,70.96-27.37,112.45-27.67,112.89-1.88,2.84-45.65,69.83-13.55,94.68,10.6,8.21,19.45,11.25,27.06,11.25,12.39,0,21.46-8.07,29.35-15.08,2.1-1.87,4.08-3.63,6.05-5.18,14.22-11.17,39.3-84.92,40.63-88.87l48.76-118.5-3.74-1.43-48.74,118.47-.04,.12c-8.93,26.44-28.64,78.66-39.35,87.07-2.06,1.62-4.08,3.42-6.23,5.33-12.22,10.87-26.07,23.19-51.31,3.66-29.18-22.59,14.01-88.65,14.43-89.29,.29-.42,28.85-42.85,28.35-115.14-.36-51.73,5.2-63.77,8.54-66.34,2.37-1.82,4.62-3.81,6.91-5.86,5.44-4.85,19.02-13.5,48.77-16.8,46.42-5.16,42.81-48.74,42.77-49.18l-.04-.26c-.12-.5-2.96-12.26-16-19.15-6.06-3.2-13.2-4.79-21.4-4.79-10.93,0-23.72,2.84-38.28,8.53-13.5,5.27-24.21,9.81-33.67,13.81-34.3,14.53-47.13,19.96-92.43,16.06-30.19-2.61-59.49-8.57-83.03-13.36-22.35-4.54-39.99-8.14-51.23-7.65-3.4,.15-6.68,.05-10.14-.05-19.69-.59-41.98-1.25-102,42.48-.37,.28-36.97,28.6-75.82,29.57-30.59,.76-88.92-2.63-112.58-4.13-6.96-.44-13.28-.59-19.34-.48-9.75,.21-33.81-1.52-46.22-21.53-3.02-4.87-5.7-8.74-8.41-12.19-10.97-13.92-34.83-50.24-19.55-86.9,14.42-34.61,38.06-66.43,50.87-82.31,4.69-5.83,8.13-11.86,11.77-18.25l1.49-2.61c8.06-14.03,18.13-32.41,20.42-40.47,7.25-18.67,20.68-49.18,25.99-51.84,.96-.48,1.96-1.08,3.12-1.76,8.92-5.32,25.54-15.21,74.47-2.1,54.86,14.7,81.99,36.4,82.25,36.61,.23,.2,23.42,19.58,22.65,39.27-.32,8.22-4.87,15.47-13.53,21.55-29.35,20.62-75.01,27.38-96.96,30.62-5.76,.85-9.92,1.47-12.38,2.08-1.31,.33-3.01,.66-4.99,1.04-15.93,3.1-53.23,10.36-49.51,54.07,4.12,48.4,37.25,50.33,118.49,50.33s168.61-22.83,169.53-23.07c1.06-.29,106.67-29.34,149.43-54.18l29.09-14.99c5.25-2.44,10.75-5.54,17.29-9.74,1.05-.68,3.87-2.12,7.39-.94,3.11,1.04,7.62,4.42,11.39,14.61,9.95,26.86,38.19,28.24,40.7,28.31,1.42,.2,10.77,1.25,17.86-6.21,8.57-9.01,10-26.25,4.27-51.24-13.33-58.09-35.03-183.07-37.47-197.81-.23-1.4-.5-2.86-.88-4.75-.67-3.29-3.5-20.46,6.19-34.9,6.57-9.8,17.53-16.23,32.59-19.13,51.05-9.81,95.91-4.04,96.37-3.98,.47,.06,47.62,6.52,87.65,60.22,37.15,49.83-10.02,153.74-15.52,165.42-2.14,4.53-4.1,9.02-5.85,13.34l-87.88,217.28-24.76,60.17,3.73,1.43,24.73-60.09,87.89-217.29c1.72-4.25,3.66-8.68,5.76-13.14,4.09-8.7,18.04-39.85,25.44-75.23,8.72-41.66,5.24-73.39-10.34-94.29Z"/><path class="cls-3" d="M295.74,462.26c-1.02,0-2.03,0-3.02,0l.05-9c.98,0,1.97,0,2.98,0v9Zm3.02,0l-.04-9c.98,0,1.97-.01,2.97-.02l.1,9c-1.02,.01-2.03,.02-3.03,.02Zm-9.08-.03c-1.02-.01-2.03-.03-3.02-.05l.16-9c.98,.02,1.97,.03,2.98,.04l-.11,9Zm15.13-.04l-.15-9c.98-.02,1.97-.04,2.98-.06l.2,9c-1.02,.02-2.03,.04-3.02,.06Zm-21.18-.07c-1.02-.03-2.03-.05-3.03-.08l.28-9c.98,.03,1.97,.06,2.97,.08l-.22,9Zm27.23-.06l-.24-9c.98-.03,1.97-.06,2.97-.09l.3,9c-1.02,.03-2.03,.06-3.03,.09Zm-33.28-.12c-1.03-.04-2.04-.08-3.03-.12l.39-8.99c.97,.04,1.96,.08,2.97,.12l-.33,8.99Zm39.32-.07l-.34-8.99c.98-.04,1.97-.08,2.97-.12l.38,8.99c-1.02,.04-2.02,.08-3.02,.12Zm-45.38-.19c-1.03-.05-2.03-.11-3.02-.16l.51-8.99c.97,.06,1.96,.11,2.97,.16l-.46,8.99Zm51.42-.07l-.43-8.99c.98-.05,1.98-.1,2.97-.15l.47,8.99c-1.01,.05-2.02,.1-3.02,.15Zm-57.48-.28c-1.03-.07-2.04-.14-3.03-.21l.65-8.98c.96,.07,1.95,.14,2.96,.2l-.58,8.98Zm63.51-.04l-.51-8.98c.98-.06,1.97-.12,2.97-.18l.56,8.98c-1.01,.06-2.02,.12-3.02,.18Zm6.03-.37l-.6-8.98c.98-.07,1.97-.13,2.97-.21l.65,8.98c-1.01,.07-2.02,.14-3.02,.21Zm-75.59-.03c-1.04-.08-2.05-.17-3.03-.25l.8-8.96c.95,.08,1.94,.17,2.95,.25l-.71,8.97Zm81.62-.4l-.68-8.97c.98-.07,1.98-.15,2.97-.23l.71,8.97c-1.01,.08-2.01,.16-3.01,.24Zm-87.68-.14c-1.05-.1-2.05-.2-3.02-.31l.95-8.95c.95,.1,1.93,.2,2.95,.3l-.87,8.96Zm93.69-.35l-.76-8.97c.98-.08,1.97-.17,2.97-.26l.8,8.96c-1.01,.09-2.01,.18-3.01,.26Zm-99.74-.29c-1.07-.12-2.08-.25-3.03-.37l1.14-8.93c.92,.12,1.9,.24,2.93,.36l-1.04,8.94Zm105.76-.25l-.84-8.96c.98-.09,1.97-.19,2.96-.29l.88,8.96c-1.01,.1-2.01,.2-3.01,.29Zm-111.82-.53c-1.11-.16-2.12-.3-3.03-.45l1.38-8.89c.87,.13,1.84,.28,2.91,.43l-1.25,8.91Zm117.83-.06l-.92-8.95c.98-.1,1.97-.2,2.96-.31l.96,8.95c-1.01,.11-2.01,.21-3,.32Zm6.01-.64l-1-8.95c.98-.11,1.97-.22,2.97-.34l1.03,8.94c-1,.12-2,.23-3,.34Zm-129.91-.24c-2.03-.35-3.09-.58-3.14-.59l1.91-8.8s0,0,0,0h0c.08,.02,1.01,.21,2.76,.52l-1.54,8.87Zm135.9-.46l-1.07-8.94c.98-.12,1.97-.24,2.96-.36l1.11,8.93c-1,.12-2,.25-3,.37Zm5.99-.75l-1.15-8.93c.98-.13,1.97-.25,2.96-.39l1.18,8.92c-1,.13-2,.26-2.99,.39Zm5.98-.79l-1.22-8.92c.98-.13,1.97-.27,2.96-.41l1.25,8.91c-1,.14-2,.28-2.99,.42Zm5.98-.84l-1.29-8.91c.98-.14,1.96-.29,2.95-.43l1.32,8.9c-1,.15-1.99,.29-2.98,.44Zm5.97-.89l-1.36-8.9c.98-.15,1.96-.3,2.95-.46l1.39,8.89c-1,.16-1.99,.31-2.98,.46Zm5.96-.93l-1.43-8.89c.98-.16,1.96-.32,2.94-.48l1.46,8.88c-1,.16-1.99,.33-2.98,.48Zm5.95-.98l-1.49-8.88c.98-.16,1.95-.33,2.94-.5l1.53,8.87c-1,.17-1.99,.34-2.98,.51Zm5.95-1.03l-1.56-8.86c.98-.17,1.96-.35,2.94-.52l1.59,8.86c-.99,.18-1.98,.36-2.97,.53Zm5.94-1.07l-1.62-8.85c.97-.18,1.95-.36,2.93-.54l1.66,8.85c-.99,.19-1.98,.37-2.97,.55Zm5.93-1.11l-1.69-8.84c.97-.19,1.95-.38,2.93-.57l1.72,8.83c-.99,.19-1.98,.38-2.96,.57Zm5.92-1.15l-1.75-8.83c.97-.19,1.94-.39,2.92-.59l1.79,8.82c-.99,.2-1.98,.4-2.96,.6Zm5.91-1.2l-1.82-8.81,2.93-.61,1.84,8.81-2.95,.61Zm5.9-1.24l-1.88-8.8,2.92-.63,1.9,8.8-2.94,.63Zm5.89-1.28l-1.94-8.79c.97-.21,1.94-.43,2.91-.65l1.97,8.78c-.98,.22-1.97,.44-2.95,.66Zm5.89-1.32l-2-8.78,2.91-.67,2.02,8.77-2.93,.67Zm5.88-1.36l-2.07-8.76,2.91-.69,2.08,8.76-2.93,.69Zm5.86-1.4l-2.12-8.75,2.9-.71,2.14,8.74-2.93,.71Zm5.85-1.43l-2.17-8.73,2.9-.73,2.2,8.73-2.92,.73Zm5.85-1.47l-2.23-8.72,2.89-.74,2.26,8.71-2.92,.75Zm5.83-1.51l-2.28-8.71c.96-.25,1.93-.51,2.88-.76l2.32,8.7c-.97,.26-1.94,.52-2.92,.77Zm5.83-1.55l-2.35-8.69c.96-.26,1.92-.52,2.88-.78l2.38,8.68c-.96,.26-1.93,.53-2.91,.79Zm5.82-1.59l-2.41-8.67c.96-.27,1.92-.54,2.87-.8l2.44,8.66c-.96,.27-1.93,.54-2.9,.81Zm5.81-1.63l-2.47-8.65c.96-.27,1.92-.55,2.87-.82l2.5,8.65c-.96,.28-1.93,.56-2.9,.83Zm5.79-1.68l-2.53-8.64c.96-.28,1.91-.56,2.86-.84l2.56,8.63c-.96,.28-1.92,.57-2.89,.85Zm5.79-1.72l-2.6-8.62c.96-.29,1.91-.58,2.85-.87l2.63,8.61c-.96,.29-1.92,.58-2.89,.88Zm5.77-1.76l-2.66-8.6c.95-.29,1.9-.59,2.85-.89l2.7,8.59c-.96,.3-1.92,.6-2.88,.9Zm5.76-1.81l-2.73-8.58c.95-.3,1.89-.6,2.83-.91l2.77,8.56c-.95,.31-1.91,.62-2.88,.92Zm5.74-1.85l-2.8-8.55c.95-.31,1.89-.62,2.83-.93l2.84,8.54c-.95,.32-1.91,.63-2.87,.95Zm5.73-1.9l-2.87-8.53c.95-.32,1.89-.64,2.82-.96l2.91,8.52c-.95,.32-1.9,.65-2.86,.97Zm5.72-1.95l-2.94-8.51c.95-.33,1.89-.65,2.82-.98l2.97,8.49c-.94,.33-1.89,.66-2.85,.99Zm5.7-2l-3.01-8.48c.94-.33,1.88-.67,2.8-1l3.05,8.47c-.94,.34-1.89,.68-2.84,1.02Zm5.68-2.05l-3.09-8.45c.94-.34,1.87-.69,2.79-1.03l3.13,8.44c-.94,.35-1.88,.7-2.84,1.04Zm5.66-2.1l-3.17-8.42c.94-.35,1.86-.7,2.79-1.05l3.21,8.41c-.93,.36-1.88,.71-2.82,1.07Zm5.64-2.15l-3.25-8.39c.93-.36,1.86-.72,2.77-1.08l3.29,8.38c-.93,.37-1.87,.73-2.82,1.1Zm5.63-2.21l-3.33-8.36c.93-.37,1.85-.74,2.77-1.11l3.37,8.35c-.93,.37-1.86,.75-2.8,1.12Zm5.61-2.27l-3.42-8.33c.93-.38,1.84-.76,2.75-1.14l3.46,8.31c-.92,.38-1.85,.77-2.79,1.15Zm5.58-2.32l-3.5-8.29c.92-.39,1.83-.78,2.74-1.17l3.55,8.27c-.92,.39-1.85,.79-2.78,1.18Zm5.56-2.38l-3.59-8.25c.92-.4,1.82-.8,2.72-1.2l3.65,8.23c-.91,.41-1.84,.81-2.77,1.22Zm5.54-2.45l-3.69-8.21c.91-.41,1.82-.82,2.71-1.23l3.74,8.19c-.91,.41-1.83,.83-2.76,1.25Zm5.5-2.51l-3.78-8.17c.91-.42,1.8-.84,2.69-1.26l3.84,8.14c-.9,.43-1.82,.85-2.75,1.28Zm5.48-2.58l-3.88-8.12c.91-.43,1.8-.86,2.68-1.29l3.93,8.1c-.9,.44-1.81,.87-2.73,1.31Zm5.45-2.65l-3.99-8.07c.9-.45,1.79-.89,2.66-1.33l4.04,8.04c-.89,.45-1.79,.9-2.71,1.35Zm5.42-2.72l-4.1-8.01c.89-.46,1.77-.91,2.64-1.36l4.16,7.98c-.88,.46-1.78,.92-2.7,1.39Zm5.38-2.8l-4.21-7.95c.89-.47,1.76-.94,2.62-1.4l4.27,7.92c-.88,.47-1.77,.95-2.67,1.43Zm5.34-2.88l-4.33-7.89c.88-.48,1.74-.96,2.58-1.44l4.41,7.85c-.87,.49-1.75,.98-2.66,1.48Zm5.3-2.97l-4.47-7.81c.88-.5,1.73-.99,2.56-1.48l4.54,7.77c-.86,.5-1.73,1.01-2.63,1.52Zm5.25-3.06l-4.6-7.73c.87-.52,1.71-1.02,2.53-1.52l4.69,7.68c-.85,.52-1.72,1.04-2.61,1.57Zm5.2-3.17l-4.76-7.64c.86-.54,1.7-1.06,2.5-1.58l4.83,7.59c-.83,.53-1.69,1.07-2.57,1.62Zm5.14-3.28l-4.93-7.53c.86-.56,1.67-1.1,2.45-1.63l5.02,7.47c-.81,.54-1.66,1.11-2.55,1.69Zm5.08-3.42l-5.12-7.4c.86-.59,1.66-1.16,2.4-1.69l5.24,7.32c-.78,.56-1.61,1.15-2.51,1.77Zm5-3.58l-5.37-7.22c.89-.66,1.66-1.25,2.3-1.75l5.53,7.1c-.7,.54-1.52,1.17-2.47,1.88Zm4.94-3.87l-5.79-6.89c.29-.24,.44-.37,.46-.39l5.97,6.74s-.21,.19-.64,.55Z"/><path class="cls-3" d="M839.75,637.26l-8.35-3.36,1.12-2.78,8.35,3.36-1.12,2.78Zm2.24-5.57l-8.35-3.36,1.12-2.78,8.35,3.36-1.12,2.78Zm2.24-5.57l-8.35-3.36,1.12-2.78,8.35,3.36-1.12,2.78Zm2.24-5.57l-8.35-3.35,1.12-2.78,8.35,3.35-1.12,2.78Zm2.24-5.57l-8.35-3.36,1.12-2.78,8.35,3.36-1.12,2.78Zm2.24-5.57l-8.35-3.36,1.12-2.78,8.35,3.36-1.12,2.78Zm2.24-5.57l-8.35-3.36,1.12-2.78,8.35,3.36-1.12,2.78Zm2.24-5.57l-8.35-3.36,1.12-2.78,8.35,3.36-1.12,2.78Zm2.24-5.57l-8.35-3.36,1.12-2.78,8.35,3.36-1.12,2.78Zm2.24-5.57l-8.35-3.36,1.12-2.78,8.35,3.36-1.12,2.78Zm2.24-5.57l-8.35-3.36,1.12-2.78,8.35,3.36-1.12,2.78Zm2.24-5.57l-8.35-3.36,1.12-2.78,8.35,3.36-1.12,2.78Zm2.24-5.57l-8.35-3.36,1.12-2.78,8.35,3.36-1.12,2.78Zm2.24-5.57l-8.35-3.36,1.12-2.78,8.35,3.36-1.12,2.78Zm2.24-5.57l-8.35-3.36,1.12-2.78,8.35,3.36-1.12,2.78Zm2.24-5.57l-8.35-3.36,1.12-2.78,8.35,3.36-1.12,2.78Zm2.24-5.57l-8.35-3.36,1.12-2.78,8.35,3.36-1.12,2.78Zm2.24-5.57l-8.35-3.35,1.12-2.78,8.35,3.35-1.12,2.78Zm2.24-5.57l-8.35-3.36,1.12-2.78,8.35,3.36-1.12,2.78Zm2.24-5.57l-8.35-3.36,1.12-2.78,8.35,3.36-1.12,2.78Zm2.24-5.57l-8.35-3.35,1.12-2.78,8.35,3.35-1.12,2.78Zm2.24-5.57l-8.35-3.36,1.12-2.78,8.35,3.36-1.12,2.78Zm2.24-5.57l-8.35-3.36,1.12-2.78,8.35,3.36-1.12,2.78Zm2.24-5.57l-8.35-3.36,1.12-2.78,8.35,3.36-1.12,2.78Zm2.24-5.57l-8.35-3.35,1.12-2.78,8.35,3.35-1.12,2.78Zm2.24-5.57l-8.35-3.36,1.12-2.78,8.35,3.36-1.12,2.78Zm2.24-5.57l-8.35-3.36,1.12-2.78,8.35,3.36-1.12,2.78Zm2.24-5.57l-8.35-3.36,1.12-2.78,8.35,3.36-1.12,2.78Zm2.24-5.57l-8.35-3.36,1.12-2.78,8.35,3.36-1.12,2.78Zm2.24-5.57l-8.35-3.36,1.12-2.78,8.35,3.36-1.12,2.78Zm2.24-5.57l-8.35-3.36,1.12-2.78,8.35,3.36-1.12,2.78Zm2.24-5.57l-8.35-3.36,1.12-2.78,8.35,3.36-1.12,2.78Zm2.24-5.57l-8.35-3.36,1.12-2.78,8.35,3.36-1.12,2.78Zm2.24-5.57l-8.35-3.36,1.12-2.78,8.35,3.36-1.12,2.78Zm2.24-5.57l-8.35-3.35,1.12-2.78,8.35,3.35-1.12,2.78Zm2.24-5.57l-8.35-3.36,1.12-2.78,8.35,3.36-1.12,2.78Zm2.24-5.57l-8.35-3.36,1.12-2.78,8.35,3.36-1.12,2.78Zm2.24-5.57l-8.35-3.35,1.12-2.78,8.35,3.35-1.12,2.78Zm2.24-5.57l-8.35-3.36,1.12-2.78,8.35,3.36-1.12,2.78Zm2.24-5.57l-8.35-3.36,1.12-2.78,8.35,3.36-1.12,2.78Zm2.24-5.57l-8.35-3.36,1.12-2.78,8.35,3.36-1.12,2.78Zm2.24-5.57l-8.35-3.35,1.12-2.78,8.35,3.35-1.12,2.78Zm2.24-5.57l-8.35-3.36,1.12-2.78,8.35,3.36-1.12,2.78Zm2.24-5.57l-8.35-3.36,1.12-2.78,8.35,3.36-1.12,2.78Zm2.24-5.57l-8.35-3.36,1.12-2.78,8.35,3.36-1.12,2.78Zm2.24-5.57l-8.35-3.36,1.12-2.78,8.35,3.36-1.12,2.78Zm2.24-5.57l-8.35-3.36,1.12-2.78,8.35,3.36-1.12,2.78Zm2.24-5.57l-8.35-3.36,1.12-2.78,8.35,3.36-1.12,2.78Zm2.24-5.57l-8.35-3.36,1.12-2.78,8.35,3.36-1.12,2.78Zm2.24-5.57l-8.35-3.36,1.12-2.78,8.35,3.36-1.12,2.78Zm2.24-5.57l-8.35-3.36,1.12-2.78,8.35,3.36-1.12,2.78Zm2.24-5.57l-8.35-3.35,1.12-2.78,8.35,3.35-1.12,2.78Zm2.24-5.57l-8.35-3.36,1.12-2.78,8.35,3.36-1.12,2.78Zm2.24-5.57l-8.35-3.36,1.12-2.78,8.35,3.36-1.12,2.78Zm2.24-5.57l-8.35-3.35,1.12-2.78,8.35,3.35-1.12,2.78Zm2.24-5.57l-8.35-3.35,1.12-2.78,8.35,3.35-1.12,2.78Zm2.24-5.57l-8.35-3.36,1.12-2.78,8.35,3.36-1.12,2.78Zm2.24-5.57l-8.35-3.36,1.12-2.78,8.35,3.36-1.12,2.78Zm2.24-5.57l-8.35-3.35,1.12-2.78,8.35,3.35-1.12,2.78Zm2.24-5.57l-8.35-3.36,1.12-2.78,8.35,3.36-1.12,2.78Zm2.17-5.16l-8.02-4.09c.29-.58,.73-1.44,1.26-2.57l8.14,3.83c-.58,1.24-1.06,2.19-1.38,2.83Zm2.67-5.66l-8.23-3.63c.36-.82,.75-1.71,1.15-2.68l8.3,3.47c-.43,1.03-.84,1.97-1.22,2.84Zm2.38-5.7l-8.37-3.32c.34-.86,.69-1.77,1.05-2.72l8.43,3.15c-.38,1.01-.75,1.97-1.11,2.88Zm2.17-5.78l-8.48-3.01c.32-.89,.63-1.82,.96-2.77l8.53,2.87c-.34,1-.67,1.97-1,2.91Zm1.96-5.83l-8.58-2.73c.29-.91,.58-1.84,.86-2.79l8.62,2.58c-.3,1.01-.6,1.99-.91,2.94Zm1.76-5.9l-8.66-2.44c.26-.92,.52-1.86,.77-2.82l8.71,2.29c-.27,1.01-.54,2-.81,2.97Zm1.57-5.96l-8.74-2.14c.23-.93,.46-1.88,.67-2.85l8.78,2c-.23,1.01-.47,2.01-.71,2.99Zm1.37-6l-8.81-1.85c.2-.94,.39-1.9,.58-2.87l8.84,1.71c-.2,1.02-.4,2.02-.61,3.01Zm1.17-6.04l-8.86-1.56c.17-.95,.33-1.91,.48-2.88l8.89,1.41c-.16,1.02-.33,2.04-.51,3.04Zm.96-6.08l-8.91-1.26c.13-.96,.26-1.92,.38-2.9l8.93,1.1c-.13,1.03-.26,2.05-.4,3.06Zm.75-6.11l-8.95-.94c.1-.96,.2-1.93,.28-2.91l8.96,.79c-.09,1.03-.19,2.05-.29,3.06Zm.54-6.14l-8.98-.62c.07-.96,.13-1.94,.18-2.92l8.99,.46c-.05,1.03-.12,2.06-.19,3.07Zm.31-6.15l-8.99-.3c.03-.97,.06-1.94,.07-2.92l9,.13c-.01,1.03-.04,2.06-.07,3.08Zm-8.91-6.14c0-.96-.02-1.93-.04-2.91l9-.21c.02,1.04,.04,2.07,.04,3.09l-9,.03Zm-.13-5.83c-.04-.96-.09-1.93-.15-2.91l8.98-.55c.06,1.03,.12,2.06,.16,3.09l-8.99,.37Zm-.36-5.82c-.08-.96-.17-1.93-.26-2.9l8.96-.9c.1,1.03,.2,2.06,.28,3.08l-8.97,.72Zm-.58-5.79c-.12-.96-.24-1.92-.38-2.88l8.91-1.26c.14,1.03,.28,2.05,.4,3.07l-8.94,1.07Zm-.81-5.76c-.15-.95-.32-1.91-.49-2.86l8.85-1.62c.19,1.02,.36,2.04,.52,3.05l-8.89,1.43Zm-1.04-5.72c-.19-.95-.39-1.89-.61-2.85l8.78-1.97c.23,1.01,.44,2.02,.65,3.02l-8.82,1.79Zm-1.27-5.68c-.23-.94-.47-1.88-.72-2.82l8.69-2.33c.27,1,.52,2,.77,2.99l-8.74,2.15Zm-1.5-5.62c-.27-.93-.55-1.85-.84-2.78l8.59-2.69c.31,.99,.61,1.98,.89,2.96l-8.64,2.51Zm-1.73-5.55c-.31-.91-.62-1.83-.95-2.75l8.47-3.04c.35,.98,.69,1.95,1.01,2.92l-8.53,2.86Zm-1.96-5.47c-.35-.9-.7-1.81-1.07-2.71l8.34-3.38c.39,.96,.76,1.92,1.13,2.87l-8.41,3.21Zm-2.18-5.39c-.23-.53-.46-1.06-.7-1.6-.16-.36-.32-.71-.48-1.06l8.2-3.71c.17,.38,.34,.75,.51,1.13,.25,.56,.5,1.13,.74,1.7l-8.27,3.55Zm-2.4-5.28c-.42-.88-.85-1.74-1.29-2.6l8.02-4.08c.47,.92,.92,1.84,1.37,2.78l-8.11,3.9Zm-2.63-5.17c-.46-.86-.93-1.7-1.4-2.54l7.83-4.43c.51,.89,1,1.8,1.5,2.71l-7.93,4.26Zm-2.86-5.05c-.5-.83-1-1.66-1.51-2.48l7.63-4.78c.54,.87,1.08,1.75,1.61,2.64l-7.73,4.61Zm-3.08-4.92c-.53-.81-1.07-1.61-1.62-2.41l7.41-5.11c.58,.85,1.16,1.7,1.73,2.57l-7.52,4.94Zm-3.29-4.78c-.57-.79-1.15-1.57-1.73-2.34l7.19-5.42c.62,.82,1.23,1.65,1.84,2.49l-7.29,5.27Zm-3.5-4.63c-.6-.76-1.21-1.52-1.83-2.27l6.95-5.72c.65,.79,1.3,1.59,1.94,2.4l-7.06,5.58Zm-3.7-4.49c-.64-.74-1.28-1.47-1.92-2.19l6.7-6.01c.68,.76,1.36,1.54,2.04,2.32l-6.82,5.87Zm-3.88-4.33c-.67-.71-1.33-1.41-2.01-2.1l6.45-6.28c.72,.74,1.43,1.48,2.13,2.24l-6.58,6.14Zm-4.06-4.17c-.69-.68-1.39-1.36-2.09-2.03l6.2-6.53c.74,.71,1.48,1.42,2.22,2.15l-6.32,6.4Zm-4.22-4.01c-.72-.66-1.44-1.31-2.17-1.94l5.95-6.76c.77,.68,1.54,1.36,2.3,2.06l-6.07,6.64Zm-4.38-3.85c-.75-.63-1.49-1.25-2.24-1.86l5.69-6.98c.79,.65,1.58,1.3,2.37,1.97l-5.82,6.87Zm-4.52-3.69c-.77-.6-1.54-1.2-2.31-1.78l5.43-7.18c.81,.62,1.63,1.24,2.44,1.88l-5.56,7.08Zm-4.66-3.52c-.79-.58-1.58-1.14-2.37-1.7l5.17-7.37c.83,.59,1.67,1.18,2.51,1.79l-5.3,7.27Zm-4.78-3.36c-.81-.55-1.63-1.09-2.44-1.62l4.92-7.54c.85,.56,1.71,1.12,2.56,1.7l-5.04,7.46Zm-4.9-3.2c-.83-.52-1.67-1.04-2.49-1.54l4.66-7.7c.87,.53,1.74,1.06,2.62,1.61l-4.79,7.62Zm-5.01-3.03c-.85-.5-1.7-.98-2.54-1.45l4.41-7.85c.88,.5,1.77,1.01,2.67,1.53l-4.54,7.77Zm-5.11-2.87c-.87-.47-1.74-.93-2.59-1.37l4.15-7.98c.9,.47,1.8,.95,2.72,1.44l-4.28,7.92Zm-5.2-2.71c-.89-.44-1.77-.87-2.63-1.29l3.9-8.11c.91,.44,1.83,.89,2.76,1.35l-4.02,8.05Zm-5.28-2.54c-.91-.42-1.8-.82-2.68-1.21l3.64-8.23c.91,.4,1.85,.82,2.79,1.26l-3.75,8.18Zm-5.37-2.37c-.93-.39-1.83-.76-2.71-1.12l3.37-8.35c.92,.37,1.87,.76,2.84,1.18l-3.51,8.29Zm-5.44-2.19c-.95-.37-1.86-.71-2.74-1.02l3.08-8.46c.92,.33,1.89,.7,2.89,1.08l-3.23,8.4Zm-5.5-2c-1-.34-1.93-.65-2.77-.92l2.75-8.57c.89,.29,1.88,.61,2.94,.98l-2.93,8.51Zm-5.54-1.78c-1.72-.51-2.7-.75-2.71-.75l2.12-8.75s1.17,.28,3.13,.86l-2.54,8.63Z"/><path class="cls-3" d="M748.68,860.67l-8.36-3.34,8.39,3.26-.03,.08Zm1.15-2.86l-8.35-3.36,1.12-2.78,8.35,3.36-1.12,2.78Zm2.24-5.57l-8.35-3.36,1.12-2.78,8.35,3.36-1.12,2.78Zm2.24-5.57l-8.35-3.36,1.12-2.78,8.35,3.36-1.12,2.78Zm2.24-5.57l-8.35-3.36,1.12-2.78,8.35,3.36-1.12,2.78Zm2.24-5.57l-8.35-3.36,1.12-2.78,8.35,3.36-1.12,2.78Zm2.24-5.57l-8.35-3.36,1.12-2.78,8.35,3.36-1.12,2.78Zm2.24-5.57l-8.35-3.36,1.12-2.78,8.35,3.36-1.12,2.78Zm2.24-5.57l-8.35-3.36,1.12-2.78,8.35,3.36-1.12,2.78Zm2.24-5.57l-8.35-3.36,1.12-2.78,8.35,3.36-1.12,2.78Zm2.24-5.57l-8.35-3.36,1.12-2.78,8.35,3.36-1.12,2.78Zm2.24-5.57l-8.35-3.36,1.12-2.78,8.35,3.36-1.12,2.78Zm2.24-5.57l-8.35-3.36,1.12-2.78,8.35,3.36-1.12,2.78Zm2.24-5.57l-8.35-3.36,1.12-2.78,8.35,3.36-1.12,2.78Zm2.24-5.57l-8.35-3.36,1.12-2.78,8.35,3.36-1.12,2.78Zm2.24-5.57l-8.35-3.36,1.12-2.78,8.35,3.36-1.12,2.78Zm2.24-5.57l-8.35-3.36,1.12-2.78,8.35,3.36-1.12,2.78Zm2.24-5.57l-8.35-3.36,1.12-2.78,8.35,3.36-1.12,2.78Zm2.24-5.57l-8.35-3.36,1.12-2.78,8.35,3.36-1.12,2.78Zm2.24-5.57l-8.35-3.36,1.12-2.78,8.35,3.36-1.12,2.78Zm2.24-5.57l-8.35-3.36,1.12-2.78,8.35,3.36-1.12,2.78Zm2.24-5.57l-8.35-3.36,1.12-2.78,8.35,3.36-1.12,2.78Zm2.24-5.57l-8.35-3.36,1.12-2.78,8.35,3.36-1.12,2.78Zm2.24-5.57l-8.35-3.36,1.12-2.78,8.35,3.36-1.12,2.78Zm2.24-5.57l-8.35-3.36,1.12-2.78,8.35,3.36-1.12,2.78Zm2.24-5.57l-8.35-3.36,1.12-2.78,8.35,3.36-1.12,2.78Zm2.24-5.57l-8.35-3.36,1.12-2.78,8.35,3.36-1.12,2.78Zm2.24-5.57l-8.35-3.36,1.12-2.78,8.35,3.36-1.12,2.78Zm2.24-5.57l-8.35-3.36,1.12-2.78,8.35,3.36-1.12,2.78Zm2.24-5.57l-8.35-3.36,1.12-2.78,8.35,3.36-1.12,2.78Z"/><circle class="cls-4" cx="227" cy="389" r="10"/><circle class="cls-4" cx="752" cy="388" r="10"/></svg>